<svg id="Layer_1" data-name="Layer 1" xmlns="http://www.w3.org/2000/svg" xmlns:xlink="http://www.w3.org/1999/xlink" viewBox="0 0 289 250"><defs><style>.cls-1{fill:none;}.cls-2{fill:#6c613c;}.cls-3{fill:#77a511;}.cls-4{fill:#b7c49d;}.cls-5{clip-path:url(#clip-path);}.cls-6{fill:#0c0d0d;}.cls-7{fill:#78543c;}.cls-8{fill:#4f3a25;}.cls-9{clip-path:url(#clip-path-2);}.cls-10{fill:#0f0f0f;}.cls-11{fill:#768b49;}.cls-12{fill:#b5becb;}.cls-13{clip-path:url(#clip-path-4);}.cls-14{fill:#050605;}.cls-15{fill:#7d5742;}.cls-16{isolation:isolate;}.cls-17{fill:#f8f8f8;}</style><clipPath id="clip-path"><rect class="cls-1" x="32.42" y="-0.1" width="233.87" height="250.24"/></clipPath><clipPath id="clip-path-2"><rect class="cls-1" x="96.68" y="89.27" width="26.37" height="15.68"/></clipPath><clipPath id="clip-path-4"><rect class="cls-1" x="23.08" y="158.42" width="90.32" height="81.4"/></clipPath></defs><path id="Path_1571" data-name="Path 1571" class="cls-2" d="M148.76,133.54l3.85,6.16-.05,1.62-1.22-.95-1.64-.54.24,2.65L148.55,144l-.8,3.07-.7,3.09h-2.14l-1.41-1.73-.52-2.06-2-1.63,1.5-1.15.26-2.19-2.83-2.44,1.69-1.18h2l-1.39-3.52-2.07.47L140,133l2-1.41,1.83-.47.53,2.19,1.42.79,2.31-.23Z"/><path id="Path_1572" data-name="Path 1572" class="cls-3" d="M171.69,82.25Zm33.62,37.91-.1-2.1.57-1.23,2.26.75.1,2.45.77-1,2.44-1.22.52,1.42-1.19,1.09-.78,1.43,1.64.41.52,1.63-1.38-.07-.63,1.08,1.08.89.58,2.38,2.26.14v-3l1.92-.07-.3,1.08L218,127.7l-1.87,4.42-2.28.81,3.2,1.15,2.09,2L216.8,138l-1.85-.14-.88-.47-.32-1.49-1.17.06-2.3,1.9-1.62-.88.36-1.49.85-1.63.94-2.1-.8-1.9-2.14.74-1.41-1.55.57-1.43-.86-1.43.44-1.9-1.72-.06-1.18,1-.8,2.32-1.6,1-2.19.27-1.35-1.36L196,124.94l2.9-.54,2.55-.42.85-1.15-1.17.14-2.41.2-2.52-1.08,5.38-1.16.1-1.77.09-1.43,1.77.89.38,1.56Zm11.87-19.93,2.14-2.76,2.49,1.81-.73,1.47-.72,1.37.4,1.72,2.87-.26.63,3.27-.9,1.81-1.91.26-.5-1.29-.49-1.46-2,.42.92,2.08-1.32.77-2.08-.35-.76-1.28-1.72-1.13-1.67,1,1.51,2.67.06,1.89-2,.43-2.68-.43.9-1.38-1.53-2-3.56-.85.83-2.59,2.08.44.21-1.9,2.32,1.38,2.26-.18-.91-2.41,1.24-1.46,2,.86,2.69.25ZM100.29,98l.1-2.65,2.83-.23,2.35,2.12-.7,1.06,2.66,2-.94,3.25-2.75-1.36-1.67-.76-.31,2,2.57,2.42,1.37.76-1.08,1.82-1.38-.46-2.81-2.26-.86,1.89-.1,2-.31,1.22-3.6.08L93,110.31l.17-1.9,2.3-.45,1.68-.22-1.43-2.27-1,1.13-.61-.81-.26-.82,1-.53.87-.07.88-1.72-.75-.93.2-1.09,1.19-.91,2.06.3ZM107,60.86l-1.29-1.6,5.06,2-.71,1.45-2.08.61-.47,1.23,1.84.6,1.07.92.83,1.6-.17,1.45-1.08.46-1.86,1.6-1,1.08-1.46,1.07-1.38-.85-2-1.37-.78,1.6-1.62.53-2.07-1.38-1.06-1.36-1.09.83-.85,1.22h-1.3l-3.29-1.3,1.78-2,2.24-1.92,1.77.3,1.37,1.15,2.6,1.76,1.17-.76.32-2.14L99.1,66.29l-2.38-.38L95,65.14l.88-3,2.63-1.69,1.52,1.92,1.7-2,1.62-.53.21,2.52ZM175.66,46.1l.38-2.4.5-1.78,3.3.62L182,43.7l1.76,2.06-1.34,2.05-2.87-1.3-1-.82-.59,2.61-1.75,1.5-1.65-.34-2.11-1.23-1.59.27L169.4,49l-.37-2.4,2.51-2,2.25,1.3.82,1.1Zm-62.9,3.72-.2-1.35,1.63-1.67,2.88-.6.61-1.18-.35-2.49,1.2-1,2.46-.7.52,1.89,2,.65,3.25.49.14,1.78.25,2.22-1.27,1.4-1.67-.76-2.91-1.94-.55,1.13,1.44,1.73-.79,2.8-3.19-.59,0-1.19-2.34.49-1.2.7Zm40.31-18.38,2.14-.28,0-2,1.1-.69,4.25,1.85-.79,2,1.72.42,1.22,1.37.1,2.53-2.56,1.58-.79-2.61L158,37.33l-2.19-1.1.44-1.92,1.46-1.16-3.86.27ZM141.91-.1l-3,2.5L137.28,5l-2.72.82-2.13.51-1.66,1.69.91,2.64,3.39.18,2.82.82-.9,1.88-2.89-.06-2,1.88,7.15.94L141,17.9l-4.47.81-1.51.12-2.54,2.08.86,1.93,2.68,1.09.78,2.63-1.77,1.94L129,27.61l-1.69.26-2.74-2.07-.35-2.94-1-2.06,2.82.62L127.33,23,129,20.6l-2.66-4.26-1.39.88-.88.88-2.13-1.51-.81-2.07-1-2.44L118.86,15l-.15,2.5-2.56-1.12-2.94-1.19-1.59,1.38,1.43,1.95-1.19,1.38-1.71,1.25,3.88.88,1.29,3.31-3,2-1,.94,0,2.13-1.15,2.12,1.87.25,3.63.71.6,2.5-2.47,2.56-2.6,2.05-2,2-4.48.88-3.49-1.24.08-1.88,2.7-.19L106.82,39l.71-2.68-2.3-2.19L103,33l-.49-2.31-4.25-1.13-1.84,2.26-5.07-.5.07-2.26L89.9,27.27l1-1.13,2.37,1.25,2.39.5.7-2.26-1.05-1.94L92.06,23l-2.5-.31-.68-.94L86.36,22l-.08,2.82-1.72,3.31-2.31.5-1.71.25-.44-2.07-.92-2.69-1.51.5-.33,2.57-2,1.12L73.7,26.93l-1.12-2.19-1.13.81-2-.18-1,1.25.37,2.31-.54,3.2-4.46,1L62.58,35.2l5.32.56,1.3,2.75-2.19,1,.24,1.93,2.5,2.06,2.32-1.06-.23-3.24,2.56.62L75.46,41l.05,1.43-.7,1.43L77,42.76l.74,1.81-1.7.62-1.57,1.5,1.69,1,2.32-.74,1.2-1.56,2.17,4-3.09,2.05-.68.94L76,53l1.85,4.48,1.56.68,3.26-1.37,3.19,1.13,1.24,1.92,1.83-1.49,2.84-3.42-2.55-1.87L92,50.82l1.67,1.62,1.43,2.75-.84,2.48-1.08,3.7-4.44-.19-.47,2.87-2.82.06L83.47,63l-4,2.17L75.69,66l-.59,3,2.4,5.28-3.87.5L70.41,78.2l-4-1.67-1.5-1.12L63.47,78l-2.17-3.6L63.56,73l2.68,1,2.38-.62,2.58-2.17-2.66-4.91-2.5,0,.08-2.3-1.19-.19-1.25,1.62-2.49-3.85-.48-1.25-4.89.62.8,3.24-4.13-.63-1.76-2.48L46.66,62l-.07,1.93L48,67.41l-1.27,2.8L43,68.47l-1-.13,1.06,3.36,0,1.67L41,74.3,42.73,76l4,1.43,2.17,3.3-2.43.38,2.8,2.16-.82,2.48-4.31-.55-1,2.35,1.55,2.1,1.87.56,1.12,2.1L50,91.41l2.26-2.78,2.69.43,2.61,2,2.88-1.17,3.08-4.52,3.16,4.52-1.45,3-1.93-1-2.82,2.9,4.55,2L66,98.3l-.69,1.92-6-2.67.54,2.37,1.49,2.41,1.8,1.24-1.57,1.85-3.3.56-1.64,2.22-3.11-.8-1.24-2,1.87.07.14-4-.42-3-5-.62-1.19,2-.58,4.14-1.14,4-2.62,2.08-2.62-.24-2-1.45-3.86.24,1.79,5.55,5.41,1,2.24,2.34-1.7,2-2.54.06,1,2.7,6-1.66.8,3.63,1.68.56,3-3.39-1-4.67,0-2.9,3-.67,3.53,5.6L57,122.45l-2.07,2-3.13,3.45L54,131l-1.62.85-2,.55,3,2.1,3.22,1.71.67-.08,3.94-.47.58-4.92-3.16-2.87,1.63-2.34,7,2.07,1.09-4.06.58-4.12-2-3.19,2.68.6,1,4.56,2.41,3L74.53,119l2.06-1.3,3.59,3.52.61,2.76-9.92,3.87-1.7,3.38L71.39,134l-3.8.92L67,136.25l1.17,2,1.72,4,.8,1.23,1.86,1.35,1.69-2.33.9-4.54,1.38-1.9,2.84,3,.85,2.45,2.11.86.58,4.79-3,.73h0l-4.47-.24-1.13,1.1-.89,3.86,2.1,2.33,1.1,2.5,3.9,1.58,1.08-1.37-1.69-2.07.31-1.78,2.31-1.28,1.71,1.58.29,2,2.5.79.32-2.07-.58-2.28,2.51-.4,2.18,3.07,2.42-.4.41-1.49-.68-2.07-.8-1.78L93.1,147l2-1.19,1.2,1.88,2.82-1.18,0-1.69,0-1.68-2.21-.7-2.1-1-2.1-1-.18-3.08,3.33-1.68h1.91l.55-1.16.56-1.16-3-1.68L95,129.35l.41-2.3h1.82l2.12-.69.82-1.89.87-.3.87-.3.58-.2.89,2.29,1.5,1.09-2.35,1.78L101.26,131l1.7,1.69,2.92-.59.33-2.89,1.61-.2.49,1.4.24-.82.25-.81,1.2-.94,2-.15.13-1.51-.7-.84-2.63.35-3.32-3.91.33-2.2L104.46,118l1.21-1.73,2.22.16.26-2.21,1.27,1.18.93,1.42,1,.47-.82,2.6.85,2.67,2.72-1.18.73-1.81,1.13-.78,1.42.15-.36-3.15.1-1.57,1.2-.47,1.3-2.88,1.84-.75,1.5,2-1.53,1.26.87,1,3.58-.16,2.46.47.93,2.91L129,120l-1.38,2.67-1.75-.16-.61-2.51-4,1,1.88,2.59,1.71,4,.13,2.51,2.2,2.12,2,.24.3,1.65-1.13.94-1.76,1.41.22,2.51,1.1,1.1,1.43-.4,1.43-.39,2.1-2.74.72.15.71.16,1,1.26,1,1.25,1.87,3.9.09.19,2,1.73.66-.5,1.5-1.15.26-2.19-2.83-2.44,1.69-1.17h2l-1.39-3.53-2.07.47L140,133l2-1.42,1.83-.47.53,2.19,1.42.79,2.31-.23.71-.37,1-.49-.69-1.49-1.9-1.41.5-1.1,1.35.79,1.78-.12.63,0,.46-1.38.37-2-1.49-1.71-1.57.14-1.56.14-.54-1.94-.15-1.45-.48.57-2.53,3-2.64.66-.64-2.21,2.53-.83-.37-1.88-2.73-1.39,1.26-1.73,3-1.28-1-2.54,2.36-.49,1.2-2.72-.25-1.55,1.12-.3,1.13-.3,1.28.16,1.29.16,2-.44,1,2,.13,2.17,0,1-.07,1.16,1.49,1.22-.46.89.5.63.49.64,1.63-.11,1.62-.11.67-2.26-.15-1.5,2.28,1.22.41,2.38.36,1.83-.47,1.66-1.23.55-1.48,1,.43.37,1.12,1h1.85l.14,1.1.27,1.1.94.5,1.46.33,1.41-1.54.19-1.33-1.5-1.21.59-1.61,2.19-.61.93,1.66,1.17.17,1.17.16,1.41-.88-.19-2.16.84-.16,1.34.11,1-1.16-.92-2.28-2.51-.32-1,.94-1.46.66-1-2.89.37-1.71,1.13-.67,1.55.56h1.74l1.15-2.11-.24-2.21.95-.33,1.17,2.26,1.41-.61,1.77,1,1,1.6.15.93.25,1.56-1.11,3-1.41.88-1.51.4-.57.88-.31.66.54,1.6,1.56.39.21,1,1.67.72,1.9-.5,2.43-5.63,2.17,1.21.64,1.72.24,2.15-.09,2.37-1.63.56-.73.22.33,1.46,1.43,1.1,1.43,1.1-.07,1.22-1.3,1-.3,1.15,1.54,1.66.25,1.43-.58,1.49-1.51.49-1-1.88-1.7,1.1,1.4,2.76v0l.47,1.71-2.41.66-3.68-.06,0,2.15,1.92,2.36.88,1h0l1.64-.27.67-3,1.57-.61,1,2-2.25,1-1.25,1.55-.3,1.6.28.22,2.26,1.83.67.08,2.61.31,1.59-1.32-.43-1.38h2.74l2.05.5,1.13-1.14.29-.3-1.67-3.13-1.1-.88,2.38-2.31,3.81-.61,1.33.66.81-1.65.75-1,.22-.3,1.56.33,1.59,1.7.07,2.31L206.61,146l2.15,1.21L207.39,149l-2.18.22-1,.1,1.84,2.6.72,1,1.38,1,.52,2.14,2.68-.22,1.12-.71.27-2.26-2-1.54,3.09-1,1.43,1.37.79,2,.25,2.09,0,1.48,1.67.66,1.22.23,2.3-.44.88-2.31.36-1,1.16.21,2,1.92,2-.05,1.53-1.1.94-2.14-1.92-1.71-.47,1.32-3.39-.47-.59-1.16.74-1,1.47-.44.48-1.93-.24-1.82-2.12-.38-2.54-1.64-.09-1.77,2.38-3.26,2.77.27.57,2.46.42,1.5,2.13.44,1.14,1.14-.31,1.85,3.56.18-.41,2.55-.38,1.4.51,1.05.52,1.05,2.86-.61.56,3,.33,1.32,2.56,1,1.44-.26,1.75-2.55-1.69-.62,4.11-.35,2.25-1-1.18-2.9-1.93-1.41,3.21-.27,2.38,1.32,1.25.35,1.8-.79-.1-3.87-1.13-.88-2.44,1.06-2-.09.21-1.5,1.37-1.23L251,140l-3.27-1.77-1.65,2-1.18,1.32-2.73-1.86,1.75-2.63L243,134.7l-3.64-.88-1.65,1.85h-1.78l-.95-1.85,0-2.12-1.3-1.85-.84-.23-.85-.21-2.78.61-1.59-.8-.77-1.76-.13-2.48-2.82-1.85.13-2.12,1.44-.62,3.18,2.3,2.83-2.47,1.62-.53,2.88,3.53-.93,1.86.57,2.38,2.75,1,.14,2.12,2.35-1.24-1.17-4.24.68-2.56,2.49.79,1.3,1.86L244,128l2.78-1.06.38-1.32,1.39,2.2,1.21,1.24,1.34-3.54-1.93-2.3-1.23-.79,2.44-1.24,3.14-.65.42-2.39-.21-2.65-.84-2.56-1.24-.54-1.5,3-1.48-1.6-2.58-.61-.26,3.46-1.62.7-.85-2.3.58-1.77-.76-2.39-2-1.51-1.54,1-1.12,2.39h-2.42l-1.29-2.48-.38-3.19-3.2-1.24.25-1.77.53-2.17L230.65,100l.42-3.23,3-.13,3.4-3.37L239,94.76l-.75,1.75,4.88.21,1.5-.34-.36,3.22.87,2.45,2.29,2.32,2.44,1.82.57-3.72,1.44-1.11.39-1.83-2.16-1.47.52-1.34L252,96.3l1.26.29.74-1.4-1.67-1.33-1.28-4.09-2.15-.71-3.36,1.26-3.66-.22-1.72-2.8-.65-2.39,2.78-1L243,86l1.69.63,3.06-.56.61-2-2.18-1,2.41-.3,2.37-1,.31-1.79-.86-2.67.56-2.68-2.53-1-1,1.47-2.19.07,0-1.62-3.12.43-1,1.82-1.12,2.82-3-.57L235,75.17l-1.82,2L232.7,79l-2.88-1.34-2.25-.77-1.47,2.9L225.56,82l-.68,2.11L223.39,84l-1.87-2-1.71-3.37-2.08,1.2-.36-3,2.56-.91.62-2.53-.47-1.77L223.66,70l3.17,1.63,2.22-.91,1-2,1.05.57,1.63.42,1.23-1.63,1.36-.2.9,1.2,2.69.49-.23-2.75-2.31-1.27,1.11-2,2.13.07-.3-2.82-2.74-1.84-1.64.42-2.78.5-3-.91,1.82-2.12,1.35-.08,1.06.36L234.74,56l.39-2-1.23-2.25-.4-1.34.44-1.13H230.6l-.8-2.48,0-1.2-1.53-2.26-2.43,1.06-1.61,2.82-.42,3-1.67,1.7-3-1,1.46,2,2.79,2.54.36,2.68-1.5,1.41-4,.49-.19-1.55,1-.85-.58-3-2.09-2.26-3.19-.63-.73.92,1.33,5-.82,2-2.65,1.62-1-2.14-4.12-1.45,1.52,3,.6,3.84-2.34,2L203.26,66l-.51-2.84-3.94-2.18-2.61,1.73-1.55,1.78L192.58,64l3.12,6.83-3.54.21-2.34.28,2.34,4.22.39,3.24,3.2.45L195.9,76l1.95.62-.45,2.8.26,2.52,3.56.61,4.51-2.3-.81-4.43,2.25-.71,2.22.45-.16,4.26,2,2,1.16-5,3.16,3.27.34,5.32-1.3,2.37-1.75-1.51L211.3,83.9,208,86.29l3,4.25-2.51.71L206,90.36l-1.8.75.05,2.23,2,1,2.48-.35.25,2.88-1.77,2.25-1.88-1.46-.9,3.41-1.84.42-3.06-2,1.73-2.37.74-1.95-2-2.72-1.74-1.4-1.3-2,.25-2.3-1.85-3.64-1.61-.49-.9,3.22,1.3,2.86-1.93,1.46h-5L184,89.45l-.4,2.37,2.1,1.19-.25,2.3-.95,2.44-3.73-.56-.59,2-1.74-1.6.52-1.74,1.58-1.68-1.79-3.14-2.26-.69-2.59-.91L172,88.13l2.59-3.5-2.92-2.38-1.94,3.08-1.58,1.75-4.09-.14-2.89.21,2.85-1.75.5-.91-2.43-2.66-3.06,2.24.17-2.45,2.28-1.19L161,78.9l-1.26-1.05,2.36-1.75,1.48-.14,1.95,2.1,1.7-.84,1,1.82-.18,2.3,3.64.91,1.92-.42.65-1.61-1.91-2.72.95-2.6,2.33-.34,1.43,3.85,4.23.35.93-1.54-.81-1.69,5.22-.16,2.62-.56-4.36-5.68-.74-2.23,4.17-.43,1.61.77,1.9-.73-.14-.9.14-1.35-.47-1-.47-.24.59-1.35,1.44-3.58,1.28.55.74,1.42,1.68-.24.93-1.38-.49-2.08-1-2-.26-1.22-.76.06-.3-.76,1.85-.24.77-.37V50.64l-.75-1.11L196,49l1.72-.7.59.38.89-.9.78,1.46-.48,1.35.89,1,2.2-.34,1.46.07.05,1.24,1.58.8,1.9-.66.66-1.84-.71-1.19-1.45-.41L206,46.82l1.43-1.6,2.11,1.29.68,2.58,2.74-.83.76-1.95,2.44.95,1-1.44-.2-1.34-.68-1.89,1-2.91.9-.56.41-1.27L214.49,36,214,37.69l-1.3.94-1-1.06-1.89-.44-1.75.73-2.17.82-2.39-.5-.76-1.38,1.81-1.22,1.49.5,1.84.33,1.42-1.11.14-1.95,1.58-.84-.13-1.89-2.32-1.39-1.71-1.33.41-1.06.77-2.12-2.29-.22-2,1-.14,2-1.66-.45-1-1.39-1.39-.56-2,.89.51,2.62H195.2l-1.1,1.95,2.44,1.28.47,1.73L194.61,37l-2.4.44L191.37,34l-2.63.55.53,1.5-1.64,1.17-.93-1.11.22-3.11-1.84-.12-1.69.67-2.45.17-.08-2.34,2.95.61,1-1.21-1.76-1.73-2.15-1.23-1.46-3.07,1.3-.83,1.34.22,1.32,1.39,2.21,1.29,4.31-.89-2.84-4.18L186,19.16l1.8-1.23,2.12.39L189.53,16l-2.07-3.34-1.62-.4-.7,1.34-1.36,1.51-1,3.12-1.18.17-1.26-1.28-1-.56-1.52.67-.76-1.67,2.14-.84L181,12.21l2.75-.84-.47-2.06-1.77-1-2.76,1.1-1.22-.72-1.32-2.2.19-1.38-2.92.21L173,8.21l.58,2.13L169,12.63l-1.75.94,2,2.35L171.34,17l-1.1,3-2.77-.36-1.56-1.06-.62-.79-.56,1,0,2.16-1.65.5-.83-.12,1.36,1.92,2,.7-2.43,2.55-2.33,1.6L159,26.49l.34-1.83-1.24-1.22-1.5-1.31-2.18.47-.73.7L153.41,21l.27-2.07-2.2-.12-1.58.44-1.06-2.87,3.65,0,1.12,1.05,1.72-2.11.49-1.22,1.79,1.37,1.21.55L160.37,15l-.27-3.81L160,9.3l-2.52,0L156,9.27l-.84-1.57,0-2.79-1.35-2.22-1.34-.19L152,1.32l-.34-.84L149.1.33l-1.27.39,1.2,2,1,1.62-2.7,1.92-1.72-.47-.44-2.63-1.76-.43-.5-.83L142.82.17Z"/><path id="Path_1573" data-name="Path 1573" class="cls-4" d="M230.35,158.4l-.6,2.83h-3l-.58-2-3.25-.84-.73,1.53L222,163l-2.74.77-3.78-2.68-3-1.76-1.81,1.46-1.08,3.14-2.45,2.45-2.08-1.15-1.61-1.3-2.62-1.22-1-1.91-2.86-1.3.58-1.84-2.71-.84-3.49-.54-.19-.76,11.19-2.77,3.79-.81.72,1,1.38,1,.52,2.14,2.68-.22,1.13-.72.26-2.25-2-1.54,3.09-1.05,1.43,1.38.79,2,.25,2.08,0,1.47,1.68.66,1.22.23,2.3-.44.88-2.3.35-1,1.17.22,2,1.92,2-.06Z"/><path id="Path_1574" data-name="Path 1574" class="cls-2" d="M215.57,80.09l.35,5.32-1.3,2.39-1.76-1.51L211.3,83.9,208,86.29l3,4.25-2.5.71L206,90.36l-1.8.75,0,2.23,2,1L208.7,94l.25,2.88-1.77,2.25-1.87-1.46L204.4,101l-1.84.42-3.06-2,1.73-2.37.74-1.95-2-2.72-1.74-1.4-1.3-2,.25-2.3-1.84-3.64-1.62-.49-.9,3.22,1.3,2.86-1.93,1.46h-5L184,89.45l-.4,2.37,2.1,1.19-.25,2.3-.95,2.44-3.73-.56-.59,2-1.74-1.6.52-1.74,1.58-1.68-1.78-3.14-2.27-.69-2.59-.91-1.88-1.32,2.59-3.5-2.93-2.38,1.91-.43.66-1.6-1.93-2.73,1-2.59,2.34-.35,1.42,3.85,4.23.35.94-1.54-.82-1.68,5.23-.17,2.62-.56-4.36-5.67-.74-2.24,4.18-.43,1.61.77,1.9-.73-.14-.91.13-1.34.75-.26,3.12,6.82-3.54.21-2.34.28,2.34,4.22.39,3.24,3.21.45.14-3.19,2,.62-.43,2.8.25,2.52,3.56.62,4.52-2.3-.82-4.44,2.25-.7,2.23.44-.17,4.26,2,2,1.16-5Z"/><path id="Path_1575" data-name="Path 1575" class="cls-4" d="M129.14,132.47l.3,1.65-1.13.94-1.76,1.42.22,2.5,1.1,1.1-.3,1.78-1.87,1.91-2.55-.08L121,140.74l1-2.09-.25-1.55-4.2-2.52-1.5,1-.45,1.22v.87L112,133l.07-5.24.11-1.51-.69-.84-2.65.34-3.33-3.92.34-2.2L104.46,118l1.21-1.73,2.22.16.26-2.21,1.27,1.18.94,1.41,1,.48-.82,2.6.85,2.67,2.72-1.18.73-1.81,1.13-.78,1.43.15-.37-3.15.1-1.57,1.2-.47,1.29-2.88,1.85-.75,1.49,2.05-1.52,1.27.87,1,3.58-.16,2.47.48.92,2.91L129,120l-1.39,2.67-1.75-.16-.61-2.51-4,1,1.88,2.59,1.71,4,.13,2.51,2.21,2.12Z"/><path id="Path_1576" data-name="Path 1576" class="cls-2" d="M107.53,100.32l-.94,3.25-2.75-1.36-1.67-.76-.32,2,2.57,2.42,1.37.76-1.08,1.81-1.37-.45-2.82-2.27-.85,1.89-.1,2-.31,1.22-3.6.07-2.67-.6.17-1.89,2.3-.45,1.68-.23-1.43-2.28-1,1.14-.61-.81-.25-.83,1-.52.87-.07.88-1.72-.75-.94.2-1.08,1.19-.92,2.06.3,1-2,.1-2.65,2.83-.23,2.36,2.12-.7,1.06Z"/><path id="Path_1577" data-name="Path 1577" class="cls-4" d="M80.17,121.24l.61,2.77-9.92,3.87-1.71,3.38L71.38,134l-3.8.92L67,136.25l1.17,2,1.71,4,.8,1.23,1.86,1.35-1.68,1.83-1.1.42L67,145.87l-1.72,1.4.24,2.68-2.39-.2-2.64-1.59-2.52.24-2.36-1.58-1.09-1.6-2.08-.42-2.09,2.34L49.22,151l-1.8-.52v-.76l.2-1.58L47,146.24,48.34,145l-2.46-2.19.77-2.3,3,.61,1.52-1-.36-2.35.81-1.69,1.47,0,1.1,1.27,1.9.79,1.51-.61-.39-1.5,3.93-.47.59-4.92-3.16-2.89,1.63-2.33,7,2.07,1.08-4.06.59-4.13-2-3.19,2.67.61,1,4.56,2.41,3L74.52,119l2.06-1.29Z"/><g id="Group_291" data-name="Group 291"><g class="cls-5"><g id="Group_290" data-name="Group 290"><path id="Path_1578" data-name="Path 1578" class="cls-6" d="M88.92,78.86a56.23,56.23,0,0,0,4.1,6.6,12.7,12.7,0,0,0,10,5.11c4.15.24,7.53,2.81,10.21,7.17a2.84,2.84,0,0,1,.47,1.35,37.22,37.22,0,0,0,2.18,9.83c3.34,9,8.48,15.36,15.19,19.26,3.8,2.21,6,6.1,6.89,11.66a52.7,52.7,0,0,1,.18,10.8,15.23,15.23,0,0,1-.82,4.54c-.84,2.24-2.34,2.85-3.9,1.55a9.76,9.76,0,0,1-2.38-3.63c-1.21-2.73-2.2-5.64-3.28-8.48-3.18-8.35-7.5-15-14.18-18a16.48,16.48,0,0,0-7.47-1.92,4.9,4.9,0,0,0-4.28,2.41,4.1,4.1,0,0,0,.07,4.55,5.08,5.08,0,0,0,2.48,1.95c1.39.5,2.81.88,4.2,1.43a14.89,14.89,0,0,1,5.73,4.33,1.47,1.47,0,0,1-1,.27c-1.27.18-2.55.27-3.8.56a22.85,22.85,0,0,0-9,4.3c-.5.4-.84.29-1.24-.27-.75-1.07-1.53-2.1-2.34-3.07a25.54,25.54,0,0,0-7-6.4c-.87-.48-1.49-.14-1.81.95a2,2,0,0,0,.74,2.4c3.21,1.77,5.67,5,8.13,8.15.43.55.42.91,0,1.36a25.38,25.38,0,0,0-3.45,4.35,1.24,1.24,0,0,1-1.18.68c-1.3,0-2.61,0-3.91,0-.61,0-1,.31-1.24,1.14-.32,1.33.24,2.45,1.3,2.49,1.59.05,3.18,0,4.77,0A2,2,0,0,0,95.09,155a19.52,19.52,0,0,1,2.31-3.27c5.61-6.5,12.14-9,19.34-8.5a1.35,1.35,0,0,1,1.12.69,21.1,21.1,0,0,1,3.1,8.25,58.83,58.83,0,0,0,1.29,6.94c.58,2,1.38,3.8,3,4.36,4.12,1.46,7.39,4.75,10.26,8.95a4.53,4.53,0,0,1,.79,1.78,47.32,47.32,0,0,1,.69,6c.39,6.76.27,13.52,0,20.28a182.88,182.88,0,0,1-1.7,19.4c0,.28.1,1.29-.49,1.8-.83.68-2.44,0-3.06-.25-1.87-.7-4.4-.24-9.46.7-3.77.7-7.75,1.43-12.11,4.08a28,28,0,0,0-7.73,7,155.33,155.33,0,0,1,18-1.29c2.58,0,5.07,0,7.49.1a.3.3,0,0,1,0,.1,2.92,2.92,0,0,0,1.3.5c1.51.27,3.11,1.14,4.62,1.57a36.28,36.28,0,0,0,4.72,1,35.13,35.13,0,0,0,6.06.31c4-.12,19.69-1,41-2.42a21.33,21.33,0,0,0-11.83-9.1,15.25,15.25,0,0,0-7.88-2.12c-3.13.08-6.29-.41-9.41-.1a.75.75,0,0,1-.92-.73c-.5-2.7-1-5.4-1.34-8.14-.48-3.6-.87-7.2-1.13-10.84a109.7,109.7,0,0,1-.08-14.84c.3-4.66,1.95-7.84,5-9.75a54.39,54.39,0,0,1,6.46-3.5c4.12-1.85,8.3-3.36,12.37-5.44a16.08,16.08,0,0,0,6-4.61,4,4,0,0,1,1.66-1.33,42.48,42.48,0,0,0,7.22-4,34.42,34.42,0,0,0,5.72-5.85,28.88,28.88,0,0,1,12.46-8.2h0a1.85,1.85,0,0,0,1.24-2.3c-.21-1.22-.88-1.64-1.94-1.26a35.12,35.12,0,0,0-9.66,5.34c-.2.14-.4.62-.65.27s0-.59.07-.89a2.7,2.7,0,0,1,.14-.56,42.57,42.57,0,0,1,5.2-12.15,2.32,2.32,0,0,0,0-3c-.71-.78-1.34-.57-2.09.69a54.92,54.92,0,0,0-3.17,6.09,37.62,37.62,0,0,0-3.42,12.65,2,2,0,0,1-.53,1.15,22.58,22.58,0,0,1-8.75,7.19c-.14.07-.29.34-.44.08s0-.44.07-.64c.66-1.86,1.35-3.71,2-5.59a153.52,153.52,0,0,0,4.46-15.47c.64-2.85-1-5.29-3.11-4.61-2.7.86-4.62,3.2-5.4,6.8a41.51,41.51,0,0,1-6.68,15.46c-1.81,2.56-3.72,4.93-6.38,5.75-.76.23-.8-.13-.79-.94.05-2.28.13-4.56.08-6.84a6.48,6.48,0,0,1,1.53-4.7,59.43,59.43,0,0,0,6.44-9.37l.21-.37a2.38,2.38,0,0,0-.08-2.71c-.65-.72-1.34-.62-1.93.4a73.78,73.78,0,0,1-7.1,10.26,8.14,8.14,0,0,0-1.66,5.12c-.06,3.1-.11,6.21-.14,9.31,0,.71-.15,1-.69,1.17-3,.86-6.12,1.64-9.12,2.77-1.34.5-1.76-.19-1.92-1.93-.29-3,.05-6-.06-9a9.54,9.54,0,0,1,2.14-6.59,74.06,74.06,0,0,1,7.43-7.6,55.29,55.29,0,0,0,7-7.7,23.77,23.77,0,0,0,3.82-9.41c.13-.69.15-1.48.74-1.88,4.62-3.11,9.3-5.94,14.55-6.32.78-.06,1.13-.77,1.25-1.75a4.7,4.7,0,0,0,0-1.06,3.07,3.07,0,0,1,1.44-3.2,8.62,8.62,0,0,1,3.42-1.32,29,29,0,0,1,10.34.18c1,.17,1.57-.38,1.69-1.54,0,0,0-.06,0-.09a1.65,1.65,0,0,0-1.3-2,27,27,0,0,0-3.46-.52c-4-.32-7.88-.35-11.63,1.82-.17.1-.33.35-.48-.06a5.2,5.2,0,0,1,.65-3.7,48.93,48.93,0,0,0,5.83-7,23.39,23.39,0,0,0,4.18-9.53,2,2,0,0,0-.94-2.4c-.68-.26-1.37.33-1.57,1.43a16.65,16.65,0,0,1-1.84,5.11,44.94,44.94,0,0,1-8,10.18,3.38,3.38,0,0,0-1,2.74c.05,2.67,0,5.35,0,8,0,.81-.16,1.22-.77,1.34a30.67,30.67,0,0,0-11.3,4.82c-.17.11-.35.38-.54.16s-.06-.6,0-.87c.35-1.16.7-2.32,1.08-3.45,1.5-4.43,3.3-8.64,5.16-12.8a5,5,0,0,0,.39-3.35c-.49-2-2.36-3.56-4.39-1.46-6.11,6.31-10,14.55-11.21,25a6.74,6.74,0,0,1-2.08,4.45A39.17,39.17,0,0,1,157,128.7c-1.77.89-2.49.1-2.28-2.48.42-5.35.77-10.71,1.55-16a31.54,31.54,0,0,1,1.49-6.72,14.47,14.47,0,0,1,4.35-5.63,27.27,27.27,0,0,0,6.9-9.1c2.38-5.33,2.7-11.31,2.55-17.38a3.86,3.86,0,0,0-.45-1.63c-1.1-2.2-3.42-2.12-4.39.24s-2,5.06-2.94,7.67A18.29,18.29,0,0,1,158,86.32c-1.59,1.26-3,2.84-4.62,4.14-3.94,3.23-6.14,8.05-6.92,14.22-.12,1-.39.84-.8.3a59,59,0,0,1-5-7.49,19.21,19.21,0,0,1-2-5.12,2,2,0,0,1,.66-2.29,32,32,0,0,0,8-10.56,14.08,14.08,0,0,0,.84-10.71c-.4-1.18-1.06-1.65-1.74-1.24-.84.5-1.07,1.4-.67,2.72a8.16,8.16,0,0,1,.25,4.46c-1.3,5.37-4.44,8.39-7.49,11.76a5.12,5.12,0,0,1-.1-.54c0-.31,0-.63,0-.94a43.69,43.69,0,0,0-.41-11.36,15.57,15.57,0,0,0-2.71-6.92c-.25-.31-.49-.67-.85-.74-.62-.11-1.09.16-1.42.94a2.05,2.05,0,0,0,.29,2.22,11.77,11.77,0,0,1,2.09,5.15A38,38,0,0,1,135.69,85a24.7,24.7,0,0,0,3.37,15.84,82.54,82.54,0,0,0,6.09,8.53,1.9,1.9,0,0,1,.55,1.59,44.52,44.52,0,0,0-.27,5.88c0,.86-.29,1.3-.89,1.44a5.88,5.88,0,0,1-3.11-.27,24.57,24.57,0,0,1-8.61-5.39,35.71,35.71,0,0,1-6.8-8.25,25,25,0,0,1-3.39-12.15c-.24-5.69-.28-11.4-1-17a14.28,14.28,0,0,0-1.73-5.91c-1.23-1.92-3-1.76-4,.35a9.21,9.21,0,0,0-.48,1.23,43.83,43.83,0,0,0-1.57,10.8c-.2,3.29-.36,6.59-.34,9.9,0,.3.1.71-.13.87s-.44-.24-.62-.45c-3-3.26-6.29-5.09-10.07-5.14-.93,0-1.18-.59-1.26-1.65a9.61,9.61,0,0,1,.72-4.4,12.81,12.81,0,0,0,.85-3.17,42.18,42.18,0,0,0-1.25-15.17c-.27-1.16-.94-1.62-1.65-1.26a2.06,2.06,0,0,0-.8,2.39,58.42,58.42,0,0,1,1.26,8.64,16.83,16.83,0,0,1-.84,7.21,13.81,13.81,0,0,0-.92,5.43c0,1-.24,1-.78.73A11.74,11.74,0,0,1,93.58,81c-1.56-2.63-3-5.34-4.58-8-.7-1.21-1.33-1.39-2-.61a2.37,2.37,0,0,0,0,2.9c.65,1.18,1.31,2.36,2,3.54"/><path id="Path_1579" data-name="Path 1579" class="cls-7" d="M139.65,183.87a57.75,57.75,0,0,0-1-8.79,7.69,7.69,0,0,0-.9-2.36c-2.86-4.68-6.23-8.33-10.29-10.39a4.15,4.15,0,0,1-2.85-3.34c-.21-1.25-.56-2.46-.67-3.72a32.79,32.79,0,0,0-7-17.37,19.61,19.61,0,0,0-8.15-6.63,28.25,28.25,0,0,1-3.8-1.17c-.3-.17-.68-.28-.65-.8s.4-.49.66-.64c1.54-.83,3-.15,4.53.26,7,1.93,11.94,7.94,15.34,17,1.51,4,2.75,8.25,4.56,12,1.13,2.34,2.51,4.2,4.53,4.86,3,1,5-1.33,5.92-5a50.3,50.3,0,0,0,1-14.84,28.09,28.09,0,0,0-3.29-12.52,16.63,16.63,0,0,0-5.82-6.05c-6.56-4.25-11.52-10.95-14.34-20.75A35.1,35.1,0,0,1,116.2,95c-.15-5.6,0-11.19.37-16.77a66.82,66.82,0,0,1,.78-7.47c.12-.66.14-1.71.58-1.75s.55,1,.68,1.63a70.23,70.23,0,0,1,1,10.44c.21,4.51.28,9,.73,13.5a25.87,25.87,0,0,0,3,9.72,37.26,37.26,0,0,0,15.55,16.13,9.21,9.21,0,0,0,5.83,1.22c2-.33,3.34-2.29,3.36-5.25a81.68,81.68,0,0,1,.62-9.89,52.1,52.1,0,0,1,1.74-8.66,14,14,0,0,1,4.12-5.94c1.89-1.9,3.78-3.78,5.73-5.53a20.31,20.31,0,0,0,5.46-8.79c.81-2.4,1.72-4.73,2.57-7.09a2.33,2.33,0,0,1,.55-1c.26,8.92-1.42,16.46-6.63,21.74a44.62,44.62,0,0,0-4.92,5.27,22.21,22.21,0,0,0-3.39,9.68c-1.06,6.63-1.42,13.41-2,20.15-.34,4.32,2.46,7.94,5.47,6.28,3.68-2,7.36-4,10.62-7.31a8.93,8.93,0,0,0,2.81-4.81c.3-1.63.4-3.33.66-5a44.2,44.2,0,0,1,5-14.63,31,31,0,0,1,4.4-6.14,1,1,0,0,1-.12,1,124.4,124.4,0,0,0-5.43,15.51c-.76,2.81-1.22,5.76-1.73,8.67A22.54,22.54,0,0,1,168.49,131c-2.83,3.25-5.87,6-8.8,9.09a31.11,31.11,0,0,0-4.73,6,12.71,12.71,0,0,0-1.83,6.52c0,4-.3,7.94.09,11.92.37,3.83,2.44,6,4.85,5a93.77,93.77,0,0,1,9.68-3.07,33.05,33.05,0,0,0,6.21-2.5,11.5,11.5,0,0,0,3.25-3.12,47.29,47.29,0,0,0,8.6-17.29c.3-1.16.53-2.36.83-3.52a7.64,7.64,0,0,1,2.41-4c.2-.18.48-.36.71-.06s.06.61,0,.92a189.91,189.91,0,0,1-6.43,21.39c-.89,2.3-1.69,4.73-3.33,6.15a25.93,25.93,0,0,1-5.51,3.49c-5.24,2.59-10.65,4.45-15.77,7.59a23.12,23.12,0,0,0-4.51,3.62c-2.07,2.15-3.08,5.17-3.55,8.72a101.36,101.36,0,0,0-.06,20.31c.1,1.36.21,2.71.32,4.07a1,1,0,0,1,.06.36c0,.4.14.93-.12,1.17s-.59-.13-.85-.37a49,49,0,0,1-9.78-13.13,3.28,3.28,0,0,1-.31-1.63c0-3.65,0-7.3,0-10.94a15.54,15.54,0,0,0-.25-3.79"/><path id="Path_1580" data-name="Path 1580" class="cls-8" d="M139.65,181.67c.44.33.34,1,.34,1.54,0,4.71,0,9.41,0,14.12a4.5,4.5,0,0,0,.5,2.18,72.44,72.44,0,0,0,3.53,6.33,42.41,42.41,0,0,0,6.79,8.37c0-.66.06-1.15.08-1.63.35,3,.55,6,1,9,.29,1.88.47,3.8.82,5.65.21,1.13-.05,1.2-.61,1.19-2.63,0-5.27,0-7.9,0-1.9,0-3.79,0-5.69,0-.59,0-.78-.16-.65-1.23,1-8.47,1.56-17,1.8-25.65.18-6.37.23-12.73-.06-19.09,0-.27,0-.54,0-.81"/><path id="Path_1581" data-name="Path 1581" class="cls-6" d="M256.47,250.14H42.24a9.82,9.82,0,0,1-9.82-9.82v-1.09a9.82,9.82,0,0,1,9.82-9.81H256.47a9.81,9.81,0,0,1,9.82,9.81v1.09a9.82,9.82,0,0,1-9.82,9.82"/></g></g></g><g id="Group_315" data-name="Group 315"><g class="cls-9"><g id="Group_314" data-name="Group 314"><path id="Path_1637" data-name="Path 1637" class="cls-10" d="M96.82,100.09c-.27.79-.18,1.14.57,1.51,1.23.61,2.48,1.21,3.77,1.7a26.06,26.06,0,0,0,6.27,1.56,11.23,11.23,0,0,0,6.58-1,6.9,6.9,0,0,0,3.17-3.42c0-.07,0-.09.1-.3.28-.82.4-1,.3-1.15s-.06,0-.46-.18h0l-.16,0c-.22,0-.34.59-.52,1.06a5.42,5.42,0,0,1-.67,1.2,6.28,6.28,0,0,1-3.61,2.56,12,12,0,0,1-5.52.19,28.08,28.08,0,0,1-8.45-2.83c-.51-.27-.5-.27-.3-.82.09-.23.16-.48.26-.7.18-.39.38-.78.57-1.16a16,16,0,0,1,4.64-5.93,9.65,9.65,0,0,1,5.38-2.09,7.88,7.88,0,0,1,7.9,5.84c0,.15.06.3.09.46.11.69.06,1,.29,1.2,0,0,0,0,.24.09l.05,0h0l.37.13c.14-.09.19-.67,0-1.61a9.41,9.41,0,0,0-1.34-3.26,9,9,0,0,0-11.5-2.83,13.54,13.54,0,0,0-5,4.18,21,21,0,0,0-3,5.46l-.07.18"/><path id="Path_1638" data-name="Path 1638" class="cls-11" d="M98.16,100.93a28.08,28.08,0,0,0,8.45,2.83,12,12,0,0,0,5.52-.19,6.28,6.28,0,0,0,3.61-2.56,5.39,5.39,0,0,0,.66-1.2c.19-.47.3-1,.53-1.06-.51-.17-1-.33-1.55-.48-.36-.1-.52,0-.67.27a5,5,0,0,1-3,2.46.57.57,0,0,1-.77-.23h0l0,0c-.14-.35.05-.55.37-.66l.23-.08a4.32,4.32,0,0,0,2.08-1.59c.29-.44.27-.54-.3-.59-1.51-.14-3-.24-4.55-.37a.57.57,0,0,0-.67.43h0v0a4.49,4.49,0,0,1-2,2.38.55.55,0,0,1-.78,0h0l0,0c-.22-.33-.1-.55.19-.73a3.72,3.72,0,0,0,.45-.33A3.79,3.79,0,0,0,107,97.6a2,2,0,0,0-.35,0,18.68,18.68,0,0,0-2,.34c-.85.23-1.69.53-2.53.82a.57.57,0,0,1-.76-.23c-.18-.29,0-.51.23-.65l.26-.13a16.12,16.12,0,0,1,4.58-1.14l.48-.09a3.25,3.25,0,0,0-1.85-1.4c-.47-.12-.7-.38-.62-.69s.41-.38.87-.25a4.26,4.26,0,0,1,2.54,2,.61.61,0,0,0,.6.34c.9,0,1.8,0,2.7.09s1.68.19,2.56.3A4.62,4.62,0,0,0,112.4,95a17.62,17.62,0,0,0-1.56-1c-.28-.18-.4-.39-.29-.65a.46.46,0,0,1,.59-.25l.06,0c.18.07.34.15.5.23a6.85,6.85,0,0,1,3.18,3.55.61.61,0,0,0,.46.42c.65.17,1.29.36,1.93.58l0,0a2.08,2.08,0,0,0-.25-.09c-.23-.15-.17-.5-.29-1.2a3.4,3.4,0,0,0-.09-.46,7.85,7.85,0,0,0-7.9-5.84,9.62,9.62,0,0,0-5.37,2.09,16,16,0,0,0-4.65,5.93c-.19.38-.39.76-.57,1.15a7.21,7.21,0,0,0-.25.7c-.2.55-.21.56.3.83"/><path id="Path_1639" data-name="Path 1639" class="cls-10" d="M101.43,98.51a.58.58,0,0,0,.77.23c.83-.29,1.66-.6,2.52-.83a18.64,18.64,0,0,1,2-.33,1.45,1.45,0,0,1,.36,0,4.09,4.09,0,0,1-1.57,1.84c-.29.18-.41.41-.19.73a.56.56,0,0,0,.77.15l0,0a4.51,4.51,0,0,0,2-2.39.56.56,0,0,1,.64-.46h0c1.52.12,3,.22,4.56.37.56,0,.58.15.3.58A4.2,4.2,0,0,1,111.5,100l-.23.09c-.33.11-.5.3-.37.66a.56.56,0,0,0,.75.28h0a5,5,0,0,0,3-2.46c.15-.32.31-.37.67-.27.52.14,1,.3,1.55.47h0s0,0,.15.06h0a22.49,22.49,0,0,1,4.35,2l.77.46a.52.52,0,0,0,.75-.08c.2-.28.07-.55-.22-.73-.53-.34-1.08-.66-1.64-1A26.34,26.34,0,0,0,117.68,98h0s-.08,0-.35-.14h0c-.64-.22-1.28-.41-1.93-.58a.6.6,0,0,1-.46-.42,6.89,6.89,0,0,0-3.18-3.55l-.5-.23a.44.44,0,0,0-.62.16.21.21,0,0,0,0,.06c-.11.26,0,.48.29.65.54.32,1.06.67,1.57,1a4.51,4.51,0,0,1,1.36,1.89c-.87-.1-1.71-.24-2.56-.3s-1.8-.08-2.7-.09a.61.61,0,0,1-.6-.34,4.16,4.16,0,0,0-2.52-2c-.47-.14-.8,0-.88.25s.16.57.63.69a3.24,3.24,0,0,1,1.85,1.4l-.48.09a15.71,15.71,0,0,0-4.58,1.14l-.26.12c-.27.15-.41.37-.24.66"/><path id="Path_1640" data-name="Path 1640" class="cls-10" d="M117,98.74h0l.16.05c-.12-.05-.12-.05-.15-.05"/><path id="Path_1641" data-name="Path 1641" class="cls-10" d="M117.29,97.84c.27.11.31.15.35.14h0l-.38-.13"/></g></g></g><g id="Group_319" data-name="Group 319"><g class="cls-5"><g id="Group_318" data-name="Group 318"><path id="Path_1647" data-name="Path 1647" class="cls-12" d="M146.4,244.34H42.93a13.39,13.39,0,0,1-3.1-.15c-2.83-.66-4.54-2.81-4.28-5.33s2.17-4.34,5.2-4.61c.76-.05,1.51-.07,2.27-.05l64.35,0c2,.05,3.84-.65,4.61-1.76,2.38-2.5,6.37-4.31,11-5a49.21,49.21,0,0,1,8.74-.76c10.06,0,20.13-.06,30.19,0a36.19,36.19,0,0,1,14.28,2.59,13.09,13.09,0,0,1,4.94,3.39,4.31,4.31,0,0,0,3.75,1.48q32.4,0,64.78,0c.75,0,1.51,0,2.26,0,3.25.24,5.44,2.35,5.36,5.14s-2.3,4.81-5.59,5c-.76,0-1.52,0-2.27,0H146.4"/></g></g></g><g id="Group_323" data-name="Group 323"><g id="Group_322" data-name="Group 322"><g class="cls-13"><g id="Group_321" data-name="Group 321"><path id="Path_1648" data-name="Path 1648" class="cls-14" d="M113.4,216.15v6.6c0,1.43-.44,1.81-2.05,1.81-2.76,0-5.53,0-8.3,0-.72,0-1,.1-1,.83,0,4.24,0,8.48,0,12.72,0,1.29-.47,1.72-1.88,1.72q-2.34,0-4.68,0c-1.43,0-1.91-.42-1.91-1.7,0-4.26,0-8.53,0-12.79,0-.6-.14-.79-.85-.79-8.2,0-16.4,0-24.6,0s-16.35,0-24.52,0c-.66,0-.88.11-.87.75,0,4.27,0,8.54,0,12.8,0,1.29-.48,1.72-1.89,1.72H36.19c-1.31,0-1.82-.45-1.82-1.62,0-4.29,0-8.59,0-12.88,0-.61-.15-.79-.86-.78-2.88,0-5.76,0-8.64,0-1.3,0-1.81-.46-1.81-1.63V216c0-1.18.5-1.63,1.8-1.64,2.91,0,5.83,0,8.73,0,.63,0,.78-.14.77-.7,0-1.87,0-1.87-2.1-1.87H27.61c-1.19,0-1.71-.47-1.71-1.55V177.77c0-1.07.53-1.53,1.73-1.54,2,0,4,0,6,0,.63,0,.76-.17.75-.7,0-1.86,0-1.86-2-1.86H25c-1.41,0-1.88-.43-1.88-1.73v-6.75c0-1.27.48-1.69,1.92-1.69,2.76,0,5.52,0,8.28,0,.84,0,1.21-.11,1.11-1a20.81,20.81,0,0,1,0-2.62c0-1,.53-1.52,1.66-1.53h5.11c1.15,0,1.68.48,1.69,1.5s0,2.06,0,3.1c0,.36.09.55.53.49a3.23,3.23,0,0,1,.44,0H92.66c.77,0,1.07-.12,1-.88a23.43,23.43,0,0,1,0-2.78c0-.93.55-1.43,1.57-1.44,1.77,0,3.53,0,5.29,0,1,0,1.58.5,1.6,1.43s0,2,0,3c0,.51.13.66.71.65,2.91,0,5.82,0,8.74,0,1.36,0,1.85.44,1.85,1.67v6.91c0,1.12-.52,1.59-1.77,1.59-2.94,0-5.88,0-8.82,0-.58,0-.72.14-.72.65,0,1.9,0,1.9,2.14,1.9h4.68c1.13,0,1.66.49,1.66,1.52q0,16.29,0,32.58c0,1-.54,1.5-1.68,1.5-2,0-4.06,0-6.09,0-.6,0-.71.17-.7.66,0,1.9,0,1.9,2.06,1.9h7.31c1.47,0,1.93.42,1.93,1.77m-2.8,1.69c.05-.77-.19-.94-1-.94q-41.32,0-82.64,0a3.23,3.23,0,0,1-.44,0c-.46-.06-.6.1-.59.52,0,1.24.06,2.49,0,3.73,0,.7.18.86.95.85q20.69,0,41.36,0h19.5c7.38,0,14.75,0,22.13,0,.62,0,.8-.12.77-.69a27.26,27.26,0,0,1,0-3.5m0-50.9c0-.73-.19-.9-1-.9q-40.67,0-81.32,0c-.59,0-1.18,0-1.76,0s-.65.11-.64.57c0,1.22.07,2.43,0,3.65,0,.73.2.9,1,.9q20.64,0,41.28,0l41.63,0c.65,0,.85-.13.82-.73a29,29,0,0,1,0-3.49m-3.73,42.39c.73,0,.9-.15.9-.82q0-14.46,0-28.93c0-.66-.17-.81-.9-.81q-19.28,0-38.54,0l-38.72,0c-.73,0-.9.15-.9.81q0,14.46,0,28.93c0,.66.17.82.9.82q38.63,0,77.26,0m-8.2,28c.5,0,.63-.12.63-.57,0-1.91,0-3.82,0-5.72v-4.53c0-1.94,0-1.91-2.12-1.93-.58,0-.72.14-.72.66,0,3.39,0,6.77,0,10.17,0,2,0,1.94,2.2,1.92m.63-62.39c0-1.21,0-1.21-1.31-1.21-1.52,0-1.52,0-1.52,1.33s0,1.22,1.31,1.22c1.52,0,1.52,0,1.52-1.34M97.9,163.51c1.39,0,1.39,0,1.39-1.21s0-1.33-1.44-1.33-1.38,0-1.38,1.22,0,1.32,1.43,1.32m0,50.87c1.36,0,1.36,0,1.36-1.23s0-1.31-1.47-1.31-1.36,0-1.36,1.24,0,1.3,1.47,1.3m-4.27-39.81c0-.72-.19-.9-1-.89q-23.94,0-47.89,0c-2,0-1.91,0-2,1.75,0,.66.17.81.9.81q12.23,0,24.43,0H91.78c1.86,0,1.82,0,1.88-1.67m0,38.07c0-.66-.16-.82-.9-.81q-12.21,0-24.43,0H44.7c-1.86,0-1.82,0-1.89,1.67,0,.72.2.9,1,.89q23.94,0,47.88,0c2,0,1.92,0,2-1.75M39.4,237.29c.5,0,.63-.13.62-.57,0-1.93,0-3.87,0-5.8v-4.45c0-1.94,0-1.91-2.11-1.93-.58,0-.73.14-.72.66,0,3.39,0,6.78,0,10.17,0,2,0,1.94,2.21,1.92m.61-75.1c0-1.21,0-1.21-1.3-1.21-1.52,0-1.52,0-1.52,1.4,0,1.14,0,1.14,1.3,1.14,1.52,0,1.52,0,1.52-1.33m-1.31,14c1.31,0,1.31,0,1.31-1.2s0-1.34-1.51-1.34c-1.31,0-1.31,0-1.31,1.2,0,1.35,0,1.35,1.51,1.35m-.05,38.15c1.36,0,1.36,0,1.36-1.24s0-1.31-1.45-1.31-1.37,0-1.37,1.24,0,1.31,1.46,1.31"/><path id="Path_1649" data-name="Path 1649" class="cls-8" d="M109.56,216.91c.85,0,1.1.16,1,.93a29.2,29.2,0,0,0,0,3.5c0,.57-.15.7-.76.69-7.38,0-14.76,0-22.14,0H68.19l-41.36,0c-.77,0-1-.15-.95-.86.07-1.24,0-2.49,0-3.73,0-.42.13-.58.59-.52h.44q41.33,0,82.64,0m-10.27,2.56c0-1.27,0-1.27-1.41-1.27s-1.41,0-1.41,1.27,0,1.27,1.4,1.27,1.41,0,1.41-1.27m-59.27,0c0-1.23,0-1.23-1.37-1.23s-1.45,0-1.45,1.31,0,1.23,1.37,1.23,1.45,0,1.45-1.31"/><path id="Path_1650" data-name="Path 1650" class="cls-8" d="M109.61,166c.8,0,1,.17,1,.9a34.05,34.05,0,0,0,0,3.5c0,.6-.16.73-.81.73q-20.82,0-41.63,0-20.64,0-41.28,0c-.8,0-1-.18-1-.9.07-1.22.05-2.44,0-3.66,0-.45.14-.6.63-.56s1.18,0,1.77,0l81.31,0m-11.67,3.84c1.36,0,1.36,0,1.36-1.24s0-1.31-1.47-1.31-1.35,0-1.35,1.24,0,1.31,1.46,1.31M40,168.55c0-1.22,0-1.22-1.38-1.22s-1.44,0-1.44,1.33,0,1.22,1.38,1.22,1.44,0,1.44-1.33"/><path id="Path_1651" data-name="Path 1651" class="cls-15" d="M107.77,208.5c0,.67-.17.82-.9.82q-38.64,0-77.26,0c-.73,0-.9-.16-.9-.82q0-14.46,0-28.93c0-.66.17-.81.9-.81q19.35,0,38.72,0l38.54,0c.73,0,.9.15.9.81q0,14.48,0,28.93m-2.84-25.95c0-1.23,0-1.23-1.37-1.23s-1.45,0-1.45,1.32,0,1.23,1.37,1.23,1.45,0,1.45-1.32m0,22.9c0-1.23,0-1.23-1.37-1.23s-1.45,0-1.45,1.31,0,1.23,1.37,1.23,1.45,0,1.45-1.31m-70.56.05c0-1.29,0-1.29-1.4-1.29s-1.43,0-1.43,1.26,0,1.29,1.4,1.29,1.43,0,1.43-1.26m0-22.9c0-1.28,0-1.28-1.41-1.28s-1.41,0-1.41,1.27,0,1.28,1.4,1.28,1.42,0,1.42-1.27"/><path id="Path_1652" data-name="Path 1652" class="cls-14" d="M103.56,181.32c1.37,0,1.37,0,1.37,1.23s0,1.32-1.45,1.32-1.37,0-1.37-1.23,0-1.32,1.45-1.32"/><path id="Path_1653" data-name="Path 1653" class="cls-14" d="M103.56,204.21c1.37,0,1.37,0,1.37,1.23s0,1.32-1.45,1.32-1.37,0-1.37-1.24,0-1.31,1.45-1.31"/><path id="Path_1654" data-name="Path 1654" class="cls-8" d="M99.3,236.72c0,.45-.14.56-.63.57-2.2,0-2.2,0-2.2-1.92,0-3.4,0-6.78,0-10.17,0-.52.15-.66.72-.66,2.12,0,2.12,0,2.12,1.93V231c0,1.9,0,3.81,0,5.72"/><path id="Path_1655" data-name="Path 1655" class="cls-8" d="M98,173.69c1.31,0,1.31,0,1.31,1.21s0,1.34-1.52,1.34c-1.3,0-1.3,0-1.3-1.22s0-1.33,1.51-1.33"/><path id="Path_1656" data-name="Path 1656" class="cls-8" d="M99.29,162.3c0,1.22,0,1.22-1.39,1.22s-1.44,0-1.44-1.33,0-1.22,1.39-1.22,1.44,0,1.44,1.33"/><path id="Path_1657" data-name="Path 1657" class="cls-14" d="M99.29,168.64c0,1.24,0,1.24-1.36,1.24s-1.46,0-1.46-1.31,0-1.24,1.35-1.24,1.47,0,1.47,1.31"/><path id="Path_1658" data-name="Path 1658" class="cls-8" d="M99.29,213.15c0,1.24,0,1.24-1.36,1.24s-1.46,0-1.46-1.31,0-1.24,1.35-1.24,1.47,0,1.47,1.31"/><path id="Path_1659" data-name="Path 1659" class="cls-14" d="M97.88,218.2c1.41,0,1.41,0,1.41,1.27s0,1.27-1.42,1.27-1.4,0-1.4-1.27,0-1.27,1.41-1.27"/><path id="Path_1660" data-name="Path 1660" class="cls-8" d="M40,236.72c0,.45-.13.56-.62.57-2.21,0-2.21,0-2.21-1.92,0-3.39,0-6.78,0-10.17,0-.52.15-.66.73-.66,2.11,0,2.11,0,2.11,1.93v4.45c0,1.93,0,3.87,0,5.8"/><path id="Path_1661" data-name="Path 1661" class="cls-8" d="M38.72,161c1.3,0,1.3,0,1.3,1.21s0,1.33-1.52,1.33c-1.3,0-1.3,0-1.3-1.14,0-1.4,0-1.4,1.52-1.4"/><path id="Path_1662" data-name="Path 1662" class="cls-8" d="M40,175c0,1.2,0,1.2-1.31,1.2-1.51,0-1.51,0-1.51-1.34s0-1.2,1.31-1.2c1.51,0,1.51,0,1.51,1.34"/><path id="Path_1663" data-name="Path 1663" class="cls-14" d="M38.63,167.33c1.38,0,1.38,0,1.38,1.22s0,1.33-1.44,1.33-1.38,0-1.38-1.22,0-1.33,1.44-1.33"/><path id="Path_1664" data-name="Path 1664" class="cls-8" d="M40,213.15c0,1.23,0,1.23-1.36,1.23s-1.46,0-1.46-1.31,0-1.23,1.37-1.23,1.46,0,1.46,1.31"/><path id="Path_1665" data-name="Path 1665" class="cls-14" d="M38.65,218.2c1.36,0,1.36,0,1.36,1.23s0,1.31-1.45,1.31-1.37,0-1.37-1.23,0-1.31,1.45-1.31"/><path id="Path_1666" data-name="Path 1666" class="cls-14" d="M33,204.21c1.4,0,1.4,0,1.4,1.28s0,1.27-1.42,1.27-1.4,0-1.4-1.29,0-1.26,1.42-1.26"/><path id="Path_1667" data-name="Path 1667" class="cls-14" d="M33,181.32c1.41,0,1.41,0,1.41,1.27s0,1.28-1.42,1.28-1.4,0-1.4-1.28,0-1.27,1.41-1.27"/></g></g></g><g id="One_piece_of_leaf_will_emerge_when_one_record_is_uploaded._" data-name="One piece of leaf will emerge when one record is uploaded. " class="cls-16"><g class="cls-16"><path class="cls-17" d="M36.35,187.07a1.34,1.34,0,0,1-.66-.15,1.09,1.09,0,0,1-.46-.42,1.82,1.82,0,0,1-.26-.68,4.12,4.12,0,0,1-.09-.91A4.28,4.28,0,0,1,35,184a1.82,1.82,0,0,1,.26-.68,1.24,1.24,0,0,1,.46-.42,1.34,1.34,0,0,1,.66-.15,1.4,1.4,0,0,1,.66.15,1.29,1.29,0,0,1,.45.42,2,2,0,0,1,.27.68,5.08,5.08,0,0,1,.08.92,4.89,4.89,0,0,1-.08.91,2,2,0,0,1-.27.68,1.13,1.13,0,0,1-.45.42A1.4,1.4,0,0,1,36.35,187.07Zm0-.44a.9.9,0,0,0,.42-.09.86.86,0,0,0,.29-.28,1.35,1.35,0,0,0,.17-.44,3.27,3.27,0,0,0,.05-.57v-.69a3.45,3.45,0,0,0-.05-.57,1.29,1.29,0,0,0-.17-.43.78.78,0,0,0-.29-.28.79.79,0,0,0-.42-.1.83.83,0,0,0-.43.1.78.78,0,0,0-.29.28,1.28,1.28,0,0,0-.16.43,2.63,2.63,0,0,0,0,.57v.69a2.52,2.52,0,0,0,0,.57,1.34,1.34,0,0,0,.16.44.86.86,0,0,0,.29.28A.94.94,0,0,0,36.35,186.63Z"/><path class="cls-17" d="M38.73,187v-3.1h.48v.51h0a.94.94,0,0,1,.12-.22.77.77,0,0,1,.18-.18.7.7,0,0,1,.24-.13,1.16,1.16,0,0,1,.34,0,1,1,0,0,1,.78.31,1.21,1.21,0,0,1,.29.87v2h-.48v-1.9a1,1,0,0,0-.18-.64.74.74,0,0,0-.55-.2,1.33,1.33,0,0,0-.28,0,1.12,1.12,0,0,0-.25.11.52.52,0,0,0-.17.19.53.53,0,0,0-.07.26V187Z"/><path class="cls-17" d="M43.6,187.07A1.6,1.6,0,0,1,43,187a1.39,1.39,0,0,1-.46-.33,1.58,1.58,0,0,1-.29-.51,2,2,0,0,1-.1-.66,2,2,0,0,1,.1-.67,1.75,1.75,0,0,1,.29-.52A1.28,1.28,0,0,1,43,184a1.4,1.4,0,0,1,.58-.12,1.32,1.32,0,0,1,.57.12,1.22,1.22,0,0,1,.43.31,1.52,1.52,0,0,1,.28.48,1.89,1.89,0,0,1,.09.6v.23H42.65v.15a.9.9,0,0,0,.07.37.77.77,0,0,0,.19.3.79.79,0,0,0,.3.2,1.23,1.23,0,0,0,.39.07,1,1,0,0,0,.54-.15.89.89,0,0,0,.35-.39l.35.24a1.07,1.07,0,0,1-.46.51A1.46,1.46,0,0,1,43.6,187.07Zm0-2.84a.88.88,0,0,0-.66.27,1,1,0,0,0-.19.29,1.17,1.17,0,0,0-.07.38v0h1.78v-.06a1.16,1.16,0,0,0-.06-.38,1.08,1.08,0,0,0-.18-.29.77.77,0,0,0-.27-.19A1,1,0,0,0,43.57,184.23Z"/><path class="cls-17" d="M49.52,183.9H50v.51h0a1,1,0,0,1,.95-.58,1.06,1.06,0,0,1,.9.43,2,2,0,0,1,.32,1.19,2,2,0,0,1-.32,1.2,1.08,1.08,0,0,1-.9.42,1,1,0,0,1-.95-.57h0v1.7h-.48Zm1.27,2.75a.83.83,0,0,0,.65-.26,1,1,0,0,0,.23-.67v-.53a1,1,0,0,0-.23-.68.82.82,0,0,0-.65-.25,1.06,1.06,0,0,0-.31,0,1,1,0,0,0-.25.12.65.65,0,0,0-.17.2.6.6,0,0,0-.06.27V186a.57.57,0,0,0,.06.27.55.55,0,0,0,.17.2.58.58,0,0,0,.25.12A1.06,1.06,0,0,0,50.79,186.65Z"/><path class="cls-17" d="M53.18,186.59H54.3v-2.27H53.18v-.42h1.6v2.69h1V187H53.18Zm1.36-3.37a.41.41,0,0,1-.3-.09.31.31,0,0,1-.08-.22v-.09a.33.33,0,0,1,.08-.22.41.41,0,0,1,.3-.09.37.37,0,0,1,.29.09.29.29,0,0,1,.09.22v.09a.28.28,0,0,1-.09.22A.37.37,0,0,1,54.54,183.22Z"/><path class="cls-17" d="M58,187.07a1.6,1.6,0,0,1-.6-.11,1.39,1.39,0,0,1-.46-.33,1.42,1.42,0,0,1-.29-.51,2,2,0,0,1-.1-.66,2,2,0,0,1,.1-.67,1.75,1.75,0,0,1,.29-.52,1.28,1.28,0,0,1,.45-.32,1.37,1.37,0,0,1,.58-.12,1.32,1.32,0,0,1,.57.12,1.22,1.22,0,0,1,.43.31,1.52,1.52,0,0,1,.28.48,1.89,1.89,0,0,1,.09.6v.23H57.05v.15a.9.9,0,0,0,.07.37.77.77,0,0,0,.19.3.79.79,0,0,0,.3.2,1.23,1.23,0,0,0,.39.07,1,1,0,0,0,.54-.15.89.89,0,0,0,.35-.39l.35.24a1.07,1.07,0,0,1-.46.51A1.46,1.46,0,0,1,58,187.07Zm0-2.84a.88.88,0,0,0-.66.27,1,1,0,0,0-.19.29,1.17,1.17,0,0,0-.07.38v0h1.78v-.06a1.16,1.16,0,0,0-.06-.38,1.08,1.08,0,0,0-.18-.29.77.77,0,0,0-.27-.19A1,1,0,0,0,58,184.23Z"/><path class="cls-17" d="M61.65,187.07a1.55,1.55,0,0,1-.59-.11,1.22,1.22,0,0,1-.44-.33,1.56,1.56,0,0,1-.28-.51,2.31,2.31,0,0,1-.09-.67,2,2,0,0,1,.1-.66,1.51,1.51,0,0,1,.27-.52,1.16,1.16,0,0,1,.44-.32,1.38,1.38,0,0,1,.59-.12,1.26,1.26,0,0,1,.73.2,1.06,1.06,0,0,1,.41.52l-.38.2a.75.75,0,0,0-.28-.37.82.82,0,0,0-.48-.13.92.92,0,0,0-.38.07.77.77,0,0,0-.28.19.87.87,0,0,0-.17.3,1.52,1.52,0,0,0,0,.38v.53a1.44,1.44,0,0,0,0,.37.87.87,0,0,0,.17.3.75.75,0,0,0,.29.2,1.12,1.12,0,0,0,.38.07.86.86,0,0,0,.52-.15,1,1,0,0,0,.32-.39l.34.23a1.2,1.2,0,0,1-.43.52A1.32,1.32,0,0,1,61.65,187.07Z"/><path class="cls-17" d="M65.2,187.07a1.6,1.6,0,0,1-.6-.11,1.39,1.39,0,0,1-.46-.33,1.58,1.58,0,0,1-.29-.51,2,2,0,0,1-.1-.66,2,2,0,0,1,.1-.67,1.75,1.75,0,0,1,.29-.52,1.28,1.28,0,0,1,.45-.32,1.4,1.4,0,0,1,.58-.12,1.32,1.32,0,0,1,.57.12,1.22,1.22,0,0,1,.43.31,1.52,1.52,0,0,1,.28.48,1.89,1.89,0,0,1,.09.6v.23H64.25v.15a.9.9,0,0,0,.07.37.77.77,0,0,0,.19.3.79.79,0,0,0,.3.2,1.23,1.23,0,0,0,.39.07,1,1,0,0,0,.54-.15.89.89,0,0,0,.35-.39l.35.24a1.07,1.07,0,0,1-.46.51A1.46,1.46,0,0,1,65.2,187.07Zm0-2.84a.88.88,0,0,0-.66.27,1,1,0,0,0-.19.29,1.17,1.17,0,0,0-.07.38v0H66v-.06a1.16,1.16,0,0,0-.06-.38,1.08,1.08,0,0,0-.18-.29.77.77,0,0,0-.27-.19A1,1,0,0,0,65.17,184.23Z"/><path class="cls-17" d="M72.35,187.07a1.59,1.59,0,0,1-.59-.11,1.31,1.31,0,0,1-.44-.33,1.27,1.27,0,0,1-.28-.51,2,2,0,0,1-.1-.67,2,2,0,0,1,.1-.66,1.38,1.38,0,0,1,.28-.52,1.16,1.16,0,0,1,.44-.32,1.41,1.41,0,0,1,.59-.12,1.37,1.37,0,0,1,.58.12,1.28,1.28,0,0,1,.45.32,1.51,1.51,0,0,1,.27.52,2,2,0,0,1,.1.66,2,2,0,0,1-.1.67,1.38,1.38,0,0,1-.27.51,1.45,1.45,0,0,1-.45.33A1.54,1.54,0,0,1,72.35,187.07Zm0-.41a.88.88,0,0,0,.64-.24,1,1,0,0,0,.25-.75v-.44a1,1,0,0,0-.25-.74,1,1,0,0,0-1.29,0,1,1,0,0,0-.25.74v.44a1,1,0,0,0,.25.75A.88.88,0,0,0,72.35,186.66Z"/><path class="cls-17" d="M74.64,186.59h1v-2.27H74.58v-.42h1.11v-.63a.76.76,0,0,1,.16-.51.66.66,0,0,1,.52-.2h1V183H76.17v.93h1.24v.42H76.17v2.27h1.1V187H74.64Z"/><path class="cls-17" d="M81.83,186.59h1.08V183H81.83v-.41h1.56v4h1.08V187H81.83Z"/><path class="cls-17" d="M86.8,187.07a1.6,1.6,0,0,1-.6-.11,1.39,1.39,0,0,1-.46-.33,1.42,1.42,0,0,1-.29-.51,2,2,0,0,1-.1-.66,2,2,0,0,1,.1-.67,1.75,1.75,0,0,1,.29-.52,1.28,1.28,0,0,1,.45-.32,1.37,1.37,0,0,1,.58-.12,1.32,1.32,0,0,1,.57.12,1.22,1.22,0,0,1,.43.31,1.52,1.52,0,0,1,.28.48,1.89,1.89,0,0,1,.09.6v.23H85.85v.15a.9.9,0,0,0,.07.37.67.67,0,0,0,.19.3.79.79,0,0,0,.3.2,1.18,1.18,0,0,0,.39.07,1,1,0,0,0,.54-.15.89.89,0,0,0,.35-.39l.35.24a1.07,1.07,0,0,1-.46.51A1.46,1.46,0,0,1,86.8,187.07Zm0-2.84a.94.94,0,0,0-.37.07.84.84,0,0,0-.29.2,1,1,0,0,0-.19.29,1.17,1.17,0,0,0-.07.38v0h1.78v-.06a1,1,0,0,0-.07-.38,1.05,1.05,0,0,0-.17-.29.77.77,0,0,0-.27-.19A1,1,0,0,0,86.77,184.23Z"/><path class="cls-17" d="M91.52,187a.53.53,0,0,1-.41-.14.73.73,0,0,1-.15-.36h0a.8.8,0,0,1-.32.42,1.08,1.08,0,0,1-.61.15,1.12,1.12,0,0,1-.77-.25.88.88,0,0,1-.29-.69.79.79,0,0,1,.32-.67,1.77,1.77,0,0,1,1-.23h.66v-.3a.63.63,0,0,0-.19-.51.76.76,0,0,0-.54-.17,1,1,0,0,0-.51.12.85.85,0,0,0-.32.33l-.33-.24a.91.91,0,0,1,.17-.23.87.87,0,0,1,.25-.21,1.51,1.51,0,0,1,.34-.14,1.88,1.88,0,0,1,.43,0,1.24,1.24,0,0,1,.86.28.94.94,0,0,1,.32.77v1.71h.44V187Zm-1.43-.33a1,1,0,0,0,.34,0,.89.89,0,0,0,.26-.12.42.42,0,0,0,.18-.17.49.49,0,0,0,.06-.23v-.51h-.66a1.3,1.3,0,0,0-.63.12.39.39,0,0,0-.19.35v.12a.43.43,0,0,0,.17.37A.8.8,0,0,0,90.09,186.67Z"/><path class="cls-17" d="M92.64,186.59h1v-2.27H92.58v-.42h1.11v-.63a.76.76,0,0,1,.16-.51.66.66,0,0,1,.52-.2h1V183H94.17v.93h1.24v.42H94.17v2.27h1.1V187H92.64Z"/></g><g class="cls-16"><path class="cls-17" d="M34.73,191.9h.42l.36,2.68h.05l.53-2.68h.53l.52,2.68h.06l.35-2.68H38l-.48,3.1h-.62l-.49-2.59h-.05L35.82,195H35.2Z"/><path class="cls-17" d="M38.78,194.59H39.9v-2.27H38.78v-.42h1.6v2.69h1V195H38.78Zm1.36-3.37a.41.41,0,0,1-.3-.09.31.31,0,0,1-.08-.22v-.09a.33.33,0,0,1,.08-.22.41.41,0,0,1,.3-.09.37.37,0,0,1,.29.09.29.29,0,0,1,.09.22v.09a.28.28,0,0,1-.09.22A.37.37,0,0,1,40.14,191.22Z"/><path class="cls-17" d="M42.23,194.59h1.08V191H42.23v-.41h1.56v4h1.08V195H42.23Z"/><path class="cls-17" d="M45.83,194.59h1.08V191H45.83v-.41h1.56v4h1.08V195H45.83Z"/><path class="cls-17" d="M54.4,195.07a1.6,1.6,0,0,1-.6-.11,1.39,1.39,0,0,1-.46-.33,1.42,1.42,0,0,1-.29-.51,2,2,0,0,1-.1-.66,2,2,0,0,1,.1-.67,1.75,1.75,0,0,1,.29-.52,1.28,1.28,0,0,1,.45-.32,1.37,1.37,0,0,1,.58-.12,1.32,1.32,0,0,1,.57.12,1.22,1.22,0,0,1,.43.31,1.52,1.52,0,0,1,.28.48,1.89,1.89,0,0,1,.09.6v.23H53.45v.15a.9.9,0,0,0,.07.37.67.67,0,0,0,.19.3.79.79,0,0,0,.3.2,1.18,1.18,0,0,0,.39.07,1,1,0,0,0,.54-.15.89.89,0,0,0,.35-.39l.35.24a1.07,1.07,0,0,1-.46.51A1.46,1.46,0,0,1,54.4,195.07Zm0-2.84a.94.94,0,0,0-.37.07.84.84,0,0,0-.29.2,1,1,0,0,0-.19.29,1.17,1.17,0,0,0-.07.38v0h1.78v-.06a1.16,1.16,0,0,0-.06-.38,1.41,1.41,0,0,0-.18-.29.77.77,0,0,0-.27-.19A1,1,0,0,0,54.37,192.23Z"/><path class="cls-17" d="M56.47,195v-3.1h.44v.36h0a.79.79,0,0,1,.2-.3.65.65,0,0,1,.79,0,.58.58,0,0,1,.17.35h0a1,1,0,0,1,.24-.35.66.66,0,0,1,.44-.14.49.49,0,0,1,.5.27,1.65,1.65,0,0,1,.13.75V195H59v-2.07a1.38,1.38,0,0,0-.08-.55.32.32,0,0,0-.3-.15.41.41,0,0,0-.31.12.52.52,0,0,0-.12.38V195h-.45v-2.07a1.22,1.22,0,0,0-.08-.55.3.3,0,0,0-.29-.15.41.41,0,0,0-.31.12.53.53,0,0,0-.13.38V195Z"/><path class="cls-17" d="M61.6,195.07A1.6,1.6,0,0,1,61,195a1.39,1.39,0,0,1-.46-.33,1.58,1.58,0,0,1-.29-.51,2,2,0,0,1-.1-.66,2,2,0,0,1,.1-.67,1.75,1.75,0,0,1,.29-.52A1.28,1.28,0,0,1,61,192a1.4,1.4,0,0,1,.58-.12,1.32,1.32,0,0,1,.57.12,1.22,1.22,0,0,1,.43.31,1.52,1.52,0,0,1,.28.48,1.89,1.89,0,0,1,.09.6v.23H60.65v.15a.9.9,0,0,0,.07.37.77.77,0,0,0,.19.3.79.79,0,0,0,.3.2,1.23,1.23,0,0,0,.39.07,1,1,0,0,0,.54-.15.89.89,0,0,0,.35-.39l.35.24a1.07,1.07,0,0,1-.46.51A1.46,1.46,0,0,1,61.6,195.07Zm0-2.84a.88.88,0,0,0-.66.27,1,1,0,0,0-.19.29,1.17,1.17,0,0,0-.07.38v0h1.78v-.06a1.16,1.16,0,0,0-.06-.38,1.08,1.08,0,0,0-.18-.29.77.77,0,0,0-.27-.19A1,1,0,0,0,61.57,192.23Z"/><path class="cls-17" d="M63.81,194.59h.9v-2.27h-.9v-.42h1.38v.78h0a1.08,1.08,0,0,1,.37-.57,1.06,1.06,0,0,1,.68-.21h.43v.48h-.58a.93.93,0,0,0-.67.24.83.83,0,0,0-.26.63v1.34h1.2V195H63.81Z"/><path class="cls-17" d="M70.31,195.36a.74.74,0,0,1-.39.69,2.41,2.41,0,0,1-1.17.22,2.11,2.11,0,0,1-1.08-.2.63.63,0,0,1-.32-.57.56.56,0,0,1,.13-.39.77.77,0,0,1,.37-.2v-.07a.56.56,0,0,1-.2-.17.42.42,0,0,1-.07-.26.43.43,0,0,1,.15-.36,1.13,1.13,0,0,1,.4-.18v0a1,1,0,0,1-.44-.37,1,1,0,0,1-.16-.58,1.18,1.18,0,0,1,.08-.43,1,1,0,0,1,.24-.34,1.24,1.24,0,0,1,.39-.22,1.48,1.48,0,0,1,.49-.08,1.33,1.33,0,0,1,.61.13v-.06a.55.55,0,0,1,.08-.29.34.34,0,0,1,.29-.12h.57v.41h-.69v.21a1,1,0,0,1,.25.35,1,1,0,0,1,.09.44,1.18,1.18,0,0,1-.08.43.94.94,0,0,1-.25.34,1.09,1.09,0,0,1-.38.22,1.53,1.53,0,0,1-.49.08h-.15l-.15,0-.15,0-.14.08a.52.52,0,0,0-.11.1.23.23,0,0,0,0,.14.19.19,0,0,0,.14.19,1.19,1.19,0,0,0,.36,0h.68a1.35,1.35,0,0,1,.87.23A.74.74,0,0,1,70.31,195.36Zm-.45,0a.36.36,0,0,0-.15-.3.93.93,0,0,0-.52-.11H68.12a.43.43,0,0,0-.32.42.46.46,0,0,0,.17.35.76.76,0,0,0,.54.15H69a1.48,1.48,0,0,0,.66-.13A.42.42,0,0,0,69.86,195.38Zm-1.13-1.78a.73.73,0,0,0,.53-.17.61.61,0,0,0,.17-.45v-.17a.6.6,0,0,0-.17-.44.91.91,0,0,0-1.06,0,.6.6,0,0,0-.17.44V193a.61.61,0,0,0,.17.45A.73.73,0,0,0,68.73,193.6Z"/><path class="cls-17" d="M72.4,195.07a1.6,1.6,0,0,1-.6-.11,1.39,1.39,0,0,1-.46-.33,1.42,1.42,0,0,1-.29-.51,2,2,0,0,1-.1-.66,2,2,0,0,1,.1-.67,1.75,1.75,0,0,1,.29-.52,1.28,1.28,0,0,1,.45-.32,1.37,1.37,0,0,1,.58-.12,1.32,1.32,0,0,1,.57.12,1.22,1.22,0,0,1,.43.31,1.52,1.52,0,0,1,.28.48,1.89,1.89,0,0,1,.09.6v.23H71.45v.15a.9.9,0,0,0,.07.37.67.67,0,0,0,.19.3.79.79,0,0,0,.3.2,1.18,1.18,0,0,0,.39.07,1,1,0,0,0,.54-.15.89.89,0,0,0,.35-.39l.35.24a1.07,1.07,0,0,1-.46.51A1.46,1.46,0,0,1,72.4,195.07Zm0-2.84a.94.94,0,0,0-.37.07.84.84,0,0,0-.29.2,1,1,0,0,0-.19.29,1.17,1.17,0,0,0-.07.38v0h1.78v-.06a1.16,1.16,0,0,0-.06-.38,1.41,1.41,0,0,0-.18-.29.77.77,0,0,0-.27-.19A1,1,0,0,0,72.37,192.23Z"/><path class="cls-17" d="M77.93,191.9h.42l.36,2.68h.05l.53-2.68h.53l.52,2.68h.06l.35-2.68h.42l-.48,3.1h-.62l-.49-2.59h0L79,195H78.4Z"/><path class="cls-17" d="M81.93,190.56h.48v1.85h0a.94.94,0,0,1,.12-.22.73.73,0,0,1,.17-.18.75.75,0,0,1,.25-.13,1.16,1.16,0,0,1,.34,0,1,1,0,0,1,.78.31,1.21,1.21,0,0,1,.29.87v2h-.48v-1.9a1,1,0,0,0-.18-.64.74.74,0,0,0-.55-.2,1.33,1.33,0,0,0-.28,0,1.12,1.12,0,0,0-.25.11.52.52,0,0,0-.17.19.53.53,0,0,0-.07.26V195h-.48Z"/><path class="cls-17" d="M86.8,195.07a1.6,1.6,0,0,1-.6-.11,1.39,1.39,0,0,1-.46-.33,1.42,1.42,0,0,1-.29-.51,2,2,0,0,1-.1-.66,2,2,0,0,1,.1-.67,1.75,1.75,0,0,1,.29-.52,1.28,1.28,0,0,1,.45-.32,1.37,1.37,0,0,1,.58-.12,1.32,1.32,0,0,1,.57.12,1.22,1.22,0,0,1,.43.31,1.52,1.52,0,0,1,.28.48,1.89,1.89,0,0,1,.09.6v.23H85.85v.15a.9.9,0,0,0,.07.37.67.67,0,0,0,.19.3.79.79,0,0,0,.3.2,1.18,1.18,0,0,0,.39.07,1,1,0,0,0,.54-.15.89.89,0,0,0,.35-.39l.35.24a1.07,1.07,0,0,1-.46.51A1.46,1.46,0,0,1,86.8,195.07Zm0-2.84a.94.94,0,0,0-.37.07.84.84,0,0,0-.29.2,1,1,0,0,0-.19.29,1.17,1.17,0,0,0-.07.38v0h1.78v-.06a1,1,0,0,0-.07-.38,1.05,1.05,0,0,0-.17-.29.77.77,0,0,0-.27-.19A1,1,0,0,0,86.77,192.23Z"/><path class="cls-17" d="M89.13,195v-3.1h.48v.51h0a.94.94,0,0,1,.12-.22.73.73,0,0,1,.17-.18.75.75,0,0,1,.25-.13,1.16,1.16,0,0,1,.34,0,1,1,0,0,1,.78.31,1.21,1.21,0,0,1,.29.87v2h-.48v-1.9a1,1,0,0,0-.18-.64.74.74,0,0,0-.55-.2,1.33,1.33,0,0,0-.28,0,1.12,1.12,0,0,0-.25.11.52.52,0,0,0-.17.19.53.53,0,0,0-.07.26V195Z"/><path class="cls-17" d="M97.55,195.07A1.55,1.55,0,0,1,97,195a1.31,1.31,0,0,1-.44-.33,1.27,1.27,0,0,1-.28-.51,2,2,0,0,1-.1-.67,2,2,0,0,1,.1-.66,1.38,1.38,0,0,1,.28-.52A1.16,1.16,0,0,1,97,192a1.38,1.38,0,0,1,.59-.12,1.37,1.37,0,0,1,.58.12,1.16,1.16,0,0,1,.44.32,1.38,1.38,0,0,1,.28.52,2,2,0,0,1,.1.66,2,2,0,0,1-.1.67,1.27,1.27,0,0,1-.28.51,1.31,1.31,0,0,1-.44.33A1.54,1.54,0,0,1,97.55,195.07Zm0-.41a.88.88,0,0,0,.64-.24,1,1,0,0,0,.25-.75v-.44a1,1,0,0,0-.25-.74,1,1,0,0,0-1.29,0,1,1,0,0,0-.25.74v.44a1,1,0,0,0,.25.75A.88.88,0,0,0,97.55,194.66Z"/><path class="cls-17" d="M99.93,195v-3.1h.48v.51h0a.94.94,0,0,1,.12-.22.58.58,0,0,1,.17-.18.75.75,0,0,1,.25-.13,1.16,1.16,0,0,1,.34,0,1,1,0,0,1,.78.31,1.25,1.25,0,0,1,.29.87v2h-.48v-1.9a1,1,0,0,0-.18-.64.74.74,0,0,0-.55-.2,1.33,1.33,0,0,0-.28,0,1.12,1.12,0,0,0-.25.11.52.52,0,0,0-.17.19.53.53,0,0,0-.07.26V195Z"/><path class="cls-17" d="M104.8,195.07a1.6,1.6,0,0,1-.6-.11,1.39,1.39,0,0,1-.46-.33,1.42,1.42,0,0,1-.29-.51,2,2,0,0,1-.1-.66,2,2,0,0,1,.1-.67,1.75,1.75,0,0,1,.29-.52,1.28,1.28,0,0,1,.45-.32,1.37,1.37,0,0,1,.58-.12,1.32,1.32,0,0,1,.57.12,1.22,1.22,0,0,1,.43.31,1.52,1.52,0,0,1,.28.48,1.89,1.89,0,0,1,.09.6v.23h-2.29v.15a.9.9,0,0,0,.07.37.67.67,0,0,0,.19.3.79.79,0,0,0,.3.2,1.18,1.18,0,0,0,.39.07,1,1,0,0,0,.54-.15.89.89,0,0,0,.35-.39l.35.24a1.07,1.07,0,0,1-.46.51A1.46,1.46,0,0,1,104.8,195.07Zm0-2.84a.94.94,0,0,0-.37.07.84.84,0,0,0-.29.2,1,1,0,0,0-.19.29,1,1,0,0,0-.07.38v0h1.78v-.06a1,1,0,0,0-.07-.38,1.05,1.05,0,0,0-.17-.29.77.77,0,0,0-.27-.19A1,1,0,0,0,104.77,192.23Z"/></g><g class="cls-16"><path class="cls-17" d="M35,202.59h.9v-2.27H35v-.42h1.38v.78h0a1.08,1.08,0,0,1,.37-.57,1.06,1.06,0,0,1,.68-.21h.43v.48h-.58a.93.93,0,0,0-.67.24.83.83,0,0,0-.26.63v1.34h1.2V203H35Z"/><path class="cls-17" d="M40,203.07a1.64,1.64,0,0,1-.6-.11,1.39,1.39,0,0,1-.46-.33,1.58,1.58,0,0,1-.29-.51,2,2,0,0,1-.1-.66,2,2,0,0,1,.1-.67,1.75,1.75,0,0,1,.29-.52,1.28,1.28,0,0,1,.45-.32,1.4,1.4,0,0,1,.58-.12,1.32,1.32,0,0,1,.57.12,1.22,1.22,0,0,1,.43.31,1.52,1.52,0,0,1,.28.48,1.89,1.89,0,0,1,.09.6v.23H39.05v.15a.9.9,0,0,0,.07.37.77.77,0,0,0,.19.3.79.79,0,0,0,.3.2,1.23,1.23,0,0,0,.39.07,1,1,0,0,0,.54-.15.89.89,0,0,0,.35-.39l.35.24a1.07,1.07,0,0,1-.46.51A1.46,1.46,0,0,1,40,203.07Zm0-2.84a.88.88,0,0,0-.66.27,1,1,0,0,0-.19.29,1.17,1.17,0,0,0-.07.38v0h1.78v-.06a1.16,1.16,0,0,0-.06-.38,1.08,1.08,0,0,0-.18-.29.77.77,0,0,0-.27-.19A1,1,0,0,0,40,200.23Z"/><path class="cls-17" d="M43.65,203.07a1.55,1.55,0,0,1-.59-.11,1.22,1.22,0,0,1-.44-.33,1.56,1.56,0,0,1-.28-.51,2.31,2.31,0,0,1-.09-.67,2,2,0,0,1,.1-.66,1.51,1.51,0,0,1,.27-.52,1.16,1.16,0,0,1,.44-.32,1.38,1.38,0,0,1,.59-.12,1.26,1.26,0,0,1,.73.2,1.06,1.06,0,0,1,.41.52l-.38.2a.75.75,0,0,0-.28-.37.82.82,0,0,0-.48-.13.92.92,0,0,0-.38.07.77.77,0,0,0-.28.19.87.87,0,0,0-.17.3,1.52,1.52,0,0,0,0,.38v.53a1.44,1.44,0,0,0,0,.37.87.87,0,0,0,.17.3.75.75,0,0,0,.29.2,1.12,1.12,0,0,0,.38.07.86.86,0,0,0,.52-.15,1,1,0,0,0,.32-.39l.34.23a1.2,1.2,0,0,1-.43.52A1.32,1.32,0,0,1,43.65,203.07Z"/><path class="cls-17" d="M47.15,203.07a1.59,1.59,0,0,1-.59-.11,1.31,1.31,0,0,1-.44-.33,1.4,1.4,0,0,1-.28-.51,2,2,0,0,1-.1-.67,2,2,0,0,1,.1-.66,1.53,1.53,0,0,1,.28-.52,1.16,1.16,0,0,1,.44-.32,1.41,1.41,0,0,1,.59-.12,1.37,1.37,0,0,1,.58.12,1.2,1.2,0,0,1,.45.32,1.51,1.51,0,0,1,.27.52,2,2,0,0,1,.1.66,2,2,0,0,1-.1.67,1.38,1.38,0,0,1-.27.51,1.35,1.35,0,0,1-.45.33A1.54,1.54,0,0,1,47.15,203.07Zm0-.41a.88.88,0,0,0,.64-.24,1,1,0,0,0,.25-.75v-.44a1,1,0,0,0-.25-.74,1,1,0,0,0-1.29,0,1,1,0,0,0-.25.74v.44a1,1,0,0,0,.25.75A.88.88,0,0,0,47.15,202.66Z"/><path class="cls-17" d="M49.41,202.59h.9v-2.27h-.9v-.42h1.38v.78h0a1.08,1.08,0,0,1,.37-.57,1.06,1.06,0,0,1,.68-.21h.43v.48h-.58a.93.93,0,0,0-.67.24.83.83,0,0,0-.26.63v1.34H52V203H49.41Z"/><path class="cls-17" d="M55.1,202.5h0a1,1,0,0,1-1,.57,1.05,1.05,0,0,1-.89-.42,1.94,1.94,0,0,1-.32-1.2,1.89,1.89,0,0,1,.32-1.19,1,1,0,0,1,.89-.43,1,1,0,0,1,1,.58h0v-1.85h.48V203H55.1Zm-.8.15a1.06,1.06,0,0,0,.31-.05.53.53,0,0,0,.25-.12.55.55,0,0,0,.17-.2.57.57,0,0,0,.07-.27v-1.12a.6.6,0,0,0-.07-.27.65.65,0,0,0-.17-.2.83.83,0,0,0-.25-.12,1.06,1.06,0,0,0-.31,0,.84.84,0,0,0-.65.25,1,1,0,0,0-.23.68v.53a1,1,0,0,0,.23.67A.84.84,0,0,0,54.3,202.65Z"/><path class="cls-17" d="M60.38,202.59H61.5v-2.27H60.38v-.42H62v2.69h1V203H60.38Zm1.36-3.37a.41.41,0,0,1-.3-.09.31.31,0,0,1-.08-.22v-.09a.33.33,0,0,1,.08-.22.41.41,0,0,1,.3-.09.37.37,0,0,1,.29.09.29.29,0,0,1,.09.22v.09a.28.28,0,0,1-.09.22A.37.37,0,0,1,61.74,199.22Z"/><path class="cls-17" d="M65.18,203.07a1.92,1.92,0,0,1-.83-.16,1.8,1.8,0,0,1-.6-.44l.32-.29a1.51,1.51,0,0,0,.49.36,1.36,1.36,0,0,0,.63.13,1.21,1.21,0,0,0,.6-.13.43.43,0,0,0,.23-.4.46.46,0,0,0,0-.21.34.34,0,0,0-.12-.12.49.49,0,0,0-.18-.08l-.2,0-.49-.08-.35-.06a1.28,1.28,0,0,1-.34-.14.69.69,0,0,1-.26-.25.7.7,0,0,1-.11-.4.76.76,0,0,1,.1-.41.79.79,0,0,1,.26-.29,1.39,1.39,0,0,1,.39-.17,2,2,0,0,1,.5-.06,2,2,0,0,1,.73.13,1.64,1.64,0,0,1,.53.37l-.31.29-.14-.13a.91.91,0,0,0-.19-.13,1.54,1.54,0,0,0-.28-.09,1.79,1.79,0,0,0-.36,0,1.08,1.08,0,0,0-.56.13.41.41,0,0,0-.19.37.42.42,0,0,0,0,.2.49.49,0,0,0,.12.13l.18.07.2.05.49.07.35.06a1.16,1.16,0,0,1,.34.14.8.8,0,0,1,.27.25.71.71,0,0,1,.1.41.83.83,0,0,1-.36.71A1.58,1.58,0,0,1,65.18,203.07Z"/><path class="cls-17" d="M73.08,202.5h0a.88.88,0,0,1-.12.21.52.52,0,0,1-.17.19,1,1,0,0,1-.25.12.9.9,0,0,1-.34,0,1,1,0,0,1-.78-.31,1.22,1.22,0,0,1-.29-.87v-2h.48v1.91a1,1,0,0,0,.18.63.71.71,0,0,0,.55.21,1.26,1.26,0,0,0,.28,0,.71.71,0,0,0,.25-.11.58.58,0,0,0,.17-.18.45.45,0,0,0,.07-.27V199.9h.48V203h-.48Z"/><path class="cls-17" d="M74.72,199.9h.48v.51h0a1,1,0,0,1,1-.58,1,1,0,0,1,.89.43,1.89,1.89,0,0,1,.33,1.19,1.94,1.94,0,0,1-.33,1.2,1.05,1.05,0,0,1-.89.42,1,1,0,0,1-1-.57h0v1.7h-.48ZM76,202.65a.84.84,0,0,0,.65-.26,1,1,0,0,0,.23-.67v-.53a1,1,0,0,0-.23-.68.84.84,0,0,0-.65-.25,1.06,1.06,0,0,0-.31,0,1,1,0,0,0-.25.12.65.65,0,0,0-.17.2.6.6,0,0,0-.06.27V202a.57.57,0,0,0,.06.27.55.55,0,0,0,.17.2.58.58,0,0,0,.25.12A1.06,1.06,0,0,0,76,202.65Z"/><path class="cls-17" d="M78.23,202.59h1.08V199H78.23v-.41h1.56v4h1.08V203H78.23Z"/><path class="cls-17" d="M83.15,203.07a1.55,1.55,0,0,1-.59-.11,1.31,1.31,0,0,1-.44-.33,1.27,1.27,0,0,1-.28-.51,2,2,0,0,1-.1-.67,2,2,0,0,1,.1-.66,1.38,1.38,0,0,1,.28-.52,1.16,1.16,0,0,1,.44-.32,1.38,1.38,0,0,1,.59-.12,1.37,1.37,0,0,1,.58.12,1.16,1.16,0,0,1,.44.32,1.38,1.38,0,0,1,.28.52,2,2,0,0,1,.1.66,2,2,0,0,1-.1.67,1.27,1.27,0,0,1-.28.51,1.31,1.31,0,0,1-.44.33A1.54,1.54,0,0,1,83.15,203.07Zm0-.41a.88.88,0,0,0,.64-.24,1,1,0,0,0,.25-.75v-.44a1,1,0,0,0-.25-.74,1,1,0,0,0-1.29,0,1,1,0,0,0-.25.74v.44a1,1,0,0,0,.25.75A.88.88,0,0,0,83.15,202.66Z"/><path class="cls-17" d="M87.92,203a.53.53,0,0,1-.41-.14.73.73,0,0,1-.15-.36h0a.8.8,0,0,1-.32.42,1.08,1.08,0,0,1-.61.15,1.12,1.12,0,0,1-.77-.25.88.88,0,0,1-.29-.69.79.79,0,0,1,.32-.67,1.77,1.77,0,0,1,1-.23h.66v-.3a.63.63,0,0,0-.19-.51.76.76,0,0,0-.54-.17,1,1,0,0,0-.51.12.85.85,0,0,0-.32.33l-.33-.24a.91.91,0,0,1,.17-.23.87.87,0,0,1,.25-.21,1.51,1.51,0,0,1,.34-.14,1.88,1.88,0,0,1,.43,0,1.24,1.24,0,0,1,.86.28.94.94,0,0,1,.32.77v1.71h.44V203Zm-1.43-.33a1,1,0,0,0,.34,0,.89.89,0,0,0,.26-.12.42.42,0,0,0,.18-.17.49.49,0,0,0,.06-.23v-.51h-.66a1.3,1.3,0,0,0-.63.12.39.39,0,0,0-.19.35v.12a.43.43,0,0,0,.17.37A.8.8,0,0,0,86.49,202.67Z"/><path class="cls-17" d="M91.1,202.5h0a1,1,0,0,1-.95.57,1.05,1.05,0,0,1-.89-.42,1.94,1.94,0,0,1-.32-1.2,1.89,1.89,0,0,1,.32-1.19,1,1,0,0,1,.89-.43,1,1,0,0,1,.95.58h0v-1.85h.48V203H91.1Zm-.8.15a1.06,1.06,0,0,0,.31-.05.53.53,0,0,0,.25-.12.55.55,0,0,0,.17-.2.57.57,0,0,0,.07-.27v-1.12a.6.6,0,0,0-.07-.27.65.65,0,0,0-.17-.2.83.83,0,0,0-.25-.12,1.06,1.06,0,0,0-.31,0,.84.84,0,0,0-.65.25,1,1,0,0,0-.23.68v.53a1,1,0,0,0,.23.67A.84.84,0,0,0,90.3,202.65Z"/><path class="cls-17" d="M94,203.07a1.6,1.6,0,0,1-.6-.11,1.39,1.39,0,0,1-.46-.33,1.42,1.42,0,0,1-.29-.51,2,2,0,0,1-.1-.66,2,2,0,0,1,.1-.67,1.75,1.75,0,0,1,.29-.52,1.28,1.28,0,0,1,.45-.32,1.37,1.37,0,0,1,.58-.12,1.32,1.32,0,0,1,.57.12,1.22,1.22,0,0,1,.43.31,1.52,1.52,0,0,1,.28.48,1.89,1.89,0,0,1,.09.6v.23H93.05v.15a.9.9,0,0,0,.07.37.67.67,0,0,0,.19.3.79.79,0,0,0,.3.2,1.18,1.18,0,0,0,.39.07,1,1,0,0,0,.54-.15.89.89,0,0,0,.35-.39l.35.24a1.07,1.07,0,0,1-.46.51A1.46,1.46,0,0,1,94,203.07Zm0-2.84a.94.94,0,0,0-.37.07.84.84,0,0,0-.29.2,1,1,0,0,0-.19.29,1,1,0,0,0-.07.38v0h1.78v-.06a1,1,0,0,0-.07-.38,1.05,1.05,0,0,0-.17-.29.77.77,0,0,0-.27-.19A1,1,0,0,0,94,200.23Z"/><path class="cls-17" d="M98.3,202.5h0a1,1,0,0,1-1,.57,1.05,1.05,0,0,1-.89-.42,1.94,1.94,0,0,1-.32-1.2,1.89,1.89,0,0,1,.32-1.19,1,1,0,0,1,.89-.43,1,1,0,0,1,1,.58h0v-1.85h.48V203H98.3Zm-.8.15a1.06,1.06,0,0,0,.31-.05.53.53,0,0,0,.25-.12.55.55,0,0,0,.17-.2.57.57,0,0,0,.07-.27v-1.12a.6.6,0,0,0-.07-.27.65.65,0,0,0-.17-.2.83.83,0,0,0-.25-.12,1.06,1.06,0,0,0-.31,0,.84.84,0,0,0-.65.25,1,1,0,0,0-.23.68v.53a1,1,0,0,0,.23.67A.84.84,0,0,0,97.5,202.65Z"/><path class="cls-17" d="M101.15,203.05a.47.47,0,0,1-.35-.1.34.34,0,0,1-.1-.26v-.1a.34.34,0,0,1,.1-.26.47.47,0,0,1,.35-.1.46.46,0,0,1,.34.1.34.34,0,0,1,.1.26v.1a.34.34,0,0,1-.1.26A.46.46,0,0,1,101.15,203.05Z"/></g></g></g></svg>