<svg id="Layer_1" data-name="Layer 1" xmlns="http://www.w3.org/2000/svg" xmlns:xlink="http://www.w3.org/1999/xlink" viewBox="0 0 243 260"><defs><style>.cls-1{fill:none;}.cls-2{fill:#6c613c;}.cls-3{fill:#77a511;}.cls-4{fill:#b7c49d;}.cls-5{clip-path:url(#clip-path);}.cls-6{fill:#0c0d0d;}.cls-7{fill:#78543c;}.cls-8{fill:#4f3a25;}.cls-9{clip-path:url(#clip-path-2);}.cls-10{fill:#0f0f0f;}.cls-11{fill:#768b49;}.cls-12{clip-path:url(#clip-path-3);}.cls-13{clip-path:url(#clip-path-4);}.cls-14{clip-path:url(#clip-path-5);}.cls-15{clip-path:url(#clip-path-6);}.cls-16{clip-path:url(#clip-path-7);}.cls-17{clip-path:url(#clip-path-8);}.cls-18{fill:#b5becb;}.cls-19{clip-path:url(#clip-path-10);}.cls-20{fill:#050605;}.cls-21{fill:#7d5742;}.cls-22{isolation:isolate;}.cls-23{fill:#f8f8f8;}</style><clipPath id="clip-path"><rect class="cls-1" x="9.36" y="9.31" width="233.87" height="250.24"/></clipPath><clipPath id="clip-path-2"><rect class="cls-1" x="162.34" y="135.88" width="21.72" height="19.32"/></clipPath><clipPath id="clip-path-3"><rect class="cls-1" x="154.44" y="98.42" width="24.26" height="15.29"/></clipPath><clipPath id="clip-path-4"><rect class="cls-1" x="130.23" y="90.34" width="24.26" height="15.29"/></clipPath><clipPath id="clip-path-5"><rect class="cls-1" x="143.72" y="125.68" width="25.3" height="15.94"/></clipPath><clipPath id="clip-path-6"><rect class="cls-1" x="65.61" y="111.6" width="24.53" height="16.95"/></clipPath><clipPath id="clip-path-7"><rect class="cls-1" x="93.11" y="67.14" width="21.71" height="19.53"/></clipPath><clipPath id="clip-path-8"><rect class="cls-1" x="128.45" y="140.21" width="16.84" height="23.01" transform="translate(-43.46 247.79) rotate(-75.99)"/></clipPath><clipPath id="clip-path-10"><rect class="cls-1" x="0.02" y="167.84" width="90.32" height="81.4"/></clipPath></defs><path id="Path_1571" data-name="Path 1571" class="cls-2" d="M125.7,143l3.85,6.16-.05,1.61-1.22-.94-1.64-.54.24,2.65-1.39,1.46-.8,3.08-.7,3.09h-2.14l-1.41-1.74-.52-2-2-1.64,1.5-1.14.26-2.19-2.83-2.44,1.69-1.18h2l-1.39-3.53-2.07.47-.14-1.64,2-1.42,1.83-.47.53,2.2,1.42.79,2.31-.24Z"/><path id="Path_1572" data-name="Path 1572" class="cls-3" d="M148.63,91.67Zm33.62,37.91-.1-2.11.57-1.22L185,127l.1,2.45.77-1,2.44-1.22.52,1.43-1.19,1.09-.78,1.42,1.64.41.52,1.63-1.38-.06L187,134.2l1.09.88.58,2.38,2.26.14,0-3,1.93-.07-.3,1.09,2.45,1.49-1.87,4.41-2.28.81,3.2,1.15,2.09,2-2.37,1.9-1.85-.14-.88-.47-.32-1.49-1.17.07-2.3,1.9-1.63-.89.37-1.49.85-1.63.94-2.1-.8-1.9-2.14.75-1.42-1.56.58-1.43-.86-1.42.44-1.9-1.72-.06-1.18,1-.8,2.32-1.6,1-2.19.27-1.36-1.35L173,134.36l2.9-.55,2.55-.41.85-1.15-1.17.14-2.41.2-2.52-1.09,5.38-1.15.1-1.77.09-1.43,1.77.89.38,1.56Zm11.87-19.93,2.14-2.76,2.49,1.81-.73,1.46-.72,1.37.4,1.73,2.87-.26.63,3.27-.9,1.81-1.91.25-.5-1.29-.49-1.46-2,.43.92,2.07-1.31.77-2.08-.34-.76-1.29-1.72-1.12-1.67,1,1.51,2.67,0,1.89-2,.43-2.68-.43.9-1.37-1.53-2-3.56-.86.83-2.58,2.08.43.21-1.9,2.32,1.38,2.26-.17-.91-2.42,1.24-1.45,2,.85,2.69.26ZM77.23,107.38l.1-2.65,2.83-.23,2.35,2.13-.7,1.06,2.66,2L83.53,113l-2.75-1.37-1.67-.75-.32,2,2.58,2.42,1.37.76-1.08,1.81-1.38-.45-2.81-2.27L76.61,117l-.1,2-.31,1.22-3.6.07-2.67-.61.17-1.89,2.3-.45,1.68-.23-1.43-2.27-1,1.14-.61-.81-.26-.83,1-.52.87-.07.88-1.72-.75-.94L73,110l1.18-.91,2.07.3Zm6.7-37.1-1.29-1.6,5,2L87,72.11l-2.08.61L84.43,74l1.85.61,1.07.91.83,1.6L88,78.53,86.93,79l-1.86,1.6-1,1.07-1.47,1.07-1.37-.84-2-1.38-.78,1.6-1.62.54-2.07-1.38L73.69,79.9l-1.08.84L71.76,82h-1.3l-3.29-1.3,1.78-2,2.24-1.91,1.77.3,1.37,1.15L76.93,80l1.16-.76.33-2.14L76,75.7l-2.38-.38L72,74.55l.88-3,2.63-1.69L77,71.73l1.71-2,1.62-.54.21,2.52Zm68.66-14.76.38-2.4.5-1.79,3.3.62,2.12,1.17,1.76,2.05-1.34,2.06-2.87-1.3-1-.82-.58,2.6-1.75,1.51-1.65-.34-2.12-1.24-1.58.28-1.39.48L146,56l2.51-2,2.25,1.3.81,1.1Zm-62.9,3.72-.2-1.35,1.64-1.68L94,55.62l.61-1.19-.35-2.49,1.2-1,2.46-.7.52,1.89,2,.65,3.25.48.14,1.78.24,2.22-1.26,1.4-1.67-.75L98.24,56l-.55,1.14,1.44,1.72-.79,2.8-3.19-.59-.05-1.18-2.34.48-1.2.7ZM130,40.86l2.14-.28-.05-2,1.11-.68,4.25,1.85-.79,2,1.72.41,1.22,1.37.1,2.53-2.56,1.58L136.36,45l-1.47,1.71-2.18-1.1.44-1.91,1.46-1.17-3.86.28ZM118.85,9.31l-3,2.5-1.6,2.64-2.72.82-2.13.5-1.66,1.7.91,2.63,3.39.18,2.81.82-.9,1.88L111,22.92l-2,1.88,7.15.94L118,27.31l-4.48.82-1.5.12-2.54,2.07.85,1.94L113,33.34l.78,2.63L112,37.91,105.91,37l-1.69.25-2.74-2.06-.35-2.94-1-2.07,2.83.63,1.36,1.56L105.93,30l-2.66-4.26-1.39.88-.89.88L98.87,26l-.81-2.07-1-2.44-1.22,3L95.65,27l-2.56-1.13-2.94-1.19L88.56,26,90,28l-1.2,1.38-1.7,1.25,3.88.88,1.29,3.32-3,2-1,.93,0,2.13L87.17,42l1.87.25,3.63.71.6,2.5L90.8,48l-2.6,2-2,2-4.48.87-3.49-1.24.08-1.87,2.7-.19,2.77-1.19.71-2.68-2.3-2.2-2.26-1.12-.49-2.31L75.17,39l-1.84,2.25-5.08-.5.08-2.25-1.49-1.82,1-1.13,2.37,1.25,2.39.5.7-2.25-1-1.94L69,32.42l-2.5-.32-.68-.94-2.52.25-.08,2.82L61.5,37.54l-2.31.5-1.71.26L57,36.22l-.92-2.69-1.51.5-.33,2.57-2,1.13-1.62-1.38-1.12-2.2L48.39,35l-2-.18L45.49,36l.37,2.31-.54,3.21-4.46,1-1.35,2.06,5.33.57,1.3,2.74-2.19,1,.24,1.94,2.5,2.06L49,51.85l-.23-3.24,2.56.63,1,1.12.06,1.44-.7,1.43L54,52.17,54.69,54,53,54.6l-1.58,1.5,1.7,1,2.32-.75,1.2-1.56,2.16,4-3.08,2-.68.93-2.13.69,1.85,4.47,1.55.69,3.27-1.37,3.19,1.12L64,69.26l1.83-1.49,2.83-3.43-2.55-1.86,2.78-2.25,1.67,1.63L72,64.6l-.84,2.49-1.08,3.7-4.44-.19-.47,2.86-2.82.06L60.41,72.4l-4,2.17-3.75.88-.59,3,2.4,5.27-3.87.5-3.22,3.41L43.3,85.94l-1.5-1.12-1.39,2.6-2.17-3.6,2.26-1.36,2.68,1,2.38-.62,2.58-2.17-2.66-4.91L43,75.69l.07-2.3-1.18-.18-1.25,1.61L38.13,71l-.49-1.24-4.88.62.8,3.23L29.43,73l-1.76-2.49-4.07.94-.07,1.92,1.36,3.49-1.27,2.8-3.68-1.73-1-.13,1,3.35.06,1.68L18,83.71l1.69,1.68,4,1.43,2.17,3.3-2.44.37,2.8,2.17-.82,2.48-4.3-.56-1,2.35L21.61,99l1.87.56,1.12,2.1,2.37-.87,2.26-2.78,2.68.43,2.62,2,2.87-1.18,3.08-4.51,3.17,4.51-1.46,3-1.92-1-2.82,2.91,4.54,2,.93,1.61-.69,1.91-6-2.67.55,2.37,1.49,2.42L40,113l-1.57,1.86-3.3.55-1.64,2.22-3.11-.8-1.24-2,1.87.06.14-4-.42-3-5-.62-1.19,2L24,113.49l-1.14,4-2.62,2.09-2.62-.24-2-1.45-3.86.24,1.79,5.54,5.41,1,2.24,2.34-1.7,2-2.54.06L18,131.8l6-1.67.8,3.64,1.68.55,3-3.38-1-4.68,0-2.9,3-.67,3.53,5.61L34,131.87l-2.07,2-3.13,3.44,2.18,3.11-1.63.86-2,.55,3,2.09,3.22,1.71.67-.08,3.94-.47.58-4.91-3.16-2.88,1.63-2.34,7,2.08,1.09-4.07.57-4.12-2-3.19,2.68.61,1,4.56,2.41,3,1.59-5.35,2.06-1.29,3.59,3.51.61,2.76-9.92,3.88-1.7,3.38,2.22,2.76-3.8.92-.63,1.31,1.17,2,1.72,4,.8,1.22,1.86,1.36,1.69-2.33.9-4.54,1.38-1.9,2.83,2.94.86,2.46,2.11.85.58,4.8-2.95.73h0L52.35,157l-1.13,1.1L50.33,162l2.09,2.33,1.1,2.5,3.9,1.59L58.51,167,56.81,165l.32-1.78,2.31-1.29,1.71,1.59.29,2,2.5.79.32-2.08-.59-2.27,2.52-.4,2.18,3.07,2.41-.4.42-1.49-.68-2.07-.8-1.78.32-2.39,2-1.18,1.2,1.88L76.08,156l0-1.69,0-1.68-2.22-.69-2.1-1-2.1-1-.17-3.07,3.33-1.69h1.9l.56-1.16.56-1.15-3-1.69-.88-2.38.41-2.29h1.81l2.12-.69.82-1.9.88-.3.87-.3.58-.2.89,2.29,1.5,1.09-2.35,1.79-1.23,2.19,1.7,1.69,2.93-.6.33-2.88,1.61-.2.49,1.39.24-.81.25-.82,1.2-.93,2-.15.12-1.51-.69-.84-2.63.34-3.33-3.91.34-2.2-1.35-1.57,1.22-1.74,2.22.16.26-2.21,1.26,1.19.94,1.41,1,.48-.82,2.6.86,2.66,2.72-1.17.73-1.81,1.13-.79,1.42.16L94,125.23l.1-1.58,1.2-.47,1.29-2.88,1.85-.74,1.5,2-1.53,1.26.87,1,3.58-.16,2.46.48.93,2.91-.36,2.28-1.38,2.67-1.75-.16-.61-2.51-4,1,1.89,2.59,1.7,4,.13,2.5,2.21,2.12,2,.25.29,1.65-1.12.93-1.76,1.42.21,2.5,1.1,1.1,1.44-.39,1.43-.39,2.1-2.74.72.15.71.16,1,1.25,1,1.26,1.87,3.9.09.18,2,1.73.67-.5,1.5-1.15.26-2.19-2.83-2.43,1.68-1.18h2l-1.39-3.52-2.07.46-.14-1.64,2-1.42,1.84-.47.53,2.2,1.42.79,2.31-.24.71-.36,1-.49L126,141l-1.9-1.42.5-1.1,1.36.8,1.78-.13.63,0,.46-1.38.37-2-1.49-1.7-1.57.13-1.56.14-.54-1.94-.15-1.45-.48.57-2.53,3-2.64.66-.64-2.2,2.53-.84-.37-1.87L117,128.79l1.26-1.74,3-1.27-1-2.55,2.36-.49,1.2-2.71-.25-1.55,1.12-.31,1.12-.3,1.29.16,1.29.17,2-.44,1,2,.13,2.16,0,1-.07,1.16,1.49,1.22-.46.89.5.63.49.63,1.63-.1,1.62-.11.67-2.26-.15-1.5,2.28,1.22.41,2.38.36,1.82-.47,1.67-1.24.55-1.47,1,.43.36,1.12,1h1.85l.14,1.11.27,1.1.94.5,1.45.33,1.42-1.55.19-1.32-1.5-1.21.59-1.61,2.19-.61.93,1.66,1.17.16,1.17.17,1.41-.89-.19-2.15.84-.17,1.34.11,1-1.16-.92-2.27-2.51-.33-1,.94L148,127l-1-2.89.37-1.71,1.13-.67,1.55.56h1.74l1.15-2.11-.24-2.21.95-.34,1.17,2.27,1.41-.61,1.77,1,1,1.6.15.93.25,1.56-1.11,3-1.41.88-1.51.4-.57.88-.31.66.54,1.6,1.56.38.21,1,1.67.72,1.9-.5,2.43-5.64L165,129l.64,1.71.24,2.16-.09,2.37-1.63.55-.73.22.33,1.46,1.43,1.1,1.43,1.11-.07,1.22-1.3,1L165,143l1.54,1.65.25,1.43-.58,1.49-1.51.49-1-1.87-1.7,1.1,1.4,2.75v0l.47,1.71-2.41.66-3.68-.05,0,2.15,1.92,2.36.88,1h0l1.64-.27.67-3,1.57-.61,1,2-2.25,1L162,158.64l-.3,1.6.28.23,2.26,1.83.67.08,2.61.3,1.59-1.31-.43-1.38h2.74l2.05.5,1.13-1.15.29-.3-1.67-3.13-1.1-.88,2.38-2.3,3.81-.62,1.33.66.81-1.65.75-1,.22-.31,1.56.33,1.59,1.71.07,2.31-1.08,1.27,2.15,1.21-1.37,1.76-2.18.23-1,.09,1.84,2.6.72,1,1.37,1,.53,2.14,2.68-.22,1.12-.71.27-2.25-2-1.54,3.09-1.05,1.43,1.38.79,2,.24,2.09,0,1.49,1.67.66,1.22.22,2.3-.44.88-2.3.36-1.05,1.16.22,2,1.92,2-.06,1.53-1.1.93-2.14-1.91-1.71-.47,1.33-3.39-.48-.59-1.15.74-1.05,1.47-.44.48-1.92-.25-1.82-2.11-.38-2.55-1.65-.08-1.77,2.38-3.26,2.77.27.57,2.47.42,1.5,2.13.44,1.14,1.14-.31,1.84,3.56.18-.41,2.55-.38,1.4.51,1.06.52,1,2.86-.61.56,3,.33,1.32,2.56,1,1.44-.27L221.1,164l-1.68-.61,4.11-.35,2.25-1-1.18-2.9-1.93-1.4,3.21-.27,2.38,1.32,1.25.35,1.8-.8-.1-3.87-1.13-.87-2.44,1.05-2-.08.21-1.5,1.37-1.23.68-2.47-3.27-1.76-1.65,2L221.84,151l-2.73-1.86,1.75-2.64-.93-2.38-3.64-.88-1.65,1.85h-1.79l-.94-1.85,0-2.12-1.3-1.85-.84-.22-.85-.22-2.78.61-1.59-.79-.77-1.76-.13-2.48-2.82-1.85.13-2.12,1.44-.62,3.18,2.29,2.83-2.47,1.62-.53,2.88,3.54-.94,1.85.58,2.39,2.75,1,.14,2.12,2.35-1.24-1.17-4.23.68-2.56,2.49.79,1.3,1.85-.15,2.83,2.78-1.06.38-1.32,1.38,2.21,1.22,1.23,1.33-3.53-1.92-2.3-1.23-.8,2.44-1.23,3.14-.65.42-2.39-.21-2.65-.84-2.57-1.24-.53-1.5,3-1.48-1.6-2.59-.61-.25,3.45-1.62.7-.85-2.3.57-1.77-.75-2.38-2-1.51-1.54,1-1.12,2.4h-2.42l-1.29-2.48-.38-3.19-3.2-1.24.24-1.77.54-2.18-1.37-1.88.41-3.23,3.05-.14,3.4-3.37,1.52,1.48-.74,1.75,4.88.21,1.5-.35-.36,3.22.87,2.46,2.29,2.31,2.44,1.82.57-3.71,1.44-1.12.39-1.83-2.16-1.46.52-1.34,1.36-.42,1.26.28.74-1.4-1.67-1.33L228,99.18l-2.15-.71-3.36,1.27-3.66-.22-1.72-2.81-.66-2.39,2.79-1,.66,2.1,1.69.63,3.06-.56.61-2-2.19-1,2.42-.3,2.37-1,.31-1.78-.86-2.67.56-2.68L225.36,83l-1,1.48-2.19.07,0-1.62-3.12.42-1,1.83L217,88l-3-.56-2.07-2.82-1.82,2-.46,1.76L206.76,87l-2.25-.77L203,89.17l-.54,2.25-.68,2.11-1.49-.07-1.87-2-1.71-3.37-2.08,1.19-.36-3,2.56-.91.61-2.54L197,81.15l3.58-1.76L203.77,81,206,80.1l1-2,1.05.56,1.63.43,1.23-1.63,1.36-.21.9,1.2,2.69.49-.23-2.74L213.26,75l1.12-2,2.12.07-.3-2.81-2.73-1.84-1.64.42-2.78.5-3-.92,1.82-2.12,1.35-.07,1.06.35,1.44-1.12.39-2-1.24-2.26-.4-1.34.45-1.13h-3.34l-.8-2.47,0-1.2-1.53-2.27-2.43,1.06-1.62,2.82-.41,3-1.67,1.7-3-1,1.45,2,2.8,2.55.36,2.68-1.5,1.41-4,.49-.19-1.56,1-.84-.58-3-2.09-2.26-3.19-.63-.73.91,1.33,5-.82,2-2.65,1.63-1-2.15-4.12-1.45,1.52,3,.6,3.85-2.34,2-1.84-.56-.51-2.84-3.94-2.17-2.61,1.72-1.55,1.79-2.07-.45,3.12,6.83-3.54.21-2.34.28,2.33,4.21.4,3.25,3.2.44.15-3.19,1.95.62-.45,2.8.26,2.52,3.56.62,4.51-2.3-.81-4.43,2.25-.71,2.22.45-.16,4.25,2,1.95,1.16-5,3.15,3.28.35,5.31-1.3,2.37-1.76-1.51-1.55-2.39L185,95.7l3,4.25-2.51.71-2.48-.88-1.8.75.05,2.23,2,1,2.48-.35.25,2.87-1.77,2.25L182.23,107l-.9,3.41-1.84.42-3.06-2,1.73-2.36.74-2-2-2.72-1.74-1.4-1.3-2,.25-2.3-1.85-3.64-1.61-.48-.9,3.21,1.3,2.87-1.93,1.46h-5L161,98.86l-.4,2.37,2.09,1.2-.24,2.3-.95,2.43-3.73-.55-.59,2L155.4,107l.52-1.74,1.58-1.68-1.79-3.14-2.27-.69-2.58-.91L149,97.54l2.59-3.5-2.92-2.37-1.95,3.07-1.58,1.75L141,96.35l-2.89.21L141,94.81l.5-.91-2.43-2.66L136,93.49l.18-2.46,2.27-1.19L138,88.31l-1.26-1,2.36-1.75,1.48-.14,1.95,2.1,1.7-.84,1,1.82L145,90.76l3.64.9,1.91-.42.66-1.6-1.92-2.73,1-2.59,2.33-.35L154,87.82l4.22.35.94-1.54L158.36,85l5.22-.17,2.62-.56-4.36-5.67-.75-2.24,4.18-.42,1.61.77,1.9-.73-.14-.91.14-1.34-.47-1-.47-.23.59-1.35,1.44-3.58,1.28.55.74,1.42,1.68-.25.93-1.38L174,65.81l-1-2-.26-1.22-.76.07-.3-.76,1.85-.25.77-.36V60.06L173.57,59l-.62-.52,1.72-.69.59.38.89-.9.77,1.46L176.45,60l.89,1,2.2-.35,1.46.07.05,1.25,1.58.79,1.9-.66.66-1.83-.71-1.19L183,58.7,183,56.24l1.43-1.6,2.11,1.29.68,2.58,2.74-.83.76-2,2.44.94,1-1.44-.2-1.34L193.21,52l1-2.91.9-.55.41-1.28-4.09-1.83-.54,1.68-1.3.94-1-1.06-1.89-.44-1.75.72-2.18.83-2.39-.5-.75-1.39L181.46,45l1.49.5,1.84.33,1.41-1.11.15-2,1.58-.83L187.79,40l-2.31-1.39-1.71-1.34.41-1.05.76-2.12-2.29-.22-2,1-.14,2-1.66-.45-1-1.39-1.39-.56-2,.9L175,38h-2.85L171,40l2.44,1.28L174,43l-2.4,3.44-2.4.45-.84-3.45-2.63.56.53,1.5-1.64,1.16-.93-1.1.22-3.12L162,42.32l-1.69.67-2.46.16-.07-2.33,2.95.61,1-1.22L160,38.49l-2.16-1.23-1.46-3.07,1.3-.84,1.35.23L160.36,35l2.21,1.28,4.31-.89L164,31.19l-1.13-2.62,1.8-1.23,2.12.39-.36-2.36L164.39,22l-1.61-.39-.7,1.34-1.37,1.51-1,3.12-1.18.17-1.26-1.28-1-.57-1.53.68L154,24.92l2.13-.84,1.79-2.45,2.76-.84-.47-2.07-1.77-1-2.76,1.11-1.22-.73-1.32-2.19.18-1.39-2.91.22-.43,2.9.58,2.12L145.94,22l-1.75.95,2,2.35,2.05,1.05-1.1,3L144.41,29l-1.56-1-.62-.79-.56,1,0,2.16-1.65.5-.83-.13,1.35,1.93,2,.7-2.43,2.54-2.33,1.6-1.83-1.56.34-1.84L135,32.85l-1.51-1.3-2.17.47-.73.7-.24-2.27.26-2.08-2.19-.11-1.58.43-1.06-2.86,3.64,0,1.13,1.06,1.72-2.12.49-1.22,1.79,1.38,1.21.54,1.55-1.06L137,20.56l-.13-1.84-2.52,0-1.46-.07-.84-1.57,0-2.79-1.36-2.22-1.33-.19-.42-1.18-.34-.83L126,9.74l-1.27.4,1.2,2,1,1.61-2.7,1.93-1.72-.47-.44-2.64-1.76-.43-.5-.82-.1-1.78Z"/><path id="Path_1573" data-name="Path 1573" class="cls-4" d="M207.29,167.82l-.6,2.83h-3l-.58-2-3.25-.84-.73,1.53-.14,3.07-2.74.76-3.78-2.67-3-1.76-1.81,1.46-1.08,3.13-2.45,2.46L182,174.65l-1.61-1.3-2.62-1.23-1-1.91-2.86-1.3.58-1.83-2.71-.85-3.49-.53-.19-.76,11.19-2.78,3.79-.81.72,1,1.38,1,.52,2.14,2.68-.21,1.12-.72.27-2.25-2-1.54,3.09-1,1.43,1.38.79,2,.25,2.09,0,1.47,1.68.66,1.22.22,2.3-.44.88-2.3.35-1,1.17.22,2,1.92,2,0Z"/><path id="Path_1574" data-name="Path 1574" class="cls-2" d="M192.51,89.51l.35,5.31-1.3,2.39L189.8,95.7l-1.56-2.39L185,95.7l3,4.25-2.5.71L183,99.78l-1.8.75,0,2.23,2,1,2.48-.36.25,2.88-1.77,2.25L182.25,107l-.91,3.42-1.84.41-3.06-2,1.73-2.36.74-2-2-2.72-1.74-1.4-1.3-2,.25-2.3-1.84-3.64-1.62-.48-.9,3.21,1.3,2.87-1.93,1.46h-5L161,98.86l-.4,2.37,2.1,1.19-.25,2.3-.95,2.44-3.73-.55-.59,2-1.74-1.6.52-1.74,1.58-1.68-1.79-3.14-2.26-.7-2.59-.9L149,97.54l2.59-3.5-2.93-2.38,1.91-.42.66-1.61-1.93-2.73,1-2.59,2.34-.35L154,87.81l4.23.35.94-1.54-.82-1.68,5.23-.16,2.62-.56-4.36-5.68-.74-2.24,4.17-.42,1.62.77,1.9-.73-.14-.91.13-1.34.75-.27,3.12,6.83-3.54.21-2.34.28,2.34,4.21.39,3.25,3.21.44.14-3.19,2,.63-.43,2.8.25,2.51,3.56.62,4.51-2.3-.81-4.43,2.25-.71,2.23.45-.17,4.25,2,2,1.16-5Z"/><path id="Path_1575" data-name="Path 1575" class="cls-4" d="M106.07,141.89l.3,1.65-1.12.94-1.76,1.41.21,2.51,1.1,1.1-.3,1.78-1.86,1.91-2.55-.09-2.17-2.95,1-2.08-.24-1.56L94.47,144,93,145l-.45,1.22v.86l-3.64-4.73.07-5.24.11-1.52-.69-.83-2.65.34-3.33-3.92.34-2.2-1.34-1.58,1.21-1.74,2.22.16.26-2.21,1.27,1.19.93,1.41,1,.47-.82,2.6.85,2.67,2.72-1.17.73-1.81,1.13-.79,1.42.16L94,125.22l.1-1.58,1.2-.47,1.29-2.88,1.85-.74,1.49,2-1.52,1.26.87,1,3.58-.16,2.46.47.93,2.91-.35,2.28-1.39,2.68-1.75-.16-.61-2.52-4,1L100,133l1.71,4,.13,2.51,2.21,2.12Z"/><path id="Path_1576" data-name="Path 1576" class="cls-2" d="M84.47,109.73l-1,3.26-2.74-1.37-1.67-.76-.32,2,2.57,2.41,1.37.77-1.08,1.81-1.37-.45-2.82-2.27L76.61,117l-.1,2-.32,1.21-3.6.08-2.66-.6.16-1.9,2.3-.45,1.69-.23-1.43-2.27-1,1.14L71,115.2l-.26-.82,1-.52.87-.08.88-1.72-.75-.93L73,110l1.18-.91,2.07.3,1-2.05.1-2.65,2.83-.22,2.36,2.12-.7,1.06Z"/><path id="Path_1577" data-name="Path 1577" class="cls-4" d="M57.11,130.66l.61,2.76-9.92,3.87-1.71,3.38,2.23,2.77-3.8.92-.63,1.3,1.17,2,1.71,4,.8,1.22,1.86,1.35-1.68,1.83-1.1.43-2.74-1.22-1.72,1.4.23,2.67-2.38-.2-2.64-1.58-2.52.24-2.36-1.59-1.09-1.59-2.08-.42-2.09,2.34-1.11,3.83-1.8-.52v-.75l.2-1.59-.65-1.87,1.38-1.22-2.46-2.2.76-2.3,3,.61,1.52-1-.36-2.35.81-1.69,1.47.05,1.1,1.26,1.9.8,1.51-.61-.39-1.51,3.93-.47.59-4.91-3.16-2.89,1.63-2.34,7,2.07,1.08-4.06.59-4.12-2-3.19,2.68.61,1,4.55,2.4,3,1.59-5.35,2.06-1.3Z"/><g id="Group_291" data-name="Group 291"><g class="cls-5"><g id="Group_290" data-name="Group 290"><path id="Path_1578" data-name="Path 1578" class="cls-6" d="M65.86,88.27a55.41,55.41,0,0,0,4.1,6.6A12.65,12.65,0,0,0,80,100c4.14.24,7.53,2.81,10.21,7.17a2.87,2.87,0,0,1,.46,1.35,37.8,37.8,0,0,0,2.19,9.84c3.34,9,8.48,15.36,15.19,19.26,3.8,2.21,6,6.1,6.89,11.66a52.68,52.68,0,0,1,.18,10.8,15.34,15.34,0,0,1-.82,4.54c-.84,2.24-2.34,2.85-3.9,1.54a9.64,9.64,0,0,1-2.38-3.62c-1.21-2.73-2.2-5.64-3.28-8.48-3.18-8.35-7.5-15-14.18-18a16.37,16.37,0,0,0-7.47-1.93,4.92,4.92,0,0,0-4.28,2.41,4.11,4.11,0,0,0,.07,4.56,5.09,5.09,0,0,0,2.48,2c1.39.5,2.81.87,4.2,1.43a14.87,14.87,0,0,1,5.73,4.32c-.41.35-.73.23-1,.28-1.27.17-2.55.27-3.8.56a22.79,22.79,0,0,0-9,4.3c-.5.4-.84.29-1.24-.28-.75-1.07-1.53-2.09-2.34-3.07a25.7,25.7,0,0,0-7-6.4c-.87-.47-1.49-.14-1.81,1a1.94,1.94,0,0,0,.74,2.4c3.21,1.78,5.67,5,8.13,8.15.43.55.42.91,0,1.37a24.18,24.18,0,0,0-3.45,4.35,1.26,1.26,0,0,1-1.18.68c-1.3,0-2.61,0-3.92,0-.6,0-1,.31-1.23,1.14-.32,1.33.24,2.45,1.3,2.48,1.59.05,3.18,0,4.77,0A1.94,1.94,0,0,0,72,164.45a19.75,19.75,0,0,1,2.32-3.27c5.61-6.51,12.14-9,19.34-8.5a1.35,1.35,0,0,1,1.12.69,21.12,21.12,0,0,1,3.1,8.24,58.08,58.08,0,0,0,1.29,6.94c.58,2,1.37,3.8,3,4.37,4.12,1.46,7.39,4.75,10.26,9a4.53,4.53,0,0,1,.79,1.78,47.12,47.12,0,0,1,.69,6c.39,6.76.27,13.51,0,20.27a182.65,182.65,0,0,1-1.7,19.4c0,.28.1,1.3-.5,1.8-.82.69-2.43,0-3-.25-1.87-.7-4.4-.23-9.46.7-3.77.7-7.75,1.44-12.11,4.08a28.28,28.28,0,0,0-7.73,7,153.14,153.14,0,0,1,18-1.28c2.58,0,5.07,0,7.49.09,0,0,0,.07,0,.1a2.92,2.92,0,0,0,1.3.5c1.51.28,3.11,1.15,4.62,1.57a34.41,34.41,0,0,0,4.72,1,36.15,36.15,0,0,0,6.06.3c4-.12,19.69-1,41-2.42a21.42,21.42,0,0,0-11.83-9.1,15.35,15.35,0,0,0-7.88-2.12c-3.13.08-6.29-.41-9.41-.09a.92.92,0,0,1-.62-.14.89.89,0,0,1-.3-.6c-.5-2.7-1-5.4-1.34-8.14-.48-3.59-.87-7.2-1.13-10.84a111.19,111.19,0,0,1-.09-14.83c.3-4.66,2-7.84,5-9.76a58.46,58.46,0,0,1,6.47-3.5c4.12-1.84,8.3-3.36,12.37-5.44a16.16,16.16,0,0,0,6-4.6,3.89,3.89,0,0,1,1.65-1.33,41.57,41.57,0,0,0,7.23-4,33.64,33.64,0,0,0,5.71-5.85,29.06,29.06,0,0,1,12.47-8.2h0a1.84,1.84,0,0,0,1.24-2.29c-.21-1.22-.88-1.64-1.94-1.26a35.09,35.09,0,0,0-9.66,5.33c-.2.15-.4.62-.65.27s0-.59.07-.89a2.61,2.61,0,0,1,.14-.55,42.45,42.45,0,0,1,5.2-12.15,2.34,2.34,0,0,0,0-3c-.71-.78-1.35-.58-2.09.68a58.69,58.69,0,0,0-3.18,6.09,37.9,37.9,0,0,0-3.41,12.66,2,2,0,0,1-.53,1.14,22.67,22.67,0,0,1-8.75,7.2c-.14.07-.29.34-.45.08s0-.44.08-.65c.66-1.86,1.35-3.7,2-5.58a154.28,154.28,0,0,0,4.46-15.47c.64-2.85-1-5.29-3.12-4.62-2.69.87-4.61,3.2-5.39,6.8a41.55,41.55,0,0,1-6.68,15.47c-1.82,2.56-3.72,4.93-6.38,5.74-.76.24-.8-.12-.79-.93.05-2.28.12-4.57.07-6.85a6.56,6.56,0,0,1,1.54-4.7,58.89,58.89,0,0,0,6.44-9.36l.21-.37a2.4,2.4,0,0,0-.08-2.72c-.65-.72-1.34-.62-1.93.4a73.88,73.88,0,0,1-7.1,10.27,8.13,8.13,0,0,0-1.66,5.11c-.07,3.11-.11,6.21-.14,9.32,0,.71-.15,1-.69,1.17-3.05.86-6.12,1.64-9.12,2.76-1.34.5-1.76-.19-1.92-1.92-.29-3,.05-6-.06-8.95a9.58,9.58,0,0,1,2.14-6.6,76.15,76.15,0,0,1,7.43-7.6,54.19,54.19,0,0,0,7-7.7,23.65,23.65,0,0,0,3.82-9.41c.13-.69.15-1.48.74-1.88,4.62-3.11,9.3-5.93,14.55-6.31.78-.06,1.13-.78,1.25-1.76a4.69,4.69,0,0,0,0-1.06,3.07,3.07,0,0,1,1.44-3.2,8.93,8.93,0,0,1,3.42-1.32,29,29,0,0,1,10.34.19c1,.16,1.57-.39,1.69-1.54,0,0,0-.07,0-.1a1.64,1.64,0,0,0-1.3-1.94,26.91,26.91,0,0,0-3.47-.53c-3.94-.31-7.87-.35-11.62,1.82-.17.1-.33.36-.48-.06a5.21,5.21,0,0,1,.65-3.7,48.39,48.39,0,0,0,5.83-7A23.35,23.35,0,0,0,180.42,93c.19-1.16-.17-2.1-.94-2.4s-1.37.33-1.57,1.42a16.32,16.32,0,0,1-1.85,5.11,44.62,44.62,0,0,1-8,10.18,3.39,3.39,0,0,0-1,2.75c0,2.67,0,5.35,0,8,0,.81-.16,1.22-.78,1.34A30.79,30.79,0,0,0,155,124.2c-.16.12-.34.39-.53.16s-.06-.6,0-.87c.35-1.15.7-2.31,1.08-3.44,1.5-4.43,3.3-8.64,5.16-12.8a5,5,0,0,0,.39-3.35c-.49-2-2.36-3.56-4.39-1.46-6.11,6.3-10,14.54-11.22,25a6.69,6.69,0,0,1-2.07,4.45,39,39,0,0,1-9.56,6.23c-1.76.88-2.48.09-2.27-2.48.42-5.35.77-10.71,1.54-16a31,31,0,0,1,1.5-6.72,14.5,14.5,0,0,1,4.35-5.64,27.47,27.47,0,0,0,6.9-9.09c2.38-5.33,2.7-11.31,2.55-17.39a4.05,4.05,0,0,0-.45-1.63c-1.1-2.19-3.42-2.11-4.39.25s-2,5.06-2.94,7.66a18.29,18.29,0,0,1-5.78,8.64c-1.59,1.26-3,2.84-4.62,4.14-3.94,3.23-6.14,8.06-6.92,14.22-.13,1-.39.85-.8.31a58.08,58.08,0,0,1-5-7.5,19.27,19.27,0,0,1-2-5.11,2,2,0,0,1,.66-2.29,32.12,32.12,0,0,0,8-10.57,14.06,14.06,0,0,0,.84-10.7c-.4-1.19-1.06-1.65-1.74-1.25-.84.5-1.08,1.4-.67,2.72a8.29,8.29,0,0,1,.25,4.47c-1.3,5.36-4.44,8.38-7.49,11.76a3.41,3.41,0,0,1-.1-.54c0-.31,0-.63,0-.94a43.66,43.66,0,0,0-.41-11.36,15.52,15.52,0,0,0-2.71-6.92c-.25-.32-.49-.68-.85-.74-.63-.12-1.09.15-1.42.94a2.07,2.07,0,0,0,.28,2.22,11.54,11.54,0,0,1,2.09,5.14,38.1,38.1,0,0,1,.37,10.66A24.68,24.68,0,0,0,116,110.22a83.76,83.76,0,0,0,6.09,8.54,1.88,1.88,0,0,1,.55,1.59,44.36,44.36,0,0,0-.27,5.88c0,.85-.29,1.3-.89,1.43a5.78,5.78,0,0,1-3.11-.26,24.72,24.72,0,0,1-8.61-5.39,35.76,35.76,0,0,1-6.8-8.26,24.94,24.94,0,0,1-3.39-12.15c-.24-5.68-.28-11.4-1-17a14.37,14.37,0,0,0-1.73-5.92c-1.23-1.92-3-1.75-4,.35a11,11,0,0,0-.49,1.24A44.22,44.22,0,0,0,90.73,91c-.2,3.29-.36,6.59-.34,9.9,0,.3.1.71-.13.87s-.44-.23-.62-.44c-3-3.27-6.3-5.09-10.07-5.15-.93,0-1.18-.59-1.26-1.64a9.61,9.61,0,0,1,.72-4.4A13.46,13.46,0,0,0,79.88,87a42.18,42.18,0,0,0-1.25-15.17c-.27-1.16-.94-1.62-1.65-1.25a2,2,0,0,0-.8,2.38,58.59,58.59,0,0,1,1.25,8.64,16.79,16.79,0,0,1-.83,7.21,13.85,13.85,0,0,0-.92,5.44c0,1-.24,1-.78.72a11.78,11.78,0,0,1-4.38-4.51c-1.56-2.64-3.06-5.35-4.59-8-.69-1.21-1.32-1.39-2-.61a2.37,2.37,0,0,0,0,2.91c.65,1.18,1.31,2.36,2,3.53"/><path id="Path_1579" data-name="Path 1579" class="cls-7" d="M116.59,193.28a57.62,57.62,0,0,0-1-8.78,7.84,7.84,0,0,0-.9-2.37c-2.86-4.67-6.23-8.32-10.29-10.39a4.11,4.11,0,0,1-2.85-3.34c-.21-1.24-.56-2.45-.67-3.71a32.73,32.73,0,0,0-7-17.37,19.45,19.45,0,0,0-8.15-6.63,29.33,29.33,0,0,1-3.8-1.18c-.3-.17-.68-.28-.65-.8s.4-.49.66-.63c1.54-.84,3-.15,4.53.26,7,1.93,11.94,7.93,15.33,16.94,1.52,4,2.75,8.25,4.57,12,1.13,2.35,2.51,4.2,4.53,4.86,3,1,5-1.32,5.92-5a50.35,50.35,0,0,0,1-14.84,28.22,28.22,0,0,0-3.29-12.52,16.82,16.82,0,0,0-5.82-6.06c-6.57-4.25-11.52-10.95-14.34-20.75a34.48,34.48,0,0,1-1.26-8.57c-.15-5.6,0-11.19.37-16.77a67,67,0,0,1,.78-7.48c.12-.65.14-1.7.57-1.74s.56,1,.69,1.62a69.15,69.15,0,0,1,1,10.44c.22,4.52.29,9,.74,13.5a25.81,25.81,0,0,0,3.05,9.72,37.19,37.19,0,0,0,15.54,16.13,9.25,9.25,0,0,0,5.84,1.22c2-.32,3.34-2.29,3.36-5.25a81.81,81.81,0,0,1,.62-9.89,51.1,51.1,0,0,1,1.74-8.66,14.07,14.07,0,0,1,4.12-5.94c1.89-1.89,3.78-3.77,5.73-5.53A20.19,20.19,0,0,0,142.7,87c.81-2.4,1.72-4.72,2.57-7.09a2.19,2.19,0,0,1,.55-1c.26,8.92-1.42,16.46-6.63,21.73a46.24,46.24,0,0,0-4.92,5.27,22.25,22.25,0,0,0-3.39,9.69c-1.06,6.63-1.42,13.41-2,20.15-.34,4.32,2.46,7.94,5.47,6.28,3.68-2,7.36-4,10.62-7.31a9,9,0,0,0,2.81-4.81c.3-1.63.4-3.34.66-5a44.12,44.12,0,0,1,5-14.63,31,31,0,0,1,4.4-6.14,1,1,0,0,1-.12,1,125.54,125.54,0,0,0-5.43,15.51c-.77,2.82-1.22,5.76-1.74,8.68a22.45,22.45,0,0,1-5.14,11.07c-2.83,3.26-5.87,6-8.8,9.09a30.87,30.87,0,0,0-4.73,6,12.67,12.67,0,0,0-1.83,6.51c0,4-.3,7.94.09,11.92s2.44,6,4.85,5a91.4,91.4,0,0,1,9.68-3.07,33.05,33.05,0,0,0,6.21-2.5,11.53,11.53,0,0,0,3.25-3.13,47.14,47.14,0,0,0,8.6-17.29c.3-1.15.53-2.35.83-3.51a7.75,7.75,0,0,1,2.4-4c.21-.17.49-.35.72-.06s.06.61,0,.93a189.12,189.12,0,0,1-6.43,21.38c-.89,2.3-1.69,4.74-3.33,6.15a25.16,25.16,0,0,1-5.51,3.49c-5.24,2.59-10.65,4.46-15.77,7.59a22.52,22.52,0,0,0-4.51,3.63c-2.07,2.14-3.09,5.17-3.55,8.72a101.26,101.26,0,0,0-.06,20.3c.1,1.36.21,2.72.31,4.07a.76.76,0,0,1,.06.36c0,.4.14.94-.11,1.17s-.59-.12-.85-.37a49,49,0,0,1-9.78-13.12,3.28,3.28,0,0,1-.31-1.63c0-3.65,0-7.3,0-10.95a15.05,15.05,0,0,0-.24-3.79"/><path id="Path_1580" data-name="Path 1580" class="cls-8" d="M116.59,191.09c.44.32.33,1,.34,1.54,0,4.7,0,9.41,0,14.11a4.45,4.45,0,0,0,.5,2.18,67.57,67.57,0,0,0,3.53,6.33,41.77,41.77,0,0,0,6.79,8.37c0-.66,0-1.14.07-1.62.36,3,.56,6.05,1,9,.28,1.87.47,3.8.82,5.65.21,1.12,0,1.19-.61,1.19-2.63,0-5.27,0-7.9,0-1.9,0-3.8,0-5.69,0-.59,0-.78-.17-.65-1.23,1-8.48,1.56-17,1.8-25.65.18-6.38.23-12.73-.06-19.1,0-.26,0-.54,0-.81"/><path id="Path_1581" data-name="Path 1581" class="cls-6" d="M233.41,259.55H19.18a9.82,9.82,0,0,1-9.82-9.82v-1.08a9.82,9.82,0,0,1,9.82-9.82H233.41a9.82,9.82,0,0,1,9.82,9.82v1.08a9.81,9.81,0,0,1-9.82,9.82"/></g></g></g><g id="Group_293" data-name="Group 293"><g class="cls-9"><g id="Group_292" data-name="Group 292"><path id="Path_1582" data-name="Path 1582" class="cls-10" d="M182.48,154.37c-.33.76-.63,1-1.43.74-1.33-.38-2.66-.76-3.94-1.26a26.27,26.27,0,0,1-5.7-3,11.29,11.29,0,0,1-4.22-5.14,6.87,6.87,0,0,1-.05-4.67c0-.07,0-.08.12-.29.34-.79.38-1,.55-1s.05,0,.46.16h0l.16.08c.15.17-.14.66-.32,1.14a5,5,0,0,0-.31,1.33,6.22,6.22,0,0,0,1,4.32,11.89,11.89,0,0,0,4,3.84,28,28,0,0,0,8.16,3.55c.57.15.57.14.79-.41.09-.23.2-.45.27-.68.13-.41.24-.83.36-1.24a16.24,16.24,0,0,0,.52-7.52,9.72,9.72,0,0,0-2.6-5.15,7.89,7.89,0,0,0-9.79-1l-.37.28c-.54.44-.74.74-1,.7l-.25-.09-.05,0h0l-.36-.16c0-.15.31-.62,1.08-1.2a9.43,9.43,0,0,1,3.18-1.52,9,9,0,0,1,10.43,5.59,13.54,13.54,0,0,1,.88,6.42,20.78,20.78,0,0,1-1.44,6.06,1.34,1.34,0,0,0-.07.18"/><path id="Path_1583" data-name="Path 1583" class="cls-11" d="M180.92,154.09a27.92,27.92,0,0,1-8.17-3.55,12,12,0,0,1-4-3.84,6.25,6.25,0,0,1-1-4.33,5,5,0,0,1,.31-1.32c.18-.48.46-1,.32-1.15q.75.33,1.47.69c.32.16.41.32.31.65a5,5,0,0,0,.61,3.86.57.57,0,0,0,.73.34h0c.34-.17.33-.44.17-.74l-.12-.21a4.21,4.21,0,0,1-.48-2.58c.08-.52.16-.57.61-.24,1.22.9,2.42,1.85,3.62,2.77a.56.56,0,0,1,.21.76v0a4.53,4.53,0,0,0-.15,3.08.57.57,0,0,0,.62.48l.06,0c.38-.09.44-.34.35-.67a3.23,3.23,0,0,1-.11-.54,3.76,3.76,0,0,1,.18-1.88l.28.22c.43.5.85,1,1.23,1.57.49.74.9,1.53,1.32,2.3a.57.57,0,0,0,.72.34c.33-.1.37-.36.27-.64a2,2,0,0,0-.11-.26,16,16,0,0,0-2.64-3.92c-.1-.11-.17-.23-.3-.39a3.29,3.29,0,0,1,2.31.2c.43.23.77.19.93-.09s-.05-.56-.48-.77a4.19,4.19,0,0,0-3.2-.23.62.62,0,0,1-.67-.15c-.67-.6-1.35-1.19-2.07-1.74s-1.38-1-2.1-1.49a4.5,4.5,0,0,1,2.28-.49q.94.09,1.86.27c.32.06.56,0,.65-.28a.46.46,0,0,0-.28-.59h-.06a3.27,3.27,0,0,0-.53-.17,6.88,6.88,0,0,0-4.74.5.58.58,0,0,1-.62,0c-.6-.3-1.2-.59-1.82-.86l.05,0a1.7,1.7,0,0,0,.24.09c.27.05.47-.25,1-.69a4.61,4.61,0,0,1,.38-.28,7.87,7.87,0,0,1,9.78,1,9.65,9.65,0,0,1,2.6,5.15,16,16,0,0,1-.52,7.52c-.12.41-.22.83-.35,1.24-.07.23-.19.46-.28.69-.22.54-.22.55-.78.41"/><path id="Path_1584" data-name="Path 1584" class="cls-10" d="M180.11,150.11a.57.57,0,0,1-.72-.34c-.42-.78-.84-1.56-1.32-2.3-.38-.54-.8-1.07-1.23-1.57l-.28-.22a3.76,3.76,0,0,0-.18,1.88,2.47,2.47,0,0,0,.11.54c.09.33,0,.58-.35.68a.56.56,0,0,1-.67-.41h0s0,0,0-.06a4.53,4.53,0,0,1,.15-3.08.56.56,0,0,0-.17-.77l0,0c-1.21-.92-2.4-1.86-3.62-2.77-.45-.34-.54-.28-.61.24a4.21,4.21,0,0,0,.48,2.58,1.13,1.13,0,0,0,.12.21c.16.3.17.57-.17.74a.58.58,0,0,1-.75-.29l0,0a5,5,0,0,1-.61-3.86c.1-.34,0-.49-.32-.65s-1-.47-1.46-.69h0s0,0-.15-.06a22.74,22.74,0,0,0-4.56-1.42l-.88-.18c-.33-.07-.53-.24-.5-.56s.31-.45.65-.39c.62.11,1.24.24,1.85.39a24.83,24.83,0,0,1,3.57,1.17v0s.08,0,.36.13h0c.62.27,1.22.56,1.82.87a.62.62,0,0,0,.63,0,6.84,6.84,0,0,1,4.73-.5,4.68,4.68,0,0,1,.53.17.46.46,0,0,1,.37.53h0a.14.14,0,0,1,0,.07c-.09.27-.33.34-.65.28-.61-.12-1.24-.21-1.86-.27a4.5,4.5,0,0,0-2.28.49c.72.5,1.43,1,2.1,1.49s1.39,1.14,2.07,1.74a.58.58,0,0,0,.66.15,4.23,4.23,0,0,1,3.2.23c.43.21.62.5.48.77s-.5.32-.93.09a3.22,3.22,0,0,0-2.3-.2c.12.16.2.28.3.39a16.2,16.2,0,0,1,2.64,3.91c0,.09.08.18.11.27.1.28,0,.54-.27.64"/><path id="Path_1585" data-name="Path 1585" class="cls-10" d="M168.43,139.89h0l-.16-.07c.13,0,.14,0,.16.06"/><path id="Path_1586" data-name="Path 1586" class="cls-10" d="M168.78,139c-.28-.1-.33-.09-.35-.13v0l.36.15"/></g></g></g><g id="Group_297" data-name="Group 297"><g class="cls-12"><g id="Group_296" data-name="Group 296"><path id="Path_1592" data-name="Path 1592" class="cls-10" d="M178.37,105.42c.46.65.47,1-.11,1.54-1,.9-2,1.79-3,2.59a25.4,25.4,0,0,1-5.35,3.13,10.74,10.74,0,0,1-6.32.87,6.56,6.56,0,0,1-3.84-2.3,2.07,2.07,0,0,1-.17-.24c-.48-.67-.65-.83-.59-1s.05,0,.37-.3h0l.13-.09c.2,0,.47.44.77.84a5,5,0,0,0,.93.91,6,6,0,0,0,4,1.38,11.33,11.33,0,0,0,5.13-1.32,26.87,26.87,0,0,0,7-4.89c.4-.39.4-.4.06-.85-.14-.19-.27-.39-.42-.57s-.56-.61-.84-.91a15.58,15.58,0,0,0-5.88-4.2,9.28,9.28,0,0,0-5.51-.46,7.54,7.54,0,0,0-5.69,7.52,3.13,3.13,0,0,0,0,.44c.08.67.23,1,.06,1.18l-.2.15,0,0h0l-.31.22c-.15,0-.35-.57-.43-1.49a8.89,8.89,0,0,1,.35-3.36,8.59,8.59,0,0,1,9.8-5.73A13,13,0,0,1,174,101a20.15,20.15,0,0,1,4.23,4.22l.11.15"/><path id="Path_1593" data-name="Path 1593" class="cls-11" d="M177.35,106.57a27,27,0,0,1-7,4.89,11.34,11.34,0,0,1-5.14,1.32,5.92,5.92,0,0,1-4-1.38,4.77,4.77,0,0,1-.93-.92c-.3-.39-.57-.87-.78-.84.43-.29.86-.58,1.3-.85s.47-.18.69.07A4.81,4.81,0,0,0,165,110.3a.55.55,0,0,0,.65-.46c0-.37-.19-.5-.52-.51l-.23,0a4,4,0,0,1-2.35-.9c-.38-.32-.39-.41.11-.61,1.36-.55,2.73-1,4.1-1.58a.53.53,0,0,1,.72.21h0l0,0a4.28,4.28,0,0,0,2.43,1.67.53.53,0,0,0,.7-.27s0,0,0,0c.12-.37-.06-.53-.37-.62a4.24,4.24,0,0,1-.5-.18,3.63,3.63,0,0,1-1.44-1.1,1.21,1.21,0,0,1,.32-.11,17.28,17.28,0,0,1,1.9-.23c.85,0,1.7,0,2.54.07a.55.55,0,0,0,.65-.41c.08-.32-.11-.48-.4-.54a1.26,1.26,0,0,0-.27,0,14.9,14.9,0,0,0-4.52.19l-.47,0a3.14,3.14,0,0,1,1.32-1.79c.4-.24.55-.54.39-.8s-.48-.24-.87,0a4,4,0,0,0-1.79,2.49.59.59,0,0,1-.46.48c-.82.25-1.65.51-2.46.81s-1.49.64-2.27,1a4.37,4.37,0,0,1,.75-2.11,16.81,16.81,0,0,1,1.15-1.38c.2-.23.26-.46.09-.67a.43.43,0,0,0-.61-.07l-.05,0c-.14.11-.27.23-.4.35a6.61,6.61,0,0,0-2,4.13.58.58,0,0,1-.31.51c-.55.33-1.09.69-1.61,1.06l0,0,.2-.15c.18-.2,0-.51-.06-1.18,0-.15,0-.3,0-.45a7.55,7.55,0,0,1,5.69-7.51,9.28,9.28,0,0,1,5.51.46,15.29,15.29,0,0,1,5.88,4.2c.28.3.57.6.84.91s.28.38.43.57c.33.45.34.46-.06.85"/><path id="Path_1594" data-name="Path 1594" class="cls-10" d="M173.7,105.22a.54.54,0,0,1-.64.41c-.85,0-1.7-.1-2.55-.07a17.58,17.58,0,0,0-1.9.23,1.28,1.28,0,0,0-.31.11,3.6,3.6,0,0,0,1.43,1.1,4.24,4.24,0,0,0,.5.18c.32.09.49.26.38.62a.53.53,0,0,1-.67.34l-.05,0a4.36,4.36,0,0,1-2.44-1.67.54.54,0,0,0-.72-.24h0c-1.36.52-2.73,1-4.09,1.57-.5.2-.5.3-.11.62a4,4,0,0,0,2.35.9h.23c.33,0,.55.15.52.51s-.28.48-.65.46a4.72,4.72,0,0,1-3.46-1.44c-.23-.24-.39-.25-.69-.07s-.88.56-1.3.86h0s0,0-.12.08a23.12,23.12,0,0,0-3.46,3l-.59.63c-.21.24-.46.32-.7.13s-.21-.48,0-.73c.4-.45.82-.89,1.25-1.32a25.46,25.46,0,0,1,2.75-2.33h0c.05,0,.07-.05.29-.23h0q.8-.55,1.62-1a.58.58,0,0,0,.31-.51,6.56,6.56,0,0,1,2-4.13,4.55,4.55,0,0,1,.4-.35.45.45,0,0,1,.62,0l0,.05c.18.21.12.44-.09.67a16.81,16.81,0,0,0-1.15,1.38,4.37,4.37,0,0,0-.75,2.11c.78-.33,1.52-.68,2.27-1s1.64-.56,2.46-.81a.59.59,0,0,0,.46-.48,4,4,0,0,1,1.79-2.49c.39-.24.73-.26.87,0s0,.56-.39.8a3.14,3.14,0,0,0-1.32,1.79l.47-.05a15.23,15.23,0,0,1,4.52-.19l.27,0c.28.06.47.22.39.54"/><path id="Path_1595" data-name="Path 1595" class="cls-10" d="M159.5,109.64l-.13.09.12-.09h0"/><path id="Path_1596" data-name="Path 1596" class="cls-10" d="M158.93,108.91c-.22.17-.24.22-.29.22h0l.31-.22"/></g></g></g><g id="Group_299" data-name="Group 299"><g class="cls-13"><g id="Group_298" data-name="Group 298"><path id="Path_1597" data-name="Path 1597" class="cls-10" d="M154.16,97.34c.45.65.47,1-.12,1.54-1,.9-1.95,1.79-3,2.59a25.4,25.4,0,0,1-5.35,3.13,10.75,10.75,0,0,1-6.32.87,6.56,6.56,0,0,1-3.84-2.3c-.05,0-.05-.07-.18-.24-.48-.67-.64-.83-.58-1s0,0,.37-.29l0,0,.12-.09c.21,0,.48.45.78.84a4.77,4.77,0,0,0,.93.92,6.05,6.05,0,0,0,4,1.38,11.47,11.47,0,0,0,5.13-1.33,26.8,26.8,0,0,0,7-4.89c.4-.39.4-.39.06-.85-.14-.19-.27-.39-.42-.57l-.84-.91a15.58,15.58,0,0,0-5.88-4.2,9.31,9.31,0,0,0-5.52-.46A7.54,7.54,0,0,0,134.86,99a3.13,3.13,0,0,0,0,.44c.08.67.23,1,.06,1.18l-.2.15,0,0h0l-.31.22c-.15,0-.35-.57-.43-1.49a8.89,8.89,0,0,1,.35-3.36,8.6,8.6,0,0,1,9.8-5.73,13,13,0,0,1,5.69,2.5A20.15,20.15,0,0,1,154,97.17l.11.15"/><path id="Path_1598" data-name="Path 1598" class="cls-11" d="M153.14,98.48a26.57,26.57,0,0,1-7,4.89A11.47,11.47,0,0,1,141,104.7a6,6,0,0,1-4-1.38,5.4,5.4,0,0,1-.93-.92c-.3-.4-.57-.87-.78-.84.43-.3.86-.58,1.3-.85s.47-.18.69.06a4.77,4.77,0,0,0,3.47,1.45.56.56,0,0,0,.65-.46c0-.37-.19-.5-.52-.51l-.23,0a4,4,0,0,1-2.35-.9c-.39-.32-.39-.41.11-.62,1.36-.54,2.73-1,4.09-1.57a.54.54,0,0,1,.73.21h0v0a4.4,4.4,0,0,0,2.44,1.67.53.53,0,0,0,.7-.27s0,0,0,0c.12-.37-.06-.53-.37-.62a3.68,3.68,0,0,1-.5-.18,3.63,3.63,0,0,1-1.44-1.1,1.21,1.21,0,0,1,.32-.11,17.28,17.28,0,0,1,1.9-.23c.85,0,1.7,0,2.54.07a.55.55,0,0,0,.65-.41c.08-.32-.11-.48-.4-.54a1.26,1.26,0,0,0-.27,0,15,15,0,0,0-4.53.19l-.46,0A3.09,3.09,0,0,1,145.15,95c.4-.24.54-.54.39-.8s-.49-.24-.87,0a4,4,0,0,0-1.79,2.5.59.59,0,0,1-.46.47c-.83.25-1.65.51-2.46.82s-1.5.63-2.27,1a4.19,4.19,0,0,1,.74-2.1,16.94,16.94,0,0,1,1.16-1.38c.2-.24.26-.46.09-.67a.43.43,0,0,0-.61-.07l0,0a4.55,4.55,0,0,0-.4.35,6.62,6.62,0,0,0-2,4.12.56.56,0,0,1-.3.52q-.82.49-1.62,1a.05.05,0,0,1,0,0l.2-.15c.17-.2,0-.51-.06-1.18a3.42,3.42,0,0,1,0-.45,7.53,7.53,0,0,1,5.68-7.51,9.31,9.31,0,0,1,5.52.46A15.34,15.34,0,0,1,152,96.16l.84.91c.15.18.28.38.42.57.34.45.34.46-.06.84"/><path id="Path_1599" data-name="Path 1599" class="cls-10" d="M149.49,97.14a.55.55,0,0,1-.65.41c-.84,0-1.69-.1-2.54-.07a17.28,17.28,0,0,0-1.9.23,1.21,1.21,0,0,0-.32.11,3.63,3.63,0,0,0,1.44,1.1,4.24,4.24,0,0,0,.5.18c.31.09.49.26.37.62a.53.53,0,0,1-.67.34l-.05,0a4.43,4.43,0,0,1-2.44-1.67.53.53,0,0,0-.71-.24h0c-1.36.52-2.73,1-4.09,1.57-.5.2-.5.3-.11.62a4,4,0,0,0,2.35.9h.23c.33,0,.56.15.52.51s-.28.48-.65.46a4.75,4.75,0,0,1-3.46-1.44c-.22-.24-.39-.25-.69-.07s-.88.56-1.3.86h0s0,0-.13.08a22.56,22.56,0,0,0-3.45,3l-.59.63c-.22.24-.47.32-.7.13s-.21-.49,0-.73c.4-.45.82-.89,1.25-1.32a23.67,23.67,0,0,1,2.75-2.33h0s.06-.05.29-.23h0c.52-.37,1.06-.72,1.61-1a.59.59,0,0,0,.31-.52,6.61,6.61,0,0,1,2-4.12c.13-.12.26-.24.4-.35a.44.44,0,0,1,.63,0s0,0,0,0c.17.21.11.44-.09.68a16.94,16.94,0,0,0-1.16,1.38,4.23,4.23,0,0,0-.74,2.11c.77-.33,1.51-.68,2.27-1s1.63-.56,2.46-.82a.57.57,0,0,0,.46-.47,4,4,0,0,1,1.79-2.49c.39-.25.73-.26.87,0s0,.56-.39.8a3.07,3.07,0,0,0-1.32,1.78,4.31,4.31,0,0,0,.46,0,15.64,15.64,0,0,1,4.53-.19l.26,0c.29.07.48.23.4.54"/><path id="Path_1600" data-name="Path 1600" class="cls-10" d="M135.29,101.56l-.13.09.12-.09h0"/><path id="Path_1601" data-name="Path 1601" class="cls-10" d="M134.72,100.82c-.23.18-.25.23-.29.23h0l.31-.22"/></g></g></g><g id="Group_305" data-name="Group 305"><g class="cls-14"><g id="Group_304" data-name="Group 304"><path id="Path_1612" data-name="Path 1612" class="cls-10" d="M155.35,137.57c0,.31-.29.5-.68.48a4.92,4.92,0,0,1-3.61-1.5c-.23-.25-.4-.26-.72-.07s-.91.58-1.35.89h0s0,0-.12.1a23.36,23.36,0,0,0-3.6,3.14l-.61.66c-.23.25-.49.33-.74.14s-.21-.5,0-.76c.42-.47.86-.93,1.3-1.38a26.53,26.53,0,0,1,2.87-2.43h0s.07-.05.3-.24h0c.55-.38,1.11-.75,1.69-1.1a.59.59,0,0,0,.32-.53,6.85,6.85,0,0,1,2.05-4.3,3.7,3.7,0,0,1,.42-.37.46.46,0,0,1,.64,0h0l0,.05c.18.22.12.46-.1.7a15.13,15.13,0,0,0-1.2,1.45,4.43,4.43,0,0,0-.78,2.19c.81-.35,1.59-.71,2.37-1s1.71-.59,2.56-.85a.6.6,0,0,0,.48-.49,4.2,4.2,0,0,1,1.87-2.6c.4-.26.76-.27.91,0s0,.58-.41.84a3.28,3.28,0,0,0-1.38,1.86l.49-.05a15.92,15.92,0,0,1,4.72-.2l.28,0c.3.06.49.24.41.56a.57.57,0,0,1-.67.43c-.88,0-1.76-.1-2.65-.07a18.45,18.45,0,0,0-2,.23,1.85,1.85,0,0,0-.33.12,3.67,3.67,0,0,0,1.5,1.14,3.24,3.24,0,0,0,.52.19c.33.09.51.28.39.65a.56.56,0,0,1-.7.36h0l-.05,0a4.56,4.56,0,0,1-2.55-1.74.57.57,0,0,0-.75-.26h0c-1.42.55-2.85,1.08-4.27,1.64-.52.21-.51.31-.12.65a4.29,4.29,0,0,0,2.45.94h.24c.34,0,.58.15.54.53"/><path id="Path_1613" data-name="Path 1613" class="cls-10" d="M158.2,125.82a13.59,13.59,0,0,1,5.94,2.61,20.58,20.58,0,0,1,4.4,4.39l.13.15c.47.68.48,1.05-.13,1.61-1,.93-2,1.86-3.13,2.7a26.2,26.2,0,0,1-5.58,3.26,11.21,11.21,0,0,1-6.58.91,6.89,6.89,0,0,1-4-2.39c-.05-.06-.05-.08-.18-.26-.5-.7-.67-.87-.61-1s.06,0,.39-.31h0l.13-.1c.22,0,.49.46.81.87a5.51,5.51,0,0,0,1,1,6.25,6.25,0,0,0,4.19,1.44,12,12,0,0,0,5.36-1.38,28,28,0,0,0,7.3-5.1c.41-.41.41-.41.06-.88-.15-.2-.28-.41-.45-.6s-.57-.63-.87-1a16.09,16.09,0,0,0-6.13-4.37,9.76,9.76,0,0,0-5.75-.49,7.87,7.87,0,0,0-5.93,7.84c0,.16,0,.31,0,.46.09.7.25,1,.06,1.23,0,0,0,0-.2.16l0,0h0l-.33.23c-.15,0-.36-.59-.45-1.55a9.2,9.2,0,0,1,.37-3.5,9,9,0,0,1,10.21-6"/><path id="Path_1614" data-name="Path 1614" class="cls-10" d="M149,137.37l-.13.1c.1-.08.1-.09.12-.09h0"/><path id="Path_1615" data-name="Path 1615" class="cls-11" d="M148.65,136.42c.17-.21,0-.54-.07-1.23,0-.16,0-.31,0-.47a7.86,7.86,0,0,1,5.93-7.83,9.68,9.68,0,0,1,5.75.48,16.09,16.09,0,0,1,6.13,4.37c.29.32.59.63.87.95s.3.4.45.59c.35.48.35.48-.06.89a28,28,0,0,1-7.3,5.1,12.09,12.09,0,0,1-5.36,1.38,6.21,6.21,0,0,1-4.19-1.45,5.13,5.13,0,0,1-1-.95c-.32-.41-.59-.91-.81-.88.44-.31.89-.6,1.35-.89s.49-.19.73.07a4.89,4.89,0,0,0,3.6,1.5c.39,0,.65-.17.68-.48s-.2-.51-.54-.53h-.24a4.29,4.29,0,0,1-2.45-.94c-.4-.34-.41-.43.12-.65,1.42-.56,2.84-1.1,4.27-1.64a.56.56,0,0,1,.76.22h0v0a4.56,4.56,0,0,0,2.55,1.74.56.56,0,0,0,.73-.28h0s0,0,0-.06c.12-.37-.06-.55-.39-.65a3.2,3.2,0,0,1-.52-.18,3.69,3.69,0,0,1-1.5-1.15l.33-.12a18.45,18.45,0,0,1,2-.23c.88,0,1.77,0,2.65.08a.57.57,0,0,0,.67-.44c.09-.32-.12-.5-.41-.56l-.28,0a15.92,15.92,0,0,0-4.72.2,4.69,4.69,0,0,1-.49,0,3.28,3.28,0,0,1,1.38-1.86c.42-.25.57-.56.41-.84s-.5-.26-.91,0a4.24,4.24,0,0,0-1.87,2.6.6.6,0,0,1-.48.49c-.86.26-1.72.53-2.56.85s-1.55.66-2.37,1a4.56,4.56,0,0,1,.78-2.19q.57-.75,1.2-1.44c.22-.25.28-.48.1-.7a.46.46,0,0,0-.64-.08l-.05.05a5,5,0,0,0-.42.37,6.9,6.9,0,0,0-2.05,4.3.59.59,0,0,1-.32.53c-.58.35-1.14.72-1.69,1.1l0,0,.2-.15"/><path id="Path_1616" data-name="Path 1616" class="cls-10" d="M148.4,136.61c-.23.19-.26.23-.3.24h0l.33-.24"/></g></g></g><g id="Group_311" data-name="Group 311"><g class="cls-15"><g id="Group_310" data-name="Group 310"><path id="Path_1627" data-name="Path 1627" class="cls-10" d="M66,117.79c-.54.64-.59,1,0,1.61.92,1,1.86,2,2.87,3a26.39,26.39,0,0,0,5.26,3.76,11.21,11.21,0,0,0,6.48,1.5,6.85,6.85,0,0,0,4.2-2,1.87,1.87,0,0,0,.2-.24c.57-.66.75-.8.7-1s0,0-.35-.34h0l-.12-.1c-.22,0-.53.42-.88.8a5.47,5.47,0,0,1-1.06.86,6.19,6.19,0,0,1-4.3,1.05,11.89,11.89,0,0,1-5.21-1.86,28.38,28.38,0,0,1-6.8-5.75c-.37-.44-.36-.45,0-.89.16-.18.31-.38.49-.55s.64-.58,1-.86A16,16,0,0,1,75,113a9.71,9.71,0,0,1,5.77,0,7.87,7.87,0,0,1,5.18,8.35c0,.15,0,.3-.08.46-.16.68-.34,1-.18,1.22l.19.17,0,0h0l.3.26c.15,0,.42-.55.59-1.5a9.26,9.26,0,0,0,0-3.52,9,9,0,0,0-9.63-6.88A13.47,13.47,0,0,0,71,113.68a21,21,0,0,0-4.8,4l-.13.15"/><path id="Path_1628" data-name="Path 1628" class="cls-11" d="M67,119.07a28.15,28.15,0,0,0,6.8,5.75A11.89,11.89,0,0,0,79,126.68a6.19,6.19,0,0,0,4.3-1.05,5.47,5.47,0,0,0,1.06-.86c.35-.38.67-.85.88-.8-.41-.35-.83-.68-1.26-1s-.47-.23-.73,0a5,5,0,0,1-3.73,1.16c-.38,0-.63-.23-.63-.54s.25-.5.59-.48h.24a4.21,4.21,0,0,0,2.53-.71c.43-.3.44-.4-.06-.65-1.36-.69-2.73-1.35-4.1-2a.55.55,0,0,0-.78.15v0a4.55,4.55,0,0,1-2.7,1.5.55.55,0,0,1-.7-.34s0,0,0-.06c-.09-.38.12-.55.45-.61a3.58,3.58,0,0,0,.54-.14,3.75,3.75,0,0,0,1.59-1,1.87,1.87,0,0,0-.32-.15,18.24,18.24,0,0,0-2-.41c-.88-.1-1.76-.13-2.65-.17a.57.57,0,0,1-.62-.5c-.06-.34.16-.49.46-.52l.28,0a16.11,16.11,0,0,1,4.68.63c.14,0,.28.06.47.1a3.22,3.22,0,0,0-1.2-2c-.4-.29-.51-.61-.32-.87s.52-.21.9.08a4.17,4.17,0,0,1,1.62,2.76.6.6,0,0,0,.44.54c.83.34,1.66.69,2.47,1.08s1.49.8,2.27,1.22a4.48,4.48,0,0,0-.58-2.26,17.7,17.7,0,0,0-1.06-1.55c-.19-.26-.23-.5,0-.7a.45.45,0,0,1,.64,0l0,0c.13.13.26.26.38.4A6.86,6.86,0,0,1,84,121.44a.6.6,0,0,0,.27.56c.54.4,1.07.82,1.58,1.25l0,0a1.8,1.8,0,0,1-.19-.18c-.15-.22,0-.53.18-1.21l.09-.46A7.87,7.87,0,0,0,80.72,113,9.7,9.7,0,0,0,75,113a16.08,16.08,0,0,0-6.5,3.8c-.32.29-.65.57-1,.87s-.33.36-.5.55c-.39.44-.4.44,0,.88"/><path id="Path_1629" data-name="Path 1629" class="cls-10" d="M70.9,118a.58.58,0,0,0,.63.5c.88,0,1.77.06,2.65.16q1,.16,1.95.42a1.87,1.87,0,0,1,.32.15,3.88,3.88,0,0,1-1.6,1,5.36,5.36,0,0,1-.54.14c-.33.06-.54.22-.45.61a.55.55,0,0,0,.66.41h.06a4.52,4.52,0,0,0,2.7-1.5.56.56,0,0,1,.77-.19h0c1.37.68,2.74,1.33,4.1,2,.5.25.49.35.06.65a4.21,4.21,0,0,1-2.53.71h-.24c-.34,0-.59.1-.59.48s.25.53.63.54A5,5,0,0,0,83.24,123c.25-.24.42-.23.72,0s.85.66,1.26,1h0s0,0,.12.1h0a22.9,22.9,0,0,1,3.29,3.46l.55.72a.52.52,0,0,0,.73.2.48.48,0,0,0,.06-.75c-.37-.5-.76-1-1.17-1.49a23.85,23.85,0,0,0-2.63-2.69h0s-.07,0-.28-.26h0c-.51-.43-1-.85-1.59-1.25a.6.6,0,0,1-.27-.57A6.88,6.88,0,0,0,82.38,117a3.68,3.68,0,0,0-.39-.4.46.46,0,0,0-.64-.09l0,.05c-.2.2-.16.44,0,.7a17,17,0,0,1,1.07,1.55,4.57,4.57,0,0,1,.57,2.26c-.77-.43-1.51-.86-2.26-1.22s-1.65-.75-2.48-1.09a.6.6,0,0,1-.43-.53,4.23,4.23,0,0,0-1.62-2.76c-.38-.3-.73-.34-.91-.09s-.06.58.33.87a3.25,3.25,0,0,1,1.2,2,3.78,3.78,0,0,1-.48-.09,15.73,15.73,0,0,0-4.68-.63h-.28c-.3,0-.51.19-.46.53"/><path id="Path_1630" data-name="Path 1630" class="cls-10" d="M85.23,124h0l.12.11c-.09-.09-.09-.1-.11-.1"/><path id="Path_1631" data-name="Path 1631" class="cls-10" d="M85.89,123.27c.21.21.23.26.27.26h0l-.3-.26"/></g></g></g><g id="Group_313" data-name="Group 313"><g class="cls-16"><g id="Group_312" data-name="Group 312"><path id="Path_1632" data-name="Path 1632" class="cls-10" d="M93.74,70.75c-.67.49-.8.83-.4,1.56.66,1.21,1.34,2.42,2.11,3.56a26.25,26.25,0,0,0,4.24,4.87,11.27,11.27,0,0,0,6,3,6.91,6.91,0,0,0,4.56-1l.25-.19c.7-.5.91-.61.9-.76s0,0-.27-.42h0l-.1-.13c-.2-.1-.61.28-1,.57a5.16,5.16,0,0,1-1.23.59,6.15,6.15,0,0,1-4.43,0,11.87,11.87,0,0,1-4.63-3,28,28,0,0,1-5.29-7.17c-.26-.51-.26-.51.23-.85.2-.14.4-.3.61-.42s.75-.42,1.13-.62a15.81,15.81,0,0,1,7.2-2.19,9.72,9.72,0,0,1,5.6,1.37,7.87,7.87,0,0,1,3.12,9.32c-.06.15-.12.29-.19.43-.3.63-.56.89-.45,1.15,0,0,0,0,.14.21l0,0s0,0,0,0L112,81c.16,0,.53-.44.92-1.32a9.31,9.31,0,0,0,.77-3.44,9,9,0,0,0-7.77-8.91,13.49,13.49,0,0,0-6.46.57,21,21,0,0,0-5.58,2.76l-.16.11"/><path id="Path_1633" data-name="Path 1633" class="cls-11" d="M94.36,72.21a27.92,27.92,0,0,0,5.29,7.16,11.82,11.82,0,0,0,4.63,3,6.26,6.26,0,0,0,4.43,0,5.12,5.12,0,0,0,1.22-.6c.43-.29.85-.67,1-.57-.32-.43-.65-.86-1-1.28s-.4-.33-.7-.16a5,5,0,0,1-3.9.27c-.36-.1-.56-.37-.48-.67s.35-.43.68-.33l.24.06a4.27,4.27,0,0,0,2.62-.11c.48-.19.52-.28.1-.65-1.16-1-2.35-1.94-3.52-2.91a.56.56,0,0,0-.79,0h0l0,0a4.55,4.55,0,0,1-3,.83.56.56,0,0,1-.61-.49h0v-.06c0-.4.24-.5.58-.49a3.49,3.49,0,0,0,.56,0,3.78,3.78,0,0,0,1.78-.6l-.28-.22a18.53,18.53,0,0,0-1.8-.85c-.83-.3-1.69-.54-2.54-.78a.57.57,0,0,1-.5-.62c0-.34.27-.44.58-.4a1.28,1.28,0,0,1,.27.05,15.85,15.85,0,0,1,4.41,1.69c.12.07.26.12.44.2a3.2,3.2,0,0,0-.71-2.2c-.31-.36-.36-.71-.12-.92s.56-.08.87.3a4.17,4.17,0,0,1,.93,3.06.61.61,0,0,0,.3.62c.74.52,1.46,1,2.16,1.62s1.27,1.13,1.93,1.71a4.49,4.49,0,0,0,0-2.33,16.38,16.38,0,0,0-.68-1.76c-.12-.3-.11-.54.13-.69a.45.45,0,0,1,.63.14.21.21,0,0,1,0,.06c.1.16.2.32.28.48a6.87,6.87,0,0,1,.57,4.73.62.62,0,0,0,.13.61c.44.51.85,1,1.25,1.58,0,0,0,0,0,0-.13-.2-.13-.17-.15-.21-.1-.25.15-.51.45-1.15a3.17,3.17,0,0,0,.19-.42,7.86,7.86,0,0,0-3.12-9.32,9.65,9.65,0,0,0-5.6-1.38,16.05,16.05,0,0,0-7.2,2.19c-.38.2-.76.4-1.13.62a6.58,6.58,0,0,0-.61.42c-.49.34-.49.34-.23.86"/><path id="Path_1634" data-name="Path 1634" class="cls-10" d="M98.41,72.1a.59.59,0,0,0,.5.63c.86.24,1.71.46,2.54.77a18.53,18.53,0,0,1,1.8.85l.28.22a3.82,3.82,0,0,1-1.78.6,3.49,3.49,0,0,1-.56,0c-.34,0-.57.1-.58.49a.56.56,0,0,0,.55.56h.06a4.56,4.56,0,0,0,3-.84.56.56,0,0,1,.79,0h0l0,0c1.17,1,2.36,1.93,3.52,2.92.43.36.39.45-.1.65a4.27,4.27,0,0,1-2.62.11l-.24-.07c-.33-.09-.59,0-.68.33s.12.57.49.68a5,5,0,0,0,3.9-.28c.3-.17.47-.12.7.17s.68.84,1,1.27h0s0,0,.09.12h0a23.33,23.33,0,0,1,2.41,4.13l.37.82c.13.3.36.47.65.37s.37-.41.24-.72c-.24-.58-.51-1.16-.79-1.72A25,25,0,0,0,112,81h0s0-.07-.21-.32c0,0,0,0,0,0-.39-.54-.81-1.07-1.25-1.59a.61.61,0,0,1-.13-.61,6.83,6.83,0,0,0-.57-4.72,3.77,3.77,0,0,0-.28-.48.45.45,0,0,0-.6-.23l-.06,0c-.25.15-.26.4-.13.69.25.58.48,1.16.68,1.76a4.6,4.6,0,0,1,0,2.33c-.66-.59-1.27-1.18-1.92-1.71s-1.43-1.1-2.16-1.63a.58.58,0,0,1-.3-.61,4.22,4.22,0,0,0-.94-3.06c-.3-.38-.63-.5-.86-.3s-.2.55.12.92a3.24,3.24,0,0,1,.71,2.2l-.44-.2a15.91,15.91,0,0,0-4.4-1.69L99,71.71c-.3,0-.54.07-.57.4"/><path id="Path_1635" data-name="Path 1635" class="cls-10" d="M111,81.2h0l.1.14c-.07-.11-.07-.12-.09-.13"/><path id="Path_1636" data-name="Path 1636" class="cls-10" d="M111.79,80.66c.16.25.16.3.21.32h0l-.23-.33"/></g></g></g><g id="Group_317" data-name="Group 317"><g class="cls-17"><g id="Group_316" data-name="Group 316"><path id="Path_1642" data-name="Path 1642" class="cls-10" d="M126.89,146.06c-.67.43-.81.74-.48,1.47.56,1.2,1.13,2.4,1.8,3.53A25.08,25.08,0,0,0,132,156a10.76,10.76,0,0,0,5.51,3.2,6.62,6.62,0,0,0,4.43-.67l.25-.16c.7-.44.91-.52.9-.68s0-.05-.22-.41c0,0,0,0,0,0l-.09-.13c-.18-.11-.61.24-1,.49a5.29,5.29,0,0,1-1.21.49,6,6,0,0,1-4.24-.24,11.47,11.47,0,0,1-4.25-3.17,27,27,0,0,1-4.62-7.18c-.22-.51-.22-.52.27-.8.2-.13.4-.26.61-.37s.74-.35,1.12-.52a15.33,15.33,0,0,1,7-1.65,9.23,9.23,0,0,1,5.28,1.66,7.56,7.56,0,0,1,2.41,9.11l-.21.4c-.33.58-.59.81-.5,1.06,0,0,0,0,.12.22l0,0v0l.2.32c.16,0,.54-.4,1-1.22a9,9,0,0,0,1-3.24,8.59,8.59,0,0,0-6.9-9,13.09,13.09,0,0,0-6.22.15,20.29,20.29,0,0,0-5.5,2.3l-.17.1"/><path id="Path_1643" data-name="Path 1643" class="cls-11" d="M127.4,147.5a26.76,26.76,0,0,0,4.61,7.18,11.4,11.4,0,0,0,4.26,3.17,5.91,5.91,0,0,0,4.24.24,4.88,4.88,0,0,0,1.21-.49c.42-.24.85-.59,1-.49-.28-.43-.57-.86-.88-1.28s-.36-.35-.66-.2a4.74,4.74,0,0,1-3.75,0A.55.55,0,0,1,137,155c.11-.36.37-.39.68-.28l.22.08a4.06,4.06,0,0,0,2.51.05c.48-.15.52-.24.13-.61-1-1-2.12-2-3.18-3a.55.55,0,0,0-.76-.08l0,0a4.36,4.36,0,0,1-2.89.61.53.53,0,0,1-.55-.51v-.06c0-.38.26-.47.58-.43a3.13,3.13,0,0,0,.53,0,3.51,3.51,0,0,0,1.75-.47,2.75,2.75,0,0,0-.26-.22,17,17,0,0,0-1.67-.93c-.78-.34-1.58-.61-2.38-.9a.55.55,0,0,1-.43-.63c0-.32.28-.4.57-.35l.26.07a15,15,0,0,1,4.12,1.9l.41.21a3.11,3.11,0,0,0-.55-2.15c-.28-.37-.3-.7,0-.89s.54,0,.8.34a4,4,0,0,1,.71,3,.57.57,0,0,0,.25.61c.66.55,1.33,1.1,2,1.69s1.14,1.16,1.73,1.76a4.33,4.33,0,0,0,.11-2.23,16.37,16.37,0,0,0-.54-1.72c-.1-.29-.07-.53.17-.66a.43.43,0,0,1,.59.17l0,.06a5.39,5.39,0,0,1,.25.48,6.6,6.6,0,0,1,.25,4.55.59.59,0,0,0,.09.6c.39.51.75,1,1.1,1.58l0,0c-.11-.2-.11-.17-.12-.21-.09-.24.17-.49.5-1.07l.21-.4a7.56,7.56,0,0,0-2.41-9.11,9.23,9.23,0,0,0-5.28-1.66,15.46,15.46,0,0,0-7,1.65c-.38.18-.75.34-1.12.53-.21.1-.4.24-.61.36-.49.29-.49.3-.27.8"/><path id="Path_1644" data-name="Path 1644" class="cls-10" d="M131.29,147.64a.54.54,0,0,0,.43.63c.8.29,1.6.56,2.38.9.58.29,1.13.59,1.67.93a1.37,1.37,0,0,1,.25.23,3.54,3.54,0,0,1-1.74.46,2.33,2.33,0,0,1-.53,0c-.32,0-.55.06-.58.43a.53.53,0,0,0,.49.57h.06a4.38,4.38,0,0,0,2.89-.61.54.54,0,0,1,.76,0v0c1.07,1,2.14,2,3.19,3,.39.37.35.46-.13.61a4.06,4.06,0,0,1-2.51-.05l-.23-.08c-.3-.11-.56-.08-.67.28s.08.55.43.67a4.79,4.79,0,0,0,3.75,0c.3-.15.45-.09.66.2s.59.84.87,1.28h0l.07.12a22.43,22.43,0,0,1,2,4.1l.3.81c.11.3.32.47.6.39s.38-.37.27-.67c-.2-.57-.41-1.14-.65-1.69a23.65,23.65,0,0,0-1.66-3.2h0s0-.08-.18-.32v0c-.35-.54-.71-1.07-1.1-1.58a.58.58,0,0,1-.09-.59,6.57,6.57,0,0,0-.26-4.56,3.58,3.58,0,0,0-.24-.48.43.43,0,0,0-.56-.26h0l-.06,0c-.25.13-.27.36-.17.65a18,18,0,0,1,.54,1.72,4.37,4.37,0,0,1-.11,2.24c-.59-.6-1.14-1.2-1.73-1.76s-1.3-1.14-2-1.69a.57.57,0,0,1-.25-.61,4,4,0,0,0-.71-3c-.26-.38-.57-.51-.8-.33s-.23.52.05.89a3.11,3.11,0,0,1,.55,2.15,3.66,3.66,0,0,1-.41-.22,15.58,15.58,0,0,0-4.12-1.9l-.26-.07c-.29,0-.53,0-.57.35"/><path id="Path_1645" data-name="Path 1645" class="cls-10" d="M142.76,157.12h0l.09.14c-.06-.11-.06-.12-.08-.13"/><path id="Path_1646" data-name="Path 1646" class="cls-10" d="M143.56,156.65c.14.25.14.3.18.32h0c-.07-.11-.13-.22-.2-.32"/></g></g></g><g id="Group_319" data-name="Group 319"><g class="cls-5"><g id="Group_318" data-name="Group 318"><path id="Path_1647" data-name="Path 1647" class="cls-18" d="M123.34,253.76H19.87a13.39,13.39,0,0,1-3.1-.16c-2.83-.66-4.54-2.8-4.28-5.32s2.17-4.35,5.2-4.62c.76,0,1.51-.06,2.27,0l64.35,0c2,.05,3.84-.65,4.61-1.76,2.38-2.5,6.37-4.31,11-5a48.29,48.29,0,0,1,8.74-.76c10.06,0,20.12-.07,30.19,0a36.55,36.55,0,0,1,14.28,2.59,13.19,13.19,0,0,1,4.94,3.4,4.34,4.34,0,0,0,3.75,1.48q32.38,0,64.78,0c.75,0,1.51,0,2.26,0,3.25.25,5.44,2.35,5.35,5.15s-2.3,4.81-5.58,4.94c-.76,0-1.52,0-2.27,0H123.34"/></g></g></g><g id="Group_323" data-name="Group 323"><g id="Group_322" data-name="Group 322"><g class="cls-19"><g id="Group_321" data-name="Group 321"><path id="Path_1648" data-name="Path 1648" class="cls-20" d="M90.34,225.57v6.6c0,1.42-.44,1.81-2,1.81-2.77,0-5.53,0-8.3,0-.73,0-1,.1-1,.84,0,4.24,0,8.47,0,12.71,0,1.29-.47,1.73-1.88,1.73H72.49c-1.43,0-1.91-.43-1.91-1.7,0-4.27,0-8.53,0-12.8,0-.6-.13-.78-.84-.78q-12.3,0-24.61,0t-24.51,0c-.66,0-.88.11-.87.76,0,4.27,0,8.53,0,12.79,0,1.29-.48,1.72-1.89,1.72-1.59,0-3.18,0-4.76,0-1.31,0-1.82-.45-1.82-1.62,0-4.29,0-8.58,0-12.87,0-.61-.15-.79-.85-.78-2.88,0-5.76,0-8.64,0C.53,234,0,233.52,0,232.35v-6.92c0-1.17.5-1.63,1.8-1.63,2.91,0,5.82,0,8.73,0,.63,0,.78-.13.77-.7,0-1.86,0-1.86-2.1-1.86H4.55c-1.19,0-1.71-.48-1.71-1.56v-32.5c0-1.07.53-1.54,1.72-1.54,2,0,4,0,6,0,.64,0,.77-.16.76-.7,0-1.86,0-1.86-2-1.86H1.9c-1.41,0-1.88-.43-1.88-1.72v-6.76c0-1.26.48-1.68,1.92-1.68,2.76,0,5.52,0,8.28,0,.84,0,1.21-.1,1.11-.95a20.82,20.82,0,0,1,0-2.62c0-1,.53-1.53,1.66-1.53h5.11c1.14,0,1.68.48,1.69,1.49s0,2.07,0,3.1c0,.37.09.55.53.49a3.23,3.23,0,0,1,.44,0l48.86,0c.77,0,1.07-.13,1-.88a23.44,23.44,0,0,1,0-2.78c0-.93.55-1.43,1.57-1.44,1.76,0,3.53,0,5.29,0,1,0,1.58.5,1.59,1.42s0,2,0,3c0,.51.13.66.71.65,2.91,0,5.82,0,8.74,0,1.36,0,1.85.44,1.85,1.67v6.92c0,1.12-.52,1.58-1.77,1.59-2.94,0-5.88,0-8.82,0-.58,0-.72.15-.72.66,0,1.9,0,1.9,2.14,1.9,1.56,0,3.12,0,4.68,0,1.13,0,1.66.49,1.66,1.51q0,16.31,0,32.59c0,1-.54,1.5-1.68,1.5-2,0-4.06,0-6.09,0-.6,0-.71.16-.7.66,0,1.89,0,1.89,2.06,1.89h7.31c1.47,0,1.93.42,1.93,1.77m-2.8,1.69c0-.77-.19-.93-1-.93q-41.32,0-82.64,0H3.42c-.46-.06-.6.1-.59.52,0,1.25.06,2.5,0,3.74,0,.7.18.85,1,.85q20.67,0,41.36,0H64.62q11.09,0,22.14,0c.62,0,.8-.13.77-.69a27.25,27.25,0,0,1,0-3.5m0-50.91c0-.72-.2-.9-1-.9q-40.66,0-81.32,0c-.59,0-1.18,0-1.77,0s-.64.11-.63.56c0,1.22.07,2.44,0,3.66,0,.72.2.9,1,.9q20.64,0,41.28,0H86.72c.65,0,.85-.12.82-.73a29,29,0,0,1,0-3.49m-3.73,42.39c.73,0,.9-.15.9-.81q0-14.46,0-28.93c0-.66-.17-.82-.9-.82q-19.28,0-38.54,0t-38.72,0c-.74,0-.9.15-.9.82q0,14.46,0,28.93c0,.66.17.81.9.81q38.62,0,77.26,0m-8.21,28c.5,0,.64-.12.64-.57,0-1.9,0-3.81,0-5.72v-4.53c0-1.93,0-1.91-2.12-1.92-.58,0-.72.13-.72.65,0,3.39,0,6.78,0,10.17,0,2,0,1.95,2.2,1.92m.63-62.38c0-1.21,0-1.21-1.31-1.21-1.52,0-1.52,0-1.52,1.33s0,1.21,1.31,1.21c1.52,0,1.52,0,1.52-1.33m-1.39-11.39c1.39,0,1.39,0,1.39-1.21s0-1.33-1.44-1.33-1.39,0-1.39,1.21,0,1.33,1.44,1.33m0,50.87c1.36,0,1.36,0,1.36-1.24s0-1.31-1.47-1.31-1.36,0-1.36,1.24,0,1.31,1.47,1.31M70.6,184c0-.72-.19-.9-1-.89q-23.94,0-47.89,0c-1.95,0-1.91,0-2,1.74,0,.66.17.82.9.82,8.14,0,16.29,0,24.43,0H68.72c1.86,0,1.82,0,1.88-1.67m0,38.08c0-.67-.16-.82-.9-.82-8.14,0-16.28,0-24.43,0H21.63c-1.85,0-1.81,0-1.88,1.66,0,.72.2.9,1,.9q23.94,0,47.88,0c2,0,1.92,0,2-1.74M16.34,246.7c.5,0,.63-.12.62-.57,0-1.93,0-3.87,0-5.8v-4.45C17,234,17,234,14.84,234c-.58,0-.73.13-.73.65,0,3.39,0,6.78,0,10.17,0,2,0,1.95,2.21,1.92M17,171.6c0-1.21,0-1.21-1.3-1.21-1.52,0-1.52,0-1.52,1.41,0,1.13,0,1.13,1.3,1.13,1.52,0,1.52,0,1.52-1.33m-1.31,14.05c1.31,0,1.31,0,1.31-1.2s0-1.34-1.51-1.34c-1.31,0-1.31,0-1.31,1.2s0,1.34,1.51,1.34m-.05,38.15c1.36,0,1.36,0,1.36-1.23s0-1.31-1.45-1.31-1.37,0-1.37,1.23,0,1.31,1.46,1.31"/><path id="Path_1649" data-name="Path 1649" class="cls-8" d="M86.5,226.32c.85,0,1.1.17,1,.94a29.19,29.19,0,0,0,0,3.5c0,.56-.15.69-.77.69-7.38,0-14.75,0-22.13,0H3.77c-.77,0-1-.15-1-.85.07-1.24,0-2.49,0-3.73,0-.43.13-.58.59-.52h.44l82.64,0m-10.27,2.56c0-1.27,0-1.27-1.41-1.27s-1.42,0-1.42,1.26,0,1.28,1.4,1.28,1.42,0,1.42-1.27m-59.27,0c0-1.23,0-1.23-1.37-1.23s-1.46,0-1.46,1.32,0,1.23,1.38,1.23,1.45,0,1.45-1.32"/><path id="Path_1650" data-name="Path 1650" class="cls-8" d="M86.54,175.46c.8,0,1,.17,1,.9a33.86,33.86,0,0,0,0,3.49c0,.61-.16.73-.81.73q-20.82,0-41.63,0l-41.28,0c-.8,0-1-.17-1-.9.07-1.21,0-2.44,0-3.66,0-.45.14-.59.63-.56s1.18,0,1.77,0q40.65,0,81.31,0m-11.67,3.84c1.36,0,1.36,0,1.36-1.24s0-1.3-1.47-1.3-1.36,0-1.36,1.24,0,1.3,1.47,1.3M17,178c0-1.22,0-1.22-1.38-1.22s-1.44,0-1.44,1.32,0,1.22,1.38,1.22S17,179.29,17,178"/><path id="Path_1651" data-name="Path 1651" class="cls-21" d="M84.71,217.92c0,.66-.17.81-.9.81q-38.64,0-77.26,0c-.74,0-.9-.15-.9-.81q0-14.47,0-28.93c0-.67.17-.81.9-.81q19.35,0,38.72,0H83.81c.73,0,.9.15.9.81q0,14.46,0,28.93m-2.84-26c0-1.22,0-1.22-1.38-1.22s-1.44,0-1.44,1.31,0,1.23,1.37,1.23,1.45,0,1.45-1.32m0,22.9c0-1.23,0-1.23-1.37-1.23s-1.45,0-1.45,1.31,0,1.23,1.37,1.23,1.45,0,1.45-1.31m-70.56,0c0-1.28,0-1.28-1.4-1.28s-1.43,0-1.43,1.26,0,1.28,1.4,1.28,1.43,0,1.43-1.26m0-22.9c0-1.27,0-1.27-1.41-1.27s-1.41,0-1.41,1.27,0,1.27,1.4,1.27,1.42,0,1.42-1.27"/><path id="Path_1652" data-name="Path 1652" class="cls-20" d="M80.49,190.74c1.38,0,1.38,0,1.38,1.22s0,1.32-1.45,1.32-1.37,0-1.37-1.22,0-1.32,1.44-1.32"/><path id="Path_1653" data-name="Path 1653" class="cls-20" d="M80.5,213.63c1.37,0,1.37,0,1.37,1.23s0,1.31-1.45,1.31-1.37,0-1.37-1.23,0-1.31,1.45-1.31"/><path id="Path_1654" data-name="Path 1654" class="cls-8" d="M76.24,246.13c0,.45-.14.57-.64.57-2.2,0-2.2,0-2.2-1.92,0-3.39,0-6.78,0-10.17,0-.52.15-.65.72-.65,2.12,0,2.12,0,2.12,1.92v4.53c0,1.91,0,3.82,0,5.72"/><path id="Path_1655" data-name="Path 1655" class="cls-8" d="M74.92,183.11c1.31,0,1.31,0,1.31,1.21s0,1.33-1.52,1.33c-1.3,0-1.3,0-1.3-1.21s0-1.33,1.51-1.33"/><path id="Path_1656" data-name="Path 1656" class="cls-8" d="M76.23,171.72c0,1.21,0,1.21-1.39,1.21s-1.44,0-1.44-1.33,0-1.21,1.39-1.21,1.44,0,1.44,1.33"/><path id="Path_1657" data-name="Path 1657" class="cls-20" d="M76.23,178.05c0,1.24,0,1.24-1.36,1.24s-1.47,0-1.47-1.3,0-1.24,1.36-1.24,1.47,0,1.47,1.3"/><path id="Path_1658" data-name="Path 1658" class="cls-8" d="M76.23,222.56c0,1.24,0,1.24-1.36,1.24s-1.47,0-1.47-1.3,0-1.24,1.36-1.24,1.47,0,1.47,1.3"/><path id="Path_1659" data-name="Path 1659" class="cls-20" d="M74.82,227.62c1.41,0,1.41,0,1.41,1.27s0,1.27-1.42,1.27-1.4,0-1.4-1.28,0-1.26,1.41-1.26"/><path id="Path_1660" data-name="Path 1660" class="cls-8" d="M17,246.13c0,.45-.13.57-.62.57-2.21,0-2.21,0-2.21-1.92,0-3.39,0-6.78,0-10.17,0-.52.15-.65.72-.65C17,234,17,234,17,235.88v4.45c0,1.93,0,3.87,0,5.8"/><path id="Path_1661" data-name="Path 1661" class="cls-8" d="M15.66,170.39c1.3,0,1.3,0,1.3,1.21s0,1.33-1.53,1.33c-1.3,0-1.3,0-1.3-1.13,0-1.41,0-1.41,1.53-1.41"/><path id="Path_1662" data-name="Path 1662" class="cls-8" d="M17,184.45c0,1.2,0,1.2-1.31,1.2-1.51,0-1.51,0-1.51-1.34s0-1.2,1.31-1.2c1.51,0,1.51,0,1.51,1.34"/><path id="Path_1663" data-name="Path 1663" class="cls-20" d="M15.57,176.75c1.38,0,1.38,0,1.38,1.22s0,1.32-1.44,1.32-1.38,0-1.38-1.22,0-1.32,1.44-1.32"/><path id="Path_1664" data-name="Path 1664" class="cls-8" d="M17,222.56c0,1.24,0,1.24-1.36,1.24s-1.46,0-1.46-1.31,0-1.23,1.37-1.23,1.45,0,1.45,1.3"/><path id="Path_1665" data-name="Path 1665" class="cls-20" d="M15.58,227.62c1.37,0,1.37,0,1.37,1.23s0,1.31-1.45,1.31-1.37,0-1.37-1.23,0-1.31,1.45-1.31"/><path id="Path_1666" data-name="Path 1666" class="cls-20" d="M9.91,213.63c1.4,0,1.4,0,1.4,1.28s0,1.26-1.42,1.26-1.4,0-1.4-1.28,0-1.26,1.42-1.26"/><path id="Path_1667" data-name="Path 1667" class="cls-20" d="M9.9,190.74c1.41,0,1.41,0,1.41,1.27s0,1.27-1.42,1.27-1.4,0-1.4-1.27,0-1.27,1.41-1.27"/></g></g></g><g id="One_piece_of_leaf_will_emerge_when_one_record_is_uploaded._" data-name="One piece of leaf will emerge when one record is uploaded. " class="cls-22"><g class="cls-22"><path class="cls-23" d="M13.29,196.49a1.34,1.34,0,0,1-.66-.15,1.24,1.24,0,0,1-.46-.42,1.89,1.89,0,0,1-.26-.68,4.7,4.7,0,0,1,0-1.83,2,2,0,0,1,.26-.69,1.24,1.24,0,0,1,.46-.42,1.34,1.34,0,0,1,.66-.14,1.39,1.39,0,0,1,.66.14,1.29,1.29,0,0,1,.45.42,2.16,2.16,0,0,1,.27.69,5.27,5.27,0,0,1,0,1.83,2.1,2.1,0,0,1-.27.68,1.29,1.29,0,0,1-.45.42A1.4,1.4,0,0,1,13.29,196.49Zm0-.44a.79.79,0,0,0,.42-.1.86.86,0,0,0,.29-.28,1.1,1.1,0,0,0,.16-.43,2.52,2.52,0,0,0,.06-.58V194a2.49,2.49,0,0,0-.06-.57A1.15,1.15,0,0,0,14,193a.86.86,0,0,0-.29-.28.9.9,0,0,0-.42-.1.94.94,0,0,0-.43.1.86.86,0,0,0-.29.28,1.34,1.34,0,0,0-.16.44,2.52,2.52,0,0,0-.05.57v.68a2.56,2.56,0,0,0,.05.58,1.28,1.28,0,0,0,.16.43.86.86,0,0,0,.29.28A.83.83,0,0,0,13.29,196.05Z"/><path class="cls-23" d="M15.67,196.42v-3.1h.48v.5h0a1.19,1.19,0,0,1,.12-.22.73.73,0,0,1,.17-.18,1.46,1.46,0,0,1,.25-.13,1.18,1.18,0,0,1,.34,0,1,1,0,0,1,.78.31,1.17,1.17,0,0,1,.29.87v2h-.48v-1.91a1,1,0,0,0-.18-.63.71.71,0,0,0-.55-.21.9.9,0,0,0-.28,0,.8.8,0,0,0-.25.11.58.58,0,0,0-.17.18.6.6,0,0,0-.07.27v2.15Z"/><path class="cls-23" d="M20.54,196.49a1.4,1.4,0,0,1-.6-.12,1.23,1.23,0,0,1-.46-.32,1.61,1.61,0,0,1-.29-.51,2.29,2.29,0,0,1,0-1.34,1.58,1.58,0,0,1,.29-.51,1.45,1.45,0,0,1,.45-.33,1.54,1.54,0,0,1,.58-.11,1.48,1.48,0,0,1,.57.11,1.24,1.24,0,0,1,.43.32,1.47,1.47,0,0,1,.28.47,2,2,0,0,1,.09.61V195H19.59v.14a1,1,0,0,0,.07.38.8.8,0,0,0,.19.3.77.77,0,0,0,.3.19,1,1,0,0,0,.39.07,1,1,0,0,0,.54-.14,1,1,0,0,0,.35-.4l.35.24a1.14,1.14,0,0,1-.46.52A1.46,1.46,0,0,1,20.54,196.49Zm0-2.85a1.11,1.11,0,0,0-.37.07,1,1,0,0,0-.29.2,1.17,1.17,0,0,0-.19.3.9.9,0,0,0-.07.37v0h1.78v-.07a.87.87,0,0,0-.07-.37.92.92,0,0,0-.17-.29.66.66,0,0,0-.27-.19A1,1,0,0,0,20.51,193.64Z"/><path class="cls-23" d="M26.46,193.32h.48v.5h0a1,1,0,0,1,.95-.57,1.05,1.05,0,0,1,.89.42,1.94,1.94,0,0,1,.33,1.2,1.89,1.89,0,0,1-.33,1.19,1.06,1.06,0,0,1-.89.43,1,1,0,0,1-.95-.58h0v1.71h-.48Zm1.27,2.74a.84.84,0,0,0,.65-.25,1,1,0,0,0,.23-.68v-.53a1,1,0,0,0-.23-.67.84.84,0,0,0-.65-.26,1.55,1.55,0,0,0-.31,0,.75.75,0,0,0-.25.13.55.55,0,0,0-.17.2.57.57,0,0,0-.06.27v1.11a.61.61,0,0,0,.06.28.65.65,0,0,0,.17.2,1,1,0,0,0,.25.12A1.06,1.06,0,0,0,27.73,196.06Z"/><path class="cls-23" d="M30.12,196h1.12v-2.27H30.12v-.41h1.6V196h1v.42H30.12Zm1.36-3.37a.42.42,0,0,1-.3-.08.33.33,0,0,1-.08-.22v-.1a.35.35,0,0,1,.08-.22.47.47,0,0,1,.3-.08.44.44,0,0,1,.29.08.3.3,0,0,1,.08.22v.1a.29.29,0,0,1-.08.22A.39.39,0,0,1,31.48,192.63Z"/><path class="cls-23" d="M34.94,196.49a1.4,1.4,0,0,1-.6-.12,1.23,1.23,0,0,1-.46-.32,1.61,1.61,0,0,1-.29-.51,2.29,2.29,0,0,1,0-1.34,1.58,1.58,0,0,1,.29-.51,1.45,1.45,0,0,1,.45-.33,1.54,1.54,0,0,1,.58-.11,1.48,1.48,0,0,1,.57.11,1.24,1.24,0,0,1,.43.32,1.47,1.47,0,0,1,.28.47,2,2,0,0,1,.09.61V195H34v.14a1,1,0,0,0,.07.38.8.8,0,0,0,.19.3.77.77,0,0,0,.3.19,1.12,1.12,0,0,0,.93-.07,1,1,0,0,0,.35-.4l.35.24a1.14,1.14,0,0,1-.46.52A1.46,1.46,0,0,1,34.94,196.49Zm0-2.85a1.11,1.11,0,0,0-.37.07,1,1,0,0,0-.29.2,1.17,1.17,0,0,0-.19.3.9.9,0,0,0-.07.37v0h1.78v-.07a.87.87,0,0,0-.07-.37.92.92,0,0,0-.17-.29.66.66,0,0,0-.27-.19A1,1,0,0,0,34.91,193.64Z"/><path class="cls-23" d="M38.59,196.49a1.38,1.38,0,0,1-.59-.12,1.22,1.22,0,0,1-.44-.33,1.4,1.4,0,0,1-.28-.51,2.29,2.29,0,0,1-.09-.66,2,2,0,0,1,.1-.67,1.38,1.38,0,0,1,.27-.51,1.31,1.31,0,0,1,.44-.33,1.55,1.55,0,0,1,.59-.11,1.19,1.19,0,0,1,.73.2,1.08,1.08,0,0,1,.41.51l-.38.21a.73.73,0,0,0-.28-.38.9.9,0,0,0-.48-.13.88.88,0,0,0-.66.26,1.11,1.11,0,0,0-.17.3,1.2,1.2,0,0,0,0,.38v.53a1.17,1.17,0,0,0,0,.38,1.11,1.11,0,0,0,.17.3.77.77,0,0,0,.28.19,1,1,0,0,0,.39.07.86.86,0,0,0,.52-.14,1.07,1.07,0,0,0,.32-.4l.34.24a1.17,1.17,0,0,1-.43.51A1.25,1.25,0,0,1,38.59,196.49Z"/><path class="cls-23" d="M42.14,196.49a1.43,1.43,0,0,1-.6-.12,1.23,1.23,0,0,1-.46-.32,1.61,1.61,0,0,1-.29-.51,2.29,2.29,0,0,1,0-1.34,1.58,1.58,0,0,1,.29-.51,1.45,1.45,0,0,1,.45-.33,1.54,1.54,0,0,1,.58-.11,1.48,1.48,0,0,1,.57.11,1.24,1.24,0,0,1,.43.32,1.47,1.47,0,0,1,.28.47,2,2,0,0,1,.09.61V195H41.19v.14a1,1,0,0,0,.07.38.8.8,0,0,0,.19.3.77.77,0,0,0,.3.19,1,1,0,0,0,.39.07,1,1,0,0,0,.54-.14,1,1,0,0,0,.35-.4l.35.24a1.14,1.14,0,0,1-.46.52A1.46,1.46,0,0,1,42.14,196.49Zm0-2.85a1.11,1.11,0,0,0-.37.07,1,1,0,0,0-.29.2,1.17,1.17,0,0,0-.19.3.9.9,0,0,0-.07.37v0H43v-.07a.87.87,0,0,0-.07-.37.92.92,0,0,0-.17-.29.66.66,0,0,0-.27-.19A1,1,0,0,0,42.11,193.64Z"/><path class="cls-23" d="M49.28,196.49a1.37,1.37,0,0,1-.58-.12,1.16,1.16,0,0,1-.44-.32,1.41,1.41,0,0,1-.28-.51,2.29,2.29,0,0,1,0-1.34,1.27,1.27,0,0,1,.28-.51,1.31,1.31,0,0,1,.44-.33,1.61,1.61,0,0,1,1.17,0,1.31,1.31,0,0,1,.44.33,1.27,1.27,0,0,1,.28.51,2.29,2.29,0,0,1,0,1.34,1.41,1.41,0,0,1-.28.51,1.16,1.16,0,0,1-.44.32A1.38,1.38,0,0,1,49.28,196.49Zm0-.42a.88.88,0,0,0,.65-.24,1,1,0,0,0,.25-.74v-.44a1,1,0,0,0-.25-.75,1,1,0,0,0-1.29,0,1,1,0,0,0-.25.75v.44a1,1,0,0,0,.25.74A.88.88,0,0,0,49.28,196.07Z"/><path class="cls-23" d="M51.58,196h1.05v-2.27H51.52v-.41h1.11v-.64a.78.78,0,0,1,.16-.51.64.64,0,0,1,.52-.2h1v.42H53.11v.93h1.24v.41H53.11V196h1.1v.42H51.58Z"/><path class="cls-23" d="M58.76,196h1.08v-3.61H58.76V192h1.56v4H61.4v.42H58.76Z"/><path class="cls-23" d="M63.74,196.49a1.4,1.4,0,0,1-.6-.12,1.23,1.23,0,0,1-.46-.32,1.61,1.61,0,0,1-.29-.51,2.29,2.29,0,0,1,0-1.34,1.58,1.58,0,0,1,.29-.51,1.45,1.45,0,0,1,.45-.33,1.54,1.54,0,0,1,.58-.11,1.48,1.48,0,0,1,.57.11,1.24,1.24,0,0,1,.43.32,1.47,1.47,0,0,1,.28.47,2,2,0,0,1,.09.61V195H62.79v.14a1,1,0,0,0,.07.38.8.8,0,0,0,.19.3.77.77,0,0,0,.3.19,1.12,1.12,0,0,0,.93-.07,1,1,0,0,0,.35-.4l.35.24a1.14,1.14,0,0,1-.46.52A1.46,1.46,0,0,1,63.74,196.49Zm0-2.85a1.11,1.11,0,0,0-.37.07,1,1,0,0,0-.29.2,1.17,1.17,0,0,0-.19.3.9.9,0,0,0-.07.37v0h1.78v-.07a.87.87,0,0,0-.07-.37.92.92,0,0,0-.17-.29.66.66,0,0,0-.27-.19A1,1,0,0,0,63.71,193.64Z"/><path class="cls-23" d="M68.45,196.42a.49.49,0,0,1-.4-.15.73.73,0,0,1-.15-.36h0a.85.85,0,0,1-.32.42,1,1,0,0,1-.61.16,1.17,1.17,0,0,1-.77-.25.89.89,0,0,1-.29-.7.79.79,0,0,1,.32-.66,1.67,1.67,0,0,1,1-.23h.66v-.31a.63.63,0,0,0-.19-.51.82.82,0,0,0-.55-.17.83.83,0,0,0-.82.46l-.33-.24a1.67,1.67,0,0,1,.16-.24,1.37,1.37,0,0,1,.26-.2,1.16,1.16,0,0,1,.34-.14,1.42,1.42,0,0,1,.42-.05,1.29,1.29,0,0,1,.87.27,1,1,0,0,1,.32.77V196h.43v.42ZM67,196.08a1.27,1.27,0,0,0,.34,0,.89.89,0,0,0,.26-.12.52.52,0,0,0,.18-.18.46.46,0,0,0,.06-.23V195h-.66a1.25,1.25,0,0,0-.63.12.41.41,0,0,0-.2.35v.13a.4.4,0,0,0,.18.36A.8.8,0,0,0,67,196.08Z"/><path class="cls-23" d="M69.58,196h1v-2.27H69.52v-.41h1.11v-.64a.78.78,0,0,1,.16-.51.64.64,0,0,1,.52-.2h1v.42H71.11v.93h1.24v.41H71.11V196h1.1v.42H69.58Z"/></g><g class="cls-22"><path class="cls-23" d="M11.67,201.32h.42l.36,2.68h.05l.53-2.68h.53l.52,2.68h.06l.35-2.68h.42l-.48,3.1h-.62l-.49-2.6h-.05l-.51,2.6h-.62Z"/><path class="cls-23" d="M15.72,204h1.12v-2.27H15.72v-.41h1.6V204h1v.42H15.72Zm1.36-3.37a.42.42,0,0,1-.3-.08.33.33,0,0,1-.08-.22v-.1a.35.35,0,0,1,.08-.22.47.47,0,0,1,.3-.08.42.42,0,0,1,.29.08.31.31,0,0,1,.09.22v.1a.29.29,0,0,1-.09.22A.37.37,0,0,1,17.08,200.63Z"/><path class="cls-23" d="M19.17,204h1.08v-3.61H19.17V200h1.56v4h1.08v.42H19.17Z"/><path class="cls-23" d="M22.77,204h1.08v-3.61H22.77V200h1.56v4h1.08v.42H22.77Z"/><path class="cls-23" d="M31.34,204.49a1.4,1.4,0,0,1-.6-.12,1.23,1.23,0,0,1-.46-.32,1.61,1.61,0,0,1-.29-.51,2.29,2.29,0,0,1,0-1.34,1.58,1.58,0,0,1,.29-.51,1.45,1.45,0,0,1,.45-.33,1.54,1.54,0,0,1,.58-.11,1.48,1.48,0,0,1,.57.11,1.24,1.24,0,0,1,.43.32,1.47,1.47,0,0,1,.28.47,2,2,0,0,1,.09.61V203H30.39v.14a1,1,0,0,0,.07.38.8.8,0,0,0,.19.3.77.77,0,0,0,.3.19,1.12,1.12,0,0,0,.93-.07,1,1,0,0,0,.35-.4l.35.24a1.14,1.14,0,0,1-.46.52A1.46,1.46,0,0,1,31.34,204.49Zm0-2.85a1.11,1.11,0,0,0-.37.07,1,1,0,0,0-.29.2,1.17,1.17,0,0,0-.19.3.9.9,0,0,0-.07.37v0h1.78v-.07a.87.87,0,0,0-.07-.37.92.92,0,0,0-.17-.29.66.66,0,0,0-.27-.19A1,1,0,0,0,31.31,201.64Z"/><path class="cls-23" d="M33.41,204.42v-3.1h.44v.36h0a.79.79,0,0,1,.2-.31.57.57,0,0,1,.39-.12.52.52,0,0,1,.4.13.61.61,0,0,1,.17.35h0a1.09,1.09,0,0,1,.24-.35.66.66,0,0,1,.44-.13.49.49,0,0,1,.5.26,1.73,1.73,0,0,1,.13.76v2.15h-.44v-2.08a1.32,1.32,0,0,0-.08-.54.31.31,0,0,0-.3-.16.39.39,0,0,0-.31.13.5.5,0,0,0-.12.37v2.28h-.45v-2.08a1.17,1.17,0,0,0-.08-.54.29.29,0,0,0-.29-.16.39.39,0,0,0-.31.13.46.46,0,0,0-.13.37v2.28Z"/><path class="cls-23" d="M38.54,204.49a1.4,1.4,0,0,1-.6-.12,1.23,1.23,0,0,1-.46-.32,1.61,1.61,0,0,1-.29-.51,2.29,2.29,0,0,1,0-1.34,1.58,1.58,0,0,1,.29-.51,1.45,1.45,0,0,1,.45-.33,1.54,1.54,0,0,1,.58-.11,1.48,1.48,0,0,1,.57.11,1.24,1.24,0,0,1,.43.32,1.47,1.47,0,0,1,.28.47,2,2,0,0,1,.09.61V203H37.59v.14a1,1,0,0,0,.07.38.8.8,0,0,0,.19.3.77.77,0,0,0,.3.19,1,1,0,0,0,.39.07,1,1,0,0,0,.54-.14,1,1,0,0,0,.35-.4l.35.24a1.14,1.14,0,0,1-.46.52A1.46,1.46,0,0,1,38.54,204.49Zm0-2.85a1.11,1.11,0,0,0-.37.07,1,1,0,0,0-.29.2,1.17,1.17,0,0,0-.19.3.9.9,0,0,0-.07.37v0h1.78v-.07a.87.87,0,0,0-.07-.37.92.92,0,0,0-.17-.29.66.66,0,0,0-.27-.19A1,1,0,0,0,38.51,201.64Z"/><path class="cls-23" d="M40.75,204h.9v-2.27h-.9v-.41h1.38v.78h0a1,1,0,0,1,1.05-.78h.43v.48h-.58a.93.93,0,0,0-.67.24.83.83,0,0,0-.26.63V204h1.2v.42H40.75Z"/><path class="cls-23" d="M47.25,204.77a.74.74,0,0,1-.39.69,2.39,2.39,0,0,1-1.17.23,2.22,2.22,0,0,1-1.08-.2.63.63,0,0,1-.32-.57.53.53,0,0,1,.13-.39.77.77,0,0,1,.37-.2v-.08a.42.42,0,0,1-.2-.17.39.39,0,0,1-.08-.25.44.44,0,0,1,.16-.36,1.13,1.13,0,0,1,.4-.18v0a1,1,0,0,1-.44-.37,1,1,0,0,1-.16-.57,1,1,0,0,1,.08-.44,1.16,1.16,0,0,1,.24-.34,1.28,1.28,0,0,1,.38-.21,1.35,1.35,0,0,1,.5-.08,1.48,1.48,0,0,1,.61.12v-.05a.56.56,0,0,1,.08-.3.33.33,0,0,1,.29-.11h.57v.41h-.7v.21a.86.86,0,0,1,.26.34,1.06,1.06,0,0,1,.09.45,1.22,1.22,0,0,1-.08.43,1,1,0,0,1-.25.34,1.07,1.07,0,0,1-.38.21,1.29,1.29,0,0,1-.49.08h-.15l-.15,0-.15,0-.14.07a.38.38,0,0,0-.11.11.21.21,0,0,0,0,.14.17.17,0,0,0,.14.18,1.15,1.15,0,0,0,.36,0h.68a1.36,1.36,0,0,1,.87.22A.74.74,0,0,1,47.25,204.77Zm-.45,0a.34.34,0,0,0-.15-.29.84.84,0,0,0-.52-.12H45.05a.45.45,0,0,0-.31.42.5.5,0,0,0,.16.36.85.85,0,0,0,.54.14h.47a1.36,1.36,0,0,0,.66-.13A.41.41,0,0,0,46.8,204.79ZM45.67,203a.71.71,0,0,0,.53-.17.6.6,0,0,0,.17-.44v-.18a.6.6,0,0,0-.17-.44.75.75,0,0,0-.53-.16.73.73,0,0,0-.53.16.6.6,0,0,0-.17.44v.18a.6.6,0,0,0,.17.44A.69.69,0,0,0,45.67,203Z"/><path class="cls-23" d="M49.34,204.49a1.4,1.4,0,0,1-.6-.12,1.23,1.23,0,0,1-.46-.32,1.61,1.61,0,0,1-.29-.51,2.29,2.29,0,0,1,0-1.34,1.58,1.58,0,0,1,.29-.51,1.45,1.45,0,0,1,.45-.33,1.54,1.54,0,0,1,.58-.11,1.48,1.48,0,0,1,.57.11,1.24,1.24,0,0,1,.43.32,1.47,1.47,0,0,1,.28.47,2,2,0,0,1,.09.61V203H48.39v.14a1,1,0,0,0,.07.38.8.8,0,0,0,.19.3.77.77,0,0,0,.3.19,1.12,1.12,0,0,0,.93-.07,1,1,0,0,0,.35-.4l.35.24a1.14,1.14,0,0,1-.46.52A1.46,1.46,0,0,1,49.34,204.49Zm0-2.85a1.11,1.11,0,0,0-.37.07,1,1,0,0,0-.29.2,1.17,1.17,0,0,0-.19.3.9.9,0,0,0-.07.37v0h1.78v-.07a.87.87,0,0,0-.07-.37.92.92,0,0,0-.17-.29.66.66,0,0,0-.27-.19A1,1,0,0,0,49.31,201.64Z"/><path class="cls-23" d="M54.86,201.32h.43l.35,2.68h.06l.53-2.68h.52l.53,2.68h.06l.35-2.68h.41l-.47,3.1H57l-.5-2.6h0l-.51,2.6h-.62Z"/><path class="cls-23" d="M58.87,200h.48v1.85h0a1.19,1.19,0,0,1,.12-.22.58.58,0,0,1,.17-.18,1.46,1.46,0,0,1,.25-.13,1.18,1.18,0,0,1,.34,0,1,1,0,0,1,.78.31,1.22,1.22,0,0,1,.29.87v2h-.48v-1.91a1,1,0,0,0-.18-.63.71.71,0,0,0-.55-.21.86.86,0,0,0-.28,0,.71.71,0,0,0-.25.11.58.58,0,0,0-.17.18.5.5,0,0,0-.07.27v2.15h-.48Z"/><path class="cls-23" d="M63.74,204.49a1.4,1.4,0,0,1-.6-.12,1.23,1.23,0,0,1-.46-.32,1.61,1.61,0,0,1-.29-.51,2.29,2.29,0,0,1,0-1.34,1.58,1.58,0,0,1,.29-.51,1.45,1.45,0,0,1,.45-.33,1.54,1.54,0,0,1,.58-.11,1.48,1.48,0,0,1,.57.11,1.24,1.24,0,0,1,.43.32,1.47,1.47,0,0,1,.28.47,2,2,0,0,1,.09.61V203H62.79v.14a1,1,0,0,0,.07.38.8.8,0,0,0,.19.3.77.77,0,0,0,.3.19,1.12,1.12,0,0,0,.93-.07,1,1,0,0,0,.35-.4l.35.24a1.14,1.14,0,0,1-.46.52A1.46,1.46,0,0,1,63.74,204.49Zm0-2.85a1.11,1.11,0,0,0-.37.07,1,1,0,0,0-.29.2,1.17,1.17,0,0,0-.19.3.9.9,0,0,0-.07.37v0h1.78v-.07a.87.87,0,0,0-.07-.37.92.92,0,0,0-.17-.29.66.66,0,0,0-.27-.19A1,1,0,0,0,63.71,201.64Z"/><path class="cls-23" d="M66.07,204.42v-3.1h.48v.5h0a1.19,1.19,0,0,1,.12-.22.58.58,0,0,1,.17-.18,1.46,1.46,0,0,1,.25-.13,1.18,1.18,0,0,1,.34,0,1,1,0,0,1,.78.31,1.22,1.22,0,0,1,.29.87v2h-.48v-1.91a1,1,0,0,0-.18-.63.71.71,0,0,0-.55-.21.86.86,0,0,0-.28,0,.71.71,0,0,0-.25.11.58.58,0,0,0-.17.18.5.5,0,0,0-.07.27v2.15Z"/><path class="cls-23" d="M74.48,204.49a1.37,1.37,0,0,1-.58-.12,1.16,1.16,0,0,1-.44-.32,1.41,1.41,0,0,1-.28-.51,2.29,2.29,0,0,1,0-1.34,1.27,1.27,0,0,1,.28-.51,1.31,1.31,0,0,1,.44-.33,1.61,1.61,0,0,1,1.17,0,1.31,1.31,0,0,1,.44.33,1.27,1.27,0,0,1,.28.51,2.29,2.29,0,0,1,0,1.34,1.41,1.41,0,0,1-.28.51,1.16,1.16,0,0,1-.44.32A1.38,1.38,0,0,1,74.48,204.49Zm0-.42a.88.88,0,0,0,.65-.24,1,1,0,0,0,.25-.74v-.44a1,1,0,0,0-.25-.75,1,1,0,0,0-1.29,0,1,1,0,0,0-.25.75v.44a1,1,0,0,0,.25.74A.88.88,0,0,0,74.48,204.07Z"/><path class="cls-23" d="M76.87,204.42v-3.1h.48v.5h0a1.19,1.19,0,0,1,.12-.22.58.58,0,0,1,.17-.18,1.46,1.46,0,0,1,.25-.13,1.18,1.18,0,0,1,.34,0,1,1,0,0,1,.78.31,1.22,1.22,0,0,1,.29.87v2h-.48v-1.91a1,1,0,0,0-.18-.63.71.71,0,0,0-.55-.21.86.86,0,0,0-.28,0,.71.71,0,0,0-.25.11.58.58,0,0,0-.17.18.5.5,0,0,0-.07.27v2.15Z"/><path class="cls-23" d="M81.74,204.49a1.4,1.4,0,0,1-.6-.12,1.23,1.23,0,0,1-.46-.32,1.61,1.61,0,0,1-.29-.51,2.29,2.29,0,0,1,0-1.34,1.58,1.58,0,0,1,.29-.51,1.45,1.45,0,0,1,.45-.33,1.56,1.56,0,0,1,1.15,0,1.24,1.24,0,0,1,.43.32,1.47,1.47,0,0,1,.28.47,2,2,0,0,1,.09.61V203H80.79v.14a1,1,0,0,0,.07.38.8.8,0,0,0,.19.3.77.77,0,0,0,.3.19,1.12,1.12,0,0,0,.93-.07,1,1,0,0,0,.35-.4l.35.24a1.14,1.14,0,0,1-.46.52A1.46,1.46,0,0,1,81.74,204.49Zm0-2.85a1.11,1.11,0,0,0-.37.07,1,1,0,0,0-.29.2,1.17,1.17,0,0,0-.19.3.9.9,0,0,0-.07.37v0h1.78v-.07a.87.87,0,0,0-.07-.37.92.92,0,0,0-.17-.29.66.66,0,0,0-.27-.19A1,1,0,0,0,81.71,201.64Z"/></g><g class="cls-22"><path class="cls-23" d="M12,212h.9v-2.27H12v-.41h1.38v.78h0a1,1,0,0,1,1.05-.78h.43v.48h-.58a.93.93,0,0,0-.67.24.83.83,0,0,0-.26.63V212h1.2v.42H12Z"/><path class="cls-23" d="M16.94,212.49a1.43,1.43,0,0,1-.6-.12,1.23,1.23,0,0,1-.46-.32,1.61,1.61,0,0,1-.29-.51,2.29,2.29,0,0,1,0-1.34,1.58,1.58,0,0,1,.29-.51,1.45,1.45,0,0,1,.45-.33,1.54,1.54,0,0,1,.58-.11,1.48,1.48,0,0,1,.57.11,1.24,1.24,0,0,1,.43.32,1.47,1.47,0,0,1,.28.47,2,2,0,0,1,.09.61V211H16v.14a1,1,0,0,0,.07.38.8.8,0,0,0,.19.3.77.77,0,0,0,.3.19,1,1,0,0,0,.39.07,1,1,0,0,0,.54-.14,1,1,0,0,0,.35-.4l.35.24a1.14,1.14,0,0,1-.46.52A1.46,1.46,0,0,1,16.94,212.49Zm0-2.85a1.16,1.16,0,0,0-.37.07,1,1,0,0,0-.29.2,1.17,1.17,0,0,0-.19.3.9.9,0,0,0-.07.37v0h1.78v-.07a.87.87,0,0,0-.07-.37.92.92,0,0,0-.17-.29.66.66,0,0,0-.27-.19A1,1,0,0,0,16.91,209.64Z"/><path class="cls-23" d="M20.59,212.49a1.38,1.38,0,0,1-.59-.12,1.22,1.22,0,0,1-.44-.33,1.4,1.4,0,0,1-.28-.51,2.29,2.29,0,0,1-.09-.66,2,2,0,0,1,.1-.67,1.38,1.38,0,0,1,.27-.51,1.31,1.31,0,0,1,.44-.33,1.55,1.55,0,0,1,.59-.11,1.19,1.19,0,0,1,.73.2,1.08,1.08,0,0,1,.41.51l-.38.21a.73.73,0,0,0-.28-.38.9.9,0,0,0-.48-.13.88.88,0,0,0-.66.26,1.11,1.11,0,0,0-.17.3,1.2,1.2,0,0,0-.05.38v.53a1.17,1.17,0,0,0,.05.38,1.11,1.11,0,0,0,.17.3.77.77,0,0,0,.28.19,1,1,0,0,0,.39.07.86.86,0,0,0,.52-.14,1.07,1.07,0,0,0,.32-.4l.34.24a1.17,1.17,0,0,1-.43.51A1.25,1.25,0,0,1,20.59,212.49Z"/><path class="cls-23" d="M24.08,212.49a1.37,1.37,0,0,1-.58-.12,1.16,1.16,0,0,1-.44-.32,1.41,1.41,0,0,1-.28-.51,2.29,2.29,0,0,1,0-1.34,1.27,1.27,0,0,1,.28-.51,1.31,1.31,0,0,1,.44-.33,1.61,1.61,0,0,1,1.17,0,1.31,1.31,0,0,1,.44.33,1.27,1.27,0,0,1,.28.51,2.29,2.29,0,0,1,0,1.34,1.41,1.41,0,0,1-.28.51,1.16,1.16,0,0,1-.44.32A1.38,1.38,0,0,1,24.08,212.49Zm0-.42a.88.88,0,0,0,.65-.24,1,1,0,0,0,.25-.74v-.44a1,1,0,0,0-.25-.75,1,1,0,0,0-1.29,0,1,1,0,0,0-.25.75v.44a1,1,0,0,0,.25.74A.88.88,0,0,0,24.08,212.07Z"/><path class="cls-23" d="M26.35,212h.9v-2.27h-.9v-.41h1.38v.78h0a1,1,0,0,1,1-.78h.43v.48h-.58A.93.93,0,0,0,28,210a.83.83,0,0,0-.26.63V212h1.2v.42H26.35Z"/><path class="cls-23" d="M32,211.91h0a1,1,0,0,1-.95.58,1.06,1.06,0,0,1-.89-.43,1.89,1.89,0,0,1-.33-1.19,1.94,1.94,0,0,1,.33-1.2,1.05,1.05,0,0,1,.89-.42,1,1,0,0,1,.95.57h0V208h.48v4.45H32Zm-.79.15a1.06,1.06,0,0,0,.31,0,.83.83,0,0,0,.25-.12.65.65,0,0,0,.17-.2.61.61,0,0,0,.06-.28v-1.11A.57.57,0,0,0,32,210a.55.55,0,0,0-.17-.2.66.66,0,0,0-.25-.13,1.55,1.55,0,0,0-.31,0,.84.84,0,0,0-.65.26,1,1,0,0,0-.23.67v.53a1,1,0,0,0,.23.68A.84.84,0,0,0,31.24,212.06Z"/><path class="cls-23" d="M37.32,212h1.12v-2.27H37.32v-.41h1.6V212h1v.42H37.32Zm1.36-3.37a.42.42,0,0,1-.3-.08.33.33,0,0,1-.08-.22v-.1a.35.35,0,0,1,.08-.22.47.47,0,0,1,.3-.08A.42.42,0,0,1,39,208a.31.31,0,0,1,.09.22v.1a.29.29,0,0,1-.09.22A.37.37,0,0,1,38.68,208.63Z"/><path class="cls-23" d="M42.12,212.49a2,2,0,0,1-.84-.17,1.72,1.72,0,0,1-.59-.44l.32-.28a1.67,1.67,0,0,0,.49.36,1.51,1.51,0,0,0,.63.12,1.26,1.26,0,0,0,.59-.12.43.43,0,0,0,.24-.41.39.39,0,0,0-.05-.2.37.37,0,0,0-.12-.13.48.48,0,0,0-.18-.07l-.2-.05-.49-.07-.35-.07a1,1,0,0,1-.34-.13.78.78,0,0,1-.26-.25.73.73,0,0,1-.11-.41.82.82,0,0,1,.09-.4.83.83,0,0,1,.27-.29,1.17,1.17,0,0,1,.39-.18,2.57,2.57,0,0,1,.5-.05,1.83,1.83,0,0,1,.73.13,1.64,1.64,0,0,1,.53.37l-.31.29a1.84,1.84,0,0,0-.14-.14l-.2-.12a1.18,1.18,0,0,0-.27-.1,1.86,1.86,0,0,0-.36,0,1,1,0,0,0-.56.13.4.4,0,0,0-.2.36.39.39,0,0,0,.05.2.3.3,0,0,0,.12.13,1,1,0,0,0,.18.08l.2,0,.49.07.35.07a1.15,1.15,0,0,1,.34.13.89.89,0,0,1,.26.25.73.73,0,0,1,.11.41.83.83,0,0,1-.36.72A1.67,1.67,0,0,1,42.12,212.49Z"/><path class="cls-23" d="M50,211.91h0a.94.94,0,0,1-.12.22.73.73,0,0,1-.17.18.75.75,0,0,1-.25.13,1.16,1.16,0,0,1-.34.05,1.06,1.06,0,0,1-.78-.31,1.22,1.22,0,0,1-.29-.88v-2h.48v1.9a.93.93,0,0,0,.18.63.71.71,0,0,0,.55.21,1.33,1.33,0,0,0,.28,0l.25-.11a.52.52,0,0,0,.17-.19.53.53,0,0,0,.07-.26v-2.15h.48v3.1H50Z"/><path class="cls-23" d="M51.65,209.32h.48v.5h0a1,1,0,0,1,1-.57,1.05,1.05,0,0,1,.89.42,1.94,1.94,0,0,1,.33,1.2,1.89,1.89,0,0,1-.33,1.19,1.06,1.06,0,0,1-.89.43,1,1,0,0,1-1-.58h0v1.71h-.48Zm1.28,2.74a.84.84,0,0,0,.65-.25,1,1,0,0,0,.23-.68v-.53a1,1,0,0,0-.23-.67.84.84,0,0,0-.65-.26,1.55,1.55,0,0,0-.31,0,.66.66,0,0,0-.25.13.55.55,0,0,0-.17.2.57.57,0,0,0-.07.27v1.11a.61.61,0,0,0,.07.28.65.65,0,0,0,.17.2.83.83,0,0,0,.25.12A1.06,1.06,0,0,0,52.93,212.06Z"/><path class="cls-23" d="M55.16,212h1.08v-3.61H55.16V208h1.56v4H57.8v.42H55.16Z"/><path class="cls-23" d="M60.08,212.49a1.37,1.37,0,0,1-.58-.12,1.16,1.16,0,0,1-.44-.32,1.41,1.41,0,0,1-.28-.51,2.29,2.29,0,0,1,0-1.34,1.27,1.27,0,0,1,.28-.51,1.31,1.31,0,0,1,.44-.33,1.61,1.61,0,0,1,1.17,0,1.31,1.31,0,0,1,.44.33,1.27,1.27,0,0,1,.28.51,2.29,2.29,0,0,1,0,1.34,1.41,1.41,0,0,1-.28.51,1.16,1.16,0,0,1-.44.32A1.38,1.38,0,0,1,60.08,212.49Zm0-.42a.88.88,0,0,0,.65-.24,1,1,0,0,0,.25-.74v-.44a1,1,0,0,0-.25-.75,1,1,0,0,0-1.29,0,1,1,0,0,0-.25.75v.44a1,1,0,0,0,.25.74A.88.88,0,0,0,60.08,212.07Z"/><path class="cls-23" d="M64.85,212.42a.49.49,0,0,1-.4-.15.73.73,0,0,1-.15-.36h0a.85.85,0,0,1-.32.42,1,1,0,0,1-.61.16,1.17,1.17,0,0,1-.77-.25.89.89,0,0,1-.29-.7.79.79,0,0,1,.32-.66,1.67,1.67,0,0,1,1-.23h.66v-.31a.63.63,0,0,0-.19-.51.82.82,0,0,0-.55-.17.83.83,0,0,0-.82.46l-.33-.24a1.67,1.67,0,0,1,.16-.24,1.37,1.37,0,0,1,.26-.2,1.16,1.16,0,0,1,.34-.14,1.42,1.42,0,0,1,.42-.05,1.29,1.29,0,0,1,.87.27,1,1,0,0,1,.32.77V212h.43v.42Zm-1.42-.34a1.27,1.27,0,0,0,.34,0,.89.89,0,0,0,.26-.12.52.52,0,0,0,.18-.18.46.46,0,0,0,.06-.23V211h-.66a1.25,1.25,0,0,0-.63.12.41.41,0,0,0-.2.35v.13A.4.4,0,0,0,63,212,.8.8,0,0,0,63.43,212.08Z"/><path class="cls-23" d="M68,211.91h0a1,1,0,0,1-1,.58,1.06,1.06,0,0,1-.89-.43,1.89,1.89,0,0,1-.33-1.19,1.94,1.94,0,0,1,.33-1.2,1.05,1.05,0,0,1,.89-.42,1,1,0,0,1,1,.57h0V208h.48v4.45H68Zm-.79.15a1.06,1.06,0,0,0,.31,0,1,1,0,0,0,.25-.12.65.65,0,0,0,.17-.2.61.61,0,0,0,.06-.28v-1.11A.57.57,0,0,0,68,210a.55.55,0,0,0-.17-.2.75.75,0,0,0-.25-.13,1.55,1.55,0,0,0-.31,0,.84.84,0,0,0-.65.26,1,1,0,0,0-.23.67v.53a1,1,0,0,0,.23.68A.84.84,0,0,0,67.24,212.06Z"/><path class="cls-23" d="M70.94,212.49a1.4,1.4,0,0,1-.6-.12,1.23,1.23,0,0,1-.46-.32,1.61,1.61,0,0,1-.29-.51,2.29,2.29,0,0,1,0-1.34,1.58,1.58,0,0,1,.29-.51,1.45,1.45,0,0,1,.45-.33,1.54,1.54,0,0,1,.58-.11,1.48,1.48,0,0,1,.57.11,1.24,1.24,0,0,1,.43.32,1.47,1.47,0,0,1,.28.47,2,2,0,0,1,.09.61V211H70v.14a1,1,0,0,0,.07.38.8.8,0,0,0,.19.3.77.77,0,0,0,.3.19,1.12,1.12,0,0,0,.93-.07,1,1,0,0,0,.35-.4l.35.24a1.14,1.14,0,0,1-.46.52A1.46,1.46,0,0,1,70.94,212.49Zm0-2.85a1.11,1.11,0,0,0-.37.07,1,1,0,0,0-.29.2,1.17,1.17,0,0,0-.19.3.9.9,0,0,0-.07.37v0h1.78v-.07a.87.87,0,0,0-.07-.37.92.92,0,0,0-.17-.29.66.66,0,0,0-.27-.19A1,1,0,0,0,70.91,209.64Z"/><path class="cls-23" d="M75.23,211.91h0a1,1,0,0,1-.95.58,1.06,1.06,0,0,1-.89-.43,1.89,1.89,0,0,1-.33-1.19,1.94,1.94,0,0,1,.33-1.2,1.05,1.05,0,0,1,.89-.42,1,1,0,0,1,.95.57h0V208h.48v4.45h-.48Zm-.79.15a1.06,1.06,0,0,0,.31,0,1,1,0,0,0,.25-.12.65.65,0,0,0,.17-.2.61.61,0,0,0,.06-.28v-1.11a.57.57,0,0,0-.06-.27.55.55,0,0,0-.17-.2.75.75,0,0,0-.25-.13,1.55,1.55,0,0,0-.31,0,.84.84,0,0,0-.65.26,1,1,0,0,0-.23.67v.53a1,1,0,0,0,.23.68A.84.84,0,0,0,74.44,212.06Z"/><path class="cls-23" d="M78.08,212.47a.51.51,0,0,1-.34-.1.35.35,0,0,1-.1-.26V212a.35.35,0,0,1,.1-.26.46.46,0,0,1,.34-.1.47.47,0,0,1,.35.1.35.35,0,0,1,.1.26v.11a.35.35,0,0,1-.1.26A.52.52,0,0,1,78.08,212.47Z"/></g></g></g></svg>