<svg id="Layer_1" data-name="Layer 1" xmlns="http://www.w3.org/2000/svg" xmlns:xlink="http://www.w3.org/1999/xlink" viewBox="0 0 252 274"><defs><style>.cls-1{fill:none;}.cls-2{fill:#6c613c;}.cls-3{fill:#768b49;}.cls-4{fill:#b7c49d;}.cls-5{clip-path:url(#clip-path);}.cls-6{fill:#0c0d0d;}.cls-7{fill:#78543c;}.cls-8{fill:#4f3a25;}.cls-9{clip-path:url(#clip-path-2);}.cls-10{fill:#0f0f0f;}.cls-11{clip-path:url(#clip-path-3);}.cls-12{clip-path:url(#clip-path-4);}.cls-13{clip-path:url(#clip-path-5);}.cls-14{clip-path:url(#clip-path-6);}.cls-15{clip-path:url(#clip-path-7);}.cls-16{clip-path:url(#clip-path-8);}.cls-17{clip-path:url(#clip-path-9);}.cls-18{clip-path:url(#clip-path-10);}.cls-19{fill:#b5becb;}.cls-20{clip-path:url(#clip-path-12);}.cls-21{fill:#050605;}.cls-22{fill:#7d5742;}.cls-23{isolation:isolate;}.cls-24{fill:#f8f8f8;}</style><clipPath id="clip-path"><rect class="cls-1" x="17.81" y="24.22" width="233.87" height="250.24"/></clipPath><clipPath id="clip-path-2"><rect class="cls-1" x="170.78" y="150.8" width="21.72" height="19.32"/></clipPath><clipPath id="clip-path-3"><rect class="cls-1" x="162.89" y="113.33" width="24.26" height="15.29"/></clipPath><clipPath id="clip-path-4"><rect class="cls-1" x="118.4" y="91.98" width="25.3" height="15.94"/></clipPath><clipPath id="clip-path-5"><rect class="cls-1" x="144.71" y="82.4" width="25.3" height="15.94"/></clipPath><clipPath id="clip-path-6"><rect class="cls-1" x="152.17" y="140.59" width="25.3" height="15.94"/></clipPath><clipPath id="clip-path-7"><rect class="cls-1" x="74.06" y="126.51" width="24.53" height="16.95"/></clipPath><clipPath id="clip-path-8"><rect class="cls-1" x="101.56" y="82.05" width="21.71" height="19.53"/></clipPath><clipPath id="clip-path-9"><rect class="cls-1" x="82.07" y="113.6" width="26.37" height="15.68"/></clipPath><clipPath id="clip-path-10"><rect class="cls-1" x="136.9" y="155.12" width="16.84" height="23.01" transform="translate(-51.53 267.29) rotate(-75.99)"/></clipPath><clipPath id="clip-path-12"><rect class="cls-1" x="8.46" y="182.75" width="90.32" height="81.4"/></clipPath></defs><path id="Path_1571" data-name="Path 1571" class="cls-2" d="M134.15,157.87,138,164l-.06,1.62-1.22-1-1.64-.54.25,2.65-1.39,1.46-.8,3.08-.7,3.09h-2.15l-1.4-1.73-.53-2.06-2-1.63,1.5-1.15.26-2.19-2.83-2.44,1.68-1.18h2l-1.39-3.52-2.07.47-.14-1.65,2-1.41,1.84-.47.53,2.19,1.42.79,2.31-.23Z"/><path id="Path_1572" data-name="Path 1572" class="cls-3" d="M157.08,106.58Zm33.62,37.91-.1-2.11.57-1.22,2.25.75.1,2.44.78-1,2.44-1.21.52,1.42-1.19,1.09-.78,1.43,1.64.4.52,1.63-1.38-.06-.64,1.08,1.09.88.57,2.38,2.27.15,0-3,1.93-.06-.3,1.08,2.44,1.49-1.87,4.41-2.28.82,3.2,1.15,2.1,2-2.37,1.9-1.85-.13-.88-.48-.32-1.49-1.17.07-2.3,1.9-1.63-.89.37-1.49.85-1.63.93-2.1-.79-1.9-2.15.75-1.41-1.56.58-1.43-.87-1.42.45-1.9-1.72-.06-1.18.95-.8,2.32-1.6,1-2.2.27-1.35-1.36-1.74-2.51,2.9-.55,2.55-.41.85-1.15-1.18.14-2.4.2-2.53-1.08,5.38-1.16.1-1.77.1-1.43L189,143l.38,1.56Zm11.87-19.93,2.14-2.76,2.49,1.81-.73,1.46-.72,1.38.4,1.72,2.87-.26.63,3.27-.9,1.81-1.92.25-.5-1.28-.48-1.47-2,.43.92,2.07-1.32.78-2.08-.35-.75-1.29L198.88,131l-1.67,1,1.51,2.68.05,1.88-2,.44-2.68-.44.89-1.37-1.53-2-3.55-.85.83-2.59,2.08.43.21-1.9,2.32,1.38,2.26-.17-.91-2.41,1.24-1.46,2,.85,2.69.26ZM85.68,122.3l.1-2.66,2.83-.22L91,121.54l-.7,1.06,2.66,2.05-1,3.25-2.74-1.36-1.67-.76-.32,2,2.57,2.42,1.38.76-1.09,1.81-1.37-.45L85.92,130l-.86,1.89-.1,2-.32,1.22-3.59.08-2.67-.61.17-1.9,2.3-.45,1.68-.22-1.43-2.28-1,1.14-.61-.81-.26-.83,1-.52.87-.07L82,127l-.75-.93.2-1.09L82.6,124l2.07.3Zm6.7-37.11-1.29-1.6,5,2L95.44,87l-2.09.61-.47,1.22,1.85.61,1.06.92.83,1.6-.16,1.45-1.08.46-1.87,1.6-1,1.07L91,97.64l-1.38-.84-2-1.38L86.9,97l-1.62.54-2.07-1.38-1.07-1.37-1.08.84-.85,1.22h-1.3l-3.3-1.3,1.78-2,2.25-1.91,1.76.3,1.38,1.15,2.6,1.76,1.16-.77L86.87,92l-2.38-1.37-2.38-.38-1.69-.76.87-3,2.63-1.69,1.52,1.91,1.71-2,1.62-.53L89,86.65ZM161,70.43l.38-2.4.5-1.78,3.3.62L167.34,68l1.76,2-1.34,2.06-2.87-1.3-1-.82-.59,2.6-1.74,1.51-1.65-.34-2.12-1.23-1.58.27-1.39.48-.37-2.4,2.51-2,2.25,1.3.81,1.1Zm-62.9,3.72-.2-1.35,1.63-1.68,2.89-.59.61-1.18-.35-2.5,1.2-1,2.45-.7.52,1.89,2,.65,3.26.49.14,1.78.24,2.22-1.26,1.4-1.67-.76-2.92-1.94L106.13,72l1.45,1.73-.79,2.8L103.6,76l0-1.18-2.34.49L100,76Zm40.32-18.38,2.14-.28,0-2,1.11-.69,4.25,1.85-.79,2,1.72.42,1.21,1.36.1,2.54-2.56,1.58L144.8,60l-1.46,1.7-2.18-1.1.43-1.91,1.47-1.17-3.86.28ZM127.3,24.22l-3,2.5-1.6,2.64-2.72.82-2.14.51-1.66,1.69.92,2.63,3.39.19,2.81.82-.9,1.88-2.88-.07-2,1.88,7.15.94,1.8,1.57-4.47.82-1.51.12-2.53,2.07.85,1.94,2.68,1.09.79,2.63-1.78,1.93-6.08-.88-1.7.26-2.74-2.07-.34-2.94-1-2.07,2.82.63,1.37,1.57,1.65-2.4-2.65-4.25-1.39.87-.89.88-2.12-1.5-.81-2.08-1-2.43-1.22,3-.15,2.5-2.56-1.13-3-1.19L97,40.92l1.43,2-1.2,1.37-1.7,1.26,3.88.87,1.29,3.32-3,2-1,.94,0,2.12-1.15,2.13,1.88.25,3.63.71.6,2.5-2.47,2.56-2.6,2-2,2-4.47.88-3.49-1.25.07-1.87,2.7-.19,2.78-1.19.71-2.68-2.3-2.19-2.26-1.13L87.87,55l-4.25-1.12-1.84,2.26-5.08-.5.08-2.26-1.5-1.82,1-1.13,2.37,1.26,2.38.5L81.76,50,80.71,48l-3.26-.69L75,47l-.68-.94-2.52.25-.08,2.81L70,52.45l-2.31.5-1.71.26-.44-2.07-.92-2.7-1.51.5-.33,2.57-2,1.13-1.62-1.38L58,49.07l-1.13.81-2-.19L53.94,51l.36,2.31-.53,3.2-4.47,1L48,59.52l5.33.57,1.3,2.75-2.19,1,.24,1.93,2.49,2.06,2.33-1.06-.24-3.25,2.56.63,1.06,1.13.06,1.43-.7,1.43,2.2-1.06.74,1.82-1.7.62L59.86,71l1.69,1,2.33-.75,1.2-1.55,2.16,4-3.08,2-.68.94-2.13.68,1.84,4.48,1.56.68L68,81.12l3.18,1.12,1.24,1.93,1.83-1.49,2.84-3.43-2.55-1.86,2.78-2.24L79,76.77l1.42,2.74L79.6,82l-1.08,3.7-4.44-.19-.47,2.87-2.82.06-1.93-1.13-4,2.18-3.76.87-.58,3,2.4,5.28-3.88.5-3.21,3.4-4-1.67-1.5-1.11-1.39,2.6-2.17-3.6L49,97.37l2.68,1L54,97.74l2.57-2.17-2.65-4.91-2.5-.06.07-2.3-1.18-.18-1.26,1.62-2.48-3.85-.49-1.25-4.89.62L42,88.5l-4.12-.63-1.76-2.48-4.07.93L32,88.25l1.36,3.49-1.27,2.8L28.39,92.8l-1-.13L28.44,96l.06,1.68-2.07.92,1.69,1.68,4,1.43,2.17,3.3-2.44.37,2.8,2.17-.82,2.48-4.3-.56-1,2.35L30.06,114l1.87.56,1.11,2.1,2.38-.87L37.68,113l2.68.43,2.62,2,2.87-1.18,3.08-4.51,3.16,4.51-1.45,3-1.92-1L45.89,119l4.55,2,.93,1.61-.7,1.92-6-2.67.55,2.37,1.49,2.41,1.8,1.23-1.57,1.86-3.3.55L42,132.52l-3.12-.8-1.23-2,1.87.06.14-4-.42-3-5-.61-1.19,2-.58,4.15-1.14,4-2.62,2.08-2.62-.24-2-1.45-3.86.24L22,138.59l5.42,1L29.65,142l-1.7,2L25.4,144l1.05,2.71,6.05-1.66.79,3.63,1.69.56,3-3.39-1-4.67,0-2.9,3-.68,3.54,5.61-1.15,3.57-2.06,2-3.13,3.45,2.18,3.11-1.63.85-2,.55,3,2.1L42,160.5l.67-.07,3.93-.47.59-4.92L44,152.16l1.63-2.33,7,2.07,1.08-4.06.58-4.13-2-3.19,2.68.61,1,4.56,2.41,3,1.59-5.35L62,142.06l3.59,3.51.61,2.76-9.92,3.88-1.7,3.38,2.22,2.76-3.8.92-.63,1.31,1.17,2,1.72,4,.8,1.23,1.85,1.35,1.7-2.33.9-4.54,1.37-1.9,2.84,2.95.86,2.45,2.1.86.59,4.79-3,.73h0l-4.47-.24L59.67,173l-.89,3.86,2.09,2.32,1.1,2.5,3.9,1.59L67,181.94l-1.7-2.07.32-1.78,2.31-1.29,1.71,1.59.29,2,2.5.79.32-2.07-.59-2.28,2.52-.4,2.18,3.07,2.41-.4.42-1.49L79,175.52l-.79-1.78.32-2.38,2-1.19,1.2,1.88,2.82-1.18,0-1.7,0-1.68-2.22-.69-2.1-1-2.1-1-.18-3.08,3.34-1.69h1.9l.56-1.15.56-1.16-3-1.68-.89-2.39.42-2.29h1.81l2.12-.69.82-1.89.88-.3.87-.3.58-.2.88,2.28,1.5,1.1-2.34,1.78-1.23,2.19,1.7,1.69,2.93-.6.33-2.88,1.61-.2.49,1.39.24-.81.24-.82,1.2-.93,2-.15.12-1.51-.69-.84-2.64.34-3.32-3.91.34-2.2-1.35-1.57,1.21-1.74,2.23.16.26-2.21,1.26,1.19.94,1.41,1,.48-.82,2.6.86,2.67,2.72-1.18.73-1.81,1.12-.78,1.43.15-.36-3.15.1-1.57,1.2-.48,1.29-2.88,1.85-.74,1.49,2.05-1.52,1.26.87,1,3.58-.16,2.46.47.92,2.91-.35,2.28L113,147l-1.75-.16-.61-2.51-4,1,1.89,2.6,1.7,4,.13,2.51,2.21,2.12,2,.24.29,1.65-1.12.94-1.76,1.41.21,2.51,1.1,1.1,1.44-.4,1.43-.39,2.1-2.74.71.15.72.16,1,1.25,1,1.26,1.87,3.9.09.19,2,1.72.67-.5,1.5-1.14.25-2.2-2.82-2.43,1.68-1.18h2l-1.39-3.52-2.07.47-.14-1.65,2-1.41,1.84-.47.52,2.19,1.43.79,2.31-.23.71-.37,1-.49-.69-1.49-1.9-1.41.5-1.1,1.36.79,1.77-.12.63,0,.47-1.38.37-2-1.49-1.71-1.57.13-1.56.14-.54-1.93-.15-1.45-.49.56-2.52,3-2.64.66L126,147.8l2.53-.83-.37-1.88-2.73-1.39L126.7,142l3-1.27-1-2.55,2.35-.49,1.21-2.71-.26-1.55,1.13-.31,1.12-.3,1.29.17,1.29.16,2-.44,1,2,.13,2.17.05,1L140,139l1.49,1.22-.46.89.5.63.49.64,1.62-.11,1.63-.11.66-2.26-.15-1.5L148,139.6l.4,2.38.37,1.83-.47,1.66-1.24.55-1.47,1,.42.37,1.13,1H149l.15,1.1.27,1.1.94.5,1.45.33,1.42-1.55.19-1.32-1.5-1.21.59-1.61,2.19-.61.92,1.66,1.18.16,1.17.17,1.41-.89-.19-2.15.84-.17,1.34.12,1-1.17-.92-2.27-2.51-.33-1,.94-1.46.67-1-2.89.37-1.71,1.13-.67,1.55.56h1.74l1.15-2.11-.25-2.21,1-.34,1.16,2.27,1.41-.61,1.78,1,1,1.6.15.93.26,1.56-1.12,3.05-1.4.88-1.51.4-.57.88-.31.66.54,1.6,1.56.39.21,1,1.66.72,1.9-.5,2.44-5.63,2.16,1.21.65,1.71.24,2.16-.09,2.37-1.63.55-.74.23.33,1.45,1.44,1.1,1.43,1.11L175,155.8l-1.3,1-.3,1.16,1.53,1.66.26,1.42-.58,1.5-1.52.49-1-1.88-1.7,1.1,1.4,2.75v0l.48,1.71-2.41.66-3.68-.06,0,2.15,1.92,2.36.87,1h0l1.64-.27.66-3,1.58-.61,1,2-2.25,1-1.25,1.54-.3,1.6.28.23,2.25,1.83.68.08,2.61.31,1.59-1.32-.43-1.38h2.73l2.06.5,1.13-1.14.29-.3-1.67-3.13-1.1-.88,2.38-2.31,3.81-.61,1.33.66.81-1.65.75-1,.22-.31,1.56.33,1.58,1.71.08,2.31L192,170.33l2.16,1.21-1.38,1.76-2.17.23-.95.1,1.84,2.59.71,1,1.38,1,.52,2.15,2.69-.22,1.12-.72.27-2.25-2-1.54,3.09-1,1.42,1.38.8,2,.24,2.08,0,1.49,1.68.66,1.22.23,2.3-.44.88-2.31.35-1.05,1.17.22,2,1.92,2-.05,1.54-1.1.93-2.15-1.91-1.7-.48,1.32-3.38-.48-.59-1.15.74-1.05,1.46-.43.49-1.93-.25-1.82-2.11-.38-2.55-1.65-.08-1.77,2.38-3.25,2.76.26.58,2.47.42,1.5,2.13.44,1.13,1.14-.31,1.85,3.57.17-.41,2.55L219,175l.51,1.06.51,1,2.87-.61.56,3,.33,1.32,2.56,1,1.43-.27,1.75-2.54-1.68-.62L232,178l2.25-1-1.19-2.9-1.93-1.4,3.22-.27,2.38,1.32,1.24.35,1.8-.79-.09-3.87-1.13-.88-2.44,1.06-2-.09.21-1.5,1.37-1.23.68-2.46-3.27-1.77-1.65,2-1.18,1.33L227.56,164l1.75-2.64-.93-2.38-3.65-.88L223.09,160H221.3l-.94-1.86,0-2.11-1.3-1.86-.84-.22-.86-.22-2.78.61-1.58-.79-.77-1.76-.13-2.48-2.83-1.85.14-2.12,1.44-.62,3.18,2.29,2.83-2.46,1.62-.53,2.88,3.53-.94,1.86.58,2.38,2.75,1,.14,2.12,2.34-1.24-1.16-4.23.68-2.56,2.49.79,1.3,1.85-.15,2.83,2.77-1,.39-1.33,1.38,2.21,1.22,1.24,1.33-3.54-1.92-2.3-1.23-.79,2.44-1.24,3.14-.65.41-2.39-.2-2.65-.84-2.57-1.24-.53-1.5,3-1.49-1.6-2.58-.61-.25,3.45-1.62.7-.86-2.3.58-1.76-.75-2.39-2-1.51-1.54,1-1.13,2.39H221.5l-1.29-2.48-.38-3.19-3.2-1.24.24-1.77.54-2.17L216,124.35l.41-3.23,3.05-.13,3.39-3.37,1.53,1.47-.74,1.75,4.88.21,1.5-.34-.36,3.22.87,2.45,2.29,2.32,2.43,1.81.57-3.71,1.45-1.12.39-1.83-2.17-1.46.53-1.34,1.36-.42,1.26.28.74-1.4-1.67-1.33-1.28-4.08-2.15-.71L231,114.65l-3.67-.22-1.71-2.81-.66-2.39,2.79-1,.66,2.1,1.69.64,3.06-.56.61-2-2.19-1,2.42-.3,2.36-1,.32-1.79-.86-2.67.55-2.68-2.53-1.06-1,1.48-2.19.07,0-1.62-3.13.42-1,1.83-1.12,2.82-3-.57-2.07-2.81-1.82,2-.46,1.75L215.21,102l-2.26-.77-1.46,2.9-.55,2.25-.68,2.11-1.48-.07-1.88-2L205.2,103l-2.08,1.19-.37-3,2.56-.91.62-2.53-.46-1.77,3.58-1.76,3.17,1.63,2.22-.92.95-2,1.06.57,1.63.42,1.23-1.63,1.35-.21.9,1.2,2.7.49L224,91.14l-2.32-1.27,1.11-2,2.13.07-.3-2.82-2.73-1.84-1.65.42-2.78.5-3-.91,1.82-2.13,1.35-.07,1.06.36,1.44-1.13.39-2-1.24-2.26-.4-1.34.45-1.13H216l-.8-2.47,0-1.2-1.52-2.26-2.44,1.06-1.61,2.82-.41,3-1.67,1.7-3-1,1.45,2,2.79,2.55.37,2.68-1.5,1.41-4,.49-.19-1.56,1-.84L204,79l-2.1-2.26-3.18-.63L198,77l1.33,5-.82,2-2.66,1.62-1-2.14-4.12-1.45,1.51,3,.6,3.84-2.33,2-1.84-.55-.51-2.84-3.95-2.18L181.59,87,180,88.77,178,88.32l3.11,6.83-3.53.21-2.34.28,2.33,4.21.4,3.25,3.2.45.14-3.19,2,.62-.45,2.8.26,2.52,3.56.61,4.51-2.3-.81-4.43,2.24-.71,2.23.45-.17,4.25,2,2,1.15-5,3.16,3.28.35,5.31-1.3,2.37-1.76-1.5-1.56-2.4-3.26,2.4,3,4.25-2.5.71-2.48-.89-1.8.75,0,2.23,2,1,2.47-.35.26,2.88-1.77,2.25-1.88-1.47-.9,3.42-1.85.41-3.06-2,1.74-2.36.74-1.95-2-2.73-1.74-1.4-1.3-2,.25-2.3-1.85-3.63L179.1,107l-.9,3.22,1.29,2.86-1.93,1.46h-5l-3.16-.76-.39,2.37,2.09,1.19-.24,2.3-1,2.44-3.72-.56-.59,2-1.74-1.6.52-1.74,1.58-1.68-1.79-3.14-2.27-.69-2.59-.91-1.88-1.32L160,109l-2.92-2.38-2,3.08-1.58,1.74-4.08-.13-2.9.21,2.86-1.75.5-.91-2.43-2.67-3.07,2.25.18-2.45,2.27-1.19-.47-1.54-1.25-1,2.35-1.75,1.48-.14,1.95,2.1,1.71-.85,1,1.82-.18,2.31,3.64.91,1.91-.43.66-1.6-1.92-2.73,1-2.59,2.33-.35,1.42,3.85,4.23.36.94-1.55-.82-1.68L172,99.7l2.62-.56-4.36-5.68-.75-2.24,4.18-.42,1.61.77,1.9-.73-.14-.91.13-1.34-.46-1-.47-.24.58-1.35,1.45-3.58,1.27.55.75,1.42,1.67-.24.93-1.39-.48-2.07-1-2-.26-1.22-.76.07-.3-.76,1.84-.24.78-.37V75L182,73.86l-.62-.52,1.72-.69.59.38.88-.9.78,1.46-.48,1.35.89,1,2.2-.35,1.47.08,0,1.24,1.59.79,1.89-.65.66-1.84-.7-1.19-1.45-.41-.07-2.47,1.42-1.6,2.11,1.29.68,2.58,2.75-.83.76-2,2.44,1,1-1.44-.2-1.35-.68-1.89,1-2.9.9-.56.41-1.28-4.1-1.83L199.34,62,198,63l-1-1.06-1.89-.44-1.75.72-2.18.83-2.39-.5-.75-1.39,1.8-1.22,1.5.5,1.84.33,1.41-1.1.15-2,1.58-.84L196.24,55l-2.31-1.39-1.71-1.34.41-1,.76-2.12-2.29-.22-2,1-.15,2-1.66-.44-1-1.39L185,49.44l-2,.89.51,2.62h-2.85l-1.1,1.95,2.44,1.28.47,1.72L180,61.35l-2.4.44-.84-3.44-2.63.55.53,1.5L173,61.57l-.93-1.11.22-3.11-1.84-.12-1.69.67-2.46.16-.07-2.33,2.95.61,1-1.22-1.76-1.72-2.16-1.23-1.46-3.07,1.3-.83,1.34.22,1.32,1.39L171,51.17l4.31-.89-2.84-4.18-1.13-2.62,1.8-1.22,2.12.39-.37-2.37-2.07-3.34-1.61-.4-.7,1.34-1.37,1.51-1,3.12-1.18.17-1.26-1.28-1-.56-1.53.67-.75-1.68,2.13-.84,1.79-2.45,2.76-.84-.48-2.06-1.76-1-2.76,1.11L162.91,33l-1.33-2.2.19-1.39-2.91.22-.43,2.9.58,2.13L154.39,37l-1.75.94,2,2.35,2,1.06-1.11,3-2.77-.37-1.56-1-.61-.79-.57,1,0,2.16-1.66.5-.82-.12L149,47.54l2,.7-2.43,2.55-2.34,1.6-1.83-1.57.35-1.84-1.24-1.22-1.51-1.3-2.18.47-.72.7-.24-2.27.26-2.07-2.19-.12-1.59.43-1.06-2.86,3.65,0,1.13,1,1.72-2.11.49-1.22L143,39.8l1.2.55,1.56-1.06-.27-3.82-.13-1.84-2.52,0-1.46-.08L140.54,32l0-2.78L139.14,27l-1.33-.19-.42-1.17-.34-.84-2.56-.15-1.27.39,1.2,2,1,1.62-2.7,1.92L131,30.16l-.44-2.64-1.76-.43-.5-.82-.1-1.77Z"/><path id="Path_1573" data-name="Path 1573" class="cls-4" d="M215.74,182.73l-.6,2.83h-3l-.58-2-3.25-.84-.73,1.53-.14,3.07-2.74.76-3.78-2.67-3-1.76-1.81,1.46L195,188.26l-2.46,2.45-2.07-1.15-1.61-1.3L186.24,187l-1.05-1.9-2.86-1.3.58-1.84-2.71-.84-3.49-.54-.19-.76,11.19-2.77,3.79-.82.71,1,1.38,1,.52,2.15,2.69-.22,1.12-.72.27-2.25-2-1.54,3.09-1,1.43,1.38.79,2,.24,2.08,0,1.47,1.68.66,1.21.22,2.3-.44.88-2.3.36-1,1.17.21,2,1.92,2,0Z"/><path id="Path_1574" data-name="Path 1574" class="cls-2" d="M201,104.42l.34,5.31-1.3,2.39-1.75-1.5-1.57-2.39-3.25,2.39,2.95,4.24-2.51.71-2.47-.88-1.8.75.05,2.23,2,1,2.47-.35.26,2.88-1.77,2.24-1.87-1.46-.91,3.42-1.84.42-3.06-2,1.73-2.36.74-1.95-2-2.73-1.74-1.4-1.3-2,.25-2.3-1.85-3.63-1.61-.49-.9,3.22,1.3,2.86-1.93,1.46h-5l-3.17-.76-.39,2.37,2.09,1.19-.24,2.3-1,2.44-3.73-.56-.59,2-1.74-1.6.52-1.74,1.58-1.68-1.79-3.14-2.27-.69-2.59-.91-1.87-1.32L160,109l-2.92-2.39,1.91-.42.66-1.6-1.93-2.73.95-2.6,2.34-.34,1.42,3.85,4.23.35.94-1.54-.82-1.69,5.23-.16,2.62-.56-4.36-5.67-.74-2.25,4.17-.42,1.62.77,1.9-.73-.14-.91.13-1.34.75-.27,3.12,6.83-3.54.21-2.34.28,2.34,4.21.39,3.25,3.21.45.14-3.19,1.95.62-.44,2.8.26,2.52,3.56.62,4.51-2.3-.81-4.44,2.25-.71,2.22.45-.16,4.26,2,2,1.16-5Z"/><path id="Path_1575" data-name="Path 1575" class="cls-4" d="M114.52,156.8l.3,1.65-1.12.94-1.76,1.41.21,2.51,1.1,1.1-.3,1.78-1.87,1.91-2.54-.08-2.17-3,1-2.09-.24-1.56-4.2-2.52-1.5,1-.45,1.22V162l-3.65-4.74.08-5.24.11-1.52-.69-.83-2.65.34-3.33-3.92.34-2.2-1.35-1.58,1.21-1.73,2.23.15.26-2.2,1.26,1.18.94,1.41,1,.48-.82,2.6.86,2.66,2.72-1.17.73-1.81,1.12-.79,1.43.16-.36-3.15.1-1.58,1.2-.47,1.29-2.87,1.85-.75,1.49,2-1.52,1.27.87,1,3.58-.16,2.46.47.92,2.91-.34,2.29L113,147l-1.75-.16-.61-2.51-4,1,1.88,2.59,1.71,4,.13,2.51,2.2,2.12Z"/><path id="Path_1576" data-name="Path 1576" class="cls-2" d="M92.92,124.64l-1,3.26-2.74-1.36-1.68-.76-.32,2,2.58,2.42,1.37.76-1.08,1.81-1.37-.45L85.91,130l-.85,1.89-.1,2-.32,1.21-3.6.08-2.66-.6.16-1.89,2.3-.46,1.68-.22-1.42-2.28-1,1.14-.61-.81-.26-.83,1-.52.87-.07L82,127l-.75-.94.2-1.09L82.6,124l2.07.3,1-2,.1-2.65,2.83-.23L91,121.54l-.7,1.06Z"/><path id="Path_1577" data-name="Path 1577" class="cls-4" d="M65.56,145.57l.61,2.77-9.92,3.87-1.71,3.38,2.23,2.76-3.8.92-.63,1.31,1.17,2,1.71,4,.8,1.23,1.86,1.35L56.2,171l-1.1.42-2.75-1.22-1.71,1.4.23,2.67-2.38-.2-2.65-1.58-2.51.24L41,171.14l-1.08-1.59-2.08-.42-2.09,2.34-1.11,3.84-1.8-.52V174l.2-1.59-.65-1.87,1.37-1.22-2.45-2.19.76-2.3,3,.61,1.52-1-.36-2.35.81-1.69,1.47.05,1.1,1.27,1.89.79L43,162l-.39-1.51,3.93-.47.59-4.91L44,152.17l1.64-2.34,7,2.08,1.08-4.06.59-4.13-2-3.19,2.68.61,1,4.56,2.41,3,1.59-5.35L62,142.07Z"/><g id="Group_291" data-name="Group 291"><g class="cls-5"><g id="Group_290" data-name="Group 290"><path id="Path_1578" data-name="Path 1578" class="cls-6" d="M74.31,103.18a55.83,55.83,0,0,0,4.09,6.6,12.68,12.68,0,0,0,10,5.11c4.14.25,7.53,2.81,10.21,7.18a2.9,2.9,0,0,1,.46,1.35,37.72,37.72,0,0,0,2.19,9.83c3.34,9,8.48,15.36,15.19,19.26,3.8,2.21,6,6.1,6.88,11.66a52,52,0,0,1,.19,10.8,14.93,14.93,0,0,1-.83,4.54c-.84,2.24-2.33,2.85-3.9,1.54a9.74,9.74,0,0,1-2.37-3.62c-1.22-2.73-2.2-5.64-3.28-8.48-3.18-8.35-7.5-15-14.18-18A16.51,16.51,0,0,0,91.53,149a4.94,4.94,0,0,0-4.29,2.4,4.13,4.13,0,0,0,.08,4.56,5,5,0,0,0,2.48,2c1.39.5,2.81.87,4.2,1.43a14.89,14.89,0,0,1,5.73,4.33,1.47,1.47,0,0,1-1,.27c-1.27.18-2.55.27-3.8.56a22.79,22.79,0,0,0-9,4.3c-.5.4-.84.29-1.24-.28-.75-1.06-1.53-2.09-2.34-3.07a25.86,25.86,0,0,0-7-6.4c-.88-.47-1.49-.13-1.81,1a2,2,0,0,0,.74,2.4c3.21,1.77,5.67,4.95,8.13,8.14.43.56.41.92,0,1.37a24.54,24.54,0,0,0-3.45,4.35,1.26,1.26,0,0,1-1.19.68c-1.3,0-2.6,0-3.91,0-.6,0-1,.31-1.23,1.14-.32,1.33.23,2.45,1.3,2.49,1.59.05,3.18,0,4.77,0a2,2,0,0,0,1.81-1.23,20.18,20.18,0,0,1,2.32-3.27c5.61-6.51,12.14-9,19.34-8.5a1.35,1.35,0,0,1,1.12.69,21.12,21.12,0,0,1,3.1,8.24,58.61,58.61,0,0,0,1.29,6.95c.58,2,1.37,3.8,3,4.36,4.12,1.46,7.39,4.75,10.26,8.95a4.53,4.53,0,0,1,.79,1.78,47.12,47.12,0,0,1,.69,6c.39,6.76.27,13.51,0,20.27a185.08,185.08,0,0,1-1.7,19.4c0,.29.1,1.3-.5,1.8-.82.69-2.43,0-3.06-.24-1.86-.7-4.4-.24-9.45.7-3.77.7-7.75,1.43-12.11,4.07a28.15,28.15,0,0,0-7.73,7,153.16,153.16,0,0,1,18-1.29q3.86,0,7.49.1a.87.87,0,0,1,0,.1,3,3,0,0,0,1.3.5c1.51.27,3.11,1.14,4.62,1.56a34.41,34.41,0,0,0,4.72,1,36.1,36.1,0,0,0,6.06.31c4-.12,19.69-1,41-2.42a21.33,21.33,0,0,0-11.83-9.1,15.39,15.39,0,0,0-7.88-2.13c-3.14.09-6.29-.41-9.41-.09a1,1,0,0,1-.62-.13.89.89,0,0,1-.3-.6c-.5-2.7-1-5.4-1.34-8.14-.49-3.6-.87-7.2-1.13-10.84a108.09,108.09,0,0,1-.09-14.84c.3-4.66,2-7.84,5-9.75a55.31,55.31,0,0,1,6.47-3.5c4.11-1.85,8.3-3.36,12.36-5.44a16,16,0,0,0,6-4.61,3.89,3.89,0,0,1,1.65-1.33,42.19,42.19,0,0,0,7.23-4,34.36,34.36,0,0,0,5.71-5.85,28.88,28.88,0,0,1,12.47-8.2h0a1.86,1.86,0,0,0,1.24-2.3c-.21-1.22-.88-1.64-1.94-1.26a35.12,35.12,0,0,0-9.66,5.34c-.2.14-.4.61-.65.26s0-.58.06-.89a3.7,3.7,0,0,1,.14-.55,43.14,43.14,0,0,1,5.2-12.15,2.32,2.32,0,0,0,0-3c-.7-.78-1.34-.58-2.08.69a57.55,57.55,0,0,0-3.18,6.08,37.9,37.9,0,0,0-3.41,12.66,2.07,2.07,0,0,1-.53,1.15,22.65,22.65,0,0,1-8.75,7.19c-.14.07-.29.34-.45.08s0-.44.08-.64c.66-1.87,1.35-3.71,2-5.59A156.19,156.19,0,0,0,178,160.5c.64-2.85-1-5.29-3.12-4.61-2.69.86-4.61,3.2-5.39,6.8a41.58,41.58,0,0,1-6.68,15.46c-1.82,2.56-3.72,4.93-6.38,5.75-.77.23-.8-.13-.79-.94,0-2.28.12-4.56.07-6.84a6.49,6.49,0,0,1,1.54-4.7,59.43,59.43,0,0,0,6.44-9.37l.2-.37a2.36,2.36,0,0,0-.08-2.72c-.64-.72-1.33-.62-1.92.4a74.75,74.75,0,0,1-7.1,10.27,8.13,8.13,0,0,0-1.66,5.11c-.07,3.11-.11,6.22-.14,9.32,0,.71-.16,1-.69,1.17-3.05.86-6.13,1.64-9.13,2.77-1.34.5-1.75-.19-1.91-1.93-.29-3,0-6-.06-8.95a9.54,9.54,0,0,1,2.14-6.59,73,73,0,0,1,7.43-7.6,55.29,55.29,0,0,0,7.05-7.7,23.59,23.59,0,0,0,3.81-9.42c.14-.69.16-1.48.75-1.87,4.62-3.11,9.3-5.94,14.54-6.32.79-.06,1.13-.77,1.26-1.75a5.37,5.37,0,0,0,0-1.06,3,3,0,0,1,1.44-3.2,8.75,8.75,0,0,1,3.41-1.33,29.27,29.27,0,0,1,10.35.19c1,.17,1.56-.39,1.69-1.54a.29.29,0,0,1,0-.09,1.66,1.66,0,0,0-1.3-2,25.26,25.26,0,0,0-3.47-.52c-3.94-.32-7.88-.36-11.62,1.81-.18.1-.33.36-.48-.06a5.21,5.21,0,0,1,.65-3.7,48.85,48.85,0,0,0,5.83-7,23.39,23.39,0,0,0,4.18-9.53,2,2,0,0,0-.94-2.4c-.68-.27-1.37.33-1.57,1.43a16.67,16.67,0,0,1-1.85,5.11,45.06,45.06,0,0,1-8,10.17,3.38,3.38,0,0,0-1,2.75c.05,2.67,0,5.35,0,8,0,.81-.16,1.22-.78,1.34a30.79,30.79,0,0,0-11.3,4.81c-.16.12-.34.39-.53.17s-.07-.6,0-.88c.35-1.15.7-2.31,1.08-3.44,1.5-4.43,3.3-8.64,5.15-12.8a5,5,0,0,0,.4-3.35c-.49-2-2.36-3.56-4.39-1.46-6.11,6.31-10,14.55-11.22,25a6.78,6.78,0,0,1-2.07,4.45,39,39,0,0,1-9.56,6.23c-1.76.89-2.48.09-2.27-2.48.42-5.35.77-10.71,1.54-16a31.54,31.54,0,0,1,1.49-6.72,14.59,14.59,0,0,1,4.36-5.63,27.61,27.61,0,0,0,6.9-9.1c2.38-5.33,2.7-11.31,2.55-17.39a3.83,3.83,0,0,0-.46-1.62c-1.1-2.2-3.41-2.12-4.38.24s-2,5.06-2.94,7.67a18.39,18.39,0,0,1-5.78,8.64c-1.59,1.26-3.05,2.83-4.63,4.13-3.93,3.24-6.13,8.06-6.91,14.22-.13,1-.39.85-.8.31a58.67,58.67,0,0,1-5-7.49,19.71,19.71,0,0,1-2-5.12,2,2,0,0,1,.67-2.29,31.91,31.91,0,0,0,8-10.56,14.09,14.09,0,0,0,.85-10.71c-.4-1.19-1.06-1.65-1.75-1.25s-1.07,1.4-.66,2.72a8.19,8.19,0,0,1,.24,4.47c-1.29,5.36-4.43,8.39-7.48,11.76a3.41,3.41,0,0,1-.1-.54c0-.31,0-.63,0-.94A43.66,43.66,0,0,0,123.32,98a15.52,15.52,0,0,0-2.71-6.92c-.25-.32-.49-.67-.85-.74-.63-.11-1.09.15-1.43.94a2.09,2.09,0,0,0,.29,2.22,11.65,11.65,0,0,1,2.09,5.15,38,38,0,0,1,.37,10.65,24.7,24.7,0,0,0,3.37,15.84,82.54,82.54,0,0,0,6.09,8.53,1.91,1.91,0,0,1,.55,1.59,42.8,42.8,0,0,0-.27,5.88c0,.86-.29,1.3-.89,1.43a5.78,5.78,0,0,1-3.11-.26,24.62,24.62,0,0,1-8.61-5.39,35.92,35.92,0,0,1-6.8-8.25,25.12,25.12,0,0,1-3.4-12.15c-.23-5.69-.27-11.4-1-17a14.36,14.36,0,0,0-1.72-5.92c-1.23-1.91-3-1.75-4,.36a9.27,9.27,0,0,0-.49,1.23A44.8,44.8,0,0,0,99.17,106c-.2,3.28-.35,6.59-.33,9.9,0,.3.1.7-.13.86s-.44-.23-.63-.44c-2.94-3.27-6.29-5.09-10.07-5.14-.92,0-1.17-.6-1.25-1.65a9.61,9.61,0,0,1,.72-4.4,12.9,12.9,0,0,0,.84-3.17,42.16,42.16,0,0,0-1.24-15.17c-.27-1.17-.94-1.62-1.65-1.26a2,2,0,0,0-.8,2.38,58.79,58.79,0,0,1,1.25,8.64,16.86,16.86,0,0,1-.83,7.22,13.81,13.81,0,0,0-.93,5.43c0,1-.23,1-.77.72A11.64,11.64,0,0,1,79,105.37c-1.56-2.63-3.06-5.35-4.59-8-.69-1.2-1.32-1.38-2-.61a2.39,2.39,0,0,0,0,2.91c.65,1.18,1.31,2.36,2,3.53"/><path id="Path_1579" data-name="Path 1579" class="cls-7" d="M125,208.2a56.51,56.51,0,0,0-1-8.79,7.44,7.44,0,0,0-.9-2.36c-2.85-4.68-6.22-8.33-10.29-10.39a4.14,4.14,0,0,1-2.84-3.35c-.22-1.24-.56-2.45-.67-3.71a32.76,32.76,0,0,0-7-17.37,19.53,19.53,0,0,0-8.15-6.63,28,28,0,0,1-3.81-1.18c-.3-.16-.67-.27-.65-.8s.4-.48.67-.63c1.53-.83,3-.15,4.52.26,7,1.93,11.94,7.93,15.34,16.95,1.51,4,2.75,8.24,4.57,12,1.13,2.34,2.51,4.2,4.53,4.86,3,1,5-1.33,5.91-5a50,50,0,0,0,1.06-14.84A28.22,28.22,0,0,0,123,154.73a16.79,16.79,0,0,0-5.82-6c-6.57-4.25-11.53-11-14.34-20.76a34.48,34.48,0,0,1-1.26-8.57c-.15-5.6,0-11.19.37-16.77a69.25,69.25,0,0,1,.77-7.47c.13-.66.14-1.71.58-1.75s.56,1,.69,1.63a71.58,71.58,0,0,1,1,10.44c.22,4.51.29,9,.73,13.5a25.94,25.94,0,0,0,3,9.71,37.34,37.34,0,0,0,15.55,16.14,9.3,9.3,0,0,0,5.83,1.22c2-.33,3.34-2.29,3.37-5.25a81.67,81.67,0,0,1,.61-9.89,52.24,52.24,0,0,1,1.75-8.67,14,14,0,0,1,4.12-5.93c1.88-1.9,3.78-3.78,5.73-5.53a20.19,20.19,0,0,0,5.45-8.79c.82-2.4,1.72-4.73,2.58-7.09a2.25,2.25,0,0,1,.54-1c.27,8.92-1.41,16.46-6.62,21.74a44.62,44.62,0,0,0-4.92,5.27,22.21,22.21,0,0,0-3.39,9.68c-1.06,6.63-1.42,13.41-2,20.15-.35,4.32,2.46,7.94,5.47,6.28,3.67-2,7.36-4,10.61-7.31a8.92,8.92,0,0,0,2.82-4.81c.3-1.63.4-3.33.66-5a44,44,0,0,1,5-14.63,30.59,30.59,0,0,1,4.4-6.14,1,1,0,0,1-.13,1,128.46,128.46,0,0,0-5.43,15.52c-.76,2.81-1.21,5.76-1.73,8.67a22.38,22.38,0,0,1-5.15,11.07c-2.82,3.26-5.87,6-8.79,9.09a31.61,31.61,0,0,0-4.74,6,12.79,12.79,0,0,0-1.83,6.51,118.49,118.49,0,0,0,.1,11.92c.37,3.84,2.44,6,4.84,5a93.94,93.94,0,0,1,9.69-3.07,33.05,33.05,0,0,0,6.21-2.5,11.47,11.47,0,0,0,3.24-3.12,47.13,47.13,0,0,0,8.6-17.29c.3-1.16.53-2.36.83-3.52a7.77,7.77,0,0,1,2.41-4c.21-.18.49-.36.72-.06s.06.61,0,.92a189.86,189.86,0,0,1-6.42,21.39c-.89,2.3-1.7,4.73-3.33,6.14a25.16,25.16,0,0,1-5.51,3.49c-5.24,2.6-10.65,4.46-15.77,7.59a23.24,23.24,0,0,0-4.51,3.63c-2.07,2.15-3.09,5.17-3.55,8.72a101.36,101.36,0,0,0-.06,20.31c.1,1.35.21,2.71.31,4.07a1,1,0,0,1,.06.35c0,.4.14.94-.11,1.17s-.59-.12-.85-.36a49,49,0,0,1-9.78-13.13,3.28,3.28,0,0,1-.31-1.63c0-3.65,0-7.3,0-10.94a15.13,15.13,0,0,0-.24-3.8"/><path id="Path_1580" data-name="Path 1580" class="cls-8" d="M125,206c.45.33.34,1,.34,1.54,0,4.71,0,9.41,0,14.12a4.55,4.55,0,0,0,.5,2.17,68.68,68.68,0,0,0,3.54,6.33,41.49,41.49,0,0,0,6.79,8.37c0-.65.05-1.14.07-1.62.36,3,.56,6.05,1,9,.29,1.88.48,3.8.83,5.65.2,1.12-.05,1.19-.61,1.19-2.64,0-5.27,0-7.9,0-1.9,0-3.8,0-5.69,0-.59,0-.78-.17-.65-1.23,1-8.47,1.56-17,1.8-25.65.18-6.37.23-12.73-.06-19.09,0-.27,0-.54,0-.81"/><path id="Path_1581" data-name="Path 1581" class="cls-6" d="M241.86,274.46H27.63a9.82,9.82,0,0,1-9.82-9.81v-1.09a9.82,9.82,0,0,1,9.82-9.81H241.86a9.82,9.82,0,0,1,9.82,9.81v1.09a9.82,9.82,0,0,1-9.82,9.82"/></g></g></g><g id="Group_293" data-name="Group 293"><g class="cls-9"><g id="Group_292" data-name="Group 292"><path id="Path_1582" data-name="Path 1582" class="cls-10" d="M190.93,169.28c-.33.77-.64,1-1.43.74a41,41,0,0,1-3.94-1.26,25.62,25.62,0,0,1-5.7-3,11.17,11.17,0,0,1-4.22-5.14,6.91,6.91,0,0,1-.06-4.66c0-.08,0-.09.13-.29.33-.8.38-1,.54-1.05s.06,0,.46.17h0l.16.07c.14.17-.14.66-.33,1.14a5.12,5.12,0,0,0-.3,1.33,6.21,6.21,0,0,0,1,4.32,11.85,11.85,0,0,0,4,3.84,28.18,28.18,0,0,0,8.17,3.56c.57.14.57.13.79-.41.09-.23.2-.46.27-.69.13-.41.24-.83.35-1.24a16,16,0,0,0,.52-7.52,9.58,9.58,0,0,0-2.6-5.15,7.87,7.87,0,0,0-9.78-1l-.37.28c-.55.44-.75.74-1,.69l-.24-.09-.05,0h0l-.36-.15c0-.16.31-.62,1.08-1.2a9.16,9.16,0,0,1,3.18-1.52,9,9,0,0,1,10.43,5.58,13.58,13.58,0,0,1,.88,6.43,21,21,0,0,1-1.44,6.05l-.08.18"/><path id="Path_1583" data-name="Path 1583" class="cls-3" d="M189.36,169a28.28,28.28,0,0,1-8.16-3.56,11.89,11.89,0,0,1-4-3.84,6.22,6.22,0,0,1-1-4.32,5.46,5.46,0,0,1,.3-1.33c.19-.48.47-1,.33-1.14.5.21,1,.44,1.46.68s.42.32.32.65a5,5,0,0,0,.61,3.86.56.56,0,0,0,.73.34h0c.35-.17.34-.43.18-.73a2.53,2.53,0,0,0-.13-.22,4.36,4.36,0,0,1-.48-2.58c.08-.51.17-.57.61-.24,1.22.91,2.42,1.85,3.63,2.78a.56.56,0,0,1,.21.76v0a4.53,4.53,0,0,0-.15,3.08.55.55,0,0,0,.62.48h.06c.38-.09.44-.35.35-.67a3.37,3.37,0,0,1-.12-.55,3.72,3.72,0,0,1,.19-1.87,1.93,1.93,0,0,1,.28.22q.65.75,1.23,1.56c.48.75.9,1.53,1.32,2.3a.57.57,0,0,0,.72.34c.32-.1.37-.36.27-.64a2,2,0,0,0-.11-.26,16,16,0,0,0-2.64-3.92c-.1-.1-.17-.22-.3-.38a3.24,3.24,0,0,1,2.31.2c.43.22.77.19.92-.09s0-.57-.48-.78a4.21,4.21,0,0,0-3.19-.23.59.59,0,0,1-.67-.15c-.67-.59-1.35-1.18-2.07-1.74s-1.38-1-2.1-1.49a4.5,4.5,0,0,1,2.28-.49q.93.09,1.86.27c.32.06.55,0,.65-.28a.45.45,0,0,0-.28-.58l-.06,0a4.68,4.68,0,0,0-.53-.17,6.93,6.93,0,0,0-4.74.5.6.6,0,0,1-.62,0c-.6-.31-1.2-.6-1.82-.87l0,0a1.06,1.06,0,0,0,.25.09c.27.05.47-.25,1-.69.12-.1.25-.19.38-.28a7.86,7.86,0,0,1,9.78,1,9.62,9.62,0,0,1,2.6,5.15,16.06,16.06,0,0,1-.52,7.51c-.12.41-.23.83-.35,1.24-.08.24-.19.46-.28.69-.22.55-.22.55-.78.41"/><path id="Path_1584" data-name="Path 1584" class="cls-10" d="M188.56,165a.58.58,0,0,1-.72-.35c-.42-.77-.84-1.56-1.32-2.3q-.59-.81-1.23-1.56a1.93,1.93,0,0,0-.28-.22,3.72,3.72,0,0,0-.19,1.87,3.37,3.37,0,0,0,.12.55c.08.32,0,.58-.35.67a.55.55,0,0,1-.67-.41h0a.13.13,0,0,1,0-.06,4.53,4.53,0,0,1,.15-3.08.55.55,0,0,0-.18-.77h0c-1.21-.93-2.4-1.87-3.63-2.78-.45-.34-.53-.28-.61.24a4.36,4.36,0,0,0,.48,2.58l.13.22c.16.3.17.57-.18.73a.57.57,0,0,1-.75-.29.06.06,0,0,0,0,0,5,5,0,0,1-.61-3.86c.1-.33,0-.49-.32-.65-.49-.24-1-.47-1.46-.68v0l-.16-.06a22.65,22.65,0,0,0-4.55-1.42l-.88-.18c-.33-.06-.54-.24-.5-.55s.31-.45.65-.4c.62.11,1.23.24,1.85.39a24.83,24.83,0,0,1,3.57,1.17v0s.08,0,.36.14h0c.61.26,1.22.55,1.82.86a.58.58,0,0,0,.62,0,6.93,6.93,0,0,1,4.74-.5,4.68,4.68,0,0,1,.53.17.47.47,0,0,1,.37.53h0a.64.64,0,0,1,0,.07c-.09.27-.33.34-.65.29a17.05,17.05,0,0,0-1.86-.28,4.5,4.5,0,0,0-2.28.49c.72.5,1.43,1,2.1,1.49s1.39,1.15,2.06,1.74a.59.59,0,0,0,.67.15,4.28,4.28,0,0,1,3.2.23c.43.21.62.5.48.78s-.5.31-.93.08a3.35,3.35,0,0,0-2.31-.2c.13.16.2.28.3.39a16,16,0,0,1,2.64,3.92,2,2,0,0,1,.11.26c.1.29.06.54-.26.64"/><path id="Path_1585" data-name="Path 1585" class="cls-10" d="M176.88,154.8h0l-.16-.07c.13,0,.14,0,.15.06"/><path id="Path_1586" data-name="Path 1586" class="cls-10" d="M177.23,153.91c-.28-.1-.33-.1-.36-.14v0l.36.16"/></g></g></g><g id="Group_297" data-name="Group 297"><g class="cls-11"><g id="Group_296" data-name="Group 296"><path id="Path_1592" data-name="Path 1592" class="cls-10" d="M186.82,120.34c.45.65.47,1-.12,1.54-1,.89-1.95,1.78-3,2.58a25,25,0,0,1-5.35,3.13,10.75,10.75,0,0,1-6.32.88,6.61,6.61,0,0,1-3.84-2.3c-.05-.06-.05-.08-.18-.25-.48-.67-.64-.83-.58-1s0,0,.37-.3l0,0,.12-.09c.21,0,.48.45.78.84a5.4,5.4,0,0,0,.93.92,6.05,6.05,0,0,0,4,1.38,11.34,11.34,0,0,0,5.13-1.33,26.8,26.8,0,0,0,7-4.89c.4-.39.4-.39.06-.84-.14-.19-.27-.4-.42-.58s-.56-.61-.84-.9a15.37,15.37,0,0,0-5.88-4.2,9.24,9.24,0,0,0-5.52-.47,7.54,7.54,0,0,0-5.68,7.52,3.42,3.42,0,0,0,0,.45c.08.66.23,1,.06,1.17,0,0,0,0-.2.15l0,0h0l-.31.22c-.15,0-.35-.56-.43-1.49a8.89,8.89,0,0,1,.35-3.36,8.6,8.6,0,0,1,9.8-5.73,13,13,0,0,1,5.69,2.5,20.15,20.15,0,0,1,4.23,4.22l.11.15"/><path id="Path_1593" data-name="Path 1593" class="cls-3" d="M185.8,121.48a27,27,0,0,1-7,4.89,11.41,11.41,0,0,1-5.14,1.32,5.92,5.92,0,0,1-4-1.38,4.82,4.82,0,0,1-.94-.92c-.3-.39-.56-.87-.77-.83.42-.3.86-.59,1.3-.86s.47-.17.69.07a4.72,4.72,0,0,0,3.47,1.44.55.55,0,0,0,.65-.46c0-.37-.19-.5-.52-.51h-.23a4.12,4.12,0,0,1-2.35-.9c-.38-.33-.39-.42.11-.62,1.36-.54,2.73-1,4.09-1.58a.54.54,0,0,1,.73.21h0v0a4.33,4.33,0,0,0,2.44,1.67.53.53,0,0,0,.7-.27s0,0,0-.05c.12-.36-.06-.53-.37-.62a3.68,3.68,0,0,1-.5-.18,3.63,3.63,0,0,1-1.44-1.1,1.73,1.73,0,0,1,.32-.11c.63-.11,1.26-.18,1.9-.23.85,0,1.7,0,2.54.08a.56.56,0,0,0,.65-.42c.08-.32-.11-.48-.4-.54l-.27,0a15.3,15.3,0,0,0-4.53.19l-.46.05a3.18,3.18,0,0,1,1.32-1.79c.4-.24.54-.54.39-.8s-.49-.24-.87,0a4,4,0,0,0-1.79,2.5.6.6,0,0,1-.46.47c-.83.25-1.65.51-2.46.82s-1.5.63-2.27,1a4.29,4.29,0,0,1,.74-2.1,15.53,15.53,0,0,1,1.16-1.39c.2-.23.26-.46.09-.67a.43.43,0,0,0-.61-.07l0,0a3.23,3.23,0,0,0-.4.35,6.56,6.56,0,0,0-2,4.12.58.58,0,0,1-.31.51c-.55.34-1.09.69-1.62,1.06l0,0,.2-.15c.17-.2,0-.51-.06-1.18,0-.15,0-.3,0-.44a7.55,7.55,0,0,1,5.69-7.52,9.28,9.28,0,0,1,5.51.46,15.29,15.29,0,0,1,5.88,4.2c.28.3.57.6.84.91s.28.38.42.57c.34.46.34.46-.05.85"/><path id="Path_1594" data-name="Path 1594" class="cls-10" d="M182.15,120.13a.56.56,0,0,1-.64.42c-.85,0-1.7-.1-2.55-.08-.63,0-1.27.12-1.9.23a2,2,0,0,0-.32.11,3.7,3.7,0,0,0,1.44,1.1,4.24,4.24,0,0,0,.5.18c.32.09.49.27.37.62a.52.52,0,0,1-.66.34l-.06,0a4.28,4.28,0,0,1-2.43-1.67.55.55,0,0,0-.72-.24h0c-1.37.53-2.74,1-4.09,1.57-.5.2-.5.3-.12.62a4,4,0,0,0,2.35.9l.24,0c.32,0,.55.14.51.51s-.28.48-.65.46a4.76,4.76,0,0,1-3.46-1.45c-.22-.24-.39-.25-.69-.06s-.87.55-1.3.85h0s0,0-.12.09a22,22,0,0,0-3.46,3l-.59.64c-.22.23-.47.31-.7.13s-.21-.49,0-.73c.4-.46.82-.9,1.25-1.32a24.46,24.46,0,0,1,2.75-2.34h0s.07,0,.29-.23h0c.52-.37,1.06-.73,1.62-1.06a.55.55,0,0,0,.3-.51,6.58,6.58,0,0,1,2-4.12,2.64,2.64,0,0,1,.4-.35.44.44,0,0,1,.62,0l0,0c.17.21.12.44-.09.67a15.53,15.53,0,0,0-1.16,1.39,4.29,4.29,0,0,0-.74,2.1c.78-.33,1.51-.68,2.27-1s1.64-.57,2.46-.82a.57.57,0,0,0,.46-.47,4,4,0,0,1,1.79-2.5c.39-.24.73-.25.87,0s0,.57-.39.8a3.13,3.13,0,0,0-1.32,1.79,4.31,4.31,0,0,0,.46,0,15.3,15.3,0,0,1,4.53-.19l.27,0c.28.06.47.23.39.54"/><path id="Path_1595" data-name="Path 1595" class="cls-10" d="M168,124.55l-.13.09.12-.09h0"/><path id="Path_1596" data-name="Path 1596" class="cls-10" d="M167.38,123.82c-.22.18-.25.23-.29.23h0l.31-.23"/></g></g></g><g id="Group_301" data-name="Group 301"><g class="cls-12"><g id="Group_300" data-name="Group 300"><path id="Path_1602" data-name="Path 1602" class="cls-10" d="M131.18,100.1c-1.42.55-2.85,1.08-4.27,1.64-.52.21-.51.31-.12.65a4.32,4.32,0,0,0,2.45.94h.24c.34,0,.58.15.54.53a.57.57,0,0,1-.67.48,4.94,4.94,0,0,1-3.61-1.5c-.24-.25-.41-.26-.72-.07-.47.29-.92.58-1.36.89h0s0,0-.12.1a22.46,22.46,0,0,0-3.6,3.14l-.62.66c-.23.25-.49.33-.73.14s-.22-.5,0-.76c.42-.47.85-.93,1.3-1.38a24.74,24.74,0,0,1,2.87-2.43h0s.07,0,.3-.24h0c.55-.38,1.11-.75,1.68-1.1a.6.6,0,0,0,.33-.53,6.83,6.83,0,0,1,2-4.3l.42-.37a.47.47,0,0,1,.65,0h0l.05.06c.17.21.12.45-.1.7a15,15,0,0,0-1.2,1.44,4.46,4.46,0,0,0-.78,2.19c.81-.34,1.58-.71,2.37-1s1.7-.59,2.56-.85a.62.62,0,0,0,.48-.49,4.18,4.18,0,0,1,1.86-2.6c.41-.26.76-.27.91,0s0,.59-.4.84a3.19,3.19,0,0,0-1.38,1.86l.49,0a15.84,15.84,0,0,1,4.71-.2l.28,0c.3.07.49.24.42.56a.58.58,0,0,1-.68.44c-.88,0-1.76-.1-2.65-.08a19.06,19.06,0,0,0-2,.23,2.26,2.26,0,0,0-.33.13,3.76,3.76,0,0,0,1.5,1.14,3.2,3.2,0,0,0,.52.18c.33.1.51.28.39.65a.55.55,0,0,1-.7.36h0l0,0a4.56,4.56,0,0,1-2.55-1.74.55.55,0,0,0-.75-.25h0"/><path id="Path_1603" data-name="Path 1603" class="cls-10" d="M141,98a16.09,16.09,0,0,0-6.13-4.37,9.6,9.6,0,0,0-5.75-.49,7.86,7.86,0,0,0-5.93,7.84c0,.15,0,.31,0,.46.09.7.25,1,.07,1.23l-.2.15a.08.08,0,0,0,0,0h0l-.33.24c-.15,0-.36-.59-.45-1.56a9.23,9.23,0,0,1,.37-3.5,9,9,0,0,1,10.21-6,13.59,13.59,0,0,1,5.94,2.61,20.86,20.86,0,0,1,4.41,4.39,1.58,1.58,0,0,0,.12.15c.48.68.49,1-.12,1.61-1,.93-2,1.86-3.14,2.7a25.55,25.55,0,0,1-5.58,3.26,11.2,11.2,0,0,1-6.58.91,6.94,6.94,0,0,1-4-2.4l-.17-.25c-.5-.7-.68-.87-.61-1s0,0,.38-.31l0,0,.13-.1c.22,0,.49.47.81.88a5.45,5.45,0,0,0,1,1,6.3,6.3,0,0,0,4.19,1.45,12.09,12.09,0,0,0,5.36-1.38,28,28,0,0,0,7.3-5.1c.41-.41.41-.41.06-.89-.15-.2-.28-.41-.44-.59L141,98"/><path id="Path_1604" data-name="Path 1604" class="cls-10" d="M123.67,103.67l-.13.1c.1-.08.1-.09.12-.09h0"/><path id="Path_1605" data-name="Path 1605" class="cls-3" d="M134.9,93.67A15.92,15.92,0,0,1,141,98c.29.31.59.62.87.95s.29.4.44.59c.35.47.36.48-.06.88a28,28,0,0,1-7.3,5.1,11.76,11.76,0,0,1-5.35,1.39,6.2,6.2,0,0,1-4.19-1.44,5.57,5.57,0,0,1-1-1c-.31-.41-.58-.91-.8-.87.44-.31.89-.61,1.35-.89s.49-.19.72.07a5,5,0,0,0,3.61,1.5c.39,0,.65-.17.68-.48s-.2-.52-.54-.53l-.24,0a4.22,4.22,0,0,1-2.45-.94c-.4-.33-.41-.43.12-.64,1.42-.57,2.85-1.1,4.27-1.64a.56.56,0,0,1,.76.22v0a4.51,4.51,0,0,0,2.55,1.74.55.55,0,0,0,.73-.28s0,0,0,0c.12-.37-.06-.56-.39-.65a3.24,3.24,0,0,1-.52-.19,3.76,3.76,0,0,1-1.5-1.14,2.19,2.19,0,0,1,.33-.12q1-.16,2-.24c.89,0,1.77,0,2.65.08a.57.57,0,0,0,.67-.43c.09-.33-.12-.5-.41-.56a2.33,2.33,0,0,0-.28-.05,16.26,16.26,0,0,0-4.72.2,4.77,4.77,0,0,1-.48,0A3.25,3.25,0,0,1,134,96.85c.42-.25.57-.56.41-.83s-.5-.26-.91,0a4.21,4.21,0,0,0-1.87,2.6.58.58,0,0,1-.47.48c-.87.27-1.72.54-2.56.86s-1.56.66-2.37,1a4.58,4.58,0,0,1,.77-2.2q.57-.75,1.2-1.44c.22-.24.28-.48.1-.7a.46.46,0,0,0-.64-.07s0,0-.05,0a3.62,3.62,0,0,0-.42.36,6.92,6.92,0,0,0-2.05,4.3.61.61,0,0,1-.32.54c-.58.35-1.14.71-1.68,1.1l0,0a1.56,1.56,0,0,0,.2-.16c.18-.2,0-.53-.06-1.23,0-.15,0-.3,0-.46a7.87,7.87,0,0,1,5.93-7.84,9.64,9.64,0,0,1,5.74.49"/><path id="Path_1606" data-name="Path 1606" class="cls-10" d="M123.07,102.91c-.23.19-.25.23-.3.24h0l.33-.24"/></g></g></g><g id="Group_303" data-name="Group 303"><g class="cls-13"><g id="Group_302" data-name="Group 302"><path id="Path_1607" data-name="Path 1607" class="cls-10" d="M159.38,89.08a15.92,15.92,0,0,1,4.72-.2l.28,0c.3.06.49.23.41.56a.57.57,0,0,1-.67.43c-.88,0-1.76-.1-2.65-.07a18.45,18.45,0,0,0-2,.23,2.19,2.19,0,0,0-.33.12,3.67,3.67,0,0,0,1.5,1.14,3.24,3.24,0,0,0,.52.19c.33.09.51.28.39.65a.55.55,0,0,1-.69.36h0l-.06,0a4.56,4.56,0,0,1-2.55-1.74.55.55,0,0,0-.75-.26h0c-1.42.55-2.85,1.08-4.27,1.64-.52.21-.51.31-.12.65a4.32,4.32,0,0,0,2.45.94h.24c.34,0,.58.15.54.53a.57.57,0,0,1-.67.48,4.94,4.94,0,0,1-3.61-1.5c-.24-.26-.41-.26-.72-.07-.47.29-.92.59-1.36.89h0s0,0-.12.09a23,23,0,0,0-3.61,3.15l-.62.66a.51.51,0,0,1-.73.13c-.27-.2-.21-.5,0-.75.42-.48.86-.94,1.3-1.38a25.69,25.69,0,0,1,2.87-2.44h0s.07,0,.3-.23h0c.55-.38,1.11-.75,1.69-1.1a.59.59,0,0,0,.32-.53,6.82,6.82,0,0,1,2.05-4.3,2.93,2.93,0,0,1,.42-.37.45.45,0,0,1,.64,0h0l0,0c.18.22.12.46-.1.7a16.35,16.35,0,0,0-1.2,1.44,4.46,4.46,0,0,0-.78,2.2c.81-.35,1.59-.71,2.37-1s1.71-.59,2.56-.86a.58.58,0,0,0,.48-.48,4.17,4.17,0,0,1,1.87-2.6c.4-.26.76-.27.91,0s0,.58-.41.83a3.31,3.31,0,0,0-1.38,1.86c.2,0,.35,0,.49,0"/><path id="Path_1608" data-name="Path 1608" class="cls-10" d="M159.2,82.54a13.47,13.47,0,0,1,5.94,2.61,20.58,20.58,0,0,1,4.4,4.39l.12.15c.48.68.49,1-.12,1.61-1,.93-2,1.86-3.13,2.7a26.2,26.2,0,0,1-5.58,3.26,11.21,11.21,0,0,1-6.58.91,6.86,6.86,0,0,1-4-2.39c-.05-.06-.05-.08-.18-.26-.5-.7-.67-.86-.61-1s.05,0,.38-.3l0,0,.14-.1c.21,0,.48.47.8.87a5.57,5.57,0,0,0,1,1A6.19,6.19,0,0,0,156,97.36,11.79,11.79,0,0,0,161.31,96a28,28,0,0,0,7.3-5.1c.42-.4.41-.4.06-.88-.15-.2-.28-.41-.44-.59s-.58-.64-.87-1a16,16,0,0,0-6.14-4.38,9.67,9.67,0,0,0-5.75-.48,7.86,7.86,0,0,0-5.93,7.85c0,.15,0,.31,0,.46.09.7.25,1,.07,1.23l-.2.15a.08.08,0,0,0,0,0s0,0,0,0l-.33.24c-.15,0-.36-.59-.45-1.56a9.23,9.23,0,0,1,.37-3.5,9,9,0,0,1,10.21-6"/><path id="Path_1609" data-name="Path 1609" class="cls-10" d="M150,94.09l-.13.1c.1-.08.1-.09.12-.09h0"/><path id="Path_1610" data-name="Path 1610" class="cls-3" d="M151.09,92.22c-.58.35-1.14.72-1.69,1.1l0,0,.2-.15c.18-.21,0-.54-.06-1.23,0-.16,0-.31,0-.47a7.86,7.86,0,0,1,5.93-7.83,9.64,9.64,0,0,1,5.74.48,16,16,0,0,1,6.14,4.37c.29.31.59.62.88.94s.29.4.44.6c.35.47.35.47-.06.88a28,28,0,0,1-7.3,5.1A11.79,11.79,0,0,1,156,97.36a6.19,6.19,0,0,1-4.18-1.44,5.24,5.24,0,0,1-1-1c-.31-.41-.59-.91-.81-.87.45-.31.9-.61,1.36-.9.31-.19.49-.18.72.08a5,5,0,0,0,3.61,1.5.58.58,0,0,0,.68-.48c0-.39-.2-.52-.54-.54h-.25a4.26,4.26,0,0,1-2.44-.94c-.4-.33-.41-.43.12-.64,1.41-.57,2.84-1.1,4.26-1.64a.55.55,0,0,1,.76.22l0,0a4.57,4.57,0,0,0,2.54,1.74.55.55,0,0,0,.73-.28l0,0c.12-.38-.07-.56-.39-.65a3.35,3.35,0,0,1-.53-.19,3.83,3.83,0,0,1-1.5-1.14,2,2,0,0,1,.34-.12,18.58,18.58,0,0,1,2-.24c.89,0,1.77,0,2.66.08a.57.57,0,0,0,.67-.43c.08-.33-.12-.5-.41-.57l-.28,0a16.23,16.23,0,0,0-4.72.2,4.69,4.69,0,0,1-.49.05,3.28,3.28,0,0,1,1.38-1.86c.42-.25.57-.56.41-.84s-.5-.25-.91,0a4.16,4.16,0,0,0-1.87,2.6.6.6,0,0,1-.48.49c-.86.26-1.72.54-2.56.85s-1.56.67-2.37,1a4.46,4.46,0,0,1,.78-2.2,16.35,16.35,0,0,1,1.2-1.44c.22-.25.27-.48.1-.7a.45.45,0,0,0-.64-.07.12.12,0,0,0-.05,0,4.82,4.82,0,0,0-.43.36,6.88,6.88,0,0,0-2,4.3.63.63,0,0,1-.32.54"/><path id="Path_1611" data-name="Path 1611" class="cls-10" d="M149.39,93.33c-.23.18-.25.23-.3.23h0l.32-.23"/></g></g></g><g id="Group_305" data-name="Group 305"><g class="cls-14"><g id="Group_304" data-name="Group 304"><path id="Path_1612" data-name="Path 1612" class="cls-10" d="M163.8,152.49c0,.31-.3.5-.68.48a5,5,0,0,1-3.61-1.5c-.23-.26-.41-.27-.72-.08s-.91.59-1.35.9h0s0,0-.12.09a22.9,22.9,0,0,0-3.6,3.14l-.62.67a.51.51,0,0,1-.73.13c-.27-.21-.21-.5,0-.76.42-.47.86-.93,1.3-1.37a24.67,24.67,0,0,1,2.87-2.44h0c.05,0,.07-.05.3-.24h0c.55-.39,1.11-.76,1.69-1.1a.64.64,0,0,0,.32-.54,6.88,6.88,0,0,1,2-4.3l.43-.37a.47.47,0,0,1,.64,0h0l.05.06c.18.21.12.45-.1.7a16.35,16.35,0,0,0-1.2,1.44,4.46,4.46,0,0,0-.78,2.19c.81-.34,1.59-.71,2.37-1s1.71-.59,2.56-.85a.6.6,0,0,0,.48-.49,4.16,4.16,0,0,1,1.87-2.6c.4-.26.76-.27.91,0s0,.59-.41.84a3.28,3.28,0,0,0-1.38,1.86c.2,0,.35,0,.49-.05a15.9,15.9,0,0,1,4.72-.2l.28,0c.3.07.49.24.41.56a.57.57,0,0,1-.67.44c-.88,0-1.77-.1-2.66-.08a18.56,18.56,0,0,0-2,.23,1.62,1.62,0,0,0-.33.13,3.76,3.76,0,0,0,1.5,1.14,2.9,2.9,0,0,0,.52.18c.32.1.51.28.39.65a.57.57,0,0,1-.7.36h0l0,0a4.56,4.56,0,0,1-2.55-1.74.57.57,0,0,0-.75-.26h0c-1.42.55-2.85,1.08-4.27,1.65-.52.2-.52.3-.12.64a4.29,4.29,0,0,0,2.45.94h.24c.34,0,.58.15.54.53"/><path id="Path_1613" data-name="Path 1613" class="cls-10" d="M166.65,140.73a13.59,13.59,0,0,1,5.94,2.61,21,21,0,0,1,4.4,4.39l.12.16c.48.68.49,1-.12,1.6-1,.94-2,1.87-3.13,2.7a25.79,25.79,0,0,1-5.58,3.26,11.21,11.21,0,0,1-6.58.91,6.89,6.89,0,0,1-4-2.39c-.05-.06-.05-.08-.18-.26-.5-.7-.67-.86-.61-1s0,0,.38-.31h0l.14-.1c.22,0,.49.46.81.87a5.51,5.51,0,0,0,1,1,6.2,6.2,0,0,0,4.19,1.44,11.75,11.75,0,0,0,5.35-1.38,27.88,27.88,0,0,0,7.3-5.1c.42-.4.42-.4.06-.88-.15-.2-.28-.41-.44-.59s-.58-.64-.87-.95a16,16,0,0,0-6.14-4.38,9.64,9.64,0,0,0-5.74-.48,7.86,7.86,0,0,0-5.93,7.83,3.73,3.73,0,0,0,0,.47c.09.7.24,1,.06,1.23l-.2.15,0,0h0l-.32.23c-.15,0-.37-.59-.45-1.55a9.2,9.2,0,0,1,.36-3.5,9,9,0,0,1,10.22-6"/><path id="Path_1614" data-name="Path 1614" class="cls-10" d="M157.44,152.29l-.14.1c.1-.08.1-.09.13-.1h0"/><path id="Path_1615" data-name="Path 1615" class="cls-3" d="M157.09,151.33c.18-.21,0-.53-.06-1.23,0-.15,0-.31,0-.46a7.86,7.86,0,0,1,5.93-7.84,9.64,9.64,0,0,1,5.74.48,16.05,16.05,0,0,1,6.14,4.37c.29.32.59.63.87.95s.3.4.44.6c.36.47.36.47-.06.88a27.88,27.88,0,0,1-7.3,5.1,11.91,11.91,0,0,1-5.35,1.38,6.25,6.25,0,0,1-4.19-1.44,5.57,5.57,0,0,1-1-1c-.31-.41-.58-.91-.8-.87q.66-.47,1.35-.9c.31-.19.49-.18.72.08a5,5,0,0,0,3.61,1.5.58.58,0,0,0,.68-.48c0-.39-.2-.52-.54-.54H163a4.27,4.27,0,0,1-2.45-.94c-.4-.33-.41-.43.12-.64,1.41-.57,2.84-1.1,4.27-1.64a.55.55,0,0,1,.75.22h0v0a4.51,4.51,0,0,0,2.55,1.74.55.55,0,0,0,.73-.28h0s0,0,0,0c.12-.38-.07-.56-.39-.65a2.92,2.92,0,0,1-.52-.19,3.76,3.76,0,0,1-1.5-1.14,1.61,1.61,0,0,1,.33-.12,18.58,18.58,0,0,1,2-.24c.89,0,1.77,0,2.66.08a.57.57,0,0,0,.67-.43c.08-.33-.12-.5-.41-.57l-.28,0a15.9,15.9,0,0,0-4.72.2,4.69,4.69,0,0,1-.49,0,3.28,3.28,0,0,1,1.38-1.86c.42-.25.57-.56.41-.84s-.5-.25-.91,0a4.24,4.24,0,0,0-1.87,2.6.6.6,0,0,1-.48.49c-.86.26-1.72.53-2.56.85s-1.56.67-2.37,1a4.46,4.46,0,0,1,.78-2.2,16.35,16.35,0,0,1,1.2-1.44c.22-.25.28-.48.1-.7a.45.45,0,0,0-.64-.07.12.12,0,0,0,0,.05,3.62,3.62,0,0,0-.42.36,6.87,6.87,0,0,0-2,4.3.61.61,0,0,1-.32.54c-.58.34-1.14.71-1.69,1.1l0,0a1.49,1.49,0,0,0,.2-.15"/><path id="Path_1616" data-name="Path 1616" class="cls-10" d="M156.84,151.52c-.23.19-.25.24-.3.24h0l.33-.23"/></g></g></g><g id="Group_311" data-name="Group 311"><g class="cls-15"><g id="Group_310" data-name="Group 310"><path id="Path_1627" data-name="Path 1627" class="cls-10" d="M74.49,132.71c-.54.63-.59,1,0,1.61.92,1,1.86,2,2.87,3a26.39,26.39,0,0,0,5.26,3.76,11.26,11.26,0,0,0,6.47,1.51,6.87,6.87,0,0,0,4.21-2s.06-.07.2-.24c.57-.65.75-.8.7-1s0,0-.35-.34l0,0h0l-.12-.11c-.22,0-.54.42-.88.8a5.47,5.47,0,0,1-1.06.86,6.2,6.2,0,0,1-4.3,1.05,11.89,11.89,0,0,1-5.21-1.86,28,28,0,0,1-6.8-5.75c-.37-.44-.36-.44,0-.88a6.41,6.41,0,0,1,.49-.55c.31-.3.64-.58,1-.87a15.8,15.8,0,0,1,6.51-3.79,9.59,9.59,0,0,1,5.76,0,7.87,7.87,0,0,1,5.19,8.35,3.73,3.73,0,0,1-.09.46c-.15.68-.33,1-.17,1.22l.19.17,0,0s0,0,0,0l.3.27c.15,0,.41-.56.59-1.5a9.26,9.26,0,0,0,0-3.52,9,9,0,0,0-9.62-6.89,13.59,13.59,0,0,0-6.15,2.06,20.57,20.57,0,0,0-4.8,4l-.13.14"/><path id="Path_1628" data-name="Path 1628" class="cls-3" d="M75.42,134a28,28,0,0,0,6.8,5.75,11.89,11.89,0,0,0,5.21,1.86,6.2,6.2,0,0,0,4.3-1.05,5.47,5.47,0,0,0,1.06-.86c.35-.37.66-.85.88-.8-.41-.35-.83-.68-1.27-1s-.46-.23-.72,0A5,5,0,0,1,88,139c-.39,0-.63-.23-.63-.54s.24-.5.59-.48h.24a4.29,4.29,0,0,0,2.53-.72c.43-.3.44-.4-.06-.65-1.36-.69-2.73-1.35-4.1-2a.57.57,0,0,0-.78.15v0a4.55,4.55,0,0,1-2.7,1.5.55.55,0,0,1-.7-.34s0,0,0-.06c-.09-.38.11-.55.45-.61a3.58,3.58,0,0,0,.54-.14,3.71,3.71,0,0,0,1.59-1,1.87,1.87,0,0,0-.32-.15,18.24,18.24,0,0,0-1.95-.41c-.88-.1-1.77-.13-2.65-.17a.58.58,0,0,1-.63-.5c0-.33.16-.49.46-.52l.29,0a15.79,15.79,0,0,1,4.68.64l.47.09a3.25,3.25,0,0,0-1.2-2c-.4-.29-.51-.61-.32-.87s.52-.21.9.09a4.19,4.19,0,0,1,1.62,2.76.6.6,0,0,0,.43.53c.83.34,1.66.69,2.48,1.08s1.49.8,2.27,1.22a4.48,4.48,0,0,0-.58-2.26c-.33-.53-.68-1.05-1.06-1.55-.2-.26-.23-.5,0-.7a.47.47,0,0,1,.65,0l0,0c.13.13.26.26.38.4a6.91,6.91,0,0,1,1.65,4.47.59.59,0,0,0,.26.56q.83.6,1.59,1.26l0,0-.19-.17c-.16-.22,0-.54.18-1.22,0-.15.06-.3.08-.46a7.87,7.87,0,0,0-5.18-8.35,9.63,9.63,0,0,0-5.77,0,16,16,0,0,0-6.5,3.79c-.32.29-.65.57-1,.87s-.33.37-.49.55c-.4.44-.4.45,0,.89"/><path id="Path_1629" data-name="Path 1629" class="cls-10" d="M79.35,132.94a.58.58,0,0,0,.63.5c.88,0,1.76.06,2.65.17a19.33,19.33,0,0,1,2,.41,2.3,2.3,0,0,1,.32.15,3.78,3.78,0,0,1-1.6,1,3.58,3.58,0,0,1-.54.14c-.34.06-.54.22-.45.61a.56.56,0,0,0,.66.42h0l.06,0a4.55,4.55,0,0,0,2.7-1.5.57.57,0,0,1,.77-.19l0,0c1.36.67,2.74,1.33,4.1,2,.5.26.49.36.06.65a4.21,4.21,0,0,1-2.53.71h-.24c-.35,0-.59.1-.59.48s.25.53.63.54a5,5,0,0,0,3.73-1.16c.26-.24.43-.23.73,0s.85.66,1.26,1h0s0,0,.11.1h0a22,22,0,0,1,3.29,3.46l.55.71c.2.26.46.37.72.2s.27-.48.07-.75c-.37-.5-.76-1-1.17-1.49a24.66,24.66,0,0,0-2.63-2.68h0s-.06-.06-.27-.27h0q-.77-.66-1.59-1.26a.58.58,0,0,1-.27-.56,6.9,6.9,0,0,0-1.64-4.47c-.13-.14-.25-.27-.39-.4a.46.46,0,0,0-.64-.09l0,0c-.2.2-.16.45,0,.7a18.52,18.52,0,0,1,1.07,1.55,4.57,4.57,0,0,1,.57,2.26c-.78-.42-1.51-.85-2.27-1.22s-1.64-.74-2.47-1.08a.6.6,0,0,1-.43-.54,4.25,4.25,0,0,0-1.62-2.76c-.38-.3-.73-.33-.91-.09s-.07.59.33.88a3.22,3.22,0,0,1,1.2,2c-.2,0-.34-.06-.48-.1a16.06,16.06,0,0,0-4.68-.63,1.32,1.32,0,0,0-.28,0c-.3,0-.51.18-.46.52"/><path id="Path_1630" data-name="Path 1630" class="cls-10" d="M93.68,138.89h0l.12.11c-.09-.09-.09-.1-.11-.1"/><path id="Path_1631" data-name="Path 1631" class="cls-10" d="M94.33,138.18c.22.21.24.26.28.26h0l-.3-.26"/></g></g></g><g id="Group_313" data-name="Group 313"><g class="cls-16"><g id="Group_312" data-name="Group 312"><path id="Path_1632" data-name="Path 1632" class="cls-10" d="M102.18,85.66c-.67.49-.8.84-.4,1.56.67,1.21,1.35,2.42,2.12,3.56a25.94,25.94,0,0,0,4.24,4.88,11.26,11.26,0,0,0,6,3,6.88,6.88,0,0,0,4.56-1l.26-.18c.7-.5.91-.61.9-.77s0-.05-.27-.41v0h0l-.1-.13c-.2-.1-.61.29-1,.57a5.83,5.83,0,0,1-1.23.6,6.26,6.26,0,0,1-4.43,0,11.82,11.82,0,0,1-4.63-3,28.16,28.16,0,0,1-5.29-7.16c-.26-.52-.26-.52.23-.86.2-.14.4-.3.61-.42s.75-.42,1.13-.62A16.05,16.05,0,0,1,112,83a9.67,9.67,0,0,1,5.6,1.38,7.87,7.87,0,0,1,3.12,9.32l-.19.43c-.3.63-.56.89-.46,1.14,0,0,0,0,.15.21l0,0h0l.24.33c.16,0,.53-.45.92-1.33a9.26,9.26,0,0,0,.77-3.44,9,9,0,0,0-7.77-8.91,13.49,13.49,0,0,0-6.46.58,20.46,20.46,0,0,0-5.58,2.76l-.17.11"/><path id="Path_1633" data-name="Path 1633" class="cls-3" d="M102.8,87.12a28,28,0,0,0,5.29,7.17,11.91,11.91,0,0,0,4.64,3,6.13,6.13,0,0,0,4.42,0,4.68,4.68,0,0,0,1.23-.6c.43-.28.85-.67,1-.57-.32-.43-.65-.86-1-1.28s-.4-.33-.7-.16a5,5,0,0,1-3.9.27c-.36-.1-.56-.36-.49-.67s.36-.42.69-.33l.23.07a4.26,4.26,0,0,0,2.62-.11c.49-.19.53-.29.1-.65-1.16-1-2.34-1.95-3.51-2.92a.57.57,0,0,0-.8,0h0l0,0a4.55,4.55,0,0,1-3,.83.54.54,0,0,1-.61-.49h0v-.06c0-.39.24-.5.58-.49a3.51,3.51,0,0,0,.56,0,3.82,3.82,0,0,0,1.78-.6l-.28-.22a18.53,18.53,0,0,0-1.8-.85c-.83-.3-1.69-.53-2.54-.77a.58.58,0,0,1-.5-.63c0-.34.27-.43.57-.4l.28,0a15.85,15.85,0,0,1,4.41,1.69,3.12,3.12,0,0,0,.44.2,3.27,3.27,0,0,0-.71-2.2c-.32-.36-.36-.71-.12-.92s.56-.08.86.3a4.16,4.16,0,0,1,.94,3.06.6.6,0,0,0,.3.62c.73.52,1.46,1,2.16,1.63s1.27,1.12,1.92,1.7a4.39,4.39,0,0,0,0-2.33,18.61,18.61,0,0,0-.68-1.75c-.12-.3-.11-.55.13-.7a.47.47,0,0,1,.63.14.21.21,0,0,1,0,.06c.1.16.2.32.28.48a6.87,6.87,0,0,1,.57,4.73A.62.62,0,0,0,119,94c.43.51.85,1,1.25,1.59l0,0c-.13-.2-.13-.17-.14-.21-.1-.25.14-.51.45-1.14.07-.14.13-.28.19-.43a7.87,7.87,0,0,0-3.12-9.32,9.67,9.67,0,0,0-5.6-1.38,16.13,16.13,0,0,0-7.21,2.19c-.37.21-.76.4-1.13.62-.21.12-.4.29-.61.43-.48.33-.48.34-.22.85"/><path id="Path_1634" data-name="Path 1634" class="cls-10" d="M106.86,87a.58.58,0,0,0,.5.63c.86.24,1.71.47,2.54.77a19.79,19.79,0,0,1,1.8.86,1.86,1.86,0,0,1,.28.21,3.71,3.71,0,0,1-1.79.6,2.53,2.53,0,0,1-.55,0c-.34,0-.57.1-.58.49a.55.55,0,0,0,.55.56h.06a4.56,4.56,0,0,0,3-.83.56.56,0,0,1,.79,0h0c1.17,1,2.36,1.93,3.52,2.92.42.37.39.46-.1.65a4.27,4.27,0,0,1-2.62.11l-.24-.07c-.33-.09-.59,0-.68.34a.57.57,0,0,0,.49.67,5,5,0,0,0,3.9-.27c.3-.17.46-.13.7.16s.67.84,1,1.28h0s0,0,.08.12h0a23.13,23.13,0,0,1,2.42,4.13l.36.83c.14.3.37.46.66.36s.36-.4.24-.72c-.24-.58-.51-1.15-.79-1.72a26.19,26.19,0,0,0-1.94-3.22h0s0-.07-.21-.32h0c-.4-.54-.81-1.07-1.25-1.58a.62.62,0,0,1-.13-.61,6.86,6.86,0,0,0-.57-4.73,3.77,3.77,0,0,0-.28-.48.46.46,0,0,0-.6-.23l-.06,0c-.25.15-.26.4-.14.7a15.45,15.45,0,0,1,.68,1.75,4.49,4.49,0,0,1,0,2.33c-.66-.59-1.27-1.18-1.93-1.71s-1.42-1.1-2.15-1.62a.61.61,0,0,1-.3-.62,4.25,4.25,0,0,0-.94-3.06c-.3-.38-.64-.5-.87-.3s-.2.55.13.92a3.25,3.25,0,0,1,.71,2.2,3.88,3.88,0,0,1-.44-.2,15.88,15.88,0,0,0-4.4-1.68l-.28-.05c-.3,0-.55.06-.57.4"/><path id="Path_1635" data-name="Path 1635" class="cls-10" d="M119.44,96.11h0l.1.14c-.06-.11-.06-.12-.08-.12"/><path id="Path_1636" data-name="Path 1636" class="cls-10" d="M120.23,95.57c.16.25.17.3.21.32h0l-.24-.32"/></g></g></g><g id="Group_315" data-name="Group 315"><g class="cls-17"><g id="Group_314" data-name="Group 314"><path id="Path_1637" data-name="Path 1637" class="cls-10" d="M82.21,124.42c-.27.79-.18,1.14.57,1.5,1.23.61,2.48,1.22,3.77,1.71a26,26,0,0,0,6.27,1.56,11.2,11.2,0,0,0,6.57-1,6.83,6.83,0,0,0,3.17-3.43,2.24,2.24,0,0,0,.1-.3c.29-.81.4-1,.3-1.14s-.06,0-.45-.18h0l-.15,0c-.22,0-.34.58-.53,1.06a5.11,5.11,0,0,1-.66,1.19,6.19,6.19,0,0,1-3.61,2.56,11.85,11.85,0,0,1-5.52.2,28.08,28.08,0,0,1-8.45-2.83c-.51-.27-.5-.27-.3-.83.09-.23.16-.47.26-.7.17-.39.37-.77.57-1.15a15.92,15.92,0,0,1,4.64-5.93,9.62,9.62,0,0,1,5.38-2.09,7.88,7.88,0,0,1,7.9,5.84c0,.15.06.3.08.46.12.69.06,1,.29,1.2l.25.09,0,0h0l.38.13c.13-.09.18-.67,0-1.62a9.2,9.2,0,0,0-1.35-3.25,9,9,0,0,0-11.49-2.84,13.49,13.49,0,0,0-5,4.19,20.7,20.7,0,0,0-3,5.46l-.08.18"/><path id="Path_1638" data-name="Path 1638" class="cls-3" d="M83.55,125.26A28.11,28.11,0,0,0,92,128.09a11.88,11.88,0,0,0,5.53-.2,6.19,6.19,0,0,0,3.61-2.56,5.11,5.11,0,0,0,.66-1.19c.19-.48.3-1,.52-1.07-.51-.17-1-.32-1.55-.47-.35-.1-.52,0-.67.27a5,5,0,0,1-3,2.46.56.56,0,0,1-.77-.24h0s0,0,0,0c-.14-.35,0-.55.37-.66l.23-.08a4.28,4.28,0,0,0,2.08-1.6c.29-.43.27-.53-.3-.58-1.52-.15-3-.25-4.56-.37a.56.56,0,0,0-.66.43h0v0a4.51,4.51,0,0,1-2,2.39.55.55,0,0,1-.78-.06h0a.1.1,0,0,1,0,0c-.22-.32-.1-.55.19-.73a2.36,2.36,0,0,0,.45-.33,3.79,3.79,0,0,0,1.11-1.51,2,2,0,0,0-.35,0c-.66.08-1.31.19-2,.33-.86.23-1.69.54-2.53.83a.59.59,0,0,1-.77-.23c-.17-.29,0-.51.24-.66l.26-.12a16,16,0,0,1,4.58-1.14l.48-.09a3.24,3.24,0,0,0-1.85-1.4c-.47-.12-.7-.38-.63-.69s.41-.39.88-.25a4.16,4.16,0,0,1,2.53,2,.61.61,0,0,0,.6.34c.9,0,1.8,0,2.7.09s1.69.19,2.56.3a4.51,4.51,0,0,0-1.36-1.89,17.88,17.88,0,0,0-1.57-1c-.27-.17-.4-.38-.29-.64a.46.46,0,0,1,.6-.25l.06,0a4.52,4.52,0,0,1,.5.23,6.87,6.87,0,0,1,3.18,3.54.61.61,0,0,0,.46.43c.65.16,1.29.36,1.93.57l0,0c-.21-.08-.2-.06-.24-.09-.23-.14-.18-.5-.29-1.2a4.14,4.14,0,0,0-.09-.46,7.89,7.89,0,0,0-7.9-5.84,9.74,9.74,0,0,0-5.37,2.09,16,16,0,0,0-4.65,5.93c-.19.39-.39.77-.57,1.16a7.21,7.21,0,0,0-.25.7c-.2.55-.21.56.3.83"/><path id="Path_1639" data-name="Path 1639" class="cls-10" d="M86.81,122.84a.57.57,0,0,0,.77.22c.84-.29,1.67-.59,2.53-.82a18.68,18.68,0,0,1,2-.34l.35,0a3.66,3.66,0,0,1-1.11,1.52,3.72,3.72,0,0,1-.45.33c-.29.18-.41.41-.19.73a.56.56,0,0,0,.77.14l0,0a4.55,4.55,0,0,0,2-2.39.55.55,0,0,1,.64-.46h0c1.51.12,3,.22,4.55.36.56.06.59.15.3.59a4.17,4.17,0,0,1-2.08,1.59l-.23.08c-.32.12-.5.31-.36.67a.57.57,0,0,0,.75.28h0a5,5,0,0,0,3-2.46c.15-.32.32-.37.67-.27.53.14,1,.3,1.55.47h0s0,0,.14,0h0a22.44,22.44,0,0,1,4.34,2l.78.46c.29.16.56.17.74-.08s.07-.55-.21-.73c-.54-.34-1.08-.66-1.64-1a24.53,24.53,0,0,0-3.44-1.53h0s-.08,0-.35-.14h0c-.63-.22-1.27-.41-1.93-.58a.6.6,0,0,1-.45-.42,6.94,6.94,0,0,0-3.18-3.55l-.5-.23a.46.46,0,0,0-.63.16l0,.06c-.11.26,0,.47.29.64a18.48,18.48,0,0,1,1.56,1,4.44,4.44,0,0,1,1.37,1.89c-.87-.1-1.72-.24-2.56-.3s-1.8-.08-2.7-.09a.61.61,0,0,1-.6-.34,4.18,4.18,0,0,0-2.53-2c-.46-.14-.8,0-.87.25s.15.57.63.69a3.22,3.22,0,0,1,1.84,1.4l-.47.09a15.85,15.85,0,0,0-4.59,1.14,1.42,1.42,0,0,0-.25.12c-.27.14-.41.37-.24.66"/><path id="Path_1640" data-name="Path 1640" class="cls-10" d="M102.33,123.07h0l.15.05-.14-.06"/><path id="Path_1641" data-name="Path 1641" class="cls-10" d="M102.68,122.17c.27.11.31.15.35.14h0l-.37-.13"/></g></g></g><g id="Group_317" data-name="Group 317"><g class="cls-18"><g id="Group_316" data-name="Group 316"><path id="Path_1642" data-name="Path 1642" class="cls-10" d="M135.34,161c-.67.43-.82.75-.48,1.47.56,1.2,1.13,2.4,1.8,3.53a25.12,25.12,0,0,0,3.76,4.93,10.83,10.83,0,0,0,5.52,3.2,6.59,6.59,0,0,0,4.42-.67,2.64,2.64,0,0,0,.26-.16c.7-.44.9-.52.9-.68s0,0-.23-.41a0,0,0,0,0,0,0l-.08-.14c-.18-.11-.61.24-1,.49A4.88,4.88,0,0,1,149,173a6,6,0,0,1-4.24-.24,11.37,11.37,0,0,1-4.25-3.17,27,27,0,0,1-4.62-7.18c-.22-.51-.22-.51.27-.8.2-.12.4-.26.61-.37.36-.18.74-.35,1.12-.52a15.33,15.33,0,0,1,7-1.65,9.2,9.2,0,0,1,5.27,1.66,7.55,7.55,0,0,1,2.42,9.11l-.21.4c-.33.58-.59.82-.5,1.07,0,0,0,0,.12.21l0,0h0c.07.11.14.22.2.33s.54-.4,1-1.22a8.45,8.45,0,0,0-5.94-12.26,13,13,0,0,0-6.22.16,19.74,19.74,0,0,0-5.51,2.3l-.16.1"/><path id="Path_1643" data-name="Path 1643" class="cls-3" d="M135.84,162.41a26.88,26.88,0,0,0,4.62,7.18,11.34,11.34,0,0,0,4.25,3.17A6,6,0,0,0,149,173a5.14,5.14,0,0,0,1.21-.5c.43-.24.86-.59,1-.49-.28-.43-.58-.86-.88-1.28s-.37-.34-.66-.2a4.74,4.74,0,0,1-3.75,0c-.35-.12-.52-.39-.43-.67s.37-.39.67-.28l.23.08a4.14,4.14,0,0,0,2.51.06c.48-.16.52-.25.13-.62-1.05-1-2.12-2-3.19-3a.54.54,0,0,0-.75-.09l0,0a4.38,4.38,0,0,1-2.89.62.53.53,0,0,1-.55-.51v-.06c0-.38.26-.47.58-.44a2.33,2.33,0,0,0,.53,0,3.54,3.54,0,0,0,1.74-.46,1.37,1.37,0,0,0-.25-.23,18.19,18.19,0,0,0-1.67-.93c-.78-.34-1.58-.61-2.38-.9a.54.54,0,0,1-.43-.63c0-.32.28-.4.57-.35l.26.07a15.21,15.21,0,0,1,4.11,1.9l.42.22a3.15,3.15,0,0,0-.55-2.15c-.28-.38-.3-.71-.06-.9s.54,0,.81.34a4,4,0,0,1,.71,3,.57.57,0,0,0,.24.61c.67.54,1.33,1.1,2,1.68s1.14,1.16,1.73,1.76a4.33,4.33,0,0,0,.11-2.23,17.14,17.14,0,0,0-.54-1.72c-.1-.29-.07-.53.17-.66a.43.43,0,0,1,.59.17l0,.06a4.3,4.3,0,0,1,.24.48,6.57,6.57,0,0,1,.26,4.56.58.58,0,0,0,.09.59c.38.51.75,1,1.1,1.58l0,0c-.11-.2-.11-.18-.12-.22-.09-.24.17-.48.5-1.06l.2-.4a7.54,7.54,0,0,0-2.41-9.12,9.35,9.35,0,0,0-5.27-1.66,15.46,15.46,0,0,0-7,1.65c-.38.18-.76.34-1.12.53-.21.1-.4.24-.61.36-.49.3-.49.3-.27.8"/><path id="Path_1644" data-name="Path 1644" class="cls-10" d="M139.74,162.56a.55.55,0,0,0,.43.63c.8.28,1.6.55,2.38.9.57.28,1.13.59,1.67.92a1.84,1.84,0,0,1,.25.23,3.66,3.66,0,0,1-1.74.47,3.08,3.08,0,0,1-.53,0c-.33,0-.56.06-.58.44a.53.53,0,0,0,.49.57h.06a4.32,4.32,0,0,0,2.89-.62.54.54,0,0,1,.76,0v0c1.06,1,2.14,2,3.19,3,.39.37.35.46-.13.62a4.17,4.17,0,0,1-2.52-.06l-.22-.08c-.31-.11-.56-.08-.67.28s.08.55.43.67a4.72,4.72,0,0,0,3.74,0c.3-.15.46-.09.67.2s.59.85.87,1.28h0s0,0,.08.12a22.43,22.43,0,0,1,2.05,4.1l.3.82c.11.3.31.46.6.38s.38-.36.27-.67c-.2-.57-.42-1.14-.65-1.69a23.65,23.65,0,0,0-1.66-3.2h0s0-.07-.18-.32v0c-.35-.54-.71-1.07-1.1-1.58a.56.56,0,0,1-.09-.59,6.57,6.57,0,0,0-.26-4.56,3.58,3.58,0,0,0-.24-.48.43.43,0,0,0-.56-.26h0l-.06,0c-.25.13-.28.37-.17.66a16.37,16.37,0,0,1,.54,1.72,4.33,4.33,0,0,1-.11,2.23c-.59-.6-1.14-1.2-1.73-1.76s-1.3-1.14-2-1.69a.56.56,0,0,1-.24-.61,4,4,0,0,0-.71-3c-.27-.38-.58-.52-.81-.34s-.22.52.06.89a3.16,3.16,0,0,1,.55,2.15c-.17-.09-.3-.14-.42-.22a15.52,15.52,0,0,0-4.11-1.9l-.26-.06c-.29-.05-.53,0-.57.35"/><path id="Path_1645" data-name="Path 1645" class="cls-10" d="M151.21,172h0l.08.14c-.05-.11-.05-.11-.07-.12"/><path id="Path_1646" data-name="Path 1646" class="cls-10" d="M152,171.57c.13.24.14.3.18.31h0l-.2-.32"/></g></g></g><g id="Group_319" data-name="Group 319"><g class="cls-5"><g id="Group_318" data-name="Group 318"><path id="Path_1647" data-name="Path 1647" class="cls-19" d="M131.79,268.67H28.32a13.39,13.39,0,0,1-3.1-.15c-2.83-.66-4.54-2.81-4.29-5.33s2.18-4.34,5.21-4.62c.75,0,1.51-.06,2.27,0l64.35,0c2,.05,3.84-.66,4.6-1.77,2.39-2.5,6.38-4.3,11-5a48.29,48.29,0,0,1,8.74-.76c10.06,0,20.12-.06,30.18,0a36.38,36.38,0,0,1,14.29,2.58,13.27,13.27,0,0,1,4.94,3.4,4.31,4.31,0,0,0,3.75,1.48q32.38,0,64.77,0c.76,0,1.52,0,2.27,0,3.25.24,5.43,2.34,5.35,5.14s-2.3,4.81-5.59,4.94c-.75,0-1.51,0-2.26,0H131.78"/></g></g></g><g id="Group_323" data-name="Group 323"><g id="Group_322" data-name="Group 322"><g class="cls-20"><g id="Group_321" data-name="Group 321"><path id="Path_1648" data-name="Path 1648" class="cls-21" d="M98.79,240.48v6.6c0,1.43-.44,1.81-2.06,1.81-2.76,0-5.52,0-8.29,0-.73,0-1,.1-1,.83,0,4.24,0,8.48,0,12.72,0,1.29-.47,1.72-1.88,1.72H80.94c-1.43,0-1.91-.42-1.91-1.7,0-4.27,0-8.53,0-12.8,0-.6-.13-.78-.84-.78-8.2,0-16.4,0-24.61,0s-16.34,0-24.52,0c-.65,0-.87.12-.86.76,0,4.27,0,8.53,0,12.8,0,1.29-.47,1.72-1.88,1.72H21.57c-1.3,0-1.81-.46-1.81-1.62,0-4.3,0-8.59,0-12.88,0-.61-.15-.79-.85-.78-2.88,0-5.76,0-8.64,0-1.31,0-1.82-.46-1.82-1.63v-6.92c0-1.17.5-1.62,1.81-1.63,2.91,0,5.82,0,8.73,0,.63,0,.78-.14.77-.7,0-1.87,0-1.87-2.1-1.87H13c-1.18,0-1.71-.47-1.71-1.55V202.1c0-1.07.53-1.54,1.73-1.54,2,0,4,0,6,0,.64,0,.77-.16.76-.7,0-1.85,0-1.85-2-1.85h-7.4c-1.41,0-1.89-.44-1.89-1.73v-6.75c0-1.27.49-1.69,1.92-1.69,2.77,0,5.53,0,8.29,0,.84,0,1.21-.11,1.11-1a19.09,19.09,0,0,1,0-2.62c0-1,.53-1.52,1.66-1.53h5.11c1.14,0,1.68.48,1.69,1.49s0,2.07,0,3.1c0,.37.08.56.53.49h.44l48.86,0c.77,0,1.07-.13,1-.88a23.43,23.43,0,0,1,0-2.78c0-.93.55-1.43,1.57-1.44H85.9c1,0,1.57.5,1.59,1.42s0,2,0,3c0,.52.14.66.72.66,2.91,0,5.82,0,8.73,0,1.36,0,1.85.44,1.85,1.67,0,2.3,0,4.6,0,6.91,0,1.12-.51,1.58-1.76,1.59-2.94,0-5.88,0-8.82,0-.59,0-.72.14-.72.65,0,1.9,0,1.9,2.14,1.9H94.3c1.13,0,1.66.49,1.66,1.52v32.58c0,1-.54,1.5-1.68,1.5-2,0-4.06,0-6.09,0-.6,0-.71.16-.71.66,0,1.9,0,1.9,2.06,1.9h7.32c1.47,0,1.92.42,1.93,1.76m-2.8,1.7c.05-.78-.2-.94-1-.94q-41.32,0-82.65,0h-.43c-.46-.06-.6.1-.59.52,0,1.24.06,2.49,0,3.73,0,.7.18.86,1,.85q20.67,0,41.36,0H73.07c7.38,0,14.76,0,22.14,0,.62,0,.8-.13.77-.69a29.19,29.19,0,0,1,0-3.5m0-50.9c0-.73-.19-.9-1-.9q-40.66,0-81.32,0c-.59,0-1.18,0-1.77,0s-.64.11-.63.56c0,1.22.06,2.44,0,3.66,0,.72.19.9,1,.9q20.64,0,41.28,0l41.63,0c.65,0,.85-.13.81-.73a34.05,34.05,0,0,1,0-3.5m-3.72,42.39c.73,0,.9-.15.9-.81q0-14.46,0-28.93c0-.66-.17-.81-.9-.81q-19.28,0-38.54,0H15c-.73,0-.9.15-.9.81q0,14.46,0,28.93c0,.66.17.81.9.81q38.64,0,77.27,0m-8.21,28c.5,0,.64-.12.64-.57,0-1.91,0-3.82,0-5.73V250.8c0-1.94,0-1.91-2.11-1.93-.58,0-.73.14-.72.66,0,3.38,0,6.77,0,10.16,0,2,0,1.95,2.2,1.93m.62-62.39c0-1.21,0-1.21-1.3-1.21-1.52,0-1.52,0-1.52,1.33s0,1.21,1.31,1.21c1.51,0,1.51,0,1.51-1.33m-1.38-11.39c1.39,0,1.39,0,1.39-1.21s0-1.33-1.44-1.33-1.39,0-1.39,1.21,0,1.33,1.44,1.33m0,50.87c1.36,0,1.36,0,1.36-1.24s0-1.3-1.47-1.3-1.36,0-1.36,1.24,0,1.3,1.46,1.3M79.05,198.9c0-.73-.19-.9-1-.9q-24,0-47.89,0c-2,0-1.91,0-2,1.74,0,.67.17.82.9.82,8.14,0,16.29,0,24.43,0H77.17c1.86,0,1.82,0,1.88-1.66m0,38.07c0-.66-.17-.82-.9-.82-8.15,0-16.29,0-24.43,0H30.08c-1.86,0-1.81,0-1.88,1.67,0,.72.19.9,1,.89q24,0,47.89,0c2,0,1.91,0,2-1.74M24.78,261.62c.5,0,.64-.13.63-.57,0-1.94,0-3.87,0-5.8V250.8c0-1.94,0-1.91-2.12-1.93-.57,0-.72.14-.72.66,0,3.38,0,6.78,0,10.16,0,2,0,1.95,2.2,1.93m.62-75.1c0-1.22,0-1.22-1.3-1.22-1.53,0-1.53,0-1.53,1.41,0,1.13,0,1.13,1.3,1.13,1.53,0,1.53,0,1.53-1.32m-1.31,14c1.31,0,1.31,0,1.31-1.2s0-1.34-1.51-1.34c-1.31,0-1.31,0-1.31,1.2s0,1.34,1.51,1.34M24,238.71c1.36,0,1.36,0,1.36-1.23s0-1.31-1.46-1.31-1.36,0-1.36,1.23,0,1.31,1.46,1.31"/><path id="Path_1649" data-name="Path 1649" class="cls-8" d="M95,241.24c.84,0,1.1.16,1,.93a27.26,27.26,0,0,0,0,3.5c0,.57-.15.69-.77.69-7.38,0-14.76,0-22.14,0H12.22c-.77,0-1-.15-1-.85.07-1.24,0-2.49,0-3.73,0-.43.13-.58.59-.52a3.23,3.23,0,0,0,.44,0l82.64,0M84.67,243.8c0-1.27,0-1.27-1.4-1.27s-1.42,0-1.42,1.27,0,1.27,1.4,1.27,1.42,0,1.42-1.27m-59.27,0c0-1.23,0-1.23-1.37-1.23s-1.46,0-1.46,1.31,0,1.23,1.37,1.23,1.46,0,1.46-1.31"/><path id="Path_1650" data-name="Path 1650" class="cls-8" d="M95,190.37c.8,0,1,.17,1,.9a34.05,34.05,0,0,0,0,3.5c0,.6-.17.73-.81.73q-20.82,0-41.63,0H12.26c-.8,0-1-.17-1-.9.07-1.21,0-2.43,0-3.65,0-.46.13-.6.63-.57s1.18,0,1.77,0H95M83.31,194.2c1.36,0,1.36,0,1.36-1.23s0-1.31-1.46-1.31-1.36,0-1.36,1.24,0,1.3,1.46,1.3M25.4,192.88c0-1.22,0-1.22-1.38-1.22s-1.44,0-1.44,1.32,0,1.22,1.38,1.22,1.44,0,1.44-1.32"/><path id="Path_1651" data-name="Path 1651" class="cls-22" d="M93.16,232.83c0,.66-.18.81-.9.81q-38.64,0-77.27,0c-.73,0-.9-.15-.9-.81q0-14.46,0-28.93c0-.66.17-.81.9-.81q19.36,0,38.73,0H92.26c.73,0,.9.15.9.81q0,14.46,0,28.93m-2.84-26c0-1.23,0-1.23-1.38-1.23s-1.45,0-1.45,1.32,0,1.22,1.38,1.22,1.45,0,1.45-1.31m0,22.9c0-1.24,0-1.24-1.37-1.24s-1.46,0-1.46,1.31,0,1.24,1.37,1.24,1.46,0,1.46-1.32m-70.57,0c0-1.28,0-1.28-1.4-1.28s-1.42,0-1.42,1.26,0,1.29,1.4,1.29,1.42,0,1.42-1.27m0-22.9c0-1.27,0-1.27-1.4-1.27s-1.42,0-1.42,1.27,0,1.28,1.41,1.28,1.41,0,1.41-1.28"/><path id="Path_1652" data-name="Path 1652" class="cls-21" d="M88.94,205.65c1.38,0,1.38,0,1.38,1.23s0,1.31-1.45,1.31-1.38,0-1.38-1.22,0-1.32,1.45-1.32"/><path id="Path_1653" data-name="Path 1653" class="cls-21" d="M89,228.54c1.37,0,1.37,0,1.37,1.23s0,1.31-1.45,1.31-1.37,0-1.37-1.23,0-1.31,1.45-1.31"/><path id="Path_1654" data-name="Path 1654" class="cls-8" d="M84.69,261.05c0,.45-.14.56-.64.57-2.2,0-2.2,0-2.2-1.93,0-3.39,0-6.77,0-10.16,0-.52.14-.66.72-.66,2.12,0,2.12,0,2.12,1.93v4.52c0,1.91,0,3.82,0,5.73"/><path id="Path_1655" data-name="Path 1655" class="cls-8" d="M83.37,198c1.3,0,1.3,0,1.3,1.21s0,1.33-1.52,1.33c-1.3,0-1.3,0-1.3-1.21s0-1.33,1.52-1.33"/><path id="Path_1656" data-name="Path 1656" class="cls-8" d="M84.68,186.63c0,1.21,0,1.21-1.39,1.21s-1.44,0-1.44-1.32,0-1.22,1.39-1.22,1.43,0,1.43,1.33"/><path id="Path_1657" data-name="Path 1657" class="cls-21" d="M84.68,193c0,1.23,0,1.23-1.36,1.23s-1.47,0-1.47-1.3,0-1.24,1.36-1.24,1.47,0,1.47,1.31"/><path id="Path_1658" data-name="Path 1658" class="cls-8" d="M84.68,237.48c0,1.24,0,1.24-1.36,1.24s-1.47,0-1.47-1.31,0-1.24,1.36-1.24,1.47,0,1.47,1.31"/><path id="Path_1659" data-name="Path 1659" class="cls-21" d="M83.27,242.53c1.41,0,1.41,0,1.41,1.27s0,1.27-1.42,1.27-1.41,0-1.41-1.27,0-1.27,1.42-1.27"/><path id="Path_1660" data-name="Path 1660" class="cls-8" d="M25.41,261.05c0,.44-.13.56-.63.57-2.2,0-2.2,0-2.2-1.93,0-3.38,0-6.77,0-10.16,0-.52.15-.66.72-.66,2.12,0,2.12,0,2.12,1.93v4.44c0,1.94,0,3.87,0,5.8"/><path id="Path_1661" data-name="Path 1661" class="cls-8" d="M24.1,185.3c1.3,0,1.3,0,1.3,1.22s0,1.33-1.52,1.33c-1.3,0-1.3,0-1.3-1.14,0-1.41,0-1.41,1.53-1.41"/><path id="Path_1662" data-name="Path 1662" class="cls-8" d="M25.4,199.36c0,1.2,0,1.2-1.31,1.2-1.51,0-1.51,0-1.51-1.34s0-1.2,1.31-1.2c1.51,0,1.51,0,1.51,1.34"/><path id="Path_1663" data-name="Path 1663" class="cls-21" d="M24,191.66c1.38,0,1.38,0,1.38,1.22s0,1.32-1.44,1.32-1.38,0-1.38-1.22,0-1.32,1.44-1.32"/><path id="Path_1664" data-name="Path 1664" class="cls-8" d="M25.4,237.48c0,1.23,0,1.23-1.36,1.23s-1.46,0-1.46-1.31,0-1.23,1.37-1.23,1.45,0,1.45,1.31"/><path id="Path_1665" data-name="Path 1665" class="cls-21" d="M24,242.53c1.37,0,1.37,0,1.37,1.23s0,1.31-1.45,1.31-1.37,0-1.37-1.23,0-1.31,1.45-1.31"/><path id="Path_1666" data-name="Path 1666" class="cls-21" d="M18.36,228.54c1.4,0,1.4,0,1.4,1.28s0,1.26-1.43,1.26-1.4,0-1.4-1.28,0-1.26,1.43-1.26"/><path id="Path_1667" data-name="Path 1667" class="cls-21" d="M18.35,205.65c1.4,0,1.4,0,1.4,1.27s0,1.27-1.41,1.27-1.41,0-1.41-1.27,0-1.27,1.42-1.27"/></g></g></g><g id="One_piece_of_leaf_will_emerge_when_one_record_is_uploaded._" data-name="One piece of leaf will emerge when one record is uploaded. " class="cls-23"><g class="cls-23"><path class="cls-24" d="M21.73,211.4a1.4,1.4,0,0,1-.66-.15,1.29,1.29,0,0,1-.45-.42,2,2,0,0,1-.27-.68,5.27,5.27,0,0,1,0-1.83,2,2,0,0,1,.27-.68,1.23,1.23,0,0,1,.45-.43,1.53,1.53,0,0,1,.66-.14,1.46,1.46,0,0,1,.66.14,1.19,1.19,0,0,1,.46.43,1.82,1.82,0,0,1,.26.68,4.7,4.7,0,0,1,0,1.83,1.82,1.82,0,0,1-.26.68,1.24,1.24,0,0,1-.46.42A1.34,1.34,0,0,1,21.73,211.4Zm0-.44a.83.83,0,0,0,.43-.1.78.78,0,0,0,.29-.28,1.28,1.28,0,0,0,.16-.43,2.52,2.52,0,0,0,.05-.57v-.69a2.52,2.52,0,0,0-.05-.57,1.34,1.34,0,0,0-.16-.44.86.86,0,0,0-.29-.28.94.94,0,0,0-.43-.1.9.9,0,0,0-.42.1.86.86,0,0,0-.29.28,1.35,1.35,0,0,0-.17.44,3.27,3.27,0,0,0-.05.57v.69a3.27,3.27,0,0,0,.05.57,1.29,1.29,0,0,0,.17.43.78.78,0,0,0,.29.28A.79.79,0,0,0,21.73,211Z"/><path class="cls-24" d="M24.12,211.33v-3.1h.48v.51h0a1.59,1.59,0,0,1,.13-.22.61.61,0,0,1,.17-.19,1,1,0,0,1,.25-.12.9.9,0,0,1,.34-.05,1,1,0,0,1,.78.31,1.22,1.22,0,0,1,.29.87v2H26.1v-1.91a1,1,0,0,0-.18-.63.71.71,0,0,0-.55-.21,1.26,1.26,0,0,0-.28,0,1,1,0,0,0-.25.11.52.52,0,0,0-.17.19.44.44,0,0,0-.07.26v2.15Z"/><path class="cls-24" d="M29,211.4a1.66,1.66,0,0,1-.61-.11,1.35,1.35,0,0,1-.45-.33,1.42,1.42,0,0,1-.29-.51,2,2,0,0,1-.1-.66,2.07,2.07,0,0,1,.1-.68,1.58,1.58,0,0,1,.29-.51,1.25,1.25,0,0,1,.45-.33,1.54,1.54,0,0,1,.58-.11,1.43,1.43,0,0,1,.56.11,1.28,1.28,0,0,1,.44.32,1.41,1.41,0,0,1,.28.48,1.89,1.89,0,0,1,.09.6v.23H28V210a.92.92,0,0,0,.07.38.75.75,0,0,0,.18.3,1.21,1.21,0,0,0,.3.2,1.24,1.24,0,0,0,.4.07,1,1,0,0,0,.54-.15,1,1,0,0,0,.35-.39l.35.24a1.24,1.24,0,0,1-.46.51A1.48,1.48,0,0,1,29,211.4Zm0-2.85a.91.91,0,0,0-.37.08.72.72,0,0,0-.29.2.81.81,0,0,0-.19.29,1,1,0,0,0-.07.38v0h1.78v-.07a1.11,1.11,0,0,0-.07-.37.92.92,0,0,0-.17-.29,1,1,0,0,0-.27-.19A1,1,0,0,0,29,208.55Z"/><path class="cls-24" d="M34.9,208.23h.48v.51h0a1,1,0,0,1,1-.58,1.05,1.05,0,0,1,.89.42,1.94,1.94,0,0,1,.32,1.2,1.89,1.89,0,0,1-.32,1.19,1,1,0,0,1-.89.43,1,1,0,0,1-1-.58h0v1.71H34.9ZM36.17,211a.85.85,0,0,0,.66-.25,1,1,0,0,0,.23-.68v-.52a1,1,0,0,0-.23-.68.85.85,0,0,0-.66-.26,1,1,0,0,0-.3,0,.83.83,0,0,0-.25.12.47.47,0,0,0-.17.2.5.5,0,0,0-.07.27v1.12a.5.5,0,0,0,.07.27.54.54,0,0,0,.17.2.83.83,0,0,0,.25.12A1,1,0,0,0,36.17,211Z"/><path class="cls-24" d="M38.57,210.91h1.11v-2.26H38.57v-.42h1.6v2.68h1v.42H38.57Zm1.35-3.36a.4.4,0,0,1-.29-.09.33.33,0,0,1-.08-.22v-.09a.31.31,0,0,1,.08-.22.4.4,0,0,1,.29-.09.41.41,0,0,1,.3.09.31.31,0,0,1,.08.22v.09a.33.33,0,0,1-.08.22A.41.41,0,0,1,39.92,207.55Z"/><path class="cls-24" d="M43.39,211.4a1.66,1.66,0,0,1-.61-.11,1.35,1.35,0,0,1-.45-.33,1.28,1.28,0,0,1-.29-.51,2,2,0,0,1-.11-.66,2.06,2.06,0,0,1,.11-.68,1.58,1.58,0,0,1,.29-.51,1.35,1.35,0,0,1,.45-.33,1.5,1.5,0,0,1,.58-.11,1.47,1.47,0,0,1,.56.11,1.28,1.28,0,0,1,.44.32,1.25,1.25,0,0,1,.27.48,1.64,1.64,0,0,1,.1.6v.23H42.44V210a1.12,1.12,0,0,0,.06.38.91.91,0,0,0,.19.3,1.21,1.21,0,0,0,.3.2,1.24,1.24,0,0,0,.4.07,1,1,0,0,0,.54-.15.94.94,0,0,0,.35-.39l.35.24a1.24,1.24,0,0,1-.46.51A1.46,1.46,0,0,1,43.39,211.4Zm0-2.85a.87.87,0,0,0-.37.08.72.72,0,0,0-.29.2.81.81,0,0,0-.19.29,1,1,0,0,0-.07.38v0h1.77v-.07a1.1,1.1,0,0,0-.06-.37.92.92,0,0,0-.17-.29,1,1,0,0,0-.27-.19A1,1,0,0,0,43.36,208.55Z"/><path class="cls-24" d="M47,211.4a1.46,1.46,0,0,1-.6-.12A1.43,1.43,0,0,1,46,211a1.38,1.38,0,0,1-.27-.51,2.54,2.54,0,0,1,0-1.34,1.56,1.56,0,0,1,.28-.51,1.31,1.31,0,0,1,.44-.33,1.55,1.55,0,0,1,.59-.11,1.28,1.28,0,0,1,.73.2,1.14,1.14,0,0,1,.41.51l-.38.21a.71.71,0,0,0-.28-.37.83.83,0,0,0-.48-.14,1.07,1.07,0,0,0-.38.07.8.8,0,0,0-.28.2.74.74,0,0,0-.17.3,1.12,1.12,0,0,0-.06.38V210a1.12,1.12,0,0,0,.06.38.74.74,0,0,0,.17.3,1,1,0,0,0,.28.2,1.18,1.18,0,0,0,.39.07.83.83,0,0,0,.51-.15,1,1,0,0,0,.33-.39l.34.23a1.27,1.27,0,0,1-.43.52A1.34,1.34,0,0,1,47,211.4Z"/><path class="cls-24" d="M50.59,211.4a1.66,1.66,0,0,1-.61-.11,1.35,1.35,0,0,1-.45-.33,1.28,1.28,0,0,1-.29-.51,2,2,0,0,1-.11-.66,2.06,2.06,0,0,1,.11-.68,1.58,1.58,0,0,1,.29-.51,1.35,1.35,0,0,1,.45-.33,1.5,1.5,0,0,1,.58-.11,1.47,1.47,0,0,1,.56.11,1.28,1.28,0,0,1,.44.32,1.25,1.25,0,0,1,.27.48,1.64,1.64,0,0,1,.1.6v.23H49.64V210a.92.92,0,0,0,.07.38.75.75,0,0,0,.18.3,1.21,1.21,0,0,0,.3.2,1.24,1.24,0,0,0,.4.07,1,1,0,0,0,.54-.15.94.94,0,0,0,.35-.39l.35.24a1.24,1.24,0,0,1-.46.51A1.46,1.46,0,0,1,50.59,211.4Zm0-2.85a.87.87,0,0,0-.37.08.72.72,0,0,0-.29.2.81.81,0,0,0-.19.29,1,1,0,0,0-.07.38v0h1.78v-.07a1.11,1.11,0,0,0-.07-.37.92.92,0,0,0-.17-.29,1,1,0,0,0-.27-.19A1,1,0,0,0,50.56,208.55Z"/><path class="cls-24" d="M57.73,211.4a1.54,1.54,0,0,1-.58-.11,1.35,1.35,0,0,1-.45-.33,1.56,1.56,0,0,1-.28-.51,2.31,2.31,0,0,1-.09-.67,2.36,2.36,0,0,1,.09-.67,1.56,1.56,0,0,1,.28-.51,1.35,1.35,0,0,1,.45-.33,1.54,1.54,0,0,1,.58-.11,1.59,1.59,0,0,1,.59.11,1.31,1.31,0,0,1,.44.33,1.4,1.4,0,0,1,.28.51,2.35,2.35,0,0,1,.1.67,2.3,2.3,0,0,1-.1.67,1.4,1.4,0,0,1-.28.51,1.31,1.31,0,0,1-.44.33A1.59,1.59,0,0,1,57.73,211.4Zm0-.41a.88.88,0,0,0,.65-.24,1,1,0,0,0,.25-.75v-.44a1,1,0,0,0-.25-.75.88.88,0,0,0-.65-.24.9.9,0,0,0-.65.24,1,1,0,0,0-.24.75V210a1,1,0,0,0,.24.75A.9.9,0,0,0,57.73,211Z"/><path class="cls-24" d="M60,210.91h1v-2.26H60v-.42h1.11v-.64a.8.8,0,0,1,.16-.51.64.64,0,0,1,.52-.19h1v.41H61.55v.93H62.8v.42H61.55v2.26h1.11v.42H60Z"/><path class="cls-24" d="M67.21,210.91h1.08V207.3H67.21v-.41h1.56v4h1.08v.42H67.21Z"/><path class="cls-24" d="M72.19,211.4a1.66,1.66,0,0,1-.61-.11,1.35,1.35,0,0,1-.45-.33,1.28,1.28,0,0,1-.29-.51,2,2,0,0,1-.11-.66,2.06,2.06,0,0,1,.11-.68,1.58,1.58,0,0,1,.29-.51,1.25,1.25,0,0,1,.45-.33,1.5,1.5,0,0,1,.58-.11,1.47,1.47,0,0,1,.56.11,1.28,1.28,0,0,1,.44.32,1.25,1.25,0,0,1,.27.48,1.64,1.64,0,0,1,.1.6v.23H71.24V210a1.12,1.12,0,0,0,.06.38.91.91,0,0,0,.19.3,1.21,1.21,0,0,0,.3.2,1.24,1.24,0,0,0,.4.07,1,1,0,0,0,.54-.15.94.94,0,0,0,.35-.39l.35.24a1.24,1.24,0,0,1-.46.51A1.46,1.46,0,0,1,72.19,211.4Zm0-2.85a.87.87,0,0,0-.37.08.72.72,0,0,0-.29.2.81.81,0,0,0-.19.29,1,1,0,0,0-.07.38v0H73v-.07a1.1,1.1,0,0,0-.06-.37.92.92,0,0,0-.17-.29,1,1,0,0,0-.27-.19A1,1,0,0,0,72.16,208.55Z"/><path class="cls-24" d="M76.9,211.33a.48.48,0,0,1-.4-.15.66.66,0,0,1-.15-.36h0a.94.94,0,0,1-.33.43,1.07,1.07,0,0,1-.6.15,1.12,1.12,0,0,1-.77-.25.85.85,0,0,1-.29-.69.79.79,0,0,1,.31-.67,1.71,1.71,0,0,1,1-.23h.66v-.31a.66.66,0,0,0-.19-.51.82.82,0,0,0-.55-.17.88.88,0,0,0-.51.13.92.92,0,0,0-.32.33l-.32-.24a1.11,1.11,0,0,1,.16-.24,1.29,1.29,0,0,1,.25-.2,1.6,1.6,0,0,1,.35-.14,1.79,1.79,0,0,1,.42-.05,1.25,1.25,0,0,1,.87.28,1,1,0,0,1,.32.77v1.7h.43v.42ZM75.47,211a1.16,1.16,0,0,0,.34-.05,1,1,0,0,0,.27-.12.52.52,0,0,0,.18-.18.43.43,0,0,0,.06-.22v-.51h-.66A1.25,1.25,0,0,0,75,210a.38.38,0,0,0-.2.34v.13a.42.42,0,0,0,.17.36A.75.75,0,0,0,75.47,211Z"/><path class="cls-24" d="M78,210.91h1v-2.26H78v-.42h1.1v-.64a.8.8,0,0,1,.17-.51.64.64,0,0,1,.52-.19h1v.41H79.55v.93H80.8v.42H79.55v2.26h1.11v.42H78Z"/></g><g class="cls-23"><path class="cls-24" d="M20.11,216.23h.43l.35,2.68H21l.53-2.68H22l.53,2.68h0l.36-2.68h.41l-.47,3.1h-.63l-.49-2.59h0l-.51,2.59h-.62Z"/><path class="cls-24" d="M24.17,218.91h1.12v-2.26H24.17v-.42h1.6v2.68h1v.42H24.17Zm1.36-3.36a.41.41,0,0,1-.3-.09.33.33,0,0,1-.08-.22v-.09a.31.31,0,0,1,.08-.22.41.41,0,0,1,.3-.09.39.39,0,0,1,.29.09.27.27,0,0,1,.08.22v.09a.29.29,0,0,1-.08.22A.39.39,0,0,1,25.53,215.55Z"/><path class="cls-24" d="M27.61,218.91h1.08V215.3H27.61v-.41h1.56v4h1.08v.42H27.61Z"/><path class="cls-24" d="M31.21,218.91h1.08V215.3H31.21v-.41h1.56v4h1.08v.42H31.21Z"/><path class="cls-24" d="M39.79,219.4a1.66,1.66,0,0,1-.61-.11,1.35,1.35,0,0,1-.45-.33,1.28,1.28,0,0,1-.29-.51,2,2,0,0,1-.11-.66,2.06,2.06,0,0,1,.11-.68,1.58,1.58,0,0,1,.29-.51,1.25,1.25,0,0,1,.45-.33,1.5,1.5,0,0,1,.58-.11,1.47,1.47,0,0,1,.56.11,1.28,1.28,0,0,1,.44.32,1.41,1.41,0,0,1,.28.48,1.89,1.89,0,0,1,.09.6v.23H38.84V218a.92.92,0,0,0,.07.38.75.75,0,0,0,.18.3,1.21,1.21,0,0,0,.3.2,1.24,1.24,0,0,0,.4.07,1,1,0,0,0,.54-.15.92.92,0,0,0,.34-.39l.36.24a1.24,1.24,0,0,1-.46.51A1.48,1.48,0,0,1,39.79,219.4Zm0-2.85a.87.87,0,0,0-.37.08.72.72,0,0,0-.29.2.81.81,0,0,0-.19.29,1,1,0,0,0-.07.38v0h1.78v-.07a1.11,1.11,0,0,0-.07-.37.92.92,0,0,0-.17-.29,1,1,0,0,0-.27-.19A1,1,0,0,0,39.76,216.55Z"/><path class="cls-24" d="M41.86,219.33v-3.1h.44v.36h0a.69.69,0,0,1,.2-.3.53.53,0,0,1,.39-.13.54.54,0,0,1,.4.13.6.6,0,0,1,.16.36h0a.91.91,0,0,1,.24-.35.63.63,0,0,1,.43-.14.53.53,0,0,1,.51.26,1.73,1.73,0,0,1,.13.76v2.15h-.44v-2.07a1.16,1.16,0,0,0-.09-.55.3.3,0,0,0-.29-.16.44.44,0,0,0-.32.13.5.5,0,0,0-.12.37v2.28h-.44v-2.07a1.34,1.34,0,0,0-.08-.55.3.3,0,0,0-.29-.16.46.46,0,0,0-.32.13.5.5,0,0,0-.12.37v2.28Z"/><path class="cls-24" d="M47,219.4a1.66,1.66,0,0,1-.61-.11,1.35,1.35,0,0,1-.45-.33,1.42,1.42,0,0,1-.29-.51,2,2,0,0,1-.1-.66,2.07,2.07,0,0,1,.1-.68,1.58,1.58,0,0,1,.29-.51,1.25,1.25,0,0,1,.45-.33,1.54,1.54,0,0,1,.58-.11,1.43,1.43,0,0,1,.56.11,1.28,1.28,0,0,1,.44.32,1.41,1.41,0,0,1,.28.48,1.89,1.89,0,0,1,.09.6v.23H46V218a.92.92,0,0,0,.07.38.75.75,0,0,0,.18.3,1.21,1.21,0,0,0,.3.2,1.24,1.24,0,0,0,.4.07,1,1,0,0,0,.54-.15,1,1,0,0,0,.35-.39l.35.24a1.24,1.24,0,0,1-.46.51A1.48,1.48,0,0,1,47,219.4Zm0-2.85a.91.91,0,0,0-.37.08.72.72,0,0,0-.29.2.81.81,0,0,0-.19.29,1,1,0,0,0-.07.38v0h1.78v-.07a1.11,1.11,0,0,0-.07-.37.92.92,0,0,0-.17-.29,1,1,0,0,0-.27-.19A1,1,0,0,0,47,216.55Z"/><path class="cls-24" d="M49.2,218.91h.9v-2.26h-.9v-.42h1.38V217h0a1.06,1.06,0,0,1,.36-.57,1.09,1.09,0,0,1,.69-.21h.43v.48H51.5a.92.92,0,0,0-.66.24.83.83,0,0,0-.26.63v1.33h1.2v.42H49.2Z"/><path class="cls-24" d="M55.7,219.68a.75.75,0,0,1-.39.7,2.53,2.53,0,0,1-1.17.22,2.22,2.22,0,0,1-1.08-.2.62.62,0,0,1-.33-.57.53.53,0,0,1,.14-.39.77.77,0,0,1,.37-.2v-.07A.49.49,0,0,1,53,219a.45.45,0,0,1-.08-.26.44.44,0,0,1,.16-.36,1.13,1.13,0,0,1,.4-.18v0a1,1,0,0,1-.45-.37,1.05,1.05,0,0,1-.15-.57,1.08,1.08,0,0,1,.08-.44.88.88,0,0,1,.24-.33,1,1,0,0,1,.38-.22,1.54,1.54,0,0,1,.5-.08,1.33,1.33,0,0,1,.61.13v-.06a.43.43,0,0,1,.08-.29.33.33,0,0,1,.29-.12h.57v.41H55v.21a1.06,1.06,0,0,1,.26.34,1.1,1.1,0,0,1,.09.45,1,1,0,0,1-.09.43A1,1,0,0,1,55,218a1.09,1.09,0,0,1-.38.22,1.57,1.57,0,0,1-.49.07H54l-.14,0-.15,0-.14.07a.38.38,0,0,0-.11.11.23.23,0,0,0,0,.14.17.17,0,0,0,.13.18,1.27,1.27,0,0,0,.37.05h.68a1.36,1.36,0,0,1,.87.22A.74.74,0,0,1,55.7,219.68Zm-.45,0a.34.34,0,0,0-.15-.3.85.85,0,0,0-.52-.11H53.5a.42.42,0,0,0-.31.42.5.5,0,0,0,.16.35.79.79,0,0,0,.54.14h.47a1.42,1.42,0,0,0,.65-.12A.42.42,0,0,0,55.25,219.71Zm-1.13-1.79a.72.72,0,0,0,.53-.17.59.59,0,0,0,.17-.44v-.17a.59.59,0,0,0-.17-.44.77.77,0,0,0-.53-.17.73.73,0,0,0-.53.17.55.55,0,0,0-.17.44v.17a.55.55,0,0,0,.17.44A.69.69,0,0,0,54.12,217.92Z"/><path class="cls-24" d="M57.79,219.4a1.66,1.66,0,0,1-.61-.11,1.35,1.35,0,0,1-.45-.33,1.28,1.28,0,0,1-.29-.51,2,2,0,0,1-.11-.66,2.06,2.06,0,0,1,.11-.68,1.58,1.58,0,0,1,.29-.51,1.25,1.25,0,0,1,.45-.33,1.5,1.5,0,0,1,.58-.11,1.47,1.47,0,0,1,.56.11,1.28,1.28,0,0,1,.44.32,1.41,1.41,0,0,1,.28.48,1.89,1.89,0,0,1,.09.6v.23H56.84V218a.92.92,0,0,0,.07.38.75.75,0,0,0,.18.3,1.21,1.21,0,0,0,.3.2,1.24,1.24,0,0,0,.4.07,1,1,0,0,0,.54-.15.92.92,0,0,0,.34-.39l.36.24a1.24,1.24,0,0,1-.46.51A1.48,1.48,0,0,1,57.79,219.4Zm0-2.85a.87.87,0,0,0-.37.08.72.72,0,0,0-.29.2.81.81,0,0,0-.19.29,1,1,0,0,0-.07.38v0h1.78v-.07a1.11,1.11,0,0,0-.07-.37.92.92,0,0,0-.17-.29,1,1,0,0,0-.27-.19A1,1,0,0,0,57.76,216.55Z"/><path class="cls-24" d="M63.31,216.23h.43l.35,2.68h.06l.52-2.68h.53l.53,2.68h0l.36-2.68h.41l-.47,3.1h-.63L65,216.74h0l-.51,2.59h-.62Z"/><path class="cls-24" d="M67.32,214.89h.48v1.85h0l.12-.22a.81.81,0,0,1,.18-.19.83.83,0,0,1,.25-.12.9.9,0,0,1,.34-.05,1,1,0,0,1,.78.31,1.22,1.22,0,0,1,.29.87v2H69.3v-1.91a.9.9,0,0,0-.19-.63.67.67,0,0,0-.54-.21,1.26,1.26,0,0,0-.28,0,.82.82,0,0,0-.25.11.52.52,0,0,0-.17.19.44.44,0,0,0-.07.26v2.15h-.48Z"/><path class="cls-24" d="M72.19,219.4a1.66,1.66,0,0,1-.61-.11,1.35,1.35,0,0,1-.45-.33,1.28,1.28,0,0,1-.29-.51,2,2,0,0,1-.11-.66,2.06,2.06,0,0,1,.11-.68,1.58,1.58,0,0,1,.29-.51,1.25,1.25,0,0,1,.45-.33,1.5,1.5,0,0,1,.58-.11,1.47,1.47,0,0,1,.56.11,1.28,1.28,0,0,1,.44.32,1.25,1.25,0,0,1,.27.48,1.64,1.64,0,0,1,.1.6v.23H71.24V218a1.12,1.12,0,0,0,.06.38.91.91,0,0,0,.19.3,1.21,1.21,0,0,0,.3.2,1.24,1.24,0,0,0,.4.07,1,1,0,0,0,.54-.15.94.94,0,0,0,.35-.39l.35.24a1.24,1.24,0,0,1-.46.51A1.46,1.46,0,0,1,72.19,219.4Zm0-2.85a.87.87,0,0,0-.37.08.72.72,0,0,0-.29.2.81.81,0,0,0-.19.29,1,1,0,0,0-.07.38v0H73v-.07a1.1,1.1,0,0,0-.06-.37.92.92,0,0,0-.17-.29,1,1,0,0,0-.27-.19A1,1,0,0,0,72.16,216.55Z"/><path class="cls-24" d="M74.52,219.33v-3.1H75v.51h0l.12-.22a.81.81,0,0,1,.18-.19.83.83,0,0,1,.25-.12.9.9,0,0,1,.34-.05,1,1,0,0,1,.78.31,1.22,1.22,0,0,1,.29.87v2H76.5v-1.91a.9.9,0,0,0-.19-.63.67.67,0,0,0-.54-.21,1.26,1.26,0,0,0-.28,0,.82.82,0,0,0-.25.11.52.52,0,0,0-.17.19.44.44,0,0,0-.07.26v2.15Z"/><path class="cls-24" d="M82.93,219.4a1.54,1.54,0,0,1-.58-.11,1.35,1.35,0,0,1-.45-.33,1.56,1.56,0,0,1-.28-.51,2.31,2.31,0,0,1-.09-.67,2.36,2.36,0,0,1,.09-.67,1.56,1.56,0,0,1,.28-.51,1.35,1.35,0,0,1,.45-.33,1.54,1.54,0,0,1,.58-.11,1.59,1.59,0,0,1,.59.11,1.31,1.31,0,0,1,.44.33,1.4,1.4,0,0,1,.28.51,2.35,2.35,0,0,1,.1.67,2.3,2.3,0,0,1-.1.67A1.4,1.4,0,0,1,84,219a1.31,1.31,0,0,1-.44.33A1.59,1.59,0,0,1,82.93,219.4Zm0-.41a.88.88,0,0,0,.65-.24,1,1,0,0,0,.25-.75v-.44a1,1,0,0,0-.25-.75.88.88,0,0,0-.65-.24.9.9,0,0,0-.65.24,1,1,0,0,0-.24.75V218a1,1,0,0,0,.24.75A.9.9,0,0,0,82.93,219Z"/><path class="cls-24" d="M85.32,219.33v-3.1h.48v.51h0l.12-.22a.81.81,0,0,1,.18-.19.83.83,0,0,1,.25-.12.9.9,0,0,1,.34-.05,1,1,0,0,1,.78.31,1.22,1.22,0,0,1,.29.87v2H87.3v-1.91a.9.9,0,0,0-.19-.63.67.67,0,0,0-.54-.21,1.26,1.26,0,0,0-.28,0,.82.82,0,0,0-.25.11.52.52,0,0,0-.17.19.44.44,0,0,0-.07.26v2.15Z"/><path class="cls-24" d="M90.19,219.4a1.66,1.66,0,0,1-.61-.11,1.35,1.35,0,0,1-.45-.33,1.28,1.28,0,0,1-.29-.51,2,2,0,0,1-.11-.66,2.06,2.06,0,0,1,.11-.68,1.58,1.58,0,0,1,.29-.51,1.25,1.25,0,0,1,.45-.33,1.5,1.5,0,0,1,.58-.11,1.47,1.47,0,0,1,.56.11,1.28,1.28,0,0,1,.44.32,1.25,1.25,0,0,1,.27.48,1.64,1.64,0,0,1,.1.6v.23H89.24V218a1.12,1.12,0,0,0,.06.38.91.91,0,0,0,.19.3,1,1,0,0,0,.3.2,1.24,1.24,0,0,0,.4.07,1,1,0,0,0,.54-.15.92.92,0,0,0,.34-.39l.36.24a1.24,1.24,0,0,1-.46.51A1.51,1.51,0,0,1,90.19,219.4Zm0-2.85a.87.87,0,0,0-.37.08.72.72,0,0,0-.29.2.81.81,0,0,0-.19.29,1,1,0,0,0-.07.38v0H91v-.07a1.1,1.1,0,0,0-.06-.37.92.92,0,0,0-.17-.29,1,1,0,0,0-.27-.19A1,1,0,0,0,90.16,216.55Z"/></g><g class="cls-23"><path class="cls-24" d="M20.4,226.91h.9v-2.26h-.9v-.42h1.38V225h0a1.12,1.12,0,0,1,.36-.57,1.09,1.09,0,0,1,.69-.21h.43v.48h-.58A.93.93,0,0,0,22,225a.83.83,0,0,0-.26.63v1.33H23v.42H20.4Z"/><path class="cls-24" d="M25.39,227.4a1.66,1.66,0,0,1-.61-.11,1.35,1.35,0,0,1-.45-.33,1.42,1.42,0,0,1-.29-.51,2,2,0,0,1-.1-.66,2.07,2.07,0,0,1,.1-.68,1.58,1.58,0,0,1,.29-.51,1.35,1.35,0,0,1,.45-.33,1.54,1.54,0,0,1,.58-.11,1.43,1.43,0,0,1,.56.11,1.28,1.28,0,0,1,.44.32,1.41,1.41,0,0,1,.28.48,1.89,1.89,0,0,1,.09.6v.23H24.44V226a.92.92,0,0,0,.07.38.75.75,0,0,0,.18.3,1.21,1.21,0,0,0,.3.2,1.24,1.24,0,0,0,.4.07,1,1,0,0,0,.89-.54l.35.24a1.24,1.24,0,0,1-.46.51A1.46,1.46,0,0,1,25.39,227.4Zm0-2.85a.91.91,0,0,0-.37.08.72.72,0,0,0-.29.2.81.81,0,0,0-.19.29,1,1,0,0,0-.07.38v0h1.78v-.07a1.11,1.11,0,0,0-.07-.37.92.92,0,0,0-.17-.29,1,1,0,0,0-.27-.19A1,1,0,0,0,25.36,224.55Z"/><path class="cls-24" d="M29,227.4a1.46,1.46,0,0,1-.6-.12A1.43,1.43,0,0,1,28,227a1.38,1.38,0,0,1-.27-.51,2.54,2.54,0,0,1,0-1.34,1.56,1.56,0,0,1,.28-.51,1.31,1.31,0,0,1,.44-.33,1.55,1.55,0,0,1,.59-.11,1.28,1.28,0,0,1,.73.2,1.14,1.14,0,0,1,.41.51l-.38.21a.71.71,0,0,0-.28-.37.83.83,0,0,0-.48-.14,1.07,1.07,0,0,0-.38.07.8.8,0,0,0-.28.2.74.74,0,0,0-.17.3,1.12,1.12,0,0,0-.06.38V226a1.12,1.12,0,0,0,.06.38.74.74,0,0,0,.17.3,1,1,0,0,0,.28.2,1.18,1.18,0,0,0,.39.07.83.83,0,0,0,.51-.15,1,1,0,0,0,.33-.39l.34.23a1.27,1.27,0,0,1-.43.52A1.34,1.34,0,0,1,29,227.4Z"/><path class="cls-24" d="M32.53,227.4a1.54,1.54,0,0,1-.58-.11,1.35,1.35,0,0,1-.45-.33,1.38,1.38,0,0,1-.27-.51,2,2,0,0,1-.1-.67,2,2,0,0,1,.1-.67,1.38,1.38,0,0,1,.27-.51,1.35,1.35,0,0,1,.45-.33,1.54,1.54,0,0,1,.58-.11,1.59,1.59,0,0,1,.59.11,1.31,1.31,0,0,1,.44.33,1.4,1.4,0,0,1,.28.51,2,2,0,0,1,.1.67,2,2,0,0,1-.1.67,1.4,1.4,0,0,1-.28.51,1.31,1.31,0,0,1-.44.33A1.59,1.59,0,0,1,32.53,227.4Zm0-.41a.88.88,0,0,0,.65-.24,1,1,0,0,0,.25-.75v-.44a1,1,0,0,0-.25-.75.88.88,0,0,0-.65-.24.9.9,0,0,0-.65.24,1,1,0,0,0-.24.75V226a1,1,0,0,0,.24.75A.9.9,0,0,0,32.53,227Z"/><path class="cls-24" d="M34.79,226.91h.91v-2.26h-.91v-.42h1.39V225h0a1.12,1.12,0,0,1,.36-.57,1.08,1.08,0,0,1,.68-.21h.44v.48h-.58a.93.93,0,0,0-.67.24.83.83,0,0,0-.26.63v1.33h1.2v.42H34.79Z"/><path class="cls-24" d="M40.48,226.82h0a1,1,0,0,1-1,.58,1,1,0,0,1-.89-.43,2,2,0,0,1-.32-1.19,2,2,0,0,1,.32-1.2,1.06,1.06,0,0,1,.89-.42,1,1,0,0,1,1,.58h0v-1.85H41v4.44h-.48Zm-.79.15a1.06,1.06,0,0,0,.31,0,1,1,0,0,0,.25-.12.65.65,0,0,0,.17-.2.6.6,0,0,0,.06-.27v-1.12a.6.6,0,0,0-.06-.27.55.55,0,0,0-.17-.2,1,1,0,0,0-.25-.12,1.06,1.06,0,0,0-.31,0,.83.83,0,0,0-.65.26,1,1,0,0,0-.23.68V226a1,1,0,0,0,.23.68A.82.82,0,0,0,39.69,227Z"/><path class="cls-24" d="M45.77,226.91h1.11v-2.26H45.77v-.42h1.6v2.68h1v.42H45.77Zm1.35-3.36a.4.4,0,0,1-.29-.09.33.33,0,0,1-.08-.22v-.09a.31.31,0,0,1,.08-.22.4.4,0,0,1,.29-.09.41.41,0,0,1,.3.09.31.31,0,0,1,.08.22v.09a.33.33,0,0,1-.08.22A.41.41,0,0,1,47.12,223.55Z"/><path class="cls-24" d="M50.57,227.4a2,2,0,0,1-.84-.17,1.86,1.86,0,0,1-.6-.44l.33-.28a1.51,1.51,0,0,0,.49.36,1.34,1.34,0,0,0,.63.13,1.26,1.26,0,0,0,.59-.13.43.43,0,0,0,.23-.41.42.42,0,0,0,0-.2.49.49,0,0,0-.12-.13l-.18-.07-.2-.05-.49-.07-.35-.06a1.35,1.35,0,0,1-.35-.14.88.88,0,0,1-.26-.25.71.71,0,0,1-.1-.41.84.84,0,0,1,.09-.4.8.8,0,0,1,.26-.29,1.1,1.1,0,0,1,.4-.17,2,2,0,0,1,.5-.06,1.83,1.83,0,0,1,.73.13,1.64,1.64,0,0,1,.53.37l-.32.29-.13-.13a.77.77,0,0,0-.2-.13,1.07,1.07,0,0,0-.27-.09,1.37,1.37,0,0,0-.36,0,1,1,0,0,0-.56.13.4.4,0,0,0-.2.36.39.39,0,0,0,0,.2.3.3,0,0,0,.12.13.49.49,0,0,0,.18.08l.2,0,.49.08.35.06a1,1,0,0,1,.34.14.69.69,0,0,1,.26.25.7.7,0,0,1,.11.4.83.83,0,0,1-.36.72A1.62,1.62,0,0,1,50.57,227.4Z"/><path class="cls-24" d="M58.46,226.82h0a.94.94,0,0,1-.12.22,1.07,1.07,0,0,1-.18.19.83.83,0,0,1-.25.12,1,1,0,0,1-.33.05,1,1,0,0,1-.78-.31,1.21,1.21,0,0,1-.3-.87v-2H57v1.9a1,1,0,0,0,.19.64.73.73,0,0,0,.55.2,1.33,1.33,0,0,0,.28,0,.88.88,0,0,0,.24-.11.62.62,0,0,0,.18-.18.6.6,0,0,0,.06-.27v-2.15H59v3.1h-.49Z"/><path class="cls-24" d="M60.1,224.23h.48v.51h0a1,1,0,0,1,1-.58,1.05,1.05,0,0,1,.89.42,1.94,1.94,0,0,1,.32,1.2,1.89,1.89,0,0,1-.32,1.19,1,1,0,0,1-.89.43,1,1,0,0,1-1-.58h0v1.71H60.1ZM61.38,227a.84.84,0,0,0,.65-.25,1,1,0,0,0,.23-.68v-.52a1,1,0,0,0-.23-.68.84.84,0,0,0-.65-.26,1.06,1.06,0,0,0-.31,0,.83.83,0,0,0-.25.12.55.55,0,0,0-.17.2.5.5,0,0,0-.07.27v1.12a.5.5,0,0,0,.07.27.65.65,0,0,0,.17.2.83.83,0,0,0,.25.12A1.06,1.06,0,0,0,61.38,227Z"/><path class="cls-24" d="M63.61,226.91h1.08V223.3H63.61v-.41h1.56v4h1.08v.42H63.61Z"/><path class="cls-24" d="M68.53,227.4a1.54,1.54,0,0,1-.58-.11,1.35,1.35,0,0,1-.45-.33,1.56,1.56,0,0,1-.28-.51,2.31,2.31,0,0,1-.09-.67,2.36,2.36,0,0,1,.09-.67,1.56,1.56,0,0,1,.28-.51,1.35,1.35,0,0,1,.45-.33,1.54,1.54,0,0,1,.58-.11,1.59,1.59,0,0,1,.59.11,1.31,1.31,0,0,1,.44.33,1.4,1.4,0,0,1,.28.51,2.35,2.35,0,0,1,.1.67,2.3,2.3,0,0,1-.1.67,1.4,1.4,0,0,1-.28.51,1.31,1.31,0,0,1-.44.33A1.59,1.59,0,0,1,68.53,227.4Zm0-.41a.88.88,0,0,0,.65-.24,1,1,0,0,0,.25-.75v-.44a1,1,0,0,0-.25-.75.88.88,0,0,0-.65-.24.9.9,0,0,0-.65.24,1,1,0,0,0-.24.75V226a1,1,0,0,0,.24.75A.9.9,0,0,0,68.53,227Z"/><path class="cls-24" d="M73.3,227.33a.48.48,0,0,1-.4-.15.66.66,0,0,1-.15-.36h0a.94.94,0,0,1-.33.43,1.07,1.07,0,0,1-.6.15,1.12,1.12,0,0,1-.77-.25.88.88,0,0,1-.29-.69.79.79,0,0,1,.31-.67,1.71,1.71,0,0,1,1-.23h.66v-.31a.66.66,0,0,0-.19-.51.82.82,0,0,0-.55-.17.88.88,0,0,0-.51.13.92.92,0,0,0-.32.33l-.32-.24a.95.95,0,0,1,.42-.44,1.34,1.34,0,0,1,.34-.14,1.79,1.79,0,0,1,.42-.05,1.25,1.25,0,0,1,.87.28,1,1,0,0,1,.32.77v1.7h.43v.42ZM71.88,227a1.14,1.14,0,0,0,.33-.05,1,1,0,0,0,.27-.12.52.52,0,0,0,.18-.18.43.43,0,0,0,.06-.22v-.51h-.66a1.25,1.25,0,0,0-.63.12.38.38,0,0,0-.2.34v.13a.42.42,0,0,0,.17.36A.76.76,0,0,0,71.88,227Z"/><path class="cls-24" d="M76.48,226.82h0a1,1,0,0,1-1,.58,1,1,0,0,1-.89-.43,2,2,0,0,1-.32-1.19,2,2,0,0,1,.32-1.2,1.06,1.06,0,0,1,.89-.42,1,1,0,0,1,1,.58h0v-1.85H77v4.44h-.48Zm-.79.15a1.06,1.06,0,0,0,.31,0,1,1,0,0,0,.25-.12.65.65,0,0,0,.17-.2.6.6,0,0,0,.06-.27v-1.12a.6.6,0,0,0-.06-.27.55.55,0,0,0-.17-.2,1,1,0,0,0-.25-.12,1.06,1.06,0,0,0-.31,0,.83.83,0,0,0-.65.26,1,1,0,0,0-.23.68V226a1,1,0,0,0,.23.68A.82.82,0,0,0,75.69,227Z"/><path class="cls-24" d="M79.39,227.4a1.66,1.66,0,0,1-.61-.11,1.35,1.35,0,0,1-.45-.33,1.28,1.28,0,0,1-.29-.51,2,2,0,0,1-.11-.66,2.06,2.06,0,0,1,.11-.68,1.58,1.58,0,0,1,.29-.51,1.25,1.25,0,0,1,.45-.33,1.5,1.5,0,0,1,.58-.11,1.47,1.47,0,0,1,.56.11,1.28,1.28,0,0,1,.44.32,1.25,1.25,0,0,1,.27.48,1.64,1.64,0,0,1,.1.6v.23H78.44V226a1.12,1.12,0,0,0,.06.38.91.91,0,0,0,.19.3,1.21,1.21,0,0,0,.3.2,1.24,1.24,0,0,0,.4.07,1,1,0,0,0,.54-.15.92.92,0,0,0,.34-.39l.36.24a1.24,1.24,0,0,1-.46.51A1.48,1.48,0,0,1,79.39,227.4Zm0-2.85a.87.87,0,0,0-.37.08.72.72,0,0,0-.29.2.81.81,0,0,0-.19.29,1,1,0,0,0-.07.38v0h1.77v-.07a1.1,1.1,0,0,0-.06-.37.92.92,0,0,0-.17-.29,1,1,0,0,0-.27-.19A1,1,0,0,0,79.36,224.55Z"/><path class="cls-24" d="M83.68,226.82h0a1,1,0,0,1-1,.58,1,1,0,0,1-.89-.43,2,2,0,0,1-.32-1.19,2,2,0,0,1,.32-1.2,1.06,1.06,0,0,1,.89-.42,1,1,0,0,1,1,.58h0v-1.85h.48v4.44h-.48Zm-.79.15a1.06,1.06,0,0,0,.31,0,1,1,0,0,0,.25-.12.65.65,0,0,0,.17-.2.6.6,0,0,0,.06-.27v-1.12a.6.6,0,0,0-.06-.27.55.55,0,0,0-.17-.2,1,1,0,0,0-.25-.12,1.06,1.06,0,0,0-.31,0,.83.83,0,0,0-.65.26,1,1,0,0,0-.23.68V226a1,1,0,0,0,.23.68A.82.82,0,0,0,82.89,227Z"/><path class="cls-24" d="M86.53,227.38a.45.45,0,0,1-.34-.1.35.35,0,0,1-.1-.26v-.11a.32.32,0,0,1,.1-.25.45.45,0,0,1,.34-.11.47.47,0,0,1,.35.11.36.36,0,0,1,.1.25V227a.4.4,0,0,1-.1.26A.47.47,0,0,1,86.53,227.38Z"/></g></g></g></svg>