<svg id="Layer_1" data-name="Layer 1" xmlns="http://www.w3.org/2000/svg" xmlns:xlink="http://www.w3.org/1999/xlink" viewBox="0 0 250 270"><defs><style>.cls-1{fill:none;}.cls-2{fill:#6c613c;}.cls-3{fill:#768b49;}.cls-4{fill:#b7c49d;}.cls-5{clip-path:url(#clip-path);}.cls-6{fill:#0c0d0d;}.cls-7{fill:#78543c;}.cls-8{fill:#4f3a25;}.cls-9{clip-path:url(#clip-path-2);}.cls-10{fill:#0f0f0f;}.cls-11{clip-path:url(#clip-path-3);}.cls-12{clip-path:url(#clip-path-4);}.cls-13{clip-path:url(#clip-path-5);}.cls-14{clip-path:url(#clip-path-6);}.cls-15{clip-path:url(#clip-path-7);}.cls-16{clip-path:url(#clip-path-8);}.cls-17{clip-path:url(#clip-path-9);}.cls-18{clip-path:url(#clip-path-10);}.cls-19{clip-path:url(#clip-path-11);}.cls-20{clip-path:url(#clip-path-12);}.cls-21{clip-path:url(#clip-path-13);}.cls-22{clip-path:url(#clip-path-14);}.cls-23{fill:#b5becb;}.cls-24{clip-path:url(#clip-path-16);}.cls-25{fill:#050605;}.cls-26{fill:#7d5742;}.cls-27{isolation:isolate;}.cls-28{fill:#f8f8f8;}</style><clipPath id="clip-path"><rect class="cls-1" x="16.02" y="20.17" width="233.87" height="250.24"/></clipPath><clipPath id="clip-path-2"><rect class="cls-1" x="168.99" y="146.74" width="21.72" height="19.32"/></clipPath><clipPath id="clip-path-3"><rect class="cls-1" x="160.78" y="90.55" width="25.3" height="15.94"/></clipPath><clipPath id="clip-path-4"><rect class="cls-1" x="161.1" y="109.28" width="24.26" height="15.29"/></clipPath><clipPath id="clip-path-5"><rect class="cls-1" x="136.88" y="101.2" width="24.26" height="15.29"/></clipPath><clipPath id="clip-path-6"><rect class="cls-1" x="116.6" y="87.92" width="25.3" height="15.94"/></clipPath><clipPath id="clip-path-7"><rect class="cls-1" x="142.92" y="78.34" width="25.3" height="15.94"/></clipPath><clipPath id="clip-path-8"><rect class="cls-1" x="150.37" y="136.53" width="25.3" height="15.94"/></clipPath><clipPath id="clip-path-9"><rect class="cls-1" x="169.08" y="121.31" width="16.85" height="24.36"/></clipPath><clipPath id="clip-path-10"><rect class="cls-1" x="100.07" y="98.55" width="26.37" height="15.69"/></clipPath><clipPath id="clip-path-11"><rect class="cls-1" x="72.26" y="122.45" width="24.53" height="16.95"/></clipPath><clipPath id="clip-path-12"><rect class="cls-1" x="99.76" y="78" width="21.71" height="19.53"/></clipPath><clipPath id="clip-path-13"><rect class="cls-1" x="80.27" y="109.54" width="26.37" height="15.68"/></clipPath><clipPath id="clip-path-14"><rect class="cls-1" x="135.11" y="151.07" width="16.84" height="23.01" transform="translate(-48.95 262.47) rotate(-75.99)"/></clipPath><clipPath id="clip-path-16"><rect class="cls-1" x="6.67" y="178.69" width="90.32" height="81.4"/></clipPath></defs><path id="Path_1571" data-name="Path 1571" class="cls-2" d="M132.36,153.82,136.2,160l0,1.62-1.22-1-1.64-.54.24,2.65-1.39,1.47-.8,3.07-.7,3.09H128.5l-1.41-1.73-.52-2.06-2-1.63,1.5-1.14.26-2.2-2.83-2.44,1.69-1.17h2l-1.39-3.53-2.07.47-.14-1.65,2-1.41,1.83-.47.53,2.19,1.42.79,2.31-.23Z"/><path id="Path_1572" data-name="Path 1572" class="cls-3" d="M155.29,102.52Zm33.61,37.91-.1-2.1.57-1.23,2.26.75.1,2.45.77-1,2.44-1.22.52,1.43-1.19,1.08-.78,1.43,1.64.41.52,1.63-1.37-.07-.64,1.08,1.08.89.58,2.38,2.26.14v-3l1.92-.07-.3,1.08,2.45,1.49-1.87,4.42-2.28.81,3.2,1.15,2.09,2-2.37,1.9-1.85-.14-.88-.47-.32-1.49-1.17.06-2.3,1.9-1.62-.88.36-1.49.85-1.63.94-2.1-.8-1.9-2.14.74-1.41-1.55.57-1.43-.86-1.43.44-1.9-1.72-.06-1.18.95-.8,2.32-1.6,1-2.19.27-1.35-1.36-1.75-2.51,2.9-.54,2.55-.41.85-1.16-1.17.14-2.41.2-2.52-1.08,5.38-1.16.1-1.77.09-1.43,1.77.89.39,1.56Zm11.87-19.93,2.15-2.76,2.48,1.81-.73,1.47-.72,1.37.4,1.73,2.87-.27.63,3.28-.9,1.8-1.91.26-.5-1.29-.49-1.46-2,.43.92,2.07-1.32.77-2.08-.35-.76-1.28L197.08,127l-1.67,1,1.52,2.67,0,1.89-2,.43-2.68-.43.9-1.38-1.53-2-3.56-.85.83-2.59,2.08.44.21-1.9,2.32,1.38,2.26-.18-.91-2.41,1.24-1.46,2,.86,2.69.25ZM83.88,118.24l.1-2.65,2.83-.23,2.36,2.12-.7,1.06,2.65,2-.94,3.25-2.74-1.36-1.67-.76-.32,2L88,126.11l1.37.76-1.08,1.82-1.37-.45L84.12,126l-.86,1.89-.1,2-.31,1.22-3.6.08-2.66-.61.16-1.9,2.3-.45,1.69-.22-1.44-2.27-1,1.13-.61-.81-.25-.82,1-.53.87-.07.88-1.72-.75-.93.2-1.09,1.19-.91,2.06.3Zm6.7-37.11-1.29-1.6,5.06,2L93.64,83l-2.08.61-.47,1.23,1.84.61,1.07.91.83,1.6-.17,1.45-1.08.46-1.86,1.6-1,1.08-1.46,1.07-1.38-.85-2-1.37L85.1,93l-1.62.53-2.07-1.37-1.06-1.37-1.09.83-.85,1.22h-1.3l-3.29-1.3,1.78-2,2.24-1.92,1.77.3L81,89.07l2.6,1.76,1.17-.76.32-2.14-2.38-1.37-2.38-.38-1.68-.77.87-3,2.63-1.69,1.52,1.92,1.7-2L87,80.07l.21,2.52Zm68.67-14.76.38-2.4.5-1.78,3.3.62L165.54,64,167.3,66,166,68.09l-2.87-1.3-1-.83-.59,2.61-1.74,1.5-1.66-.34L156,68.5l-1.59.27-1.38.48-.38-2.4,2.51-2,2.25,1.3.82,1.1Zm-62.9,3.72-.2-1.35,1.63-1.67,2.89-.6.6-1.18-.35-2.49,1.21-1,2.45-.7L105.1,63l2,.65,3.25.49.14,1.78.25,2.22-1.26,1.4-1.68-.76-2.91-1.94L104.34,68l1.45,1.73-.8,2.8-3.19-.59,0-1.19-2.33.49-1.2.7Zm40.31-18.38,2.14-.27,0-2,1.1-.68,4.25,1.84-.78,2L145,53l1.22,1.37.1,2.53L143.8,58.5,143,55.89l-1.46,1.71-2.19-1.1.44-1.92,1.46-1.16-3.86.27ZM125.5,20.17l-3,2.5-1.6,2.63-2.72.82-2.13.51-1.66,1.69.91,2.64,3.39.18,2.82.82-.9,1.88-2.89-.06-2,1.88,7.15.94,1.81,1.57-4.47.81-1.51.12-2.54,2.08.86,1.93,2.68,1.09.78,2.63-1.77,1.94-6.09-.89-1.69.26-2.74-2.07-.35-2.94-1-2.06,2.82.63,1.36,1.56,1.66-2.39-2.66-4.26-1.39.88-.88.88-2.13-1.51-.8-2.07-1-2.44-1.22,2.95-.15,2.5-2.56-1.12L96.8,35.49l-1.59,1.38,1.43,2L95.45,40.2l-1.71,1.25,3.88.88,1.29,3.31-3,2-.95.94,0,2.13-1.15,2.12,1.87.25,3.63.71.6,2.5-2.47,2.56-2.6,2-2,2-4.48.88-3.49-1.24.08-1.88,2.7-.19,2.77-1.18.71-2.69-2.3-2.19-2.26-1.12L86.07,51l-4.25-1.13L80,52.11l-5.08-.5L75,49.35l-1.49-1.81,1-1.13,2.38,1.25,2.38.5L80,45.9l-1-1.94-3.26-.69L73.15,43,72.47,42,70,42.27l-.09,2.82L68.16,48.4l-2.32.5-1.71.25-.44-2.07-.92-2.69-1.51.5-.33,2.57-2,1.12L57.29,47.2,56.17,45,55,45.82l-1.95-.18-1,1.25.37,2.31L52,52.4l-4.46,1-1.34,2.07,5.32.56,1.3,2.75-2.19,1,.24,1.93,2.5,2.06,2.32-1.06-.23-3.24,2.56.62,1.06,1.13.05,1.44-.7,1.42,2.2-1,.74,1.81-1.7.62L58.07,67l1.69,1,2.32-.74,1.2-1.56,2.17,4-3.09,2.06-.68.93-2.13.69,1.85,4.47,1.56.68,3.27-1.37,3.18,1.13,1.24,1.92,1.83-1.49,2.84-3.42-2.55-1.87,2.77-2.24,1.67,1.62,1.43,2.75-.84,2.48-1.08,3.7-4.44-.19-.47,2.87L69,84.38l-1.93-1.12-4,2.17-3.76.88-.58,3,2.4,5.28-3.88.5L54,98.47,50,96.8l-1.5-1.12-1.38,2.6-2.17-3.6,2.25-1.37,2.68,1,2.38-.63,2.58-2.17L52.13,86.6l-2.5,0,.08-2.3-1.18-.19-1.26,1.62-2.48-3.85-.49-1.25-4.89.62.8,3.24-4.13-.63-1.76-2.48-4.07.93-.07,1.93,1.37,3.49-1.27,2.8-3.69-1.74-1-.12L26.65,92l.05,1.67-2.07.93,1.69,1.67,4,1.43,2.17,3.3-2.43.38,2.8,2.16L32,106l-4.31-.56-1,2.35,1.55,2.11,1.87.55,1.12,2.1,2.37-.87,2.26-2.78,2.69.43,2.61,2,2.88-1.18,3.08-4.51,3.16,4.51-1.45,3-1.93-1L44.1,115l4.55,2,.92,1.6-.69,1.92-6-2.67.55,2.37,1.48,2.41,1.8,1.24-1.57,1.85-3.3.56-1.64,2.22-3.11-.8-1.24-2,1.87.07.14-4-.42-3-5-.62-1.19,2-.58,4.14-1.14,4-2.62,2.09-2.62-.25-2-1.45-3.86.24,1.79,5.55,5.41,1.05,2.24,2.34-1.69,2-2.55.06,1.05,2.7,6-1.66.8,3.63,1.68.56,3-3.39-1-4.67,0-2.9,3-.67,3.53,5.6-1.14,3.57-2.07,2-3.13,3.45,2.18,3.11-1.62.85-2,.55,3,2.1,3.22,1.71.68-.08,3.93-.47.58-4.92-3.16-2.87,1.63-2.34,7,2.07,1.09-4.06.58-4.12-2-3.19,2.68.61,1,4.55,2.4,3,1.59-5.34L60.18,138l3.59,3.51.61,2.76-9.92,3.87-1.7,3.38L55,154.29l-3.8.92-.62,1.32,1.16,2,1.72,4,.8,1.23,1.86,1.35,1.69-2.33.9-4.53,1.38-1.9,2.84,2.94.85,2.45,2.11.86.58,4.79-3,.74h0L59,167.88,57.88,169l-.9,3.86,2.1,2.33,1.1,2.5,3.9,1.58,1.08-1.37-1.69-2.07.31-1.78,2.32-1.28,1.7,1.58.29,2,2.5.78.32-2.07-.58-2.28,2.51-.4L75,175.42l2.42-.4.41-1.49-.68-2.07-.8-1.78.32-2.38,2-1.18,1.2,1.88,2.82-1.19,0-1.69,0-1.68-2.21-.7-2.1-1-2.1-1-.18-3.08L79.4,156h1.91l.55-1.16.56-1.15-3-1.69-.88-2.38.42-2.3h1.81l2.12-.69.82-1.89.87-.3.87-.3.58-.2.89,2.29,1.5,1.09-2.35,1.78-1.22,2.19,1.7,1.69,2.92-.59.34-2.88,1.6-.2.49,1.39.24-.82.25-.81,1.2-.94,2-.14.13-1.52-.69-.84-2.64.35-3.32-3.91.33-2.2-1.34-1.58,1.21-1.73,2.22.16.26-2.21L93,135.69l.94,1.42,1,.47-.82,2.6.85,2.67,2.72-1.17.73-1.82,1.13-.78,1.43.15-.37-3.15.1-1.57L102,134l1.3-2.88,1.85-.75,1.49,2.05-1.53,1.26.87,1,3.58-.16,2.47.47.92,2.91-.36,2.28-1.38,2.67-1.75-.16-.61-2.51-4,1,1.88,2.59,1.71,4,.13,2.51,2.2,2.12,2,.24.29,1.65-1.13.94-1.76,1.41.22,2.51,1.1,1.1,1.43-.4,1.44-.39,2.1-2.74.71.15.71.16,1,1.26,1,1.25,1.87,3.9.09.19,2,1.73.66-.5,1.5-1.15.26-2.19-2.83-2.43,1.69-1.18h2l-1.39-3.53-2.07.47-.14-1.64,2-1.42,1.83-.47.53,2.19,1.42.79,2.31-.23.71-.37,1-.48-.69-1.5-1.9-1.41.5-1.1,1.35.79,1.78-.12.63,0,.46-1.38.37-2-1.49-1.71-1.57.14-1.56.14-.54-1.94-.15-1.45-.48.57-2.53,3-2.63.66-.64-2.21,2.52-.83-.36-1.88-2.74-1.39,1.26-1.73,3-1.28-1-2.54,2.36-.49,1.21-2.72-.26-1.55,1.12-.3,1.13-.3,1.28.16,1.29.17,2-.45,1,2,.13,2.17.06,1-.08,1.16,1.5,1.22-.47.89.5.63.49.64,1.63-.11,1.62-.11.67-2.26-.15-1.5,2.28,1.22.41,2.38.36,1.83-.47,1.66-1.23.55-1.47,1,.42.37,1.12,1h1.85l.15,1.1.26,1.1.94.5,1.46.33,1.41-1.54.19-1.33-1.49-1.21.58-1.61,2.19-.61.93,1.66,1.17.17,1.17.16,1.41-.88-.19-2.16.85-.16,1.34.11,1-1.16-.92-2.28-2.51-.32-1,.94-1.46.66-1-2.88.37-1.72,1.13-.66,1.55.55h1.74l1.15-2.11-.24-2.21,1-.33,1.16,2.26,1.41-.61,1.77,1,1,1.6.15.93.25,1.56L165,138.24l-1.41.88-1.51.4-.57.88-.31.66.54,1.6,1.56.39.21,1,1.67.73,1.9-.5,2.44-5.64,2.16,1.21.64,1.72.24,2.16-.09,2.37-1.63.55-.73.22.33,1.46,1.43,1.1,1.43,1.1-.07,1.22-1.3,1-.3,1.15,1.54,1.66.25,1.43-.58,1.49-1.51.49-1-1.88-1.7,1.1,1.4,2.76v0l.47,1.71-2.41.66-3.68-.06,0,2.15,1.92,2.36.88,1h0l1.63-.26.67-3,1.57-.6,1,2-2.25,1-1.25,1.55-.3,1.6.28.23,2.26,1.83.67.07,2.62.31,1.58-1.32-.43-1.38h2.74l2.05.5,1.14-1.14.28-.3-1.67-3.13-1.1-.88,2.39-2.31L185,163l1.34.66.8-1.65.75-1,.22-.3,1.56.33,1.59,1.7.07,2.31-1.08,1.27,2.15,1.22L191,169.25l-2.18.22-1,.1,1.84,2.6.72,1,1.38,1,.52,2.14,2.68-.22,1.13-.71.26-2.26-2-1.54,3.09-1,1.43,1.37.79,2L200,176l0,1.48,1.67.66,1.22.23,2.3-.44.88-2.31.36-1,1.16.21,2,1.92,2-.05,1.53-1.1.94-2.14-1.92-1.71-.47,1.32-3.39-.47-.59-1.16.75-1,1.46-.44.48-1.93-.24-1.82-2.12-.38-2.54-1.64-.09-1.77,2.38-3.26,2.77.27.57,2.46.42,1.5,2.13.44,1.14,1.14-.31,1.85L218,167l-.41,2.55-.39,1.4.51,1.05.52,1.06,2.86-.61.57,3,.32,1.32,2.56,1,1.44-.26,1.75-2.55-1.69-.62,4.12-.35,2.24-1-1.18-2.9-1.93-1.41,3.21-.27,2.38,1.32,1.25.35,1.8-.79-.09-3.87-1.14-.88-2.44,1.06-2-.09.22-1.5,1.36-1.23.68-2.46-3.27-1.76-1.64,2-1.19,1.32L225.76,160l1.75-2.64-.93-2.38-3.64-.88-1.65,1.85h-1.78l-.95-1.85.05-2.12-1.3-1.85-.85-.23-.85-.21-2.78.61-1.59-.79-.77-1.77-.13-2.48-2.82-1.84.13-2.13,1.44-.62,3.18,2.3,2.83-2.47,1.62-.53,2.88,3.53-.93,1.86.57,2.38,2.75,1,.14,2.12,2.35-1.24-1.17-4.24.68-2.56,2.49.79,1.3,1.86-.15,2.83,2.78-1.06.38-1.32,1.39,2.2,1.22,1.24,1.33-3.54-1.92-2.3-1.24-.79,2.44-1.24,3.15-.65.41-2.38-.21-2.65-.84-2.57-1.24-.54-1.5,3-1.48-1.6-2.58-.61-.26,3.46-1.62.7-.85-2.3.58-1.77-.76-2.39-2-1.5-1.54,1L222.12,133H219.7l-1.29-2.48-.38-3.19-3.2-1.24.25-1.77.54-2.17-1.38-1.89.42-3.22,3.05-.14,3.39-3.37,1.53,1.47-.75,1.75,4.88.22,1.5-.35-.35,3.22.86,2.45,2.29,2.32,2.44,1.82.57-3.72,1.44-1.11.39-1.83-2.16-1.47.53-1.34,1.35-.42,1.26.29.74-1.4L236,114.13,234.67,110l-2.15-.71-3.36,1.26-3.66-.22-1.72-2.8-.65-2.39,2.78-1,.66,2.11,1.69.63,3.06-.56.61-2-2.18-1,2.41-.3,2.37-1,.32-1.79L234,97.56l.56-2.68-2.53-1-1,1.47-2.19.07,0-1.62-3.12.43-1,1.82-1.12,2.82-3-.57-2.07-2.81-1.82,2-.46,1.76-2.88-1.34-2.25-.77-1.47,2.9-.54,2.25-.68,2.11-1.49-.08-1.87-2L203.4,99l-2.08,1.2-.36-3,2.56-.91.62-2.53L203.68,92l3.57-1.76,3.17,1.63,2.22-.91,1-2,1.06.57,1.62.42,1.24-1.62,1.35-.21.9,1.2,2.69.49-.23-2.75-2.31-1.27,1.11-2,2.13.07-.3-2.82-2.74-1.84-1.64.42-2.78.5-3-.91,1.81-2.12,1.36-.07,1,.35,1.44-1.12.39-2L217.49,72l-.4-1.34.44-1.13h-3.34l-.8-2.48,0-1.2-1.52-2.26-2.44,1.06-1.61,2.82-.42,3-1.67,1.7-3-1,1.46,2L207,75.69l.36,2.68-1.5,1.42-4,.48-.18-1.55,1-.84-.58-3-2.09-2.27L196.88,72l-.73.92,1.33,5-.82,2L194,81.61l-1-2.14L188.91,78l1.52,3,.6,3.84-2.34,2-1.84-.55-.51-2.84-3.94-2.17-2.61,1.72-1.55,1.78-2.07-.44,3.12,6.82-3.54.21-2.34.28,2.34,4.22.39,3.25,3.2.44.15-3.19,1.95.62-.44,2.8.25,2.52,3.56.62,4.51-2.3-.81-4.44,2.25-.7,2.23.44-.17,4.26,2,1.95,1.16-5,3.16,3.27.34,5.32-1.3,2.37-1.75-1.51-1.56-2.39-3.26,2.39,3,4.25-2.51.71-2.48-.89-1.8.76.05,2.22,2,1,2.48-.35.25,2.88-1.77,2.25-1.87-1.46L188,121.3l-1.84.42-3.06-2,1.73-2.37.74-2-2-2.72-1.74-1.4-1.3-2,.25-2.3-1.84-3.64-1.62-.49-.9,3.22,1.3,2.86-1.93,1.47h-5l-3.16-.77-.4,2.37,2.1,1.19-.25,2.3-.95,2.44-3.73-.56-.59,2-1.74-1.6.52-1.74,1.58-1.68-1.78-3.13-2.27-.7-2.59-.91-1.89-1.32,2.59-3.5-2.92-2.37-1.94,3.07-1.58,1.75-4.09-.14-2.89.21,2.85-1.75.5-.91-2.43-2.66-3.06,2.24.18-2.45,2.27-1.19-.47-1.53-1.26-1,2.36-1.75,1.48-.14,1.95,2.1,1.71-.84,1,1.82-.18,2.3,3.64.91,1.92-.42.65-1.61L156,97.77l1-2.6,2.33-.34,1.43,3.85,4.23.35.94-1.54L165,95.81l5.23-.17,2.62-.56-4.37-5.68-.74-2.23,4.17-.42,1.62.77,1.9-.74-.15-.9.14-1.35-.47-1-.47-.24.59-1.35,1.44-3.58,1.28.55.74,1.42,1.68-.24.93-1.38-.49-2.08-1-2-.26-1.22-.76.06-.3-.76,1.85-.24.77-.37V70.91l-.74-1.1-.63-.52,1.72-.69.59.37.89-.9.78,1.46-.48,1.35.89,1,2.2-.34,1.46.07,0,1.25,1.58.79,1.9-.66.66-1.84L191.13,70l-1.45-.41-.07-2.46L191,65.5l2.11,1.28.68,2.58,2.74-.83.76-2,2.44,1,1-1.44-.2-1.34-.69-1.89,1-2.91.9-.56.41-1.27-4.09-1.83L197.55,58l-1.3.94-1-1-1.89-.44-1.74.72-2.18.83-2.39-.5-.76-1.39,1.81-1.22,1.49.5,1.84.33,1.42-1.11.14-2,1.58-.84-.13-1.89-2.32-1.39-1.71-1.33.41-1.06L191.6,45l-2.29-.23-2,1-.14,2-1.66-.45-1-1.39-1.39-.56-2,.89.51,2.62h-2.85l-1.1,2,2.44,1.28.47,1.73-2.4,3.44-2.4.44L175,54.29l-2.63.56.53,1.5-1.64,1.16-.92-1.11.21-3.11-1.84-.11-1.68.66-2.46.17-.08-2.34,3,.62,1-1.22-1.75-1.73-2.16-1.23L163.05,45l1.3-.83,1.34.22,1.32,1.4,2.21,1.28,4.31-.89L170.69,42l-1.13-2.61,1.8-1.23,2.12.39-.36-2.37-2.07-3.34-1.62-.4-.7,1.35-1.36,1.5-1,3.12-1.18.17-1.26-1.28-1-.56-1.52.67-.76-1.67,2.14-.84,1.79-2.46,2.75-.84-.47-2.06-1.76-1-2.77,1.1L161.11,29l-1.32-2.19.19-1.39-2.92.21-.43,2.9.59,2.13-4.63,2.29-1.75,1,2,2.34,2.06,1.06-1.11,3-2.77-.36-1.56-1.06-.62-.78-.56,1,0,2.16-1.66.5-.82-.12,1.35,1.92,2,.7-2.42,2.55-2.34,1.6-1.83-1.57.34-1.83-1.24-1.22-1.5-1.31-2.18.47-.72.7L137,41.3l.27-2.07-2.2-.12-1.58.44-1.06-2.87,3.65,0,1.12,1.05,1.72-2.11.49-1.22,1.79,1.37,1.21.55L144,35.23l-.27-3.81-.13-1.85-2.52,0-1.45-.07L138.75,28l0-2.79L137.35,23,136,22.77l-.42-1.18-.34-.83-2.56-.16-1.26.39,1.2,2,1,1.62-2.7,1.92-1.73-.47-.44-2.63L127,23l-.5-.82-.09-1.78Z"/><path id="Path_1573" data-name="Path 1573" class="cls-4" d="M213.94,178.67l-.6,2.83h-3l-.58-2-3.24-.84-.74,1.53-.14,3.07-2.74.77-3.78-2.67-3-1.76-1.81,1.45-1.08,3.14-2.45,2.45-2.08-1.14-1.6-1.3L184.45,183l-1.06-1.91-2.86-1.3.58-1.84-2.71-.84-3.49-.54-.19-.76L185.91,173l3.79-.81.72,1,1.38,1,.52,2.14,2.68-.22,1.13-.72.26-2.25-2-1.54,3.1-1,1.42,1.37.79,2L200,176l0,1.46,1.68.66,1.22.23,2.3-.44.88-2.3.35-1.05,1.17.22,2,1.92,2-.06Z"/><path id="Path_1574" data-name="Path 1574" class="cls-2" d="M199.16,100.36l.35,5.32-1.3,2.39-1.76-1.51-1.56-2.39-3.26,2.39,3,4.25-2.5.71-2.48-.89-1.8.76,0,2.22,2,1,2.48-.35.25,2.88-1.77,2.25-1.87-1.46L188,121.3l-1.84.42-3.06-2,1.73-2.37.74-2-2-2.72-1.74-1.4-1.3-2,.25-2.3-1.84-3.64-1.61-.49-.9,3.22,1.29,2.86-1.93,1.47h-5l-3.16-.77-.39,2.37,2.09,1.19-.25,2.3-.95,2.44-3.73-.56-.59,2-1.74-1.6.52-1.74,1.58-1.67-1.78-3.15-2.27-.69-2.59-.91-1.88-1.32,2.59-3.5-2.93-2.38,1.91-.42.66-1.61-1.93-2.73.95-2.59,2.34-.35,1.42,3.85,4.23.35.94-1.54L165,95.8l5.23-.17,2.62-.56-4.36-5.67-.74-2.24,4.18-.42,1.61.77,1.9-.74-.14-.9.13-1.35.75-.26,3.12,6.82-3.54.21-2.34.28,2.34,4.22.4,3.25,3.2.44.14-3.19,2,.62-.44,2.8.26,2.52,3.56.62,4.51-2.3-.82-4.44,2.25-.7,2.23.44-.17,4.26,2,2,1.16-5Z"/><path id="Path_1575" data-name="Path 1575" class="cls-4" d="M112.73,152.74l.3,1.65-1.13.94-1.76,1.42.22,2.5,1.1,1.1-.3,1.78L109.29,164l-2.55-.08-2.17-3,1-2.09-.25-1.55-4.2-2.52-1.5,1-.45,1.22,0,.87-3.65-4.74.07-5.24.11-1.51-.69-.84-2.65.34-3.33-3.92.34-2.2-1.34-1.58,1.21-1.73,2.22.16.26-2.21L93,135.68,94,137.1l1,.47-.82,2.6.85,2.67,2.72-1.18.73-1.81,1.13-.78,1.43.15-.37-3.15.1-1.57L102,134l1.29-2.88,1.85-.75,1.5,2.06-1.53,1.26.87,1,3.58-.16,2.47.48.92,2.91-.35,2.28-1.39,2.67-1.75-.16-.61-2.51-4,1,1.89,2.59,1.7,4,.13,2.51,2.21,2.12Z"/><path id="Path_1576" data-name="Path 1576" class="cls-2" d="M91.12,120.59l-.94,3.25-2.75-1.36-1.67-.76-.32,2L88,126.11l1.37.76-1.08,1.81-1.37-.45L84.12,126l-.86,1.89-.1,2.05-.31,1.21-3.6.07-2.67-.6.17-1.89,2.3-.45,1.68-.23-1.43-2.27-1,1.13-.61-.81-.25-.82,1-.53.87-.07.88-1.72-.75-.93.2-1.09,1.19-.92,2.06.3,1-2,.1-2.65,2.84-.23,2.35,2.13-.7,1.05Z"/><path id="Path_1577" data-name="Path 1577" class="cls-4" d="M63.76,141.52l.61,2.76-9.92,3.87-1.7,3.38L55,154.29l-3.8.92-.63,1.31,1.17,2,1.72,4,.8,1.23,1.85,1.35-1.68,1.83-1.1.42-2.74-1.22-1.72,1.4.24,2.68-2.39-.2-2.64-1.59-2.52.24-2.36-1.58-1.08-1.6L36,165.07l-2.1,2.34-1.1,3.84-1.8-.52V170l.2-1.58-.66-1.88,1.38-1.22-2.46-2.19.77-2.3,3,.61,1.53-1-.37-2.35.81-1.69,1.47.05,1.1,1.27,1.9.79,1.51-.61-.39-1.5,3.93-.47.59-4.92-3.16-2.89,1.63-2.33,7,2.07,1.08-4.06.59-4.13-2-3.19,2.67.61,1,4.56,2.41,3,1.58-5.35L60.18,138Z"/><g id="Group_291" data-name="Group 291"><g class="cls-5"><g id="Group_290" data-name="Group 290"><path id="Path_1578" data-name="Path 1578" class="cls-6" d="M72.51,99.13a56.23,56.23,0,0,0,4.1,6.6,12.7,12.7,0,0,0,10,5.11c4.15.24,7.53,2.81,10.22,7.17a2.94,2.94,0,0,1,.46,1.35,37.62,37.62,0,0,0,2.18,9.83c3.34,9,8.48,15.36,15.19,19.26,3.8,2.21,6,6.1,6.89,11.66a53.42,53.42,0,0,1,.19,10.8,15.56,15.56,0,0,1-.83,4.54c-.84,2.24-2.34,2.86-3.9,1.55a9.88,9.88,0,0,1-2.38-3.63c-1.21-2.73-2.2-5.64-3.28-8.48-3.18-8.35-7.5-15-14.17-18a16.56,16.56,0,0,0-7.48-1.92,4.91,4.91,0,0,0-4.28,2.41,4.1,4.1,0,0,0,.07,4.55,5.08,5.08,0,0,0,2.48,2c1.39.5,2.81.88,4.2,1.43a15,15,0,0,1,5.73,4.33,1.47,1.47,0,0,1-1,.27c-1.27.18-2.55.27-3.8.56a23,23,0,0,0-9,4.3c-.5.4-.84.29-1.24-.27-.75-1.07-1.53-2.1-2.34-3.07a25.54,25.54,0,0,0-7-6.4c-.87-.48-1.49-.14-1.81.95a2,2,0,0,0,.74,2.4c3.21,1.77,5.67,5,8.13,8.15.43.55.42.91-.05,1.36a25.38,25.38,0,0,0-3.45,4.35,1.24,1.24,0,0,1-1.18.68c-1.3,0-2.61,0-3.91,0-.61,0-1,.31-1.23,1.14-.33,1.33.23,2.46,1.3,2.49,1.58.05,3.18,0,4.76,0a2,2,0,0,0,1.82-1.23A20.12,20.12,0,0,1,81,172c5.61-6.5,12.14-9,19.34-8.5a1.35,1.35,0,0,1,1.12.69,21.1,21.1,0,0,1,3.1,8.25,58.45,58.45,0,0,0,1.29,6.94c.58,2,1.38,3.8,3,4.36,4.13,1.47,7.4,4.75,10.26,9a4.63,4.63,0,0,1,.8,1.78,48.8,48.8,0,0,1,.68,6c.39,6.76.28,13.52,0,20.28a182.88,182.88,0,0,1-1.7,19.4c0,.28.11,1.29-.49,1.8-.83.69-2.43,0-3.06-.25-1.87-.7-4.4-.24-9.46.7-3.77.7-7.75,1.43-12.11,4.08a28.26,28.26,0,0,0-7.73,7,153.14,153.14,0,0,1,18-1.28c2.58,0,5.08,0,7.49.09a.3.3,0,0,1,0,.1,3,3,0,0,0,1.3.5c1.52.27,3.12,1.14,4.62,1.57a36.28,36.28,0,0,0,4.72,1,35.19,35.19,0,0,0,6.07.31c4-.12,19.68-1,41-2.42a21.34,21.34,0,0,0-11.82-9.1,15.31,15.31,0,0,0-7.89-2.12c-3.13.08-6.28-.41-9.4-.1a.93.93,0,0,1-.63-.13.91.91,0,0,1-.3-.6c-.5-2.7-1-5.4-1.34-8.14-.48-3.59-.87-7.2-1.12-10.84a108.08,108.08,0,0,1-.09-14.84c.3-4.66,2-7.84,5-9.75a53.75,53.75,0,0,1,6.47-3.5c4.11-1.85,8.3-3.36,12.36-5.44a16,16,0,0,0,6-4.61,4,4,0,0,1,1.66-1.33,41.8,41.8,0,0,0,7.22-4,34.05,34.05,0,0,0,5.72-5.85,28.88,28.88,0,0,1,12.46-8.2h0a1.85,1.85,0,0,0,1.24-2.3c-.21-1.22-.88-1.64-1.94-1.26a35.12,35.12,0,0,0-9.66,5.34c-.2.14-.4.62-.65.27s0-.59.07-.89a2.61,2.61,0,0,1,.14-.55,42.33,42.33,0,0,1,5.2-12.15,2.32,2.32,0,0,0,0-3c-.71-.78-1.34-.58-2.09.68a54.92,54.92,0,0,0-3.17,6.09,37.62,37.62,0,0,0-3.42,12.65,2,2,0,0,1-.53,1.15,22.46,22.46,0,0,1-8.74,7.19c-.15.07-.3.34-.45.08s0-.44.07-.64c.66-1.86,1.35-3.71,2-5.59a153.47,153.47,0,0,0,4.45-15.47c.64-2.84-1-5.29-3.11-4.61-2.69.87-4.62,3.2-5.4,6.8A41.46,41.46,0,0,1,161,174.1c-1.81,2.55-3.72,4.92-6.38,5.74-.76.24-.8-.13-.79-.94.05-2.28.13-4.56.08-6.84a6.48,6.48,0,0,1,1.53-4.7,58.32,58.32,0,0,0,6.44-9.37l.21-.36a2.39,2.39,0,0,0-.08-2.72c-.65-.72-1.34-.62-1.92.4A75.43,75.43,0,0,1,153,165.58a8.11,8.11,0,0,0-1.66,5.11q-.09,4.65-.14,9.32c0,.7-.15,1-.69,1.16-3,.86-6.12,1.64-9.12,2.77-1.34.5-1.75-.19-1.92-1.93-.29-3,.05-6-.06-8.95a9.5,9.5,0,0,1,2.15-6.59,74,74,0,0,1,7.42-7.6,55.29,55.29,0,0,0,7.05-7.7,23.71,23.71,0,0,0,3.82-9.41c.13-.69.15-1.48.74-1.88,4.63-3.11,9.3-5.93,14.55-6.32.78-.06,1.13-.77,1.25-1.75a4.7,4.7,0,0,0,0-1.06,3.07,3.07,0,0,1,1.44-3.2,8.62,8.62,0,0,1,3.42-1.32,29,29,0,0,1,10.34.18c1,.17,1.57-.38,1.69-1.54,0,0,0-.06,0-.09a1.65,1.65,0,0,0-1.3-2,27,27,0,0,0-3.46-.52c-4-.31-7.88-.35-11.63,1.82-.17.1-.33.35-.48-.06a5.26,5.26,0,0,1,.65-3.7,48.39,48.39,0,0,0,5.83-7,23.39,23.39,0,0,0,4.18-9.53,2.05,2.05,0,0,0-.93-2.4c-.69-.26-1.37.33-1.58,1.43a16.65,16.65,0,0,1-1.84,5.11,44.9,44.9,0,0,1-8,10.18,3.36,3.36,0,0,0-1,2.74c.05,2.68,0,5.35,0,8,0,.81-.16,1.22-.77,1.35a30.48,30.48,0,0,0-11.3,4.81c-.17.11-.35.39-.54.16s-.06-.6,0-.87c.35-1.16.7-2.31,1.08-3.45,1.5-4.43,3.3-8.64,5.16-12.8a4.91,4.91,0,0,0,.39-3.35c-.49-2-2.36-3.56-4.39-1.46-6.11,6.31-10,14.55-11.21,25a6.74,6.74,0,0,1-2.08,4.45,38.89,38.89,0,0,1-9.55,6.23c-1.77.89-2.48.1-2.28-2.48.42-5.34.78-10.71,1.55-16a31.45,31.45,0,0,1,1.49-6.71,14.6,14.6,0,0,1,4.35-5.64,27.14,27.14,0,0,0,6.9-9.1c2.38-5.33,2.7-11.31,2.55-17.38a3.86,3.86,0,0,0-.45-1.63c-1.1-2.2-3.42-2.12-4.39.24-1,2.51-2,5.06-2.94,7.67a18.34,18.34,0,0,1-5.77,8.64c-1.6,1.26-3,2.84-4.63,4.14C133,114,130.8,118.78,130,125c-.12,1-.39.84-.8.3a59,59,0,0,1-5-7.49,19.55,19.55,0,0,1-2-5.12,2,2,0,0,1,.67-2.29,32.08,32.08,0,0,0,8-10.56,14.08,14.08,0,0,0,.84-10.71c-.4-1.18-1.06-1.65-1.74-1.24-.84.5-1.07,1.4-.67,2.72a8.19,8.19,0,0,1,.25,4.47c-1.3,5.36-4.44,8.38-7.49,11.75a5.12,5.12,0,0,1-.1-.54c0-.31,0-.62,0-.94A43.17,43.17,0,0,0,121.52,94,15.56,15.56,0,0,0,118.81,87c-.25-.31-.48-.67-.85-.74-.62-.11-1.09.16-1.42.94a2,2,0,0,0,.29,2.22,11.81,11.81,0,0,1,2.09,5.15,38,38,0,0,1,.36,10.65,24.7,24.7,0,0,0,3.38,15.84,81,81,0,0,0,6.08,8.53,1.91,1.91,0,0,1,.55,1.6,44.29,44.29,0,0,0-.27,5.87c0,.86-.29,1.3-.88,1.44a5.91,5.91,0,0,1-3.12-.27,24.66,24.66,0,0,1-8.61-5.39,35.76,35.76,0,0,1-6.8-8.25,25,25,0,0,1-3.39-12.15c-.24-5.69-.28-11.4-1-17a14.28,14.28,0,0,0-1.73-5.92c-1.23-1.92-3-1.76-4,.35A8.84,8.84,0,0,0,99,91.11a43.68,43.68,0,0,0-1.57,10.79c-.2,3.29-.35,6.59-.33,9.9,0,.3.1.71-.14.87s-.44-.24-.62-.44c-3-3.27-6.29-5.1-10.07-5.15-.92,0-1.18-.59-1.26-1.64a9.73,9.73,0,0,1,.72-4.4,13,13,0,0,0,.85-3.18,42,42,0,0,0-1.25-15.17c-.27-1.16-.94-1.62-1.65-1.25a2,2,0,0,0-.8,2.38,57.13,57.13,0,0,1,1.26,8.64,16.83,16.83,0,0,1-.84,7.21,13.81,13.81,0,0,0-.92,5.43c0,1-.24,1-.78.73a11.78,11.78,0,0,1-4.38-4.51c-1.56-2.64-3-5.35-4.58-8-.7-1.21-1.33-1.39-2-.61a2.36,2.36,0,0,0,0,2.9c.65,1.19,1.3,2.36,2,3.54"/><path id="Path_1579" data-name="Path 1579" class="cls-7" d="M123.24,204.14a57.75,57.75,0,0,0-1-8.79,7.69,7.69,0,0,0-.9-2.36c-2.86-4.68-6.23-8.33-10.29-10.39a4.12,4.12,0,0,1-2.84-3.34c-.22-1.24-.56-2.46-.68-3.72a32.79,32.79,0,0,0-7-17.37,19.61,19.61,0,0,0-8.15-6.63,28.25,28.25,0,0,1-3.8-1.17c-.3-.17-.68-.28-.65-.8s.4-.49.66-.64c1.54-.83,3-.15,4.53.26,7,1.94,11.94,7.94,15.34,16.95,1.51,4,2.75,8.25,4.56,12,1.14,2.34,2.51,4.2,4.54,4.86,3,1,5-1.32,5.91-5a49.92,49.92,0,0,0,1-14.83,28.1,28.1,0,0,0-3.29-12.53,16.68,16.68,0,0,0-5.81-6c-6.57-4.25-11.53-11-14.35-20.75a34.61,34.61,0,0,1-1.25-8.58c-.16-5.6,0-11.18.36-16.77a67.07,67.07,0,0,1,.78-7.47c.12-.66.14-1.71.58-1.75s.55,1,.68,1.63a70.23,70.23,0,0,1,1,10.44c.21,4.51.29,9,.73,13.5a25.87,25.87,0,0,0,3,9.72,37.21,37.21,0,0,0,15.55,16.13,9.21,9.21,0,0,0,5.83,1.22c2-.33,3.34-2.29,3.36-5.25a81.68,81.68,0,0,1,.62-9.89,52.1,52.1,0,0,1,1.74-8.66,14,14,0,0,1,4.12-5.94c1.89-1.89,3.78-3.78,5.73-5.53a20.31,20.31,0,0,0,5.46-8.79c.81-2.4,1.72-4.72,2.57-7.09a2.33,2.33,0,0,1,.55-1c.27,8.92-1.41,16.46-6.63,21.74a46.3,46.3,0,0,0-4.92,5.27,22.26,22.26,0,0,0-3.39,9.68c-1.06,6.63-1.42,13.41-2,20.15-.34,4.33,2.46,7.94,5.47,6.28,3.68-2,7.36-4,10.62-7.31a8.93,8.93,0,0,0,2.81-4.81c.3-1.62.4-3.33.67-5a44,44,0,0,1,5-14.63,31,31,0,0,1,4.4-6.14,1,1,0,0,1-.12,1A125,125,0,0,0,159,131.54c-.76,2.81-1.21,5.76-1.73,8.68a22.54,22.54,0,0,1-5.15,11.07c-2.83,3.26-5.87,6-8.8,9.09a31.5,31.5,0,0,0-4.73,6,12.71,12.71,0,0,0-1.83,6.52c0,4-.3,7.94.09,11.92s2.44,6,4.85,5a93.77,93.77,0,0,1,9.68-3.07,33.05,33.05,0,0,0,6.21-2.5,11.24,11.24,0,0,0,3.25-3.12,47.06,47.06,0,0,0,8.6-17.29c.3-1.15.53-2.36.83-3.52a7.64,7.64,0,0,1,2.41-4c.2-.18.48-.36.71-.06s.07.61,0,.92a189.91,189.91,0,0,1-6.43,21.39c-.89,2.3-1.69,4.73-3.33,6.15a25.54,25.54,0,0,1-5.51,3.49c-5.24,2.59-10.64,4.45-15.77,7.59a23.12,23.12,0,0,0-4.51,3.62c-2.07,2.15-3.08,5.17-3.54,8.72a99.9,99.9,0,0,0-.06,20.31c.1,1.36.2,2.71.31,4.07a1.09,1.09,0,0,1,.06.36c0,.4.14.94-.12,1.17s-.58-.13-.85-.37a49,49,0,0,1-9.78-13.13,3.37,3.37,0,0,1-.31-1.63c0-3.64,0-7.3,0-10.94a15.54,15.54,0,0,0-.25-3.79"/><path id="Path_1580" data-name="Path 1580" class="cls-8" d="M123.24,201.94c.44.33.34,1,.34,1.54,0,4.71,0,9.42,0,14.12a4.48,4.48,0,0,0,.5,2.18,72.44,72.44,0,0,0,3.53,6.33,42.41,42.41,0,0,0,6.79,8.37c0-.66.06-1.14.08-1.63.35,3,.55,6.06,1,9,.29,1.88.47,3.8.82,5.66.21,1.12-.05,1.19-.61,1.18-2.63,0-5.27,0-7.9,0-1.9,0-3.79,0-5.69,0-.59,0-.78-.16-.65-1.23,1-8.47,1.56-17,1.8-25.65.18-6.37.23-12.73-.05-19.09a7.3,7.3,0,0,1,0-.81"/><path id="Path_1581" data-name="Path 1581" class="cls-6" d="M240.07,270.41H25.83A9.82,9.82,0,0,1,16,260.59v-1.08a9.81,9.81,0,0,1,9.81-9.82H240.07a9.81,9.81,0,0,1,9.81,9.82v1.08a9.82,9.82,0,0,1-9.81,9.82"/></g></g></g><g id="Group_293" data-name="Group 293"><g class="cls-9"><g id="Group_292" data-name="Group 292"><path id="Path_1582" data-name="Path 1582" class="cls-10" d="M189.13,165.23c-.33.76-.63,1-1.43.74-1.33-.38-2.65-.77-3.94-1.27a26.23,26.23,0,0,1-5.7-3,11.29,11.29,0,0,1-4.22-5.14,6.87,6.87,0,0,1-.05-4.67c0-.07,0-.09.12-.29.34-.79.39-1,.55-1.05s0,0,.46.17h0l.16.07c.15.17-.14.67-.32,1.14a5.59,5.59,0,0,0-.31,1.33,6.21,6.21,0,0,0,1,4.32,11.91,11.91,0,0,0,4,3.85,27.92,27.92,0,0,0,8.17,3.55c.56.14.56.14.78-.41.09-.23.2-.45.28-.69.12-.41.23-.83.35-1.24a16.06,16.06,0,0,0,.52-7.51,9.65,9.65,0,0,0-2.6-5.15,7.86,7.86,0,0,0-9.78-1c-.13.09-.26.18-.38.28-.54.44-.74.74-1,.69a1.25,1.25,0,0,1-.25-.09l0,0h0l-.37-.15c0-.16.31-.62,1.09-1.2a9.2,9.2,0,0,1,3.17-1.52,9,9,0,0,1,10.43,5.59,13.52,13.52,0,0,1,.88,6.42,20.64,20.64,0,0,1-1.44,6.05c0,.06,0,.13-.07.19"/><path id="Path_1583" data-name="Path 1583" class="cls-3" d="M187.57,165a28,28,0,0,1-8.17-3.55,12,12,0,0,1-4-3.85,6.26,6.26,0,0,1-1-4.32,5.59,5.59,0,0,1,.31-1.33c.18-.48.47-1,.33-1.14.49.22,1,.44,1.46.69.33.16.41.31.32.65a4.91,4.91,0,0,0,.61,3.86.57.57,0,0,0,.72.34h0l0,0c.34-.17.34-.43.17-.73l-.12-.22a4.18,4.18,0,0,1-.48-2.57c.08-.52.16-.58.61-.25,1.22.91,2.42,1.86,3.63,2.78a.55.55,0,0,1,.2.76v0a4.53,4.53,0,0,0-.15,3.08.55.55,0,0,0,.62.48h.06c.38-.09.44-.34.35-.67a3.45,3.45,0,0,1-.11-.54,3.64,3.64,0,0,1,.19-1.88,1.86,1.86,0,0,1,.27.22,18.31,18.31,0,0,1,1.23,1.56c.49.75.9,1.53,1.32,2.3a.58.58,0,0,0,.73.35c.32-.1.36-.37.26-.65,0-.09-.07-.17-.11-.26a16,16,0,0,0-2.64-3.92c-.1-.1-.17-.22-.3-.38a3.24,3.24,0,0,1,2.31.2c.43.23.77.19.93-.09s-.05-.56-.48-.77a4.19,4.19,0,0,0-3.2-.23.59.59,0,0,1-.66-.16c-.68-.59-1.36-1.18-2.08-1.73s-1.38-1-2.1-1.5A4.51,4.51,0,0,1,181,151a14.37,14.37,0,0,1,1.86.27c.32.05.56,0,.65-.29a.45.45,0,0,0-.27-.58l-.07,0-.53-.17a6.9,6.9,0,0,0-4.73.5.6.6,0,0,1-.63,0c-.59-.31-1.2-.6-1.82-.86h0l.24.1c.27,0,.47-.26,1-.7l.37-.28a7.87,7.87,0,0,1,9.78,1,9.65,9.65,0,0,1,2.6,5.15,15.92,15.92,0,0,1-.52,7.51c-.12.42-.22.83-.35,1.24a5.86,5.86,0,0,1-.28.69c-.22.55-.22.56-.78.41"/><path id="Path_1584" data-name="Path 1584" class="cls-10" d="M186.77,161a.58.58,0,0,1-.73-.35c-.42-.77-.84-1.55-1.32-2.3a18.31,18.31,0,0,0-1.23-1.56l-.27-.22a3.64,3.64,0,0,0-.19,1.88,3.45,3.45,0,0,0,.11.54c.09.33,0,.58-.35.67a.55.55,0,0,1-.67-.41h0s0,0,0-.06a4.53,4.53,0,0,1,.15-3.08.55.55,0,0,0-.17-.77h0c-1.21-.92-2.41-1.87-3.63-2.78-.45-.34-.54-.28-.61.25a4.18,4.18,0,0,0,.48,2.57,1.55,1.55,0,0,0,.12.22c.17.3.17.57-.17.73a.56.56,0,0,1-.75-.29l0,0a5,5,0,0,1-.61-3.87c.1-.33,0-.48-.31-.65-.49-.24-1-.47-1.47-.68h0s0,0-.15-.06a23.56,23.56,0,0,0-4.55-1.43l-.89-.17c-.33-.07-.53-.25-.5-.56s.32-.45.65-.39c.62.11,1.24.23,1.85.39a26.23,26.23,0,0,1,3.58,1.16v0s.08,0,.35.13h0c.62.27,1.22.55,1.82.86a.6.6,0,0,0,.63,0,6.79,6.79,0,0,1,4.73-.5,4.64,4.64,0,0,1,.53.16.46.46,0,0,1,.37.54h0a.25.25,0,0,1,0,.07c-.09.26-.33.34-.65.28A16.33,16.33,0,0,0,181,151a4.5,4.5,0,0,0-2.28.49c.72.5,1.43,1,2.1,1.49s1.39,1.14,2.07,1.73a.6.6,0,0,0,.67.16,4.16,4.16,0,0,1,3.19.23c.43.21.62.5.48.77s-.49.32-.93.09a3.21,3.21,0,0,0-2.3-.2,3.61,3.61,0,0,0,.3.38,16,16,0,0,1,2.64,3.92c0,.09.08.17.11.26.1.29.06.55-.27.65"/><path id="Path_1585" data-name="Path 1585" class="cls-10" d="M175.09,150.75h0l-.17-.07c.13,0,.14,0,.16.06"/><path id="Path_1586" data-name="Path 1586" class="cls-10" d="M175.43,149.85c-.27-.1-.33-.09-.35-.13v0l.37.16"/></g></g></g><g id="Group_295" data-name="Group 295"><g class="cls-11"><g id="Group_294" data-name="Group 294"><path id="Path_1587" data-name="Path 1587" class="cls-10" d="M175.23,98.35a3.67,3.67,0,0,0,1.5,1.14,2.92,2.92,0,0,0,.52.19c.33.09.51.28.39.65a.57.57,0,0,1-.7.36h0l-.06,0a4.59,4.59,0,0,1-2.55-1.74.55.55,0,0,0-.74-.26h0c-1.42.55-2.85,1.08-4.26,1.64-.53.21-.52.31-.13.65a4.32,4.32,0,0,0,2.45.94h.25c.34,0,.57.15.54.53s-.29.5-.68.48a5,5,0,0,1-3.61-1.5c-.23-.26-.41-.26-.72-.07-.46.29-.91.58-1.36.89h0s0,0-.12.1a22.9,22.9,0,0,0-3.6,3.14l-.62.66a.51.51,0,0,1-.73.13c-.27-.2-.22-.5,0-.75.42-.47.85-.94,1.3-1.38a24.82,24.82,0,0,1,2.87-2.44h0s.07,0,.3-.23h0c.55-.38,1.11-.75,1.69-1.1a.61.61,0,0,0,.32-.54,6.91,6.91,0,0,1,2-4.3,4.82,4.82,0,0,1,.43-.36.45.45,0,0,1,.64,0h0l0,0c.18.22.12.46-.1.7a16.35,16.35,0,0,0-1.2,1.44,4.5,4.5,0,0,0-.78,2.2c.81-.35,1.59-.71,2.37-1s1.71-.59,2.56-.86a.58.58,0,0,0,.48-.48,4.17,4.17,0,0,1,1.87-2.6c.4-.26.76-.27.91,0s0,.58-.41.83A3.3,3.3,0,0,0,175,97.28l.49,0a15.92,15.92,0,0,1,4.72-.2l.28,0c.3.06.49.23.41.56a.57.57,0,0,1-.67.43c-.88,0-1.77-.1-2.65-.07a18.45,18.45,0,0,0-2,.23,1.85,1.85,0,0,0-.33.12"/><path id="Path_1588" data-name="Path 1588" class="cls-10" d="M175.27,90.7a13.47,13.47,0,0,1,5.94,2.61,20.81,20.81,0,0,1,4.4,4.39l.12.15c.48.68.49,1.05-.12,1.61-1,.93-2,1.86-3.13,2.7a26.2,26.2,0,0,1-5.58,3.26,11.21,11.21,0,0,1-6.58.91,6.91,6.91,0,0,1-4-2.4,2.48,2.48,0,0,1-.18-.25c-.5-.7-.67-.87-.61-1s0,0,.38-.31l0,0,.14-.1c.22,0,.49.47.81.88a5.13,5.13,0,0,0,1,.95,6.21,6.21,0,0,0,4.19,1.45,12,12,0,0,0,5.35-1.38,27.88,27.88,0,0,0,7.3-5.1c.42-.41.42-.41.06-.88-.15-.2-.28-.41-.44-.6s-.58-.63-.87-1a16.05,16.05,0,0,0-6.14-4.37,9.72,9.72,0,0,0-5.74-.49,7.87,7.87,0,0,0-5.93,7.84c0,.16,0,.31,0,.46.09.7.25,1,.06,1.23,0,0,0,0-.2.16l0,0s0,0,0,0l-.33.23c-.15,0-.36-.59-.45-1.55a9.2,9.2,0,0,1,.37-3.5,9,9,0,0,1,10.21-6"/><path id="Path_1589" data-name="Path 1589" class="cls-10" d="M166.05,102.25l-.13.1c.1-.08.1-.09.12-.09h0"/><path id="Path_1590" data-name="Path 1590" class="cls-3" d="M173.5,97.68c-.86.27-1.72.54-2.56.86s-1.56.66-2.37,1a4.5,4.5,0,0,1,.78-2.2,16.35,16.35,0,0,1,1.2-1.44c.21-.24.27-.48.1-.7a.46.46,0,0,0-.64-.07l-.06,0a4.71,4.71,0,0,0-.42.36,6.92,6.92,0,0,0-2.05,4.3.58.58,0,0,1-.32.54c-.57.35-1.14.71-1.68,1.1l0,0,.2-.16c.17-.2,0-.53-.07-1.23,0-.15,0-.3,0-.46a7.87,7.87,0,0,1,5.93-7.84,9.75,9.75,0,0,1,5.75.49,16,16,0,0,1,6.13,4.38c.29.31.59.62.88.94s.29.4.44.6c.35.47.35.47-.06.88a28,28,0,0,1-7.3,5.1,11.83,11.83,0,0,1-5.36,1.38,6.2,6.2,0,0,1-4.19-1.44,5.51,5.51,0,0,1-1-1c-.32-.41-.59-.91-.81-.87.44-.31.89-.61,1.36-.9.31-.19.48-.18.72.08a5,5,0,0,0,3.61,1.5c.38,0,.65-.17.67-.48s-.2-.52-.53-.54h-.25a4.32,4.32,0,0,1-2.45-.94c-.4-.33-.4-.43.13-.64,1.41-.57,2.84-1.1,4.26-1.64a.56.56,0,0,1,.76.22v0a4.59,4.59,0,0,0,2.55,1.74.55.55,0,0,0,.73-.28s0,0,0-.05c.13-.38-.06-.56-.39-.65a3.63,3.63,0,0,1-.52-.19,3.83,3.83,0,0,1-1.5-1.14,2.19,2.19,0,0,1,.33-.12,19.09,19.09,0,0,1,2-.24c.89,0,1.77,0,2.66.08a.57.57,0,0,0,.67-.43c.08-.33-.12-.5-.41-.57l-.28,0a15.89,15.89,0,0,0-4.72.2c-.15,0-.29,0-.49,0a3.22,3.22,0,0,1,1.38-1.86c.41-.25.56-.56.4-.83s-.5-.26-.91,0a4.16,4.16,0,0,0-1.86,2.6.61.61,0,0,1-.48.48"/><path id="Path_1591" data-name="Path 1591" class="cls-10" d="M165.46,101.48c-.24.19-.26.24-.3.24h0l.33-.23"/></g></g></g><g id="Group_297" data-name="Group 297"><g class="cls-12"><g id="Group_296" data-name="Group 296"><path id="Path_1592" data-name="Path 1592" class="cls-10" d="M185,116.28c.46.65.47,1-.11,1.54-1,.89-1.95,1.79-3,2.59a25.15,25.15,0,0,1-5.35,3.13,10.82,10.82,0,0,1-6.32.87,6.61,6.61,0,0,1-3.84-2.3,2.8,2.8,0,0,1-.17-.25c-.48-.67-.65-.82-.58-1s.05,0,.36-.3l0,0,.13-.09c.21,0,.47.45.77.84a5.12,5.12,0,0,0,.94.92,5.92,5.92,0,0,0,4,1.38A11.41,11.41,0,0,0,177,122.3a26.84,26.84,0,0,0,7-4.9c.4-.39.39-.39.05-.84-.14-.19-.26-.39-.42-.57s-.56-.61-.84-.91a15.29,15.29,0,0,0-5.88-4.2,9.28,9.28,0,0,0-5.51-.46,7.53,7.53,0,0,0-5.69,7.51c0,.15,0,.3,0,.45.09.67.23,1,.06,1.18l-.2.15,0,0h0l-.31.22c-.14,0-.35-.56-.43-1.48a8.87,8.87,0,0,1,.35-3.36,8.58,8.58,0,0,1,9.8-5.73,13.06,13.06,0,0,1,5.7,2.5,19.82,19.82,0,0,1,4.22,4.21l.12.15"/><path id="Path_1593" data-name="Path 1593" class="cls-3" d="M184,117.42a26.8,26.8,0,0,1-7,4.89,11.47,11.47,0,0,1-5.13,1.33,6.05,6.05,0,0,1-4-1.38,5.4,5.4,0,0,1-.93-.92c-.3-.4-.57-.87-.78-.84.43-.3.86-.58,1.3-.85s.47-.18.7.06a4.7,4.7,0,0,0,3.46,1.44c.37,0,.62-.16.65-.46s-.19-.49-.51-.51h-.24a4,4,0,0,1-2.34-.9c-.39-.32-.39-.42.11-.62,1.35-.54,2.72-1.05,4.09-1.57a.54.54,0,0,1,.73.2h0v0a4.36,4.36,0,0,0,2.44,1.67.54.54,0,0,0,.7-.28s0,0,0,0c.13-.37-.06-.54-.37-.63a2.3,2.3,0,0,1-.5-.18,3.46,3.46,0,0,1-1.44-1.1l.32-.11a17.27,17.27,0,0,1,1.9-.22c.85,0,1.7,0,2.55.07a.55.55,0,0,0,.64-.42c.08-.31-.11-.47-.4-.54l-.27,0a15.57,15.57,0,0,0-4.52.19c-.14,0-.28,0-.47,0A3.1,3.1,0,0,1,176,114c.4-.25.54-.54.39-.8s-.49-.25-.88,0a4.06,4.06,0,0,0-1.79,2.49.56.56,0,0,1-.46.47c-.82.26-1.65.51-2.46.82s-1.49.63-2.27,1a4.3,4.3,0,0,1,.75-2.11c.36-.48.74-.94,1.15-1.39.2-.23.27-.46.09-.67a.45.45,0,0,0-.61-.07l-.05,0c-.14.11-.27.23-.4.35a6.61,6.61,0,0,0-2,4.12.57.57,0,0,1-.31.52c-.55.33-1.09.68-1.61,1l0,0a1.54,1.54,0,0,1,.2-.15c.17-.2,0-.51-.06-1.17,0-.15,0-.3-.05-.45a7.56,7.56,0,0,1,5.69-7.52,9.2,9.2,0,0,1,5.51.47,15.33,15.33,0,0,1,5.89,4.2l.83.9a6.22,6.22,0,0,1,.43.58c.34.45.34.45-.06.84"/><path id="Path_1594" data-name="Path 1594" class="cls-10" d="M180.36,116.07a.56.56,0,0,1-.65.42c-.85,0-1.69-.1-2.54-.07a17.27,17.27,0,0,0-1.9.22l-.32.11a3.49,3.49,0,0,0,1.43,1.1,2.51,2.51,0,0,0,.5.18c.32.09.49.27.38.63a.54.54,0,0,1-.67.34l-.05,0a4.3,4.3,0,0,1-2.44-1.66.54.54,0,0,0-.72-.25h0c-1.36.53-2.73,1-4.09,1.58-.5.2-.5.3-.11.62a4.12,4.12,0,0,0,2.35.9h.23c.33,0,.55.14.52.51s-.28.48-.65.46a4.79,4.79,0,0,1-3.46-1.44c-.23-.25-.39-.26-.69-.07s-.88.56-1.3.85h0s0,0-.12.09a21.53,21.53,0,0,0-3.45,3l-.59.63c-.22.23-.47.31-.7.13s-.22-.49,0-.73c.4-.45.81-.9,1.24-1.32a24.46,24.46,0,0,1,2.75-2.34h0c.05,0,.07,0,.29-.22h0c.53-.37,1.07-.72,1.62-1.06a.56.56,0,0,0,.31-.51,6.61,6.61,0,0,1,2-4.12,4.36,4.36,0,0,1,.4-.35.43.43,0,0,1,.62,0s0,0,0,0c.18.21.12.44-.09.67a17,17,0,0,0-1.15,1.39,4.3,4.3,0,0,0-.75,2.11c.78-.34,1.52-.69,2.27-1s1.64-.57,2.46-.82a.56.56,0,0,0,.46-.47,4.06,4.06,0,0,1,1.79-2.49c.39-.25.73-.26.88,0s0,.56-.39.8a3.13,3.13,0,0,0-1.33,1.78l.47,0a15.23,15.23,0,0,1,4.52-.2l.27,0c.28.07.47.23.4.54"/><path id="Path_1595" data-name="Path 1595" class="cls-10" d="M166.15,120.5l-.13.09c.1-.08.1-.09.13-.09h0"/><path id="Path_1596" data-name="Path 1596" class="cls-10" d="M165.58,119.76c-.22.18-.24.23-.29.23h0l.31-.22"/></g></g></g><g id="Group_299" data-name="Group 299"><g class="cls-13"><g id="Group_298" data-name="Group 298"><path id="Path_1597" data-name="Path 1597" class="cls-10" d="M160.81,108.2c.45.65.47,1-.12,1.54-1,.89-1.95,1.79-3,2.59a25.4,25.4,0,0,1-5.35,3.13,10.82,10.82,0,0,1-6.32.87,6.61,6.61,0,0,1-3.84-2.3,2.8,2.8,0,0,1-.17-.25c-.48-.67-.65-.82-.59-1s.05,0,.37-.29l0,0,.13-.09c.2,0,.47.45.77.84a5.4,5.4,0,0,0,.93.92,6,6,0,0,0,4,1.37,11.33,11.33,0,0,0,5.13-1.32,26.87,26.87,0,0,0,7-4.89c.4-.39.4-.4.06-.85-.14-.19-.27-.39-.42-.57s-.56-.61-.84-.91a15.37,15.37,0,0,0-5.88-4.2,9.28,9.28,0,0,0-5.51-.46,7.52,7.52,0,0,0-5.69,7.51,3.42,3.42,0,0,0,0,.45c.08.67.23,1,.06,1.18l-.2.15,0,0h0l-.31.23c-.15,0-.35-.57-.43-1.49A8.89,8.89,0,0,1,141,107a8.59,8.59,0,0,1,9.8-5.73,13,13,0,0,1,5.69,2.5,20.34,20.34,0,0,1,4.23,4.21l.11.15"/><path id="Path_1598" data-name="Path 1598" class="cls-3" d="M159.79,109.34a26.87,26.87,0,0,1-7,4.89,11.33,11.33,0,0,1-5.13,1.32,6,6,0,0,1-4-1.38,4.77,4.77,0,0,1-.93-.92c-.3-.39-.57-.87-.77-.83.42-.3.85-.59,1.3-.86.3-.18.46-.18.69.07a4.72,4.72,0,0,0,3.46,1.44.55.55,0,0,0,.65-.46c0-.36-.19-.49-.52-.51h-.23a4,4,0,0,1-2.35-.9c-.38-.32-.39-.42.11-.62,1.36-.54,2.73-1,4.09-1.57a.54.54,0,0,1,.73.2h0v0a4.37,4.37,0,0,0,2.44,1.66.53.53,0,0,0,.7-.26.17.17,0,0,0,0,0c.12-.37-.06-.54-.37-.63a2.3,2.3,0,0,1-.5-.18,3.46,3.46,0,0,1-1.44-1.1l.32-.11a17.27,17.27,0,0,1,1.9-.22c.85,0,1.7,0,2.54.07a.56.56,0,0,0,.65-.42c.08-.31-.11-.47-.4-.54l-.27,0a15.64,15.64,0,0,0-4.53.19,4.31,4.31,0,0,1-.46.05,3.15,3.15,0,0,1,1.32-1.78c.4-.24.54-.54.39-.8s-.49-.24-.87,0a4,4,0,0,0-1.79,2.49.57.57,0,0,1-.46.47c-.83.26-1.65.52-2.46.82s-1.5.64-2.27,1a4.32,4.32,0,0,1,.74-2.11,16.94,16.94,0,0,1,1.16-1.38c.2-.23.26-.46.09-.67a.44.44,0,0,0-.61-.07l-.05,0a4.36,4.36,0,0,0-.4.35,6.61,6.61,0,0,0-2,4.12.56.56,0,0,1-.31.51c-.55.34-1.09.69-1.62,1.06l0,0,.2-.15c.17-.2,0-.51-.06-1.18,0-.14,0-.3,0-.44a7.55,7.55,0,0,1,5.69-7.52,9.28,9.28,0,0,1,5.51.46A15.45,15.45,0,0,1,158.6,107c.28.3.57.6.84.91s.28.38.42.57c.34.46.34.46-.06.85"/><path id="Path_1599" data-name="Path 1599" class="cls-10" d="M156.14,108a.55.55,0,0,1-.64.42c-.85,0-1.7-.1-2.55-.07a17.27,17.27,0,0,0-1.9.22l-.32.11a3.46,3.46,0,0,0,1.44,1.1,2.3,2.3,0,0,0,.5.18c.31.09.49.27.37.63a.54.54,0,0,1-.67.34l-.05,0a4.37,4.37,0,0,1-2.44-1.66.53.53,0,0,0-.71-.25h0c-1.37.53-2.74,1-4.1,1.58-.5.2-.5.3-.11.62a4.12,4.12,0,0,0,2.35.9h.24c.32,0,.55.14.51.51s-.28.48-.65.46a4.79,4.79,0,0,1-3.46-1.44c-.22-.25-.39-.26-.69-.07s-.87.56-1.3.85h0s0,0-.12.09a21.17,21.17,0,0,0-3.46,3l-.59.63c-.22.23-.47.31-.7.13s-.21-.49,0-.73c.4-.45.82-.9,1.25-1.32a23.6,23.6,0,0,1,2.75-2.34h0s.07,0,.29-.22h0c.52-.37,1.06-.72,1.62-1.06a.57.57,0,0,0,.3-.51,6.6,6.6,0,0,1,2-4.12,3.34,3.34,0,0,1,.4-.35.43.43,0,0,1,.62,0l0,0c.17.21.11.44-.09.67a15.53,15.53,0,0,0-1.16,1.39,4.29,4.29,0,0,0-.74,2.11c.78-.34,1.51-.69,2.27-1s1.63-.57,2.46-.82a.57.57,0,0,0,.46-.47,4,4,0,0,1,1.79-2.5c.39-.24.73-.25.87,0s0,.57-.39.8a3.13,3.13,0,0,0-1.32,1.79l.46,0a15.3,15.3,0,0,1,4.53-.19l.27,0c.28.06.47.22.39.54"/><path id="Path_1600" data-name="Path 1600" class="cls-10" d="M141.94,112.41l-.13.1c.1-.08.1-.09.12-.09h0"/><path id="Path_1601" data-name="Path 1601" class="cls-10" d="M141.37,111.68c-.22.18-.25.23-.29.23h0l.31-.23"/></g></g></g><g id="Group_301" data-name="Group 301"><g class="cls-14"><g id="Group_300" data-name="Group 300"><path id="Path_1602" data-name="Path 1602" class="cls-10" d="M129.39,96c-1.43.55-2.85,1.08-4.27,1.65-.52.2-.52.31-.12.64a4.26,4.26,0,0,0,2.44.94h.25c.34,0,.58.15.54.54s-.3.5-.68.48a5,5,0,0,1-3.61-1.5c-.23-.26-.41-.27-.72-.08s-.91.59-1.35.9h0s0,0-.12.09a22.9,22.9,0,0,0-3.6,3.14l-.62.67a.51.51,0,0,1-.73.13c-.27-.21-.21-.5,0-.76.42-.47.86-.93,1.3-1.37A25.53,25.53,0,0,1,121,99.08h0s.07,0,.3-.24h0c.55-.39,1.11-.75,1.69-1.1a.61.61,0,0,0,.32-.54,6.87,6.87,0,0,1,2-4.3,3.62,3.62,0,0,1,.42-.36.45.45,0,0,1,.64,0h0s0,0,0,0c.18.22.12.46-.1.7a16.35,16.35,0,0,0-1.2,1.44,4.46,4.46,0,0,0-.78,2.2c.81-.35,1.59-.72,2.37-1s1.71-.58,2.56-.85a.6.6,0,0,0,.48-.49,4.2,4.2,0,0,1,1.87-2.6c.4-.26.76-.26.91,0s0,.59-.41.84a3.28,3.28,0,0,0-1.38,1.86c.2,0,.35,0,.49,0a16.23,16.23,0,0,1,4.72-.2l.28,0c.3.07.49.24.41.57a.57.57,0,0,1-.67.43c-.89,0-1.77-.1-2.66-.08a18.58,18.58,0,0,0-2,.24,2,2,0,0,0-.34.12,3.83,3.83,0,0,0,1.5,1.14,3.35,3.35,0,0,0,.53.19c.32.09.51.27.39.65a.55.55,0,0,1-.7.35h0l-.06,0a4.51,4.51,0,0,1-2.55-1.74.57.57,0,0,0-.75-.25h0"/><path id="Path_1603" data-name="Path 1603" class="cls-10" d="M139.24,94a16.13,16.13,0,0,0-6.14-4.37,9.75,9.75,0,0,0-5.75-.49A7.88,7.88,0,0,0,121.42,97c0,.16,0,.31,0,.46.09.7.24,1,.06,1.23l-.2.16,0,0h0l-.32.23c-.16,0-.37-.59-.45-1.55a9.2,9.2,0,0,1,.36-3.5,9,9,0,0,1,10.22-6A13.5,13.5,0,0,1,137,90.66a21.1,21.1,0,0,1,4.41,4.39l.12.16c.48.68.49,1-.12,1.6-1,.94-2,1.87-3.13,2.7a25.83,25.83,0,0,1-5.58,3.27,11.32,11.32,0,0,1-6.59.91,6.89,6.89,0,0,1-4-2.4c0-.06,0-.08-.18-.26-.5-.7-.67-.87-.61-1s0,0,.38-.31h0l.14-.1c.21,0,.49.46.8.87a5.57,5.57,0,0,0,1,1,6.25,6.25,0,0,0,4.19,1.44,11.91,11.91,0,0,0,5.35-1.38,27.88,27.88,0,0,0,7.3-5.1c.42-.41.41-.41.06-.88-.15-.2-.28-.41-.44-.6s-.58-.63-.87-1"/><path id="Path_1604" data-name="Path 1604" class="cls-10" d="M121.87,99.62a.91.91,0,0,0-.13.1l.12-.1h0"/><path id="Path_1605" data-name="Path 1605" class="cls-3" d="M133.1,89.61A16.05,16.05,0,0,1,139.24,94c.29.32.59.63.87,1s.3.4.44.59c.36.48.36.48-.06.89a27.88,27.88,0,0,1-7.3,5.1,12,12,0,0,1-5.35,1.39,6.21,6.21,0,0,1-4.19-1.45,5.13,5.13,0,0,1-1-1c-.32-.41-.59-.91-.81-.88.44-.31.9-.6,1.36-.89.31-.19.48-.19.72.07a5,5,0,0,0,3.61,1.5c.38,0,.65-.17.67-.48s-.2-.52-.53-.53h-.25a4.32,4.32,0,0,1-2.45-.94c-.4-.34-.4-.44.13-.65,1.41-.56,2.84-1.1,4.26-1.64a.56.56,0,0,1,.76.22v0A4.59,4.59,0,0,0,132.71,98a.55.55,0,0,0,.73-.28.14.14,0,0,0,0-.06c.13-.37-.06-.55-.39-.65a3.63,3.63,0,0,1-.52-.19,3.74,3.74,0,0,1-1.5-1.14,2.19,2.19,0,0,1,.33-.12,19.06,19.06,0,0,1,2-.23c.89,0,1.77,0,2.66.07a.57.57,0,0,0,.67-.43c.08-.33-.12-.5-.41-.56l-.28,0a15.89,15.89,0,0,0-4.72.2l-.49,0a3.28,3.28,0,0,1,1.38-1.86c.42-.25.56-.56.4-.84s-.5-.26-.91,0a4.18,4.18,0,0,0-1.86,2.6.61.61,0,0,1-.48.49c-.86.26-1.72.53-2.56.85s-1.56.66-2.37,1a4.43,4.43,0,0,1,.78-2.19,16.48,16.48,0,0,1,1.2-1.45c.21-.24.27-.48.1-.7a.47.47,0,0,0-.64-.07l0,0a5,5,0,0,0-.43.37,6.83,6.83,0,0,0-2,4.3.61.61,0,0,1-.32.53c-.58.35-1.14.72-1.69,1.1l0,0,.2-.15c.18-.21,0-.54-.06-1.23,0-.16,0-.31,0-.47a7.86,7.86,0,0,1,5.93-7.83,9.67,9.67,0,0,1,5.75.48"/><path id="Path_1606" data-name="Path 1606" class="cls-10" d="M121.28,98.85c-.23.19-.26.24-.3.24h0l.32-.23"/></g></g></g><g id="Group_303" data-name="Group 303"><g class="cls-15"><g id="Group_302" data-name="Group 302"><path id="Path_1607" data-name="Path 1607" class="cls-10" d="M157.59,85a15.89,15.89,0,0,1,4.72-.2l.28,0c.3.07.48.24.41.56a.57.57,0,0,1-.67.44c-.89,0-1.77-.1-2.66-.08a19.06,19.06,0,0,0-2,.23l-.33.13a3.83,3.83,0,0,0,1.5,1.14,3.56,3.56,0,0,0,.52.18c.33.1.52.28.4.65a.57.57,0,0,1-.7.36h0l-.05,0a4.56,4.56,0,0,1-2.55-1.74.57.57,0,0,0-.75-.26h0c-1.43.55-2.85,1.08-4.27,1.65-.52.2-.52.3-.12.64a4.26,4.26,0,0,0,2.44.94H154c.34,0,.58.15.54.53s-.3.5-.68.48a4.92,4.92,0,0,1-3.61-1.5c-.23-.25-.41-.26-.72-.07s-.91.59-1.35.89h0s0,0-.13.1a23,23,0,0,0-3.61,3.14l-.61.66c-.23.25-.49.33-.73.14s-.22-.5,0-.76c.41-.47.85-.93,1.3-1.38a25.5,25.5,0,0,1,2.86-2.43h0s.07,0,.3-.24h0c.54-.38,1.1-.75,1.68-1.1a.59.59,0,0,0,.32-.53,6.9,6.9,0,0,1,2-4.3,5,5,0,0,1,.42-.37.46.46,0,0,1,.64,0h0l.05,0c.18.22.13.46-.1.7-.42.46-.82,1-1.2,1.45a4.51,4.51,0,0,0-.77,2.19c.81-.35,1.58-.71,2.36-1s1.71-.59,2.56-.85a.6.6,0,0,0,.48-.49,4.24,4.24,0,0,1,1.87-2.6c.41-.26.76-.27.91,0s0,.59-.41.84a3.22,3.22,0,0,0-1.37,1.86l.49,0"/><path id="Path_1608" data-name="Path 1608" class="cls-10" d="M157.4,78.48a13.59,13.59,0,0,1,5.94,2.61,20.86,20.86,0,0,1,4.41,4.39,1.58,1.58,0,0,0,.12.15c.47.68.49,1.05-.12,1.61-1,.93-2,1.86-3.14,2.7A26.2,26.2,0,0,1,159,93.2a11.2,11.2,0,0,1-6.58.91,6.93,6.93,0,0,1-4-2.39,2.48,2.48,0,0,1-.18-.25c-.5-.7-.67-.87-.61-1s0,0,.39-.31l0,0,.13-.1c.22,0,.49.47.81.88a5.13,5.13,0,0,0,1,1,6.21,6.21,0,0,0,4.19,1.45,12,12,0,0,0,5.35-1.38,27.88,27.88,0,0,0,7.3-5.1c.42-.41.42-.41.06-.89a6.46,6.46,0,0,0-.44-.59c-.28-.33-.57-.63-.87-.95A16.05,16.05,0,0,0,159.42,80a9.56,9.56,0,0,0-5.74-.49,7.85,7.85,0,0,0-5.93,7.85,3.42,3.42,0,0,0,0,.46c.09.7.24,1,.06,1.23l-.2.16,0,0h0l-.32.23c-.16-.05-.37-.59-.45-1.55a9.2,9.2,0,0,1,.36-3.5,9,9,0,0,1,10.22-6"/><path id="Path_1609" data-name="Path 1609" class="cls-10" d="M148.19,90a.61.61,0,0,0-.14.1c.1-.08.1-.09.13-.1h0"/><path id="Path_1610" data-name="Path 1610" class="cls-3" d="M149.29,88.17c-.57.34-1.14.71-1.68,1.1l0,0c.07,0,.13-.1.2-.15.17-.21,0-.53-.07-1.23,0-.15,0-.31,0-.46a7.86,7.86,0,0,1,5.93-7.84,9.67,9.67,0,0,1,5.75.48,16.13,16.13,0,0,1,6.14,4.37c.29.32.59.62.87.95s.3.4.44.59c.35.48.36.48-.06.89a28.11,28.11,0,0,1-7.3,5.1,11.87,11.87,0,0,1-5.35,1.37A6.2,6.2,0,0,1,150,91.86a5.24,5.24,0,0,1-1-1c-.31-.4-.58-.9-.8-.87.44-.31.89-.61,1.35-.89s.49-.19.72.07a5,5,0,0,0,3.61,1.5c.39,0,.65-.17.68-.48s-.2-.52-.54-.53l-.24,0a4.16,4.16,0,0,1-2.45-.94c-.4-.33-.41-.43.12-.64,1.42-.57,2.85-1.1,4.27-1.64a.56.56,0,0,1,.76.22v0A4.51,4.51,0,0,0,159,88.44a.55.55,0,0,0,.73-.28s0,0,0,0c.12-.37-.06-.56-.39-.65a3.24,3.24,0,0,1-.52-.19,3.76,3.76,0,0,1-1.5-1.14,1.85,1.85,0,0,1,.33-.12,18.45,18.45,0,0,1,2-.23c.88,0,1.77,0,2.65.07a.57.57,0,0,0,.67-.43c.09-.33-.12-.5-.41-.56l-.28,0a15.92,15.92,0,0,0-4.72.2l-.48,0a3.27,3.27,0,0,1,1.37-1.87c.42-.25.57-.56.41-.83s-.5-.26-.91,0a4.21,4.21,0,0,0-1.87,2.6.58.58,0,0,1-.48.48c-.86.27-1.71.54-2.56.86s-1.55.66-2.36,1a4.58,4.58,0,0,1,.77-2.2q.57-.75,1.2-1.44c.22-.24.28-.48.1-.7a.46.46,0,0,0-.64-.07l0,0a3.62,3.62,0,0,0-.42.36,6.92,6.92,0,0,0-2,4.3.6.6,0,0,1-.32.54"/><path id="Path_1611" data-name="Path 1611" class="cls-10" d="M147.6,89.27c-.23.19-.26.23-.3.24h0l.33-.24"/></g></g></g><g id="Group_305" data-name="Group 305"><g class="cls-16"><g id="Group_304" data-name="Group 304"><path id="Path_1612" data-name="Path 1612" class="cls-10" d="M162,148.43c0,.31-.29.5-.68.48a5,5,0,0,1-3.6-1.5c-.24-.26-.41-.26-.73-.07s-.91.58-1.35.89h0s0,0-.13.09a23.43,23.43,0,0,0-3.6,3.15l-.61.66c-.23.24-.49.32-.73.13s-.22-.5,0-.75c.41-.48.85-.94,1.3-1.38a25.58,25.58,0,0,1,2.86-2.44h0s.08-.05.3-.23h0c.55-.39,1.11-.75,1.69-1.1a.61.61,0,0,0,.32-.54,6.92,6.92,0,0,1,2.05-4.3,3.62,3.62,0,0,1,.42-.36.45.45,0,0,1,.64,0h0a.12.12,0,0,1,.05,0c.18.22.12.46-.1.7a18.31,18.31,0,0,0-1.2,1.44,4.56,4.56,0,0,0-.78,2.2c.81-.35,1.59-.72,2.37-1s1.71-.59,2.56-.86a.58.58,0,0,0,.48-.49,4.26,4.26,0,0,1,1.87-2.6c.41-.26.76-.26.91,0s0,.59-.41.84a3.25,3.25,0,0,0-1.37,1.86,4.77,4.77,0,0,0,.48-.05,16.26,16.26,0,0,1,4.72-.2l.28,0c.3.07.49.24.42.57a.59.59,0,0,1-.68.43c-.88,0-1.76-.1-2.65-.08a19.09,19.09,0,0,0-2,.24l-.33.12a3.76,3.76,0,0,0,1.5,1.14,3.24,3.24,0,0,0,.52.19c.33.09.51.27.39.65a.54.54,0,0,1-.69.35h0l-.06,0a4.51,4.51,0,0,1-2.55-1.74.56.56,0,0,0-.75-.25h0c-1.42.55-2.85,1.07-4.26,1.64-.53.21-.52.31-.13.64a4.18,4.18,0,0,0,2.45.94l.25,0c.34,0,.57.14.53.53"/><path id="Path_1613" data-name="Path 1613" class="cls-10" d="M164.85,136.68a13.57,13.57,0,0,1,5.94,2.6,21.34,21.34,0,0,1,4.41,4.39,1.67,1.67,0,0,0,.12.16c.48.68.49,1-.12,1.6a40.26,40.26,0,0,1-3.14,2.7,26.24,26.24,0,0,1-5.58,3.27,11.2,11.2,0,0,1-6.58.9,6.87,6.87,0,0,1-4-2.39l-.17-.25c-.5-.7-.68-.87-.61-1s0,0,.38-.3l0,0,.13-.1c.22,0,.49.47.81.87a5.19,5.19,0,0,0,1,1,6.3,6.3,0,0,0,4.19,1.45,12.09,12.09,0,0,0,5.36-1.38,28,28,0,0,0,7.3-5.1c.41-.41.41-.41.06-.89-.15-.2-.28-.41-.44-.59s-.58-.63-.88-.95a16.09,16.09,0,0,0-6.13-4.37,9.6,9.6,0,0,0-5.75-.49,7.86,7.86,0,0,0-5.93,7.84c0,.15,0,.31,0,.46.09.7.25,1,.07,1.23l-.2.15a.08.08,0,0,0,0,0s0,0,0,0l-.33.24c-.15-.05-.36-.59-.45-1.56a9.25,9.25,0,0,1,.37-3.5,9,9,0,0,1,10.21-6"/><path id="Path_1614" data-name="Path 1614" class="cls-10" d="M155.64,148.23l-.13.1c.1-.08.1-.09.12-.09h0"/><path id="Path_1615" data-name="Path 1615" class="cls-3" d="M155.3,147.27c.18-.2,0-.53-.06-1.23a3.41,3.41,0,0,1-.05-.46,7.87,7.87,0,0,1,5.93-7.84,9.67,9.67,0,0,1,5.75.48A16,16,0,0,1,173,142.6c.29.31.59.62.88,1,.16.18.29.4.44.59.35.47.35.48-.06.88a28,28,0,0,1-7.3,5.1,11.83,11.83,0,0,1-5.36,1.38,6.2,6.2,0,0,1-4.19-1.44,5.51,5.51,0,0,1-1-1c-.32-.41-.59-.91-.81-.87.44-.31.9-.61,1.36-.89.31-.2.48-.19.72.07a5,5,0,0,0,3.61,1.5c.38,0,.65-.17.67-.48s-.2-.52-.54-.53l-.24,0a4.16,4.16,0,0,1-2.45-.94c-.4-.33-.41-.43.12-.64,1.42-.57,2.85-1.1,4.27-1.64a.56.56,0,0,1,.76.22h0v0a4.51,4.51,0,0,0,2.55,1.74.55.55,0,0,0,.73-.27h0a.08.08,0,0,0,0-.05c.12-.37-.06-.56-.39-.65a3.24,3.24,0,0,1-.52-.19,3.76,3.76,0,0,1-1.5-1.14,2.19,2.19,0,0,1,.33-.12,19.06,19.06,0,0,1,2-.23c.89,0,1.77,0,2.65.07a.59.59,0,0,0,.68-.43c.08-.33-.13-.5-.42-.56l-.28,0a15.92,15.92,0,0,0-4.72.2l-.48.05a3.27,3.27,0,0,1,1.37-1.87c.42-.25.57-.56.41-.83s-.5-.26-.91,0a4.21,4.21,0,0,0-1.87,2.6.58.58,0,0,1-.47.48c-.87.27-1.72.54-2.56.86s-1.56.66-2.37,1a4.58,4.58,0,0,1,.77-2.2q.57-.75,1.2-1.44c.22-.24.28-.48.1-.7a.46.46,0,0,0-.64-.07l-.05,0a3.62,3.62,0,0,0-.42.36,6.92,6.92,0,0,0-2.05,4.3.6.6,0,0,1-.32.54c-.57.35-1.14.71-1.68,1.1l0,0,.2-.16"/><path id="Path_1616" data-name="Path 1616" class="cls-10" d="M155.05,147.46c-.23.19-.26.24-.3.24h0l.32-.23"/></g></g></g><g id="Group_307" data-name="Group 307"><g class="cls-17"><g id="Group_306" data-name="Group 306"><path id="Path_1617" data-name="Path 1617" class="cls-10" d="M184.73,121.39c.83.08,1.11.3,1.14,1.13a40.83,40.83,0,0,1,0,4.14,26.32,26.32,0,0,1-1.15,6.35,11.23,11.23,0,0,1-3.6,5.59,6.92,6.92,0,0,1-4.43,1.49l-.31,0c-.86-.08-1.1-.06-1.17-.2a3.66,3.66,0,0,1,0-.49v0a.78.78,0,0,1,0-.16c.11-.19.67-.08,1.19-.05a5.21,5.21,0,0,0,1.36-.11,6.23,6.23,0,0,0,3.82-2.24,12,12,0,0,0,2.44-5,28.16,28.16,0,0,0,.88-8.86c0-.58,0-.58-.63-.62a6,6,0,0,0-.74,0c-.43,0-.85,0-1.29,0a16.06,16.06,0,0,0-7.31,1.8,9.67,9.67,0,0,0-4.11,4,7.87,7.87,0,0,0,2.09,9.6l.38.27c.58.38.93.48,1,.75a1.06,1.06,0,0,1,0,.25v.07l0,.4c-.13.09-.68-.11-1.47-.67a9.22,9.22,0,0,1-2.42-2.56,9,9,0,0,1,2.12-11.64,13.57,13.57,0,0,1,5.86-2.8,20.85,20.85,0,0,1,6.2-.49h.2"/><path id="Path_1618" data-name="Path 1618" class="cls-3" d="M185,123a27.88,27.88,0,0,1-.89,8.86,11.88,11.88,0,0,1-2.43,5,6.23,6.23,0,0,1-3.82,2.24,5.26,5.26,0,0,1-1.37.12c-.51,0-1.07-.15-1.18,0,.05-.54.12-1.08.2-1.61,0-.37.17-.49.52-.5a5,5,0,0,0,3.49-1.76.57.57,0,0,0,.1-.8h0l0,0c-.27-.27-.52-.19-.76.06-.06.06-.11.13-.17.18a4.25,4.25,0,0,1-2.31,1.25c-.52.08-.6,0-.42-.5.49-1.44,1-2.87,1.54-4.31a.55.55,0,0,1,.65-.43h0a4.51,4.51,0,0,0,3-.8.55.55,0,0,0,.27-.73l0,0c-.2-.34-.46-.32-.75-.12a4.53,4.53,0,0,1-.48.27,3.83,3.83,0,0,1-1.85.39,3.05,3.05,0,0,1,.13-.32,18.45,18.45,0,0,1,1.11-1.66c.56-.68,1.18-1.32,1.78-2a.57.57,0,0,0,.11-.79c-.2-.28-.45-.24-.7-.06l-.22.19a15.69,15.69,0,0,0-2.92,3.71c-.07.12-.16.23-.28.4a3.23,3.23,0,0,1-.51-2.26c.08-.48-.06-.79-.37-.85s-.52.21-.59.69a4.21,4.21,0,0,0,.76,3.11.61.61,0,0,1,.06.68c-.37.83-.72,1.66-1,2.5s-.52,1.62-.78,2.46a4.47,4.47,0,0,1-1.16-2,16.4,16.4,0,0,1-.31-1.86c-.05-.32-.19-.52-.47-.52s-.46.18-.47.51a5,5,0,0,0,0,.55,6.87,6.87,0,0,0,1.92,4.36.56.56,0,0,1,.2.59c-.11.66-.2,1.33-.26,2v0a2.11,2.11,0,0,0,0-.26c0-.26-.39-.36-1-.75a3.28,3.28,0,0,1-.38-.27,7.86,7.86,0,0,1-2.08-9.6,9.63,9.63,0,0,1,4.13-4.06,16,16,0,0,1,7.31-1.8c.43,0,.85,0,1.29,0,.24,0,.49,0,.74,0,.59,0,.59,0,.63.62"/><path id="Path_1619" data-name="Path 1619" class="cls-10" d="M181.4,124.94a.58.58,0,0,1-.1.79c-.61.64-1.23,1.28-1.79,2-.4.54-.77,1.09-1.11,1.66a1.75,1.75,0,0,0-.12.32,3.79,3.79,0,0,0,1.84-.39,4.67,4.67,0,0,0,.49-.27c.28-.19.54-.21.74.12a.55.55,0,0,1-.18.76l0,0a4.53,4.53,0,0,1-3,.8.57.57,0,0,0-.69.4s0,0,0,0c-.51,1.44-1,2.87-1.53,4.31-.18.53-.1.59.42.5a4.25,4.25,0,0,0,2.31-1.25l.16-.17c.24-.25.49-.34.76-.07a.57.57,0,0,1,0,.8l0,0a5,5,0,0,1-3.49,1.76c-.34,0-.46.13-.52.5-.08.53-.15,1.07-.2,1.6v0s0,0,0,.15a23.14,23.14,0,0,0,0,4.78c0,.3.07.6.1.9s-.07.58-.37.64-.53-.16-.58-.49c-.08-.63-.15-1.26-.2-1.89a24.84,24.84,0,0,1,0-3.76h0s0-.09,0-.38c.06-.67.15-1.34.26-2a.62.62,0,0,0-.2-.6,6.9,6.9,0,0,1-1.93-4.35,5.23,5.23,0,0,1,0-.56c0-.32.19-.52.47-.51s.43.21.47.53c.07.62.18,1.24.31,1.85a4.6,4.6,0,0,0,1.16,2c.27-.84.49-1.66.78-2.45s.66-1.68,1-2.5a.57.57,0,0,0-.06-.68,4.21,4.21,0,0,1-.75-3.11c.06-.48.29-.75.59-.7s.45.37.36.85a3.23,3.23,0,0,0,.52,2.26,4.72,4.72,0,0,0,.27-.4,16.15,16.15,0,0,1,2.93-3.71,1.92,1.92,0,0,1,.22-.18c.24-.18.5-.22.69,0"/><path id="Path_1620" data-name="Path 1620" class="cls-10" d="M175.26,139.18s0,.11,0,.16c0-.12,0-.13,0-.15h0"/><path id="Path_1621" data-name="Path 1621" class="cls-10" d="M174.29,139.13c0,.3,0,.34,0,.38h0c0-.13,0-.26,0-.4"/></g></g></g><g id="Group_309" data-name="Group 309"><g class="cls-18"><g id="Group_308" data-name="Group 308"><path id="Path_1622" data-name="Path 1622" class="cls-10" d="M100.2,109.37c-.26.79-.17,1.14.57,1.51,1.24.61,2.49,1.21,3.77,1.71a26.6,26.6,0,0,0,6.28,1.55,11.27,11.27,0,0,0,6.57-1,6.87,6.87,0,0,0,3.17-3.43c0-.07,0-.09.1-.3.29-.82.4-1,.3-1.15s-.06,0-.45-.18h0l-.16,0c-.21,0-.34.59-.52,1.07a5.55,5.55,0,0,1-.66,1.19,6.21,6.21,0,0,1-3.62,2.56,11.85,11.85,0,0,1-5.52.2,28.08,28.08,0,0,1-8.45-2.83c-.51-.27-.5-.28-.3-.83.09-.23.16-.47.26-.7.18-.39.38-.77.57-1.15a15.92,15.92,0,0,1,4.64-5.93,9.65,9.65,0,0,1,5.38-2.09,7.87,7.87,0,0,1,7.9,5.84c0,.15.06.3.09.46.11.69.06,1,.29,1.2l.24.09,0,0h0l.37.12c.14-.08.19-.67,0-1.61a9.41,9.41,0,0,0-1.34-3.26,9,9,0,0,0-11.5-2.83,13.49,13.49,0,0,0-5,4.19,21,21,0,0,0-3,5.46l-.07.18"/><path id="Path_1623" data-name="Path 1623" class="cls-3" d="M101.55,110.21A28.08,28.08,0,0,0,110,113a11.85,11.85,0,0,0,5.52-.2,6.19,6.19,0,0,0,3.61-2.56,5.11,5.11,0,0,0,.66-1.19c.19-.48.3-1,.53-1.07-.51-.17-1-.32-1.55-.47-.36-.1-.52,0-.67.27a5,5,0,0,1-3,2.46.57.57,0,0,1-.77-.24h0s0,0,0,0c-.14-.35,0-.55.37-.66l.23-.08a4.28,4.28,0,0,0,2.08-1.6c.29-.43.27-.53-.3-.58-1.51-.14-3-.24-4.55-.37a.56.56,0,0,0-.67.43h0v0a4.49,4.49,0,0,1-2,2.38.55.55,0,0,1-.78-.06l0,0c-.22-.33-.1-.55.19-.74a2.91,2.91,0,0,0,.46-.32,3.73,3.73,0,0,0,1.11-1.52l-.35,0a18.68,18.68,0,0,0-2,.34c-.85.23-1.69.53-2.53.82a.55.55,0,0,1-.76-.23c-.18-.28,0-.51.23-.65a1.51,1.51,0,0,1,.26-.12,15.81,15.81,0,0,1,4.58-1.15,3.9,3.9,0,0,0,.48-.09,3.3,3.3,0,0,0-1.85-1.4c-.47-.12-.7-.37-.62-.68s.41-.39.87-.26a4.24,4.24,0,0,1,2.53,2,.58.58,0,0,0,.6.33c.9,0,1.8,0,2.7.1s1.68.19,2.56.3a4.62,4.62,0,0,0-1.37-1.89,17.73,17.73,0,0,0-1.56-1c-.28-.17-.4-.38-.29-.64a.46.46,0,0,1,.59-.25l.06,0a2.84,2.84,0,0,1,.5.23,6.83,6.83,0,0,1,3.18,3.54.58.58,0,0,0,.46.42c.65.17,1.29.36,1.93.58l0,0-.24-.09c-.23-.15-.18-.5-.29-1.2,0-.15,0-.31-.09-.46a7.88,7.88,0,0,0-7.9-5.84,9.65,9.65,0,0,0-5.38,2.09,16,16,0,0,0-4.64,5.93c-.19.38-.39.77-.57,1.15-.1.23-.17.47-.25.7-.2.56-.21.56.3.83"/><path id="Path_1624" data-name="Path 1624" class="cls-10" d="M104.81,107.79a.57.57,0,0,0,.77.22c.83-.28,1.66-.59,2.52-.82a18.83,18.83,0,0,1,2-.33,1.4,1.4,0,0,1,.35,0,3.79,3.79,0,0,1-1.11,1.51q-.23.18-.45.33c-.29.18-.42.41-.19.73a.54.54,0,0,0,.76.14h0l0,0a4.55,4.55,0,0,0,2-2.39.57.57,0,0,1,.65-.46h0c1.52.12,3,.22,4.56.37.56,0,.58.14.3.58a4.2,4.2,0,0,1-2.08,1.59l-.23.09c-.32.11-.5.3-.37.66a.58.58,0,0,0,.76.28h0a5,5,0,0,0,3-2.46c.16-.32.32-.37.68-.27.52.14,1,.3,1.55.47h0s0,0,.14,0h0a22.17,22.17,0,0,1,4.34,2l.78.46a.52.52,0,0,0,.75-.08c.2-.28.06-.55-.22-.73-.54-.34-1.08-.66-1.64-.95a24,24,0,0,0-3.44-1.53h0s-.08,0-.35-.14h0c-.63-.22-1.28-.41-1.93-.58a.58.58,0,0,1-.45-.42,6.94,6.94,0,0,0-3.18-3.55l-.5-.23a.46.46,0,0,0-.63.16l0,.06c-.11.26,0,.47.29.65a18.38,18.38,0,0,1,1.56,1,4.53,4.53,0,0,1,1.37,1.89c-.88-.1-1.72-.24-2.56-.3s-1.8-.08-2.7-.09a.61.61,0,0,1-.6-.34,4.22,4.22,0,0,0-2.54-2c-.46-.14-.8,0-.87.25s.15.57.63.69a3.22,3.22,0,0,1,1.84,1.4l-.48.09A15.79,15.79,0,0,0,105.3,107l-.26.12c-.26.15-.4.37-.23.66"/><path id="Path_1625" data-name="Path 1625" class="cls-10" d="M120.33,108h0l.16.06-.14-.06"/><path id="Path_1626" data-name="Path 1626" class="cls-10" d="M120.67,107.12c.28.11.31.15.36.14h0l-.38-.13"/></g></g></g><g id="Group_311" data-name="Group 311"><g class="cls-19"><g id="Group_310" data-name="Group 310"><path id="Path_1627" data-name="Path 1627" class="cls-10" d="M72.69,128.65c-.54.63-.59,1,0,1.61.93,1,1.86,2,2.88,3A25.65,25.65,0,0,0,80.79,137a11.23,11.23,0,0,0,6.48,1.51,6.9,6.9,0,0,0,4.21-2l.2-.25c.56-.65.74-.8.7-1s0,0-.36-.34h0l-.12-.11c-.22,0-.53.43-.88.8a5.59,5.59,0,0,1-1.06.87,6.23,6.23,0,0,1-4.3,1,11.87,11.87,0,0,1-5.2-1.87,27.78,27.78,0,0,1-6.8-5.75c-.38-.44-.37-.44,0-.88.16-.18.32-.38.5-.55s.63-.58,1-.87a16.09,16.09,0,0,1,6.51-3.79,9.63,9.63,0,0,1,5.77,0,7.84,7.84,0,0,1,5.18,8.34c0,.16,0,.31-.08.46-.15.69-.34,1-.18,1.22,0,0,0,0,.19.17l0,0h0l.3.26c.16,0,.42-.56.59-1.5a9.26,9.26,0,0,0,0-3.52,9,9,0,0,0-9.63-6.88,13.54,13.54,0,0,0-6.15,2,21,21,0,0,0-4.79,4l-.14.14"/><path id="Path_1628" data-name="Path 1628" class="cls-3" d="M73.63,129.93a28,28,0,0,0,6.8,5.74,11.7,11.7,0,0,0,5.2,1.87,6.23,6.23,0,0,0,4.3-1,5.19,5.19,0,0,0,1.06-.86c.35-.38.67-.86.88-.8q-.62-.53-1.26-1c-.3-.22-.47-.23-.72,0A5,5,0,0,1,86.15,135c-.38,0-.63-.23-.63-.54s.25-.5.59-.48h.24a4.35,4.35,0,0,0,2.53-.71c.43-.3.44-.4-.06-.65-1.36-.7-2.73-1.35-4.1-2a.57.57,0,0,0-.78.16v0a4.55,4.55,0,0,1-2.7,1.5.56.56,0,0,1-.7-.35.14.14,0,0,0,0-.06c-.08-.38.12-.54.45-.61a2.69,2.69,0,0,0,.54-.14,3.6,3.6,0,0,0,1.59-1l-.31-.14a19.39,19.39,0,0,0-2-.42c-.89-.1-1.77-.13-2.65-.16a.59.59,0,0,1-.63-.5c0-.34.16-.49.46-.53h.28A15.78,15.78,0,0,1,83,129a3.78,3.78,0,0,0,.48.09,3.29,3.29,0,0,0-1.2-2c-.4-.29-.52-.61-.33-.87s.52-.21.91.09a4.23,4.23,0,0,1,1.62,2.76.59.59,0,0,0,.43.53c.83.35,1.66.69,2.47,1.09s1.49.8,2.27,1.22a4.57,4.57,0,0,0-.57-2.26A18.52,18.52,0,0,0,88,128.09c-.19-.26-.23-.5,0-.7a.46.46,0,0,1,.64,0l0,.06a4.93,4.93,0,0,1,.39.4,6.88,6.88,0,0,1,1.64,4.46.61.61,0,0,0,.27.57c.54.4,1.07.81,1.58,1.25l0,0c-.18-.16-.17-.13-.19-.17-.16-.22,0-.53.17-1.22,0-.15.07-.3.09-.46a7.88,7.88,0,0,0-5.19-8.35,9.7,9.7,0,0,0-5.77,0,16,16,0,0,0-6.5,3.8c-.31.28-.65.56-.95.86s-.33.37-.5.55c-.39.44-.4.45,0,.89"/><path id="Path_1629" data-name="Path 1629" class="cls-10" d="M77.55,128.88a.58.58,0,0,0,.63.5c.88,0,1.77.06,2.65.17a18.24,18.24,0,0,1,2,.41,1.87,1.87,0,0,1,.32.15,3.68,3.68,0,0,1-1.6,1,3.58,3.58,0,0,1-.54.14c-.33.06-.53.23-.44.61a.54.54,0,0,0,.65.42h0l0,0a4.52,4.52,0,0,0,2.7-1.5.57.57,0,0,1,.77-.18h0c1.37.68,2.74,1.33,4.1,2,.5.26.49.36.06.65a4.26,4.26,0,0,1-2.52.72h-.25c-.34,0-.58.1-.58.48s.24.52.63.54a5,5,0,0,0,3.73-1.17c.25-.23.43-.22.72,0s.85.66,1.26,1h0l.11.1h0a22,22,0,0,1,3.29,3.46l.56.72a.52.52,0,0,0,.72.2c.29-.19.26-.49.07-.76-.38-.5-.77-1-1.17-1.49a25.6,25.6,0,0,0-2.63-2.68h0s-.07-.06-.28-.26h0c-.51-.44-1-.85-1.59-1.25a.6.6,0,0,1-.27-.57A6.9,6.9,0,0,0,89,127.83a4.89,4.89,0,0,0-.39-.4.45.45,0,0,0-.64-.08l0,0c-.2.2-.16.45,0,.7a17.81,17.81,0,0,1,1.07,1.55,4.47,4.47,0,0,1,.57,2.26c-.77-.42-1.5-.85-2.26-1.22s-1.65-.74-2.48-1.08a.6.6,0,0,1-.43-.53,4.19,4.19,0,0,0-1.62-2.76c-.38-.3-.73-.34-.91-.09s-.06.58.33.87a3.22,3.22,0,0,1,1.2,2L83,129a15.79,15.79,0,0,0-4.68-.64l-.29,0c-.3,0-.51.19-.46.52"/><path id="Path_1630" data-name="Path 1630" class="cls-10" d="M91.89,134.84h0l.12.1c-.09-.08-.09-.1-.11-.1"/><path id="Path_1631" data-name="Path 1631" class="cls-10" d="M92.54,134.13c.21.2.23.25.28.26h0l-.3-.27"/></g></g></g><g id="Group_313" data-name="Group 313"><g class="cls-20"><g id="Group_312" data-name="Group 312"><path id="Path_1632" data-name="Path 1632" class="cls-10" d="M100.39,81.61c-.67.48-.8.83-.4,1.56.66,1.2,1.34,2.41,2.11,3.55a25.69,25.69,0,0,0,4.25,4.88,11.12,11.12,0,0,0,6,3,6.89,6.89,0,0,0,4.56-1,2.46,2.46,0,0,0,.25-.18c.7-.5.91-.61.9-.77s0-.05-.27-.41v0h0l-.1-.14c-.2-.1-.61.29-1,.58a5,5,0,0,1-1.23.59,6.23,6.23,0,0,1-4.42,0,11.86,11.86,0,0,1-4.64-3A28.16,28.16,0,0,1,101,83.07c-.26-.52-.26-.52.23-.85.2-.14.4-.3.61-.43l1.13-.62A16.06,16.06,0,0,1,110.19,79a9.68,9.68,0,0,1,5.6,1.38,7.88,7.88,0,0,1,3.11,9.32c-.06.14-.12.29-.19.43-.3.63-.55.89-.45,1.14a1.78,1.78,0,0,0,.14.21l0,.05h0c.08.1.15.21.23.32s.53-.45.92-1.33a8.81,8.81,0,0,0-7-12.35,13.62,13.62,0,0,0-6.46.58,21,21,0,0,0-5.58,2.76l-.16.11"/><path id="Path_1633" data-name="Path 1633" class="cls-3" d="M101,83.07a27.92,27.92,0,0,0,5.29,7.16,11.82,11.82,0,0,0,4.63,3,6.26,6.26,0,0,0,4.43,0,5.83,5.83,0,0,0,1.23-.6c.42-.29.84-.67,1-.58-.32-.43-.66-.85-1-1.27s-.4-.34-.7-.17a5,5,0,0,1-3.9.28.57.57,0,0,1-.49-.67c.09-.38.35-.43.68-.34l.24.07a4.27,4.27,0,0,0,2.62-.11c.49-.19.52-.29.1-.65-1.16-1-2.35-1.94-3.52-2.92a.56.56,0,0,0-.79,0h0l0,0a4.54,4.54,0,0,1-3,.84.55.55,0,0,1-.61-.5h0a.06.06,0,0,1,0-.06c0-.39.23-.5.57-.48a3.5,3.5,0,0,0,.56,0,3.67,3.67,0,0,0,1.78-.6,1.78,1.78,0,0,0-.27-.21c-.59-.32-1.19-.6-1.8-.86-.84-.3-1.69-.53-2.54-.77a.58.58,0,0,1-.5-.63c0-.34.26-.43.57-.4l.28,0a16.13,16.13,0,0,1,4.4,1.7c.13.07.26.12.45.2a3.24,3.24,0,0,0-.71-2.2c-.32-.37-.37-.71-.13-.93s.56-.08.87.3a4.25,4.25,0,0,1,.94,3.06.6.6,0,0,0,.3.62c.73.53,1.45,1.06,2.15,1.63s1.27,1.12,1.93,1.71a4.53,4.53,0,0,0,0-2.34,16.22,16.22,0,0,0-.68-1.75c-.12-.3-.11-.54.14-.69a.45.45,0,0,1,.63.13l0,.07a5.55,5.55,0,0,1,.29.48,6.88,6.88,0,0,1,.56,4.72.59.59,0,0,0,.14.61c.43.52.84,1,1.24,1.59a.05.05,0,0,0,0,0c-.13-.2-.13-.17-.15-.21-.1-.26.15-.52.45-1.15a3.3,3.3,0,0,0,.19-.43,7.87,7.87,0,0,0-3.12-9.32,9.72,9.72,0,0,0-5.6-1.37,15.92,15.92,0,0,0-7.2,2.18c-.38.21-.76.4-1.13.63-.21.12-.41.28-.61.42-.49.33-.49.34-.23.85"/><path id="Path_1634" data-name="Path 1634" class="cls-10" d="M105.07,83a.58.58,0,0,0,.5.63c.85.25,1.7.47,2.53.78a16.45,16.45,0,0,1,1.8.85,1.93,1.93,0,0,1,.28.22,3.89,3.89,0,0,1-1.78.6,5.23,5.23,0,0,1-.56,0c-.34,0-.57.1-.58.49a.55.55,0,0,0,.55.55h.06a4.49,4.49,0,0,0,3-.83.56.56,0,0,1,.79,0h0v0c1.17,1,2.36,1.92,3.52,2.91.43.37.39.46-.1.65a4.27,4.27,0,0,1-2.62.11,2.1,2.1,0,0,1-.24-.06c-.33-.1-.59,0-.68.33a.57.57,0,0,0,.49.67,5,5,0,0,0,3.9-.27c.3-.17.47-.12.7.16s.68.84,1,1.28h0s0,0,.09.12h0a23,23,0,0,1,2.41,4.13l.37.82c.14.3.36.46.65.37s.37-.41.25-.73c-.25-.57-.52-1.15-.8-1.71a24.67,24.67,0,0,0-1.94-3.23h0s0-.07-.21-.32h0c-.39-.54-.81-1.07-1.24-1.58a.6.6,0,0,1-.14-.61,6.92,6.92,0,0,0-.56-4.73c-.09-.16-.19-.32-.29-.48a.45.45,0,0,0-.6-.23l-.06,0c-.24.14-.26.4-.13.69.25.57.48,1.16.68,1.75a4.6,4.6,0,0,1,0,2.33c-.66-.59-1.27-1.18-1.92-1.7s-1.43-1.1-2.16-1.63a.6.6,0,0,1-.3-.62,4.2,4.2,0,0,0-.94-3.06c-.3-.37-.63-.49-.86-.3s-.2.55.12.92a3.27,3.27,0,0,1,.71,2.2c-.18-.08-.32-.13-.44-.2a16.2,16.2,0,0,0-4.4-1.68l-.28-.05c-.3,0-.54.06-.57.4"/><path id="Path_1635" data-name="Path 1635" class="cls-10" d="M117.64,92.05h0l.1.13c-.07-.11-.07-.11-.09-.12"/><path id="Path_1636" data-name="Path 1636" class="cls-10" d="M118.44,91.51c.16.25.16.3.21.32h0l-.23-.32"/></g></g></g><g id="Group_315" data-name="Group 315"><g class="cls-21"><g id="Group_314" data-name="Group 314"><path id="Path_1637" data-name="Path 1637" class="cls-10" d="M80.41,120.36c-.26.79-.18,1.14.57,1.51,1.24.61,2.48,1.21,3.77,1.7A26.06,26.06,0,0,0,91,125.13a11.31,11.31,0,0,0,6.58-1,7,7,0,0,0,3.17-3.43c0-.07,0-.09.1-.3.28-.82.4-1,.3-1.15s-.06,0-.46-.18h0l-.16,0c-.22,0-.34.59-.52,1.07a5.59,5.59,0,0,1-.67,1.19,6.21,6.21,0,0,1-3.6,2.56,11.89,11.89,0,0,1-5.53.19,28.19,28.19,0,0,1-8.44-2.82c-.52-.28-.5-.28-.3-.83.08-.23.15-.48.25-.7.18-.39.38-.78.57-1.16a16,16,0,0,1,4.64-5.93,9.73,9.73,0,0,1,5.38-2.09,7.88,7.88,0,0,1,7.9,5.84,3.4,3.4,0,0,1,.09.46c.11.69.06,1,.29,1.2,0,0,0,0,.24.09l0,0h0l.38.13c.13-.08.18-.67,0-1.61a9.22,9.22,0,0,0-1.34-3.26,9,9,0,0,0-11.49-2.83,13.38,13.38,0,0,0-5,4.18,20.74,20.74,0,0,0-3,5.46l-.07.18"/><path id="Path_1638" data-name="Path 1638" class="cls-3" d="M81.75,121.2A28.08,28.08,0,0,0,90.2,124a11.84,11.84,0,0,0,5.52-.19,6.24,6.24,0,0,0,3.61-2.56,5.55,5.55,0,0,0,.66-1.19c.19-.48.3-1,.53-1.07-.51-.17-1-.33-1.55-.48-.36-.1-.52,0-.67.27a5,5,0,0,1-3,2.46.56.56,0,0,1-.77-.23h0s0,0,0,0c-.15-.36,0-.56.36-.67l.23-.08a4.27,4.27,0,0,0,2.08-1.59c.29-.44.27-.54-.3-.59-1.51-.14-3-.24-4.55-.36a.56.56,0,0,0-.67.42h0v0a4.55,4.55,0,0,1-1.95,2.39.56.56,0,0,1-.78-.06h0l0,0c-.22-.33-.1-.55.19-.73a4.07,4.07,0,0,0,1.57-1.85l-.36,0a18.68,18.68,0,0,0-2,.34c-.85.23-1.69.53-2.52.82a.58.58,0,0,1-.77-.23c-.18-.29,0-.51.23-.65l.26-.13a16.12,16.12,0,0,1,4.58-1.14,3.9,3.9,0,0,0,.48-.09,3.3,3.3,0,0,0-1.85-1.4c-.47-.12-.7-.37-.62-.68s.41-.39.87-.26a4.26,4.26,0,0,1,2.54,2,.61.61,0,0,0,.6.34c.9,0,1.8,0,2.7.09s1.68.2,2.56.3A4.53,4.53,0,0,0,96,115.24a18.38,18.38,0,0,0-1.56-1c-.28-.17-.4-.39-.29-.65a.46.46,0,0,1,.59-.25l.07,0,.5.23a6.94,6.94,0,0,1,3.18,3.55.58.58,0,0,0,.45.42c.65.17,1.3.36,1.93.58l0,0a2.08,2.08,0,0,0-.25-.09c-.23-.15-.17-.5-.29-1.2a3.4,3.4,0,0,0-.09-.46,7.85,7.85,0,0,0-7.9-5.84,9.62,9.62,0,0,0-5.37,2.09,16,16,0,0,0-4.65,5.93c-.19.38-.39.76-.56,1.15-.1.23-.18.47-.26.7-.2.55-.21.56.3.83"/><path id="Path_1639" data-name="Path 1639" class="cls-10" d="M85,118.78a.58.58,0,0,0,.77.23c.83-.29,1.66-.6,2.52-.83.65-.14,1.31-.25,2-.33a1.4,1.4,0,0,1,.35,0,4.09,4.09,0,0,1-1.57,1.84c-.28.18-.41.41-.19.73a.56.56,0,0,0,.77.15l0,0a4.51,4.51,0,0,0,2-2.39.56.56,0,0,1,.64-.46h0c1.52.12,3,.23,4.56.37.56.05.58.15.3.58a4.28,4.28,0,0,1-2.08,1.6l-.23.08c-.33.11-.5.3-.37.66a.58.58,0,0,0,.75.29h0l0,0a5,5,0,0,0,3-2.46c.15-.31.31-.37.67-.27.52.14,1,.3,1.55.47h0s0,0,.15.06h0a23.31,23.31,0,0,1,4.34,2l.77.46a.52.52,0,0,0,.75-.08c.2-.28.07-.55-.22-.73-.53-.34-1.08-.66-1.64-1a26.34,26.34,0,0,0-3.43-1.53h0s-.08,0-.35-.14h0c-.64-.22-1.28-.41-1.93-.58a.6.6,0,0,1-.46-.42,6.89,6.89,0,0,0-3.18-3.55l-.5-.23a.47.47,0,0,0-.62.16.21.21,0,0,0,0,.06c-.11.26,0,.48.29.65.54.32,1.06.67,1.57,1a4.51,4.51,0,0,1,1.36,1.89c-.87-.1-1.71-.23-2.56-.3s-1.8-.08-2.7-.09a.61.61,0,0,1-.6-.34,4.16,4.16,0,0,0-2.52-2c-.46-.14-.8,0-.88.25s.16.57.63.69a3.21,3.21,0,0,1,1.85,1.4l-.48.09A16,16,0,0,0,85.53,118l-.26.12c-.26.15-.41.37-.24.66"/><path id="Path_1640" data-name="Path 1640" class="cls-10" d="M100.54,119h0l.16,0c-.12,0-.12,0-.15,0"/><path id="Path_1641" data-name="Path 1641" class="cls-10" d="M100.88,118.11c.28.11.31.15.35.14h0l-.38-.13"/></g></g></g><g id="Group_317" data-name="Group 317"><g class="cls-22"><g id="Group_316" data-name="Group 316"><path id="Path_1642" data-name="Path 1642" class="cls-10" d="M133.55,156.91c-.68.43-.82.75-.48,1.47.56,1.2,1.13,2.4,1.8,3.54a24.59,24.59,0,0,0,3.76,4.92,10.69,10.69,0,0,0,5.51,3.2,6.62,6.62,0,0,0,4.43-.66l.25-.16c.7-.45.91-.53.91-.68s0,0-.23-.41v0l-.09-.14c-.18-.1-.61.24-1,.49a4.91,4.91,0,0,1-1.21.5,6,6,0,0,1-4.24-.25,11.34,11.34,0,0,1-4.25-3.17,26.88,26.88,0,0,1-4.62-7.18c-.22-.51-.21-.51.27-.8.2-.12.4-.26.61-.36.37-.19.75-.35,1.12-.53a15.46,15.46,0,0,1,7-1.65,9.31,9.31,0,0,1,5.28,1.66,7.56,7.56,0,0,1,2.41,9.11c-.07.14-.13.27-.21.4-.33.59-.58.82-.5,1.07,0,0,0,0,.12.21l0,0v0a2.14,2.14,0,0,1,.2.32c.16,0,.54-.4,1-1.22a9,9,0,0,0,1-3.24,8.59,8.59,0,0,0-6.9-9,12.8,12.8,0,0,0-6.21.15,20,20,0,0,0-5.51,2.3l-.16.1"/><path id="Path_1643" data-name="Path 1643" class="cls-3" d="M134.05,158.36a26.71,26.71,0,0,0,4.62,7.18,11.39,11.39,0,0,0,4.25,3.17,6,6,0,0,0,4.24.24,5.29,5.29,0,0,0,1.21-.49c.42-.25.85-.6,1-.49-.28-.44-.57-.87-.88-1.29s-.36-.34-.66-.2a4.79,4.79,0,0,1-3.75,0c-.35-.13-.51-.39-.42-.68s.36-.38.67-.27l.22.07a4,4,0,0,0,2.51.06c.48-.16.52-.24.14-.62-1-1-2.13-2-3.19-3a.53.53,0,0,0-.75-.08h0a4.35,4.35,0,0,1-2.9.62.53.53,0,0,1-.55-.51v-.06c0-.38.26-.47.58-.43a3.17,3.17,0,0,0,.53,0,3.66,3.66,0,0,0,1.75-.47,2.73,2.73,0,0,0-.25-.23c-.54-.33-1.1-.64-1.67-.92-.78-.35-1.59-.62-2.39-.9a.55.55,0,0,1-.43-.63c.05-.32.29-.4.57-.35a2,2,0,0,1,.26.06,15.58,15.58,0,0,1,4.12,1.9l.41.22a3.1,3.1,0,0,0-.55-2.15c-.28-.38-.3-.71-.05-.89s.54-.05.81.33a4,4,0,0,1,.7,3,.57.57,0,0,0,.25.61c.66.55,1.33,1.1,2,1.69s1.14,1.15,1.73,1.75a4.22,4.22,0,0,0,.11-2.23,17.14,17.14,0,0,0-.54-1.72c-.1-.29-.07-.53.17-.66a.45.45,0,0,1,.6.17.14.14,0,0,1,0,.06c.09.16.18.32.25.48a6.63,6.63,0,0,1,.25,4.56.6.6,0,0,0,.09.59c.39.52.75,1,1.1,1.59a.05.05,0,0,0,0,0c-.11-.2-.11-.17-.12-.21-.08-.25.17-.49.5-1.07l.21-.4a7.56,7.56,0,0,0-2.41-9.11,9.23,9.23,0,0,0-5.28-1.66,15.33,15.33,0,0,0-7,1.65l-1.12.52c-.21.11-.4.25-.61.37-.49.29-.49.29-.27.8"/><path id="Path_1644" data-name="Path 1644" class="cls-10" d="M137.94,158.5a.55.55,0,0,0,.43.63c.8.28,1.6.55,2.39.9a18,18,0,0,1,1.66.93,1.78,1.78,0,0,1,.26.22,3.73,3.73,0,0,1-1.75.47,3.17,3.17,0,0,1-.53,0c-.32,0-.55.05-.58.43a.54.54,0,0,0,.49.57h.06a4.31,4.31,0,0,0,2.89-.62.55.55,0,0,1,.76.05l0,0c1.06,1,2.14,2,3.18,3,.39.38.35.46-.13.62a4,4,0,0,1-2.51-.06l-.22-.07c-.31-.12-.57-.08-.68.27a.55.55,0,0,0,.43.67,4.74,4.74,0,0,0,3.75,0c.3-.14.46-.08.66.2s.6.85.88,1.29h0s0,0,.07.13a21.52,21.52,0,0,1,2.05,4.1l.3.81c.12.3.32.46.6.39s.38-.37.27-.68c-.2-.57-.41-1.13-.65-1.69a23.69,23.69,0,0,0-1.66-3.2h0s0-.07-.18-.32h0c-.34-.54-.71-1.07-1.1-1.59a.57.57,0,0,1-.09-.59,6.63,6.63,0,0,0-.25-4.56c-.07-.16-.16-.32-.25-.48a.44.44,0,0,0-.56-.26h0l-.06,0c-.24.13-.27.37-.17.66a17.14,17.14,0,0,1,.54,1.72,4.22,4.22,0,0,1-.11,2.23c-.59-.6-1.14-1.2-1.73-1.76s-1.3-1.14-2-1.68a.6.6,0,0,1-.25-.61,4,4,0,0,0-.7-3c-.27-.38-.58-.51-.81-.34s-.23.52,0,.9a3.1,3.1,0,0,1,.55,2.15l-.41-.22a15,15,0,0,0-4.12-1.9l-.26-.07c-.29-.05-.52,0-.57.35"/><path id="Path_1645" data-name="Path 1645" class="cls-10" d="M149.41,168h0l.09.13-.07-.12"/><path id="Path_1646" data-name="Path 1646" class="cls-10" d="M150.21,167.51c.14.24.14.3.18.32h0c-.06-.11-.13-.22-.2-.33"/></g></g></g><g id="Group_319" data-name="Group 319"><g class="cls-5"><g id="Group_318" data-name="Group 318"><path id="Path_1647" data-name="Path 1647" class="cls-23" d="M130,264.61H26.52a13.39,13.39,0,0,1-3.1-.15c-2.83-.66-4.54-2.81-4.28-5.32s2.17-4.35,5.21-4.62c.75-.05,1.5-.06,2.26-.05q32.18,0,64.35,0c2,.05,3.84-.65,4.61-1.76,2.38-2.5,6.37-4.31,11-5a48.36,48.36,0,0,1,8.74-.75c10.06,0,20.13-.07,30.19,0a36.6,36.6,0,0,1,14.29,2.59,13.25,13.25,0,0,1,4.93,3.39,4.31,4.31,0,0,0,3.75,1.48q32.4,0,64.78,0c.75,0,1.51,0,2.26,0,3.25.24,5.44,2.35,5.36,5.15s-2.3,4.8-5.59,4.94c-.76,0-1.51,0-2.27,0H130"/></g></g></g><g id="Group_323" data-name="Group 323"><g id="Group_322" data-name="Group 322"><g class="cls-24"><g id="Group_321" data-name="Group 321"><path id="Path_1648" data-name="Path 1648" class="cls-25" d="M97,236.42V243c0,1.43-.44,1.81-2,1.81-2.76,0-5.53,0-8.3,0-.72,0-1,.1-1,.83,0,4.24,0,8.48,0,12.72,0,1.29-.47,1.72-1.88,1.72s-3.12,0-4.68,0-1.91-.42-1.91-1.7c0-4.26,0-8.53,0-12.79,0-.6-.13-.79-.84-.79-8.2,0-16.4,0-24.61,0s-16.35,0-24.52,0c-.66,0-.88.11-.87.75,0,4.27,0,8.54,0,12.8,0,1.29-.48,1.72-1.89,1.72H19.78c-1.31,0-1.82-.45-1.82-1.62,0-4.29,0-8.59,0-12.88,0-.61-.15-.79-.86-.78-2.88,0-5.75,0-8.64,0-1.3,0-1.81-.45-1.81-1.63v-6.91c0-1.18.5-1.63,1.8-1.63,2.91,0,5.83,0,8.73,0,.63,0,.78-.14.77-.7,0-1.86,0-1.86-2.1-1.86H11.2c-1.19,0-1.71-.48-1.71-1.56V198c0-1.07.53-1.53,1.73-1.54,2,0,4,0,6,0,.63,0,.76-.17.75-.7,0-1.86,0-1.86-2-1.86H8.55c-1.41,0-1.88-.43-1.88-1.72v-6.76c0-1.27.48-1.69,1.92-1.69,2.76,0,5.52,0,8.29,0,.83,0,1.2-.11,1.1-1a20.81,20.81,0,0,1,0-2.62c0-1,.54-1.52,1.66-1.53h5.12c1.14,0,1.67.48,1.68,1.5s0,2.07,0,3.1c0,.36.09.55.53.49h49.3c.77,0,1.07-.12,1-.88a23.27,23.27,0,0,1,0-2.77c0-.94.55-1.44,1.57-1.45H84.1c1,0,1.58.5,1.6,1.43s0,2,0,3c0,.51.13.66.71.65,2.91,0,5.83,0,8.74,0,1.36,0,1.85.44,1.85,1.67v6.91c0,1.13-.52,1.59-1.77,1.59-2.94,0-5.88,0-8.82,0-.58,0-.72.14-.72.65,0,1.9,0,1.9,2.15,1.9H92.5c1.13,0,1.66.49,1.66,1.52q0,16.29,0,32.58c0,1-.54,1.5-1.68,1.5-2,0-4.06,0-6.09,0-.6,0-.71.17-.7.66,0,1.9,0,1.9,2.06,1.9h7.31c1.47,0,1.93.42,1.93,1.77m-2.8,1.69c0-.77-.19-.94-1-.94q-41.33,0-82.64,0h-.44c-.46-.06-.6.1-.59.52,0,1.24.06,2.49,0,3.73,0,.7.18.86.95.86q20.69,0,41.36,0h19.5c7.38,0,14.75,0,22.14,0,.61,0,.79-.12.76-.69a29.2,29.2,0,0,1,0-3.5m0-50.9c0-.73-.19-.9-1-.9q-40.66,0-81.32,0c-.59,0-1.18,0-1.76,0s-.65.11-.63.57c0,1.22.06,2.44,0,3.65,0,.73.2.9,1,.9q20.63,0,41.27,0l41.63,0c.65,0,.85-.12.82-.73a29,29,0,0,1,0-3.49m-3.73,42.39c.73,0,.9-.15.9-.82q0-14.46,0-28.93c0-.66-.17-.81-.9-.81q-19.27,0-38.54,0L13.2,199c-.73,0-.9.15-.9.81q0,14.46,0,28.93c0,.66.17.82.9.82q38.63,0,77.26,0m-8.2,28c.5,0,.64-.12.63-.57,0-1.91,0-3.82,0-5.72v-4.53c0-1.93,0-1.91-2.12-1.92-.57,0-.72.13-.72.65,0,3.39,0,6.78,0,10.17,0,2,0,1.94,2.2,1.92m.62-62.39c0-1.21,0-1.21-1.31-1.21-1.52,0-1.52,0-1.52,1.34s0,1.21,1.31,1.21c1.52,0,1.52,0,1.52-1.34m-1.39-11.38c1.39,0,1.39,0,1.39-1.22s0-1.33-1.44-1.33-1.38,0-1.38,1.22,0,1.32,1.43,1.32m0,50.88c1.36,0,1.36,0,1.36-1.24s0-1.31-1.47-1.31-1.35,0-1.35,1.24,0,1.31,1.46,1.31m-4.27-39.82c0-.72-.19-.9-1-.89q-23.94,0-47.89,0c-1.95,0-1.91,0-2,1.75,0,.66.18.82.9.81q12.23,0,24.43,0H75.37c1.86,0,1.82,0,1.88-1.67m0,38.07c0-.66-.16-.82-.9-.81q-12.21,0-24.42,0H28.29c-1.86,0-1.82,0-1.88,1.67,0,.72.19.9,1,.89q23.94,0,47.89,0c1.95,0,1.91,0,2-1.75M23,257.56c.5,0,.63-.12.63-.57,0-1.93,0-3.87,0-5.8v-4.45c0-1.93,0-1.91-2.11-1.92-.58,0-.73.13-.72.65,0,3.39,0,6.78,0,10.17,0,2,0,1.94,2.21,1.92m.62-75.1c0-1.21,0-1.21-1.3-1.21-1.53,0-1.53,0-1.53,1.4,0,1.14,0,1.14,1.3,1.14,1.52,0,1.52,0,1.52-1.33m-1.31,14c1.32,0,1.32,0,1.32-1.2s0-1.34-1.52-1.34c-1.31,0-1.31,0-1.31,1.2s0,1.34,1.51,1.34m-.05,38.15c1.36,0,1.36,0,1.36-1.24s0-1.31-1.45-1.31-1.37,0-1.37,1.24,0,1.31,1.46,1.31"/><path id="Path_1649" data-name="Path 1649" class="cls-8" d="M93.15,237.18c.85,0,1.1.16,1,.94a31.43,31.43,0,0,0,0,3.5c0,.56-.15.69-.76.68-7.38,0-14.76,0-22.14,0H51.79l-41.37,0c-.77,0-1-.15-.95-.86.08-1.24,0-2.49,0-3.73,0-.42.13-.58.59-.52a3.23,3.23,0,0,0,.44,0q41.33,0,82.64,0m-10.27,2.56c0-1.27,0-1.27-1.41-1.27s-1.41,0-1.41,1.27,0,1.27,1.4,1.27,1.41,0,1.41-1.27m-59.27,0c0-1.23,0-1.23-1.37-1.23s-1.45,0-1.45,1.31,0,1.23,1.37,1.23,1.45,0,1.45-1.31"/><path id="Path_1650" data-name="Path 1650" class="cls-8" d="M93.2,186.32c.8,0,1,.16,1,.9a29,29,0,0,0,0,3.49c0,.6-.17.73-.82.73q-20.82,0-41.63,0-20.64,0-41.28,0c-.8,0-1-.18-1-.9.07-1.22,0-2.44,0-3.66,0-.45.14-.59.63-.56s1.18,0,1.77,0l81.32,0m-11.68,3.84c1.36,0,1.36,0,1.36-1.24s0-1.31-1.47-1.31-1.35,0-1.35,1.24,0,1.31,1.46,1.31M23.6,188.82c0-1.22,0-1.22-1.38-1.22s-1.44,0-1.44,1.33,0,1.22,1.38,1.22,1.44,0,1.44-1.33"/><path id="Path_1651" data-name="Path 1651" class="cls-26" d="M91.36,228.77c0,.67-.17.82-.9.82q-38.62,0-77.26,0c-.73,0-.9-.16-.9-.82q0-14.46,0-28.93c0-.66.17-.81.9-.81q19.36,0,38.72,0l38.54,0c.73,0,.9.15.9.81q0,14.47,0,28.93m-2.84-26c0-1.23,0-1.23-1.37-1.23s-1.45,0-1.45,1.32,0,1.23,1.37,1.23,1.45,0,1.45-1.32m0,22.9c0-1.23,0-1.23-1.37-1.23s-1.45,0-1.45,1.31,0,1.23,1.37,1.23,1.45,0,1.45-1.31M18,225.77c0-1.29,0-1.29-1.4-1.29s-1.43,0-1.43,1.26,0,1.29,1.4,1.29S18,227,18,225.77m0-22.9c0-1.28,0-1.28-1.41-1.28s-1.41,0-1.41,1.27,0,1.28,1.4,1.28,1.42,0,1.42-1.27"/><path id="Path_1652" data-name="Path 1652" class="cls-25" d="M87.15,201.59c1.37,0,1.37,0,1.37,1.23s0,1.32-1.45,1.32-1.37,0-1.37-1.23,0-1.32,1.45-1.32"/><path id="Path_1653" data-name="Path 1653" class="cls-25" d="M87.16,224.48c1.36,0,1.36,0,1.36,1.23s0,1.32-1.45,1.32-1.37,0-1.37-1.24,0-1.31,1.45-1.31"/><path id="Path_1654" data-name="Path 1654" class="cls-8" d="M82.89,257c0,.45-.14.56-.63.57-2.2,0-2.2,0-2.2-1.92,0-3.4,0-6.78,0-10.17,0-.52.15-.66.72-.65,2.12,0,2.12,0,2.12,1.92v4.53c0,1.91,0,3.81,0,5.72"/><path id="Path_1655" data-name="Path 1655" class="cls-8" d="M81.57,194c1.31,0,1.31,0,1.31,1.21s0,1.34-1.52,1.34c-1.3,0-1.3,0-1.3-1.21s0-1.34,1.51-1.34"/><path id="Path_1656" data-name="Path 1656" class="cls-8" d="M82.88,182.57c0,1.22,0,1.22-1.39,1.22s-1.43,0-1.43-1.33,0-1.21,1.38-1.21,1.44,0,1.44,1.32"/><path id="Path_1657" data-name="Path 1657" class="cls-25" d="M82.88,188.91c0,1.24,0,1.24-1.36,1.24s-1.46,0-1.46-1.31,0-1.24,1.35-1.24,1.47,0,1.47,1.31"/><path id="Path_1658" data-name="Path 1658" class="cls-8" d="M82.88,233.42c0,1.24,0,1.24-1.36,1.24s-1.46,0-1.46-1.31,0-1.24,1.35-1.24,1.47,0,1.47,1.31"/><path id="Path_1659" data-name="Path 1659" class="cls-25" d="M81.47,238.47c1.41,0,1.41,0,1.41,1.28s0,1.26-1.42,1.26-1.4,0-1.4-1.27,0-1.27,1.41-1.27"/><path id="Path_1660" data-name="Path 1660" class="cls-8" d="M23.62,257c0,.45-.14.56-.63.57-2.21,0-2.21,0-2.21-1.92,0-3.39,0-6.78,0-10.17,0-.52.14-.66.72-.65,2.11,0,2.11,0,2.11,1.92v4.45c0,1.93,0,3.87,0,5.8"/><path id="Path_1661" data-name="Path 1661" class="cls-8" d="M22.31,181.25c1.3,0,1.3,0,1.3,1.21s0,1.33-1.52,1.33c-1.3,0-1.3,0-1.3-1.13,0-1.41,0-1.41,1.52-1.41"/><path id="Path_1662" data-name="Path 1662" class="cls-8" d="M23.61,195.3c0,1.2,0,1.2-1.32,1.2-1.51,0-1.51,0-1.51-1.34s0-1.2,1.31-1.2c1.52,0,1.52,0,1.52,1.34"/><path id="Path_1663" data-name="Path 1663" class="cls-25" d="M22.22,187.6c1.38,0,1.38,0,1.38,1.22s0,1.33-1.44,1.33-1.38,0-1.38-1.22,0-1.33,1.44-1.33"/><path id="Path_1664" data-name="Path 1664" class="cls-8" d="M23.61,233.42c0,1.24,0,1.24-1.37,1.24s-1.46,0-1.46-1.32,0-1.23,1.37-1.23,1.46,0,1.46,1.31"/><path id="Path_1665" data-name="Path 1665" class="cls-25" d="M22.24,238.47c1.36,0,1.36,0,1.36,1.23s0,1.31-1.45,1.31-1.37,0-1.37-1.23,0-1.31,1.46-1.31"/><path id="Path_1666" data-name="Path 1666" class="cls-25" d="M16.56,224.48c1.4,0,1.4,0,1.4,1.29S18,227,16.54,227s-1.4,0-1.4-1.29,0-1.26,1.42-1.26"/><path id="Path_1667" data-name="Path 1667" class="cls-25" d="M16.55,201.59c1.41,0,1.41,0,1.41,1.28s0,1.27-1.41,1.27-1.41,0-1.41-1.28,0-1.27,1.41-1.27"/></g></g></g><g id="One_piece_of_leaf_will_emerge_when_one_record_is_uploaded._" data-name="One piece of leaf will emerge when one record is uploaded. " class="cls-27"><g class="cls-27"><path class="cls-28" d="M19.94,207.34a1.46,1.46,0,0,1-.66-.14,1.19,1.19,0,0,1-.46-.43,1.82,1.82,0,0,1-.26-.68,4.12,4.12,0,0,1-.09-.91,4.28,4.28,0,0,1,.09-.92,1.82,1.82,0,0,1,.26-.68,1.24,1.24,0,0,1,.46-.42,1.34,1.34,0,0,1,.66-.15,1.4,1.4,0,0,1,.66.15,1.29,1.29,0,0,1,.45.42,2,2,0,0,1,.27.68,5.08,5.08,0,0,1,.08.92,4.89,4.89,0,0,1-.08.91,2,2,0,0,1-.27.68,1.23,1.23,0,0,1-.45.43A1.53,1.53,0,0,1,19.94,207.34Zm0-.44a.87.87,0,0,0,.42-.09.78.78,0,0,0,.29-.28,1.35,1.35,0,0,0,.17-.44,3.27,3.27,0,0,0,.05-.57v-.69a3.45,3.45,0,0,0-.05-.57,1.29,1.29,0,0,0-.17-.43.71.71,0,0,0-.29-.28.77.77,0,0,0-.42-.1.83.83,0,0,0-.43.1.78.78,0,0,0-.29.28,1.28,1.28,0,0,0-.16.43,2.63,2.63,0,0,0,0,.57v.69a2.52,2.52,0,0,0,0,.57,1.34,1.34,0,0,0,.16.44.86.86,0,0,0,.29.28A.94.94,0,0,0,19.94,206.9Z"/><path class="cls-28" d="M22.33,207.27v-3.1h.47v.51h0a.94.94,0,0,1,.12-.22.77.77,0,0,1,.18-.18.66.66,0,0,1,.25-.13,1.13,1.13,0,0,1,1.11.26,1.21,1.21,0,0,1,.3.87v2H24.3v-1.9a.91.91,0,0,0-.18-.63.69.69,0,0,0-.55-.21,1.33,1.33,0,0,0-.28,0,1.12,1.12,0,0,0-.25.11.63.63,0,0,0-.17.19.53.53,0,0,0-.07.26v2.15Z"/><path class="cls-28" d="M27.19,207.34a1.64,1.64,0,0,1-.6-.11,1.39,1.39,0,0,1-.46-.33,1.58,1.58,0,0,1-.29-.51,2,2,0,0,1-.1-.66,2,2,0,0,1,.1-.67,1.75,1.75,0,0,1,.29-.52,1.28,1.28,0,0,1,.45-.32,1.4,1.4,0,0,1,.58-.12,1.32,1.32,0,0,1,.57.12,1.22,1.22,0,0,1,.43.31,1.35,1.35,0,0,1,.28.48,1.89,1.89,0,0,1,.1.6v.23h-2.3V206a.9.9,0,0,0,.07.37.77.77,0,0,0,.19.3.79.79,0,0,0,.3.2,1,1,0,0,0,.39.07,1,1,0,0,0,.54-.15.89.89,0,0,0,.35-.39l.35.24a1.07,1.07,0,0,1-.46.51A1.37,1.37,0,0,1,27.19,207.34Zm0-2.84a.88.88,0,0,0-.66.27.91.91,0,0,0-.19.3,1.06,1.06,0,0,0-.07.37v0H28v-.06A1.16,1.16,0,0,0,28,205a1.08,1.08,0,0,0-.18-.29.77.77,0,0,0-.27-.19A1,1,0,0,0,27.16,204.5Z"/><path class="cls-28" d="M33.11,204.17h.48v.51h0a1,1,0,0,1,1-.58,1.05,1.05,0,0,1,.9.43,2,2,0,0,1,.32,1.19,2,2,0,0,1-.32,1.2,1.07,1.07,0,0,1-.9.42,1,1,0,0,1-1-.57h0v1.7h-.48Zm1.27,2.75a.83.83,0,0,0,.65-.26,1,1,0,0,0,.23-.67v-.53a1,1,0,0,0-.23-.68.82.82,0,0,0-.65-.25,1.06,1.06,0,0,0-.31,0,1,1,0,0,0-.25.12.65.65,0,0,0-.17.2.6.6,0,0,0-.06.27v1.12a.57.57,0,0,0,.06.27.55.55,0,0,0,.17.2.58.58,0,0,0,.25.12A1.06,1.06,0,0,0,34.38,206.92Z"/><path class="cls-28" d="M36.77,206.86h1.12v-2.27H36.77v-.42h1.6v2.69h1v.41H36.77Zm1.36-3.37a.41.41,0,0,1-.3-.09.31.31,0,0,1-.08-.22v-.09a.33.33,0,0,1,.08-.22.41.41,0,0,1,.3-.09.37.37,0,0,1,.29.09.29.29,0,0,1,.09.22v.09a.28.28,0,0,1-.09.22A.37.37,0,0,1,38.13,203.49Z"/><path class="cls-28" d="M41.59,207.34a1.64,1.64,0,0,1-.6-.11,1.39,1.39,0,0,1-.46-.33,1.58,1.58,0,0,1-.29-.51,2,2,0,0,1-.1-.66,2,2,0,0,1,.1-.67,1.58,1.58,0,0,1,.3-.52,1.16,1.16,0,0,1,.44-.32,1.4,1.4,0,0,1,.58-.12,1.32,1.32,0,0,1,.57.12,1.22,1.22,0,0,1,.43.31,1.35,1.35,0,0,1,.28.48,1.89,1.89,0,0,1,.1.6v.23h-2.3V206a.9.9,0,0,0,.07.37.77.77,0,0,0,.19.3.79.79,0,0,0,.3.2,1,1,0,0,0,.39.07,1,1,0,0,0,.54-.15.89.89,0,0,0,.35-.39l.35.24a1.07,1.07,0,0,1-.46.51A1.37,1.37,0,0,1,41.59,207.34Zm0-2.84a.86.86,0,0,0-.36.07.88.88,0,0,0-.3.2.91.91,0,0,0-.19.3,1.06,1.06,0,0,0-.07.37v0h1.78v-.06a1.16,1.16,0,0,0-.06-.38,1.08,1.08,0,0,0-.18-.29.77.77,0,0,0-.27-.19A1,1,0,0,0,41.56,204.5Z"/><path class="cls-28" d="M45.25,207.34a1.57,1.57,0,0,1-.6-.11,1.22,1.22,0,0,1-.44-.33,1.56,1.56,0,0,1-.28-.51,2.31,2.31,0,0,1-.09-.67,2,2,0,0,1,.1-.66,1.51,1.51,0,0,1,.27-.52,1.16,1.16,0,0,1,.44-.32,1.38,1.38,0,0,1,.59-.12,1.26,1.26,0,0,1,.73.2,1.06,1.06,0,0,1,.41.52L46,205a.7.7,0,0,0-.28-.37.82.82,0,0,0-.48-.13.92.92,0,0,0-.38.07.77.77,0,0,0-.28.19.87.87,0,0,0-.17.3,1.52,1.52,0,0,0,0,.38V206a1.44,1.44,0,0,0,0,.37.87.87,0,0,0,.17.3.75.75,0,0,0,.29.2.92.92,0,0,0,.38.07.86.86,0,0,0,.52-.15,1,1,0,0,0,.32-.39l.34.23a1.2,1.2,0,0,1-.43.52A1.3,1.3,0,0,1,45.25,207.34Z"/><path class="cls-28" d="M48.79,207.34a1.64,1.64,0,0,1-.6-.11,1.39,1.39,0,0,1-.46-.33,1.58,1.58,0,0,1-.29-.51,2,2,0,0,1-.1-.66,2,2,0,0,1,.1-.67,1.75,1.75,0,0,1,.29-.52,1.28,1.28,0,0,1,.45-.32,1.4,1.4,0,0,1,.58-.12,1.32,1.32,0,0,1,.57.12,1.22,1.22,0,0,1,.43.31A1.52,1.52,0,0,1,50,205a1.89,1.89,0,0,1,.09.6v.23H47.84V206a1.11,1.11,0,0,0,.07.37.77.77,0,0,0,.19.3.79.79,0,0,0,.3.2,1,1,0,0,0,.39.07,1,1,0,0,0,.54-.15.89.89,0,0,0,.35-.39l.35.24a1.07,1.07,0,0,1-.46.51A1.37,1.37,0,0,1,48.79,207.34Zm0-2.84a.88.88,0,0,0-.66.27.91.91,0,0,0-.19.3,1.06,1.06,0,0,0-.07.37v0h1.78v-.06a1.16,1.16,0,0,0-.06-.38,1.08,1.08,0,0,0-.18-.29.77.77,0,0,0-.27-.19A1,1,0,0,0,48.76,204.5Z"/><path class="cls-28" d="M55.94,207.34a1.59,1.59,0,0,1-.59-.11,1.31,1.31,0,0,1-.44-.33,1.4,1.4,0,0,1-.28-.51,2,2,0,0,1-.1-.67,2,2,0,0,1,.1-.66,1.53,1.53,0,0,1,.28-.52,1.16,1.16,0,0,1,.44-.32,1.41,1.41,0,0,1,.59-.12,1.37,1.37,0,0,1,.58.12,1.2,1.2,0,0,1,.45.32,1.51,1.51,0,0,1,.27.52,2,2,0,0,1,.1.66,2,2,0,0,1-.1.67,1.38,1.38,0,0,1-.27.51,1.35,1.35,0,0,1-.45.33A1.54,1.54,0,0,1,55.94,207.34Zm0-.41a.86.86,0,0,0,.64-.24,1,1,0,0,0,.25-.75v-.44a1,1,0,0,0-.25-.74.86.86,0,0,0-.64-.24.88.88,0,0,0-.65.24,1,1,0,0,0-.25.74v.44a1,1,0,0,0,.25.75A.88.88,0,0,0,55.94,206.93Z"/><path class="cls-28" d="M58.23,206.86h1.05v-2.27H58.17v-.42h1.11v-.63a.76.76,0,0,1,.16-.51.66.66,0,0,1,.52-.2h1v.41H59.76v.93H61v.42H59.76v2.27h1.1v.41H58.23Z"/><path class="cls-28" d="M65.42,206.86H66.5v-3.62H65.42v-.41H67v4h1.08v.41H65.42Z"/><path class="cls-28" d="M70.39,207.34a1.6,1.6,0,0,1-.6-.11,1.39,1.39,0,0,1-.46-.33,1.58,1.58,0,0,1-.29-.51,2,2,0,0,1-.1-.66,2,2,0,0,1,.1-.67,1.75,1.75,0,0,1,.29-.52,1.28,1.28,0,0,1,.45-.32,1.4,1.4,0,0,1,.58-.12,1.32,1.32,0,0,1,.57.12,1.22,1.22,0,0,1,.43.31,1.52,1.52,0,0,1,.28.48,1.89,1.89,0,0,1,.09.6v.23H69.44V206a.9.9,0,0,0,.07.37.77.77,0,0,0,.19.3.79.79,0,0,0,.3.2,1,1,0,0,0,.39.07,1,1,0,0,0,.54-.15.89.89,0,0,0,.35-.39l.35.24a1.07,1.07,0,0,1-.46.51A1.37,1.37,0,0,1,70.39,207.34Zm0-2.84a.88.88,0,0,0-.66.27.91.91,0,0,0-.19.3,1.06,1.06,0,0,0-.07.37v0h1.78v-.06a1.16,1.16,0,0,0-.06-.38,1.08,1.08,0,0,0-.18-.29.77.77,0,0,0-.27-.19A1,1,0,0,0,70.36,204.5Z"/><path class="cls-28" d="M75.11,207.27a.53.53,0,0,1-.41-.14.73.73,0,0,1-.15-.36h0a.8.8,0,0,1-.32.42,1.08,1.08,0,0,1-.61.15,1.12,1.12,0,0,1-.77-.25.88.88,0,0,1-.29-.69.79.79,0,0,1,.32-.67,1.77,1.77,0,0,1,1-.23h.66v-.3a.63.63,0,0,0-.19-.51.76.76,0,0,0-.54-.17,1,1,0,0,0-.51.12A.85.85,0,0,0,73,205l-.33-.24a.91.91,0,0,1,.17-.23.87.87,0,0,1,.25-.21,2.18,2.18,0,0,1,.34-.14,1.88,1.88,0,0,1,.43-.05,1.24,1.24,0,0,1,.86.28.94.94,0,0,1,.32.77v1.71h.44v.41Zm-1.43-.33a1.22,1.22,0,0,0,.34,0,.89.89,0,0,0,.26-.12.52.52,0,0,0,.18-.18.46.46,0,0,0,.06-.23v-.51h-.66a1.3,1.3,0,0,0-.63.12.39.39,0,0,0-.19.35v.12a.41.41,0,0,0,.17.37A.8.8,0,0,0,73.68,206.94Z"/><path class="cls-28" d="M76.23,206.86h1v-2.27H76.17v-.42h1.11v-.63a.76.76,0,0,1,.16-.51.66.66,0,0,1,.52-.2h1v.41H77.76v.93H79v.42H77.76v2.27h1.1v.41H76.23Z"/></g><g class="cls-27"><path class="cls-28" d="M18.32,212.17h.42l.36,2.68h0l.53-2.68h.53l.53,2.68h.05l.35-2.68h.42l-.48,3.1h-.62L20,212.68h0l-.5,2.59h-.63Z"/><path class="cls-28" d="M22.37,214.86h1.12v-2.27H22.37v-.42H24v2.69h1v.41H22.37Zm1.36-3.37a.37.37,0,0,1-.29-.09.28.28,0,0,1-.09-.22v-.09a.29.29,0,0,1,.09-.22.51.51,0,0,1,.58,0,.29.29,0,0,1,.09.22v.09a.28.28,0,0,1-.09.22A.37.37,0,0,1,23.73,211.49Z"/><path class="cls-28" d="M25.82,214.86H26.9v-3.62H25.82v-.41h1.56v4h1.08v.41H25.82Z"/><path class="cls-28" d="M29.42,214.86H30.5v-3.62H29.42v-.41H31v4h1.08v.41H29.42Z"/><path class="cls-28" d="M38,215.34a1.64,1.64,0,0,1-.6-.11,1.39,1.39,0,0,1-.46-.33,1.58,1.58,0,0,1-.29-.51,2,2,0,0,1-.1-.66,2,2,0,0,1,.1-.67,1.75,1.75,0,0,1,.29-.52,1.28,1.28,0,0,1,.45-.32,1.4,1.4,0,0,1,.58-.12,1.32,1.32,0,0,1,.57.12,1.22,1.22,0,0,1,.43.31,1.52,1.52,0,0,1,.28.48,1.89,1.89,0,0,1,.09.6v.23H37V214a.9.9,0,0,0,.07.37.77.77,0,0,0,.19.3.79.79,0,0,0,.3.2,1,1,0,0,0,.39.07,1,1,0,0,0,.54-.15.89.89,0,0,0,.35-.39l.35.24a1.07,1.07,0,0,1-.46.51A1.37,1.37,0,0,1,38,215.34Zm0-2.84a.88.88,0,0,0-.66.27.91.91,0,0,0-.19.3,1.06,1.06,0,0,0-.07.37v0h1.78v-.06a1.16,1.16,0,0,0-.06-.38,1.08,1.08,0,0,0-.18-.29.77.77,0,0,0-.27-.19A1,1,0,0,0,38,212.5Z"/><path class="cls-28" d="M40.06,215.27v-3.1h.44v.36h0a.79.79,0,0,1,.2-.3.53.53,0,0,1,.39-.13.56.56,0,0,1,.41.14.63.63,0,0,1,.16.35h0a.79.79,0,0,1,.24-.35.62.62,0,0,1,.43-.14.49.49,0,0,1,.5.27,1.65,1.65,0,0,1,.13.75v2.15h-.44V213.2a1.38,1.38,0,0,0-.08-.55.32.32,0,0,0-.3-.15.41.41,0,0,0-.31.12.52.52,0,0,0-.12.38v2.27h-.45V213.2a1.22,1.22,0,0,0-.08-.55.3.3,0,0,0-.29-.15.41.41,0,0,0-.31.12.53.53,0,0,0-.13.38v2.27Z"/><path class="cls-28" d="M45.19,215.34a1.64,1.64,0,0,1-.6-.11,1.39,1.39,0,0,1-.46-.33,1.58,1.58,0,0,1-.29-.51,2,2,0,0,1-.1-.66,2,2,0,0,1,.1-.67,1.75,1.75,0,0,1,.29-.52,1.28,1.28,0,0,1,.45-.32,1.4,1.4,0,0,1,.58-.12,1.32,1.32,0,0,1,.57.12,1.22,1.22,0,0,1,.43.31,1.35,1.35,0,0,1,.28.48,1.89,1.89,0,0,1,.1.6v.23h-2.3V214a.9.9,0,0,0,.07.37.77.77,0,0,0,.19.3.79.79,0,0,0,.3.2,1,1,0,0,0,.39.07,1,1,0,0,0,.54-.15.89.89,0,0,0,.35-.39l.35.24a1.07,1.07,0,0,1-.46.51A1.37,1.37,0,0,1,45.19,215.34Zm0-2.84a.88.88,0,0,0-.66.27.91.91,0,0,0-.19.3,1.06,1.06,0,0,0-.07.37v0H46v-.06A1.16,1.16,0,0,0,46,213a1.08,1.08,0,0,0-.18-.29.77.77,0,0,0-.27-.19A1,1,0,0,0,45.16,212.5Z"/><path class="cls-28" d="M47.4,214.86h.9v-2.27h-.9v-.42h1.39V213h0a1.08,1.08,0,0,1,.37-.57,1.06,1.06,0,0,1,.68-.21h.43v.48h-.58a.93.93,0,0,0-.67.24.82.82,0,0,0-.25.63v1.34H50v.41H47.4Z"/><path class="cls-28" d="M53.9,215.63a.74.74,0,0,1-.39.69,2.41,2.41,0,0,1-1.17.22,2,2,0,0,1-1.07-.2.62.62,0,0,1-.33-.57.56.56,0,0,1,.13-.39.77.77,0,0,1,.37-.2v-.07a.56.56,0,0,1-.2-.17.42.42,0,0,1-.07-.26.41.41,0,0,1,.16-.36,1,1,0,0,1,.39-.18v0a1,1,0,0,1-.44-.37,1,1,0,0,1-.16-.58,1.18,1.18,0,0,1,.08-.43.94.94,0,0,1,.25-.34,1.09,1.09,0,0,1,.38-.22,1.48,1.48,0,0,1,.49-.08,1.33,1.33,0,0,1,.61.13v-.06a.55.55,0,0,1,.08-.29.34.34,0,0,1,.29-.12h.57v.41h-.69v.21a.87.87,0,0,1,.25.35,1,1,0,0,1,.09.44,1,1,0,0,1-.08.43,1,1,0,0,1-.24.34,1.07,1.07,0,0,1-.39.22,1.53,1.53,0,0,1-.49.08h-.15l-.15,0-.14,0a.53.53,0,0,0-.15.08.52.52,0,0,0-.11.1.23.23,0,0,0,0,.14.18.18,0,0,0,.14.19,1.19,1.19,0,0,0,.36,0h.68a1.35,1.35,0,0,1,.87.23A.74.74,0,0,1,53.9,215.63Zm-.45,0a.36.36,0,0,0-.15-.3.93.93,0,0,0-.52-.11H51.71a.43.43,0,0,0-.32.42.46.46,0,0,0,.17.35.76.76,0,0,0,.54.15h.46a1.36,1.36,0,0,0,.66-.13A.4.4,0,0,0,53.45,215.65Zm-1.13-1.78a.73.73,0,0,0,.53-.17.61.61,0,0,0,.17-.45v-.17a.6.6,0,0,0-.17-.44.91.91,0,0,0-1.06,0,.6.6,0,0,0-.17.44v.17a.61.61,0,0,0,.17.45A.73.73,0,0,0,52.32,213.87Z"/><path class="cls-28" d="M56,215.34a1.64,1.64,0,0,1-.6-.11,1.39,1.39,0,0,1-.46-.33,1.58,1.58,0,0,1-.29-.51,2,2,0,0,1-.1-.66,2,2,0,0,1,.1-.67,1.75,1.75,0,0,1,.29-.52,1.28,1.28,0,0,1,.45-.32,1.4,1.4,0,0,1,.58-.12,1.32,1.32,0,0,1,.57.12,1.22,1.22,0,0,1,.43.31,1.52,1.52,0,0,1,.28.48,1.89,1.89,0,0,1,.09.6v.23H55V214a.9.9,0,0,0,.07.37.77.77,0,0,0,.19.3.79.79,0,0,0,.3.2,1,1,0,0,0,.39.07,1,1,0,0,0,.54-.15.89.89,0,0,0,.35-.39l.35.24a1.07,1.07,0,0,1-.46.51A1.37,1.37,0,0,1,56,215.34Zm0-2.84a.88.88,0,0,0-.66.27.91.91,0,0,0-.19.3,1.06,1.06,0,0,0-.07.37v0h1.78v-.06a1.16,1.16,0,0,0-.06-.38,1.08,1.08,0,0,0-.18-.29.77.77,0,0,0-.27-.19A1,1,0,0,0,56,212.5Z"/><path class="cls-28" d="M61.52,212.17h.42l.36,2.68h.05l.53-2.68h.53l.52,2.68H64l.35-2.68h.42l-.48,3.1h-.62l-.49-2.59h-.05l-.51,2.59H62Z"/><path class="cls-28" d="M65.52,210.83H66v1.85h0a.94.94,0,0,1,.12-.22.77.77,0,0,1,.18-.18.7.7,0,0,1,.24-.13,1.16,1.16,0,0,1,.34-.05,1.06,1.06,0,0,1,.78.31,1.21,1.21,0,0,1,.29.87v2H67.5v-1.9a.91.91,0,0,0-.18-.63.71.71,0,0,0-.55-.21,1.33,1.33,0,0,0-.28,0,1.12,1.12,0,0,0-.25.11.52.52,0,0,0-.17.19.53.53,0,0,0-.07.26v2.15h-.48Z"/><path class="cls-28" d="M70.39,215.34a1.6,1.6,0,0,1-.6-.11,1.39,1.39,0,0,1-.46-.33,1.58,1.58,0,0,1-.29-.51,2,2,0,0,1-.1-.66,2,2,0,0,1,.1-.67,1.75,1.75,0,0,1,.29-.52,1.28,1.28,0,0,1,.45-.32,1.4,1.4,0,0,1,.58-.12,1.32,1.32,0,0,1,.57.12,1.22,1.22,0,0,1,.43.31,1.52,1.52,0,0,1,.28.48,1.89,1.89,0,0,1,.09.6v.23H69.44V214a.9.9,0,0,0,.07.37.77.77,0,0,0,.19.3.79.79,0,0,0,.3.2,1,1,0,0,0,.39.07,1,1,0,0,0,.54-.15.89.89,0,0,0,.35-.39l.35.24a1.07,1.07,0,0,1-.46.51A1.37,1.37,0,0,1,70.39,215.34Zm0-2.84a.88.88,0,0,0-.66.27.91.91,0,0,0-.19.3,1.06,1.06,0,0,0-.07.37v0h1.78v-.06a1.16,1.16,0,0,0-.06-.38,1.08,1.08,0,0,0-.18-.29.77.77,0,0,0-.27-.19A1,1,0,0,0,70.36,212.5Z"/><path class="cls-28" d="M72.72,215.27v-3.1h.48v.51h0a.94.94,0,0,1,.12-.22.77.77,0,0,1,.18-.18.7.7,0,0,1,.24-.13,1.16,1.16,0,0,1,.34-.05,1.06,1.06,0,0,1,.78.31,1.21,1.21,0,0,1,.29.87v2H74.7v-1.9a.91.91,0,0,0-.18-.63.71.71,0,0,0-.55-.21,1.33,1.33,0,0,0-.28,0,1.12,1.12,0,0,0-.25.11.52.52,0,0,0-.17.19.53.53,0,0,0-.07.26v2.15Z"/><path class="cls-28" d="M81.14,215.34a1.59,1.59,0,0,1-.59-.11,1.31,1.31,0,0,1-.44-.33,1.4,1.4,0,0,1-.28-.51,2,2,0,0,1-.1-.67,2,2,0,0,1,.1-.66,1.53,1.53,0,0,1,.28-.52,1.16,1.16,0,0,1,.44-.32,1.41,1.41,0,0,1,.59-.12,1.37,1.37,0,0,1,.58.12,1.2,1.2,0,0,1,.45.32,1.51,1.51,0,0,1,.27.52,2,2,0,0,1,.1.66,2,2,0,0,1-.1.67,1.38,1.38,0,0,1-.27.51,1.35,1.35,0,0,1-.45.33A1.54,1.54,0,0,1,81.14,215.34Zm0-.41a.92.92,0,0,0,.65-.24,1,1,0,0,0,.24-.75v-.44a1,1,0,0,0-.24-.74.92.92,0,0,0-.65-.24.88.88,0,0,0-.65.24,1,1,0,0,0-.25.74v.44a1,1,0,0,0,.25.75A.88.88,0,0,0,81.14,214.93Z"/><path class="cls-28" d="M83.52,215.27v-3.1H84v.51h0a.94.94,0,0,1,.12-.22.92.92,0,0,1,.42-.31,1.16,1.16,0,0,1,.34-.05,1.06,1.06,0,0,1,.78.31,1.21,1.21,0,0,1,.29.87v2H85.5v-1.9a.91.91,0,0,0-.18-.63.71.71,0,0,0-.55-.21,1.33,1.33,0,0,0-.28,0,1.12,1.12,0,0,0-.25.11.52.52,0,0,0-.17.19.53.53,0,0,0-.07.26v2.15Z"/><path class="cls-28" d="M88.39,215.34a1.6,1.6,0,0,1-.6-.11,1.39,1.39,0,0,1-.46-.33,1.58,1.58,0,0,1-.29-.51,2,2,0,0,1-.1-.66,2,2,0,0,1,.1-.67,1.75,1.75,0,0,1,.29-.52,1.28,1.28,0,0,1,.45-.32,1.4,1.4,0,0,1,.58-.12,1.32,1.32,0,0,1,.57.12,1.22,1.22,0,0,1,.43.31,1.52,1.52,0,0,1,.28.48,1.89,1.89,0,0,1,.09.6v.23H87.44V214a.9.9,0,0,0,.07.37.77.77,0,0,0,.19.3.79.79,0,0,0,.3.2,1,1,0,0,0,.39.07,1,1,0,0,0,.54-.15.89.89,0,0,0,.35-.39l.35.24a1.07,1.07,0,0,1-.46.51A1.37,1.37,0,0,1,88.39,215.34Zm0-2.84a.88.88,0,0,0-.66.27.91.91,0,0,0-.19.3.87.87,0,0,0-.07.37v0h1.78v-.06a1.16,1.16,0,0,0-.06-.38,1.41,1.41,0,0,0-.18-.29.77.77,0,0,0-.27-.19A1,1,0,0,0,88.36,212.5Z"/></g><g class="cls-27"><path class="cls-28" d="M18.6,222.86h.91v-2.27H18.6v-.42H20V221h0a1,1,0,0,1,.36-.57,1.06,1.06,0,0,1,.68-.21h.43v.48h-.58a.93.93,0,0,0-.67.24.82.82,0,0,0-.25.63v1.34h1.2v.41H18.6Z"/><path class="cls-28" d="M23.59,223.34a1.64,1.64,0,0,1-.6-.11,1.39,1.39,0,0,1-.46-.33,1.58,1.58,0,0,1-.29-.51,2,2,0,0,1-.1-.66,2,2,0,0,1,.1-.67,1.58,1.58,0,0,1,.3-.52,1.16,1.16,0,0,1,.44-.32,1.4,1.4,0,0,1,.58-.12,1.32,1.32,0,0,1,.57.12,1.22,1.22,0,0,1,.43.31,1.35,1.35,0,0,1,.28.48,1.89,1.89,0,0,1,.1.6v.23h-2.3V222a1.11,1.11,0,0,0,.07.37.77.77,0,0,0,.19.3.79.79,0,0,0,.3.2,1,1,0,0,0,.39.07,1,1,0,0,0,.54-.15.89.89,0,0,0,.35-.39l.35.24a1.11,1.11,0,0,1-.45.51A1.43,1.43,0,0,1,23.59,223.34Zm0-2.84a.86.86,0,0,0-.36.07.88.88,0,0,0-.3.2.91.91,0,0,0-.19.3,1.06,1.06,0,0,0-.07.37v0h1.78v-.06a1.16,1.16,0,0,0-.06-.38,1.08,1.08,0,0,0-.18-.29.77.77,0,0,0-.27-.19A1,1,0,0,0,23.56,220.5Z"/><path class="cls-28" d="M27.25,223.34a1.57,1.57,0,0,1-.6-.11,1.22,1.22,0,0,1-.44-.33,1.56,1.56,0,0,1-.28-.51,2.31,2.31,0,0,1-.09-.67,2,2,0,0,1,.1-.66,1.51,1.51,0,0,1,.27-.52,1.16,1.16,0,0,1,.44-.32,1.38,1.38,0,0,1,.59-.12,1.26,1.26,0,0,1,.73.2,1.06,1.06,0,0,1,.41.52L28,221a.7.7,0,0,0-.28-.37.82.82,0,0,0-.48-.13.92.92,0,0,0-.38.07.77.77,0,0,0-.28.19.87.87,0,0,0-.17.3,1.52,1.52,0,0,0-.05.38V222a1.44,1.44,0,0,0,.05.37.87.87,0,0,0,.17.3.75.75,0,0,0,.29.2.92.92,0,0,0,.38.07.86.86,0,0,0,.52-.15,1,1,0,0,0,.32-.39l.34.23a1.2,1.2,0,0,1-.43.52A1.3,1.3,0,0,1,27.25,223.34Z"/><path class="cls-28" d="M30.74,223.34a1.59,1.59,0,0,1-.59-.11,1.31,1.31,0,0,1-.44-.33,1.4,1.4,0,0,1-.28-.51,2.26,2.26,0,0,1,0-1.33,1.53,1.53,0,0,1,.28-.52,1.16,1.16,0,0,1,.44-.32,1.41,1.41,0,0,1,.59-.12,1.37,1.37,0,0,1,.58.12,1.2,1.2,0,0,1,.45.32,1.51,1.51,0,0,1,.27.52,2,2,0,0,1,.1.66,2,2,0,0,1-.1.67,1.38,1.38,0,0,1-.27.51,1.35,1.35,0,0,1-.45.33A1.54,1.54,0,0,1,30.74,223.34Zm0-.41a.88.88,0,0,0,.64-.24,1,1,0,0,0,.25-.75v-.44a1,1,0,0,0-.25-.74,1,1,0,0,0-1.29,0,1,1,0,0,0-.25.74v.44a1,1,0,0,0,.25.75A.88.88,0,0,0,30.74,222.93Z"/><path class="cls-28" d="M33,222.86h.91v-2.27H33v-.42h1.38V221h0a1,1,0,0,1,.36-.57,1.06,1.06,0,0,1,.68-.21h.43v.48h-.58a.93.93,0,0,0-.67.24.83.83,0,0,0-.26.63v1.34h1.2v.41H33Z"/><path class="cls-28" d="M38.69,222.77h0a1,1,0,0,1-.95.57,1.05,1.05,0,0,1-.89-.42,1.94,1.94,0,0,1-.32-1.2,1.89,1.89,0,0,1,.32-1.19,1,1,0,0,1,.89-.43,1,1,0,0,1,.95.58h0v-1.85h.48v4.44h-.48Zm-.8.15a1.06,1.06,0,0,0,.31,0,.53.53,0,0,0,.25-.12.61.61,0,0,0,.24-.47v-1.12a.5.5,0,0,0-.07-.27.54.54,0,0,0-.17-.2.83.83,0,0,0-.25-.12,1.06,1.06,0,0,0-.31,0,.85.85,0,0,0-.65.25,1,1,0,0,0-.23.68V222a1,1,0,0,0,.23.67A.86.86,0,0,0,37.89,222.92Z"/><path class="cls-28" d="M44,222.86h1.12v-2.27H44v-.42h1.6v2.69h1v.41H44Zm1.36-3.37a.37.37,0,0,1-.29-.09.28.28,0,0,1-.09-.22v-.09a.29.29,0,0,1,.09-.22.51.51,0,0,1,.58,0,.29.29,0,0,1,.09.22v.09a.28.28,0,0,1-.09.22A.37.37,0,0,1,45.33,219.49Z"/><path class="cls-28" d="M48.77,223.34a1.92,1.92,0,0,1-.83-.16,1.8,1.8,0,0,1-.6-.44l.32-.29a1.51,1.51,0,0,0,.49.36,1.41,1.41,0,0,0,.64.13,1.17,1.17,0,0,0,.59-.13.43.43,0,0,0,.23-.4.39.39,0,0,0,0-.2.3.3,0,0,0-.12-.13.53.53,0,0,0-.17-.08l-.21,0-.48-.08-.36-.06a1,1,0,0,1-.34-.14.77.77,0,0,1-.26-.25.7.7,0,0,1-.11-.4.78.78,0,0,1,.1-.41.79.79,0,0,1,.26-.29,1.39,1.39,0,0,1,.39-.17,2.11,2.11,0,0,1,1.23.07,1.54,1.54,0,0,1,.53.37l-.31.29-.14-.13a.91.91,0,0,0-.19-.13,1.54,1.54,0,0,0-.28-.09,1.79,1.79,0,0,0-.36,0,1.08,1.08,0,0,0-.56.13A.41.41,0,0,0,48,221a.42.42,0,0,0,0,.2.49.49,0,0,0,.12.13l.18.07.2,0,.49.07.35.06a1.16,1.16,0,0,1,.34.14.69.69,0,0,1,.37.66.83.83,0,0,1-.36.71A1.58,1.58,0,0,1,48.77,223.34Z"/><path class="cls-28" d="M56.67,222.77h0l-.11.22a.77.77,0,0,1-.18.18.83.83,0,0,1-.25.12.9.9,0,0,1-.34.05A1,1,0,0,1,55,223a1.22,1.22,0,0,1-.29-.87v-2h.48v1.91a1,1,0,0,0,.18.63.71.71,0,0,0,.55.21,1.26,1.26,0,0,0,.28,0,.64.64,0,0,0,.25-.11.58.58,0,0,0,.17-.18.45.45,0,0,0,.07-.27v-2.15h.48v3.1h-.48Z"/><path class="cls-28" d="M58.31,220.17h.48v.51h0a1,1,0,0,1,.95-.58,1.06,1.06,0,0,1,.9.43,2,2,0,0,1,.32,1.19,2,2,0,0,1-.32,1.2,1.08,1.08,0,0,1-.9.42,1,1,0,0,1-.95-.57h0v1.7h-.48Zm1.27,2.75a.83.83,0,0,0,.65-.26,1,1,0,0,0,.23-.67v-.53a1,1,0,0,0-.23-.68.82.82,0,0,0-.65-.25,1.06,1.06,0,0,0-.31,0,1,1,0,0,0-.25.12.65.65,0,0,0-.17.2.6.6,0,0,0-.06.27v1.12a.57.57,0,0,0,.06.27.55.55,0,0,0,.17.2.58.58,0,0,0,.25.12A1.06,1.06,0,0,0,59.58,222.92Z"/><path class="cls-28" d="M61.82,222.86H62.9v-3.62H61.82v-.41h1.56v4h1.08v.41H61.82Z"/><path class="cls-28" d="M66.74,223.34a1.59,1.59,0,0,1-.59-.11,1.31,1.31,0,0,1-.44-.33,1.4,1.4,0,0,1-.28-.51,2,2,0,0,1-.1-.67,2,2,0,0,1,.1-.66,1.53,1.53,0,0,1,.28-.52,1.16,1.16,0,0,1,.44-.32,1.41,1.41,0,0,1,.59-.12,1.37,1.37,0,0,1,.58.12,1.2,1.2,0,0,1,.45.32,1.51,1.51,0,0,1,.27.52,2,2,0,0,1,.1.66,2,2,0,0,1-.1.67,1.38,1.38,0,0,1-.27.51,1.35,1.35,0,0,1-.45.33A1.54,1.54,0,0,1,66.74,223.34Zm0-.41a.88.88,0,0,0,.64-.24,1,1,0,0,0,.25-.75v-.44a1,1,0,0,0-.25-.74,1,1,0,0,0-1.29,0,1,1,0,0,0-.25.74v.44a1,1,0,0,0,.25.75A.88.88,0,0,0,66.74,222.93Z"/><path class="cls-28" d="M71.51,223.27a.53.53,0,0,1-.41-.14.64.64,0,0,1-.14-.36h0a.8.8,0,0,1-.32.42,1.08,1.08,0,0,1-.61.15,1.12,1.12,0,0,1-.77-.25.88.88,0,0,1-.29-.69.79.79,0,0,1,.32-.67,1.77,1.77,0,0,1,1-.23h.66v-.3a.63.63,0,0,0-.19-.51.76.76,0,0,0-.54-.17,1,1,0,0,0-.51.12.85.85,0,0,0-.32.33l-.32-.24a.69.69,0,0,1,.16-.23.87.87,0,0,1,.25-.21,2.18,2.18,0,0,1,.34-.14,1.88,1.88,0,0,1,.43-.05,1.24,1.24,0,0,1,.86.28.94.94,0,0,1,.32.77v1.71h.44v.41Zm-1.43-.33a1.22,1.22,0,0,0,.34,0,.89.89,0,0,0,.26-.12.52.52,0,0,0,.18-.18.46.46,0,0,0,.06-.23v-.51h-.66a1.3,1.3,0,0,0-.63.12.39.39,0,0,0-.19.35v.12a.41.41,0,0,0,.17.37A.8.8,0,0,0,70.08,222.94Z"/><path class="cls-28" d="M74.69,222.77h0a1,1,0,0,1-1,.57,1.05,1.05,0,0,1-.89-.42,1.94,1.94,0,0,1-.32-1.2,1.89,1.89,0,0,1,.32-1.19,1,1,0,0,1,.89-.43,1,1,0,0,1,1,.58h0v-1.85h.48v4.44h-.48Zm-.8.15a1.06,1.06,0,0,0,.31,0,.53.53,0,0,0,.25-.12.55.55,0,0,0,.17-.2.47.47,0,0,0,.07-.27v-1.12a.5.5,0,0,0-.07-.27.65.65,0,0,0-.17-.2.83.83,0,0,0-.25-.12,1.06,1.06,0,0,0-.31,0,.84.84,0,0,0-.65.25,1,1,0,0,0-.23.68V222a1,1,0,0,0,.23.67A.84.84,0,0,0,73.89,222.92Z"/><path class="cls-28" d="M77.59,223.34a1.64,1.64,0,0,1-.6-.11,1.39,1.39,0,0,1-.46-.33,1.58,1.58,0,0,1-.29-.51,2,2,0,0,1-.1-.66,2,2,0,0,1,.1-.67,1.75,1.75,0,0,1,.29-.52,1.28,1.28,0,0,1,.45-.32,1.4,1.4,0,0,1,.58-.12,1.32,1.32,0,0,1,.57.12,1.22,1.22,0,0,1,.43.31,1.52,1.52,0,0,1,.28.48,1.89,1.89,0,0,1,.09.6v.23H76.64V222a.9.9,0,0,0,.07.37.77.77,0,0,0,.19.3.79.79,0,0,0,.3.2,1,1,0,0,0,.39.07,1,1,0,0,0,.54-.15.89.89,0,0,0,.35-.39l.35.24a1.07,1.07,0,0,1-.46.51A1.37,1.37,0,0,1,77.59,223.34Zm0-2.84a.88.88,0,0,0-.66.27.91.91,0,0,0-.19.3,1.06,1.06,0,0,0-.07.37v0h1.78v-.06a1.16,1.16,0,0,0-.06-.38,1.08,1.08,0,0,0-.18-.29.77.77,0,0,0-.27-.19A1,1,0,0,0,77.56,220.5Z"/><path class="cls-28" d="M81.89,222.77h0a1,1,0,0,1-1,.57,1.05,1.05,0,0,1-.89-.42,1.94,1.94,0,0,1-.32-1.2,1.89,1.89,0,0,1,.32-1.19,1,1,0,0,1,.89-.43,1,1,0,0,1,1,.58h0v-1.85h.48v4.44h-.48Zm-.8.15a1.06,1.06,0,0,0,.31,0,.53.53,0,0,0,.25-.12.55.55,0,0,0,.17-.2.47.47,0,0,0,.07-.27v-1.12a.5.5,0,0,0-.07-.27.65.65,0,0,0-.17-.2.83.83,0,0,0-.25-.12,1.06,1.06,0,0,0-.31,0,.84.84,0,0,0-.65.25,1,1,0,0,0-.23.68V222a1,1,0,0,0,.23.67A.84.84,0,0,0,81.09,222.92Z"/><path class="cls-28" d="M84.74,223.32a.47.47,0,0,1-.35-.1.38.38,0,0,1-.1-.26v-.1a.38.38,0,0,1,.1-.26.47.47,0,0,1,.35-.1.45.45,0,0,1,.34.1.34.34,0,0,1,.1.26v.1a.34.34,0,0,1-.1.26A.45.45,0,0,1,84.74,223.32Z"/></g></g></g></svg>