<svg id="Layer_1" data-name="Layer 1" xmlns="http://www.w3.org/2000/svg" viewBox="0 0 301 301"><defs><style>.cls-1{fill:#b392ae;}.cls-2{fill:#5b745e;}.cls-3{fill:#1f5e92;}.cls-4{fill:#d3dd25;}.cls-5{fill:#0e0a04;}.cls-6{fill:#b392b0;}.cls-7{fill:#d4dd25;}.cls-8{fill:#546fc9;}.cls-9{fill:#6584af;}.cls-10{fill:#060f12;}.cls-11{fill:#5687ba;}.cls-12{fill:#07131e;}.cls-13{fill:#d1d550;}.cls-14{fill:#937880;}.cls-15{fill:#ced55a;}.cls-16{fill:#94797b;}.cls-17{fill:#917681;}.cls-18{fill:#d2cd50;}.cls-19{fill:#d6cd5c;}.cls-20{fill:#180706;}.cls-21{fill:#927887;}.cls-22{fill:#6883ad;}.cls-23{fill:#887f9b;}.cls-24{fill:#84819d;}.cls-25{fill:#090f20;}.cls-26{fill:#5e85b5;}.cls-27{fill:#5a84b6;}.cls-28{fill:#15304d;}.cls-29{fill:#5287b4;}.cls-30{fill:#6085b3;}.cls-31{fill:#2d577f;}.cls-32{fill:#4478aa;}.cls-33{fill:#5686b9;}.cls-34{fill:#1e4a6f;}.cls-35{fill:#c17c7b;}.cls-36{fill:#78907b;}.cls-37{fill:#738b75;}.cls-38{fill:#77907c;}.cls-39{fill:#758d7a;}.cls-40{fill:#7c957f;}.cls-41{fill:#77907b;}.cls-42{fill:#7f9983;}.cls-43{fill:#78917b;}.cls-44{fill:#c67974;}.cls-45{fill:#d1d35b;}.cls-46{fill:#f2acae;}.cls-47{fill:#cdd858;}.cls-48{fill:#ced859;}.cls-49{fill:#cad559;}.cls-50{fill:#cedb58;}.cls-51{fill:#6b6b35;}.cls-52{fill:#ac848c;}.cls-53{fill:#d3e122;}.cls-54{fill:#b77d82;}.cls-55{fill:#f4fbf3;}.cls-56{fill:#0a0505;}.cls-57{fill:#998094;}.cls-58{fill:#060605;}.cls-59{fill:#070704;}.cls-60{fill:#2a1110;}.cls-61{fill:#220c0a;}.cls-62{fill:#cb7771;}.cls-63{fill:#c77975;}.cls-64{fill:#c57974;}.cls-65{fill:#c97671;}.cls-66{fill:#cb7973;}.cls-67{fill:#d4df20;}.cls-68{fill:#c87977;}.cls-69{fill:#040404;}</style></defs><path class="cls-1" d="M78.14,18.51A142.79,142.79,0,0,1,112.78,4.72,150.72,150.72,0,0,1,265.16,52.91a4.86,4.86,0,0,1,.33.54c-.63,2.66-1.9,5.12-2.46,7.81a8.17,8.17,0,0,0,6,9.16c2.28.5,4.6.25,6.9.3a14,14,0,0,1,2.24.14,142.68,142.68,0,0,1,14.54,30.3,151.6,151.6,0,0,1,3.77,86c-.49.57-1.17.48-1.8.48H248.21c-.75,0-1.59.1-2-.68s.26-1.38.61-2c3-5.39,7.09-10.09,10.32-15.34,1.57-2.56,3.18-5.09,4.71-7.66a29.64,29.64,0,0,0,2.72-7,24.21,24.21,0,0,0,.9-6.82,3.72,3.72,0,0,0-1-2.61,8,8,0,0,0-6.22-2.8c-5.38-.07-10.17,1.73-14.8,4.16a24.26,24.26,0,0,1-2.36,1,56.7,56.7,0,0,0-8.46,4.53c-4.06,2.45-8.1,5-12.06,7.63-2.07,1.38-3.93,3.15-6.29,4.09a4.84,4.84,0,0,0-3.65,2.73,2.23,2.23,0,0,1-.48.49,3.11,3.11,0,0,1-.4.22c-2.74,1.62-5.36,3.43-8,5.21a5.31,5.31,0,0,0-1,1.06,2.44,2.44,0,0,1-.59.47,5.46,5.46,0,0,0-2.1,1.71,10.43,10.43,0,0,1-3.63,2.61c-1.54.61-2.88,0-2.89-1.67,0-3.41-.28-6.79.32-10.24.54-3.08,2.12-5.86,2.24-9,0-.88.85-1.51,1-2.34a95.64,95.64,0,0,1,5-15,2.43,2.43,0,0,1,.44-1.45,5.49,5.49,0,0,0,2.29-4.68,17.58,17.58,0,0,1,1.32-2.5c1.46-1.1,1.62-3,2.57-4.39,2.12-3.17,4.43-6.2,6.65-9.28a4.66,4.66,0,0,0,.46-.85,2,2,0,0,1,.24-.39c2-1,3.66-2.64,6-3.22,2.54-.62,4.61-2.47,6.93-3.68a12.43,12.43,0,0,0,3.83-2.83c.11-.1.23-.19.35-.28A13,13,0,0,0,234,104a2.19,2.19,0,0,1,.34-.34c4.53-3.51,6.13-9.33,2.26-14-1-1.23-2.63-1.68-4-2.21A24.22,24.22,0,0,0,224,85.88c-2.26,0-4.53.13-6.77,0a20.24,20.24,0,0,0-9.57,1.2,4.07,4.07,0,0,1-1,.37,84.42,84.42,0,0,0-12.84,2.68c-2.4.73-4.64,2-7.17,2.29a6.63,6.63,0,0,0-2.43,1.22,1.82,1.82,0,0,1-.45.2c-1.77.31-3.2,1.43-4.83,2.08a26.47,26.47,0,0,0-8.32,4.62,2,2,0,0,1-.46.19c-1.62.93-3.18,2-5.2,1.66-1.64.14-3.32-.31-4.94.29-.93.93-1.51,2.15-2.55,3-1.16.56-1.08,1.39-.51,2.32a2.32,2.32,0,0,1-1.06,2.61,8.69,8.69,0,0,0-4.71,2.8,6,6,0,0,1-2.78,1.82,4.09,4.09,0,0,1-1.12.37,16.71,16.71,0,0,0-8,3.7,4.1,4.1,0,0,1-1.75,1.47c-1.67.63-2.31,2.31-3.51,3.42a3,3,0,0,1-.29.32,10.37,10.37,0,0,0-2,2.73c-.25.44-.46.9-.71,1.34a8.64,8.64,0,0,0-1.16,2.57c0,.14-.1.28-.15.41a6.66,6.66,0,0,0-.83,2.28,29.53,29.53,0,0,0-.68,3c-.86,2.55-3.16,4-4.58,6.13-1.31,2-3.41,2.7-5.31,3.76a2.32,2.32,0,0,1-2.17,0,3.94,3.94,0,0,0-1.47-.6,2.86,2.86,0,0,1-1.32-1.34c-.61-1.24-1.41-2.36-2.13-3.53-.42-.68-.93-1.58-1.75-1.42s-.32,1.27-.57,1.92a18,18,0,0,0-.57,5.75,8.32,8.32,0,0,1-.48,3.17c-.18.52-.49,1-1.14,1s-.87-.62-.87-1.17c0-1.51-.27-3-.34-4.5-.24-5-.68-10.05-1.21-15.07-.71-6.72-1.52-13.43-2.68-20.09a6,6,0,0,0-.29-1.25c-1.39-3.55-1.92-7.33-3-11-.52-1.77-1.86-3.17-2.32-5-.74-2.92-2.71-4.94-4.8-6.91a6.4,6.4,0,0,0-7.95-.7,18,18,0,0,0-7.09,8.87c-.66,1.81-1.58,3.53-2.28,5.34l-.19.45-1.35,3A6.29,6.29,0,0,0,72,104.7a20.53,20.53,0,0,0-.56,3.21,53.78,53.78,0,0,0-1.66,10,97.56,97.56,0,0,0-1.53,12.88c-.28,4.11-.84,8.2-1.15,12.32-.2,2.58,0,5.16-.08,7.75,0,1.22.14,2.47-.65,3.58a2.3,2.3,0,0,0-.19,1.26,146.92,146.92,0,0,0,.08,16.92c.16,2.77.88,5.49.78,8.31-.1,2.57-.6,3.14-3.14,3.18-4.74.07-9.47-.16-14.21.13a133.15,133.15,0,0,1-15,0c-1.59-.08-3.15.57-4.78.56-3.61,0-7.23.19-10.82-.07-4.61-.33-9.22-.09-13.82-.25A2.39,2.39,0,0,1,3.79,184,139.49,139.49,0,0,1,.62,164.17,151.07,151.07,0,0,1,0,147.42,150,150,0,0,1,37.25,51.29c.35-.4.75-.75,1.13-1.13.74.22.87.91,1.12,1.48,1.22,2.82,2.78,5.47,4.24,8.16A12.14,12.14,0,0,0,46.9,63a30,30,0,0,0,4.62,3.25,8.43,8.43,0,0,0,3.81,1.22c7.15.26,14.21-.25,21-2.68,2.38-.85,4.65-2,6.94-3.07a7.91,7.91,0,0,0,3.08-3c.8-1.21,1.59-2.43,2.49-3.57,2-2.6,2.69-5.59,3.16-8.82.89-6.1-1-11.63-3-17.15a14.79,14.79,0,0,0-9.6-9.79A1.86,1.86,0,0,1,78.14,18.51Z"/><path class="cls-2" d="M295.92,189.1a111.35,111.35,0,0,1-5.74,17.57q-23.32,56.07-78.53,81.4a4,4,0,0,1-.75.2c-2.7-.74-4.27-2.76-5.59-5a2.18,2.18,0,0,1,.08-2c2.38-5.17,3.18-10.69,3.72-16.27a76.57,76.57,0,0,0-.23-18.65c0-.26,0-.54-.26-.75-.63.13-1,.88-1.65.88-.63-.24-.43-.74-.2-1,1.91-2.51,1-5.36,1-8.1,0-1.78-.73-3.45-1-5.21a3.58,3.58,0,0,1,1.14-3.32c2.93-2.91,5.62-6.07,8.54-9,4.21-4.23,7.93-8.89,11.95-13.29,3.47-3.8,6.73-7.79,10.05-11.74a33.08,33.08,0,0,0,4.75-6.64c.46-1,1-.95,1.73-.22-.25,1.18.63,1,1.29,1,2.58.1,5.15-.08,7.73-.15a59.21,59.21,0,0,1,7.88.07c2.47.27,4.93-.21,7.4-.22,8.06,0,16.12,0,24.18,0A3.3,3.3,0,0,1,295.92,189.1Z"/><path class="cls-2" d="M63.67,273.44q-44.4-32-58.81-84.76c-.23-.83-.44-1.65-.65-2.48,2.94-.32,5.9-.18,8.85-.21,10.59-.13,21.17-.24,31.76-.42,6.28-.11,12.57-.11,18.85-.22a6.71,6.71,0,0,1,2.56.24,2.22,2.22,0,0,1,1,2.09c.29,6.14,1.19,12.2,2,18.28a8.61,8.61,0,0,1-1.09,5.75c-2.72,4.52-3.56,9.63-4.69,14.66a23.31,23.31,0,0,0-.31,9c-.95,2.15-2.14,4.2-2.59,6.55a43,43,0,0,0,1,19.47,49.15,49.15,0,0,0,3.68,9.95C66,272.82,65.5,273.5,63.67,273.44Z"/><path class="cls-3" d="M78.14,18.51C85.6,20.32,89,25.81,90.72,32.66c.64,2.48,1.66,4.89,1.8,7.48.31,5.41.25,10.74-3.31,15.33-1,1.31-1.81,2.77-2.82,4.08-1.54,2-3.7,3.05-6,4a52.07,52.07,0,0,1-7.76,2.9,62.08,62.08,0,0,1-17.4,1.5c-2.87-.17-5-2-7.27-3.51-5-3.24-6.91-8.5-9.22-13.53l-.33-.73A114,114,0,0,1,50.88,37.6,151,151,0,0,1,77.12,19C77.44,18.79,77.8,18.66,78.14,18.51Z"/><path class="cls-4" d="M192.53,295.07a146.1,146.1,0,0,1-21.4,4.59,151.52,151.52,0,0,1-26.24,1.26,131.16,131.16,0,0,1-27.61-3.6,1.76,1.76,0,0,1-.33-.43,1.91,1.91,0,0,1-.07-1.11c.23-1.06.89-1.34,1.74-.66,4.45,3.55,12.7,2.84,16.21-2.42a27,27,0,0,0,2.66-4.2,2.4,2.4,0,0,1,2.08-1.55,28,28,0,0,1,4.48-.37,121.52,121.52,0,0,0,13.36-.37,88.11,88.11,0,0,0,9.65-1.68,93.91,93.91,0,0,0,10.82-2.44c2.4-.75,4.5-2.24,7-2.84a51.81,51.81,0,0,0,8-3.63c1-.58,1.61-1.57,2.68-2,.34-.14.65-.37,1-.49s1-.34,1.27.25-.16.85-.58,1.16a21.53,21.53,0,0,0-6.41,7.89,16.37,16.37,0,0,0-2,6.84,4.89,4.89,0,0,0,2.94,4.74C192.19,294.23,192.92,294.25,192.53,295.07Z"/><path class="cls-5" d="M63.67,273.44c1.91-.79,1.73-.69.71-2.68a53.05,53.05,0,0,1-4.88-25.24c.29-3.63.89-7.24,3.47-10.12a.89.89,0,0,1,1-.32c1.22.54,1.3,1.8,1.65,2.82a41.91,41.91,0,0,0,7.12,12.76,60.64,60.64,0,0,0,18.62,15c11.47,6.25,23.85,9.52,36.76,10.81a108,108,0,0,0,17.07.22,101.85,101.85,0,0,0,21-3.35c13.31-3.65,25.32-9.64,34.86-19.9a57.65,57.65,0,0,0,5.29-7.1.54.54,0,0,1,.49-.08,4,4,0,0,0,1.58-1.55c.15-.22.33-.53.6-.39s.31.42.34.66a86.43,86.43,0,0,1,.25,20.71,57.62,57.62,0,0,1-3,14.1,10.32,10.32,0,0,1-.62,1.3c-.64,1.13-.37,2,.39,3.05,1.24,1.75,3,2.82,4.57,4.15l-1.52.76c-1.61.26-2.41-1-3.28-1.9s-1.69-2.1-3.36-2.07c-1.05,0-1.35-.93-.61-1.86,2.28-2.86,3.22-6.24,4-9.7.66-1.45.23-3.11.85-4.58.54-2.57.51-5.21,1-8.24-5.48,9.42-13.9,14.56-23.14,18.66-3.65,1.25-7.12,2.93-10.91,3.78a155.94,155.94,0,0,1-16.42,3,74.39,74.39,0,0,1-12.22.55c-2.26-.11-4.5.31-6.76.07-2-.51-4.16-.3-6.23-.45-3.85-.28-7.68-.77-11.51-1.13a141.39,141.39,0,0,1-19.58-4.74,92.45,92.45,0,0,1-18.17-7.9c-1.56-.68-2.82-1.9-4.4-2.54-2.31-1.11-4.12-2.9-6.08-4.45a42.37,42.37,0,0,1-10.7-12.12,39.38,39.38,0,0,0,6.33,19.09,12.44,12.44,0,0,1,1,1.8,1.31,1.31,0,0,1-.32,1.75c-.61.45-1.1.08-1.57-.33a4.05,4.05,0,0,0-2.17-1.27Z"/><path class="cls-1" d="M83,272.17a114.33,114.33,0,0,0,13.77,6.24,108.55,108.55,0,0,0,14.32,4.28c3.15.65,6.28,1.37,9.42,2.06a66.89,66.89,0,0,0,9.46,1.12,38.84,38.84,0,0,0,5.6.38c.81-.08.88.37.72,1a7.09,7.09,0,0,1-1.69,3.09,28.31,28.31,0,0,1-4,3.75,9.15,9.15,0,0,1-9.42.75,11.54,11.54,0,0,1-6-5.82c-.08-.15-.15-.29-.24-.43-.75-1.08-2.24-1.53-3.07-.92a2.18,2.18,0,0,0-.1,3.06,19.7,19.7,0,0,1,2.48,4.12,2.19,2.19,0,0,1,.41,1.82A118.27,118.27,0,0,1,94,289.91a.92.92,0,0,1-.17-.9c.08-.26.23-.49.33-.73.62-1.55.51-3.41-.34-3.91-1.34-.8-2.57-.28-3.75.5-2.77,1.86-3.74,1.6-5.89-1a17.48,17.48,0,0,1-3.67-9.45,3.86,3.86,0,0,1,0-1C80.68,271.63,81.28,271.32,83,272.17Z"/><path class="cls-6" d="M206.49,273.53c-.64,3.5-1.54,6.89-3.91,9.68-.32.37-.73.71-.4,1.25a.92.92,0,0,0,1.28.31c1.06-.66,1.42.19,1.89.78,1.13,1.41,2.15,2.94,4,3.48a74.79,74.79,0,0,1-8.17,3.14,4.94,4.94,0,0,0-3.87.28,6.34,6.34,0,0,1-4.4.46,3,3,0,0,1-2.47-3A11.82,11.82,0,0,1,192.9,282a51.12,51.12,0,0,1,6.49-7.13,15.2,15.2,0,0,1,5-3.08C206.51,270.94,206.84,271.29,206.49,273.53Z"/><path class="cls-7" d="M81.38,284.22a96.25,96.25,0,0,1-11.93-6.9c.83-2.75-.81-4.66-2.29-6.6a13.24,13.24,0,0,1-2.39-4.88c-.52-2.08-1.64-4-1.84-6.16-.07-.76-.33-1.58.54-2s1.34.29,1.76.8a47,47,0,0,0,8.48,8.08c1.56,1.14,3,2.39,4.57,3.55a2.05,2.05,0,0,1,.89,2.26c-.9,3.33.57,6.16,1.77,9.06C81.3,282.3,82.27,283.13,81.38,284.22Z"/><path class="cls-8" d="M278.19,70.86a1.09,1.09,0,0,1-1,.34c-2.73-.12-5.47.29-8.18-.3a8.49,8.49,0,0,1-4.76-3.19c-.83-1-1.81-1.81-1.93-3.32A16,16,0,0,1,263.89,57c.48-1.19.31-2.71,1.6-3.53A123.08,123.08,0,0,1,278.19,70.86Z"/><path class="cls-9" d="M210,167.16l.32-.32a6,6,0,0,1,3.57-2.91,22.35,22.35,0,0,0,4-2.87,33.12,33.12,0,0,1,3.43-2.16c3.37-2.33,7.06-4.19,10.36-6.66a21.72,21.72,0,0,1,2.31-1.06,112.67,112.67,0,0,1,12.67-6.35,27.82,27.82,0,0,1,12.41-2.56,7.73,7.73,0,0,1,6.43,4c1,1.57.62,3.64.26,5.38-1,5-2.5,9.88-5.84,14-1.59,2-2.39,4.52-4,6.58-1.25,1.66-2.33,3.46-3.65,5.05-1.94,2.32-3,5.15-4.86,7.54a1.34,1.34,0,0,0-.12.3c-.23.61-1.37.9-.92,1.68s1.49.39,2.25.39q23.91,0,47.82,0a.64.64,0,0,1-.15.68,7.56,7.56,0,0,1-2.55.24c-14.64,0-29.27,0-43.9,0-1.44,0-2.89.43-4.32-.09-1.3-1.07-.58-2.16.07-3.13,2.84-4.24,5.5-8.59,8.73-12.55a39,39,0,0,0,3.65-6.08c1.58-2.86,3.5-5.51,4.7-8.6a23.88,23.88,0,0,0,1.69-9.45c-.06-2.19-2.5-4.24-5-4.44-5.15-.41-9.88,1-14.44,3.24a33.9,33.9,0,0,1-5,2.28,6.47,6.47,0,0,0-1.18.51q-8.64,5-17,10.46c-3.33,2.17-6.72,4.24-9.84,6.72a2,2,0,0,1-1.31.55A.91.91,0,0,1,210,167.16Z"/><path class="cls-10" d="M66.46,185.86l-11.3.12c-10.22.1-20.44,0-30.65.38-6.29.22-12.59-.08-18.87.4a1.61,1.61,0,0,1-1.43-.56L4,185.52c0-1,.78-1,1.48-1.05,3.65,0,7.3,0,11,0,5.79,0,11.59.11,17.38-.23,1.72-.1,3.43,0,5.14,0,8.49-.13,17-.41,25.46-.27.59,0,1.18-.12,1.77-.1a1.72,1.72,0,0,1,.58.23C67.33,184.82,67.38,185.44,66.46,185.86Z"/><path class="cls-11" d="M66.53,184.18l-21,.19c-8.12.1-16.24.1-24.36.36-5.16.16-10.32.05-15.47.24-.6,0-1.34-.28-1.69.55-.34-.46-.08-1-.25-1.52,4.07,0,8.16-.27,12.2.05,4.25.33,8.48.08,12.72.25a37.12,37.12,0,0,0,5.27-.47,35.39,35.39,0,0,1,5.25,0c8.48.38,17-.56,25.43-.22,1.28.05,2-.59,1.89-2-.11-2.77.22-5.57-.94-8.22a2.79,2.79,0,0,1,0-1.12c0-5.47-.27-10.93,0-16.4,0-.75-.07-1.51.59-2.09.45-.4.38-1,.38-1.51a96,96,0,0,1,.38-13.36c.67-5,.85-10.12,1.45-15.17a45.32,45.32,0,0,1,1.08-6c.74.78.37,1.76.46,2.65-.15,3.53-.63,7-.92,10.54-.26,3.25-.64,6.5-1,9.75a107.83,107.83,0,0,0-.62,11.09c0,3.1-.24,6.22-.24,9.32,0,6.64.11,13.3.49,19.95C67.65,182.19,67.69,183.4,66.53,184.18Z"/><path class="cls-12" d="M245.26,187.52c1,.65,2,0,3,0q23.23,0,46.48-.06c.56,0,1.2-.21,1.65.36a2.43,2.43,0,0,1-.43,1.24c-9,0-18.06-.06-27.08.12-7.77.16-15.53-.15-23.29.27-.55,0-1.29.25-1.58-.46s.45-1.07.94-1.45C245,187.42,245.12,187.41,245.26,187.52Z"/><path class="cls-13" d="M185.08,279c2.59-1.61,5.46-2.69,8.07-4.3,6-3.71,11.28-8.18,14.59-14.6a1.36,1.36,0,0,1,.32-.36s.09,0,.33.06a67.89,67.89,0,0,1-1,9.29,2.35,2.35,0,0,1-1.72,1.73,17.53,17.53,0,0,0-6.71,3.75c-3.6,3.13-6.88,6.51-8.45,11.19-.12.35-.25.71-.34,1.07-1,4.23,0,6,4.28,7a1.3,1.3,0,0,1,.84.41,7.89,7.89,0,0,1-2.72.92c-.74-.95-2-1.09-2.83-2.08a5.88,5.88,0,0,1-1.2-5.23c.83-5.27,3.83-9.32,7.45-13,.19-.19.41-.34.61-.52s1.42.06,1-.8c-.28-.53-.93.16-1.38.36-1.77.77-3,2.27-4.78,3.17-2,1-4.21,1.66-6.24,2.64C184.9,279.41,185.07,279.17,185.08,279Z"/><path class="cls-14" d="M114.72,296.67c-1.13-1.9-1.72-4.11-3.38-5.72-.94-.9-.69-2.12-.32-3.17a1.54,1.54,0,0,1,1.71-1c1.12.23,2.35.41,2.84,1.76a10.42,10.42,0,0,0,7.43,6.52,8.41,8.41,0,0,0,8.74-2.5c1.63-1.85,3.85-3.26,4.23-6.05l-9.66-.78a25.09,25.09,0,0,1-5.78-1c2.43-.11,4.78.61,7.2.75,3.32.21,6.63.61,10,.64a3.8,3.8,0,0,1,.91.23,31.21,31.21,0,0,1-4.33,6.91,12.2,12.2,0,0,1-17.44.57,2.35,2.35,0,0,1-.47-.65,12.17,12.17,0,0,0-3.27-4c.33,1.8,1.85,3,2.47,4.61l.24.4c.3.92,1.17,1.76.37,2.82Z"/><path class="cls-15" d="M81.38,284.22a3.63,3.63,0,0,0-.37-1.67c-1-2.68-3.18-5.13-2.46-8.18.65-2.75-.49-4.19-2.6-5.58a67.49,67.49,0,0,1-8.17-6.66c-1.17-1.07-1.78-2.65-3.11-3.59-.35-.25-.51-.94-1.15-.59s-.31.86-.2,1.3a38.94,38.94,0,0,0,3.44,10.09,35.78,35.78,0,0,0,2.8,4.07c1.13,1.54.63,2.63-.11,3.91a28.13,28.13,0,0,1-4.26-2.83,1.83,1.83,0,0,1,2.18.88c.31.5.83,1,1.46.45s.24-1.05-.13-1.55a38.28,38.28,0,0,1-6.61-15.7c-.44-2.13-.67-4.31-1-6.72,1.16.68,1.34,1.7,1.83,2.47a48,48,0,0,0,13,13.21c1,.71,1.72,1.77,3,2.11,1.54.67,1.66,1.78,1.34,3.31a11.85,11.85,0,0,0,1.34,7.79c.55,1.11,1.27,2.12,1.87,3.21.25.46.62.9.41,1.49Z"/><path class="cls-16" d="M195.25,294.15c-3.19,0-5-1-5.71-3.2a7.45,7.45,0,0,1,.31-4.89c2.29-6.35,6.65-10.93,12.43-14.29a11.71,11.71,0,0,1,3.81-1.56c.66-.12.83-.79,1.26-1.17-.69,1.42,0,3.11-.86,4.49-.08-1.94-.56-2.25-2.52-1.17a31.62,31.62,0,0,0-9.78,8.75,19.36,19.36,0,0,0-2.82,4.73,8.83,8.83,0,0,0-.25,5.2c.23,1.07,1.42,1.47,2.59,1.55a6.4,6.4,0,0,0,4.16-.85c1.4-1,2.32-.4,3.34.43A46.77,46.77,0,0,1,195.25,294.15Z"/><path class="cls-17" d="M83.83,285.44C82.45,283,80.6,280.84,80,278c-.42-2.05-.91-4.1-.07-6.12.53-1.26-.83-1.44-1.09-2.22L83,272.17c-1.68-.39-2.29.31-2.08,2.1a22.52,22.52,0,0,0,1.71,6.46,14.87,14.87,0,0,0,3.55,4.61c.9.87,2,.43,2.9-.34a5,5,0,0,1,3.58-1.53c1.6.11,2.11.66,2.32,2.21s-.52,2.86-1,4.23a3.12,3.12,0,0,1-1.55-.6c-.62-.89.28-1.46.47-2.17.34-1.25-.05-1.73-1.33-1.47a5,5,0,0,0-2.07,1.17c-.48.38-.94.91-1.68.52Z"/><path class="cls-18" d="M87.82,287.36a1.41,1.41,0,0,0,1.1-.56,4.76,4.76,0,0,1,.94-.86c1.07-.61,2.35-1.47,3.39-.53s0,2-.51,3c-.14.29-.37.53-.31.88A17.66,17.66,0,0,1,87.82,287.36Z"/><path class="cls-19" d="M116.18,297.05a6.12,6.12,0,0,0-.86-2.88c1.09-.46,1.23.43,1.49,1.08s0,1.28.44,1.81a1.22,1.22,0,0,1,0,.26Z"/><path class="cls-20" d="M113.69,144.57l1,1.29c.83.35,1.18,1.21,1.85,1.73.77.76,1.09,1.84,1.91,2.55a7.06,7.06,0,0,1,.71.83,20.18,20.18,0,0,0,4.59,4.4c2.36,1.95,4.71,3.91,7.22,5.67,8.5,6,17.63,10.36,28.1,11.4a21,21,0,0,0,12-1.86c.42-.22,1-.33,1.08-.87s-.55-.85-1-1.16-1.06-.53-1.54-.88a1.23,1.23,0,0,1-.54-1.41c.14-.56.6-.71,1.1-.78a3.44,3.44,0,0,1,2.59.67,17.62,17.62,0,0,1,6,7.26,3.64,3.64,0,0,1,.28,2.36c-.17.67-.54,1.22-1.29,1.25a1.31,1.31,0,0,1-1.28-1,14.75,14.75,0,0,0-1-2.73c-.52-.88-1.12-1.23-2.11-.67-6.47,3.7-13.38,3.34-20.25,1.8-10.15-2.27-19.08-7.13-27.24-13.52a79.64,79.64,0,0,1-14.33-14.79,10.58,10.58,0,0,1-1-1.49c-.13-.27-.23-.57-.36-.85a12.56,12.56,0,0,0-1.17-1.88,1.37,1.37,0,0,1-.16-.44c-.14-.67-.47-1.47.39-1.83s1.42.37,1.82,1C112,141.88,112.69,143.32,113.69,144.57Z"/><path class="cls-21" d="M109.19,141.67a4.26,4.26,0,0,1,1.28,1.9c-1.23,1.19-1,2.8-1.07,4.24-.15,1.82-.2,3.65-.27,5.47-.07,2.18-.93,4.07-1.54,6.07-.18.6-.42,1.31-1.26,1.22s-.89-.73-1-1.3a10.81,10.81,0,0,1-.45-2.87c.11-3.34-.33-6.65-.38-10,0-2.73-.44-5.45-.7-8.16s-.62-5.65-.87-8.48c-.31-3.51-.26-7.07-1.44-10.46a13.72,13.72,0,0,1-.22-2.57c-.68-4.34-1.65-8.61-2.71-12.89-.93-3.75-2.71-7.12-4.1-10.65a12.94,12.94,0,0,0-5.5-6.52,5.25,5.25,0,0,0-6.08,1.41,6.41,6.41,0,0,1-1.75,1.81,6.41,6.41,0,0,0-2,2.25,69.42,69.42,0,0,0-6.33,14.94,43.72,43.72,0,0,1-1.19,5.45c-.16.44-.14,1-.79,1-.67-.64-.41-1.44-.22-2.12a30.17,30.17,0,0,0,1-5A13.19,13.19,0,0,1,73,102.22c.24-.51.1-1.09.31-1.6l.06-.32c1.36-1.77,2-3.91,2.84-5.91a19.53,19.53,0,0,1,7.42-8.81c2.61-1.69,6.23-.69,8.69,1.81s3.66,5.71,5.08,8.8a39.14,39.14,0,0,1,2.92,9.75,12.14,12.14,0,0,0,.53,1.68c1.71,5.3,2.07,10.83,2.88,16.28.69,4.65,1,9.34,1.53,14,.24,2.33.38,4.7.44,7.07a76.93,76.93,0,0,0,1,10.67c.92-1.75.7-3.73,1.19-5.56.62-2.36,0-4.83.62-7.2A1.75,1.75,0,0,1,109.19,141.67Z"/><path class="cls-22" d="M109.19,141.67c-1,2.85-.52,5.85-1,8.75-.36,2.22.08,4.64-1.58,6.58-.56-.22-.63-.72-.66-1.19-.23-3.79-.5-7.59-.64-11.39-.17-4.39-.69-8.73-1.21-13.09-.3-2.49-.49-5-.69-7.51s-1.22-5-1.22-7.58c0-3.93-1.49-7.54-2.26-11.28a41,41,0,0,0-3.19-9.5c-1.33-2.73-2.51-5.46-4.63-7.75-2.48-2.67-5.8-3.53-9-1.37-4,2.73-6,6.79-8,11-.48,1-.47,2.47-1.85,3,1.44-3.4,2.47-7,4.72-10s4.9-5.9,9.35-5.91c2.32,0,3.58,1.41,5,2.75,2.26,2.09,3.28,4.86,4.65,7.53a42.06,42.06,0,0,1,3.1,8.86,96.17,96.17,0,0,1,3.22,15.16c.49,5.1,1.29,10.18,1.84,15.28.35,3.25.5,6.52.7,9.78.14,2.19.23,4.39.34,6.58,0,.36-.06.84.44.91s.64-.37.73-.72a9.17,9.17,0,0,0,.44-2.85,18.83,18.83,0,0,1,.65-6.38c.34-.15.46.12.61.32Z"/><path class="cls-23" d="M210,167.16l.68,0c0,1.36-1.11,1.9-2.06,2.45a66.27,66.27,0,0,0-6.25,4.27c-1.25.94-2.14,2.23-3.35,3.22a35.83,35.83,0,0,1-4.78,3.28,2.11,2.11,0,0,1-3.26-.88,5.64,5.64,0,0,1-.82-2.92,60.52,60.52,0,0,1,.07-7.74,30.26,30.26,0,0,1,2.25-9.19,5.5,5.5,0,0,0,.64-1.82c.27-3.11,1.66-5.87,2.65-8.76a58.29,58.29,0,0,1,2.49-7c1.91-3.89,3.64-7.86,5.61-11.72,1-2,2.3-3.85,3.17-5.93a14.7,14.7,0,0,1,2.16-2.81,61.65,61.65,0,0,1,4.23-5.69,8.43,8.43,0,0,1,7-3,.72.72,0,0,1,.37.32.75.75,0,0,1-.87.73,4,4,0,0,0-3.24,1.4c-.74.68-2,.63-2.44,1.69h0a34,34,0,0,1-3.23,4.48,70.78,70.78,0,0,0-6.47,10.37l-1.29,2.27a9.17,9.17,0,0,1-2.28,4.83c-.4.37-.23.87-.31,1.31a33.92,33.92,0,0,0-2.86,6.94c-.87,2.9-2.14,5.68-2.8,8.64-.75,3.38-1.87,6.64-2.74,10s-.43,6.79-.64,10.18a2.62,2.62,0,0,0,1,2.57c1,.67,1.85-.09,2.66-.54,1.57-.87,2.69-2.29,4-3.44.33-.28.71-.48,1-.75l.34-.32c2-1.48,3.91-3.24,6.24-4.34a18.45,18.45,0,0,0,2.83-2.09Z"/><path class="cls-24" d="M206.77,87.07l.64-.36a25,25,0,0,0,5.11-1.19c.89-.29,1.8.09,2.72.09A99.88,99.88,0,0,1,227,85.9a24.16,24.16,0,0,1,8.77,2.79c2.52,1.36,3.9,6.09,2.76,9.32a12.12,12.12,0,0,1-4.27,6.16h0c-1,1-1.9,2-2.91,2.9h0a45.56,45.56,0,0,1-9.42,5.9,1.69,1.69,0,0,1-1.22.26l-.06,0c-.37-1,.41-1.34,1.08-1.65a31.81,31.81,0,0,0,8.27-5.25c2.71-2.48,5.45-4.94,6.86-8.58s.56-6.44-2.9-8.23a28.24,28.24,0,0,0-10.69-2.65,56,56,0,0,0-14.59.89,71.78,71.78,0,0,0-11,2.5c-2.57.89-5.23,1.58-7.85,2.38a68.19,68.19,0,0,0-9,3.83c-2.82,1.32-5.85,2.2-8.45,4a1,1,0,0,1-.78.12.71.71,0,0,1-.41-.27c0-.62.5-.91.94-1.19a34.13,34.13,0,0,1,6.37-3.18c1.86-.67,3.5-1.77,5.36-2.38h0a95.25,95.25,0,0,1,14-4.79A69.9,69.9,0,0,1,206.77,87.07Z"/><path class="cls-25" d="M130.81,128.4l.66-1.3a27.53,27.53,0,0,1,2.25-2.91l0,0a38.49,38.49,0,0,1,3.59-3.85c.77-.13,1.12-.8,1.62-1.27,2.66-1.59,5.26-3.31,8.38-3.88a1.35,1.35,0,0,0,.94-.38,15.12,15.12,0,0,0,2.57-.74c1.08-.07,2.16-.16,3,.79-.19.89-1,.54-1.54.78a11.23,11.23,0,0,1,3.89,1.41c.62.37,1.36.72,1.18,1.68-.79.39-1.36-.16-1.92-.51a9.63,9.63,0,0,0-7.93-1c-4.84,1.27-8.51,4.28-11.59,8.07a25.55,25.55,0,0,0-4,6.61c-.18.45-.37,1.06-1.1.94-.15,0-.41-.41-.44-.13-.11,1-.68,1.89-.77,2.94-.21,2.68-1.6,5.17-1.34,7.95a.69.69,0,0,1-.42.64.75.75,0,0,1-.57-.49,15,15,0,0,1-.16-3.35,7,7,0,0,1,.65-3.19c.72-1.1.62-2.41,1-3.62a8.76,8.76,0,0,1,.83-2.33h0C130,130.36,130.29,129.33,130.81,128.4Z"/><path class="cls-26" d="M200.28,173.94a20.12,20.12,0,0,1-5.84,4.91c-1.61.82-3.05.13-3.13-1.69-.14-3-.59-6.16.12-9,.67-2.68.68-5.57,2.24-8.1.86-1.38.5-3.34,1.1-5,1.67-4.56,3.27-9.13,4.9-13.7a1.9,1.9,0,0,1,.94-1.05c-1.37,3.63-2.71,7.28-4.12,10.9-.38,1-.17,2.06-.57,3-1.19,2.75-1.57,5.73-2.6,8.52-1.7,4.57-1.52,9.33-1.39,14.08,0,1.55,1,2,2.47,1.37a12.93,12.93,0,0,0,4-3.17C198.94,174.5,199.39,173.84,200.28,173.94Z"/><path class="cls-26" d="M234.23,104.17a1.19,1.19,0,0,1,.5-1c2.08-1.67,3.05-3.93,3.79-6.42a7.3,7.3,0,0,0-2.83-7.67,13.67,13.67,0,0,0-5-2.33,61.43,61.43,0,0,0-11.65-1c-3,.13-6-.22-8.88.84a9,9,0,0,1-2.71.14c2.51-.71,4.87-1.77,7.69-1.38a64.58,64.58,0,0,0,9,.09,25.81,25.81,0,0,1,11.89,3,5.48,5.48,0,0,1,1.91,2.33c2.07,3.4,1.71,6.62-.34,9.93C236.68,102.17,236,103.64,234.23,104.17Z"/><path class="cls-27" d="M128,137.18l-.56,3.16c-1.75.86-2.63,2.6-3.86,3.95a9.59,9.59,0,0,1-7.27,3.45,3.29,3.29,0,0,1-1.65-1.88c.25-.07.61-.3.74-.2,2.83,2.13,5-.29,6.52-1.67a27.52,27.52,0,0,0,6-7.2.26.26,0,0,1,.13.25C128,137.13,128,137.18,128,137.18Z"/><path class="cls-22" d="M73.35,101.92c-.23,1.72-1.58,3.07-1.53,4.91.06,2.29-1.14,4.4-1.08,6.71.45,1.93-.27,3.79-.35,5.7,0,.45-.21,1.09-.94,1.08,0-.86,0-1.72,0-2.59a35.46,35.46,0,0,1,1.62-10c.33-1.06.41-2.16.64-3.23,0-.36,0-.74.32-1C72.6,103.09,72.41,102,73.35,101.92Z"/><path class="cls-22" d="M206.77,87.07c-2.32.83-4.78,1-7.15,1.55a89.11,89.11,0,0,0-9.33,2.76c-2.13.77-4.31,1.42-6.46,2.13a8.75,8.75,0,0,1,3.52-1.74c3.14-1,6.22-2.11,9.39-3A50.88,50.88,0,0,1,206.77,87.07Z"/><path class="cls-26" d="M220.68,113.23c3-1.13,5.55-3.14,8.42-4.55.84-.42,1-1.81,2.22-1.61a9.63,9.63,0,0,1-3.91,3.14c-2.32,1.18-4.43,3-6.87,3.67s-4.13,2.38-6.35,3.21c.07-.76.69-1,1.19-1.35C217,114.46,218.87,114,220.68,113.23Z"/><path class="cls-26" d="M204.49,131.94a39.52,39.52,0,0,1,5.49-9.48c1.39-1.8,2.81-3.58,4.21-5.37.07,1.41-1.16,2.15-1.82,3.1-1.7,2.46-3.48,4.86-5.22,7.29-.88,1.24-.93,2.87-2.07,4C204.89,131.61,204.68,131.77,204.49,131.94Z"/><path class="cls-28" d="M156.68,107.91c-1-1.16-.68-2,.65-2.48,1.08-.67,2.27-1.24,2.14-2.82.62-1,1.6-.7,2.49-.72s2,0,3,0c.67.3,1.51-.05,2.08.59a.49.49,0,0,1-.08.45c-.78.51-1.56.09-2.34,0a12.84,12.84,0,0,0-2.39-.25c-.78,0-1.38.25-1.43,1.17a1.9,1.9,0,0,1-1.43,1.77,2.5,2.5,0,0,0-1.92,2.6C157,108.79,156.94,108.05,156.68,107.91Z"/><path class="cls-22" d="M183.82,93.51c-2.41,1.78-5.31,2.55-8,3.8a16.51,16.51,0,0,0-4.64,3,.45.45,0,0,1-.65,0c1.25-1.69,3.14-2.41,4.94-3.27,2.11-1,4.26-1.94,6.36-3A3.56,3.56,0,0,1,183.82,93.51Z"/><path class="cls-29" d="M150.86,114.52a4.81,4.81,0,0,1-2.57.32,10.74,10.74,0,0,0,3.37-2.54,6.17,6.17,0,0,1,4.05-2c.13.7-.51.84-.86,1.2C153.36,112.3,152.27,113.63,150.86,114.52Z"/><path class="cls-30" d="M209.69,167.19c-1.17,2-3.5,2.35-5.09,3.76a16.81,16.81,0,0,1-4,2.67c.13-.28.19-.72.41-.82,2.07-1,3.49-3,5.72-3.76C207.84,168.65,208.47,167.44,209.69,167.19Z"/><path class="cls-31" d="M147.35,115.22a36.17,36.17,0,0,0-6.89,3.33,2.64,2.64,0,0,1-1.49.55A14.26,14.26,0,0,1,147.35,115.22Z"/><path class="cls-32" d="M109.15,141.61l-.61-.32c.09-.74-.4-1.77.61-2.1s1.63.47,2.08,1.17a22.72,22.72,0,0,1,2.46,4.21c-1.07-.72-1.51-1.91-2.2-2.92-.15-.22-.22-.5-.38-.71-.45-.57-.86-1.42-1.74-1.05S109.2,141,109.15,141.61Z"/><path class="cls-24" d="M170.55,100.26h.65l.05,0c.1.74-.54,1-1,1.34a12.93,12.93,0,0,0-1.77,2,1.25,1.25,0,0,1-1.54-.78,1.16,1.16,0,0,0,0-.32,27.21,27.21,0,0,1,3.26-2.28Z"/><path class="cls-26" d="M200.92,139l2.28-4.83A4.8,4.8,0,0,1,200.92,139Z"/><path class="cls-33" d="M154.74,111.22l1-.91a2.37,2.37,0,0,0,1-2.4l.62.5a.71.71,0,0,1,.56.74C157.18,111,156.3,111.62,154.74,111.22Z"/><path class="cls-33" d="M159.47,102.61c.58,2,.58,2-2.14,2.82Z"/><path class="cls-31" d="M137.35,120.37a17.5,17.5,0,0,1-3.59,3.85A8.63,8.63,0,0,1,137.35,120.37Z"/><path class="cls-22" d="M170.25,100.28a9.76,9.76,0,0,1-3.26,2.28l-2-.63c1.55,0,3.08,0,4.2-1.36A1.25,1.25,0,0,1,170.25,100.28Z"/><path class="cls-34" d="M128,137.18l-.09-.39a7.47,7.47,0,0,1,.69-3.18c.08-.21.19-.22.31,0C128.75,134.82,128.91,136.13,128,137.18Z"/><path class="cls-30" d="M213.87,163.93a15.38,15.38,0,0,0-3.57,2.91C210.76,165,212.12,164.22,213.87,163.93Z"/><path class="cls-26" d="M231.32,107.07a7,7,0,0,1,2.91-2.9A6,6,0,0,1,231.32,107.07Z"/><path class="cls-32" d="M133.72,124.19a7.91,7.91,0,0,1-2.25,2.91C132,126,132.4,124.72,133.72,124.19Z"/><path class="cls-32" d="M130.81,128.4a5.59,5.59,0,0,1-1.25,2.93A3.68,3.68,0,0,1,130.81,128.4Z"/><path class="cls-11" d="M73.35,101.92c-.65.36-.56,1.33-1.33,1.59l1.26-2.89C73.2,101.06,73.59,101.47,73.35,101.92Z"/><path class="cls-11" d="M71.7,104.49a5.67,5.67,0,0,1-.64,3.23A7.32,7.32,0,0,1,71.7,104.49Z"/><path class="cls-32" d="M128.91,133.58a1.63,1.63,0,0,0-.31,0,2.92,2.92,0,0,1,1-2.29A7.5,7.5,0,0,1,128.91,133.58Z"/><path class="cls-35" d="M168.59,103.52c-.32-1.12.77-1.36,1.25-2a9.93,9.93,0,0,1,1.41-1.24c.94.11,1.4-.71,2.08-1.09,2.77-1.53,5.81-2.45,8.63-3.83,1.52-.75,3-1.46,4.59-2.13,1.92-.83,3.91-1.35,5.86-2a120.9,120.9,0,0,1,13.48-3.42,101.06,101.06,0,0,1,11.71-1.5,40.8,40.8,0,0,1,11.79.81,14.8,14.8,0,0,1,7,3.38c1.91,1.71,2.17,4.41.92,7.14a17.42,17.42,0,0,1-5.15,7.11c-1.58,1.22-3,2.9-4.69,4s-3.55,2.59-5.7,3.18a1.5,1.5,0,0,0-1.13,1.23,10.16,10.16,0,0,0-6.06,2.2,12.7,12.7,0,0,0-2.35,2.79c-1.38,2-2.76,3.94-4.32,5.79a16.79,16.79,0,0,0-2.12,3.79c-1.25,2.72-2.72,5.32-4,8-1.39,3-2.82,5.95-4.15,8.94-1,2.36-1.5,5-2.51,7.43-.89,2.14-.85,4.62-1.8,6.57-1.36,2.82-1.43,5.9-2.6,8.7a2.48,2.48,0,0,0-.11,1c0,2.85,0,5.7,0,8.55a3.7,3.7,0,0,0,.31,1.57c1,2.29,1.48,2.28,3.72,1.13a19.64,19.64,0,0,0,5.48-4.14c1.38-1.52,3.1-2.46,4.51-3.82A17.84,17.84,0,0,1,208,169.5a9.43,9.43,0,0,0,2.64-2.3c1-.14,1.4-1.12,2.15-1.62,5.24-3.48,10.5-6.94,15.87-10.23,1.92-1.16,3.7-2.6,5.7-3.58,3.13-1.53,6.16-3.26,9.33-4.73,2.53-1.18,5.12-2.1,7.72-3a20.3,20.3,0,0,1,8.61-.71c3.39.28,5.34,3.86,4.85,7.75a29,29,0,0,1-4.3,12c-3.09,4.9-5.64,10.15-9.6,14.51a31.41,31.41,0,0,0-3.52,5.7,7.64,7.64,0,0,1-1,1.26,3.79,3.79,0,0,0-1.22,3l-.35.06a1.09,1.09,0,0,0-1.39.79c-1.18,3.19-3.7,5.42-5.74,8-2.77,3.46-5.65,6.84-8.66,10.09-3.92,4.22-7.49,8.75-11.56,12.85-3.36,3.38-6.47,7-9.86,10.39-1.27,1.26-.38,3,0,4.41a28.27,28.27,0,0,1,.56,9.56c-.07.9-1,1.73-1.5,2.59l-.31.12a3,3,0,0,1-.79-2.52c-.08-2.36.22-4.73,0-7.09,0-.43,0-.87-.06-1.29-.12-.63,0-1.49-.62-1.75s-1.06.56-1.55.94a2.5,2.5,0,0,0-.24.22c-.76.66-1.68,1.34-2.55.47s-.23-1.82.47-2.55c2.91-3,6-5.92,8.85-9,6-6.32,11.84-12.78,17.6-19.33,4.55-5.17,8.88-10.51,13.19-15.88a197.81,197.81,0,0,0,16.12-23.15,67.94,67.94,0,0,0,5.32-11.56,13.59,13.59,0,0,0,.61-5.91,3,3,0,0,0-2.35-2.59,8.69,8.69,0,0,0-4.47-.22,44.66,44.66,0,0,0-9.5,3.07c-2.79,1.17-5.46,2.54-8.12,3.95a201.06,201.06,0,0,0-19.34,12c-2.3,1.58-4.67,3.06-6.9,4.76-5.35,4.05-10.82,8-16.14,12.06-6.53,5-12.79,10.35-19.13,15.61a5.58,5.58,0,0,1-.78.57,1.34,1.34,0,0,1-1.88-.23,1.31,1.31,0,0,1,.15-1.89,35.21,35.21,0,0,1,2.64-2.38c3.82-3.31,7.66-6.61,11.71-9.64,1.11-.83,1.6-1.63.87-3a8.72,8.72,0,0,1-.72-3.77c-.35-7,1.21-13.66,3.12-20.31a132.59,132.59,0,0,1,5.43-15.36c3.76-8.9,8.19-17.44,14.51-24.86a16.82,16.82,0,0,1,7.62-4.92,31.37,31.37,0,0,0,15.2-11.25c3.09-4.23,1.54-8.34-3.55-9.82a36.75,36.75,0,0,0-8.92-1.29c-10.55-.4-20.62,2-30.57,5.11a107.59,107.59,0,0,0-17,7.29c-1.73.9-3.56,1.81-4.63,3.62A1,1,0,0,1,168.59,103.52Z"/><path class="cls-36" d="M253,192.24c-.11-.81.26-1.29,1.18-1.15s1.5-.52,2.23-.79c1-.37,1.66.57,1.51.84-.59,1.12.19,2,.16,3a1.32,1.32,0,0,1-1.85,1.35C254.61,195,252.93,193.41,253,192.24Z"/><path class="cls-37" d="M274.59,192.22c0,1.24-1.1,1.71-1.61,2.56a1.11,1.11,0,0,1-1.43.4,1.06,1.06,0,0,1-.81-1.05,6.77,6.77,0,0,1,.3-2.53c.16-.45.43-.92.82-.88,1.24.14,2.68-.34,3.65.81s.35,2.15,0,3.19c-.21.56-.72,1.14-1.35.73-.79-.51.27-.68.33-1C274.6,193.7,275.13,193,274.59,192.22Z"/><path class="cls-38" d="M290.58,195.38c-1.6.48-1.43-.64-1.43-1.63,0-.74.35-1.44,0-2.21a.76.76,0,0,1,.57-1c.5-.15.82.11,1,.59.1.3.13.69.53.71s.41-.3.38-.58c-.1-.73.36-.94.86-.68s1.36.69.94,1.41a1.78,1.78,0,0,0,.11,2.19c.23.35.19,1.11-.3,1C292.3,194.94,291.53,195.93,290.58,195.38Z"/><path class="cls-39" d="M259.09,192.83c.1-.67-.24-1.84.49-1.84,1.26,0,2.47-1.11,3.64-.34s.42,2.13.69,3.21c.16.61-.2,1.57-.81,1.56a10.09,10.09,0,0,1-3.55-.69C258.79,194.45,259.19,193.49,259.09,192.83Z"/><path class="cls-40" d="M249.78,195.29c-.36-.07-.8-.31-1.08-.19-1.24.58-1.22.21-.91-.9.24-.82-.23-1.66,0-2.68.52-1.94,1.81-1,2.67-1a1.55,1.55,0,0,1,1.35,1.84c-.17.75-.42,1.5-.59,2.28S250.37,195.27,249.78,195.29Z"/><path class="cls-41" d="M269.35,191c-.47.51-1.11,1.1.06,1.57.3.12.38.51-.07.72l-.44.18c.7,1.54-.9,1.17-1.42,1.67a1,1,0,0,1-1.85-.55c-.1-.73-1-1.48,0-2.3a7.06,7.06,0,0,1,2.2-1.44A1.65,1.65,0,0,1,269.35,191Z"/><path class="cls-42" d="M244.56,194.94c-.67-.12-1.57-.36-1.6-1.63a2.32,2.32,0,0,1,2.09-2.2c.88,0,1.88.26,1.69,1.4S246.66,195,244.56,194.94Z"/><path class="cls-43" d="M285,193.34c-.69.09-.63.61-.66,1.1,0,.31,0,.71-.45.69a.74.74,0,0,1-.74-.53,9,9,0,0,1,.05-3.36c0-.13.21-.23.32-.35,1,1.09,2.72-.72,3.7.83.21.34.49.65.24,1s-.64,0-.9-.25c-1.34-1.12-1.19.35-1.57.9Z"/><path class="cls-43" d="M285,193.35c.55-.12,1.12-.91,1.64.13.25.5.94.88.37,1.49a1.58,1.58,0,0,1-1.8.18c-.67-.26-.52-.82-.3-1.34a2.46,2.46,0,0,0,.1-.47Z"/><path class="cls-44" d="M72.35,107.08a60.05,60.05,0,0,1,2.17-6.82c1-2.76,2.63-5.22,3.85-7.88.66-1.44,5.31-6,6.85-6.44a4.91,4.91,0,0,1,4.48.69c3.17,2.1,4.77,5.05,6,8.45a38.71,38.71,0,0,0,2.51,5.34c.39.74.1,1.52.41,2.18,1.34,2.79,1.32,5.92,2.31,8.81a24.76,24.76,0,0,1,.73,4.9c.6,4.75,1.61,9.43,1.8,14.26s1.07,9.66,1.47,14.51c.28,3.47.3,7,.36,10.46a30.49,30.49,0,0,0,.51,3.82c.06.36.08.95.68.94s.46-.53.59-.85a24.18,24.18,0,0,0,1.79-9.54,23,23,0,0,1,.39-5.12c.11-.54-.12-1.79,1.23-1.22.25.15.46.31.35.65A65.92,65.92,0,0,1,109.58,158a27.94,27.94,0,0,1-6.67,14.63q-2.32,2.57-4.73,5.07c-3.43,3.56-6.83,7.15-10.31,10.66a116,116,0,0,0-9.61,11.26c-2.92,3.83-5,8.14-7.91,12a22.39,22.39,0,0,0-2.91,6.63,64.21,64.21,0,0,0-2.34,8.89c-.39,2.24-.26,4.51-.68,6.73-.1.52,0,1.09-.46,1.5l-1,.09c-.86-.27-.65-1-.68-1.61-.23-4.7,1-9.15,2-13.69.8-3.67,2.52-6.85,4-10.17,1-2.22.19-4.33,0-6.46-.58-5.36-1.55-10.68-1.57-16.09,0-.54-.57-.94-.28-1.52a1.55,1.55,0,0,0,.41-1.56c.26-.63.35-1.5,1.41-1,.67,1.36.38,2.86.55,4.29.68,5.7,1,11.45,2.1,17.1a1.56,1.56,0,0,1-.05.93c1.42-4.11,4.67-7,7-10.52,2.83-4.2,6.66-7.59,10.2-11.19A27.47,27.47,0,0,0,91,180.88a5.31,5.31,0,0,1,.94-1.11c3.36-2.58,5.67-6.17,8.71-9.06.5-.48.92-1,1.38-1.58a8.55,8.55,0,0,0,1.91-7.58c-.73-4-.31-8.05-.35-12.08-.06-6.14-.72-12.23-1.34-18.33A162.17,162.17,0,0,0,98.63,109c-1.49-6.13-3.36-12.15-6.74-17.54-2.92-4.64-6.76-5.87-10.58-.33a44.26,44.26,0,0,0-5.55,12.15,142.49,142.49,0,0,0-4.51,20.13c-.17,1.09-.19,1.08-1,1.31a5,5,0,0,1-.32-4.19,15.12,15.12,0,0,0,.66-4.25c.18-2.26,1.06-4.34,1.46-6.53C72.21,108.86,72,107.93,72.35,107.08Z"/><path class="cls-45" d="M117.25,297.06c-.67-.27-.55-.94-.75-1.45s-.2-1.44-1.18-1.44v0c-.2-.56-.37-1.13.2-1.56s.78,0,1.1.27c2.94,4,10.8,5.39,15.27,1.87a19.79,19.79,0,0,0,5.66-7.41c.26-.57.5-.87,1.07-.95a128.28,128.28,0,0,0,27.94-2.11,84.28,84.28,0,0,0,16.09-4.55c.78-.32,1.62-.51,2.44-.76.36.2.09.44,0,.67-1.81.72-3.6,1.46-5.37,2.3a33.3,33.3,0,0,1-8.32,2.22c-4.47.82-8.91,1.9-13.41,2.44a82.09,82.09,0,0,1-13,.46,33.13,33.13,0,0,0-5.45.36,1.81,1.81,0,0,0-1.6,1.12c-1.79,4.05-4.35,7.55-8.77,8.8a12,12,0,0,1-10.33-1.42c-.41-.28-.62-1.07-1.24-.79s-.28,1-.34,1.47C117.24,296.74,117.26,296.9,117.25,297.06Z"/><path class="cls-46" d="M64,235.31a53.77,53.77,0,0,1,1.9-13.65A54.36,54.36,0,0,1,72.74,207c2.34-3.6,5-6.94,7.3-10.54,2.1-3.3,5-5.81,7.69-8.59a85.49,85.49,0,0,1,6.21-6.53c2.81-2.37,4.83-5.43,7.52-7.88s4.39-5.7,5.84-9.08c2-4.69,2.22-9.68,2.85-14.6a13.19,13.19,0,0,0,.09-4.93c-.1-.4.23-.55.58-.61a75.38,75.38,0,0,0,32.66,26.6c7.15,3.05,14.6,4.8,22.48,3.82a19,19,0,0,0,7.69-2.73c.9-.56,1.3-.35,1.78.46a6.86,6.86,0,0,1,1.3,3.25,1,1,0,0,0,1,1c.74,0,1-.54.93-1.23a5.5,5.5,0,0,0-.25-1.58,16.73,16.73,0,0,0-6.28-7.58,2.39,2.39,0,0,0-1-.43c-.64,0-1.51-.44-1.82.48s.49,1.15,1.19,1.34l.15.05c1,.48,2.25,1,2.33,2,.06.81-1.3,1.06-2.1,1.45-4.9,2.34-10,2.2-15.17,1.28-10.4-1.86-19.43-6.68-27.71-13-1.58-1.22-3-2.55-4.58-3.83s-3-3-4.59-4.5l-.6-.65c-.68-.92-.53-1.5.62-1.9a13.24,13.24,0,0,0,6.38-5c.16-.21.32-.43.49-.64.38-.45.78-1.12,1.38-1,.76.2.23,1,.37,1.53a.77.77,0,0,0,.21.41l.25.37c.55.38.59,1,.75,1.56,1.68,5.9,6.62,9,12.69,8.14a22.83,22.83,0,0,0,7.22-2.66c1.82-.95,2.13-.78,2.52,1.25a16.23,16.23,0,0,0,3.05,7c3.77,4.87,10.34,5.13,14.94,3,5.26-2.47,8.61-6.73,11-11.81a26.15,26.15,0,0,0,1.69-17.34,12.63,12.63,0,0,0-4.47-7.12c-3.38-2.76-7.18-3.19-11.25-1.89a22.19,22.19,0,0,0-2.08.86c-1.45.61-1.88.41-2.4-1.09,0-.15-.09-.31-.13-.46a11.59,11.59,0,0,0-5.17-7.32c-.83-1-2.18-1.22-3.22-2.07.85-1,2-1.42,3-2.19s1.9-.93,2.43-2.15c.42-.93,1.66-.07,2.53-.15a26.49,26.49,0,0,1,4.19,1.14,9.38,9.38,0,0,0,1.72.42,1.63,1.63,0,0,0,1.67-.75,1.32,1.32,0,0,0-.24-1.63c-.74-.85-.6-1.44.48-1.77,1.51-.47,1.24-1.67,1.16-2.8-.22-.71-.13-1.12.63-1.64,5.83-4,12.33-6.63,18.86-9.06a105.13,105.13,0,0,1,16.75-4.45A76.23,76.23,0,0,1,222.35,88a27.83,27.83,0,0,1,9.49,1.51c4.85,1.9,6.82,5.83,3,10.79-3.2,4.21-7.43,7.16-11.94,9.74a21.9,21.9,0,0,1-4.79,1.81,12.5,12.5,0,0,0-5.95,4.24,83.06,83.06,0,0,0-10.65,16.58,140.24,140.24,0,0,0-7.2,17.12c-2.25,6.46-4.25,13.05-4.9,19.87-.35,3.75-1,7.74,1,11.38.31.54.1,1.06-.48,1.51q-6.12,4.71-11.93,9.8c-1.09,1-2.22,1.85-3.32,2.8-.51.44-.93.93-.32,1.64s1.11.31,1.56,0c2.08-1.69,4.14-3.41,6.18-5.14,4-3.44,8.09-6.86,12.35-10,3.77-2.82,7.33-6,11.23-8.57,2.92-2,5.57-4.25,8.52-6.16,4.08-2.65,8-5.46,12.13-8.12a134.38,134.38,0,0,1,15.25-8.78c5.22-2.5,10.49-5.22,16.52-5.33a5.66,5.66,0,0,1,3.92,1.19c1.94,1.64,1.25,3.77,1,5.71-.44,4.07-2.53,7.59-4.3,11.16a122.28,122.28,0,0,1-8.36,13.47c-3.46,5.17-7.24,10.07-11.1,14.92-3.62,4.55-7.26,9.09-11.18,13.4-3.53,3.89-6.9,7.93-10.38,11.87-.88,1-1.9,1.87-2.82,2.83-4.41,4.63-8.9,9.19-13.36,13.77l-.23.23c-.61.58-1.28,1.32-.53,2s1.38,0,1.93-.54a20.8,20.8,0,0,1,1.49-1.48c.67-.57,1.18-.43,1.42.45a22.11,22.11,0,0,1,.49,6.22,27.16,27.16,0,0,0,.23,6.56,25.53,25.53,0,0,1-5.12,7.33c-6.88,7.6-15.38,12.83-24.82,16.63a101,101,0,0,1-34.4,7,104.24,104.24,0,0,1-37-5.21C93.3,268.18,82.6,262.3,74.06,253a43.7,43.7,0,0,1-8.9-14.78A8,8,0,0,0,64,235.31Z"/><path class="cls-47" d="M113.71,276.38a144.11,144.11,0,0,0,16.57,2.42,110.9,110.9,0,0,0,35.19-3.06,84,84,0,0,0,26.32-11.5,54.42,54.42,0,0,0,15.16-15c.2-.3.44-.59.67-.88,0,0,.09,0,.27,0a13.55,13.55,0,0,1-.82,9.14A33.28,33.28,0,0,1,195,271.42a66,66,0,0,1-16,7.86,13.52,13.52,0,0,1-1.56.34c-1.17.23-2.25.85-3.48.78-.6-.95.21-1.14.78-1.27,1.62-.41,3.15-1.09,4.75-1.56a35.11,35.11,0,0,0,9.53-4.24,39.78,39.78,0,0,1,5-3,11.42,11.42,0,0,0,2.53-1.72,36.38,36.38,0,0,0,9.89-13.33,2.68,2.68,0,0,0,.12-.3c.13-.6.61-1.38-.06-1.77s-1.05.42-1.37.86a32.53,32.53,0,0,1-3.84,4.3,77.94,77.94,0,0,1-12.8,9.7,42.87,42.87,0,0,1-7.09,3.74c-4.05,1.56-8,3.4-12.26,4.32a2.75,2.75,0,0,0-.63.15c-5.06,2.18-10.53,2.42-15.87,3.32a37.83,37.83,0,0,1-5.64.13c-2.36,0-4.73.32-7.07.25-6.31-.16-12.67,0-18.88-1.46a22.07,22.07,0,0,0-2.58-.13,2.65,2.65,0,0,1-.54-.13,3.82,3.82,0,0,0-2.27-.5C114.67,277.74,113.76,277.61,113.71,276.38Z"/><path class="cls-48" d="M91.34,274.15A59.87,59.87,0,0,1,79,267.57a50,50,0,0,1-15.75-15.85c-2.79-4.58-2.19-8.89-.15-13.69,1,2.29,1.81,4.35,2.83,6.3,4.92,9.43,12.51,16.23,21.48,21.67a4,4,0,0,1,1.44,1c-.41.46-.93.16-1.4.2-1.94.08-2.95-1.51-4.35-2.4-1-1.33-2.49-2.05-3.71-3.11-2.11-.54-3.36-2.25-4.8-3.65a58,58,0,0,1-6.17-7c-1.87-2.5-3.24-5.3-5.19-8.16-.51,1.63-1.13,3.19-.42,4.55,2.11,4.08,4.33,8.07,7.81,11.3,2.85,2.63,5.53,5.43,8.89,7.39,3.61,2.12,7,4.6,10.92,6.19.81.33,2.08.52,1.81,2A1.33,1.33,0,0,1,91.34,274.15Z"/><path class="cls-49" d="M91.34,274.15l1.07,0c.67-.63,1.41-.38,2.1-.09a104,104,0,0,0,16.7,5.42A92.8,92.8,0,0,0,125,282c2.94.25,5.83.88,8.79,1.09a119.81,119.81,0,0,0,16.41.07c3.76-.26,7.46-.9,11.21-1.25a73.32,73.32,0,0,0,8.53-1.64c1.28-.27,2.59-.95,3.88,0,1.23,0,2.33-.74,3.58-.64a67.11,67.11,0,0,1-14.16,3.5,129.11,129.11,0,0,1-51.6-2.07c-2.66-.64-5.29-1.38-7.93-2.07a30,30,0,0,0-2.9-1C97.61,276.8,94.31,275.88,91.34,274.15Z"/><path class="cls-50" d="M87.5,266.71l1.39.28a121.16,121.16,0,0,0,14.52,6.4c3.38,1.16,6.85,2.05,10.3,3a2.39,2.39,0,0,0,2.37,1c.67-.05,1.43-.19,1.83.64-.5.51-1.1.3-1.68.24a7.78,7.78,0,0,0-3,0,2,2,0,0,1-1.85-.3c-2.1-1.82-4.85-2-7.3-2.86-4.13-1.41-8.05-3.27-12.09-4.89a12,12,0,0,1-3.81-2.31C87.78,267.59,87.38,267.29,87.5,266.71Z"/><path class="cls-51" d="M100.79,278a4.56,4.56,0,0,1,2.9,1A5,5,0,0,1,100.79,278Z"/><path class="cls-52" d="M68.13,183.33c-.71-.05-.84.65-1.26,1l-.34-.12a7.31,7.31,0,0,0,.46-3.75,31.41,31.41,0,0,1-.12-4.66c-.05-3.54-.22-7.08-.27-10.62-.09-6,.18-12,.34-18a95.34,95.34,0,0,1,1.46-14.19,7.91,7.91,0,0,0,.06-1.29c0-3.81.78-7.53,1-11.32,1.07-1.55.48-3.41.93-5.09.15-.54,0-1.17.36-1.69A24.18,24.18,0,0,0,72,108.25c0-.41-.07-.86.32-1.17a14.87,14.87,0,0,1-.73,5.51c-.9,2.92-.83,6-1.47,9a11.08,11.08,0,0,0,.26,3.31,1.8,1.8,0,0,1,.32,1.67c-.71,5.6-1.38,11.21-1.78,16.84-.37,5-.37,10.1-.71,15.14-.42,6.14.12,12.26.15,18.38,0,1.51.41,3,.3,4.5C68.65,182.07,68.73,182.8,68.13,183.33Z"/><path class="cls-53" d="M200,271.27c.72-1.92,2.77-2.38,3.73-3.94a18,18,0,0,1,2.41-2.77c.46-.49.78-.46.91.32a4.09,4.09,0,0,1-2.85,4.74c-.93.35-1.75,1-2.66,1.42C201.14,271.25,200.71,271.74,200,271.27Z"/><path class="cls-19" d="M116.61,292.86c-1.27-.42-1.33.39-1.3,1.29a18.25,18.25,0,0,0-2.42-3.55,1.43,1.43,0,0,1-.43-1.46c.18-.7.66-1.13,1.22-.43A20.75,20.75,0,0,1,116.61,292.86Z"/><path class="cls-54" d="M127.64,143.9c-.6-.41-.17-1.13-.5-1.66-.65.11-.89.67-1.21,1.13a13.53,13.53,0,0,1-7.3,5.67c-1.09.32-.2,1-.44,1.38a8.08,8.08,0,0,1-1.88-2.68c.29-.58.83-.58,1.38-.62a7,7,0,0,0,5.06-2.68c1-1.18,2.29-2.08,3-3.56.3-.68,1.11-.49,1.74-.54C127.51,141.53,127.57,142.71,127.64,143.9Z"/><path class="cls-54" d="M118.79,151.07a20.85,20.85,0,0,1,4.59,4.5A20.21,20.21,0,0,1,118.79,151.07Z"/><path class="cls-55" d="M130.88,133a33.16,33.16,0,0,1,8-11.33,21.28,21.28,0,0,1,9.08-4.92c3.5-.87,6.54.1,9.37,2.1,2,1.09,2.44,3.13,3.13,5a4,4,0,0,1-1.67,5.16c-1.81,1.32-2.85,3.34-4.13,5.13-.3.42-.47,1.11-1.12,1s-.73-.83-.81-1.42c-.58-4-3.78-5.28-7-2.76a7.14,7.14,0,0,0-3.07,6.4,3.84,3.84,0,0,0,5.79,3.34,20.61,20.61,0,0,0,2.28-1.53.92.92,0,0,1,1.05-.15c.37.25.32.67.21,1a37.18,37.18,0,0,0-1.37,7.61,1.81,1.81,0,0,1-.66,1.27c-4.07,3.16-8.48,5.16-13.77,3.74-3.74-1-5.52-3.88-6.64-7.3a10.91,10.91,0,0,1-.39-1.57,13.39,13.39,0,0,1,.09-5.53c0-.34,0-.69,0-1a20.55,20.55,0,0,1,1.43-4.17Z"/><path class="cls-56" d="M129.58,137.21l-.06.89a9.35,9.35,0,0,0,0,5.8,12.15,12.15,0,0,0,3.27,6.35c3.22,3,7,3,10.87,1.71a20.33,20.33,0,0,0,5.77-3.13,1.32,1.32,0,0,0,.69-1,30.41,30.41,0,0,1,1.74-9.07c-1,.81-1.61,1.37-2.29,1.83a4.85,4.85,0,0,1-5.3.6c-1.9-1-2.25-2.74-2.2-4.66.12-3.79,3.53-7.28,7-7.24a3.84,3.84,0,0,1,4.1,3.84,10.23,10.23,0,0,0,.22,1.82,29,29,0,0,1,6.66-7.84c.48-.39.28-.86.22-1.32a13.43,13.43,0,0,0-3.06-7c-1.14-1.91-3.15-2.19-5-2.69-.41-.11-1.16.27-1.16-.43s.71-.51,1.18-.53l1.45,0a4.22,4.22,0,0,1,2.66.93c3.35,1.7,4.88,4.69,5.61,8.16.25,1.16.59,1.28,1.59.75,8.38-4.45,17.08,0,18.85,9.29,1.88,9.85-1,18.43-8.21,25.37-3.86,3.69-8.53,5.75-14,4.41-6-1.47-8.6-6.06-9.67-11.68-.29-1.57-.6-1.43-1.75-.74-3.66,2.2-7.57,3.64-11.95,2.7a11.07,11.07,0,0,1-9-10c.18-1.6-.5-3.38.27-4.77,1.42-2.54.57-5.76,2.72-8.47V133h0A14.44,14.44,0,0,0,129.58,137.21Z"/><path class="cls-57" d="M156.37,116.06l-2.66-.93c-.82-.8-1.9-.38-2.85-.61a8.77,8.77,0,0,1,3.88-3.3,3.25,3.25,0,0,0,2.92-2.18c1.24,0,2.55-.21,3.23,1.25-.42-.08-.83-.17-1.24-.22s-1.2-.4-.88.68c0,.17-.32.59-.57.69-1.76.66-3.08,2-4.74,2.85C154.29,115.1,155.85,114.72,156.37,116.06Z"/><path class="cls-58" d="M160.89,110.29c-.87-1-2.31-.44-3.23-1.26l-.36-.62c-.59-1.76.14-2.68,1.86-3.1.79-.19,1.44-.61,1.19-1.73-.2-1,.54-1.24,1.39-1.33,1.8-.19,3.48.53,5.24.63l1.61.64,1.35.93c1.41,1.72,1,2.49-1.82,3.49,0,.14.07.35.17.41a1.77,1.77,0,0,1,.78,2.58,2.1,2.1,0,0,1-2.65.9c-1.34-.35-2.65-.82-4-1.21C161.93,110.47,161.41,110.4,160.89,110.29Z"/><path class="cls-2" d="M262.44,192.9a.79.79,0,0,1,.75.7c0,.54-.4.84-.89,1s-.58-.16-.58-.54A1.13,1.13,0,0,1,262.44,192.9Z"/><path class="cls-46" d="M68.13,183.33c-.11-7-.83-13.93-.59-20.91s.49-14.22,1-21.31c.4-5.44,1.22-10.84,1.86-16.26.53-2.82,1-5.65,1.61-8.46,1.55-7.49,3.26-14.94,6.75-21.83a24.38,24.38,0,0,1,3.59-5.49c2.79-3.08,5.77-2.62,8.45.13a20.65,20.65,0,0,1,4,6.72,89.57,89.57,0,0,1,5.4,18.1c1.14,6,1.79,12.16,2.54,18.27a242.41,242.41,0,0,1,1.33,26.52,16.85,16.85,0,0,0,.69,5.84c.46,1.23-1,2.32-1.63,3.49-1.34,2.7-4,4.28-5.73,6.7a41.18,41.18,0,0,1-3.89,4c-2.88,3.17-6,6.11-8.85,9.3-2.44,2.71-5.19,5.12-7.16,8.26s-5,5.95-6.61,9.66A138.38,138.38,0,0,1,68.13,183.33Z"/><path class="cls-59" d="M189.88,125.13a1.49,1.49,0,0,1-1.68-1.19c-.36-2-1.92-3.17-2.86-4.75-.42-.69-.91-1.33-1.37-2-.28-.41-.64-1-.36-1.33a23.17,23.17,0,0,1,3.26-3.71c.74-.62,1.75-.06,2.43.66,2.17,2.3,3.43,5.18,5,7.87.52.9-.11,1.69-1,2s-1.54.51-1.77,1.56C191.35,124.93,190.62,125.2,189.88,125.13Z"/><path class="cls-60" d="M103.35,267.17a9,9,0,0,1-6.89-2.95,6.11,6.11,0,0,1-1.17-5,.94.94,0,0,1,1.13-.88c.63.05.53.57.56,1,.3,4,2,5.78,5.91,6.17,2.85.27,7.2-1.38,7.79-5,.08-.55.06-1.3,1-1.15s.77.91.7,1.53c-.31,2.77-2.08,4.4-4.44,5.49A9.87,9.87,0,0,1,103.35,267.17Z"/><path class="cls-61" d="M101.72,260.86c-2,0-3.15-1.28-2.86-3,.08-.48.28-.81.78-.88a.66.66,0,0,1,.83.73c0,1,.45,1.57,1.46,1.46a2.23,2.23,0,0,0,2.17-1.83,3.11,3.11,0,0,0,0-.8c0-.53,0-1,.7-1s.82.33,1,.84C106.49,258.58,104.47,260.88,101.72,260.86Z"/><path class="cls-62" d="M232.35,180.31c0-.46.32-.69.54-1,1-1.37,2.67-1.91,4-2.92a.69.69,0,0,1,1,.14.71.71,0,0,1,.07.89c-1.06,1.71-2.94,2.41-4.44,3.57C233.07,181.33,232.48,180.93,232.35,180.31Z"/><path class="cls-63" d="M139.13,238.87c-1-.19-1.43-.7-1-1.6a18.61,18.61,0,0,0,1.67-3.23.81.81,0,0,1,1.17-.51c.43.21.92.55.66,1.11-.59,1.3-1.26,2.58-1.94,3.84C139.6,238.68,139.29,238.77,139.13,238.87Z"/><path class="cls-64" d="M81.49,218.2a.93.93,0,0,1-.86-.35.76.76,0,0,1,.09-1,8.26,8.26,0,0,0,1.8-2.64.83.83,0,0,1,1.1-.42.9.9,0,0,1,.67.82C84.45,215.57,82.48,218.13,81.49,218.2Z"/><path class="cls-65" d="M121.13,191.13c0,.66-2.33,3.5-3,3.62a1,1,0,0,1-1-.44.73.73,0,0,1,0-1c.92-1,1.86-1.91,2.81-2.85a.57.57,0,0,1,.72-.14A.86.86,0,0,1,121.13,191.13Z"/><path class="cls-66" d="M203.12,106.42c-.32,0-.66,0-.81-.38a.9.9,0,0,1,.25-1c.88-.78,1.77-1.55,2.69-2.28.34-.28.72-.12,1,.16a.94.94,0,0,1,.37,1.13A8.82,8.82,0,0,1,203.12,106.42Z"/><path class="cls-67" d="M87.5,266.71a14.2,14.2,0,0,0,6.12,3.76c2.94,1.12,5.69,2.68,8.74,3.53,1.72.48,3.39,1.14,5.08,1.73,1.32.46,2.86.38,3.81,1.76a1.63,1.63,0,0,0,1.47.45c1.77-.69,3.46,0,5.19.07h0a119.2,119.2,0,0,0,16.22,1.66c1.85,0,3.75.31,5.59.2,2.53-.14,5.1,0,7.61-.56,4.54.21,8.93-.87,13.39-1.4,3.71-.44,6.95-2.08,10.47-2.93a61.55,61.55,0,0,0,14.9-5.89,37.36,37.36,0,0,0,7.66-5c2.1-1.91,4.6-3.31,6.63-5.32a70.08,70.08,0,0,0,5.06-5.7c.3-.37.65-1.07,1.28-.65a1.4,1.4,0,0,1,.54,1.71,32.69,32.69,0,0,1-13.18,16.7c-4.21,2.41-8.14,5.38-12.9,6.76-2.16.63-4.29,1.35-6.45,2-.42.13-.87.13-.92.71a27.66,27.66,0,0,0-4.55.73c-2.95.46-5.8,1.36-8.79,1.57-3.52.25-7,1.1-10.52,1.09-3.3,0-6.57.78-9.92.24-2.31-.37-4.7-.16-7.06-.32-3-.21-5.88-1-8.87-1.12-4-.22-7.8-1.63-11.75-2.16-3.12-.43-6-1.8-9-2.62a66.66,66.66,0,0,1-9.49-3.41,4.43,4.43,0,0,0-1.43-.15,2.88,2.88,0,0,0-1.49-1.17c-3.41-1.34-6.4-3.42-9.54-5.24a38.39,38.39,0,0,1-9.31-7c-2.16-2.33-4.83-4.21-6.33-7.14-1-2-2.22-3.88-3.33-5.82-.41-.71,0-4.73.51-5.26s.77-.34,1.07.27a52.2,52.2,0,0,0,8.19,12.19c1.69,1.9,3.55,3.66,5.4,5.41a3,3,0,0,0,2.21.86,2.56,2.56,0,0,0,1.76,1.91c.76.21,1.15.95,1.79,1.35C84.81,265,85.53,267,87.5,266.71Z"/><path class="cls-50" d="M147.32,279.3a1.15,1.15,0,0,1-1.2.63c-2.94-.12-5.85.25-8.8.15-4.19-.16-8.36-.41-12.52-.82-2.32-.23-4.6-.83-6.9-1.26,2.12-.25,4.15.38,6.2.67a52.84,52.84,0,0,0,8.14.62c2.63,0,5.24.63,7.86.3A58.12,58.12,0,0,1,147.32,279.3Z"/><path class="cls-50" d="M83.33,264.46c-1-.38-1.83-1.22-2.91-1.59-.69-.23-.67-1-.64-1.67C80.66,262.61,82.55,262.94,83.33,264.46Z"/><path class="cls-25" d="M129.54,143.9a6.14,6.14,0,0,1,0-5.8A32.1,32.1,0,0,0,129.54,143.9Z"/><path class="cls-25" d="M129.58,137.21a5.84,5.84,0,0,1,1.3-4.25A21.08,21.08,0,0,1,129.58,137.21Z"/><path class="cls-55" d="M152,148a25.51,25.51,0,0,1,8.4-18.6,14.73,14.73,0,0,1,7.1-3.95c5.74-1.11,10.21,1.42,12.38,7,1.84,4.72,1.55,9.49.09,14.22-1.79,5.83-5,10.67-10.31,13.92-6.77,4.16-14.59,1.92-17.12-7.43A17.74,17.74,0,0,1,152,148Z"/><path class="cls-68" d="M89.79,113.93c-.12.72.3,1.73-.49,2.54-.62.64-1.15.67-1.35-.26-.34-1.59.19-3.15.37-4.73.05-.39.49-.52.9-.47s.57.41.57.8C89.8,112.45,89.79,113.09,89.79,113.93Z"/><path class="cls-69" d="M172.64,143.88a7.19,7.19,0,0,1-3.58,6.36,5.78,5.78,0,0,1-8.67-2.94,8,8,0,0,1,3.5-9.45C168.25,135.44,172.72,138.4,172.64,143.88Z"/></svg>