<svg id="Layer_1" data-name="Layer 1" xmlns="http://www.w3.org/2000/svg" viewBox="0 0 306.91 307"><defs><style>.cls-1{fill:#526dc9;}.cls-2{fill:#5b745e;}.cls-3{fill:#1d5e92;}.cls-4{fill:#0f0703;}.cls-5{fill:#4e8ba9;}.cls-6{fill:#6b4322;}.cls-7{fill:#6c4227;}.cls-8{fill:#6a4328;}.cls-9{fill:#684425;}.cls-10{fill:#091119;}.cls-11{fill:#06121f;}.cls-12{fill:#508aa3;}.cls-13{fill:#090d06;}.cls-14{fill:#727e52;}.cls-15{fill:#758d77;}.cls-16{fill:#7c917c;}.cls-17{fill:#738b75;}.cls-18{fill:#768e79;}.cls-19{fill:#768f78;}.cls-20{fill:#788d79;}.cls-21{fill:#769179;}.cls-22{fill:#7c947e;}.cls-23{fill:#807b2f;}.cls-24{fill:#0a0e06;}.cls-25{fill:#747e4a;}.cls-26{fill:#b0714a;}.cls-27{fill:#f4fcf3;}.cls-28{fill:#9f775c;}.cls-29{fill:#290705;}.cls-30{fill:#f3f8ef;}.cls-31{fill:#b0593d;}.cls-32{fill:#3e0a0a;}.cls-33{fill:#6a8163;}.cls-34{fill:#5d847b;}.cls-35{fill:#5c745e;}.cls-36{fill:#f4fbf3;}.cls-37{fill:#e3e377;}.cls-38{fill:#e2e160;}.cls-39{fill:#e2e074;}.cls-40{fill:#857e22;}.cls-41{fill:#eae54c;}.cls-42{fill:#ebe259;}.cls-43{fill:#867f21;}.cls-44{fill:#f3f8f1;}.cls-45{fill:#d2cf7b;}.cls-46{fill:#e1de83;}.cls-47{fill:#e0db88;}.cls-48{fill:#e6e38d;}.cls-49{fill:#070404;}.cls-50{fill:#986f57;}.cls-51{fill:#b14a4b;}.cls-52{fill:#a34243;}.cls-53{fill:#e04343;}.cls-54{fill:#ece944;}.cls-55{fill:#110d03;}.cls-56{fill:#a5a443;}.cls-57{fill:#a3a543;}.cls-58{fill:#a4a543;}.cls-59{fill:#0b0904;}.cls-60{fill:#a6a244;}.cls-61{fill:#e3e077;}.cls-62{fill:#a5a344;}.cls-63{fill:#8f7f0e;}.cls-64{fill:#8f7f16;}.cls-65{fill:#a4a644;}.cls-66{fill:#a6a344;}.cls-67{fill:#bca02c;}.cls-68{fill:#13120b;}.cls-69{fill:#1b1405;}.cls-70{fill:#dad777;}.cls-71{fill:#dddb79;}.cls-72{fill:#d7d776;}.cls-73{fill:#cccc75;}.cls-74{fill:#d9da7d;}.cls-75{fill:#99800d;}.cls-76{fill:#e1e07a;}.cls-77{fill:#dbd578;}.cls-78{fill:#937e0b;}.cls-79{fill:#94810a;}.cls-80{fill:#e1e07e;}.cls-81{fill:#97860d;}.cls-82{fill:#e3e383;}.cls-83{fill:#9c8c13;}.cls-84{fill:#97890e;}.cls-85{fill:#050505;}.cls-86{fill:#df433e;}.cls-87{fill:#eae44d;}.cls-88{fill:#080b0d;}.cls-89{fill:#d7d574;}.cls-90{fill:#dfde7a;}.cls-91{fill:#dfe07a;}.cls-92{fill:#d1d076;}.cls-93{fill:#d7da7f;}.cls-94{fill:#cbca6d;}.cls-95{fill:#d7d173;}.cls-96{fill:#f2f9f2;}.cls-97{fill:#dddf7b;}.cls-98{fill:#eae64d;}.cls-99{fill:#0c0c06;}.cls-100{fill:#d6d978;}.cls-101{fill:#dbdd77;}.cls-102{fill:#f3faf3;}.cls-103{fill:#7dbfcc;}.cls-104{fill:#82b7c7;}.cls-105{fill:#d5d873;}.cls-106{fill:#ccd071;}</style></defs><path class="cls-1" d="M79.39,19.06A153.09,153.09,0,0,1,118.38,4,147.21,147.21,0,0,1,162.78.33c37,2.35,69.2,16.31,96.21,41.8a150.73,150.73,0,0,1,43.69,75.42,153.05,153.05,0,0,1,4.1,29.92,162.1,162.1,0,0,1-1.18,26.25,1.16,1.16,0,0,1-.92.39c-9.86-.49-19.73-.11-29.59-.21-10.93-.1-21.87,0-32.8,0a22.22,22.22,0,0,1-4.45-.27c-1.76-.38-3.52.23-5.29.31a4.38,4.38,0,0,1-4.86-4.43,12.27,12.27,0,0,1,1-4.87c1-2.72,2.14-5.42,3.18-8.14a7.63,7.63,0,0,0-.1-6.16,17.11,17.11,0,0,1-1.23-11.56,11.39,11.39,0,0,1,2.68-5.13,8.68,8.68,0,0,0,2-5.39A29.36,29.36,0,0,0,233.79,116a14.92,14.92,0,0,1-.13-10.27,32.74,32.74,0,0,0,1.89-8.12,8.61,8.61,0,0,0-1.88-6.1,2.57,2.57,0,0,0-1.53-1.05c-3.78-.75-7.52-1.4-11.19.58a9.06,9.06,0,0,1-4.51.89,34.77,34.77,0,0,0-5.49.28,14.37,14.37,0,0,1-5.75-.78,30.65,30.65,0,0,0-8.61-1.25,68.72,68.72,0,0,0-10.24.31c-1.73.26-3,1.58-4.83,1.6a13.74,13.74,0,0,1-2.72,0c-7-1.34-14-1.32-21-1.19a5.37,5.37,0,0,0-1.49.39,22.3,22.3,0,0,1-13.57,0,30.06,30.06,0,0,0-16.09-.78,35.61,35.61,0,0,1-6.58,1.1A21.61,21.61,0,0,1,111.83,90a11.52,11.52,0,0,0-4.17-.79,31.94,31.94,0,0,1-3.79,0c-3-.25-5.73.89-8.53,1.68-1.54.43-3,1-4.56,1.5a3.32,3.32,0,0,1-2.49-.15c-3.51-1.51-7.09-2.67-11-1.69a3.64,3.64,0,0,1-1.54,0c-3.12-.6-4.8,1.65-6.76,3.35a2.31,2.31,0,0,0-.54,1.42c-.39.76-.7,1.57-1.11,2.32a3.08,3.08,0,0,0-.35,2.65c.76,1.87,1.22,3.94,2.25,5.59a19.41,19.41,0,0,1,2.68,8.22,2.83,2.83,0,0,1-.38,1.81c-2.66,4.47-2.66,9.14-1.22,14,1.14,3.83,2.08,7.74,1.65,11.8a24.86,24.86,0,0,1-1.18,3.92,30.88,30.88,0,0,0-1.09,10c.16,3.39,1.66,6.38,2.13,9.65a20.76,20.76,0,0,1-.47,6.78,2.66,2.66,0,0,1-2.89,2.21,1,1,0,0,1-.17,0c-6.08-.24-12.13.42-18.21.38a88.44,88.44,0,0,0-10.29.25c-2.37.25-4.81-.16-7.19-.17-5.89,0-11.78.32-17.68.27a2.94,2.94,0,0,0-1.14.37,2.15,2.15,0,0,1-.62.08c-2.6-.29-5.21-.08-7.82-.13a14.45,14.45,0,0,1-3.82-.49A69,69,0,0,1,.32,164.08C-1.84,128.42,7,95.76,27.16,66.24A127,127,0,0,1,39.45,50.79a1.23,1.23,0,0,1,.86,1c1,3.55,3,6.65,4.82,9.84A9.71,9.71,0,0,0,47,63.88c1.66,1.59,3.64,2.76,5.4,4.23a8.24,8.24,0,0,0,4.79,1.71,59.63,59.63,0,0,0,20.08-2.08,73.45,73.45,0,0,0,7.63-3.1A9.15,9.15,0,0,0,88.24,62c2.82-3.27,5.55-6.69,6.48-11,1-4.61,1.29-9.3-.59-13.85a38.74,38.74,0,0,1-1.26-4.64,19.56,19.56,0,0,0-5.37-9.23A12.82,12.82,0,0,0,82,20.16,5,5,0,0,1,79.39,19.06Z"/><path class="cls-2" d="M305.26,175.75a133.09,133.09,0,0,1-6.44,27c-13.53,38.72-38.54,67.64-74.64,87a140,140,0,0,1-27.36,11c-1.31-1.93-1-4.2-1.17-6.32-.53-6.39-1.47-12.74-1.9-19.14-.11-1.59-.7-3.12-.6-4.75.11-2,.68-2.69,2.59-2.66,5.78.09,11.55-.35,17.33-.38a50.47,50.47,0,0,0,5.5.09c1.22,0,1.9-.5,1.9-1.85,0-6.65.07-13.31-.06-20-.06-3.59,0-7.19-.24-10.78-.1-1.76.81-2.31,2.39-1.5,5.23,2.63,10.35,2.07,15.31-.63a7.72,7.72,0,0,0,4.31-5.3c.32-1.72,1.35-2.45,2.87-3,5.95-2.18,11.7-4.78,16.56-8.95,3.36-2.87,6.52-5.93,8.12-10.26a9.89,9.89,0,0,0-3.68-11.69,24.18,24.18,0,0,0-12.5-3.86c-1.32-.07-2.64,0-4,0-2-.07-2.39-.43-2.68-2.37a6.74,6.74,0,0,0-.79-2.43c-1.12-2-2.52-2.95-5-2.58-3.28.47-6.64.15-10,.13a2.47,2.47,0,0,1-1.32-.35c-1-1.72-.42-3.5-.19-5.26.07-.54.6-.6,1.09-.6.91,0,1.82,0,2.74,0-1.27.18-2.55,0-3.82.11-.68.08-1.27-.31-.51-1.11a61.85,61.85,0,0,1,12.17-.24c3.35.28,6.74.08,10.11.09,16.92.07,33.83,0,50.74.05C303.2,175.18,304.33,174.94,305.26,175.75Z"/><path class="cls-2" d="M106.19,299.51a144.13,144.13,0,0,1-39.92-19.7q-47.73-33.58-62-90.21c-1.09-4.34-1.88-8.73-2.6-13.14A2.8,2.8,0,0,1,3,176.2c7.1,0,14.2-.32,21.31-.41,7.49-.09,15-.21,22.49-.43q10.74-.3,21.48-.18a4.2,4.2,0,0,1,2,.35,7.89,7.89,0,0,1,.46,5.63c-.53.68-1.27.48-1.91.34-3.81-.82-7.64-.5-11.46-.3a8,8,0,0,0-5,1.64,5.14,5.14,0,0,0-2.06,4c-.08,2.4-.71,3-3.22,2.95a32.62,32.62,0,0,0-12.57,2.45,21.52,21.52,0,0,0-4.16,2.4c-4.45,3.12-4.69,8.88-2.49,12.59a27.51,27.51,0,0,0,7.28,7.92,58.81,58.81,0,0,0,19.43,9.3l.49.13c3.35,1,3.36,1,3.54,4.42.13,2.62,1.69,4.34,3.72,5.67,6.07,4,14,2.79,19.13-2.91a1.58,1.58,0,0,1,.54-.42c.76-.09,1.68-.57,1.86.76a2.66,2.66,0,0,0-1.06,2.56c.07,4.07.26,8.14.43,12.2.26,6.58.73,13.16.58,19.75-.07,2.89.44,3.86,3.73,3.59,5.45-.44,10.89-.15,16.33-.27.86,0,1.72,0,2.58-.08,2-.1,2.4.3,2.5,2.33a40.15,40.15,0,0,1-.4,6c-.66,6.44-1,12.91-1.63,19.36C106.86,298.22,106.91,299,106.19,299.51Z"/><path class="cls-3" d="M79.39,19.06c5.1.61,8.78,3.25,11.48,7.6,1.87,3,2.47,6.32,3.49,9.58A29.35,29.35,0,0,1,96,44a24.34,24.34,0,0,1-5.6,16.37c-2.51,3.23-5.8,4.8-9.41,6.41a46.72,46.72,0,0,1-11.47,3,44.16,44.16,0,0,1-14.19.22,7,7,0,0,1-4.36-2.48A10.18,10.18,0,0,0,48.55,66c-3.29-2.31-4.92-5.77-6.71-9.16a29.08,29.08,0,0,1-2.39-6A140.52,140.52,0,0,1,59.08,32.41,136.8,136.8,0,0,1,79.39,19.06Z"/><path class="cls-2" d="M178.31,304.88a98.73,98.73,0,0,1-13.8,1.71,154,154,0,0,1-38.34-2,6.68,6.68,0,0,1-1-.33,3.14,3.14,0,0,1-.62-2.6c.33-5.49.28-11,.57-16.49.22-4.12.27-8.25.43-12.38.12-3,.55-3.58,3.5-3.57,9.52,0,19-.4,28.55-.44,5,0,10.09-.26,15.13-.26,3.33,0,3.47.13,3.74,3.42.82,9.77,1.45,19.55,2.3,29.31C178.93,302.45,179.19,303.77,178.31,304.88Z"/><path class="cls-4" d="M178.31,304.88c-.11-6-.89-12-1.23-18-.22-3.71-.59-7.42-.88-11.13-.14-1.82-.29-3.65-.36-5.48,0-.86-.32-1.23-1.22-1.21-4.92.11-9.84,0-14.77.26s-9.74.12-14.62.21c-5.78.1-11.57.26-17.35.34-1.18,0-1.6.36-1.63,1.57q-.31,12-.77,24c-.12,2.92-.31,5.83-.26,8.75a2.69,2.69,0,0,1-1.74-.27,3.36,3.36,0,0,1-.59-2.61c.33-4.05.42-8.12.54-12.17.16-5.55.56-11.09.48-16.65,0-1.21-.45-1.79-1.72-1.75s-2.4,0-3.6,0c-1.81.05-2,.2-2,2-.22,5-.55,9.94-1,14.9-.34,3.58-.53,7.18-.71,10.78a7.08,7.08,0,0,1-.35,2.2c-.24.6-.51,1.2-1.36.93l-.59-.13c-1.18-2-.69-4.15-.51-6.21.6-6.78,1-13.57,1.56-20.36a24.47,24.47,0,0,0,0-2.57c0-.95-.33-1.51-1.41-1.49s-1.38.52-1.47,1.47c-.5,5.76-1,11.52-1.36,17.28-.19,2.86-.64,5.69-.81,8.55,0,.77-.18,1.64-1.27,1.73-.36-.1-.79,0-1.06-.34q1-12.57,2.08-25.13c0-.46,0-.92.07-1.37.12-2.66.12-2.63-2.48-2.59-4.64.08-9.29.09-13.93.17-1.77,0-3.54.21-5.32.23-2,0-3.4-.57-3.42-3.24-.07-9.22-.37-18.44-.73-27.66-.08-2.16-.08-4.34-.27-6.51-.12-1.34.43-1.79,1.7-1.48A1.44,1.44,0,0,1,84.4,233c.15,3,0,6.07.07,9.11,0,1.86.31,2.11,2.16,1.87a28.89,28.89,0,0,1,3.94-.2c9.74.07,19.48-.31,29.21-.45,7.43-.1,14.88-.22,22.32-.56a2.77,2.77,0,0,0,2.67-1.94,2.25,2.25,0,0,0-.62-2.76c-2.39-2.6-2.36-2.6-5-.13-1.47,1.36-3,2.69-4.54,3.94a2.5,2.5,0,0,1-3.17.34,103.14,103.14,0,0,1-10.26-7.49c-.36-.61-.66-1.28,0-1.83s1.28-.22,1.88.16a6.54,6.54,0,0,0,.71.45c2.61,1.73,5.12,3.6,7.69,5.39a1.87,1.87,0,0,0,2.81-.26,52.15,52.15,0,0,1,5.66-4.94c1-.8,1.92-2.18,3.4-.69,1.29,1.37,2.49,2.81,3.66,4.28,1.1,1,1.35,2.12.3,3.4a8.12,8.12,0,0,0-.76,1.89c-.44,1.41-1.59,2.4-2.1,3.8-.38,1-1.22.69-1.8-.07s-1.56-.64-2.4-.64c-8,0-15.9.27-23.85.63a13.28,13.28,0,0,1-1.54,0c-.46,0-.91.12-1.37.11-7.17-.2-14.33.29-21.5.34-1.66,0-3.32-.2-5-.09-1.84.11-2.17.45-2.21,2.31-.11,5.79.52,11.56.38,17.35,0,1.7.49,2.05,2.15,2.24,4.18.47,8.35-.26,12.52-.22,7.74.07,15.47-.33,23.2-.47,6.36-.11,12.72,0,19.07-.27s12.83,0,19.23-.38c4.7-.25,9.41.06,14.09-.3,6-.46,11.94.09,17.87-.39,5.21-.43,10.42,0,15.62-.38a44.18,44.18,0,0,1,7.19-.22,6,6,0,0,1,2,.22,1.07,1.07,0,0,1,.57,1.43c-.28.6-.89.37-1.38.4a23.26,23.26,0,0,0-3.91.15c-5.84.15-11.68.31-17.52.44-2.14.05-2.25,0-2.05,2.21.42,4.61,1,9.21,1.45,13.81.54,5.41,1,10.82,1.55,16.22l-1.65.38a2.52,2.52,0,0,1-.65-1.89c-.94-9.13-2-18.25-2.8-27.39a10.41,10.41,0,0,0-.22-1.36c-.13-.6-.33-1.12-1.11-1a1.11,1.11,0,0,0-1,1.21c0,1.09.09,2.17.15,3.26.45,7.78.6,15.58,1.25,23.35.14,1.72.62,3.55-.5,5.18-.58,0-1,.55-1.66.34a1.9,1.9,0,0,1-.62-1.55c-.06-4.75-.61-9.49-.74-14.24-.13-5.1-.49-10.19-.76-15.28-.11-2.11-.43-2.33-2.52-2.35q-1.89,0-3.78,0c-2,0-2.17.22-2,2.24.28,3,.4,5.94.7,8.91.61,6.27.73,12.58,1.31,18.86.09.91.24,1.82.29,2.73a3,3,0,0,1-.56,2.44A1.89,1.89,0,0,1,178.31,304.88Z"/><path class="cls-5" d="M68.06,95.22c0-.39-.08-1,.14-1.16,1.9-1.6,3.22-4.14,6.25-4a25.56,25.56,0,0,0,4.78-.32c3.26-.49,6.21.74,9.11,2a2.94,2.94,0,0,0,2.28.2c2.79-.95,5.6-1.87,8.41-2.81a6.91,6.91,0,0,1,2.35-.4c2.47,0,4.94,0,7.4,0a9.53,9.53,0,0,1,3.13.72c3.58,1.09,7,2.22,11,1.25a37.67,37.67,0,0,1,17.64-.47c2.2.51,4.26,1.52,6.57,1.72a19.08,19.08,0,0,0,7.08-.58,22.64,22.64,0,0,1,5.89-.94,91.4,91.4,0,0,1,19.4,1.32,5.42,5.42,0,0,0,4.68-1.1c1-.86,2.34-.72,3.46-.75,6-.18,11.95-.74,17.81,1.16a12.7,12.7,0,0,0,6.58.52c2.34-.46,4.82.28,7.17-.43,1.76-.52,3.5-1.09,5.22-1.69a6.58,6.58,0,0,1,4.38,0,5,5,0,0,0,2.16.46c2.64-.43,3.54,1.46,4.35,3.26,1.41,3.12.71,6.3-.18,9.38-1.37,4.72-2.59,9.27-.54,14.24,1.58,3.84,1.54,8.13,1,12.22a9.14,9.14,0,0,1-2.66,5.91,9.2,9.2,0,0,0-2.35,5.77,17.71,17.71,0,0,0,2,10.28,5.61,5.61,0,0,1,.18,4.53c-1.2,3-2.31,6-3.5,9-.85,2.1-2,4.5-.62,6.91.81,1.39,1.63,2.56,3.75,2.12,2.49-.52,5.08-.21,7.65-.16,9.12.21,18.25.08,27.37.08q17.61,0,35.21,0a25.77,25.77,0,0,1,2.89.31,2.08,2.08,0,0,1-.22,1.65,6.85,6.85,0,0,0-3.83-.64H232.7c-1,0-2.07,0-3.09,0-2-.15-2.57-1.61-2.82-3.18a14.35,14.35,0,0,1,.86-8.08c.9-2.11,2-4.14,2.85-6.24a7.52,7.52,0,0,0,0-5.67c-2.21-6.5-2.49-12.9,1.68-18.82.79-1.13.93-2.44,1.52-3.6,1-2,.67-4,.39-6a31,31,0,0,0-2.05-8.41c-1-2.21-.58-4.72-.46-7.12a2.25,2.25,0,0,1,.19-.57A21.09,21.09,0,0,0,234.5,97a6.13,6.13,0,0,0-6.05-6.15A17.21,17.21,0,0,0,221,92a24.56,24.56,0,0,1-11.5,1.12c-5.71-.59-11.25-2.6-17.08-2.19-2.88.21-5.77.37-8.51,1.68-1.88.9-4.09.48-6.12.28a130.92,130.92,0,0,0-15.21-1,33.19,33.19,0,0,0-7.44.81,23.06,23.06,0,0,1-12-.23,37.47,37.47,0,0,0-12.19-1.58c-2.75.15-5.38,1-8.08,1.42a17.45,17.45,0,0,1-9.64-.68c-5-2-10-1.7-15-.62a3.87,3.87,0,0,1-.67.1c-1.75-.49-3,.9-4.47,1.28a2.6,2.6,0,0,1-.49.18,8.19,8.19,0,0,1-6.33-.46,10.69,10.69,0,0,0-5.95-1.25c-1.37.08-2.75.05-4.12,0a6.65,6.65,0,0,0-5.38,2.17,22.23,22.23,0,0,0-1.87,1.76,1.5,1.5,0,0,1-.33.42A.42.42,0,0,1,68.06,95.22Z"/><path class="cls-6" d="M180,304.59c-.27-3.94-.41-7.89-.84-11.8-.26-2.4-.18-4.79-.44-7.19-.55-5.11-.75-10.26-1.18-15.38-.09-1.08.15-1.43,1.23-1.41,2.29,0,4.59,0,6.88,0,.83,0,1.25.24,1.3,1.15.15,2.51.45,5,.57,7.52.29,6,.42,12,.8,18,.16,2.46.28,4.91.34,7.37A49.08,49.08,0,0,1,180,304.59Z"/><path class="cls-7" d="M113.1,301.58c1.24-.42,1-1.59,1.05-2.44.15-7.32,1.2-14.58,1.52-21.89.08-1.82.29-3.65.27-5.48,0-1.16.41-1.66,1.61-1.63,1.83.05,3.67.06,5.5,0,1.26-.07,1.55.47,1.52,1.62-.18,6.28-.32,12.57-.67,18.86-.25,4.45-.29,8.92-.42,13.38A76.89,76.89,0,0,1,113.1,301.58Z"/><path class="cls-8" d="M190.29,302.49c.07-6-.66-11.88-.91-17.83q-.23-5.24-.46-10.47c0-1-.08-2.06-.2-3.08-.18-1.44.18-2.25,1.83-2.42,1.13-.12,1.41.18,1.51,1.19.54,5.64,1.09,11.28,1.72,16.9.53,4.78,1.11,9.55,1.39,14.35A26.56,26.56,0,0,1,190.29,302.49Z"/><path class="cls-9" d="M107.25,299.85c.7-.5.67-1.26.73-2q1-12,2-24.08a11,11,0,0,0,.06-1.72c-.11-1.4.44-1.93,1.88-1.89,2.34.08,2.4,0,2.28,2.38-.36,7.53-1,15.05-1.63,22.56-.19,2.11-.07,4.24-.08,6.36Z"/><path class="cls-10" d="M229.14,174.17c17-.3,34-.06,50.94-.12,7.92,0,15.84,0,23.76,0,.94,0,1.76,0,1.54,1.33l-.12.38q-26.82,0-53.64,0c-6,0-12-.1-18-.21-1.57,0-3.15.76-4.72,0C228.42,174.93,228.58,174.51,229.14,174.17Z"/><path class="cls-11" d="M70.45,175.79c-6.53,0-13.07,0-19.61.24-5.49.22-11,.12-16.49.19-7.67.1-15.35.14-23,.4-2.63.08-5.26.11-7.9.2a2.27,2.27,0,0,1-1.8-.36l0-1a1.18,1.18,0,0,1,.76-.38c3.65.19,7.3-.48,11,0a.33.33,0,0,0,.32,0,3.43,3.43,0,0,1,1.84-.32c4.47,0,8.93,0,13.4-.33,2.69-.19,5.38.27,8.07.15,9.72-.41,19.44-.33,29.16-.54a28.53,28.53,0,0,0,4.61-.34,1.13,1.13,0,0,1,.91.78C71.61,175.26,71.43,175.88,70.45,175.79Z"/><path class="cls-12" d="M13.31,175.11l-11.71.36-.06-.68c2.53-.35,5.06.08,7.6,0C10.52,174.77,12,174.4,13.31,175.11Z"/><path class="cls-12" d="M71.15,174.12,50,174.47c-8.35.13-16.71.15-25.06.44-3.77.13-7.54.17-11.32.18.41-.76,1.13-.66,1.81-.66,2.35,0,4.7,0,7,0a47.55,47.55,0,0,0,6.85-.33c2.23-.3,4.44.44,6.66.31,6.81-.4,13.63-.1,20.42-.42,3.95-.18,7.89-.2,11.84-.22a2.57,2.57,0,0,0,2.8-2.4,19.67,19.67,0,0,0-.94-10.76,21.56,21.56,0,0,1-.87-9.58c.27-3,1.33-5.85,2.07-8.75.8-3.08.06-6.35-.78-9.48-.66-2.46-1.57-4.94-1.66-7.44-.12-3.31,0-6.76,2.21-9.61,1-1.22,0-2.44,0-3.63A8.9,8.9,0,0,0,68.41,106a1.26,1.26,0,0,1-.33-.93,4.28,4.28,0,0,0-1.28-3.31,4,4,0,0,1-.25-4.08,19.67,19.67,0,0,1,1.51-2.47h.35c.62.64.36,1.4.26,2.12a11.66,11.66,0,0,0,1.8,8.48A15.52,15.52,0,0,1,73,113.56c.11,1.74-.81,3.21-1.48,4.68-1.76,3.85-1.47,7.64-.19,11.51.73,2.22,1.14,4.54,1.66,6.82.47,3.6-.55,7-1.56,10.36a20.79,20.79,0,0,0,.47,14c1.29,3.71,1.15,7.52.75,11.35C72.55,173.22,72.23,174,71.15,174.12Z"/><path class="cls-13" d="M213.39,268.07c1.33-.65,2.75-.19,4.12-.3,1-.08,1.27-.38.69-1.24.14-.55.63-.66,1.05-.86.77-.16.76-.8.75-1.35-.08-3,.39-6-.45-9-.5-1.76,0-3.62.1-5.42.07-1.31,0-2.62.12-3.92a3.84,3.84,0,0,0-1-3.27,1.55,1.55,0,0,1-.08-.6c.15-2.45,0-4.9.08-7.34a4.34,4.34,0,0,1,.24-2c.73-.92,1.86-.49,2.77-.81a3.36,3.36,0,0,1,1.81.42,14.85,14.85,0,0,0,14-1.17,5.86,5.86,0,0,0,3.25-5.14c0-1.6,1.06-2.14,2.33-2.54a54.57,54.57,0,0,0,12.62-5.77c4.24-2.67,8.18-5.71,11-10,2.59-4,2.79-7.8.44-10.88a12.81,12.81,0,0,0-6.28-4,37.91,37.91,0,0,0-6.85-1.52c-1.68-.47-3.4-.19-5.1-.22-1.14,0-1.3,1.38-.33,2.68,3.14.73,6.34,1.24,9.29,2.65.85.67,1.86,1.11,2.66,1.87a5.88,5.88,0,0,1,1.55,6.6c-.92,2.83-3.1,4.64-5.3,6.38a46,46,0,0,1-10.71,6.1c-.79.34-1.55.76-2.32,1.13-1.07.42-2.13.84-3.17,1.32-2,.95-3.16.38-3.58-1.81a5.1,5.1,0,0,0-1.83-3.57,2.26,2.26,0,0,0-3.21.39c-.53.79-.26,1.46.69,1.57.74.08,1.58-.06,1.72,1a1.93,1.93,0,0,1-1.21,1.92,9.23,9.23,0,0,1-6,1,1.28,1.28,0,0,1-1.26-1.2c0-.85.55-1.2,1.28-1.36.23-.05.46-.06.68-.09.39-.05.89,0,1-.48s-.26-.73-.53-1-.77-.69-1.14-1.05c-.62-.68-1.46-1.33-.4-2.3a12.06,12.06,0,0,0,5.56-1.45c2.39-1.09,5.34.74,6.59,3.58.93,2.11,1,2.23,3.11,1.27,5.43-2.44,11-4.75,15.25-9.1,3.65-3.71,3-6.65-1.75-8.64a29.33,29.33,0,0,0-5.09-1.56c-1.88-.41-2.18-.25-2.77,1.54a13.11,13.11,0,0,1-1.63,3.21,6.62,6.62,0,0,1-6.89,3.1c-4.14-.52-8.32-.85-12.48-1.22-1-.09-2.1-.15-2.53-1.37a1.13,1.13,0,0,1,.92-1.32c3.45-.23,6.84.47,10.26.73,1.49.11,3,.22,4.45.44a3.59,3.59,0,0,0,3.61-1.53,9.21,9.21,0,0,0,1.54-2.86,21.5,21.5,0,0,0,.31-10.05c-.49-2.92-2.06-3.88-5.08-3.55a75.63,75.63,0,0,1-8.24.28,3.72,3.72,0,0,1-2.33-.45,1.39,1.39,0,0,1-.19-1.73.39.39,0,0,1,.54-.12,115.34,115.34,0,0,0,12.19-.25c2.4-.23,5.32,2.56,5.36,5.48,0,1.83.79,2,2.29,2,4.85-.17,9.61.33,14.05,2.49,5.4,2.62,7.62,6.11,7,11.7-.42,3.65-2.61,6.52-5.07,9.14-5.74,6.12-12.93,9.86-20.73,12.6-1.25.43-2.1,1-2.28,2.51-.3,2.67-2.19,4.44-4.37,5.62-5.39,2.93-10.93,3.53-16.55.47-1.26-.69-1.13.34-1.12,1,0,4.45.16,8.9.19,13.35,0,6,0,11.93.08,17.89,0,1.56-.45,2.21-2.06,2.11C217.07,268,215.23,268.09,213.39,268.07Z"/><path class="cls-14" d="M229.92,182l-.14.05-.15,0c-.59.32.18,1.52-.75,1.44s-.57-1.06-.67-1.68c-.26-1.69,0-3.42-.43-5.09a5.34,5.34,0,0,0-1.31-2.54,10.94,10.94,0,0,1-1-6.69,22,22,0,0,1,3-8.69c1.26-1.93,1.13-4.21.68-6.35a64.63,64.63,0,0,1-1.37-7.61c-.34-3.75.59-7.4,1.66-11a2.75,2.75,0,0,1,1-1.38c1.86-1.42,2.42-3.48,2.56-5.62a20.65,20.65,0,0,0-1.33-8.21c-1-2.9-2.25-5.94-1.94-9.11a7.56,7.56,0,0,1,3.14-5.77c.69.59.2,1.17-.08,1.68a11.11,11.11,0,0,0-.87,1.85h0a20.56,20.56,0,0,0,.7,8.87c1.42,4.25,2.53,8.62,1.37,13.18-.45,2.73-2.28,4.78-3.53,7.1a9,9,0,0,0-.79,3.3,25.43,25.43,0,0,0,.66,10.35c.4,1.39,1.18,2.62,1.3,4.18.15,1.93-.84,3.36-1.53,4.93-1.59,3.58-3.64,7-3,11.18.22,1.47.17,3.14,2,3.79a1.88,1.88,0,0,0-.25,1.31c.18.95.94.66,1.51.67a17.37,17.37,0,0,0,4.76-.33l0,.68c-1.27,0-2.54.06-3.8,0s-1.64.36-1.46,1.48C230.13,179.31,229.51,180.66,229.92,182Z"/><path class="cls-15" d="M261.75,178.24a3,3,0,0,0,.1,2c.24.85.06,1.72-.86,2a2.2,2.2,0,0,1-2.42-.72c-.22-.29-.13-.75-.73-.74s-1.49-.28-1.3-1.15.17-2.09,1.7-1.79c.63.12,1-.55,1.5-.74C260.84,176.66,261.8,177.2,261.75,178.24Z"/><path class="cls-16" d="M252.82,182.29c-1.14,0-1.93-1.36-1.83-3.06a2.54,2.54,0,0,1,3-2.34c1.29.15,1.53,1.41,1.58,2.28A2.91,2.91,0,0,1,252.82,182.29Z"/><path class="cls-17" d="M276.41,177.33c.56.24-.24,1,.36,1.12s.54-.6.86-.83c1-.79,1.77.25,2,.79a3.69,3.69,0,0,1-.27,3.46.78.78,0,0,1-1,.36c-.43-.19-.39-.5-.16-.83s.26-.55-.11-.68-.55.11-.68.39a1.32,1.32,0,0,1-2,.73c-1-.45-.68-1.23-.56-2C275,178.71,274.88,177.53,276.41,177.33Z"/><path class="cls-18" d="M294.94,182.09c-1.88.82-1.41-.74-1.51-1.59a14.79,14.79,0,0,1,.17-1.85c0-1.05,0-2.09,1.4-.84.47.42.68-.17,1-.36a1,1,0,0,1,1.37.18c.38.36.74.66.32,1.29a1.64,1.64,0,0,0,.22,2.05c.18.23.29.55,0,.78s-.5,0-.7-.19-.35-.45-.47-.08C296.42,182.54,295.7,182.31,294.94,182.09Z"/><path class="cls-19" d="M266.29,178.62c-.16.85-.62,1.54-.8,2.29-.24,1-.83.82-1.54.78-.89-.06-1-.56-1-1.26a12,12,0,0,0-.1-1.7c-.05-.39.12-.89.34-.85,1.23.21,2.15-.91,3.35-.67.36.07.71.22.77.58a23.08,23.08,0,0,1,.44,3.19,1.08,1.08,0,0,1-1.35,1.15c-.74-.26,0-.82.17-1.22C267,180.08,266.06,179.42,266.29,178.62Z"/><path class="cls-20" d="M273.34,181.71c-.46.27-1-.21-1.57.25-.95.83-1.67.2-2.31-.54a1.32,1.32,0,0,1,.21-2.18.72.72,0,0,0,.37-.72c-.09-.4-1.25-.35-.49-1.08.45-.43,1,.18,1.47.08.33-.07.66-.15,1-.2,1.11-.17,1.28,0,.84,1.05a.51.51,0,0,0,.09.6c.39.45,1.92.78.07,1.46C272.5,180.61,273.71,181.1,273.34,181.71Z"/><path class="cls-21" d="M303.83,179.58a10,10,0,0,0-.21,1.26c0,.65,0,1.33-.85,1.45a1.43,1.43,0,0,1-1.67-1.14c-.13-.72-.14-1-.83-.48-.51.38-.82.11-1.11-.32a1.92,1.92,0,0,1,0-1.94c.25-.61.65-.51,1.11-.33.29.11.73.46.88,0a1.37,1.37,0,0,1,1.93-.87c1,.32.31,1.44.74,2.08C303.85,179.43,303.82,179.56,303.83,179.58Z"/><path class="cls-22" d="M248.73,177.87c.9-.06,1.65.25,1.46,1.32s-.08,2.63-1.78,2.66c-1.15,0-1.63-.8-1.64-2C246.76,178.54,247.29,177.81,248.73,177.87Z"/><path class="cls-23" d="M226.82,174.07c1.41,1,1.65,2.59,1.68,4.12,0,1.68.51,3.32.17,5.06.78-.2.36-1.06,1-1.22l-.06,1.7c0,.08,0,.16,0,.24a36,36,0,0,0-1.93,4.89c-.74,2.27-1.79,4.42-2.41,6.74a9.55,9.55,0,0,0-.14,5.65c-.57.14-.6.6-.62,1.06a11.85,11.85,0,0,1,3.46,7.6c.09,1.2,0,2.28-1.06,3-.9,1,.37,1.22.6,1.82-2.61,2.3-2.57,5.57-3.17,8.61-.45,2.31-.21,4.81-1.83,6.81-.6.31-.68.89-.75,1.48-.75.4-1.72.27-2.35,1,0,2.66,0,5.32,0,8,0,.6.22,1.26-.35,1.76a.82.82,0,0,1-.41-.39c-.52-2.21-.24-4.45-.22-6.67,0-1.52-.47-2.14-2-2.24a24.54,24.54,0,0,1-7-1.61,9.51,9.51,0,0,0-6.21,0c-2,.6-4,1.33-6,2.12a17.69,17.69,0,0,1-16.17-1.23c-.47-.54-.82-1.41-1.72-.43a.85.85,0,0,1-1.21,0c-2.64-.87-5.32-.52-8-.18-3.19.4-6.29,1.27-9.46,1.8a1.54,1.54,0,0,1-1-.25,1.78,1.78,0,0,0-2.64.44c-.34.43-.7.93-1.4.63a4.57,4.57,0,0,0-3.32-.48c-3.12.62-6.1-.4-9.15-.54-1.41-1.68-2,.46-3,.66a2.38,2.38,0,0,0-1.9-1.2c-2.21-.22-4.42-.57-6.62-.8a10.31,10.31,0,0,0-7.92,2c-.46.08-.7-.27-1-.54s-.81-.66-1.33-.39c-.68.35,0,.87-.09,1.31a14.66,14.66,0,0,1-14,.31,7.51,7.51,0,0,0-2.8-.77,8.89,8.89,0,0,1-3-.71c-1.57-.66-3.13-.25-4.72.09a24.22,24.22,0,0,1-12.89-.39c0-.33,0-.66,0-1-.64-.57-1.41-.25-2.13-.3-.72.14-1.4.65-2.18.24a9,9,0,0,0-1.64-2.46c-1.2-2.09-.83-4.33-.59-6.54a18.14,18.14,0,0,1,.51-2.18c.45-1.8.55-3.52-.94-4.95-.09-.61.53-.83.71-1.29a.72.72,0,0,0-.14-.79c-2.13-2.09-2.53-5-3.83-7.56a2.28,2.28,0,0,1,.1-1.84,13.7,13.7,0,0,0,.74-3.16c.55-1.1-.61-1.15-1-1.66.07-.73.69-.87,1.19-1.16.56-2.91-.29-5.6-1.11-8.34-1.16-3.86-3-7.58-2.59-11.8a7.94,7.94,0,0,1,1.1-3.39c.27-.46.58-.88,1.23-.69a1.63,1.63,0,0,1,.12,1.47,12.4,12.4,0,0,0,.88,8.93,6.17,6.17,0,0,1,.61,1.94,3.19,3.19,0,0,0,1.43,2.22c1.35,2,1.61,4.38,1.9,6.71.4,3.23-.43,6.38-.77,9.56a3.93,3.93,0,0,0,.79,3,21.29,21.29,0,0,1,3.52,8.16,10.66,10.66,0,0,1-.17,5.6c-1.57,5.21-.25,7.2,5.13,7.93a27.17,27.17,0,0,0,10.59-.34,11.63,11.63,0,0,1,5.76.26,68.84,68.84,0,0,1,7.7,2.31,9.22,9.22,0,0,0,7.36-.26,64.28,64.28,0,0,1,7.07-2.7,16.71,16.71,0,0,1,8.13-.54c3.9.64,7.86,1,11.75,1.66,6.64,1.19,13.12.08,19.57-1.28a57.27,57.27,0,0,1,14.54-1.1,9.9,9.9,0,0,1,4.47,1.66,13,13,0,0,0,10.94,1c1.69-.55,3.36-1.17,5-1.84a16.56,16.56,0,0,1,11.76-.43c1.36.44,2.79.65,4.18,1,1.77.44,2.87-.35,3.76-1.69a6.64,6.64,0,0,0,1-3.24,28.4,28.4,0,0,1,3.17-11.69,3.71,3.71,0,0,0,.24-3.15,28.87,28.87,0,0,0-1.46-3.49c-2.42-4.68-1.58-9.35,0-14a2.23,2.23,0,0,1,.81-1.09,8.32,8.32,0,0,0,3-4.55,19.36,19.36,0,0,0,.4-10.3C226.48,175.2,226.26,174.6,226.82,174.07Z"/><path class="cls-24" d="M73.6,199.49c.53.16,1.11-.61,1.58,0s-.08,1-.28,1.43a1.92,1.92,0,0,1-1.37,1.2c-4.57,1.28-9.1,2.88-13.92,2.75A12.44,12.44,0,0,1,52.92,203c-1.77-1.17-2.5-2.92-3.09-4.81s-1-2-2.75-1.71A10,10,0,0,0,41,199.33a3.5,3.5,0,0,0-.83,3.94c1.13,2.94,3.4,4.87,5.84,6.59a38.55,38.55,0,0,0,11.66,5.38,2.15,2.15,0,0,0,2.77-1c2.32-3.45,5.23-4.39,9.26-3a14.26,14.26,0,0,0,4.67.92c2.25,0,3.41,1,3.59,2.55.06.75-.51.59-.94.65-.73.35-1.33-.08-1.93-.36s-1.42-.49-2,.21a1.38,1.38,0,0,0-.35,1.57A1.71,1.71,0,0,0,74.43,218c.77-.07,1.58-.18,1.77.81s-.56,1.54-1.38,1.89c-1.66.72-6.08-.5-7.1-1.94-.67-1-.18-1.53,1.49-1.77,1.27-1.12,1.15-2.69-.27-3.33a4.67,4.67,0,0,0-6.31,2c-.37.65-.58,1.38-1,2a2.11,2.11,0,0,1-1.46.62A37.62,37.62,0,0,1,44.58,212c-2.57-1.83-5-3.81-6.39-6.79-1.74-3.62-.76-7.27,2.7-9.32a14,14,0,0,1,6.32-2c1.23-.07,1.78-.51,1.73-1.75-.06-1.45-1.13-1-1.89-1a21.1,21.1,0,0,0-4.75.54c-4,.6-7.86,1.6-11.08,4.23-3.49,2.87-4.21,6.13-2.17,10.24a20.6,20.6,0,0,0,6.23,7.24,59.8,59.8,0,0,0,23.14,10.48c1.32.3,1.82.87,1.61,2.27a6.47,6.47,0,0,0,1.37,5.64c2.7,3,9,5.36,13.61,2.66,1.53-.9,3-2.09,4.8-2.46.6-.44,1.13-1.21,2-.33-.14,2.05-2,2.61-3.31,3.39-5.08,3-10.32,3.58-15.64.48-2.94-1.72-5.05-4-4.78-7.66.1-1.33-.28-2-1.71-2.36a64.28,64.28,0,0,1-17.65-7.29c-4.34-2.73-8.31-5.87-11.08-10.31-3.53-5.65-1.51-12,4.95-15.34a32,32,0,0,1,14.61-3.35c2.52,0,2.63,0,2.6-2.42a5.76,5.76,0,0,1,4.84-5.67c5.26-.81,10.58-1.19,15.83.3a.89.89,0,0,1,.85,1c-.06.53-.54.65-1,.72s-.77,0-1.16.07a42.71,42.71,0,0,0-12.47-.33c-3.36.45-4.6,1.82-4.95,5.2a21.79,21.79,0,0,0,.87,10,5.4,5.4,0,0,0,4.58,3.86,16,16,0,0,0,6,0c3.17-.72,6.47-1,9.48-2.34A1.29,1.29,0,0,1,73.6,199.49Z"/><path class="cls-25" d="M69.11,182.72a4.86,4.86,0,0,1,.66,0c.39,0,.86.23,1.12-.14.35-.53-.29-.77-.47-1.15.36-1.87-.46-3.75,0-5.61.52-.17.63-.7.94-1a6.07,6.07,0,0,0,1.18-3.82,26.58,26.58,0,0,0-.57-8.67,8.28,8.28,0,0,0-.68-1.94,22,22,0,0,1,.36-14.77c.35-.93.13-2.06.82-2.92.75-1.9.25-3.87.32-5.82a5.44,5.44,0,0,1-.15-.54c-.61-3.4-1.93-6.64-2.41-10.06-.35-2.5-.39-5,.89-7.34a10.11,10.11,0,0,0,1.12-8.33,1.52,1.52,0,0,1,0-1c.77-.14.77-.14,1.55,1.33a5.8,5.8,0,0,1,.4,1c.3,1.26-.36,2.44-.27,3.69a3.21,3.21,0,0,1-.11.52,22.77,22.77,0,0,1-1.09,3.3c-2.24,3.1-1.3,6.37-.47,9.6.44,1.72.79,3.47,1.33,5.16,1.36,4.25.74,8.39-.56,12.51A21.73,21.73,0,0,0,73,160.32a30.39,30.39,0,0,1,1,11.92,2.29,2.29,0,0,1-.81,1.83A6.35,6.35,0,0,0,71.48,178c-.39,4.1,1.33,7.75,2.44,11.51.68,2.3,1.57,4.52,1.38,7a2.24,2.24,0,0,0,.29,1.48c.61.95-.12.87-.72.89a1.83,1.83,0,0,1-.44-1.26c.12-4.45-1.86-8.4-3-12.54a1.78,1.78,0,0,0-1.34-1.4C69.64,183.54,69.06,183.43,69.11,182.72Z"/><path class="cls-26" d="M114.89,245.69q13.55-.57,27.09-.61c1,0,1.35.37,1.14,1.32-.16,1.39-1.15,1.53-2.26,1.53H127.1c-.51,0-1,0-1.54,0-.35,0-.78,0-1,.26-1.1,1.49-.58,3.19-.46,4.79.08,1.05,1.16,1.14,2,1.15q6.18.06,12.38,0a5.28,5.28,0,0,1,3.62,1.28c2.3,1.89,4.85,3.46,7.09,5.44a4.91,4.91,0,0,0,3.08.86c1.19.44,2-.32,2.74-1a18.3,18.3,0,0,1,5.24-3.82,2.16,2.16,0,0,0,1.13-1.43,2.36,2.36,0,0,1,2.33-1.67c4.56-.23,9.11-.43,13.66-.22a1.22,1.22,0,0,0,1.39-.74c.64-1.71,1.21-3.43.06-5.2-1-1.6-.5-2.75,1.39-2.73,2.51,0,5-.14,7.54,0a3.33,3.33,0,0,1,1.48.42c.74.39,1.06,1.07.38,1.65a3.4,3.4,0,0,0-1,4.41,2,2,0,0,1,0,.69c-.06,1.65.62,2.46,2.18,2.46,2.18,0,4.38.34,6.5.2,2.81-.18,5.67.1,8.47-.74a11,11,0,0,1,5.29,0,1.29,1.29,0,0,0,1.51-.44,6.19,6.19,0,0,0,.53-6.26c-.45-.76-.92-1.34-1.89-.69a2.18,2.18,0,0,1-1.17.24c-5.83.22-11.67.51-17.51.36a4.86,4.86,0,0,1-.85-.06c-.54-.09-1.06-.32-1.11-.91s.44-.89.91-1.13a3.1,3.1,0,0,1,1.34-.25c2.05,0,4.08-.3,6.11-.55a37.18,37.18,0,0,1,7.68,0c2.86-.18,5.72-.13,8.58-.13s3.89.68,4.06,3.6a55.71,55.71,0,0,1-.08,10.65c-.25,1.86-.42,3.7-.55,5.57a1.93,1.93,0,0,1-2.07,2c-6.45.24-12.89.51-19.35.4-2.62,0-5.27.15-7.9.25-3.08.12-6.18,0-9.26.07-3.45.13-6.88.5-10.33.48-5.31,0-10.63-.08-15.95,0-9.49.22-19,.26-28.49.63-3,.12-6.06.12-9.09.16-5.9.08-11.79.28-17.69.27-2.61,0-5.23.51-7.86.47a11.67,11.67,0,0,1-2.56-.28c-2.38-.58-3.21-1.5-3.17-4,.06-4.64-.24-9.27-.22-13.9,0-1.53-.13-3.18,1.67-3.75s3.63-.72,5.07.93a11.3,11.3,0,0,1,0,4.56,4.21,4.21,0,0,0,.2,2.67,13.37,13.37,0,0,0,6.14.95c2.63-.19,5.26-.17,7.88-.17,2.23,0,4.42-.33,6.63-.49s2.81-1.18,2.73-3.29c-.06-1.58.13-3.18-.6-4.71A1.2,1.2,0,0,1,114.89,245.69Z"/><path class="cls-27" d="M83.91,232.92c.3-.17.57-.39,1-.29a24.55,24.55,0,0,0,13.17-.2,4.8,4.8,0,0,1,4.29.53.59.59,0,0,0,.3.16c3.32-.17,6,2,9.18,2.46a11.46,11.46,0,0,0,7.79-1.08,1.75,1.75,0,0,1,1.75-.11c3.25,2.32,6.52,4.59,9.72,7,1.31,1,2.28,1.13,3.54-.15,2-2,4.16-3.76,6.23-5.65.71-.65,1.27-.87,1.93.08a7.11,7.11,0,0,0,1.51,1.63c1.65,1.25,1.75,2.57.83,4.42a2.6,2.6,0,0,1-2.67,1.73Q114,244,85.55,244.58c-1.07,0-1.56-.14-1.55-1.36C84,239.79,83.71,236.36,83.91,232.92Z"/><path class="cls-28" d="M114.89,245.69c-.07,2.27.94,4.38.78,6.71a3.5,3.5,0,0,1-3,3.54c-5.31.69-10.67.28-16,.67-1.8.12-3.66-.56-5.49-.88a2.33,2.33,0,0,1,1.73-.62c5.36-.42,10.75-.44,16.12-.71.23,0,.46,0,.69,0,4.35-.11,4.58-.39,4.26-4.68-.09-1.2-.55-1.49-1.73-1.47-6,.09-12,.41-18,.47-.89,0-1.85.17-2.6-.56-1-.39-1.85-1.08-3.16-1-2.66.16-3.15.43-3.14,3,0,4.79,0,9.59.08,14.38,0,2.57,1.64,3.85,5,3.86a54,54,0,0,0,6.61-.37,60.25,60.25,0,0,1,6.43-.28c4,0,7.92.05,11.88,0,2.56-.06,5.11-.38,7.68-.51.89-.05,1.8.18,2.7.18,6.47,0,13-.24,19.41-.44,4.63-.15,9.28-.33,13.9-.16,4,.15,8.07,0,12.1.26a3.22,3.22,0,0,0,2.46-.48.94.94,0,0,1,.65-.17c4.57.73,9.13-.38,13.72-.14,2.9.16,5.91-.41,8.82-.16,4.69.41,9.33-.42,14-.07a46.09,46.09,0,0,0,6-.36c1.05-.06,1.49-.67,1.53-1.69.18-4.82,1.05-9.62.71-14.48a16.62,16.62,0,0,0-.54-3.34c-.35-1.22-.9-1.57-2-1.5-3,.19-6.07-.32-9.08.32a.75.75,0,0,1-.76-.31,1.15,1.15,0,0,1,.67-.74c3.6-1,7.28-.56,10.93-.48,1.17,0,1.67.82,1.66,2,0,1.71,0,3.43-.1,5.14-.27,4.35.49,8.68.23,13a3.88,3.88,0,0,1-.52,2.47l-1.16.46c-5.68-.24-11.34.21-17,.27-7.22.08-14.45.23-21.68.37-10.38.2-20.76.29-31.14.66-6.25.22-12.5.2-18.75.35-11,.27-21.9.45-32.85.68-3.44.07-6.88.12-10.31.31-1.34.07-1.74-.52-1.77-1.65-.05-1.66-.06-3.33-.1-5-.13-5-.25-10-.41-15,0-1,.19-1.49,1.3-1.48C95.28,246.17,105.08,245.5,114.89,245.69Z"/><path class="cls-29" d="M152.36,262.21a4.94,4.94,0,0,1-4.08-1.3c-2.26-1.92-4.68-3.67-7-5.5a3.6,3.6,0,0,0-2.36-.81c-4.3,0-8.6,0-12.91,0-2.53,0-2.56-.09-2.5-2.64.11-5-.43-4.42,4.64-4.42,4.24,0,8.49,0,12.73,0a2.19,2.19,0,0,0,2.26-1.14c.33.35.87.46.92,0,.18-1.69,1.64-2.65,2.17-4.11a.94.94,0,0,1,.53.79,8,8,0,0,1-.94,2.31c-.59,1.17-1,2.4-1.61,3.58-.24.48-.43,1.32-1.31.69a1.77,1.77,0,0,0-1.95-1.3c-4.59,0-9.18,0-13.76,0-2.36,0-3.59,2.11-2.62,4.31a1.18,1.18,0,0,0,1.27.68c4.36-.14,8.7.41,13.06.34,1.13,0,2-.23,2.08-1.66a2.73,2.73,0,0,1,1.7-2.23c1.2.16.7.91.48,1.51-.83,2.3-.82,2.28,1.16,3.7s3.81,2.93,5.71,4.4a1.44,1.44,0,0,0,2,.1,49.4,49.4,0,0,0,5.09-3.79c2-1.53,1.94-1.6.94-3.93-1.68-3.92-3.34-7.86-4.79-11.88a.9.9,0,0,1,.18-.44c.71-.2,1.27.64,2,.29a2,2,0,0,1,1,2.33,2,2,0,0,0,.95,2.83c.44.22,1,.22,1.23.81.73,1.52,2.16,1.17,3.32,1,4.67-.51,9.35-.18,14-.28a7,7,0,0,1,1.71.1c.7.17,1.35.41,1.1,1.37-.74.67-1.52.07-2.27,0-5.48-.26-10.94.42-16.42.35-1,0-1.21.44-.88,1.3.16.43.27.87.41,1.31.73,2.25.73,2.25,3.15,2.13a4.16,4.16,0,0,1,2.18.26c.62.59.19.84-.35.76a3,3,0,0,0-3.51,1.93c-.5,1-1.83,1.31-2.73,2-1.36,1-2.6,2.22-4,3.22A4.91,4.91,0,0,1,152.36,262.21Z"/><path class="cls-30" d="M123.72,234c-.46-.71,0-.95.56-1.23a13,13,0,0,1,7.32-1.33q3.9.59,7.81,1c1.19.13,1.46.57.75,1.55-2.14,1.88-4.31,3.71-6.39,5.65a1.29,1.29,0,0,1-2,.11C129.12,237.79,126.41,235.92,123.72,234Z"/><path class="cls-31" d="M143.11,233.33c1.32-.71,2.66-.36,4-.05,2.44.59,4.88-.06,7.32,0,.66,0,1.46-.16,1.46.92.19,1.9-.84,3.08-2.38,3.95a21,21,0,0,1-4.69.18,2.55,2.55,0,0,1-2.22-.94Z"/><path class="cls-32" d="M146.59,237.43c1.67.82,3.44.22,5.16.32.68,0,1.36,0,2,0a3.8,3.8,0,0,1-.25,1.76l-.1,0A2.88,2.88,0,0,1,151,240c-1.85-.16-3.27.27-3.84,2.25a1,1,0,0,1-.69.71l-.24-.71c.14-.48.26-1,.44-1.44C147.43,238.8,147.43,238.81,146.59,237.43Z"/><path class="cls-33" d="M72.53,109.34c.16,2.41,1,4.81.08,7.25A5.75,5.75,0,0,1,72,118c-1.83,2.63-1.77,5.58-1.39,8.59.41,3.39,1.91,6.54,2.23,10a.22.22,0,0,1-.35,0c-.79-4.34-2.72-8.43-2.77-13,0-2.75,1.07-5.12,2.12-7.49s.25-4.72-.45-7.07-2.35-3.85-3-6c-.79-2.58-.35-5.2,0-7.8h0c2.18-2.93,4.78-5,8.74-4.67a12,12,0,0,0,2.4,0A12.2,12.2,0,0,1,86.6,92a7.35,7.35,0,0,0,6.25.09h0c1-.45,2.2-.44,3-1.36a.88.88,0,0,1,1.1-.05c2.14-.34,4.25-.78,6.41-1,4.13-.49,7.94.77,11.75,2a16.33,16.33,0,0,0,7.12.27c3.55-.47,7-1.61,10.66-1.52a50.17,50.17,0,0,1,11.62,1.95,18.79,18.79,0,0,0,9.18.17c6.57-1.57,13.11-1.2,19.71-.49a47.12,47.12,0,0,0,9.42.44c1.3-.12,2.29-1.13,3.62-1.37a40.29,40.29,0,0,1,15.32.21c3.62.74,7.23,1.74,11,1.48,3.39-.24,6.77-.37,10-2,2.76-1.35,5.94-.74,8.7.19,2.6.88,3.78,4.56,3.52,7.36-.19,2.14-1.16,4-1.37,6.13a5.16,5.16,0,0,1-1.6,2.79c-.34-1.35,1.22-2.15,1-3.46-.63-.65-.33-1.39-.18-2.11a22.83,22.83,0,0,0,.61-4.42,4.83,4.83,0,0,0-3.81-5,10.43,10.43,0,0,0-7.7.43,17,17,0,0,1-6.85,1.43,71,71,0,0,1-14.68-1.47c-5.38-1-10.8-1.33-16.07,1-2.07.92-4.45.59-6.64.26A111,111,0,0,0,159.83,93a12.13,12.13,0,0,0-2.88.41,26.89,26.89,0,0,1-12.95.36,52.53,52.53,0,0,0-8.77-1.73,32.24,32.24,0,0,0-9.23.65c-5.34,1.21-10.67,1.36-15.85-.94-2.62-1.16-5.34-.91-8.11-.45a73.6,73.6,0,0,0-9.93,2.72,8.23,8.23,0,0,1-6.68-.56c-3.7-2.06-7.58-1.26-11.43-.74a4.14,4.14,0,0,0-2.67,2,14.5,14.5,0,0,0-1.91,5.12,2.45,2.45,0,0,0,.4,1.8c1,1.75,1.63,3.67,2.52,5.47A2.43,2.43,0,0,1,72.53,109.34Z"/><path class="cls-33" d="M234.06,129.33a23.81,23.81,0,0,0-1.24-11.55c-1.18-3.17-1.19-6.34-1.19-9.58a1.08,1.08,0,0,1,.36-.92c0,2.4-.51,4.94.46,7.14a30.4,30.4,0,0,1,2.09,8.42C234.82,125,235.29,127.25,234.06,129.33Z"/><path class="cls-12" d="M92.85,92.12c-2.58,1.61-5.16.91-7.55-.3a9.46,9.46,0,0,0-4.74-1.09,21.35,21.35,0,0,1-2.4,0c-3.52-.26-6.52.68-8.73,3.6a6.39,6.39,0,0,1-1,.9c.47-2,4.17-4.76,6.68-4.82s4.82,0,7.23,0A5.08,5.08,0,0,1,85,91,9.85,9.85,0,0,0,92.85,92.12Z"/><path class="cls-12" d="M97,90.71c-1.46.23-2.49,1.68-4.12,1.41C94.23,91.68,95.25,90.18,97,90.71Z"/><path class="cls-2" d="M71.52,160.3a12.42,12.42,0,0,1,1.31,5.25,54.55,54.55,0,0,1,0,6.52c0,1.07-.18,2.21-1.45,2.67l-.24-.62a3.57,3.57,0,0,0,1.08-2.55A28.73,28.73,0,0,0,71.49,161,.46.46,0,0,1,71.52,160.3Z"/><path class="cls-34" d="M71.52,160.3l0,.7c-1-1-.77-2.34-1.08-3.53-1-3.81-.42-7.54.72-11.23,1-3.16,1.77-6.34,1.39-9.69h.35a22.51,22.51,0,0,1,0,6.19c-1.1,2.25-1.41,4.73-2,7.12C69.89,153.41,70.77,156.86,71.52,160.3Z"/><path class="cls-35" d="M226.82,213a8.26,8.26,0,0,0-1.52-8.46,7.33,7.33,0,0,1-.88-2.18c1.59,1.28,3.53.67,5.3.94,3,.44,6.09.29,9,.92,4.57,1,6.49-1.79,8-4.79a7.06,7.06,0,0,0,.46-1.29c.66-2.22.77-2.28,3.09-1.76a22.59,22.59,0,0,1,6.36,2.07c4.41,2.51,4.76,4.64,1.62,8.4a28,28,0,0,1-8.64,6.4c-2.86,1.53-5.9,2.75-8.86,4.11-1.12.51-1.76.58-2-1.05-.56-3.56-5.15-6.7-8.51-3.1-.43.47-.92.74-1.49.24S227.48,213.05,226.82,213Z"/><path class="cls-36" d="M225,201.25c-.92-.38-.94-1.18-.93-2,.06-3.34,1.31-6.35,2.58-9.36.18-.42.34-.84.51-1.26,1.07-1.48,1-3.52,2.43-4.84l-.06-.06c4.24-.09,8.49-.16,12.73-.29a2.08,2.08,0,0,1,2.08,1.11c2.74,4.22,2.52,12.42-.56,16.47a3.55,3.55,0,0,1-3.38,1.61C235.32,202.12,230.18,201.7,225,201.25Z"/><path class="cls-4" d="M158.36,245.43a2.63,2.63,0,0,1-2.81-3c.09-.42.42-.23.68-.2,2,1.63,4.37.73,6.6.78,7.06.18,14.1-.29,21.15-.44,9-.19,18-.49,27-.6a14.11,14.11,0,0,1,1.72,0,40.71,40.71,0,0,0,4.28.09,2.66,2.66,0,0,1,1.93.5,2,2,0,0,1,1.38,2.25,62.77,62.77,0,0,1-.36,7.63c-.25,1.62.49,3.11.62,4.65.21,2.55.06,5.14.06,7.71,0,.84-.12,1.54-1.25,1.22-.05-3.95-.11-7.89-.14-11.84,0-3-.05-5.95,0-8.92,0-1-.29-1.41-1.39-1.37-3.65.14-7.32,0-11,.38a8.57,8.57,0,0,1-3.56.17c-3.37-.22-6.67.53-10,.58-4.49.06-9-.21-13.47.18-6.26.56-12.54.54-18.81.75A3.34,3.34,0,0,1,158.36,245.43Z"/><path class="cls-37" d="M221.63,231.6c-.19-.53-1-1.19.27-1.44,1.12.53,1.94,1.65,3.31,1.71a22,22,0,0,0,6.83.34,11.67,11.67,0,0,0,6-2.85,4.19,4.19,0,0,0,1.7-3.59,2.7,2.7,0,0,1,2.21-3c4.11-1.27,8.22-2.64,11.82-5.05,2.66-1.78,5.49-3.39,7.78-5.64a34.37,34.37,0,0,0,4.8-5.77c2.32-3.59,2.09-8.57-2.66-11a14.84,14.84,0,0,0-3-1.33c-2.72-.71-5.44-1.42-8.21-1.9a4.37,4.37,0,0,0-1-.11c-.4,0-.86,0-.94.56s.31.58.61.73a8.27,8.27,0,0,0,2.48.7,14.08,14.08,0,0,1,4.56,1.51c.67.35,1.54.72,1.06,1.81-.61.29-1-.27-1.51-.39a37.35,37.35,0,0,0-9.53-2.46c-.6-.88-.32-1.86-.3-2.8,0-.65.45-.84,1-.81a47.68,47.68,0,0,1,5.07.13c3.78.44,7.48,1.13,10.75,3.25,5.12,3.3,6,8.5,2.28,14-3.81,5.62-9.24,9.28-15.17,12.31a54.62,54.62,0,0,1-9.22,3.74c-.66.2-1.37.37-1.36,1.29,0,4.58-3.15,6.45-6.82,7.71a15.66,15.66,0,0,1-12.39-.93C221.74,232.15,221.48,232,221.63,231.6Z"/><path class="cls-38" d="M225.08,232.28c-1.4-.2-2.71-.53-3.18-2.12,1.61-2,1.53-4.45,1.83-6.79a26.46,26.46,0,0,1,2-7.71,1.28,1.28,0,0,1,1.71-.89c.49.37,1,.74,1.46,1.12a2,2,0,0,1,.87,2.05c-.24.68-1.22.3-1.87.32s-1.51-.47-1.62.63.83,1,1.46,1c2.09.1,4.13-.08,5.83-1.53a1,1,0,0,0,.35-1.21c-.26-.54-.74-.47-1.19-.27s-.94.88-1.24.09-.86-1.49-.18-2.41c1.45-1.94,4.29-1.56,5.46.82a6.49,6.49,0,0,1,.63,2.48c.1,1.9,1.28,2.51,2.92,1.55a19.2,19.2,0,0,1,3.33-1.35c.32.1.68.14.84.51-1,2.37-5.5,3.75-7.49,2.26a2.3,2.3,0,0,1-1.14-2.32c.21-1.41.13-1.43-1.27-2.89.61.83,1.29,1.21,1.38,2,.1,1-.72,1.22-1.2,1.73a7.23,7.23,0,0,1-8.11,1.94c-.81-.27-.95,0-1.07.75-.4,2.53-.62,5.11-1.82,7.44a1.09,1.09,0,0,0,.4,1.51C224.59,231.34,225.26,231.5,225.08,232.28Z"/><path class="cls-39" d="M244.38,218.51a.81.81,0,0,1-.75-.45c2.55-1.27,5.11-2.5,7.64-3.8a30.8,30.8,0,0,0,8.25-6.12c2.55-2.69,3.15-6.09,1.56-8.44-.86-1.27-2.21-1.94-3.38-2.85l1.49.3a4.12,4.12,0,0,1,3.93,3.76,9.87,9.87,0,0,1-4,9.76,48.68,48.68,0,0,1-13,7.84C245.58,218.73,245,219,244.38,218.51Z"/><path class="cls-2" d="M254,190.91c-1.43,0-2.86.11-4.27,0s-1.84.47-1.66,1.76c.07.57.08,1.14.11,1.71-1.3-1.09-.43-2.47-.46-3.72,0-.09.39-.32.54-.28C250.13,190.94,252.13,190.15,254,190.91Z"/><path class="cls-4" d="M221.63,231.6l.43.65a5.15,5.15,0,0,1-2.74.38C219.59,231.15,220.62,231.39,221.63,231.6Z"/><path class="cls-23" d="M218.91,242.61l-6.13-.06a.54.54,0,0,1,.45-.62c1.89-.31,3.78-.68,5.6.27l.16.17A2.25,2.25,0,0,0,218.91,242.61Z"/><path class="cls-40" d="M72.53,109.34c-1-2.65-1.84-5.39-3.59-7.7a1.63,1.63,0,0,1-.18-1.16c.84-4.41,2.06-9.12,8.38-8.73,1.29.08,2.61-.19,3.91-.16a10.87,10.87,0,0,1,5.15,1.65,7.14,7.14,0,0,0,5.83.28c3-.93,5.94-2.32,9.2-2.51,1-.06,2-.59,3.15-.66A16.79,16.79,0,0,1,112,91.86a20.28,20.28,0,0,0,12.78.51,36.05,36.05,0,0,1,18.28.61,24.22,24.22,0,0,0,14.47-.42,3.94,3.94,0,0,1,1.19-.09c6.41,0,12.8-.1,19.18.93a13.5,13.5,0,0,0,8-.92c3.52-1.65,7.41-1.24,11.16-.87,6,.6,11.76,2.35,17.85,2a22.5,22.5,0,0,0,7.91-1.87c3-1.37,6.05-.65,8.72.76,2.39,1.25,2.76,3.78,2.32,6.34-.28,1.68-.62,3.35-.93,5-1.45,2.23-3.46,4.51-2.63,7.26s1,5.54,2.18,8.2a14.84,14.84,0,0,1-.05,12,1.05,1.05,0,0,1-.32.4c-3.44,2.25-2.94,6-3.64,9.35-.81,3.82.65,7.41,1.2,11.1a11.45,11.45,0,0,1-1.31,8c-2.5,4.25-3.46,9-1.61,13.92a38.75,38.75,0,0,1,.74,6.55,17.07,17.07,0,0,1-2.91,9.77,1.29,1.29,0,0,1-1.34.55c-.54-1,0-1.93.52-2.74,2.9-4.9,2.73-9.93.66-15a10.74,10.74,0,0,1-.2-8.2,62.78,62.78,0,0,1,3-7.11,7.83,7.83,0,0,0,.47-6.33,32.84,32.84,0,0,1-1-3.64,22.48,22.48,0,0,1,3-16.83c2.36-3.85,1.81-7.93.54-12a40.51,40.51,0,0,1-1.45-5.84,16,16,0,0,1,.81-8.62,21.28,21.28,0,0,0,1.88-6.94c.09-2.08-.53-3.26-2.52-3.92a7.48,7.48,0,0,0-5.86.44c-6.08,3-12.39,2.38-18.65,1a57.08,57.08,0,0,0-15-1.38,11.8,11.8,0,0,0-4.26,1.32,10.92,10.92,0,0,1-6.72.83c-5.43-1-10.95-1.09-16.43-1.52a10.61,10.61,0,0,0-3.58.41A41.46,41.46,0,0,1,152,96.33a19.88,19.88,0,0,1-8.49-.8,31.16,31.16,0,0,0-17.94-1c-4.49,1.16-9.09,1.47-13.53-.41-6.16-2.61-12-1.48-17.75,1.3a8.65,8.65,0,0,1-8.4-.12c-3.39-1.83-7-1.68-10.56-1.07a5.22,5.22,0,0,0-4.28,5,11.85,11.85,0,0,0,.14,3.09,4.93,4.93,0,0,0,1,2.86,17.31,17.31,0,0,1,1.66,4.47,1.26,1.26,0,0,1-.31,1.42C72.93,110.66,73.07,109.8,72.53,109.34Z"/><path class="cls-41" d="M70.81,102.44c-1.56-4.82,1.4-8.86,6.39-9.07a20,20,0,0,1,10,2,7,7,0,0,0,6.43-.24,24.07,24.07,0,0,1,13.24-3c2.32.19,4.41,1.2,6.56,1.9,4.41,1.45,8.71.75,13-.29a28.6,28.6,0,0,1,11.4-.25c3.23.52,6.23,1.93,9.48,2.33,3.79.47,7.4-.46,11-1.54a9.05,9.05,0,0,1,3-.4,141.25,141.25,0,0,1,16.94,1.43,10.74,10.74,0,0,0,7-.88c3.25-1.7,6.78-1.35,10.28-1.17,4.09.2,8,1.31,12,2a37.15,37.15,0,0,0,12.31-.21c1.3-.21,2.45-1.19,3.73-1.69a7.27,7.27,0,0,1,7.05.55c1.31.89,1.61,2.1,1.46,3.73-.28,3-1.53,5.7-2.44,8.51-1.38,4.26-.23,8.39,1,12.46a20,20,0,0,1,1.17,7.07,13.54,13.54,0,0,1-2.11,6.41,20.93,20.93,0,0,0-2.9,13.34,31.71,31.71,0,0,0,1.59,6.68,6.9,6.9,0,0,1-.58,5.78,54.4,54.4,0,0,0-3.39,7.84c-.93,2.71-.38,5.31.63,7.87,2,5,2.09,9.88-.78,14.64a18.76,18.76,0,0,0-1.11,2.69c-2.11,5.14-3.09,10.28-.05,15.45a23.77,23.77,0,0,1,1,2.55,3.93,3.93,0,0,1-.24,3.77A25.23,25.23,0,0,0,221,224a7.51,7.51,0,0,1-2.76,5.49,1.59,1.59,0,0,1-1.45.29,33.87,33.87,0,0,1-5.53-1.2,15.8,15.8,0,0,0-11.38.35c-3.23,1.2-6.35,3-10,2.62-2.34-.25-4.64-.5-6.65-2a9.68,9.68,0,0,0-5.69-1.56,65.2,65.2,0,0,0-15.31,1.8,65.29,65.29,0,0,1-12.61,1.33c-2.87.06-5.76-.78-8.64-1.2-3.27-.48-6.53-1.13-9.83-1.36-4-.28-7.76,1.3-11.35,2.92-2.81,1.26-5.57,1.91-8.59,1.06a8.32,8.32,0,0,1-2.09-.76,8.16,8.16,0,0,0-4.38-1.3,2.61,2.61,0,0,1-1.17-.23c-2.48-1.22-5-.85-7.54-.24-4.84,1.15-9.54.36-14.13-1.36a2.09,2.09,0,0,1-1.37-2,11.71,11.71,0,0,1,.55-5.09,8.12,8.12,0,0,0,.22-5.39c-.81-3.17-1.8-6.28-4.07-8.77-.58-.64-.42-1.34-.36-2.1.26-3.19,1.17-6.3.87-9.54a20.08,20.08,0,0,0-1.65-7c-1.65-3.59-3.33-7.15-3-11.27a13.65,13.65,0,0,1,.36-2c1-4.47,1.93-8.94.44-13.53a29.49,29.49,0,0,1-1.58-7.88c-.19-4.07,1.13-7.8,2.17-11.58a11.44,11.44,0,0,0,.25-5.57c-.74-3.54-1.69-7-2.74-10.47-.72-2.39-.08-4.65.74-6.87.16-.43.36-.84.49-1.28,2.64-3.45,1.48-6.92.22-10.49C72.7,106,71.36,104.4,70.81,102.44Z"/><path class="cls-42" d="M60.07,218c.51-.09,1.07-.06,1.41-.56a24.53,24.53,0,0,0,1.81-2.26,4.35,4.35,0,0,1,5.25-1.7c1,.33,1.46.94,1,1.91a3.71,3.71,0,0,0-.18,2c-.51.12-1.28-.29-1.48.47s.52.9,1,1.15c1.53.73,3,1.67,4.84,1.44a4.32,4.32,0,0,0,1.77-.55c.49-.3.77-.76.45-1.3a.76.76,0,0,0-1.2-.11c-1.53,1.18-1.84-.62-2.47-1.16-.9-.78-.31-1.78.37-2.55a1.66,1.66,0,0,1,2.41-.36c.61.39,1.31.66,2,1,2.61,1.51,1.87,3.77,1.27,5.94a12.21,12.21,0,0,0,.13,8.2c1,1.58.9,2.26-.6,3.27-2.69,1.81-5.55,3.11-8.94,2.74-2.9-.31-5.16-1.89-7.44-3.49-1.08-2.13-1.93-4.28-1.23-6.74.27-1-.27-1.33-1.15-1.49a56.1,56.1,0,0,1-22.14-9.55,40,40,0,0,1-5.19-4.4,13.09,13.09,0,0,1-3.61-6.7,6.08,6.08,0,0,1,.86-4.62,11.55,11.55,0,0,1,6-4.84c2.84-1,5.74-1.79,8.65-2.55a19.73,19.73,0,0,1,3.6-.22c.62,0,1.17.17,1.35.82a1.41,1.41,0,0,1-.72,1.61,9.84,9.84,0,0,1-2.76.91,19.7,19.7,0,0,0-3.87,1.34c-5.21,2.77-4.57,9.37-1.08,12.7a39,39,0,0,0,17.71,9.54A18.53,18.53,0,0,0,60.07,218Z"/><path class="cls-36" d="M218.83,242.2c-2,.08-4.06-.23-6.05.35l-35.5.84c-5.95.15-11.9.29-17.84.47-1.4,0-2.69,0-3.21-1.61a4.63,4.63,0,0,0-1-2.41c-.56-.5-.33-1.06-.08-1.57a20.06,20.06,0,0,1,2.11-3.54c.89-1.17,1.47-1.2,2.5-.14,1.68,1.73,3.43,3.37,5.19,5a2.57,2.57,0,0,0,3.25.47,35.82,35.82,0,0,0,9.91-6.4,4.7,4.7,0,0,1,2.69-1.72c.34,0,.75-.08,1,.08,5.64,3.35,11.32,2.82,17.06.29,1.3-.58,2.68-1,4-1.47,2.82-1,5.5-.33,8.21.54a21,21,0,0,0,6.9,1.2c.68,0,.93.24.94.88A59,59,0,0,1,218.83,242.2Z"/><path class="cls-36" d="M69.11,182.72c2.74.15,3,2.4,3.54,4.31,1.18,3.85,2.83,7.63,2.22,11.83-.48.1-1,0-1.27.63a5.1,5.1,0,0,1-1.41.94c-4.67,1-9.21,2.84-14.14,2.22s-5.81-2.62-6.82-7.42c-.59-2.78-.24-5.59,0-8.38.22-2.55,1.76-4.06,4.47-4.42A38.49,38.49,0,0,1,69.11,182.72Z"/><path class="cls-35" d="M78,214.76c-.91-2.11-2.81-2.15-4.63-2a4,4,0,0,1-2.43-.43,8.84,8.84,0,0,0-3.42-1.05,6.18,6.18,0,0,0-6.91,3.92c-.46,1-1.06,1.19-1.88.94-6.53-1.94-12.74-4.46-17.38-9.77a5.86,5.86,0,0,1-.51-.69c-2.88-4.24-1.6-6.55,2.77-8.8a8.7,8.7,0,0,1,5.16-1c2.22.35,1.57,2.73,2.27,4.13a6.63,6.63,0,0,0,3.79,3.44,15.62,15.62,0,0,0,10.28.36c3.25-1,6.82-1,9.84-2.81a3.34,3.34,0,0,1-.18,1.85c-1.39,2.56,0,4.74,1,6.93.64,1.39.89,3,2.46,3.91C78.57,213.82,78.42,214.45,78,214.76Z"/><path class="cls-43" d="M73.59,118.32a4.86,4.86,0,0,1-.68,2.1c-1.26,3.11-.55,6.09.48,9s1.39,5.78,2.11,8.66a7.3,7.3,0,0,1-.24,3.72c-1,3.67-2.35,7.24-2.5,11.14a25.25,25.25,0,0,0,1.63,8.9c1.54,4.65.7,9.17-.41,13.69a11.79,11.79,0,0,0,.11,7.08A37.66,37.66,0,0,1,76,188.88a2.2,2.2,0,0,1-1.54-2.19c0-1.6-1.39-2.68-1.64-4.24a17.31,17.31,0,0,1,.36-8.37,31.91,31.91,0,0,0-.36-12.24,32,32,0,0,1-1.4-6.14,25.89,25.89,0,0,1,1.18-9.7,19.36,19.36,0,0,0,.51-11.74c-1-3.54-2.23-7-2.33-10.78a6.33,6.33,0,0,1,1.72-4.5c.25-.29.35-.75.85-.77Z"/><path class="cls-44" d="M160.31,233.28c2.76-1.13,5.73-1.27,8.59-1.93s5.89-.38,8.84-.47c1,0,.92.35.55,1-1.15,2.06-3.09,3.3-4.9,4.62a25.77,25.77,0,0,1-5.33,2.73,2.09,2.09,0,0,1-2.28-.08,51.56,51.56,0,0,1-5.21-4.92A.87.87,0,0,1,160.31,233.28Z"/><path class="cls-4" d="M160.31,233.28c1.71,1.7,3.48,3.32,5.09,5.11a1.87,1.87,0,0,0,2.53.43,38.2,38.2,0,0,0,10.36-6.95c.56.07.81-.34,1.05-.72s.76-.76,1.3-.52c.72.32.2.88.15,1.33a45.09,45.09,0,0,1-13.14,8.91,2.07,2.07,0,0,1-2.71-.51c-1.82-1.9-3.76-3.69-5.57-5.61-.82-.88-1.35-.74-1.77.22-.73,1.66-2.28,2.91-2.38,4.87-.1.71-.18,1.43-1,.35a4.74,4.74,0,0,0-.73-.68c-.56-.68-.68-1.29.25-1.76a10.46,10.46,0,0,0,2.1-3.51,7.72,7.72,0,0,0,.54-.62C157.69,231.77,158.61,231.69,160.31,233.28Z"/><path class="cls-45" d="M61.51,231.92c3,1.29,5.57,3.64,9.28,3.19a15.9,15.9,0,0,0,7.41-3.2c.94-.66.31-1.55.21-2.36.85.58,1.63,1.2,1.4,2.41-5.91,4.8-11.11,5.55-17.06,1.67-.65-.42-1.4-.81-1.66-1.66A.3.3,0,0,1,61.51,231.92Z"/><path class="cls-14" d="M229.63,183.79c-1.14,1.45-1,3.54-2.43,4.84.55-1.46,1.12-2.91,1.66-4.36A.64.64,0,0,1,229.63,183.79Z"/><path class="cls-46" d="M61.51,231.92l-.42.05c-1.79-1.58-2-3.61-1.53-5.77.25-1.17.08-1.54-1.29-1.87-9.12-2.17-17.63-5.71-24.83-11.88a18.81,18.81,0,0,1-5.31-7.08,8,8,0,0,1,2.24-9.48,21,21,0,0,1,11.77-4.62,1.61,1.61,0,0,1,1.45,0,1.35,1.35,0,0,1-1.19.87c-2.71-.16-4.88,1.43-7.31,2.14a8.83,8.83,0,0,0-6.42,6.47c-.66,2.38.35,4.48,1.46,6.32a19,19,0,0,0,4.59,5.21c1.41,1.07,3.11,1.87,4.55,3A42.08,42.08,0,0,0,48,220a37,37,0,0,0,11,3.32c1.65.19,1.88.63,1.6,2.3a5.49,5.49,0,0,0,.43,4.15A3.29,3.29,0,0,1,61.51,231.92Z"/><path class="cls-47" d="M43.59,191.31l-1.45,0a29.07,29.07,0,0,1,6.43-.78c.78-.06,1,.29.92,1a9,9,0,0,0,0,1.72c.06.81-.25,1.08-1.08,1.09a15.26,15.26,0,0,0-6.44,1.62c-4,1.94-5.17,5.37-3.15,9.32,1.57,3.07,4.17,5.1,6.92,6.94,4.38,2.92,9.33,4.49,14.36,5.83-2.85.91-5.4-.45-7.81-1.48a34.69,34.69,0,0,1-5.18-2.41,30.41,30.41,0,0,1-6.32-4.71,6.18,6.18,0,0,0-.78-.66c-2.5-2-3.13-4.53-2.86-7.62.37-4.18,2.89-6,6.59-6.85,1.17-.27,2.3-.66,3.45-1,.64-.2,1.21-.61,1.1-1.33s-.85-.63-1.4-.64C45.77,191.29,44.68,191.31,43.59,191.31Z"/><path class="cls-48" d="M69.33,217.39c-1-.42-1.61-.78-.41-1.81.64-.56.78-1.31-.53-1.64-2.29-.56-3.52-.14-4.87,1.88-.49.74-1,1.54-2,1.65a5.57,5.57,0,0,1,8.69-3.82c.39.28.75.54.51,1.1a4.94,4.94,0,0,0-.22,2.19C70.5,218.12,70,217.84,69.33,217.39Z"/><path class="cls-43" d="M70.81,102.44A22.26,22.26,0,0,1,75.32,114a5.64,5.64,0,0,1-1.73,4.33l0,0a3.72,3.72,0,0,1,0-2.4h0c.16-1.37,1.11-2.68.33-4.13a.73.73,0,0,1-.33-.68,13.83,13.83,0,0,0-1.83-5.65A4.28,4.28,0,0,1,70.81,102.44Z"/><path class="cls-40" d="M73.89,111.75c1.44,1.5.22,2.79-.33,4.13C73.34,114.48,74,113.15,73.89,111.75Z"/><path class="cls-33" d="M72.86,142.74q0-3.11,0-6.19A11.14,11.14,0,0,1,72.86,142.74Z"/><path class="cls-40" d="M73.56,115.88c0,.8,0,1.6,0,2.4l-1,.7Z"/><path class="cls-49" d="M91.57,248.16c7.09-.2,14.18-.37,21.27-.62,1.27,0,1.79.34,1.76,1.62a31.31,31.31,0,0,0,.13,4.11c.11,1.09-.29,1.42-1.31,1.46-5.26.21-10.52.47-15.78.71l-6.51.29A17,17,0,0,1,91.57,248.16Z"/><path class="cls-50" d="M158.36,245.43c10.6-.25,21.2-.56,31.8-.72,5.56-.09,11.11-.64,16.68-.39l-.35.36c-2.21-.08-4.45,0-6.63.12-2.54.15-5.06.67-7.64.63-.51,0-1.33.18-1.26.86s.82.44,1.32.45c6,.1,11.91-.08,17.86-.34a4.61,4.61,0,0,1,.52,0c.71,0,1-1.29,1.93-.57a4.66,4.66,0,0,1,1.77,3c.26,1.85-.52,3.52-1.33,5.14a1.24,1.24,0,0,1-1.45.66,24.67,24.67,0,0,0-7.07.18c-2.87.35-5.87.85-8.86.28a19.19,19.19,0,0,0-4.29-.06c-2.41.11-3.35-.74-3.12-3,.09-.93-.65-1.59-.62-2.47.06-1.51,1.13-2.4,2.22-3.38a3.82,3.82,0,0,0-2.32-.77h-7.17c-.63,0-1.32,0-1.62.7s.3.95.59,1.34c1.08,1.45.77,5.47-.54,6.65a1.32,1.32,0,0,1-1.14.21c-4.77-.59-9.53-.08-14.3.05-.92,0-1.29.66-1.43,1.43a2.13,2.13,0,0,1-1.46,1.76c-2,.65-3.48,2.13-5,3.55-.85.8-1.7,1.79-3.11,1.14,2.3-1.75,4.62-3.5,6.92-5.28.84-.65,1.88-1.1,2.17-2.3.15-.6.74-.61,1.26-.68a7.49,7.49,0,0,0,2.54-.27,2.05,2.05,0,0,1,1.88-.61c2.53.05,5-.49,7.56-.4.57,0,1.14-.15,1.71-.18,1.41-.07,2.08-.72,2-2.18a4.27,4.27,0,0,1,.28-2.2c.06-1-.64-1.08-1.37-1.06q-6.95.1-13.88.23c-1.31,0-2.63.18-3.94.12S157.78,246.61,158.36,245.43Z"/><path class="cls-4" d="M178.64,248.11c.54,1.2.28,2.48.35,3.72,0,.81-.53,1-1.24,1.09-4.16.41-8.32.7-12.5.76-1.41,0-2.84-.39-4.2.39-.71.4-1.09-.19-1.29-.72a30,30,0,0,0-1.65-4.66c-.24-.42-.09-.78.44-.87a3.19,3.19,0,0,1,.69,0c5.67.12,11.32-.57,17-.38A4.2,4.2,0,0,1,178.64,248.11Z"/><path class="cls-4" d="M143.16,249.87c-1.09.87-2,1.81-1.77,3.4.17,1.28-.59.81-1.42.9-4.59.54-9.12-.53-13.7-.22-2.42.17-2.43,0-2.42-2.48a9.73,9.73,0,0,1,0-1.71c.21-1.17.76-2,2.15-2,5.44,0,10.88-.06,16.32,0,1.52,0,.4,1.42.79,2.08Z"/><path class="cls-51" d="M146.45,243c.85-3.2,1.11-3.42,4.23-3.46.91,0,1.83,0,2.75,0l5.34,12.71c.95,2.26.86,2.49-1.5,3.82a.63.63,0,0,1-.72.08c-.51-.78.08-1.3.5-1.8a2.19,2.19,0,0,0,.25-2.7c-.84-1.54-1.19-3.37-2.71-4.51a1,1,0,0,1-.36-1.09c.67-1.79-.65-2.94-1.41-4.2-.86-1.41-3.89-1-4.68.59a19,19,0,0,1-1.1,2.32c-.37.56-.71,1.23-1.59.95a.81.81,0,0,1,.05-.74C145.82,244.3,146.14,243.63,146.45,243Z"/><path class="cls-52" d="M145.5,245l.05.77c.54.6.19,1.18-.06,1.75-.67,1.51-1.23,3.07-1.93,4.57a1.49,1.49,0,0,0,.65,2.18,42.1,42.1,0,0,1,4.76,3.63c1.56,1.2,2.73,1.14,4.33-.08,1-.75,1.92-1.65,3.27-1.73h.7c-1.58,1.77-3.72,2.83-5.55,4.28-.58.47-1.14.17-1.69-.26-2.21-1.73-4.41-3.47-6.68-5.1-1.24-.89-1.85-1.74-.93-3.23a2.89,2.89,0,0,0,.74-1.88h0C143.93,248.23,144.72,246.6,145.5,245Z"/><path class="cls-53" d="M149.42,237.44A5.34,5.34,0,0,1,146,236c-.63-.54-.35-1,.2-1.39a2.07,2.07,0,0,1,1.83-.15,7.39,7.39,0,0,0,4,0c.6-.15,1.84-1,2,.55a1.77,1.77,0,0,1-1.82,2A9.51,9.51,0,0,0,149.42,237.44Z"/><path class="cls-54" d="M244.38,218.51a23.27,23.27,0,0,0,5.16-2,55,55,0,0,0,10.13-6.9,9.85,9.85,0,0,0,2.86-9.44c-.51-1.66-2-2.21-3.34-3-.73-1.87-2.65-1.76-4.1-2.36s-2.92-.46-4.3-1.06c-.68-.29-1.35-.61-1.13-1.45a1.31,1.31,0,0,1,1.63-.95c4.88.95,10,1.42,14.15,4.42,3.27,2.35,3.68,6.81,1.48,10.59-.6,1-1.07,2.25-2.45,2.74-.85.3-.68,1.51-1.28,2.15a21.94,21.94,0,0,1-3.64,3.11c-3.74,2.59-7.42,5.32-11.7,7-2,.78-4.08,1.4-6.16,2-1,.27-1.63,1-1.52,1.77.37,2.79-1.18,4.19-3.23,5.67-3.76,2.71-7.73,2.44-11.86,1.53-.14-.17-.25-.42-.44-.5-2-1-2.16-1.33-.94-3.13a1.14,1.14,0,0,0,.3-.6c0-2.16,1.24-4.1,1.07-6.26-.12-1.5.61-1.47,1.62-1a6.49,6.49,0,0,0,7.68-1.8c.41-.53,1.63-.45,1.29-1.21a3.32,3.32,0,0,0-2-1.85,1.23,1.23,0,0,1-.29-.21c.55-1,1.28-.34,1.86-.12a1.58,1.58,0,0,1,.89,1.86c-.19,1.51.21,2.85,1.69,3.37a5.87,5.87,0,0,0,4.33-.5A4.47,4.47,0,0,0,244.38,218.51Z"/><path class="cls-55" d="M135.64,115.93c.74-.2,1-.89,1.29-1.45.66-1.21,1.18-1,1.75,0,.22,1.79-1.12,2.63-2.25,3.56-1.44,1.21-1.43,1.3.21,2.33a25.69,25.69,0,0,1,8.48,9,21.38,21.38,0,0,1,2.56,5.78,1.77,1.77,0,0,0,1.75,1.4c.83,0,.84-.83.91-1.43a18.3,18.3,0,0,1,8.88-14.11c7.09-4.43,14.63-4.52,22.2-1.34a26.26,26.26,0,0,1,13.66,13.37c1,2.2,1.29,4.59,2,6.88.17.19.35.38.52.58,1,1.16,2.06,2.27,2.17,3.91a11,11,0,0,1,0,2,1.06,1.06,0,0,1-1.22,1.05c-.8-.23-.95-.88-1.07-1.59a4.7,4.7,0,0,0-4.44-4.39,3.11,3.11,0,0,1-2.41-1.07c-.14-1.39.83-1.6,1.84-1.62,1.43,0,1.59-.75,1.21-1.89a23.13,23.13,0,0,0-3.61-7.1,23.91,23.91,0,0,0-15.59-9.37c-8.48-1.5-18.56,3.26-21,12.91-.67,2.14-.59,2.27,1.58,2.33a5.18,5.18,0,0,1,2,.34c.61.27,1.18.6,1,1.37a1.31,1.31,0,0,1-1.36,1.08c-.75.06-1.5,0-2.24,0a6.24,6.24,0,0,0-1.37.11c-.78.2-1.82.38-1.61,1.4s1.15.38,1.74.3a87.61,87.61,0,0,1,16-.22,150,150,0,0,1,15,1.81,41.5,41.5,0,0,1,10.19,2.9,3.25,3.25,0,0,1,1.45,1.17c.58,1.81.51,2-1,2.28a1.24,1.24,0,0,1-.7-.44,1,1,0,0,1-.18-.48c.21-1.61-1.05-1.56-2-1.77-.51-.12-1,.24-1.47.29-1.38-.12-2.8-.14-3.92-1.17-.35-.26,1.2-.61-.06-.88a2.16,2.16,0,0,0-2.08.58,3.92,3.92,0,0,1-2.94-.59c-1.17-1.37-2.9-1.36-4.42-1.49-4.59-.37-9.2-.62-13.79-1a8.35,8.35,0,0,0-5.08,1.1,1.91,1.91,0,0,1-1.11,0c-.62-.51-1.17-1-2.09-.39a3.47,3.47,0,0,1-2.64.34c-2.26-.52-4.48.72-6.77.16-.4-.1-.84.53-1.36.63a1.75,1.75,0,0,1-1.35-.31c-1.52-1.36-3.43-1.31-5.23-1.24-3.61.15-7.23,0-10.84.1a74.1,74.1,0,0,0-8.68,1,3.55,3.55,0,0,0-2.36,1.11,3.07,3.07,0,0,1-2.8.77c-.86-.61-2.11-.17-2.85-1.09.31-.93,1.17-1,1.93-1.18a103.42,103.42,0,0,1,13.15-2.08c3.78-.27,7.54-.23,11.3-.24a75.77,75.77,0,0,1,9.86.92c.65.08,1.53.42,1.85-.34s-.35-1.41-1-1.79c-2-1.12-4-1.68-6.2-.67a1.74,1.74,0,0,1-1.55-.48c-.54-1.07.18-1.59.93-2a5.63,5.63,0,0,1,2.8-.58c1.73,0,1.74,0,1.1-1.69a25.89,25.89,0,0,0-8.76-10.52,5.15,5.15,0,0,0-6-.46c-3.56,2-7.52,3-11.34,4.35a3,3,0,0,1-.5.12c-2.94.37-5.76,1.37-8.75,1.45-.86,0-1.18.8-1.6,1.4a3.68,3.68,0,0,1-.3.39,16.77,16.77,0,0,0-3.66,6.5,2.64,2.64,0,0,1-.15.45c-.13.31-.21.64-.33,1-.47,1.23-.31,1.94,1.27,1.73.74-.1,1.59.09,1.71,1s-.64,1.06-1.3,1.3a6.46,6.46,0,0,0-3.57,2.47,6.58,6.58,0,0,0-.8,1.56c-.26.64-.06,1.35-.27,2-.34,1.07-.91,1.43-1.75.38-1-2.29.34-4,1.38-5.83.73-2.12.27-4.43,1.09-6.56a19.06,19.06,0,0,1,1.27-3c.81-.85,1.07-2,1.77-3s.62-1.73-.54-2.25a1.34,1.34,0,0,1-.33-1.71,1.24,1.24,0,0,1,1.53-.49c2.74.89,5.42.16,8.1-.25,5.93-.9,11.42-3.13,16.84-5.53C131.44,118.7,133.41,117.08,135.64,115.93Z"/><path class="cls-56" d="M194.81,197.81c.23-5.49,2.33-10,7-13.13s10.74-1.46,12.24,5-1.64,14-7.9,17.06c-5.33,2.56-10.43-.69-11.29-6.53A16,16,0,0,1,194.81,197.81Z"/><path class="cls-57" d="M94.21,215.53c.43-4.59,1.31-8.9,5.36-12,4.77-3.66,10.51-1.52,12.18,3.85,1.74,5.61,1.23,11.06-2.64,15.84-2.42,3-6,4.3-9.25,2.9a9.32,9.32,0,0,1-5.2-6.64A10.41,10.41,0,0,1,94.21,215.53Z"/><path class="cls-58" d="M99.72,109c-.51,3.89-1.8,8.44-6.23,11-5.17,3-9.81.81-11.52-4.56a15.14,15.14,0,0,1,3.21-15.2c3.1-3.55,8-4.08,11.44-1C99.09,101.56,99.74,104.75,99.72,109Z"/><path class="cls-59" d="M178.19,177.49l-.63.18c-1.88,1.41-4.16,1.81-6.35,2.39s-2.15.46-2.07,2.57c.11,3,.27,5.94.61,8.9.24,2.14-.2,2.86-2.26,2.95-2.35.09-4.66.5-7,.64-1.12.27-2.29,0-3.41.27l-.57.15a9,9,0,0,1-1,.05c-2.13,0-2.52-.38-2.53-2.48,0-1.87-.22-3.74-.34-5.61,0-1,0-2.05,0-3.07.08-1.38-.51-2-1.9-1.94-2.27,0-4.55.09-6.82,0a2.79,2.79,0,0,1-.58-.07,50.23,50.23,0,0,0-7.12-.81,75.25,75.25,0,0,1-11.54-2.38,3.57,3.57,0,0,0-1-.13,5.32,5.32,0,0,1-2.19-.43,48.71,48.71,0,0,1-12.71-6.77c-.64-.5-1.31-.93-1.48-1.8s.29-1.52,1.33-1.47a2.91,2.91,0,0,1,1.36.7c6.47,5.45,14.29,7.77,22.34,9.4a81.79,81.79,0,0,0,20.3,1.36A83.2,83.2,0,0,0,175.25,176a51.54,51.54,0,0,0,14.54-7.48c1.09-.33,2-.35,1.89,1.18a7.92,7.92,0,0,1-3.29,3.12,48.18,48.18,0,0,1-7.57,3.95A8.55,8.55,0,0,1,178.19,177.49Z"/><path class="cls-60" d="M221.67,112.16a6.36,6.36,0,0,1-3.37,6.35,6.08,6.08,0,0,1-9.42-4.83c-.5-6.08,4.88-9.58,8.76-8.22C220.18,106.35,221.68,108.48,221.67,112.16Z"/><path class="cls-61" d="M194.65,133.15a27.82,27.82,0,0,0-9.4-10.9c-8.71-5.75-20.12-5.58-27.69.54a18.11,18.11,0,0,0-6.8,12.61c-.09.84-.12,2.12-1,2a2.84,2.84,0,0,1-2.55-1.93,25,25,0,0,0-8.83-13.27,13,13,0,0,0-3-2c-1.78-.74-1.1-1.23,0-1.91a8.39,8.39,0,0,0,3.34-3.8c.72-.36,1.17-.35.84.63a7.15,7.15,0,0,1-2.26,3c-.91.83-1.41,1.34.23,2.13,2.08,1,3.52,2.91,5,4.61a19.28,19.28,0,0,1,4.17,6.32c.39,1.12.88,2.22,1.23,3.36.22.69.54,1.36,1.4,1.21s.66-.83.69-1.4c.25-4.4,2.54-8,5.31-11,4.06-4.4,9.49-6.21,15.53-6.11,1,0,2.51.63,2.86-.52.16-.55-1.63-1.12-2.63-1.42-2.42-.73-4.33-2.43-6.63-3.42-.67-.29-.89-1.63-1.32-2.49a.65.65,0,0,1,.49-.21,3.94,3.94,0,0,1,1.75,1c5.11,4,11,6,17.25,7.18a33.39,33.39,0,0,0,11.58.43,11.72,11.72,0,0,0,4.34-1.52c.37-.46.7-.31.92.13a1,1,0,0,1-.19,1.25,4.31,4.31,0,0,1-1.61.93,38.51,38.51,0,0,1-12.76.5,13.1,13.1,0,0,0-1.53-.1c-.4,0-.87,0-.89.55s.33.72.76.78c2.22.29,3.68,1.78,5.23,3.19,4.59,4.18,7.81,9.13,8.72,15.38a2.24,2.24,0,0,0,.86,1.43,6.88,6.88,0,0,1,2.23,7.23c-.76.35-.84-.14-.84-.7,0-.77,0-1.55,0-2.32a4.35,4.35,0,0,0-2.37-3.8l-.27-.26c-.6-2.05-.66-4.23-1.55-6.19C195.08,133.9,195.13,133.37,194.65,133.15Z"/><path class="cls-62" d="M90.1,136.36a5.57,5.57,0,0,1-5.34,5.73c-2.89.1-5.31-2.64-5.31-5.73s2.53-6,5.71-5.75S90.11,132.77,90.1,136.36Z"/><path class="cls-63" d="M199.56,144.22c0,.83,0,1.66,0,2.49,0,.49,0,.9.68.84a15.52,15.52,0,0,1,6.51,1.39c.64.3,1.41.63,1.05,1.48s-1.28.35-1.77.11a12.75,12.75,0,0,0-10.16-.55,11,11,0,0,0-7.26,9.53c-.11,3.7,3.13,8.19,6.94,9.61a13.56,13.56,0,0,0,11.47-.64c.52-.28,1.23-1.08,1.75-.15s-.38,1.21-1,1.53a14.34,14.34,0,0,1-13.66.42c-.25-.11-.52-.18-.79-.28a5.46,5.46,0,0,1-2-.11c.29-1.37-.52-1.25-1.4-1-.2-.34,0-.72-.09-1.07a16.24,16.24,0,0,1-2.58-4.33c0-.85-.79-.56-1.23-.77-.46-.86,1.11-1.93-.3-2.68-.12-.37.12-.61.33-.86a2.27,2.27,0,0,0,.55-1.23,12.08,12.08,0,0,1,6.07-8.82,10.84,10.84,0,0,1,1.86-1.18c1.59.11,1.07-.9.92-1.72a.53.53,0,0,1,.73.25c.39,1.16,1.22,1,2.09.75.76,0,1.06-.4,1-1.16,0-.6,0-1.2,0-1.81l.12-.29Z"/><path class="cls-64" d="M108.63,168.94c-1-.1-1,.64-1,1.3-.44.36-.94-.18-1.39.08A20.31,20.31,0,0,1,98.18,173a9.77,9.77,0,0,1-1.71,0c-.56,0-1-.27-1-.91s.62-.71,1.14-.71A15.88,15.88,0,0,0,105,169c3.38-2.1,5.68-5,6-9.08.38-4.55-2.79-8.2-7.7-9.24a14.46,14.46,0,0,0-10.28,1.6c-.45.25-.87.56-1.32.8s-1.12.56-1.5-.14.15-1.11.63-1.41a17,17,0,0,1,6-2.47c.53-.1,1-.1,1.15-.76.85.4,1.42.35,1.32-.81,0-.66-.29-1.35.3-1.91.6.33.51.94.57,1.47.13.94.65,1,1.41.73a1.24,1.24,0,0,1,.47,0,1.4,1.4,0,0,0,1.59-.06c.39-.27.87-.63,1.3,0-.4,1,.29,1.23,1,1.53a10.84,10.84,0,0,1,7.19,9.07c.25,1.78-.58,3.51-.26,5.3-.5.6-.16,1.23-.07,1.86-.48.63-1.48.08-1.89.86a13.28,13.28,0,0,0-1.67,2.07A1.33,1.33,0,0,1,108.63,168.94Z"/><path class="cls-65" d="M196.68,224a4.8,4.8,0,0,1-4.61-5.28c.12-3,2-5.6,5-5.62a5,5,0,0,1,4.86,5.28A5.56,5.56,0,0,1,196.68,224Z"/><path class="cls-66" d="M84.25,192.47a6.83,6.83,0,0,1,1.08-4.06,4.19,4.19,0,0,1,7.22.31,6.68,6.68,0,0,1,0,6.85,4.19,4.19,0,0,1-4.46,2.2,5.83,5.83,0,0,1-3.79-4.27C84.23,193.16,84.25,192.82,84.25,192.47Z"/><path class="cls-67" d="M162.84,205.76c-3,.18-5.49-1-8-2.08a7.38,7.38,0,0,0-8.14.9c-2.26,1.66-5.24,1.78-8,2.21a10.37,10.37,0,0,1-9.58-3.43,2.83,2.83,0,0,0-.81-.61c-.46-.22-1.12-.29-.84-1s.86-.43,1.36-.46c.75-.06,1.15.47,1.55.94,2.5,2.88,5.68,3.22,9.22,2.75a22.24,22.24,0,0,0,8-2.85c2.53-1.41,5.09-1.06,7.71,0,2.87,1.22,5.79,2.39,9.06,1.92a5.77,5.77,0,0,0,4-2.63c.34-.49.77-1.49,1.54-.88s.11,1.34-.37,2A7,7,0,0,1,162.84,205.76Z"/><path class="cls-68" d="M123.39,178.62a4.87,4.87,0,0,1,2.67.41c5.32,1.67,10.82,2.15,16.32,2.62.39,0,.81,0,1.06.41-1,.8-2.19.53-3.31.41-2-.21-4-.32-6-.66-1.14-.2-1.6.1-1.47,1.3.27,2.57.47,5.14.73,7.71a1.21,1.21,0,0,0,1.33,1.24c3,.06,6,.06,8.95,0a1.43,1.43,0,0,0,1.58-1.61,46.52,46.52,0,0,1,.29-6,1.18,1.18,0,0,0-1-1.53c-.48-.1-1.06-.18-1.15-.85,2.81,0,5.61,0,8.42-.07,1,0,1.33.38,1.29,1.33-.06,1.43,0,2.86-.07,4.29-1.17-.7-.52-1.84-.62-2.78-.12-1.1-.23-2-1.67-2.08-2-.17-2.76.34-2.82,2.41-.06,2.45,0,4.92-.17,7.38a2.33,2.33,0,0,1-1,2.05c-3.24.37-6.48.08-9.72.16-1.42,0-2.85,0-4.27,0l-1.41-.36a2.36,2.36,0,0,1-.5-1.76c-.13-3.63-.62-7.23-1-10.83-.09-.78-.58-1-1.25-1.17-1.4-.26-2.69-.92-4.11-1.11A1.13,1.13,0,0,1,123.39,178.62Z"/><path class="cls-69" d="M198.54,116.28c-.11,1-.84,1.23-1.66,1.46-5.35,1.52-10.7,1-16-.14a38,38,0,0,1-15.42-6.68c-.67-.52-1.31-1.07-2-1.6a3.7,3.7,0,0,1-2.06-2c-.32-.67-.52-1.36.26-1.81a1.31,1.31,0,0,1,1.8.46,25.06,25.06,0,0,0,5.83,5c2.92,1.88,6.2,2.86,9.44,4a36.12,36.12,0,0,0,12.45,1.86c1.9,0,3.79-.69,5.72-.91A3,3,0,0,1,198.54,116.28Z"/><path class="cls-70" d="M196.93,115.93a17,17,0,0,1-8.88,1.24,45,45,0,0,1-17.67-5,20.33,20.33,0,0,1-7.25-5.88c-.32-.44-.63-.9-1.23-.58-.78.4-.33,1-.06,1.46.49.76,1.1,1.45,1.65,2.17l-.36.05a2.14,2.14,0,0,1-2.21-1.32c-.37-.66-1.11-1.7.13-2.35.93-.5,1.78-1.43,2.91,0a23.77,23.77,0,0,0,7.11,6,26.18,26.18,0,0,0,5.74,2c3.28.92,6.42,2.34,9.9,2.52a31.61,31.61,0,0,0,8.58-.52A2.07,2.07,0,0,1,196.93,115.93Z"/><path class="cls-71" d="M160.34,194.77c2.73-.09,5.36-1,8.11-.9.92,0,.68-.75.69-1.27.13-3.55-.31-7.07-.53-10.6-.08-1.4.25-2,1.7-2.33,2.45-.51,4.84-1.31,7.25-2,0,.42,0,1-.44,1-2,.43-3.72,1.75-5.79,1.9-1.2.09-1.71.56-1.71,1.81a53.37,53.37,0,0,0,.64,9.2c.34,1.95-.71,3.47-2.82,3.41-3.22-.09-6.35.66-9.54.74-1.12,0-2.11.89-3.33.4-.43-.17-.87-.22-1.1-.69,1.08-.62,2.34.21,3.41-.46l0,0C158,194.7,159.2,195.16,160.34,194.77Z"/><path class="cls-72" d="M135.64,115.93c-2.17,2.42-5.1,3.66-7.94,4.93a64.14,64.14,0,0,1-17,5.14,16.59,16.59,0,0,1-6.32,0c-.54-.13-1.15-.48-1.52.21s.53.89.71,1.38c-.6.48-1,.23-1.36-.34,0-2.64.24-2.74,2.89-1.91,1.84.57,3.72,0,5.59-.27,3.61-.53,7.1-1.55,10.63-2.39a16.42,16.42,0,0,0,3.21-1.57c3.1-1.53,6.52-2.42,9.23-4.69A2.18,2.18,0,0,1,135.64,115.93Z"/><path class="cls-73" d="M156.88,195c-1,.86-2.28.22-3.41.46-1.47-1.66-1-3.72-1.17-5.65s-.13-3.64-.32-5.45a1.61,1.61,0,0,0-2-1.27c-1.2.13-1.65,1.18-1.69,2.24-.07,2.53,0,5.05,0,7.57,0,.81,0,1.54-1.1,1.53a.21.21,0,0,1-.34-.1c.85-2.47.5-5.06.75-7.59a16.07,16.07,0,0,0,.06-3.25c-.13-1.15.37-1.3,1.35-1.32,3.83-.06,3.82-.09,3.85,3.75a2.65,2.65,0,0,0,.2,1.66c-.12,2.17.52,4.32.2,6.51-.1.66.27,1.06,1,1S156,195.05,156.88,195Z"/><path class="cls-74" d="M123.39,178.62a32.57,32.57,0,0,0,5.9,1.68c.83.18,1.12.48,1.17,1.46.21,4.21.61,8.41.94,12.62-.9.09-1.08-.46-1-1.18.22-2.52-.38-5-.36-7.51,0-1.38-.87-2.58-.77-4,0-.49-.56-.58-1-.75-2.19-.88-4.57-.94-6.79-1.67a4.81,4.81,0,0,1-2.1-1.06c.69-1,1.39,0,2.09,0Z"/><path class="cls-75" d="M198.93,155.53c0,1.68-1,2.72-2.23,2.7a2,2,0,0,1-2.16-2,2.39,2.39,0,0,1,2.38-2.43A1.83,1.83,0,0,1,198.93,155.53Z"/><path class="cls-76" d="M191.38,169.89c.71-.56,1.39-.7,2,.11-3.84,2.6-7.52,5.48-11.95,7.09a15.41,15.41,0,0,1-1.81.44c-.08-.76.75-.63,1-1,2.64-1.48,5.48-2.57,8-4.35A23.78,23.78,0,0,0,191.38,169.89Z"/><path class="cls-77" d="M121.46,178.2c-.7.27-1.4-.52-2.09,0a36.68,36.68,0,0,1-13.1-7.89c.41-.89.89-.53,1.38-.08,3.44,3.28,7.6,5.37,11.93,7.16Z"/><path class="cls-78" d="M96.09,155.08c1.42-.17,1.79.9,1.75,2a1.9,1.9,0,0,1-2.06,2,2.08,2.08,0,0,1-2.18-2C93.52,155.9,94.56,155,96.09,155.08Z"/><path class="cls-79" d="M99.69,165.87c-1.12-.12-2-.44-2-1.81a1.82,1.82,0,0,1,2-2c1.1,0,2.07.54,2.07,1.81S101,165.8,99.69,165.87Z"/><path class="cls-80" d="M102.2,132.87c-1.06,2.62-2.21,5.22-1.67,8.19.12.69-.59,1-1.11,1.38-.35-.08-.76-.24-.64-.63.84-2.73.42-5.76,2-8.31a2.58,2.58,0,0,1,1-1.08C102.18,132.37,102.33,132.5,102.2,132.87Z"/><path class="cls-81" d="M198.6,162.58c.07-1.14.5-2.06,1.79-2s1.7.73,1.67,1.92a1.76,1.76,0,0,1-1.93,1.9C199,164.41,198.55,163.67,198.6,162.58Z"/><path class="cls-82" d="M146.86,194.35l.34.1c-.25.58-.75.64-1.28.64q-6.18,0-12.36,0c-.25,0-.5-.21-.75-.33.28-.5.77-.42,1.21-.42Z"/><path class="cls-83" d="M204.85,158.28c-.92-.25-1.9-.46-1.7-1.6a1.92,1.92,0,0,1,2-1.74,1.5,1.5,0,0,1,1.61,1.63A1.78,1.78,0,0,1,204.85,158.28Z"/><path class="cls-84" d="M104.89,158.63c-1.14,0-1.74-.6-1.71-1.71s.93-1.56,1.87-1.58a1.48,1.48,0,0,1,1.56,1.64C106.64,158.15,105.92,158.58,104.89,158.63Z"/><path class="cls-80" d="M102.17,127.25a2.23,2.23,0,0,0,1.36.34c.49.51,1.2.06,1.77.4l-1.43,2c-.75.55-.69,1.77-1.73,2.06a3,3,0,0,1,.06-.67A6.76,6.76,0,0,0,102.17,127.25Z"/><path class="cls-72" d="M102.14,132.06c.7-.58.76-1.7,1.73-2.06a10.72,10.72,0,0,1-1.67,2.87l-.38-.45Z"/><path class="cls-71" d="M180.66,176.49c-.34.35-.68.7-1,1-.5.6-1,.15-1.44,0A5.58,5.58,0,0,1,180.66,176.49Z"/><path class="cls-85" d="M209.49,247.06c4-.31,4-.31,3.87,3.8-.08,2.58-.2,2.66-2.75,2.79-6.45.31-12.91.61-19.36,1A1.84,1.84,0,0,1,189,253a30.5,30.5,0,0,1-.47-4.26c-.1-1.16.71-1.27,1.57-1.29,4.06-.13,8.12-.28,12.18-.37C204.68,247,207.08,247.06,209.49,247.06Z"/><path class="cls-86" d="M156.57,256.05c-1.14,1-2.52,1.73-3.72,2.71s-2.88.6-4.17-.46a32.76,32.76,0,0,0-4.87-3.71c-1-.53-1.48-1.3-.73-2.79a25,25,0,0,0,2.47-6.07,5.54,5.54,0,0,0,2-3.45c.41-1.53,1.63-1.64,2.81-1.7s2.62-.45,3.11,1.3a3.94,3.94,0,0,0,1,1.6c.22.24.57.65.5.86-1,2.9,1.95,4.21,2.64,6.45.54,1.73,1.12,3.1-.62,4.37C156.74,255.32,156.7,255.75,156.57,256.05Z"/><path class="cls-36" d="M112.76,163.7c-.51-.5-.42-1-.3-1.72,1.14-6-1.49-10.61-7.33-12.55-1.53-.51-1.08-1-.43-1.8.26-.94,1.12-1.23,1.86-1.62a12.73,12.73,0,0,1,6.26-1.92,7.94,7.94,0,0,0,2.79-.64,2.76,2.76,0,0,1,1.08-.51c2.72-.93,3.08-.75,4,1.9,1.65,4.82,7.31,7.81,12.88,6.88,4.5-.74,7.93-3.6,8.06-8.2,0-.86.34-1.65,1.51-1.13a.9.9,0,0,0,1.06.19,4.75,4.75,0,0,0,.84-.14c2.84-.44,3.79.38,3.84,3.23a15.87,15.87,0,0,0,.25,4.12,6.22,6.22,0,0,0,.31-2.87c0-3.52.56-4.22,4-4.7,1.14-.15,2.26-1,3.48-.29l1,.12a1.1,1.1,0,0,1,.45.88,8.9,8.9,0,0,0,2.09,5.3,1.36,1.36,0,0,1,.32,1c-1.41.74-2.09-.22-2.61-1.24a13.21,13.21,0,0,1-1-3.08c-.09-.38-.18-.86-.73-.76s-.53.51-.53.94c0,1.44-.33,2.87,1,4.11,2.05,2,2.4,2.07,4.4.27a2.73,2.73,0,0,1,1.46.45,13.43,13.43,0,0,0,12.07-.15c.63-.31,1.23-.94,2.05-.45a27.37,27.37,0,0,1-2.26,5c-.81,1.18-2.35,1.11-3.66.92a38.93,38.93,0,0,0-6-.22c-.73,0-1.65,0-1.63,1.06,0,.92.77,1.21,1.57,1.23,2.58.07,5.16.06,7.74,0a1.52,1.52,0,0,0,1.65-1.41,1.76,1.76,0,0,1,1.53-1.61c2.08-.45,2.72-2,1.69-3.85-.19-.36-.38-.71-.54-1.07a.78.78,0,0,1,.14-1.07,17.7,17.7,0,0,0,2.66-4.31,1.17,1.17,0,0,1,1.93-.52,8.28,8.28,0,0,0,2.77.59,1.61,1.61,0,0,1,2.05.4,17.52,17.52,0,0,0,4.16,1c1.37.17,2.74.37,3.54,1.72l0,.36c-.7,1-1.63.68-2.46.33a2.94,2.94,0,0,0-3.48.55,4.79,4.79,0,0,1-2.91,1.11,1.39,1.39,0,0,0,2,.61c1.14-.56,1.32.07,1.12,1a11.11,11.11,0,0,1-1.93,4.54c-.31.41-.62.92-1.2.85s-.73-.65-.9-1.14-.15-.91-.65-1.13c-1.25,2.11-1.25,2.11-4,1.95a2.37,2.37,0,0,0-1.34.19c-.9.5-1.89,1-1.93,2.19a1.58,1.58,0,0,0,.89,1.71,2.78,2.78,0,0,0,3-.75,8.79,8.79,0,0,1,3.24-2.45c2-.74,3.11.17,2.89,2.39l-.52.36c.15,1.37-.82,2.11-1.7,2.81-2.72,2.19-6,3.08-9.36,3.61A27.86,27.86,0,0,1,161,165.17c-2.66-.95-2.89-1.28-2.95-4.1-.1-4.35-2.27-7.64-5.66-8.53-3.6-1-8.08,1-9.18,4.56-2.07,6.78-7.37,8.77-13.41,9.84a28.07,28.07,0,0,1-13.89-1.33A5.37,5.37,0,0,1,112.76,163.7Z"/><path class="cls-41" d="M190.33,129.62a18.08,18.08,0,0,1,4,8.49c.24,1,0,1.32-1.09,1.25s-2.27-.56-2.67,1a2.38,2.38,0,0,0,1.88,1c2.39.18,3.93,1.62,5,3.62a2.16,2.16,0,0,1,.15,1.35c-.08.79-.7.91-1,.39-1.3-2.07-3.56-2.43-5.54-3.17-3.92-1.44-8.09-1.9-12.2-2.51a125.14,125.14,0,0,0-16.75-1.26c-.86,0-1.71.16-2.56.16-1.68,0-2.2-.69-1.65-2.3.4-1.17-.53-1.17-1.16-1.47-.62-.5-1.41-.38-2.12-.55-1.38-.33-1.73-.83-1.36-2.18.67-2.44,1.46-5.16,3.43-6.54,2.66-1.88,4.6-4.73,8-5.66a23.56,23.56,0,0,1,10-.8c5.54.85,10,3.63,13.79,7.58A5.63,5.63,0,0,0,190.33,129.62Z"/><path class="cls-87" d="M101.75,147.89a1.1,1.1,0,0,1-1.36.72c-.75-.12-.58-.74-.63-1.2-.07-.62-.07-1.24-.1-1.86s.54-.93.84-1.37c1.45-1,2.72-2.18,4.51-2.61,1-.23,1-1.22.12-1.79a2.1,2.1,0,0,0-1.3-.31c-1.33,0-1.76-.59-1.28-1.82.15-.38,0-.8.24-1.15h0c1.08-2.41,2.76-4.48,3.82-6.9v0c1.66-2.4,4.36-1.8,6.66-2.25a29.64,29.64,0,0,0,4.39-1.2.16.16,0,0,1,.24,0,37.61,37.61,0,0,0,11.46-3.88c2.9-1.64,4.41-1.12,7.52,1.39a28.86,28.86,0,0,1,6.4,7.52,3.32,3.32,0,0,1,.45,1.1c.42,1.41.11,2-1.33,2.38a5.69,5.69,0,0,0-3,1.47c-.36.42-.56.73,0,1.1a2.43,2.43,0,0,0,1.34.48c1.63-.06,3.27-.6,4.88.15a9.48,9.48,0,0,1,1.11.44c.65.39,1.08.9.82,1.69s-.87.79-1.55.75c-2.11-.13-4.19-.51-6.31-.65a122.76,122.76,0,0,0-13.7,0c-4.19.2-8.24,1.16-12.38,1.58a3.79,3.79,0,0,0-1,.21c-3.1,1.27-6.33,2.24-9.17,4.09C102.61,146.43,102.33,147.28,101.75,147.89Z"/><path class="cls-88" d="M143.13,142.39c-.52.07-.9.12-1,.85-1.26,7-6,10.31-12.88,8.91-4.83-1-8.47-3.38-9.37-8.66-.12-.7-.54-.59-1-.52l-3.22.48c-.06,0-.13,0-.17,0a1.47,1.47,0,0,1-.21-.22,12.75,12.75,0,0,1,4.43-1.53c5.88-1.06,11.83-.46,17.74-.76C139.32,140.81,141.58,140.53,143.13,142.39Z"/><path class="cls-88" d="M176.82,149.21a14.91,14.91,0,0,1-11.92,2.13,25.77,25.77,0,0,1-3.85-1.75.54.54,0,0,1-.35-.31,8.81,8.81,0,0,1-2.77-7.23c1.93-1.9,4.33-1.41,6.63-1.27,2.54.15,5.07.37,7.61.59s5.09.46,7.64.73c.86.09,1.36.77,1.87,1.38-.88-.08-1.53,0-1.78,1.15-.4,1.9-1.84,3.21-3.1,4.6Z"/><path class="cls-36" d="M186.52,159.5c-.09-1-.74-2.35-1.44-2.27a4.68,4.68,0,0,0-3.64,1.94,3.32,3.32,0,0,1-2.43,1.72c-1,.12-2.2.6-2.77-.89a2.59,2.59,0,0,1,.82-3.45c1.47-1.19,3-.92,4.5-.57.88.21,1.17,0,1.17-.87s-.09-1.66,1-1.62,1,.92,1.06,1.66a1.79,1.79,0,0,0,.55,1.17c1.68-1.66,2.19-3.83,3-6.45-1.87,2.31-2.81.64-3.94-.32a1.1,1.1,0,0,1,1.15-.58,3.55,3.55,0,0,0,2.74-1.22,2.45,2.45,0,0,1,3.13-.52,3,3,0,0,0,2.78.31l.43.39a.76.76,0,0,1-.45.94,12,12,0,0,0-7.11,9.9C187,159.09,187,159.48,186.52,159.5Z"/><path class="cls-89" d="M156.88,135.85c.91.5,2,.72,1.14,2.32-.51,1,.71,1.52,1.67,1.43a73.12,73.12,0,0,1,18.39,1c2.64.44,5.33.59,8,1.09a53.77,53.77,0,0,1,9.21,3c1,.38,1.21,1.44,1.92,2.08a1,1,0,0,0,.18-1.48c-1.52-1.64-2.72-3.77-5.55-3.4-.8.1-1.09-.76-1.18-1.51.8.71,1.83.45,2.75.65a5.09,5.09,0,0,1,4.54,4.91,2.59,2.59,0,0,0,.42,1.27c-1.19,1.26-1.79,1.15-2.29-.4-.08-.23-.35-.4-.53-.6-2.78-2.12-6.14-2.8-9.42-3.44-10.27-2-20.63-3-31.11-2.14-.85.08-1.68.37-2.53.4-.62,0-1.57,1-1.85-.24a2,2,0,0,1,1.08-2.47,5.71,5.71,0,0,1,2.67-.54c.74.06,1.49.08,2.22.2s1.07,0,1.17-.63-.43-.87-1-.93a10.6,10.6,0,0,0-2.73-.22c-1.63.23-2-.4-1.51-1.79.16-.48.1-1,.52-1.43.64.85.07,1.74.1,2.55A11.2,11.2,0,0,1,156.88,135.85Z"/><path class="cls-90" d="M101.75,147.89a2,2,0,0,1,1.19-2.24c1.41-.71,2.57-1.92,4.15-2.26a20.92,20.92,0,0,0,4.4-1.75c2.18-1,4.58-.81,6.86-1.23a73.83,73.83,0,0,1,15.5-1.07,67.09,67.09,0,0,1,11.05.93.36.36,0,0,0,.17,0c.73-.12,1.86.52,2.06-.54s-.85-1.32-1.72-1.49a6.62,6.62,0,0,0-3.72-.09c-.22.08-1.13.63-1-.47,2.61-1.52,4.95-.6,7.2.86a2.07,2.07,0,0,1,1,2.5c-.47,1.11-1.52.41-2.28.29a88.62,88.62,0,0,0-35.38,1.54,9.84,9.84,0,0,0-1.27.5,1.43,1.43,0,0,1-.92.69,32.47,32.47,0,0,0-7,3.75Z"/><path class="cls-91" d="M156.88,135.85c-.22,0-.45,0-.68,0-1,0-2.2.31-3-.25s.33-1.74-.14-2.62c1.82-6.79,6.42-10.89,13-12.53,8.68-2.16,16.12.58,22.37,6.78a6.18,6.18,0,0,1,1.89,2.39c-.6.67-1,0-1.21-.32-1.71-2.13-4.12-3.36-6.15-5-3.09-2.54-6.54-3.18-10.18-3.54a18,18,0,0,0-10.72,2.34c-.09,0-.28,0-.31.1-1.57,2.93-5.51,3.51-6.7,6.73-.38,1.05-.74,2.09-1.21,3.11-.56,1.21-.55,2.23,1.29,2.27A2.32,2.32,0,0,1,156.88,135.85Z"/><path class="cls-88" d="M156.91,141.93c-1.52.26-3,.49-4.54.79a2.52,2.52,0,0,0-2.39,2.8c.05,1.25,0,2.52-.1,3.77,0,.75.26,1.89-.89,1.87s-.74-1.1-.74-1.78c0-1.55,0-3.1.11-4.64.09-1.15-.29-1.65-1.48-1.7a21,21,0,0,1-2.69-.46,2.19,2.19,0,0,1,2.28-.61,3.51,3.51,0,0,0,2.82-.31c1-.58,2,.1,3,.15a4.45,4.45,0,0,0,2.6-.47C155.73,140.84,156.52,140.76,156.91,141.93Z"/><path class="cls-92" d="M143.1,131.38c-1.73-.81-1.7-2.91-3-4-2.17-1.87-3.8-4.4-6.67-5.39a3.16,3.16,0,0,0-2.63.19c-3.51,1.78-7,3.51-11.06,3.93a7.72,7.72,0,0,1-1.86.09c2.52-.91,5.06-1.79,7.57-2.75a32.72,32.72,0,0,0,4.23-1.9,4.59,4.59,0,0,1,4.89.16,23.88,23.88,0,0,1,10,11.43C143.29,133.18,143.65,131.89,143.1,131.38Z"/><path class="cls-88" d="M102.11,147.84a8.06,8.06,0,0,1,3.94-2.94,14.92,14.92,0,0,1,3.94-1.5c1,.1,2-.18,2.83.69-2.75,1.09-5.67,1.76-8.12,3.54-.51,0-.77.41-1.09.72C102.76,149.18,102.36,148.75,102.11,147.84Z"/><path class="cls-93" d="M143.1,131.38c.68.4.59,1.46,1.45,1.71.18.35.39.69.55,1,.51,1.07.2,1.48-1,1.27a7.24,7.24,0,0,0-3.39.29c-.76.25-1.36.63-1.37,1.53-.53.53-.65,0-.83-.33a.62.62,0,0,1,.25-.89,8.59,8.59,0,0,1,2.41-1.55C143.55,133.78,143.53,133.72,143.1,131.38Z"/><path class="cls-94" d="M102.79,136.5a3.91,3.91,0,0,1-.13,1.52c-.11.64,0,1.15.92,1a1.82,1.82,0,0,1,2.26,1.36c.33,1.18-.61,1.51-1.57,1.79-1.38.41-2.17,2-3.77,2a5.42,5.42,0,0,1,4-2.76c.48-.09,1-.32.88-.87s-.6-.55-1.06-.68c-.79-.22-1.87,1-2.28-.14A3.83,3.83,0,0,1,102.79,136.5Z"/><path class="cls-94" d="M117.63,126.18a7.64,7.64,0,0,1-5,1.66,10.19,10.19,0,0,0-6,1.79,3.26,3.26,0,0,1,3.33-2.11C112.54,127.5,115,126.49,117.63,126.18Z"/><path class="cls-94" d="M106.59,129.61a3,3,0,0,1-.71,2.56c-.92,1.15-2,2.16-2.15,3.79,0,.44-.52.57-1,.55A16,16,0,0,1,106.59,129.61Z"/><path class="cls-88" d="M194.2,147.18l-3.54-1.72c1.13-1.16,2.19-.13,3.21.19C194.56,145.87,194.59,146.56,194.2,147.18Z"/><path class="cls-88" d="M186.5,144.47a5.35,5.35,0,0,1-2.05-.4c0-.71.33-1.15,1-.94s2.12-.1,2.37.82S187,144.27,186.5,144.47Z"/><path class="cls-95" d="M194.65,133.15c1,.77,1.2,2,1.48,3.13.33,1.36.45,2.79.67,4.19-.71-.6-.57-1.46-.68-2.23A31.88,31.88,0,0,0,194.65,133.15Z"/><path class="cls-95" d="M199.56,144.22l-.15,0-.14.05a6.83,6.83,0,0,0-2.2-3.51C198.88,141.19,199.37,142.6,199.56,144.22Z"/><path class="cls-96" d="M167.35,186.83c.07,1.37.08,2.75.23,4.12.1.92-.07,1.34-1.11,1.42-3.43.27-6.84.65-10.26,1-.83.08-1.27-.12-1.31-1.08-.12-3-.28-6.06-.5-9.09-.07-.95.32-1.15,1.17-1.22a70.39,70.39,0,0,0,9.71-1.21c1.33-.29,1.76.15,1.78,1.42,0,1.55.17,3.09.27,4.64Z"/><path class="cls-97" d="M108.63,168.94c.09-.27,0-.63.37-.78,1.07-.4,1.73.35,2.43.9A38.21,38.21,0,0,0,122,174.73a59.6,59.6,0,0,0,10.57,3,98.71,98.71,0,0,0,9.85,1.32,99.15,99.15,0,0,0,19-.76,59.92,59.92,0,0,0,11.7-2.68,66.8,66.8,0,0,0,12.31-5.24,25.7,25.7,0,0,0,2.87-2.17c.66-.52,1.37-1.19,2.24-.3l-.53,1c-5.09,4.32-11.12,6.8-17.44,8.51-16.46,4.46-32.92,4.56-49.29-.48A39.18,39.18,0,0,1,108.63,168.94Z"/><path class="cls-73" d="M160.34,194.77c-1.12.64-2.32.26-3.49.27A7.51,7.51,0,0,1,160.34,194.77Z"/><path class="cls-98" d="M190.51,167.88a1.27,1.27,0,0,0-1.51.4c-2.53,2.55-5.74,4-8.95,5.36a82.49,82.49,0,0,1-11.11,3.65c-6.56,1.76-13.23,2.13-20,2.37a84.87,84.87,0,0,1-13.24-1,67,67,0,0,1-12.46-2.86,76.61,76.61,0,0,1-10.19-4.62,5.9,5.9,0,0,1-1.3-1.11,7.22,7.22,0,0,0-2.78-1.94,6.22,6.22,0,0,1,1.75-2c1.25-.43,2.37.17,3.46.58a30.85,30.85,0,0,0,13.58,1.79,26.7,26.7,0,0,0,9.28-2,13.11,13.11,0,0,0,1.92-1.11c1.4-1,2.2-.77,3,.73a8.1,8.1,0,0,0,1.65,2.16c1.61.21,1.72.08,1.42-1.68a25,25,0,0,0-.89-3.29,8.37,8.37,0,0,1,4.81-9.53c2.27-.87,5.56,1.16,6.66,3.83,1.58,3.86.47,7-2.22,9.84-1.14,1.2-1,2,.52,2.6,1.13.1,1.57-.77,2.11-1.49,1.48-2,2.67-2.46,5-1.74,6.3,1.94,12.59,1.49,18.87,0,2-.49,3.65-1.82,5.43-2.8a3.59,3.59,0,0,1,2.24-.7A26.43,26.43,0,0,0,190.51,167.88Z"/><path class="cls-99" d="M112.76,163.7a28.85,28.85,0,0,0,15.5,2.92,21.14,21.14,0,0,0,9.72-3.07,9.84,9.84,0,0,0,4.43-5.85A8.41,8.41,0,0,1,152.87,152c3.44,1,5.86,4.84,5.76,9.06-.06,2.69-.08,2.75,2.51,3.57a28.35,28.35,0,0,0,20.46-.92,9,9,0,0,0,4.4-3.88c1.13.16,1.52.67.8,1.7-.23.31-.6.54-.6,1,0,.94-.61,1.43-1.29,1.88A23.1,23.1,0,0,1,173.58,168a45.54,45.54,0,0,1-9.26-.25,20,20,0,0,1-4.6-1.34,1.78,1.78,0,0,0-2.36.67c-.91,1.15-1.58,2.54-3.05,3.15-.67,0-1.45.26-1.72-.65a1.64,1.64,0,0,1,.64-1.82,8.68,8.68,0,0,0,3-4.69c.79-3.36,0-6.21-2.81-8.36a5,5,0,0,0-4.52-.75,8,8,0,0,0-4.73,5.45,5.23,5.23,0,0,0,0,4.55,5.92,5.92,0,0,0,.78,1.91,2.81,2.81,0,0,1,.16.49c.13.78.93,1.72-.1,2.28s-1.56-.32-2.1-1a8.66,8.66,0,0,1-.86-1.48c-.9-2-.9-2-2.81-.88-8.14,4.69-16.56,4.32-25.12,1.38a2,2,0,0,1-1.39-1.18C112.46,164.88,110.55,164.23,112.76,163.7Z"/><path class="cls-100" d="M154.14,170c1.21-1.34,2.73-2.39,3.44-4.19.43-1.08,1.27-.27,1.89,0a29.71,29.71,0,0,0,23.77-1,7.82,7.82,0,0,0,3-2.27c1.2-1,1.48-.38,1.41.82a29,29,0,0,1-15.2,5.25,34.2,34.2,0,0,1-11.27-1.21c-2.19-.63-3.24-.27-4.62,1.52-.69.88-1.29,2-2.72,1.71C153.58,170.25,153.9,170.15,154.14,170Z"/><path class="cls-101" d="M112.71,165.48a29.3,29.3,0,0,0,22.79,1.17,13.32,13.32,0,0,0,5-2.88c.89-.86,1.19-.69,1.44.51a20.15,20.15,0,0,0,1.21,3.18c.05.55.88.78.63,1.46a3.9,3.9,0,0,1-2.24-2.62c-.45-1.41-1.35-1.23-2.06-.63a15,15,0,0,1-8.32,3.15c-5.16.51-10.36.8-15.41-.95-1.67-.58-3.34-1.14-5-1.71C110.9,164.48,112,165.6,112.71,165.48Z"/><path class="cls-102" d="M143.43,182.05c2.8.49,2.79.49,2.61,3.44-.11,1.88-.21,3.77-.24,5.66,0,1.1-.45,1.49-1.55,1.47-3.32-.05-6.64,0-9.95,0-.88,0-1.34-.13-1.41-1.17-.22-3.19-.53-6.38-.88-9.56-.12-1,.26-.95,1-.83a62.39,62.39,0,0,0,10.39,1Z"/><path class="cls-36" d="M176.8,149.23a3.64,3.64,0,0,1,1.53,4.71c-.37.88-1.1.91-1.86.85-1.06-.08-1.78.1-1.68,1.44.08,1.13-.6,1.66-1.71,1.67-2.86,0-5.73,0-8.59,0a1.83,1.83,0,0,1-2-1.92c0-1.16.84-1.62,2-1.54,2.16.15,4.32-.12,6.49.3,2.44.47,3.89-.64,4.09-3.13.11-1.3,1.57-1.32,1.72-2.4Z"/><path class="cls-36" d="M160.7,149.28l.35.31c.4.9-.29,1.32-.86,1.59a2.2,2.2,0,0,1-2.25-.3c-2.39-1.58-2.81-3.91-2.68-6.48,0-.83.81-.84,1.39-1,.74-.24.87.24.94.82a27.51,27.51,0,0,0,.71,2.81A2.83,2.83,0,0,0,160.7,149.28Z"/><path class="cls-36" d="M159.07,163.21c-.25-1.89.05-3.76-.39-5.59-.17-.75.63-1,1.27-1.07a1.45,1.45,0,0,1,1.72,1.07C162.43,160,161.57,161.91,159.07,163.21Z"/><path class="cls-36" d="M152.8,148.6c.66,0,1.57-.13,1.59.82s-.79,1.26-1.68,1.24-2-.53-2-1.18C150.76,148.55,152,148.61,152.8,148.6Z"/><path class="cls-36" d="M180.37,151c-.45,0-1,.06-1-.64s1.4-2.46,1.92-2.42c1,.07.7.86.76,1.43C182.16,150.62,181.42,151,180.37,151Z"/><path class="cls-36" d="M185.2,146.89c-.91,0-1.73,0-1.69-1s.74-1.21,1.58-1.1c.68.08,1.76,0,1.77.78A1.4,1.4,0,0,1,185.2,146.89Z"/><path class="cls-36" d="M158.14,152.08c-.19.66-.72.66-1.24.63s-1-.22-.93-.78c.05-.78.73-.54,1.19-.56S158.07,151.49,158.14,152.08Z"/><path class="cls-103" d="M130.58,150.7a10.2,10.2,0,0,1-8.57-5.57c-.41-.78-1.15-1.8.14-2.52a2.14,2.14,0,0,1,3.11,1,6.38,6.38,0,0,0,6.63,3.83c2.29-.15,4.14-1.86,4.91-4.57.46-1.61,1.68-.65,2.55-.74s1.28.29,1.18,1.36C140.15,147.79,136.42,150.78,130.58,150.7Z"/><path class="cls-104" d="M168.8,150.16c-3.85-.24-7.07-1.23-8.8-4.9a2,2,0,0,1-.31-.79c0-.81-.66-1.87.26-2.36a4.29,4.29,0,0,1,3-.06c.65.17.42.88.54,1.34a5.71,5.71,0,0,0,7.61,4.06,6,6,0,0,0,3.24-3.38c.5-1.18,3.23-1.74,4.07-.78.42.49,0,.87-.23,1.24C176.17,148.36,172.8,149.93,168.8,150.16Z"/><path class="cls-105" d="M154.14,170l-.34.64a1.27,1.27,0,0,1-1.55-1.22c0-.66-.43-1.38.57-2.07a7.8,7.8,0,0,0,3.18-6,8.39,8.39,0,0,0-1.75-5.19,5.77,5.77,0,0,0-3.65-2c-1.56-.37-4.4,1.74-5.13,3.39a9,9,0,0,0,0,8.28,2.62,2.62,0,0,1,.08,1c-.77.13-.58-.9-1.17-1a1.75,1.75,0,0,1-.59-1.61,8.25,8.25,0,0,1,0-5.13,7,7,0,0,1,4.7-5.4c1.75-.22,3.5-.37,5.07.7,2.83,1.49,4.23,5.59,3.09,9.11a8.37,8.37,0,0,1-3.09,4.6c-.44.3-1,.68-.75,1.38S153.65,169.94,154.14,170Z"/><path class="cls-106" d="M144.36,165.86c.66,0,.75.7,1.17,1,.51,1.72,0,2.29-1.74,2.07-.18-.5-.77-.82-.63-1.46l.73.71c.3.31.66.52,1.05.25s.39-.78.16-1.22S144.61,166.31,144.36,165.86Z"/><path class="cls-106" d="M143.77,159.12a22,22,0,0,0,0,5.13A5.82,5.82,0,0,1,143.77,159.12Z"/><path class="cls-106" d="M153.54,154.42a12.65,12.65,0,0,0-5.07-.7C150.26,153.21,152,153,153.54,154.42Z"/></svg>