<svg id="Layer_1" data-name="Layer 1" xmlns="http://www.w3.org/2000/svg" viewBox="0 0 288.23 288.21"><defs><style>.cls-1{fill:#f13c2f;}.cls-2{fill:#5b745e;}.cls-3{fill:#b1ffff;}.cls-4{fill:#050d12;}.cls-5{fill:#899ccd;}.cls-6{fill:#1b0909;}.cls-7{fill:#060d14;}.cls-8{fill:#0a090e;}.cls-9{fill:#ef3e2e;}.cls-10{fill:#526dc8;}.cls-11{fill:#1e0905;}.cls-12{fill:#919eca;}.cls-13{fill:#c94a47;}.cls-14{fill:#1c0a07;}.cls-15{fill:#f4cec9;}.cls-16{fill:#929bc1;}.cls-17{fill:#170a0b;}.cls-18{fill:#d6e6a0;}.cls-19{fill:#d6e5a0;}.cls-20{fill:#230a07;}.cls-21{fill:#5e725d;}.cls-22{fill:#613c2f;}.cls-23{fill:#693928;}.cls-24{fill:#5e3e2d;}.cls-25{fill:#5e3b2e;}.cls-26{fill:#5e382e;}.cls-27{fill:#5d3831;}.cls-28{fill:#f13a38;}.cls-29{fill:#82bee3;}.cls-30{fill:#be5455;}.cls-31{fill:#ac4444;}.cls-32{fill:#7a8b94;}.cls-33{fill:#7fbfe9;}.cls-34{fill:#21241d;}.cls-35{fill:#8ab6d0;}.cls-36{fill:#22231d;}.cls-37{fill:#e8c950;}.cls-38{fill:#21231c;}.cls-39{fill:#c9ba7a;}.cls-40{fill:#cd4842;}.cls-41{fill:#80bee3;}.cls-42{fill:#bc413b;}.cls-43{fill:#0c0f0a;}.cls-44{fill:#161516;}.cls-45{fill:#f4cdc6;}.cls-46{fill:#f4cec6;}.cls-47{fill:#1d1c17;}.cls-48{fill:#232225;}.cls-49{fill:#d3d4d5;}.cls-50{fill:#b3b0b0;}</style></defs><path class="cls-1" d="M269.25,71a138.06,138.06,0,0,1,16.39,41.75,96.12,96.12,0,0,1,2.53,25c-.37,9.62.72,19.28-1,28.86a151.11,151.11,0,0,1-3.81,17,23.87,23.87,0,0,1-7.95.19,69.5,69.5,0,0,0-9.23-.36c-13.16.3-26.3-.42-39.45-.67-8.32-.15-16.66.11-25-.42-9.16-.59-18.32-.06-27.46-.51-5-.25-10-.34-15-.43-2.8-.06-3.44-.6-3.34-3.44a127.4,127.4,0,0,1,2.73-22.27c2-9.31,4.77-18.41,9.3-26.83,2.84-5.28,6-10.36,8.05-16,1.49-4.25,3.07-8.45,3.55-13a11,11,0,0,0-.31-5.17c-.67-1.76.07-2.68,1.73-3.13a23.14,23.14,0,0,0,2.89-.76c1.68-.7,1.95-2.09.53-3.22a2.81,2.81,0,0,1-1.2-3c.28-1.37-.43-1.82-1.66-1.79a3,3,0,0,1-2.77-1.33c-.93-1.33-1.84-.76-2.52.32a9.39,9.39,0,0,0-1.3,6.46c.51,3.63.28,4-3,5.11a19.86,19.86,0,0,0-9.12,6.28c-5,5.86-7.67,12.83-9.77,20.06-2.9,9.95-4.07,20.16-4.82,30.49-.58,7.93-.09,15.8.1,23.69,0,1.68.56,3.29.49,5-.12,2.61-.79,3.15-4.43,3.4-2.15.15-3-.47-3.35-2.76a114.37,114.37,0,0,1-1.58-14.63,144.77,144.77,0,0,1,2.92-38.45c1.24-5.51,3-10.93,3.69-16.54.45-3.35.26-6.66-2-9.47-1-1.23-.79-2.25.51-3.15s2.91-1.94,4.34-2.93c.76-.52,1.53-1.08,1.4-2.18s-1.1-1.08-1.88-1.23c-1.4-.27-1.51-1.26-1.55-2.43-.11-2.88-1-3.36-3.2-1.78a2.21,2.21,0,0,1-2.73.12c-2.43-1.39-3.47-.78-3.57,2a18.85,18.85,0,0,0,.77,7.39,3,3,0,0,1-1.28,3.86c-3.23,2.31-5.12,5.61-6.56,9.24-3.24,8.15-4.53,16.72-4.88,25.39-.56,13.6.27,27.13,3.51,40.42.23,1,.51,1.93.78,2.89.88,3.09.11,4.31-3.05,4.39-3.5.09-7,.14-10.47.54-4.88.56-9.8.33-14.68.93-2.94.37-5.63.14-7.36-2.85a8.66,8.66,0,0,0-3.2-2.75,9.86,9.86,0,0,0-4.43-2.2c-2.55-.54-4.46.79-4.65,3.41-.15,2.1-1.08,3-3.14,2.95q-4.12-.06-8.25,0A3.43,3.43,0,0,1,67,180.07a38.31,38.31,0,0,1-2.18-6.37c-.43-1.86.28-2.62,2.22-2.69a26.71,26.71,0,0,1,3,.33c2.31.17,2.85-.3,3-2.56.05-1.08,0-2.16,0-3.25A2.31,2.31,0,0,1,75.67,163l1.75,0c3.4-.07,4-.75,3.45-4.07a13.41,13.41,0,0,0-3.68-7c-11.88-13.35-31.5-13.57-43.24-1.38A40.23,40.23,0,0,0,22.4,178.39c0,.58,0,1.16,0,1.74-.11,2.88-.76,3.67-3.56,3.63-3.59,0-7.12.81-10.72.55-1-.08-2,.08-2.85-.64A77.52,77.52,0,0,1,.91,163.75C-1,140.05-.55,116.55,8.21,93.9c6.62-17.09,15.54-32.73,27.91-46.32,1.06.58,1.29,1.71,1.73,2.67a24.74,24.74,0,0,0,7.72,9.61,12.18,12.18,0,0,0,7.36,2.63c7.81.1,15.41-.88,22.55-4.31,5.87-2.83,9-7.89,10.35-13.88,1.77-8-.92-15.38-5-22.26a10.36,10.36,0,0,0-3.37-3.28c-.88-.58-2-1-2.31-2.15A137.21,137.21,0,0,1,113.78,2.15a82.09,82.09,0,0,1,20.55-2c5.66.17,11.34.27,17,0C165-.6,178.12,2.29,191,6.68a143.62,143.62,0,0,1,62.78,42.4c.38.43.69.93,1,1.39-.37,2.79-2.13,5-3.38,7.34-4.43,8.29,1.76,13.53,8.05,14.1A22.74,22.74,0,0,0,269.25,71Z"/><path class="cls-2" d="M283.07,184.57a142.75,142.75,0,0,1-40.36,65.08,33.09,33.09,0,0,0-10.78,2.8c-.65.33-1.44.77-2.09.17s-.2-1.42,0-2.09c1.77-4.75,3.68-9.43,5.52-14.15,1.29-3.29,1.11-3.6-2.44-4-7.66-.86-15.28-2.12-22.94-3a4.47,4.47,0,0,1-1.67-.45.87.87,0,0,1-.41-.65c.51-2-.74-2.74-2.4-2.91-5-.51-9.93-.83-14.91-1.06-3.2-.15-3.13-.19-4.34-3.26s-2.75-6-5.82-7.87a12.25,12.25,0,0,1-4.72-5,3.4,3.4,0,0,0-1.64-1.8,12.87,12.87,0,0,1-5.77-5.67c-.54-.89-1-1.78-2.25-1.63-2.29.28-3.61-1.12-4.66-2.76s-2-3.25-4-3.89c-.58-.18-.78-.83-1-1.4a20.92,20.92,0,0,1-.55-6.45c.07-2,1.08-3.12,3.1-3.12a68.18,68.18,0,0,1,9.48.2,20.31,20.31,0,0,0,3.48.25c11.06-.29,22.11.65,33.17.5s22.28.43,33.42.67c8.48.18,17,0,25.44.41,5.57.26,11.13.42,16.7.45A3,3,0,0,1,283.07,184.57Z"/><path class="cls-2" d="M82.28,274.46A143.11,143.11,0,0,1,22.76,222.4,133.65,133.65,0,0,1,5.63,185.19c.83-1,2-.74,3-.76a91.9,91.9,0,0,0,10.22-.4c2.72-.38,3.47.4,4,3.5,1.56,8.7,5.23,16.28,11.81,22.33,5.53,5.08,11.86,8.22,19.57,8,7-.16,6.53.42,6.86,5.85a49.15,49.15,0,0,0,1.84,9c1.73,6.84,5,9.48,12,9.59,7.83.12,15.65.19,23.41-1.16,1.29.1,1.74,1.11,2.21,2.09.61,1.25.28,2.07-1.11,2.39a13.12,13.12,0,0,0-2.6.83C95,247.43,93.85,248.8,94,251c.06.86.11,1.71-.62,2.29-4.94,4-6.57,9.8-8.66,15.37a33.35,33.35,0,0,0-1.2,3.79C83.32,273.23,83.23,274.12,82.28,274.46Z"/><path class="cls-3" d="M75.16,16.61c5.86,2.68,8.62,7.68,10,13.62.53,2.23,1.33,4.36,1.67,6.69,1.21,8.23-2,14.95-7.89,19.87-4.46,3.7-10.41,5.33-16.38,5.82-2.65.22-5.3.4-7.94.61-6.35.52-10.54-3-14.2-7.32a21.87,21.87,0,0,1-4.33-8.32A136.18,136.18,0,0,1,75.16,16.61Z"/><path class="cls-4" d="M283.07,184.57l-43.18-.82-5.25-.07c-13.81-.22-27.63-.39-41.45-.67-10.39-.21-20.78-.55-31.18-.83-1.16,0-2.33,0-3.49,0-1.38,0-1.94.63-1.84,2,.19,2.49.29,5,.43,7.46-.48,1.68-1.18,1.1-1.91.19a6.25,6.25,0,0,1-.67-2.64c-.9-21.23,2.34-41.67,11.83-60.84,2.55-5.14,5.74-10,7.84-15.32,1.86-4.74,3.52-9.55,3.75-14.69.14-3.28-1.17-4.38-4.43-3.75-4.61.89-7.87,3.79-10.56,7.43-4.65,6.28-7.13,13.54-9.08,21a139.35,139.35,0,0,0-4.07,30.33,200.12,200.12,0,0,0,2.44,39,8.08,8.08,0,0,1,.06,2.25,2.09,2.09,0,0,1-.52,1.15c-1.43.52-1.6-.67-2-1.5a60.88,60.88,0,0,1-1.54-8.78c-.29-2.09-1.51-1.91-3-1.7-1.8.24-1.57,1.3-1.28,2.51.5,2.1,1.17,4.14,1.83,6.19a5.36,5.36,0,0,1,.29,3.86,1.05,1.05,0,0,1-1.42.48,6.47,6.47,0,0,1-1.84-3.48,110.31,110.31,0,0,1-4.34-22.51c-.38-4.73-.88-9.48-.86-14.19A139.33,139.33,0,0,1,142.34,120c1.23-4.47,2.52-9,2.13-13.76-.16-2-.11-4.27-2.29-5.16s-4.29,0-6,1.8a22.1,22.1,0,0,0-4.95,8.87,86.07,86.07,0,0,0-3.87,20.55,132.36,132.36,0,0,0,2.61,39c2.07,9.7,4.75,19.29,11.57,27,.59.81,2.08,1.41.59,2.71s-2.3.49-3.15-.69c-3.58-4.16-5.92-9-8-14.05-.7-1.72-1.6-2.54-3.48-2.48-7.23.24-14.44.78-21.64,1.29a41.48,41.48,0,0,1-7.72,0c-3-1.19-4.74-3.79-6.85-6a1.09,1.09,0,0,1,0-1.58A13.89,13.89,0,0,1,95.9,182a2.61,2.61,0,0,0,2.53,1.16q14.7-.84,29.41-1.63c1.63-.09,2.12-.65,1.63-2.37-5.08-17.78-6-35.88-3.77-54.16a55.44,55.44,0,0,1,5.72-19.78A14.51,14.51,0,0,1,137,99a1.32,1.32,0,0,0,.71-2,19.5,19.5,0,0,1-1.08-7.61c0-1.5-.22-3.24,1.38-4s3.23,0,4.3,1.69a18.68,18.68,0,0,1,1.79-1.9,2.4,2.4,0,0,1,2.6-.1c1.29.54,1.22,1.73,1.08,2.79-.18,1.38-.5,2.61,1.67,2.33a1.49,1.49,0,0,1,1.72,1.44,2.47,2.47,0,0,1-1,2.64q-2.7,1.78-5.39,3.6c-.49.33-1.42.48-.56,1.4,3.61,3.92,3.18,8.62,2.17,13.21-2,9.09-4.4,18.1-5.51,27.37a148.4,148.4,0,0,0,.87,39.55c.25,1.7.86,2.4,2.79,2,3.84-.73,3.82-.6,3.46-4.63-1.51-17.19-1-34.29,2.76-51.17,2.14-9.7,5.13-19.14,11.81-26.91,2.79-3.25,6.08-5.7,10.37-6.46,1.74-.3,1.88-1.23,1.63-2.67-.5-2.74-.58-5.48.86-8,1.36-2.39,2.87-2.46,4.19-.09.59,1.07,1.19.52,1.86.42,2.3-.32,2.93.29,2.47,2.59-.23,1.13-.62,2.06,1,2.46a1.84,1.84,0,0,1,1.23,2.21,2.43,2.43,0,0,1-1.78,2.19c-1.58.5-3.79.38-4.65,1.42s.9,2.87.79,4.58c-.42,6.5-2.58,12.49-4.92,18.48-2.53,6.46-6.82,12-9.48,18.39a122.45,122.45,0,0,0-9,37.19c-.2,2.4-.24,4.82-.45,7.22-.12,1.47.29,2,1.9,2,12,.14,24,.37,36,.6q25.11.47,50.2,1c11.91.24,23.81.54,35.71.83,1,0,2-.24,2.89.45C283.26,183.87,283.17,184.22,283.07,184.57Z"/><path class="cls-5" d="M184.21,282.7a63.6,63.6,0,0,1-12.48,2.93c-.93.19-1.13-.55-1.45-1.13-1-3.56-.8-7.26-1.21-10.89-.21-1.9-.84-2.1-2.54-1.72a72.53,72.53,0,0,1-30.66.26c-2.78-.56-5.49-1.39-7.18-4a5.39,5.39,0,0,0-3.17-1.9c-4.21-1.29-8.4-2.66-12.59-4a2.77,2.77,0,0,0-2.62.15,3.31,3.31,0,0,1-4.17-.16c-1.57-1.2-2.77-.66-3.83.69-2,2.53-2.81,5.63-4,8.53-.42,1,.22,1.75,1,2.34a8.58,8.58,0,0,0,3.12,1.53c1.44.34,2.42,1,2.54,2.61s1.33,2.19,2.48,2.89,2.11,1.72.89,3.21a133.1,133.1,0,0,1-24.57-8.83c-.08-3.88,1.5-7.29,3.06-10.69.48-1,1.35-1.16,2.28-.48a10.73,10.73,0,0,1,2.72,2.9c.67,1,1.33,1.22,2,.08a36.83,36.83,0,0,0,3.93-8.35,2.87,2.87,0,0,0-.75-2.75,12.5,12.5,0,0,1-1.81-2.68c-1.34-3.38.2-6.25,3.75-7,1.79-.35,2.55.19,2.35,2-.22,1.94,1,3,2.24,3.89a45.41,45.41,0,0,0,12.75,6.77A104.74,104.74,0,0,0,142.94,264c12.85,1,25.63.67,38.25-2.18,6.92-1.56,13.73-3.51,19.51-7.95,1.23-.94,2.25-1.86,2.19-3.64s1-1.67,2.23-1.17a5.44,5.44,0,0,1,3.06,6.23,5.76,5.76,0,0,0,1.42,5.27c.59.7,1.06,1.5,1.66,2.19a4.61,4.61,0,0,1,.29,6.36,1.63,1.63,0,0,1-1.37.66c-2.33-1.6-3.59-4.09-5.16-6.3-1-1.46-2.08-1.89-3.77-1.3-6.27,2.17-12.47,4.56-18.79,6.6-1.18.38-1.83,1-1.43,2.37a62.36,62.36,0,0,1,1.43,7.83A6.43,6.43,0,0,0,184.21,282.7Z"/><path class="cls-6" d="M91.23,177.56c1.11,2.82,3.76,4.28,5.67,6.39.27.3.59.55.89.83,2.31,3,2.41,6.48,1.77,10-1.27,6.93-5.78,11.67-11.08,15.77a43.58,43.58,0,0,1-13.87,6.74c-2.74.87-2.87,1.13-2.44,3.94a63.18,63.18,0,0,1,.76,6.44,8.24,8.24,0,0,0,8,7.78,43.05,43.05,0,0,0,7.45-.62,66.7,66.7,0,0,1,7.73-.39c1.81-.26,3.78.74,5.45-.68.06-.84-.61-2,.62-2.37s2,.56,2.48,1.55a10.16,10.16,0,0,1,1.16,3.26c0,2.1.47,4.28-1,6.14-1.26,1.57-2.16,1.44-3.14-.44-.9-1.13-2-.34-3-.26a76.23,76.23,0,0,1-7.59,1.2c-6.72.41-13.46.92-20.16-.22a9.69,9.69,0,0,1-8.09-7.54c-1.27-4.64-2.55-9.32-2.63-14.19,0-1.63-.54-2.48-2.37-2.27-17.47,1.94-30.57-11.82-34.53-26.18a38.56,38.56,0,0,1-1.17-5.61c-.21-1.83-1.05-2.39-2.8-2.15a101.21,101.21,0,0,1-13.71.53,1.88,1.88,0,0,1-.37-1.52c4.4-.17,8.81-.48,13.22-.45,2.45,0,3.29-.65,3.22-3.25a41.71,41.71,0,0,1,8-25.73c12.37-17.59,37.26-17.81,50-.42a12.06,12.06,0,0,1,2,7.8,1.8,1.8,0,0,1-1.85,1.93c-.49,0-1,0-1.49,0-4.58.05-4.58.05-4.66,4.51-.06,3.9-.5,4.28-4.37,3.86-4.59-.5-4.59-.5-3.2,3.74,2,6,2,6,8.34,5.93l2.5,0c3.73,0,3.73,0,4.33-3.58.31-1.87,1.63-2.65,3.34-2.8A8.37,8.37,0,0,1,91.23,177.56Z"/><path class="cls-7" d="M102.65,234.05c-.73,1.65-2.21.92-3.4,1a30.12,30.12,0,0,1-3.15,0,38.7,38.7,0,0,0,2-3.91A5.1,5.1,0,0,1,103,228c3.3-.13,6.57-.84,9.89-.57a10,10,0,0,0,4.31-.95c1.49,1,1.92,2.78,3.12,4a1.09,1.09,0,0,1-.06.71,1.61,1.61,0,0,1-1.18.19c-.59-.06-1.34-.84-1.73.05a2.91,2.91,0,0,0,.47,2.36c.35.68.83.23,1.19-.09a8.46,8.46,0,0,1,2-1.52c.47-.18,1-.39,1.4,0a1.65,1.65,0,0,1,.18,1.13,7.2,7.2,0,0,1-3.3,3.92c-2,1.12-2.91.81-4-1.28-.21-.43-.27-.95-.85-1.3-2.31,1.82-4,4.24-5.8,6.45-1.6,1.92-2.85,4.11-4.44,6-1.16,1.4-.93,2.52.41,3.62a32.92,32.92,0,0,0,8.37,4.91c9.87,4.1,20.21,6,30.83,6.81a124.77,124.77,0,0,0,14.46.4c11.26-.41,22.41-1.66,33-5.8a31.16,31.16,0,0,0,8.09-4.4,2.64,2.64,0,0,0,.73-3.9,29.71,29.71,0,0,0-8.76-9.76c-.42-.29-.85-.53-1.24-.85-.55-.45-1-1-.65-1.72a1.38,1.38,0,0,1,1.9-.7c1.9.62,3.87,1,5.79,1.55,2.08.6,4.2,1.05,6.3,1.58,1.73.43,2.42-.63,3-1.9a.6.6,0,0,0-.25-.84.63.63,0,0,0-.48-.1c-.52.16-.27.5-.12.75a1.23,1.23,0,0,1-.51,1.89,1.85,1.85,0,0,1-2.09-.37,5.46,5.46,0,0,1-2.4-4.71c.14-2.79.85-5.44,3.34-7.21a4,4,0,0,1,4.08,1.64l.23.51c-.69.83-1.63.6-2.52.6a2.63,2.63,0,0,0-2.89,2.84c0,2,1.39,1.93,2.75,1.95s2.82,0,4.06.79a1.94,1.94,0,0,1,.68.89,7.12,7.12,0,0,1-7.26,6.05,19.05,19.05,0,0,1-5.27-1.14,26.32,26.32,0,0,1,2.64,3.35,6.72,6.72,0,0,0,4.58,3.42c2.8.55,4.88,2.73,4.56,5.47-.58,4.92,2,8.11,4.8,11.42.22,1.81-.89,3.11-1.74,4.5a1,1,0,0,1-1.67.35c2.7-3.42-.14-5.65-1.86-8-1.39-1.88-2.46-3.48-1.62-6.07a4.68,4.68,0,0,0-2.77-5.54c-.8-.31-1.84-.71-1.29.9s-.19,2.37-1.36,3.31c-7.28,5.84-16,8.15-24.84,9.62-20.29,3.35-40.44,2.68-60.18-3.53-5.72-1.8-11.23-4.24-15.49-8.71-.84-.89-2.33-1.72-.82-3.5.77-.92-.66-.88-1.1-.84a5.05,5.05,0,0,0-4.28,2.62,4.19,4.19,0,0,0,1,4.76c2.18,2.19,3,4.17,1.25,7A78.81,78.81,0,0,0,94,268.22c-.72,1.43-1.46,1-2.2,0s-1.5-2.19-2.3-3.24c-1.09-1.44-1.95-1.69-2.59.42-1,3.25-2.11,6.45-3.18,9.68l-1.44-.66A73.5,73.5,0,0,1,88,259.07c1.19-2.3,2.47-4.53,4.71-6a1.53,1.53,0,0,0,.82-1.38c.12-4.35,1.62-5.95,6-6.55l1.16-.17c-.68-1.21-.61-2.66-2-3.33a3,3,0,0,1,3.52-.77c-.29.9-.91,2,.28,2.55s1.68-.57,2.25-1.34a24.74,24.74,0,0,0,1.29-2.37,63.72,63.72,0,0,1,6.11-7.22c.47-.43,1.09-1,.75-1.7s-1.17-.56-1.79-.42a27.09,27.09,0,0,1-6,.39,16.51,16.51,0,0,0-2.22.21c-1,.15-1.87.4-2.06,1.48C100.6,233.83,102.1,233.44,102.65,234.05Z"/><path class="cls-8" d="M108.29,284a2.05,2.05,0,0,0-1.61-2.92c-1.19-.33-2.45-1.1-2.4-2.25.12-2.39-1.45-2.67-3.07-3.25a17.35,17.35,0,0,1-3-1.65,1.73,1.73,0,0,1-.82-2.36c1.5-2.87,2.24-6.1,4.07-8.81s2.7-2.78,5.22-.94c1.14.84,2.12,1.24,3.26.05,1-1,2.12-.73,3.26-.36l13,4.2c1.29.41,2.73.9,3.21,2.18.77,2.09,2.52,2.61,4.25,3a68.44,68.44,0,0,0,33.08.22c2.82-.68,2.74-.82,2.91,2,.21,3.81,1,7.57.92,11.41-1.65,2-4.18,1.94-6.33,2.18-10.44,1.18-20.9,1.44-31.31-.42a18.68,18.68,0,0,1-2.69-.59,4.78,4.78,0,0,0-4.71.46,3.79,3.79,0,0,1-3.35.47l-3.46-.58a45.72,45.72,0,0,1-4.87-1.51,5.74,5.74,0,0,0-4.67-.42Z"/><path class="cls-9" d="M219.52,267.18a48.64,48.64,0,0,1-7.38,4.24c-.48-.78,0-1.42.29-2.08,1.92-3.66,3.56-7.46,5.51-11.12,3.45-6.45,6.56-13.08,10-19.55.64-1.22.45-1.73-1-1.93-4.2-.58-8.42-.91-12.63-1.38C211,235,207.93,234,204.64,234a1.8,1.8,0,0,1-1.86-2.38c.29-1.4.82-2.82,2.74-2.59,3.55.43,7.11.79,10.64,1.37,5.58.92,11.24,1.33,16.81,2.38,2.68.52,2.92,1,2,3.52-2.09,6-5,11.64-6.66,17.76a2.76,2.76,0,0,1-1,1.43C223.43,258.53,221.33,262.76,219.52,267.18Z"/><path class="cls-10" d="M269.25,71c-.42,1.19-1.53,1.22-2.47,1.32-5.47.58-10.93,1.23-15.24-3.5a8.17,8.17,0,0,1-1.49-9.76c1.44-2.91,2.52-6.06,4.71-8.58A111.84,111.84,0,0,1,269.25,71Z"/><path class="cls-11" d="M219.52,267.18c.2-4.26,2.61-7.48,5.39-10.29a13.79,13.79,0,0,0,3.57-5.61c1.67-5,3.77-9.93,5.81-14.84.8-1.92.87-2.76-1.69-3.08-9-1.13-18.06-2.55-27.09-3.9-1.86-.27-1.9,1.19-2.24,2.27-.41,1.31.4,1.73,1.59,1.86q11,1.23,22,2.51c2.9.33,2.86.36,1.51,3-2.91,5.69-5.75,11.42-8.63,17.12a6.49,6.49,0,0,1-1.53,2.54c-.88-1-.05-1.87.27-2.75.83-2.33,2.55-4.33,2.56-7a4.17,4.17,0,0,1,1.27-2.46c2.25-2,3.13-4.86,4.38-7.45.69-1.44-.64-1.76-1.82-1.86-4.38-.39-8.75-.95-13.11-1.51a5.22,5.22,0,0,1-2.12-.67,13.64,13.64,0,0,0-4.92-.51c-1.94,0-2.69-1-2.57-2.83s1.62-3.5,3.14-3.37c1,.09,2,.11,3,.16l21.46,2.78c1.73.22,3.45.6,5.18.65,2.34.06,2.62,1,1.81,3-2.2,5.38-4.3,10.8-6.43,16.2-.14.37-.25.74-.51,1.52,3.57-1.66,6.81-3.08,10.39-3.38.87-.08,1.78-.55,2.52.33l-1.19,1.06c-2.1,1.29-4.6,1.34-6.84,2.27-6.1,2.55-10.19,7-13,12.85Z"/><path class="cls-7" d="M184.21,282.7c-1.13.15-1.83-.12-2.07-1.44-.69-3.74-.77-7.6-2.12-11.22-.32-.87.32-1.19,1-1.42q10.68-3.76,21.37-7.53a1.77,1.77,0,0,1,2.32.81c1.79,2.59,3.65,5.14,5.47,7.7.8,1.25.23,2-.95,2.45-2.06,1.77-4.72,2.32-7.12,3.36C196.19,278,190.37,280.77,184.21,282.7Z"/><path class="cls-12" d="M122.18,286.65c1.58-.23,3.14-.49,4.1-2,.43-.67.94-.72,1.7-.48,10.48,3.31,21.26,3,32.05,2.56a35.08,35.08,0,0,0,10.54-2.2l1.16,1.08A72.57,72.57,0,0,1,154.11,288c-8.53.16-17.08.56-25.6-.41C126.4,287.34,124.29,287,122.18,286.65Z"/><path class="cls-13" d="M221.67,265.83c1.28-5.59,5.1-9.09,9.77-11.89a23.1,23.1,0,0,1,10.08-3.23l-4.34,3.93c-5.83,1-9.79,4.4-12.54,9.44Z"/><path class="cls-14" d="M209.21,272.05c.44-.77,1.17-1.42.95-2.45l.85-.55c2.25-1,2.47-3.16,3.11-5.1-.57-1.52.36-2.75,1-3.92,1.67-3.2,3.41-6.37,5-9.61.31-.64.6-1.39,1.52-1.44.35,2.84-1.73,4.84-2.53,7.27-.28.84-1,1.54-.85,2.51q-3,6.33-6.1,12.66C211.15,271.53,210.55,273.51,209.21,272.05Z"/><path class="cls-15" d="M224.64,264.08c2.09-5.92,6.05-9.35,12.54-9.44Z"/><path class="cls-16" d="M109.18,284.14a2.4,2.4,0,0,1,3.47-.71c1.94,1,4,1.77,6.07,2.64A70.09,70.09,0,0,1,109.18,284.14Z"/><path class="cls-17" d="M208.06,228.05l-3.8-1.43c-4,.3-7.95-.52-11.94-.56-.41,0-.82-.16-1.23-.2-3.41-.34-6.31-.09-9.37,2.42-5.2,4.25-11.69,6.3-18.24,7.75a5.94,5.94,0,0,0-4.53,3.44c-1,2.18-2.31,4.24-3.45,6.37-1.22,2.28-2.16,2.59-4.45,1.39-4.27-2.25-8.68-4.31-12.56-7.2a3.88,3.88,0,0,0-5.36.05c-1.92,1.46-4,2.64-6,4-2.73,1.85-4.57,1-4.47-2.35.09-2.89-1-5.77,0-8.65,1.58-.13,1.65,1.08,1.71,2.1.09,1.72.52,3.39.64,5.11.09,1.24.68,2,1.85.68,4-3.47,8.23-5.94,14.05-5.68a73.91,73.91,0,0,0,32.62-5.72,33.33,33.33,0,0,0,7.08-4.12c.25-.22.52-.42.77-.64,3.67-3.32,3.57-6.83-.55-9.68-2.63-1.82-5.29-3.47-6.6-6.57a1.52,1.52,0,0,0-.9-.82c-2.64-.9-4-3.14-5.51-5.24a3.61,3.61,0,0,0-3-1.86c-2.3-.08-3.35-1.94-4.6-3.49a4.6,4.6,0,0,1-.4-.58c-.32-.47-.45-1.07-1-1.37-.6,2.14.41,6,2.05,7.79a1.39,1.39,0,0,1,.18.75c-.27,1.17-1.26,1.51-2.21,1.75a54,54,0,0,1-5.61,1.11c-1.43.22-2.55-.16-2.2-2a11.1,11.1,0,0,1,.29-1.61c.66-1.25-.34-3,1.27-4,1.27.57,1.19,1.88,1.59,2.93.28.75.63,1.41,1.59,1.13s1-1,.83-1.8c-.44-2-.86-4.06-1.23-6.1-.18-1-.5-2.13.42-3,.72.53,1-.14,1.41-.49a6.62,6.62,0,0,1,4.67,4c.84,1.76,2.1,3.72,4.85,2.56,1.1-.46,1.5.68,2,1.48,1.54,2.66,3.06,5.35,6.4,6.16a1.62,1.62,0,0,1,1.1,1.27c.71,2.71,2.73,4.29,5,5.66,3.49,2.13,5.12,5.52,6.14,9.23.31,1.14.73,1.5,1.79,1.57,5.23.33,10.45.75,15.67,1a5.86,5.86,0,0,1,3.91,1.35C209.59,226.86,209.47,227.64,208.06,228.05Z"/><path class="cls-2" d="M117.67,226.5a5,5,0,0,1-4.35,1.71c-3.39-.08-6.79.13-10.17.38-3.11.22-4.63,1.5-4.92,4.55-.15,1.66-1.44,1.27-2.13,1.91-5,.34-10.1.82-15.15,1a8.55,8.55,0,0,1-8.72-7.88,70.11,70.11,0,0,0-1-7.9c-.34-1.72.06-2.75,2.16-3.35,8.48-2.4,16-6.39,21.53-13.6,4.37-5.71,5.37-11.82,2.84-18.52,10-.56,20.09-1.07,30.13-1.72,2-.12,2.85.42,3.55,2.38a43.46,43.46,0,0,0,8.26,14.68c.46,1.06-.25,1.72-.84,2.4s-1.4,1.43-2,2.24c-1.85,2.57-2.45,2.74-5,1-1.54-1.05-2.94-1.72-4.83-.85-1.33.61-2.45-.14-3.23-1.24-1.1-1.56-2.43-2.17-4.29-1.44a2.58,2.58,0,0,1-3.12-.91c-.4-.47-.71-1.16-1.54-1-.1,3.49,1.45,5.63,4.53,6.26a3.14,3.14,0,0,1,1.2.32,10.92,10.92,0,0,0,8.61,2.29c2-.33,2.85,1.33,1.59,2.84-4,4.79-8.1,9.49-12.26,14.15A1.26,1.26,0,0,1,117.67,226.5Z"/><path class="cls-18" d="M155.7,192.12a34.31,34.31,0,0,0,1.67,9.54c.38,1.39.15,1.91-1.3,2.13-1.28.18-2.46.79-2.62-1.29a21.37,21.37,0,0,0-.8-3.39c-1.6-1.3-.59-3.09-.89-4.64-1.46-10.29-2.75-20.6-2.81-31-.12-18.25,1.25-36.25,8.59-53.28,2.3-5.31,5.18-10.26,10-13.74a12.45,12.45,0,0,1,8.11-2.72c2.2.12,3.29,1.16,3.19,3.48a42.41,42.41,0,0,1-2.37,11.69,104.66,104.66,0,0,1-8.61,18.23C161.71,138,158.6,150,156.61,162.31A108.28,108.28,0,0,0,155.7,192.12Z"/><path class="cls-19" d="M141.2,199.21c-6.44-7.39-9.41-16.38-11.54-25.66a134.94,134.94,0,0,1-2.41-47.86c.88-6.78,2.24-13.5,5.64-19.55,1.59-2.82,3.12-6,7.2-6.08,2.89-.07,4,.57,4.79,3.44a20.27,20.27,0,0,1-.35,10.37c-3.44,13.06-6.14,26.25-6.19,39.82s1,26.78,5.23,39.68c.36,1.1.83,2.17,1.25,3.25C144.5,198.81,143.8,199.31,141.2,199.21Z"/><path class="cls-20" d="M141.2,199.21a4,4,0,0,0,3.62-2.59,1.1,1.1,0,0,0,1-.66,2.33,2.33,0,0,1,1.32-.45c1.53-.67,3,.41,4.54.09l.12-1.13c.3,1.55.59,3.09.89,4.64-1.09,1.16.11,2.81-.83,4-1.79-.85-1.54-2.61-1.72-4.09s-.78-1.54-1.78-.94c-2.78,1.65-5.65,3.2-8,5.53-1.59,1.62-1.47,2.18.56,3.33.65.38,1.39.57,2,1s1.15.81.86,1.59a1.55,1.55,0,0,1-1.83,1,5.36,5.36,0,0,1-1.86-.69c-1.64-.87-3.27-1.66-5.22-1.19a1.79,1.79,0,0,1-1.22-.16c-2.59-1.29-5.12-2.63-8.22-1.86a2.5,2.5,0,0,1-2.37-1.19c-1.17-1.64-2.62-1.88-4.59-1a6.65,6.65,0,0,1,4.67,1.83,5.55,5.55,0,0,0,4.44,1.22A10.16,10.16,0,0,1,134,209a8.56,8.56,0,0,0,5.88,1.64,4.33,4.33,0,0,1,2.61.75c.64.37,1.41.77,1.15,1.69a1.45,1.45,0,0,1-1.82,1c-2.42-.47-5,0-7.28-1.41-1-.59-1.67-.16-2.4.57-1.06,1.08-1,1.75.45,2.36A54.08,54.08,0,0,0,147,219.51a26.94,26.94,0,0,0,10.62-.39c2.53-.67,4.46-1.7,4.54-4.65,2.22-.58,3.87.1,4.39,1.9.34,1.22.33,2.38-1.38,2.55a2.49,2.49,0,0,0-1.41.45c-4.65,3.84-10.19,3.66-15.68,3.26a50.93,50.93,0,0,1-17.27-4.53,2.62,2.62,0,0,0-3.52.74c-2.06,2.5-4.16,5-6.36,7.35-1.15,1.25-1.19,2.53.5,3.15,3.79,1.39,4,4.48,4,7.75,0,1.7-.4,3.59,1.79,4.42a1.33,1.33,0,0,1-1.71,1c-1-.22-1.14-1.1-1.23-1.93-.2-1.87-.39-3.75-.5-5.63a2,2,0,0,0-.94-1.88c-.21.3-.4.29-.59,0v-1c-.53-.69-1.53-.74-2-1.49-1.42-1-2.8-2.06-2.51-4.12q6.14-7.2,12.25-14.42c.45-.54,1.42-.93,1-1.81a1.73,1.73,0,0,0-2.22-.68c-3,1-5.5,0-7.77-2a2.69,2.69,0,0,0-1.34-.54,6.89,6.89,0,0,1-5.83-6.72c0-.42,0-.86.46-1.07a1.32,1.32,0,0,1,1.76.51c1.12,2.06,2.55,2.4,4.7,1.49,1.56-.65,2.62.6,3.45,1.81s1.89,2.07,3.49.89c1.22-.89,2.38-.23,3.47.44.91.57,1.79,1.2,2.71,1.75.43.26,1.18.52,1.37.06,1-2.42,3.68-3.59,4.54-6.09.89,1.26.89,1.26,2.65-.19Z"/><path class="cls-21" d="M147.1,196.08l-1.32-.12c-.31-3.5-1.91-6.66-2.69-10-.45-1.94-.45-3.07,2-2.87a8,8,0,0,0,1.94-.36c1.08-.18,1.62.12,1.77,1.38.4,3.36,1,6.71,1.47,10.06.3.66.16,1.18-.6,1.22A10.44,10.44,0,0,0,147.1,196.08Z"/><path class="cls-22" d="M141.25,97.53c1.25-3.44,3.95-4.55,6.62-5.68.53-.22,1.17-.43,1.55.22.26.45-.17.82-.5,1C146.49,94.55,144.47,96.77,141.25,97.53Z"/><path class="cls-23" d="M139,94.74c-1.14-2.5-.75-4.65-.74-6.76a1.12,1.12,0,0,1,1.25-1.23,1.29,1.29,0,0,1,1.23,1.32A11,11,0,0,1,139,94.74Z"/><path class="cls-24" d="M142.36,92.74a11.79,11.79,0,0,1,1.94-5.28c.29-.51.77-1,1.41-.71s.53,1.13.29,1.73A8,8,0,0,1,142.36,92.74Z"/><path class="cls-25" d="M177.85,81c.94,3-.48,4.83-1.9,7.45C175.45,85.33,175.71,83.15,177.85,81Z"/><path class="cls-26" d="M178.21,88.68c.27-2.28,1-3.86,2.91-4.77.38-.19.78-.39,1.16-.12s.15.77,0,1.1A8.34,8.34,0,0,1,178.21,88.68Z"/><path class="cls-27" d="M178.84,90.41c1.52-.57,2.42-2.21,4.23-2.26.54,0,1.26-.16,1.45.6s-.48,1-1,1.16c-1.49.41-3,.73-4.51,1.09Z"/><path class="cls-17" d="M147.1,196.08c.7-1.21,2.68-.37,3.14-2,.6.37.34,1.54,1.4,1.47,0,.76-.42.84-.94.55C149.5,195.46,148.3,196.14,147.1,196.08Z"/><path class="cls-28" d="M70.2,224.55c.26,4.48.81,8.73,5.08,11.57a10.25,10.25,0,0,0,6.39,1.54c6.5-.19,12.93-1,19.37-1.84.92-.11,2-.57,2.56.79.64,1.68-.11,2.46-1.71,2.81a81.75,81.75,0,0,1-12.32,1.92c-6,.38-12,.73-17.93-.25-3.82-.63-6.14-3.06-7.25-6.73a74.23,74.23,0,0,1-2.68-14.18c0-.5-.24-1.1,0-1.48,2-3.82-1-2.27-2.28-2-11.68,2.18-22.75-3.73-29-13.42-9.2-14.15-9.61-29-1.91-43.82,6.38-12.26,19.62-20.17,34.24-15.73,7.73,2.35,14.06,6.83,17,14.85,1.06,2.85.42,3.58-2.65,3.48-4.76-.16-4.76-.16-4.83,4.58,0,.67,0,1.34,0,2,0,1.39-.53,2-2,1.77a33.59,33.59,0,0,0-4.48-.29c-2.1,0-3.06,1.6-2.28,3.54s1.47,4.06,2.36,6c.7,1.54.25,2.39-1.08,3.29-5,3.4-5,3.49.49,6.1,1.41.68,1.86,1.54,1.42,2.94a39.33,39.33,0,0,1-1.5,4.23,4.55,4.55,0,0,0,.92,5.48,5.86,5.86,0,0,0,6.67,1.15c2-.93,3.14-2.4,2.87-4.75a17.28,17.28,0,0,1,0-2.49,3.54,3.54,0,0,1,2.17-1c2.67-.38,3-1,2.34-3.65-.18-.72-.48-1.41-.63-2.13-.26-1.25-.23-2.51,1.18-3.19,2.84-1,2.67-3.14,2.35-5.47-.37-2.7,1.34-4.19,3.84-3.12,9.4,4,14.73,14.8,6.94,24.64-.67.35-1,1.59-2,1S91.09,201,91,200a5.69,5.69,0,0,0-.41-2.82c-2.45-1.67-5.21-1-6.88,1.69-1.75,2-3.23,4.21-5.32,5.88-2.67,2-4,4.4-2.29,7.72.44.87-.2,1.37-.9,1.76a11.87,11.87,0,0,1-3.54,1.11,2.79,2.79,0,0,0-2.49,3.16A14.11,14.11,0,0,0,70.2,224.55Z"/><path class="cls-2" d="M80.81,183.22c-4,2.7-4,2.7-2.79,7.17.36,1.35.39,2.15-1.41,2.29-3,.24-2.89,2.71-2.74,4.72.22,2.93-1.58,4.55-4.14,4.26s-3.85-2.41-2.82-4.93c.66-1.61,1-3.34,1.67-4.95.9-2.23,0-3.41-2.07-4a11.39,11.39,0,0,1-2.07-.85c-.69-.37-1.08-1-.26-1.53,1.29-.87,2.41-2.13,4.14-2.14Z"/><path class="cls-29" d="M102.65,234.05c-1,0-2.5.76-2.83-.42-.41-1.49.75-2.68,2.25-3.08,3.63-1,7.39-.76,11.07-.67,2,0,.6,1.63.09,2.25-2.25,2.74-4.62,5.37-6.94,8-1,.13-.78-.59-.84-1.13-.09-1,.2-2-.2-2.93-.46-1.14-.89-2.3-1.38-3.42-.31-.71-.84-1.45-1.67-1s0,1.1.19,1.66C102.46,233.59,102.56,233.82,102.65,234.05Z"/><path class="cls-30" d="M91.62,199.5a4.76,4.76,0,0,1,.07,1c-.3,2.27.7,2.11,2.15,1.18-2.8,4.8-7.41,7.46-12,10.14a36.6,36.6,0,0,1-9.7,3.8c-1.89.47-2.73,1.33-2.5,3.26s.37,3.79.56,5.68c-1.48-1.73-1.94-6.31-.93-8.12.67-1.21,1.87-1.2,2.94-1.58,1.67-.6,4.27,0,2.69-3.71-1.12-2.61.54-5.46,3.36-7,.61,1.18-.45,1.81-.89,2.63A17.75,17.75,0,0,0,76.25,209c-.63,1.81-.09,2.55,1.81,2.39a12,12,0,0,0,6.87-3.22c2.44-2.14,4.7-4.46,5.72-7.69C90.79,200,91,199.54,91.62,199.5Z"/><path class="cls-31" d="M80.71,185.62a4.28,4.28,0,0,0-.59,3.92c1.16,4.51,1.09,4.61-3.51,5.85-.32.09-.64.15-1,.22-.13-1.75,1.19-1.47,2.2-1.52,1.9-.08,2.82-.74,2-2.79-.37-.9-.51-1.9-.81-2.85C78.53,186.86,79,185.87,80.71,185.62Z"/><path class="cls-32" d="M105.25,236.11c1.15,1.15-.19,2.93,1,4.06-.66,1.05-1.31,2.1-2,3.13-.35.54-.71,1.24-1.52,1s-1.16-1.1-1.49-1.86c-.41-.94,0-1.38.91-1.6.45.22.58.51.29,1s-.43.93.23,1.18c.46.18.77-.13,1-.44a5.14,5.14,0,0,0,1.54-3.76C105.27,237.9,105.27,237,105.25,236.11Z"/><path class="cls-33" d="M122.18,233.08h.59c.19,3.24.4,6.48.58,9.72.12,1.91.91,2.4,2.56,1.3,2.76-1.85,5.56-3.66,8.3-5.54a2.41,2.41,0,0,1,3.3,0c4.38,3.34,9.45,5.53,14.16,8.34,1.44.85,2.23.52,3-.89,1.33-2.59,2.85-5.08,4.11-7.7a4.65,4.65,0,0,1,3.72-2.81,50.45,50.45,0,0,0,17.8-6.87c.35-.23.81-.37,1-.68,2.51-3.53,6-3.26,9.72-2.82s7.63.6,11.44.92c.62,0,1.37-.16,1.82.54a9.9,9.9,0,0,0-2.92,7.18,5,5,0,0,0,2,4.12c.59.43,1.39,1,2,.15s-.39-1-.86-1.4a1.29,1.29,0,0,1-.72-1.43,14.27,14.27,0,0,1,4.41.49c-1.94,3.61-3.35,4.31-6.77,3.35s-7-1.39-10.25-2.85c-.45-.2-1.08-.3-1.31.26-.34.87.47,1.13,1,1.46a27.93,27.93,0,0,1,9.72,10.16c1.83,3.09,1.74,3.5-1.29,5.6-5.65,3.9-12.07,6-18.69,7.3a128.09,128.09,0,0,1-58.09-1.38c-6.23-1.6-12.24-3.81-17.47-7.7-3.26-2.44-3.18-2.78-.69-6,3.36-4.39,6.48-9,10.59-12.8.74.68.68,1.55.89,2.33.64,2.45,1.29,2.7,3.37,1.14A8.33,8.33,0,0,0,122.18,233.08Z"/><path class="cls-2" d="M221.62,249a147.28,147.28,0,0,0-7.5,15c-2.54-1.22-5.25-5.88-4.91-8.45.6-4.45-1.41-7.21-5.79-7.93-.58-.09-1.17-.08-1.54-.65-.09-.14-.17-.28-.27-.42a78.09,78.09,0,0,0-5.21-6.81c5.73,2,11,2.84,13.93-4,2.39-.57,4.67.42,7,.55,2.62.13,5.24.67,7.87.86,1.5.1,2.37.8,1.61,2.21-1.4,2.6-2.23,5.53-4.34,7.73Z"/><path class="cls-34" d="M96.56,257.61a20,20,0,0,1-3.23,7.74.61.61,0,0,1-.79.3c-2.87-.81-4.12-4.9-2.24-7.37A26.92,26.92,0,0,1,92,256.14c.65-.69,1.19-1.89,2.39-1.36A3.92,3.92,0,0,1,96.56,257.61Z"/><path class="cls-14" d="M222.49,247.05c1.25-2.54,2.47-5.09,3.75-7.61.64-1.26.38-1.7-1.09-1.86-5-.55-9.88-1.24-14.82-1.88l-.66-.59c5.42.51,10.84,1,16.25,1.55,1.09.12,2.2.83,1.67,2C226.18,241.58,225.53,245.06,222.49,247.05Z"/><path class="cls-35" d="M121,232.56a3.48,3.48,0,0,0-.6.4c-.85.83-1.5,2.45-2.69,2.15s-.62-2-1-3c-.23-.58-.55-1.27.11-1.8s1.23.06,1.81.28,1,.44,1.56.66C121,231.3,121.83,231.41,121,232.56Z"/><path class="cls-17" d="M121,232.56c.18-.75-.59-.89-.86-1.35,0-.2,0-.4,0-.59.75.39,2.19-.16,2,1.49Z"/><path class="cls-36" d="M151.09,285.7c-7.17-.47-13.8-.64-20.28-2.16-2.52-.59-2.86-1.45-2.74-4.16a46.49,46.49,0,0,1,1.11-6.59c.18-1,.67-1.8,1.59-1.22,3.08,1.95,6.65,1.84,10,2.42a65,65,0,0,0,12.17.63,67.07,67.07,0,0,0,12.8-1.49c1.83-.37,2.73,0,2.44,2s.36,3.79.54,5.68c.25,2.58-1.45,3.49-3.33,3.71C160.46,285.09,155.49,285.35,151.09,285.7Z"/><path class="cls-37" d="M125.69,267.46c2.61.55,2.76,2.07,2.1,4.37-.93,3.27-1.53,6.64-2.2,10-.49,2.43-2.35,3.9-4.7,3.07-4.62-1.65-9.16-3.55-13.7-5.41a2.71,2.71,0,0,1-1.53-3.73c1.2-3.63,2.4-7.28,3.84-10.82,1-2.49,1.84-2.5,5.76-.84,1.21,1.64-.52,1.45-1.19,1.93-1.82.08-2.76,1-3.24,2.79a53,53,0,0,0-1.2,6.59,2,2,0,0,0,1.52,2.43c2.56,1,5.15,1.85,7.68,2.89,1.77.74,2.85.13,3.56-1.5a25.24,25.24,0,0,0,2.44-10.56A1.42,1.42,0,0,1,125.69,267.46Z"/><path class="cls-38" d="M107.75,265.48a38.27,38.27,0,0,0-3.31,8.44c-.23.72-1,.66-1.71.44-3.45-1.05-4-2.56-2.06-6.64a27.33,27.33,0,0,1,2.32-4c.39-.57,1-1.85,1.82-1.06S107.57,263.6,107.75,265.48Z"/><path class="cls-39" d="M125.69,267.46l-.62,1.26c-3.57-1.2-7.46-1.33-10.84-3.18.2-.58,1.68-.26,1-1.45A63.75,63.75,0,0,1,125.69,267.46Z"/><path class="cls-36" d="M182.47,271.41c-.34-1.4.09-1.66.72-1.87,3.26-1.12,6.5-2.28,9.76-3.41,3-1.05,6.06-2,9.07-3.13.67-.24,1.1-.55,1.63.28,1.34,2.08,2.76,4.1,4.2,6.11.63.88.68,1.24-.51,1.73-6.23,2.57-12.4,5.28-18.59,7.94-.61.27-1.19.62-1.8.86-2.85,1.14-3.27.93-3.71-2.06C182.89,275.5,182.67,273.12,182.47,271.41Z"/><path class="cls-1" d="M127.15,241.51c-1.77.89-2.34.07-2.37-1.63,0-1.41-.14-2.82-.14-4.23,0-2.55-.52-4.53-3.35-5.66-3.27-1.31-3.16-1.59-.87-4.25s4.5-5.12,6.66-7.75c1-1.27,1.88-1.46,3.54-.72,8.54,3.82,17.43,5.92,26.88,4.32a11.09,11.09,0,0,0,5.77-2.71c.36-.33.72-.8,1.15-.89.6-.13,1.54,1.31,1.8-.39.18-1.13-.61-1.84-1.36-2.51a2.85,2.85,0,0,0-2.61-.4c-.23,2.79-1.91,4-4.53,4.6-7.94,1.78-15.44.14-22.81-2.69-.62-.24-1.26-.41-1.86-.66-1-.4-2-1-1.47-2.2a1.94,1.94,0,0,1,2.63-1.27c2.29,1.26,4.86.88,7.24,1.52,1.36.36,2-.2,2.37-1.9.7-3-.12-4.21-2.94-5.08-1.81-.57-2-2.16-.57-3.55a44.88,44.88,0,0,1,7.91-5.5,1.34,1.34,0,0,1,2.15,1.17c.14,1.76.77,3.4,1,5.12-.63,2-.32,2.54,1.5,2.33a40.83,40.83,0,0,0,6.88-1.67c.76-.22,1.67-.62.89-1.74h0a9.41,9.41,0,0,1-2.17-5.45c-.16-1.27.18-2.28,1.75-1.12v0c1.43,2.15,2.7,4.48,5.92,4.11.68-.08,1.16.64,1.52,1.18,1.63,2.41,3.24,4.72,6.07,6,1.5.68,1.59,2.81,2.88,4a10,10,0,0,0,2.7,2.09c2.29.95,3.6,2.92,4.6,5a3.93,3.93,0,0,1-.78,4.41,9.62,9.62,0,0,0-1.88,2.29c-5,4.21-11,6.2-17.08,7.79A83.51,83.51,0,0,1,138.42,236a8.69,8.69,0,0,0-6.44,2C130.46,239.31,128.47,239.94,127.15,241.51Z"/><path class="cls-40" d="M151.15,204.58a21,21,0,0,1-1-4.83c-.15-1.71-1.15-2-2.38-1.15a49.23,49.23,0,0,1-6.56,4.42,2.33,2.33,0,0,0-1.33,2.22,2.54,2.54,0,0,0,2.14,1.85c1.29.21,3,.8,2.88,1.89-.25,1.66-.41,3.54-1.45,5a1.62,1.62,0,0,1-1.82.55c-2.43-.77-5.08-.43-7.43-1.6a1.63,1.63,0,0,0-2.27.9c-.38.74.36,1.29.94,1.51,5.39,2,10.81,3.94,16.66,4.25,2.52.13,4.93-.58,7.42-.6,2.88,0,4.26-2,5.28-4.34,1,2,0,3-1.66,3.95a15.82,15.82,0,0,1-7.67,1.84,48.73,48.73,0,0,1-21-4.51c-.67-.3-2.28-.53-1.38-1.74s1.56-3.53,3.41-2.46c2.48,1.42,5.21.84,7.68,1.74.61.22,1.45.33,1.71-.49s-.58-.88-1.08-1.06a5.12,5.12,0,0,0-2.37-.64c-2.57.58-4.59-.7-6.51-1.91a8.34,8.34,0,0,0-5.92-1.26,5,5,0,0,1-3.6-.57c-1.74-1.13-3.12-3.09-5.69-2.36a1.09,1.09,0,0,1-1.18-1.07c.06-.87.91-.4,1.39-.58,2.23-.79,4.06-.77,5.47,1.63a2.74,2.74,0,0,0,3.63.73c1.5-.81,2.45-.27,3.6.53,1.58,1.08,3.21,2.13,5.31,1.2.87-.39,1.58.31,2.31.66,1,.51,2.06,1.1,3.13,1.55.62.25,1.44.27,1.7-.53s-.6-.89-1.09-1.06c-1.65-.57-3.93-1.21-4-2.81s2-2.9,3.48-3.94c2.37-1.62,4.56-3.5,7.32-4.54,1.33-.51,1.64-.08,1.6,1.11a10.37,10.37,0,0,0,1,5l-.15,1.49C151.49,204.82,151.31,204.81,151.15,204.58Z"/><path class="cls-41" d="M140.33,238.1c5.72-.37,11.4-.44,17.46-1.61-1.58,2.95-3,5.53-4.34,8.11a1,1,0,0,1-1.61.48C148,242.83,143.91,241,140.33,238.1Z"/><path class="cls-42" d="M181.22,225.68a1.76,1.76,0,0,1,.49-1.35c3-3.82,2.26-7.74-2.33-9.76-2.34-1-3.49-2.87-4.69-4.8a3.71,3.71,0,0,0-1.46-1.62c-2.44-1.13-4-3.15-5.42-5.31-.55-.85-1.06-1.77-2.23-1.71-3.22.18-4.37-2.07-5.39-4.51,1.85,1.62,3.06,4.28,6.31,3.55.75-.16,1,1,1.44,1.56,1.69,2.11,2.94,4.67,5.85,5.48a1.5,1.5,0,0,1,1,1c1,2.85,3.14,4.57,5.7,5.94a8.76,8.76,0,0,1,4.1,5.71C185.35,222.71,183.11,224.19,181.22,225.68Z"/><path class="cls-42" d="M151.15,204.58l.52,0c0,.52-.95,1.52.32,1.4a26,26,0,0,0,8.16-1.75c.26-.12.31-.72.46-1.09,1.12,1,.28,1.69-.57,2-2.4.78-4.74,1.82-7.31,2a2.28,2.28,0,0,1-2.17-.94C150,205.37,150.56,205,151.15,204.58Z"/><path class="cls-42" d="M160.18,196.6c-1.76-.6-1.42.6-1.41,1.6,0,1.88,1.75,3.12,1.83,5A1.38,1.38,0,0,1,159,202c-.42-2-1-4-1.32-6-.11-.63-.57-1.66.39-1.91s1.44.62,1.79,1.4A7.67,7.67,0,0,1,160.18,196.6Z"/><path class="cls-43" d="M151.7,134a10.16,10.16,0,0,1,2.85-6.84c2.71-2.57,5.86-1.59,6.72,2a10.63,10.63,0,0,1-1,7.7c-1.5,2.82-3.62,4.11-5.64,3.5S151.64,137.69,151.7,134Z"/><path class="cls-44" d="M138.08,130.65a13.19,13.19,0,0,1-2.33,7.74,3.8,3.8,0,0,1-3.9,1.69c-1.59-.31-2.23-1.55-2.6-3a12.26,12.26,0,0,1,1.24-9.15c.94-1.76,2.35-3.16,4.58-2.71,2.06.41,2.53,2.18,2.83,4C138,129.73,138,130.31,138.08,130.65Z"/><path class="cls-45" d="M27.72,176.09c0-9.85,3.54-18.22,11.09-24.58,3.68-3.1,7.9-5.61,13.09-5.38a8.06,8.06,0,0,1,7.31,7,4.76,4.76,0,0,1-1.05,3.45c-6,7.66-12,15.31-17.76,23.13-1.73,2.33-3.3,4.78-5.23,7-2.23,2.53-3.89,2.35-5.57-.62S27.67,179.56,27.72,176.09Z"/><path class="cls-46" d="M91.62,199.5A18,18,0,0,1,78.91,212c-1.16.34-2.54.74-3.45-.51s-.11-2.24.43-3.25c.73-1.38,1.57-2.7,2.37-4l5-5.45c3-3,4.89-3.46,7.89-1.93C91.8,197.59,91.48,198.59,91.62,199.5Z"/><path class="cls-30" d="M91.12,196.77c-3.13-1.41-5.47.44-7.89,1.93A5.09,5.09,0,0,1,91.12,196.77Z"/><path class="cls-47" d="M114.23,265.54c3.75.6,7.53,1.1,10.84,3.18.75,4.67-.93,8.72-3.19,12.62-.48.84-1.27.68-2,.42-3.35-1.2-6.68-2.46-10-3.64a1.36,1.36,0,0,1-1.06-1.67,53.75,53.75,0,0,1,1.9-9.46C111.37,264.94,113,266,114.23,265.54Z"/><path class="cls-48" d="M158.14,128.65c1.78.9,2.25,4.68.82,6.84a12.6,12.6,0,0,1-1.55,1.93c-.5.49-.68,1.71-1.8,1.09-.83-.46-1.75-.83-1.93-2-.39-2.49-.28-4.84,1.47-6.86.64.54,1.4,0,2.08.23C158.75,130.39,157.81,129,158.14,128.65Z"/><path class="cls-49" d="M158.14,128.65c.46.69,1.51,1.13.87,2.5-1-1.39-2.92,0-3.86-1.54A3.65,3.65,0,0,1,158.14,128.65Z"/><path class="cls-50" d="M132.15,129.38c.63-1.18,1.29-1.9,2.54-1.52a1.31,1.31,0,0,1,1,1.25c0,.61-.49.64-.84.44C134.07,129.11,133.28,129.67,132.15,129.38Z"/></svg>