<svg id="Layer_1" data-name="Layer 1" xmlns="http://www.w3.org/2000/svg" viewBox="0 0 254.25 255.75"><defs><style>.cls-1{fill:#e7e74a;}.cls-2{fill:#5b745e;}.cls-3{fill:#262a0a;}.cls-4{fill:#fbfcb5;}.cls-5{fill:#838c45;}.cls-6{fill:#ddea93;}.cls-7{fill:#0c220b;}.cls-8{fill:#eaf26a;}.cls-9{fill:#a8a219;}.cls-10{fill:#ebf53f;}.cls-11{fill:#e7f465;}.cls-12{fill:#3e4412;}.cls-13{fill:#ebf35f;}.cls-14{fill:#313208;}.cls-15{fill:#f2fc37;}.cls-16{fill:#d9e47a;}.cls-17{fill:#dce669;}.cls-18{fill:#171907;}.cls-19{fill:#2b2f0c;}.cls-20{fill:#dee88b;}.cls-21{fill:#e3ef69;}.cls-22{fill:#aae2ce;}.cls-23{fill:#b0e7d5;}.cls-24{fill:#b0e3d3;}.cls-25{fill:#103823;}.cls-26{fill:#194831;}.cls-27{fill:#1c2e1a;}.cls-28{fill:#e2ef74;}.cls-29{fill:#c0cfcd;}.cls-30{fill:#abe8d1;}.cls-31{fill:#68876d;}.cls-32{fill:#b6ddc2;}.cls-33{fill:#7a7709;}.cls-34{fill:#e9efb6;}.cls-35{fill:#def3a4;}.cls-36{fill:#f0fc2f;}.cls-37{fill:#c9f47d;}.cls-38{fill:#686a0a;}.cls-39{fill:#f7fa01;}.cls-40{fill:#e6f573;}.cls-41{fill:#e7f170;}.cls-42{fill:#e5f61d;}.cls-43{fill:#f9fd02;}.cls-44{fill:#727441;}.cls-45{fill:#e7f2a4;}.cls-46{fill:#dae9b6;}.cls-47{fill:#b3decf;}.cls-48{fill:#f1fad1;}.cls-49{fill:#a9b07d;}.cls-50{fill:#aeb37d;}.cls-51{fill:#b5bb8a;}.cls-52{fill:#b8eddb;}.cls-53{fill:#72a18e;}.cls-54{fill:#b2e8d4;}.cls-55{fill:#b2baa2;}.cls-56{fill:#b8ecdc;}.cls-57{fill:#45b052;}.cls-58{fill:#ecfac4;}.cls-59{fill:#e2efbb;}.cls-60{fill:#e1eebb;}.cls-61{fill:#e6f2d0;}.cls-62{fill:#eef7d9;}.cls-63{fill:#d1dea6;}.cls-64{fill:#c3cecb;}.cls-65{fill:#dae5b4;}.cls-66{fill:#d9e5b5;}.cls-67{fill:#dae4b3;}</style></defs><path class="cls-1" d="M254.25,127.12a126.47,126.47,0,0,1-19.38,67.49l-.42-.27H19.21a127.13,127.13,0,1,1,235-67.22Z"/><path class="cls-2" d="M234.45,194.34l.42.27a127.15,127.15,0,0,1-215.66-.27Z"/><path class="cls-3" d="M98.58,251.06l-.46,0a.5.5,0,0,1-.3-.27,22.33,22.33,0,0,1,1.34-6.15c2.08-6.56,3.92-13.21,6.27-19.69a40.15,40.15,0,0,1,3.06-6.54,7.56,7.56,0,0,1,4.58-2.47c.68-.11,1.36-.24,2.05-.3a1.33,1.33,0,0,0,1.4-1.71c-.29-2.36-.35-4.73-.57-7.1-.29-3.13-.52-6.28-.67-9.42-.15-3.4-.7-6.78-.62-10.2a2.25,2.25,0,0,0-1.35-2.42c.47-.89,1.06-1,1.74-.4a2.69,2.69,0,0,1,.7,2c.27,5.75.7,11.48,1.25,17.21.17,1.75.13,3.51.27,5.27s.27,3.77.49,5.64a1.87,1.87,0,0,1-.83,2c-.21.13-.45.26-.42.58-.14.6-.59.53-1,.46a7.16,7.16,0,0,0-4.3.89,11.2,11.2,0,0,0-3.24,5.19q-3.13,8.55-5.67,17.29a92.8,92.8,0,0,0-2.47,9,1.33,1.33,0,0,1-.84,1.2A.47.47,0,0,1,98.58,251.06Z"/><path class="cls-4" d="M98.58,251.06,99,251a1.65,1.65,0,0,1,1.69.11,2.79,2.79,0,0,0,1.58.4,27.73,27.73,0,0,0,3.37.86,39.59,39.59,0,0,0,6.38,1.18,4,4,0,0,0,1,.15c.92-.48,1.65.27,2.46.41a84.3,84.3,0,0,0,14.89.72,10.44,10.44,0,0,1,1.37,0c1.66,0,3.34.23,5-.39a.82.82,0,0,1,.62.1.3.3,0,0,1,.13.39,3.51,3.51,0,0,1-2.78.75c-3.7-.56-7.38.22-11.07.06a63.41,63.41,0,0,1-8.69-.83c-2.55-.46-5.15-.68-7.67-1.27C104.3,252.94,101.23,252.68,98.58,251.06Z"/><path class="cls-5" d="M137.43,254.92l-.09-.3c-1-1.42-1.08-3.15-1.6-4.73-1.33-4.09-1.44-8.38-2-12.6a47.89,47.89,0,0,0-1.74-9.11,4.17,4.17,0,0,1-.11-1.41,15.9,15.9,0,0,0-.9-4.21c-.16-.61-.52-1.21-.07-1.83.87,0,.87.73,1,1.24a92.5,92.5,0,0,1,2.42,11.64c.62,3.79,1,7.62,1.45,11.42a56.15,56.15,0,0,0,2.05,8c.29,1,.31-.18.52-.13a.34.34,0,0,1,.39-.1,1.28,1.28,0,0,1,.19,1.81l0,0A1.84,1.84,0,0,1,137.43,254.92Z"/><path class="cls-6" d="M138.7,252.88a3.65,3.65,0,0,0-.45-1.83c-.09-.31-.19-.73.18-.92s.58.23.72.51a2.36,2.36,0,0,1,.41,1.79,2.48,2.48,0,0,0,.71,2l-1.34.22C138.86,254.05,138.78,253.46,138.7,252.88Z"/><path class="cls-6" d="M143.9,253.9c.85-.69,1.87-.48,2.85-.52A8,8,0,0,1,143.9,253.9Z"/><path class="cls-6" d="M141.3,254.41a1.93,1.93,0,0,0,0-.24,9.75,9.75,0,0,1,2.59-.27A7.47,7.47,0,0,1,141.3,254.41Z"/><path class="cls-7" d="M133.79,226.36c.68,4.33,1.57,8.64,2,13a74.61,74.61,0,0,0,2.67,13.51c-.24.54.41,1.5-.24,1.61-.89.15-.62-1-.78-1.48a56.91,56.91,0,0,1-2.55-12.06,126.48,126.48,0,0,0-2.25-14.49c-.34-1.64-.74-3.26-1.22-4.86-.09-.32-.1-.69-.49-.85-1.35-.83-2.34-2.14-3.78-2.85-.74-.25-1.51.12-2.31-.29-.59-.3-.47.57-.59,1a9.74,9.74,0,0,1-.5,2,2.57,2.57,0,0,1-4.38.87,5.25,5.25,0,0,1-1-1.17,18.16,18.16,0,0,1-1.24-2.5,2.31,2.31,0,0,1-.24-.2,1.8,1.8,0,0,1-.44-.43,1,1,0,0,1-.9-.62c2-.44,2-.47,1.7-2.58-.28-2.42-.46-4.86-.56-7.3-.2-4.71-.68-9.4-1-14.1a49.53,49.53,0,0,1-.33-6.56,1.72,1.72,0,0,0-.84-1.64c-.49-.28-.9,0-1.2.42,0,.58-.53.76-1,.95-5.14,2.33-10.32,4.54-16,5.49a6.89,6.89,0,0,1-7.75-4.56,19.89,19.89,0,0,1-.4-10.71,11.67,11.67,0,0,1,3.12-5.43c.74-.73,1.45-1.48,2.22-2.17,1.24-.78,2.38-1.71,3.61-2.5,1.31-.58,2.47-1.49,3.94-1.68a12,12,0,0,0,2.9-1,10.61,10.61,0,0,1,1.2-.41c.38-.08.88-.18,1,.25s-.37.66-.77.8a5.91,5.91,0,0,0-2.07.95c-1.82,1.15-3.91,1.75-5.76,2.88a20.74,20.74,0,0,0-7.24,7.21,6.12,6.12,0,0,0-.83,2.7,26.93,26.93,0,0,0,.49,8,5.25,5.25,0,0,0,6.06,4c4.52-.58,8.58-2.44,12.69-4.19,1.52-.63,3-1.24,4.54-1.88a3.67,3.67,0,0,1,1.38-.33c.76,0,1.37-.51,2.12-.56.22,0,.46,0,.56.23a.45.45,0,0,1-.22.55c-1.31.68-1,1.77-1,3,0,3.42.66,6.77.66,10.18,0,2.61.38,5.23.64,7.83a1.74,1.74,0,0,1,0,.39c-.26,3,.71,6,.58,9-.09,1.95.36,2.29,2.36,2.3,3,0,2.77,0,3.17-2.9.33-2.34.4-4.71.82-7,.37-2.07.57-4.17.9-6.25.42-2.68,1-5.33,1.5-8a74.69,74.69,0,0,1,2.78-10.07c.41-1.19.11-1.49-1.19-1.4-.43,0-1,.1-1.1-.39s.51-.67,1-.75a71.73,71.73,0,0,1,14.26-1.06c.89,0,1.68-.05,1.75-1.2a1.77,1.77,0,0,1,.15-.42c.51-1.54.67-3.17,1.06-4.74.15-.58.18-1.19.37-1.76a1.41,1.41,0,0,0-.45-1.83c-.7-.51-.46-.95.26-1.16s.78-.64.93-1.22c1-3.94.78-7.95.7-11.93a17.66,17.66,0,0,0-1.44-5.33,2.12,2.12,0,0,1-.06-.43,2.08,2.08,0,0,1,1-2.22c.27-.16.56-.38.61-.66.29-1.68,1.24-3.15,1.29-4.94.06-2.49.36-5,.56-7.47a60.76,60.76,0,0,0,.41-6.32,3.42,3.42,0,0,1,.06-.78,1.37,1.37,0,0,1,2.72,0,16.8,16.8,0,0,1,.05,3.75,41.53,41.53,0,0,0,0,7.48,28.4,28.4,0,0,1,0,5,1.12,1.12,0,0,0,.61,1.29,40.77,40.77,0,0,1,4.95,3.07,1.62,1.62,0,0,0,1.22.27,1.1,1.1,0,0,1,.62.1,8.05,8.05,0,0,0,2.27,2.59,24,24,0,0,1,3.52,3.95,28.08,28.08,0,0,1,4.57,7.47,4.12,4.12,0,0,0,2,2.22,16.94,16.94,0,0,1,7.27,7.31c1.55,3.08,1.32,9.14-1.9,11.75a5,5,0,0,1-2.38,1.2c-1.44.24-1.68.49-1.76,1.9a33.65,33.65,0,0,1-1.7,8.59c-2,6.05-5.76,10.32-12.06,12.07-2.39.84-4.86.6-7.32.44-4.62-1.18-7.83-3.68-8.8-8.61a47.4,47.4,0,0,1-.16-14.17c.12-1.07.26-2.14.38-3.21.07-.64-.21-1-.88-1a81.68,81.68,0,0,0-10.6.48c-.73.09-1,.59-1.2,1.18a99.21,99.21,0,0,0-4.72,19.7c-.7,4.73-1.15,9.49-1.86,14.21-.14.91.25,1.38,1.05,1.43a9.2,9.2,0,0,1,5.74,2.92C133.07,221.29,133.11,223.93,133.79,226.36Z"/><path class="cls-8" d="M102.16,251.84c-1.22.27-2-1-3.21-.85a2.39,2.39,0,0,0,.57-1.26c1.13-5.27,2.84-10.37,4.46-15.5a122,122,0,0,1,4.21-12.06,8.12,8.12,0,0,1,2.88-4,26.05,26.05,0,0,1,2.58-.73c.71-.15,1.5-.51,2,.19a1.88,1.88,0,0,1-.22,2.37s-.08.07-.11.07c-1.67-.38-2.9.7-4.3,1.28a3.22,3.22,0,0,0-1.56,1.44c0,.12-.09.23-.14.34a6,6,0,0,1-1.27,4,1.65,1.65,0,0,0-.36,1.19,3.57,3.57,0,0,1-.16.79,12.91,12.91,0,0,0-1.49,4.87,24.77,24.77,0,0,1-2.09,6.35,23,23,0,0,0-1.09,3.15c-.66,2.17-1.06,4.41-1.65,6.61C101,251,102.05,251.15,102.16,251.84Z"/><path class="cls-9" d="M115.15,220a5.32,5.32,0,0,0,.35-.82c.42-1.61,0-2-1.55-1.64a12.87,12.87,0,0,1-2.88.62c1.53-.78,3.08-1.39,4.83-.84a.47.47,0,0,0,.56-.18c.16,0,.37-.11.46.13a2.57,2.57,0,0,1-.11.87,2.84,2.84,0,0,0,1,3c-.52.83-1.11,1.65-.3,2.72-.14-.61-.67-1.21.19-1.62a12.1,12.1,0,0,0,3.23,3.23,1.08,1.08,0,0,0,1.75-.13c.49-.54,1-1,1.55-1.54.3-.27.57-.68,1.09-.46a.44.44,0,0,1,0,.48c.14,0,.14-.14.2-.22a2.91,2.91,0,0,0,.7-1.86,3.91,3.91,0,0,1,.87-2.35c.63,0,.74.47.68,1a1.69,1.69,0,0,1-.26.54,1.16,1.16,0,0,0-.34.81c.16,1.41-.64,2.31-1.57,3.19-.78.72-1.54,1.48-2.26,2.27-1.19,1.31-1.24,1.32-2.82.59-1.35-1.65-3.43-2.55-4.56-4.43.15-.84,0-1.54-.94-1.83a1.4,1.4,0,0,1-.2-.56A1.11,1.11,0,0,1,115.15,220Z"/><path class="cls-10" d="M115.14,221.51c1.48.07,1.52.12,1,1.77a5.3,5.3,0,0,0-3.29,3.53c-.45,1.3.32,2.32,1.18,3.2s1.59.51,2.45.06a14.13,14.13,0,0,0,4.08-2.61c1.08.74,1.87.53,2.61-.59a12.65,12.65,0,0,1,2-2c1-.92,2-1.8,1.67-3.38-.07-.31.16-.56.49-.67.23.5.38.94,1.18.67a1.79,1.79,0,0,1,2.19,1.45,5.36,5.36,0,0,1,.12,1.79,2,2,0,0,0,.33,1.33c1.31,1.9,1.13,2.83-.73,4.21-.14.1-.25.23-.38.34-.63-.21-1.18-.25-1.39.57-1,.18-1,.94-.91,1.67.12,1,.28,2,.43,3a1.25,1.25,0,0,0,.95,1.2,18.22,18.22,0,0,1,.42,6.66c-.71.22-.59-.3-.63-.6-.63,3.34.2,6.65.91,10-.06-.7-.48-1.46.17-2.08a4.12,4.12,0,0,1,.41,4.12,72.69,72.69,0,0,1-15.53-.73c-.64-.09-1.19-.88-1.93-.28a6.12,6.12,0,0,1,.11-2.79c.53-4.57,1.22-9.11,2.1-13.63a28.67,28.67,0,0,1,.61-3.74c-1,.65-.4,1.89-1.25,2.38-.63-.33-.39-.82-.27-1.3a20.46,20.46,0,0,1-.91,2.74c-.16.37-.21.85-.77.89-.57-.65-.21-1.35,0-1.95a38.07,38.07,0,0,0,.94-3.75c.24-.85-.3-1.54-.8-2.2a4.73,4.73,0,0,1-.52-5.75,3.3,3.3,0,0,1,.78-1A8.34,8.34,0,0,0,115.14,221.51Z"/><path class="cls-11" d="M129.9,230.55a1.17,1.17,0,0,1,.55-1c1.38-.75,1.68-1.9.64-3.08a2.57,2.57,0,0,1-.62-2.09c.05-.85.15-1.84-.76-2.43-.38-.25-.73-.62-1.26-.22-.32.24-.68.64-1.13.32s0-.87,0-1.3a3.88,3.88,0,0,1,.26-.31,3.43,3.43,0,0,1,3.94,3.56,5.66,5.66,0,0,0,.7,2.63c.12,2.15,1,4.13,1.29,6.26.5,3.72.94,7.44,1.39,11.16a62.85,62.85,0,0,0,2.17,9.16,3,3,0,0,1,.28,1.37,13.4,13.4,0,0,1-5.59.56c-1-1.54-.76-3.33-.94-5-.42-3.8-.59-7.64-.95-11.45-.2-2.14-.3-4.3-.37-6.45A2.08,2.08,0,0,1,129.9,230.55Z"/><path class="cls-12" d="M129.9,230.55c.06,3.24.24,6.46.56,9.68.4,4.08.66,8.16,1,12.25.07.9.2,1.8.3,2.7a1.6,1.6,0,0,1-1.37-.06,14.08,14.08,0,0,0-.45-4,1.1,1.1,0,0,1-.41-.91,40.12,40.12,0,0,0-.44-5.59,1,1,0,0,1,.2-.85,36.26,36.26,0,0,0-.5-6.9,12.16,12.16,0,0,1-.27-5.78,1.09,1.09,0,0,0,.07-.24c.06-.43-.13-1,.47-1.15S129.56,230.3,129.9,230.55Z"/><path class="cls-13" d="M112.54,238.62c.77-1.21.77-2.76,1.81-4.09v1.71c.48.51.34,1.11.26,1.71-.27,2.29-.61,4.59-1,6.87s-.77,4.83-1,7.26a2.61,2.61,0,0,1-.6,1.79,26.52,26.52,0,0,1-6.48-1.24c.39-.46.92-.36,1.43-.34a3.06,3.06,0,0,1,.78.24c.93.14,1.83.92,2.8.12.09-2.69.82-5.33.65-8,.38-1.69.67-3.4,1-5.09C112.24,239.19,112.24,238.85,112.54,238.62Z"/><path class="cls-14" d="M112,253.87c.54-5.48,1.55-10.9,2.31-16.35.06-.42,0-.85,0-1.28.48-.63.18-1.43.47-2.1.17-.38.16-1,.74-.9s.56.69.49,1.13c-.34,2.17-.72,4.33-1.09,6.49-.66,3.86-1.27,7.73-1.66,11.63a13.12,13.12,0,0,1-.38,1.62Z"/><path class="cls-15" d="M107.1,252.6l-1.59,0c-1.2.07-2.22-.6-3.35-.79-1.33-.38-1.5-1.23-1.14-2.45.78-2.64,1-5.44,2.12-8,.88-2,1.5-4.18,2.32-6.24A16.3,16.3,0,0,0,106,232a7.39,7.39,0,0,1,1.36-3c.45.48.24,1,0,1.42a2.26,2.26,0,0,0-.37,1.47,11.49,11.49,0,0,1-1,4.89c-1.06,3-2.37,6-2.77,9.22a15.44,15.44,0,0,1-1.08,3c-.52,1.52-.36,1.82,1.17,2.12,1,.19,1.89.56,2.87.73C106.56,252,107.08,252,107.1,252.6Z"/><path class="cls-16" d="M132.21,226.67c-.68-.68-1.71-1.08-.88-2.49.51-.84-1-2.81-2.07-3.18l-1.69-.52c0-.42,0-.84-.53-1a1.14,1.14,0,0,1-.73-1.51c.14-.5.53-.59,1-.36a10.06,10.06,0,0,1,3.63,3.13,25.41,25.41,0,0,0,1,3.93A8.49,8.49,0,0,1,132.21,226.67Z"/><path class="cls-6" d="M137.16,240.16c-.09,1,.2,2.12-.22,3.25-.6-.38-.53-.88-.56-1.37-.08-1.23.2-2.49-.21-3.7-.06-.18-.14-.49.14-.54.61-.11.5.6.84.81C137.16,239.13,137.16,239.64,137.16,240.16Z"/><path class="cls-6" d="M135.19,230a6,6,0,0,1,1.14,3.2c.22,1,0,2.05.28,3.05.07.21.1.55-.24.63s-.41-.16-.45-.36C135.52,234.48,134.87,232.45,135.19,230Z"/><path class="cls-17" d="M133.79,226.36a9,9,0,0,1-.8-3,21.28,21.28,0,0,0-1.57-4.21c1.25.94,1.43,2.42,1.83,3.77a15,15,0,0,0,.52,2.18.38.38,0,0,1,0,.53Z"/><path class="cls-17" d="M159.91,205.51c-.8.7-2,.39-2.78,1.22-1.51-.54-3.15.06-4.66-.5A30.45,30.45,0,0,0,159.91,205.51Z"/><path class="cls-6" d="M133.82,225.67c0-.17,0-.35,0-.53s.06-.57.11-1a2.32,2.32,0,0,1,.76,2.84C133.84,226.82,134.26,226,133.82,225.67Z"/><path class="cls-18" d="M165.15,147l-5.17-.12-.54,0c0-.65.46-.76.93-.85a5.54,5.54,0,0,1,1.41-.07c4.93.26,9.8-.63,14.7-.86,2.47-.13,2.74-.67,3.05-3.08a129.18,129.18,0,0,0,.79-15.47,14.52,14.52,0,0,0-.11-4.3c-.54-2.11-.63-4.41-1.05-6.6-.25-1.25.36-1.93,1.68-2,.76-.06,1.56.17,2.28-.26a20.16,20.16,0,0,1,5-.53h4.37c1.77,0,1.85-.09,1.88-1.93a64.23,64.23,0,0,0,.27-7.85A36.76,36.76,0,0,0,192,88.91a3.1,3.1,0,0,1-.27-1,12.89,12.89,0,0,0-2-4.58C186.84,78,182.49,74,177.4,70.61a58.71,58.71,0,0,0-15.32-6.71A72.39,72.39,0,0,0,151.83,62a111.56,111.56,0,0,0-17.61-1.33c-5,0-10.07,0-15.1.08a60.09,60.09,0,0,0-7,.76c-3.19.46-6.32,1.24-9.5,1.81-.43.07-1.1.34-1.16-.32,0-.45.62-.66,1.1-.7a2.78,2.78,0,0,0,1.71-.43,59.59,59.59,0,0,1,12.35-2,212,212,0,0,1,24.57-.25,103.14,103.14,0,0,1,23.68,3.89,49.65,49.65,0,0,1,16.83,8.59c.43.34.91.63,1.36.94a11.23,11.23,0,0,0,2.36,2.26c.68.25,1.05.88,1.58,1.32a40.75,40.75,0,0,1,8.63,17.52,9,9,0,0,1,.41,3.53,103.16,103.16,0,0,1,0,12.68c.21.4,0,.78,0,1.16-.31.83.19,2-1,2.49l-.35.1a45.12,45.12,0,0,0-5.07.15c-.53,0-.75.31-.85.77a2.59,2.59,0,0,1-.58,1.67,39.13,39.13,0,0,1-5.53,7.45,3.7,3.7,0,0,0-1.11,3.15c.34,3.74-.15,7.48-.3,11.21a31.43,31.43,0,0,1-.55,4.74c-.48,2.44-1.56,3.21-4.11,2.89C172.73,146.19,168.94,146.6,165.15,147Z"/><path class="cls-19" d="M104.23,61.82c-.21.58-.7.55-1.18.55a1.69,1.69,0,0,0-1.59.77c2.7-.54,5.23-1.11,7.78-1.56a76.22,76.22,0,0,1,13.82-1.33c2.8,0,5.62-.21,8.39-.11,4.33.15,8.67.1,13,.53,5.18.51,10.28,1.43,15.4,2.27a41.43,41.43,0,0,1,6.36,1.91,47.81,47.81,0,0,1,14,7.24C184.75,75.57,188.71,79.6,191,85c.39.93,1.31,1.66,1.1,2.82-.74-.13-.83-.82-1.09-1.32a35.29,35.29,0,0,0-4.34-7.28A40.59,40.59,0,0,0,178.83,72a52.7,52.7,0,0,0-19.76-8.35,108,108,0,0,0-16.74-2.3c-5-.24-10-.42-15-.45a99.87,99.87,0,0,0-20.91,2,73.71,73.71,0,0,0-18,5.85c-2,1-4,2.12-5.85,3.3a13.62,13.62,0,0,0-4,2.94,2.56,2.56,0,0,1-.91.61,32,32,0,0,0-6,5.6A9.15,9.15,0,0,0,70.17,83c-3.36,3.83-5.46,8.39-7.49,13a48.54,48.54,0,0,0-2.92,9.33,27.8,27.8,0,0,0-.88,4.54c0,.47-.08,1.07-.69,1.29a1,1,0,0,1-.57-.62,2.5,2.5,0,0,1,0-1.53c1-3.21,1.51-6.56,2.55-9.77.35-1.06.62-2.14,1-3.17L62,94.14a44,44,0,0,1,7.28-12.33,85.72,85.72,0,0,1,8.07-7.76,60.46,60.46,0,0,1,12.3-7.51c.3-.14.59-.34.88-.51a109.22,109.22,0,0,1,10.85-3.57C102.31,62.21,103.28,62,104.23,61.82Z"/><path class="cls-20" d="M186.4,74.8c-.63,0-.74.2-.41.71.24.36.71.6.65,1.14a3.22,3.22,0,0,1-1.26-1.4c0-.3-.44-.66,0-.87S186.12,74.49,186.4,74.8Z"/><path class="cls-21" d="M189.58,114.2a19.13,19.13,0,0,1,5.07-.15A35.75,35.75,0,0,1,189.58,114.2Z"/><path class="cls-20" d="M194.7,88a9.34,9.34,0,0,1-.78-2.59A3.56,3.56,0,0,1,194.7,88Z"/><path class="cls-21" d="M195.76,111.46c-.18.84.38,1.84-.54,2.52a.83.83,0,0,0-.22,0C195.64,113.24,195.38,112.25,195.76,111.46Z"/><path d="M183.3,113.68c-.8.49-1.68.17-2.52.24-1.12.1-1.58.67-1.29,1.7a21.58,21.58,0,0,1,.95,6.33c0,.17-.07.42,0,.51,1.25,1.17.4,2.44.26,3.71s0,2.58,0,3.88a96.92,96.92,0,0,1-1,13.61,1.69,1.69,0,0,1-1.69,1.59c-2,.25-4,.36-6,.57a81.77,81.77,0,0,1-11.6.52.93.93,0,0,0-1,.51c-.33.36-.62.72-1.17.25a30.45,30.45,0,0,0-5.83-3.74c-.24-.13-.78,0-.61-.62.73-2.53.33-5.08.16-7.64a22.63,22.63,0,0,1,.13-4.5,38,38,0,0,0,.08-4.78c0-.71-.35-1-1-1s-1.1.28-1,1c.3,3.33-.59,6.59-.56,9.91,0,1.31-.59,2.68-.4,3.94.31,2-1.06,3.6-1.15,5.47a1.1,1.1,0,0,1-.73,1c-1.16.31-1.1,1.15-1.05,2-1.4-1.09-2.88-.39-4.29-.11-7.49,1.44-15.07,1.29-22.64,1.26a2.25,2.25,0,0,1-2.31-1.7,7.12,7.12,0,0,1-.59-2.37c.13-2.64-.81-5.19-.61-7.83.13-1.82,0-3.6-1.32-5.05a.65.65,0,0,1,.16-.4,5.85,5.85,0,0,0,2.15-3.43,53.1,53.1,0,0,0,1.58-6.23,28.53,28.53,0,0,1,1.16-4,2.57,2.57,0,0,1,2.22-1.9,2.77,2.77,0,0,0,.83-.35A1.64,1.64,0,0,1,123,116c4.79-.18,9.54-1,14.34-.83a10,10,0,0,0,3-.19,18.87,18.87,0,0,1,5.35-.3c1.24.05,2.44-.53,3.68-.16.08,0,.21.1.2.14-.3,1,.53,1.74.81,2.6a11.57,11.57,0,0,1,.12,3,1.6,1.6,0,0,0,.12.75c.15.27.34.53.68.51a.58.58,0,0,0,.53-.49,12.29,12.29,0,0,0,.58-2.1,4.4,4.4,0,0,1,.83-2.66.71.71,0,0,0,.1-.83c-.33-.76.15-1,.78-1.11,5.3-.2,10.59-.53,15.9-.4a11.67,11.67,0,0,0,3.28-.21c3.06-.6,6.14-.21,9.21-.28A1.05,1.05,0,0,1,183.3,113.68Z"/><path class="cls-22" d="M148.63,158.34c.08-3.76-.1-7.2-1.72-10.39-.22-.42-.32-1,.12-1.16,1.37-.63,1.51-1.94,1.76-3.12s.66-1.13,1.61-.76c5.83,2.29,10,6.53,14,11.19,4.21,5,6.18,10.75,7,17.09a63.32,63.32,0,0,1,.4,15.74c-.54,4.7-1.85,9.13-5,12.83-4,4.69-11.9,6.59-17.24,4.17-2.64-1.2-3.9-3.47-4.6-6.08-1.3-4.89-.84-9.85-.24-14.79.74-6.08,2.2-12,3.35-18A44.29,44.29,0,0,0,148.63,158.34Z"/><path class="cls-23" d="M114.56,183.37c-2,.48-3.66,1.57-5.58,2.14a.71.71,0,0,1-.57,0c-.12-.77.53-.87,1-1.12,3.18-1.76,6.7-2.7,10-4.09,1.29-.55,2.74-.65,4.09-1.23-.38-.17-.74-.1-1.06-.25s-.6-.28-.69.31c-.13.82-.76.77-1.29.47a4.21,4.21,0,0,0-4-.11,1.26,1.26,0,0,1-1.78-.95c-.18-.68.49-2.63,1.14-2.86a4.59,4.59,0,0,0,1.92-1.67,4.38,4.38,0,0,1,2.51-1.62c-1.68.32-3.27.95-4.93,1.33a63.59,63.59,0,0,0-15.48,5.76c-.8.43-1.31.9-1.11,1.92a1.09,1.09,0,0,1-1,1.43,1.38,1.38,0,0,1-1.62-1,6.57,6.57,0,0,1-.14-4.2,10.48,10.48,0,0,1,1.3-2.67c.41-.66,1-1.19,1.83-.83a1.25,1.25,0,0,1,.55,1.78c-.35.78.26.72.61.92a.48.48,0,0,1,0,.39,1.47,1.47,0,0,1-.53.55c-.53.34-1.11.63-1.69.24s-.17-1,0-1.51c0-.16.16-.3.13-.49a5.34,5.34,0,0,0-.82,5.36c.11-.78-.06-1.44.37-2a5,5,0,0,1,1.51-1,81.43,81.43,0,0,1,15.75-6.19,97.74,97.74,0,0,1,17.56-3.68A47.75,47.75,0,0,1,141,168c1,.07,2-.31,3.09-.26,2,.1,2.3.64,1.92,2.52a43.35,43.35,0,0,0-1,5.05,2.24,2.24,0,0,1-.4,1.34h0c-.34,1.57-.73,1.81-2.69,1.69a52,52,0,0,0-14.2,1.17,47.64,47.64,0,0,0-6.93,1.94C118.78,182.22,116.6,182.57,114.56,183.37Z"/><path class="cls-24" d="M176.55,168.37l.53.77a9.77,9.77,0,0,1,1.62,8.44,5.06,5.06,0,0,1-3.45,4.17c-1.27.37-1.75,0-1.8-1.32A68,68,0,0,0,171.63,166c-.11-.46-.35-1,.08-1.33s1,0,1.28.34C174.12,166.21,175.61,167,176.55,168.37Z"/><path class="cls-25" d="M144.65,176.65c.41-2.2.81-4.4,1.23-6.59.33-1.7.14-2-1.51-1.9a110,110,0,0,0-22.44,2.74c-8,1.95-15.89,4.34-23.19,8.31-.81.45-1.18,1-.71,1.88.2.38.33.79-.14,1s-.78-.2-1-.6c-.65-1.36.11-5.12,1.22-6.12.2-.17.4-.39.67-.21s.26.52.12.8-.38.68-.55,1-.42.63-.09.93.65.11,1-.06l1.12-.64a27.4,27.4,0,0,1,7.08-3.37c4.08-1.34,8.14-2.76,12.31-3.81a93.19,93.19,0,0,1,11.11-2.18,1.57,1.57,0,0,1,.88.13,1.59,1.59,0,0,0,1.1.27,69.25,69.25,0,0,1,10.58-.51c-1.83-.09-3.66.1-5.49-.11.07-.78.7-.65,1.16-.64,1.94,0,3.86-.44,5.81-.29,1,.09,1.54-.37,1.47-1.43a36.2,36.2,0,0,0,.77-8.3,21.24,21.24,0,0,0-1.14-7.2,1.75,1.75,0,0,1-.15-1.25.24.24,0,0,1,.37-.11,19.25,19.25,0,0,1,1.61,8,51.3,51.3,0,0,1-.8,9.74c-.21,1.08-1,1.12-2,1.39,1.69.58,1.55,1.57,1.24,2.77-.45,1.73-.74,3.51-1,5.28C145.13,176,145.16,176.47,144.65,176.65Z"/><path class="cls-26" d="M114.56,183.37a48.15,48.15,0,0,1,8.88-3.09,63,63,0,0,1,18.79-2.16c1.16,0,2.14-.12,2.42-1.48,0,1.6-.18,1.87-1.71,1.84a80.7,80.7,0,0,0-11.21.53c-1.42.18-2.82.49-4.37.76.72.49,1.22.06,1.74,0,.74-.09,1.14.12,1.11,1a10.36,10.36,0,0,1-.86,3.08,82.79,82.79,0,0,0-2.59,10.49c-.67,3.06-1.2,6.14-1.61,9.24-.46,3.4-.8,6.82-1.2,10.23a13.81,13.81,0,0,0-.22,1.39c0,1-.59,1.22-1.45,1.17s-1.64,0-2.46,0c-1.5,0-2-.48-2.09-2-.28-4.2-.52-8.4-.82-12.6-.39-5.48-.82-11-1.24-16.44a2.1,2.1,0,0,1,1.68-2.42C116.3,182.74,115.55,183.62,114.56,183.37Z"/><path class="cls-27" d="M146.23,148.41H146c-1.66-.79-3.3-.07-4.88.21-2.47.45-5,.49-7.42.92-3.46-.11-6.89.38-10.34.3-1.6,0-3.18-.26-4.77-.34a2,2,0,0,1-2-1.86,74.61,74.61,0,0,1-1.3-12.3c0-1.75-.4-2-2.13-1.75a39.24,39.24,0,0,1-5.41.37c-6.64.1-13.29.05-19.94,0a15.07,15.07,0,0,1-4-.5c-.14-.92.7-.67,1.1-.94,4.4-.15,8.81-.13,13.21-.05,5.14.1,10.26-.23,15.38-.55.37,0,.77-.19,1.09.17,1.58,1.24,1.54,3,1.54,4.74a57.15,57.15,0,0,0,1.07,10.35,1.87,1.87,0,0,0,2.06,1.71c4.06,0,8.13.2,12.17-.08s8.25-.44,12.24-1.56a1.94,1.94,0,0,1,2.52.86Z"/><path class="cls-28" d="M117.7,221.22a2.63,2.63,0,0,1-.78-4l.06.05,0,.06c.53.53.34,1.21.37,1.84,0,.89.44,1.14,1.24.78.37.42.7.86,1.1,1.24,1.5,1.42,3.38.8,4-1.32.15-.53.24-1.08.35-1.62.4-1.25.75-1.37,1.57-.44s1.33,1.82.54,3c-.48.74.05,1.86-.89,2.44-.83.81-1.71,1.58-2.49,2.44-.65.7-1.15.9-1.9.1a17.5,17.5,0,0,0-2-1.61,2.38,2.38,0,0,1-1.13-1.93A.79.79,0,0,1,117.7,221.22Z"/><path class="cls-27" d="M97.76,142.2c-.17-.08-.24-.39-.52-.25a32.65,32.65,0,0,1-6.66-2.64,25.6,25.6,0,0,1-3-1.43c-.43-.28-1-.42-1-1,.14-.18.63-.3.07-.6-.14-.08,0-.31.15-.4a4.78,4.78,0,0,1,2.49,1,67.63,67.63,0,0,0,14,5.14q1.68.41,3.39.75c.52.1,1.38-.1,1.43.86a5.37,5.37,0,0,1-2.61-.19,2.79,2.79,0,0,0-1.4-.37c.43.1.91,0,1.3.32a3.69,3.69,0,0,0,1.25.3c2,.21,2,.23,2.5,2.11a11.45,11.45,0,0,1,.41,3.19c0,2.58.64,5.1.62,7.69,0,1.62.38,3.23.12,4.86-.05.31.27.27.43.38a.58.58,0,0,1,.09.59c-.62.71-1.54.72-2.34.94-1.31.36-2.64.66-3.92,1.15-.42.16-.89.37-1.33,0,.72-1,2-.79,3.23-1.56-2.16.06-3.58,1.46-5.38,1.49a28.53,28.53,0,0,1,7-2.56c.4-.11.89,0,1.12-.5a.3.3,0,0,1,.27-.28c.44-.31.3-.78.27-1.18q-.58-6.93-1.19-13.84c0-.36,0-.78-.38-1.05C104.7,144,101.18,143.31,97.76,142.2Z"/><path class="cls-29" d="M151.68,133.77a54,54,0,0,0,.16,6.85c0,.52.44,1.29-.47,1.5a2.09,2.09,0,0,1-1.91-1.57,9.57,9.57,0,0,1,.11-1.41c.55-4.28.84-8.58,1-12.89,0-.42-.05-1,.5-1s.6.59.6,1C151.69,128.77,151.68,131.27,151.68,133.77Z"/><path class="cls-30" d="M103.22,164.52l7.5-2.15c.18-.17.33-.47.62-.13.11.5-.19.75-.55,1-2.91.94-5.91,1.58-8.75,2.76a26.05,26.05,0,0,0-8.56,5.48A11.63,11.63,0,0,0,90,178.33a6.71,6.71,0,0,0,0,3,37.45,37.45,0,0,0,.67,4.2A4.28,4.28,0,0,0,94.74,189c3.14.08,6-1,8.86-2.11a33.34,33.34,0,0,0,3.33-1.38,1.24,1.24,0,0,1,1.46-.05l.59.06c-4.11,1.87-8.21,3.88-12.8,4.21-3.3.23-5.36-.25-6.46-4.61a19,19,0,0,1-.28-8.35c.63-3.15,2.77-5.38,5.14-7.39a28.6,28.6,0,0,1,7.85-4.44A8.46,8.46,0,0,0,103.22,164.52Z"/><path class="cls-31" d="M176.55,168.37l-2.8-2.45a11,11,0,0,0-1-.83c-.28-.18-.6-.48-.94-.26s-.14.62-.07.95c.3,1.39.63,2.77.9,4.17a70,70,0,0,1,1,10.52c0,1.18.61,1.27,1.49,1.09,1.53-.32,3.24-2.46,3.46-4.28.33-2.7.35-5.34-1.4-7.66-.09-.12-.07-.32-.11-.48,1.91,1.9,2.23,4.28,2,6.8a7.88,7.88,0,0,1-1.55,4.44,4.47,4.47,0,0,1-2.43,1.6c-1.3.36-1.87-.07-1.9-1.45a71.19,71.19,0,0,0-.56-8,47.32,47.32,0,0,0-1.23-6.47,3.92,3.92,0,0,1-.14-1c0-.73.38-1,1-.63A12.71,12.71,0,0,1,176.55,168.37Z"/><path class="cls-32" d="M123.1,218c-.11,1.56-1,3-1.9,2.87s-2.54-2.19-2.23-3.18c.53-1.72,2-.51,3.09-.77C122.8,216.77,123.15,217.28,123.1,218Z"/><path class="cls-33" d="M125.21,223.28c.52-1,.23-2.24.87-3.34.41-.69-.36-1.83-1.09-2.4s-.63.52-1,.74c.12-1.26.49-1.51,1.42-.85a.74.74,0,0,0,1,0,.59.59,0,0,1,.89.15c-1.62.42-.48,1.2-.25,1.87-.66,1.72,0,4.06-2.37,5C124.69,224,125.36,223.82,125.21,223.28Z"/><path class="cls-34" d="M118.54,220c-.06.48-.21.86-.81.69-.44-.12-.8-.31-.8-.86,0-.81,0-1.63,0-2.45a.61.61,0,0,1,.81.57A7.74,7.74,0,0,0,118.54,220Z"/><path class="cls-35" d="M91.18,190.34c0,.21-.16.27-.34.28-.62,0-1.78-1-1.75-1.64,0-.21.06-.44.34-.46A7.76,7.76,0,0,1,91.18,190.34Z"/><path class="cls-36" d="M106.58,231.88c-.28-1.1,1-1.78.77-2.87v-.77c.16-.17.11-.42.25-.59a7.1,7.1,0,0,0,1.57-4.85h0a3.44,3.44,0,0,1,2.41-1.71c.45-.05.66-.52,1-.77a1.55,1.55,0,0,1,2.48.64c0,.18,0,.37.08.55.25,1.43-1,1.9-1.78,2.59a4.37,4.37,0,0,0-.86,5.77c.34.54.77,1,1.06,1.6.85,1.68-.25,3.2-.52,4.77a11.19,11.19,0,0,0-.5,2.38,28.64,28.64,0,0,1-1,5.95c-.32,1.16,0,2.38-.26,3.55-.1.39,0,.86-.37,1.16-.7-.36-.53-1-.5-1.59a30.28,30.28,0,0,1,1-7.15,1.83,1.83,0,0,0,.08-.25,27.63,27.63,0,0,1,1.4-6.78,3.4,3.4,0,0,0-.94-2.86,5.66,5.66,0,0,1,.82-7.16c.45-.41,1-.74,1.09-1.39s-.06-1-.67-.63a14.56,14.56,0,0,0-2.21,1.33,1.91,1.91,0,0,0-.61,1.64,4.45,4.45,0,0,1-.9,2.73,39.61,39.61,0,0,0-1.76,3.58C107.42,231.22,107.29,231.85,106.58,231.88Z"/><path class="cls-10" d="M115.06,221a1.85,1.85,0,0,0-2.81-.15c-.94.75-2.23,1-3.08,2a2.51,2.51,0,0,1,2.06-1.83.93.93,0,0,0,.58-.21,2.54,2.54,0,0,1,3.34-.78Z"/><path class="cls-10" d="M109.17,222.8c.41,2.15-.5,3.87-1.82,5.44,0-.13,0-.28,0-.38A11.34,11.34,0,0,0,109.17,222.8Z"/><path class="cls-37" d="M120.56,227.46a3.1,3.1,0,0,1-1.75,1.8c-.71.32-1.39.69-2.08,1-2,1-3.48.35-4.17-1.83-.53-1.68.24-2.92,1.33-4,.59-.58,1-1.82,2.25-1.2a5,5,0,0,0,1.77,1.63A18.28,18.28,0,0,1,120.56,227.46Z"/><path class="cls-38" d="M117.7,221.22c0,.35,0,.7,0,1.06-.71.87.29,1.37.49,2.2-.84-.28-1.56-.66-1.46-1.53C116.79,222.33,116.45,221.25,117.7,221.22Z"/><path class="cls-39" d="M129.9,225.48c.27,1-.28,1.63-1.23,2.24a5.42,5.42,0,0,0-1.68,6.1,2.42,2.42,0,0,1,.27.72c.15,1.61.4,3.26.41,4.81,0,2,.29,3.93.18,5.9A15.89,15.89,0,0,0,129,252.7c.6,1.34.11,1.89-1.36,2-4,.29-7.95-.35-11.91-.75-.68-.07-.93-.36-.85-1,.37-2.65.5-5.32,1.12-8,.82-3.55,2-7.08,1.48-10.83a2,2,0,0,0-.35-1c-.82-1.13-.63-1.89.71-2.24a7.93,7.93,0,0,0,3.21-1.55,1.1,1.1,0,0,1,1.7.08c.55.55,1.18,1.18,2,.6a1.92,1.92,0,0,0,.86-2.36A1.72,1.72,0,0,1,126,226c.58-.77,1.5-1.25,1.86-2.25.12-.34.48-.9,1.08-.7a1.25,1.25,0,0,1,.93,1.39C129.89,224.7,129.9,225,129.9,225.48Z"/><path class="cls-40" d="M129.28,243.73a32.91,32.91,0,0,1,.65,7.35v2.55c-1.5-3.44-2.28-9.29-.94-11.22Z"/><path class="cls-41" d="M128.51,231.05a28.69,28.69,0,0,1,.27,5.78l-.45,1.18c-.49-2.43-1.31-4.45-.79-6.66C127.68,230.75,127.93,230.32,128.51,231.05Z"/><path class="cls-42" d="M132.76,252.07c-.14-4.48-1.08-8.91-.79-13.42,0-.35,0-.69,0-1s-.11-.69.36-.66c.29,0,.41.34.37.6-.35,2.25.76,4.25,1,6.39a14.82,14.82,0,0,1,.11,2.58c-.09,2.46,1.34,4.42,2.11,6.6a1.06,1.06,0,0,1-.23,1.28,2.47,2.47,0,0,1-2.32.45.85.85,0,0,1-.67-1C132.77,253.28,132.76,252.68,132.76,252.07Z"/><path class="cls-43" d="M106.58,231.88c.85-1.42,1.32-3.1,2.2-4.41a7.16,7.16,0,0,0,1.23-4.11c0-.52.53-.94,1-1.14a11.82,11.82,0,0,0,2.09-1.23.77.77,0,0,1,1-.11.85.85,0,0,1,.29.94c-.15.57-.19,1.17-.81,1.54-2,1.16-2.11,3.18-2.25,5.16a1.84,1.84,0,0,0,.53,1.42c2,1.87,1.71,4,.68,6.16a4,4,0,0,0-.46,2.11c.14,1.66-.6,3.16-.84,4.74a35.79,35.79,0,0,0-.46,6.29,14.52,14.52,0,0,1,.08,3.36c-.37.67-1,.58-1.57.44a5.61,5.61,0,0,0-1.63-.2l-.5-.24a29.31,29.31,0,0,0-4.79-1.24c-.89-.18-1-.68-.85-1.39a13.47,13.47,0,0,1,.72-2.05c.76-1.73.85-3.64,1.36-5.43a51,51,0,0,1,2-5.64A10.35,10.35,0,0,0,106.58,231.88Z"/><path class="cls-15" d="M110.71,252.59c0-1.12,0-2.24,0-3.35a12.12,12.12,0,0,0,.53-3.22c0-.49-.19-1,.25-1.45.33,2.74-.65,5.4-.55,8.12,0,.15-.15.3-.23.44A.38.38,0,0,1,110.71,252.59Z"/><path class="cls-36" d="M110.71,252.59v.54c-1.1.6-2.09-.06-3.12-.29a1.19,1.19,0,0,1,1.3-.11A2,2,0,0,0,110.71,252.59Z"/><path class="cls-44" d="M85.82,136.52A8.7,8.7,0,0,1,83,135a7.6,7.6,0,0,0-4.65-1.59c-6.14-.15-12.27-.66-18.42-.57a5.86,5.86,0,0,0-1.91-.11c-1.31,0-1.6-.29-1.6-1.58,0-4.31,0-8.61,0-12.91,0-2.31.46-4.58.65-6.87a7.45,7.45,0,0,0,.55-3.33c.72-1.21.58-2.65,1-4s.68-2.74,1.17-4.07c.09-.26-.09-.4-.15-.59s0-.16,0-.2c.67-.34.4-1,.58-1.55a3.46,3.46,0,0,1,.89-1.62c.25.53,0,1-.18,1.46a55.68,55.68,0,0,0-3.16,13c-.18,2,.11,4-.5,6a3.72,3.72,0,0,0-.12,1.15c0,4.18,0,8.37,0,12.55,0,1.39.24,1.68,1.66,1.67,3.7,0,7.4.29,11.1.34q5,.06,10.05.47a4.48,4.48,0,0,1,1.47.45c1.39.62,2.5,1.68,3.83,2.38C85.65,135.77,86,136,85.82,136.52Z"/><path class="cls-45" d="M99.06,142.73c1,.56,2.47.22,3.11,1.53C101.07,143.87,99.79,143.86,99.06,142.73Z"/><path class="cls-46" d="M179.17,71.92a32.43,32.43,0,0,1,11,12.12c.64,1.26,1.3,2.52,2,3.78a71,71,0,0,1,2.37,8.42,55.82,55.82,0,0,1,.22,14.55,1.38,1.38,0,0,0-.1.75c0,1-.47,1.31-1.44,1.39-2.76.21-5.51,0-8.27.21-7.05.43-14.11.77-21.18.85-3.13,0-6.28.09-9.42.28-7.51.45-15,.75-22.54,1.2-3,.18-6.07.43-9.09.78h0c-2.44.3-3.16,2-3.66,4.11-.62,2.56-1.14,5.15-1.89,7.67a7.52,7.52,0,0,1-1.84,3.6.62.62,0,0,1-.59,0,.45.45,0,0,1-.14-.36c2-3.27,2.36-7,3.35-10.64a13.18,13.18,0,0,1,.91-2.81,14.93,14.93,0,0,0,.88-1.49,2.48,2.48,0,0,1,1.76-.91c1.08-.3,2.21-.22,3.3-.47a2.43,2.43,0,0,1,.65-.09c1.8-.16,3.59-.43,5.39-.53a50.9,50.9,0,0,0,5.92-.28c5.84-.52,11.69-.69,17.54-1,1.94-.11,3.89,0,5.83,0a24.62,24.62,0,0,0,5.28-.38,2.73,2.73,0,0,1,.9-.08,24.51,24.51,0,0,0,5.93,0c5.48.06,10.95-.36,16.42-.56a9.11,9.11,0,0,0,2.9-.09,2.94,2.94,0,0,1,.88-.1,1.18,1.18,0,0,0,1.36-1.16c.11-.75.31-1.48.36-2.25,0-2.84.09-5.69-.06-8.53a35.36,35.36,0,0,0-1.33-7.63c-.9-3.28-2.63-6.18-4.14-9.19a18.71,18.71,0,0,0-3.49-5,26.33,26.33,0,0,0-5-4.39c-.51-.35-1.09-.73-1-1.52Z"/><path class="cls-47" d="M187.42,114.88a4.94,4.94,0,0,1-.26.5,46.44,46.44,0,0,1-5,7.08c-.24.28-.47.75-.9.61s-.3-.66-.35-1c-.32-2.16-.13-4.4-1-6.49-.29-.73,0-1.12.85-1.15,1.85,0,3.7-.16,5.56-.23C186.84,114.16,187.38,114.08,187.42,114.88Z"/><path class="cls-27" d="M122.63,116.25a19.19,19.19,0,0,1,4.05-.7c10.71-.65,21.43-1.31,32.16-1.62,11.38-.34,22.75-.84,34.13-1.18,1.54,0,1.33-1.15,1.7-2,.1,2.25,0,2.36-2.2,2.38a75,75,0,0,0-8.48.25c-.26,0-.51,0-.69.26-3.37.1-6.75-.18-10.11.27-1,.33-2.1-.1-3.12.24-2.54,0-5.1-.18-7.62.08s-5.06,0-7.56.38a4.09,4.09,0,0,1-1.13-.15,7.07,7.07,0,0,1-4.17.22l-9.32.52c-.93.34-1.92-.09-2.85.25a106,106,0,0,0-12.21.76C124.35,116.33,123.49,116.25,122.63,116.25Z"/><path class="cls-46" d="M82.19,71.92A56.46,56.46,0,0,1,94.65,65.7a88,88,0,0,1,13.1-3.45c11.28-2.2,22.64-1.87,34-1.33A108.38,108.38,0,0,1,160.2,63.5a51.61,51.61,0,0,1,18.41,7.91,6.77,6.77,0,0,1,.56.51l-.06.08c-.85.44-1.41-.22-2-.59a51,51,0,0,0-12.78-5.86c-.23-.07-.47-.23-.72,0,1.74,1.68,1.74,1.68.64,4-.58,1.23-.3,1.72,1.08,1.77a1.85,1.85,0,0,1,2,1.48,2.31,2.31,0,0,0,.91,1.22A43.9,43.9,0,0,0,173,77.65a40,40,0,0,1,3.81,3.48c.16.14.28.35.46.45,2.44,1.37,4,3.59,5.83,5.63a25.27,25.27,0,0,1,3.49,6.17,1.08,1.08,0,0,1-.31,1.4,1.31,1.31,0,0,1-1.47,0,3,3,0,0,1-1.09-1.08,19.71,19.71,0,0,0-4.31-4.62,4.27,4.27,0,0,1-1-1,14.31,14.31,0,0,0-4-3.82,8.67,8.67,0,0,1-2.56-2.15C171,81,169.63,81,168.55,80.38c-.44-.25-.76.25-1,.62a4.12,4.12,0,0,0,.57,4.47c1.6,1.54,1.64,1.89.37,3.81a.52.52,0,0,0-.06.35c.51,0,.78-.45,1.13-.68A1.53,1.53,0,0,1,172.16,90c.13.77.25,1.37,1.08,1.73.64.28.44.88,0,1.3a4.67,4.67,0,0,0-1,2.74A2.58,2.58,0,0,1,169,98a1.85,1.85,0,0,0-1.92.46,9.57,9.57,0,0,1-6.68,2,13.31,13.31,0,0,0-3.33.15,50.28,50.28,0,0,1-5.22.22c0,.18.15.25.31.32.34.16.82.2.86.67s-.46.66-.85.82a1.65,1.65,0,0,0-.85.93,5.76,5.76,0,0,1-.72,1.22,1.4,1.4,0,0,1-2.47,0,2.19,2.19,0,0,1-.59-1.79c.49-2.57-.06-5.08-.36-7.6-.4-3.44-1-6.82-2.93-9.84A5.59,5.59,0,0,1,142.94,83c0-.43-.46-.42-.8-.49-.66-.14-.89-.58-.58-1.15a3.14,3.14,0,0,0-.06-2.76,11.71,11.71,0,0,0-2.42-4.39,16.7,16.7,0,0,1-1.77-2.38,6.3,6.3,0,0,0-2.51-2.34c-1.07-.5-1.42-1.81-2.26-2.62a4.11,4.11,0,0,1-.41-.81,1.8,1.8,0,0,1,.37-2.14,1.82,1.82,0,0,1,2.28-.3c1.48.86,3.32,1.37,3.74,3.42a1.89,1.89,0,0,0,.57.86c2.27,2.38,3.61,5.45,5.8,7.89a3.78,3.78,0,0,1,.54.88c.59,1.2.61,1.21,1.45.28.37-.41.72-.31,1.16-.18,1.84.57,2.22.3,2.78-1.52a15.62,15.62,0,0,0,.38-3.72c.06-.83-.58-1.19-1.21-1.51a21.46,21.46,0,0,0-5.21-1.51,31,31,0,0,1-5.38-2.08,1.45,1.45,0,0,1-1-2,1.91,1.91,0,0,1,2.15-1.29,44.58,44.58,0,0,1,6,1.48,9.64,9.64,0,0,1,2.83,1.24,2.21,2.21,0,0,0,2.44.13,2,2,0,0,1,2.64.6c.71.84,1.29.74,1.58-.35a1.2,1.2,0,0,1,1.34-1.06c.73,0,1.34-.51,2.1-.54a4.4,4.4,0,0,0-1.84-.52c-2.52-.57-5-1.12-7.59-1.58a49.12,49.12,0,0,0-6-.55,29.05,29.05,0,0,0-3.61-.24c-4.27-.06-8.53-.43-12.8-.25a39.91,39.91,0,0,0-6.09.08c-2.45.16-4.89.33-7.33.63A97.94,97.94,0,0,0,100,64.9a71.47,71.47,0,0,0-9.47,3.36A63.2,63.2,0,0,0,84,71.74a2.23,2.23,0,0,1-1.67.54A.24.24,0,0,1,82.19,71.92Z"/><path class="cls-48" d="M82.24,72.23c2.24-1.25,4.41-2.65,6.74-3.7A59.28,59.28,0,0,1,98.3,65c1.66-.44,3.31-.88,5-1.3a75.53,75.53,0,0,1,8.6-1.54,62.74,62.74,0,0,1,9.48-.81,38.94,38.94,0,0,1,4.71-.12,3.91,3.91,0,0,0,1.52-.12c4.4-.19,8.8.25,13.2.25.73.73.64,1.18-.35,1.46a7.68,7.68,0,0,1-3.72-.21,13.77,13.77,0,0,0-7,.24,7.51,7.51,0,0,1-2.83.17,53.83,53.83,0,0,0-12.48.63,40,40,0,0,0-7.79,1.75c-1.9.67-3.74,1.5-5.7,2-1.58.2-3.08.84-4.69.85a1,1,0,0,0-.73.5,7.56,7.56,0,0,1-2.63,2.06,2.07,2.07,0,0,1-.34.15c-1.09.26-2.13.69-3.21,1-1.76.45-2.45,2.06-3.54,3.25a7.68,7.68,0,0,1-2.71,2c-1.4.47-2.53,1.46-3.91,2a1.47,1.47,0,0,0-.94,1,5.31,5.31,0,0,1-1.79,2.62,4.48,4.48,0,0,0-1,1,8.83,8.83,0,0,1-3.82,3.34c-.27.16-.53.25-.54.62-.13,2.46-1.37,4.59-2,6.89a2.11,2.11,0,0,1-.16.34,20.71,20.71,0,0,0-3,7.55c-.17.64-.38,1.25-.59,1.87-.7,1.9-.88,3.94-1.68,5.82-.58,1.35-1,2.74-2.36,3.55-.66.38-.66,1.19-.62,1.88a12.39,12.39,0,0,0,.28,2.18,4.59,4.59,0,0,1-.17,2.76,3.83,3.83,0,0,0,1,4.26,5,5,0,0,1,.82.83,1.11,1.11,0,0,1,.16.39c.22,1.08-.48,1.66-1.45,2.28a8.37,8.37,0,0,0,3.34.17,13.51,13.51,0,0,1,3.48,0c2.48.4,5-.11,7.47.27a5.61,5.61,0,0,0,2.18-.26,10.9,10.9,0,0,1,3.56,0c2.32.18,4.58.91,6.93.61a2.84,2.84,0,0,1,1.16,0c3.07.89,6.18.13,9.26.24,2.84.09,5.7,0,8.43,1a28.7,28.7,0,0,0,5.9-1,5.64,5.64,0,0,0,2.27-3.32c.64-2.46,1-5,2.12-7.32.31-.63.55-1.47,1.58-1-.86,3.35-1.67,6.72-2.61,10-.36,1.24-.65,2.58-1.79,3.44-.32.6-.9.57-1.47.62-7.58.61-15.17.5-22.77.53-5.17,0-10.33-.53-15.5-.59a9.22,9.22,0,0,0-2.82-.2c-4.19.16-8.36-.24-12.54-.28-1.34,0-1.74-.39-1.76-1.69,0-3.5-.21-7,0-10.49a75.66,75.66,0,0,1,3.6-19.78c.53-1.18.79-2.46,1.36-3.62a13.58,13.58,0,0,1,1.31-3,6.55,6.55,0,0,0,1.32-2.73,2.37,2.37,0,0,1,.54-1,4.54,4.54,0,0,0,1.28-2.22,40.05,40.05,0,0,1,2.74-3.85,57.38,57.38,0,0,1,7.62-7.73l.78-.53C79.69,74,80.66,72.66,82.24,72.23Z"/><path class="cls-49" d="M66.08,89.3l-.48.76a10.29,10.29,0,0,1-1.34,2.87A8.82,8.82,0,0,0,63,95.75c-.19.19,0,.74-.55.58a.61.61,0,0,1,0-.56c2-4.64,4-9.22,7.54-13a.25.25,0,0,1,.06.38c-.76,1.34-1.95,2.39-2.64,3.79A14.17,14.17,0,0,1,66.08,89.3Z"/><path class="cls-44" d="M62.47,95.77l.05.55A24.85,24.85,0,0,1,61.75,99,52.63,52.63,0,0,0,59,110a21.29,21.29,0,0,0-.54,4.21c0,.2-.15.29-.35.27a23.27,23.27,0,0,1,0-3.34c.56-2.55,1-5.11,1.7-7.62A32.77,32.77,0,0,1,62.47,95.77Z"/><path class="cls-50" d="M70.07,83.19,70,82.81a27.91,27.91,0,0,1,5.56-6c.62-.54,1-1.39,2-1.5a.86.86,0,0,1-.35.66A63.79,63.79,0,0,0,70.07,83.19Z"/><path class="cls-51" d="M82.24,72.23c-1.32.82-2.4,2-3.9,2.58a11,11,0,0,1,3.85-2.89Z"/><path class="cls-44" d="M84.8,132.87c-8.45-.73-16.93-.72-25.39-1.08-1.62-.07-1.89-.33-1.88-1.92q0-6.41.06-12.8a4.29,4.29,0,0,1,.51-2.35c.52,1.19-.05,2.36-.08,3.54-.1,4,0,8,0,12,0,.68.39.87,1,.88,3.88.08,7.74.4,11.62.39,4.83,0,9.64.51,14.46.6,2.58.06,5.16.18,7.75.12s4.92.06,7.37,0c4.83,0,9.64-.29,14.45-.71l.48,0c.17.29-.1.36-.25.5a.59.59,0,0,0-.23,0c-3.26.21-6.5.72-9.78.72Z"/><path class="cls-18" d="M149.59,114.72a15.76,15.76,0,0,1,4.17-.22c-.06.06-.18.16-.18.17.79,1.19-.47,1.93-.65,2.91a14.78,14.78,0,0,1-.68,3.26c-.23.55-.38,1.16-1.05,1.06a1.27,1.27,0,0,1-1.07-1.28c0-.86,0-1.73,0-2.59a1.7,1.7,0,0,0-.9-1.8C148,115.53,149.7,115.3,149.59,114.72Z"/><path class="cls-27" d="M114.86,132.08c.08-.17.16-.34.25-.5,1.43-1.58,1.76-3.6,2.27-5.55a62.58,62.58,0,0,1,2.12-7.84,2.9,2.9,0,0,1,3.13-1.94.61.61,0,0,1-.53.5c-1.44,0-2,.91-2.42,2.09-.78,2.27-1.15,4.63-1.74,7-.51,2-.93,4.06-2.27,5.76C115.45,131.83,115.26,132.1,114.86,132.08Z"/><path class="cls-18" d="M170.07,114.19c1-.49,2.08-.14,3.12-.24C172.19,114.46,171.11,114.09,170.07,114.19Z"/><path class="cls-18" d="M137.42,115.49c.91-.51,1.9-.14,2.85-.25C139.36,115.77,138.37,115.38,137.42,115.49Z"/><path class="cls-52" d="M108.39,185.45c-1.56.17-2.84,1.1-4.27,1.63-3.14,1.17-6.23,2.39-9.66,2.28-1.7-.05-4-1.78-4.14-3.46-.16-1.53-.82-3-.6-4.57a8.34,8.34,0,0,1,0-3.11c.19-3.54,2.24-6,4.77-8.19a29.09,29.09,0,0,1,12-5.87c1.43-.37,2.83-.9,4.27-1.23a.81.81,0,0,0,1.13-.67,2.87,2.87,0,0,0-.1-2c-.09-.15-.45.25-.65-.05a5.4,5.4,0,0,1-.25-2.11,4.94,4.94,0,0,0,1-2.43c-.31.37-.26.81-.49,1.09s-.41.28-.6,0a57.51,57.51,0,0,1-.67-6.54c0-1.89-.48-3.75-.58-5.64-.06-1.16-1.13-1.45-2.07-1.62a76.17,76.17,0,0,1-8-1.95A23.78,23.78,0,0,1,94.08,139a1.69,1.69,0,0,1,2.31-.27,5.61,5.61,0,0,0,4.38.45,20.11,20.11,0,0,1,4.42-.8c1.08-.07.91-.19.55-1.22a5.44,5.44,0,0,0-2.27-3.23,15.45,15.45,0,0,1,3.33-.12,45.42,45.42,0,0,0,7.19-.51c.7,0,.38.39.19.66s-.56.51-.18.86c.89.82.66,1.89.72,2.94.19-.7-.16-1.48.41-2.06.39,0,.39.27.38.52a86.61,86.61,0,0,0,.69,8.82c.06.73.39,1.4.41,2.13-.13.42-.69.88.13,1.2a2.4,2.4,0,0,0,2.4,1.12,2.92,2.92,0,0,1,1.62.19,56.76,56.76,0,0,0,8.35-.13,23.24,23.24,0,0,1,2.77-.07c1.74.07,3.46-.33,5.19-.4.67.19.83.85,1.18,1.33-.37.59-1,.45-1.51.46a13.19,13.19,0,0,0-4.43.62,18.53,18.53,0,0,1-7.26.85,2,2,0,0,0-.9.07c-1.89.76-3.56.12-5.24-.74a5,5,0,0,0-4.15-.12,1.39,1.39,0,0,0-.29,2.56c1.37.95,1.38,2.19,1.21,3.54-.14,1.06-.3,2,.92,2.66.48.25.41.81-.07,1.18a3.86,3.86,0,0,0-1.6,3.39,2.42,2.42,0,0,0,1.24,2.11,8,8,0,0,0,3.65,1.18c.34,0,.75,0,.83.44s-.27.72-.66.82c-1.34.36-2.44,1.27-3.79,1.62a1.33,1.33,0,0,1-.34.16,8,8,0,0,0-2.48.77c-.95.37-1.92.7-2.88,1a6.62,6.62,0,0,0-2.33.74,52.73,52.73,0,0,0-6.59,2.87,2,2,0,0,1-1.21.33c-.51-.09-.89.22-1.36.54-.21-.7.3-1,.45-1.45s.32-1.16-.23-1.54-1.12,0-1.42.48c-1.25,2-2.13,4.11-1.37,6.57.24.8.65,1.23,1.46,1.06s.72-.87.52-1.46a1.14,1.14,0,0,1,.64-1.58,68,68,0,0,1,11.39-4.86,34.94,34.94,0,0,1,5.56-1.45,17,17,0,0,0,3.51-1.09c.71-.29,1.24.16,1.86.17.06.29-.14.54-.3.51-2-.29-2.76,1.22-3.78,2.4-.16.18-.14.62-.42.59-1.56-.14-1.28,1.32-1.81,2.06-.37.52.1,1,.44,1.35s.7.13,1,0a3.62,3.62,0,0,1,4,.13c.26.18.55.51.91.18s.16-.55,0-.82-.33-.36-.14-.56.48-.08.69.08a1.71,1.71,0,0,0,1.91.36.35.35,0,0,1,.52.22.4.4,0,0,1-.28.51A14.05,14.05,0,0,1,122,180a25,25,0,0,0-6.1,2.19c-1,.5-2.21.35-3.15,1C111.4,184.09,109.73,184.45,108.39,185.45Z"/><path class="cls-53" d="M100.37,176.93c2.58-1.16,5.09-2.46,7.76-3.39a16,16,0,0,1,2.34-.76l2.84-1c.83-.39,1.76-.45,2.61-.77h0a55,55,0,0,1,10.31-2.81,135,135,0,0,1,13.45-1.69c1.93-.18,3.87,0,5.8-.11a1.79,1.79,0,0,0,.47-.3c.32-.22.2-.88.8-.81,0,1.67-.16,1.86-1.81,1.87a38.72,38.72,0,0,0-7.05.43.78.78,0,0,1-.57.29c-1.73.1-3.46.31-5.19.4a.57.57,0,0,1-.4-.15,105.21,105.21,0,0,0-20.56,4.9,66,66,0,0,0-10,4,3.49,3.49,0,0,1-.74.19Z"/><path class="cls-30" d="M146.74,165.26l-.49,1.07c-.53-.5-.34-1.13-.21-1.7.8-3.4.62-6.86.54-10.3a14.65,14.65,0,0,0-1.21-4.87,1.13,1.13,0,0,0-1.41-.78c-1.54.2-3,.59-4.58.79a2.26,2.26,0,0,1-2-.25c-1.82.11-3.61.54-5.44.49,0-.51.35-.34.6-.39.4-.07.84.16,1.21-.16a70.54,70.54,0,0,0,10.71-1.56c.8-.2,1,.49,1.47.82,1.78,4.56,1.81,9.28,1.26,14.05C147.11,163.41,146.91,164.33,146.74,165.26Z"/><path class="cls-7" d="M131.72,168.1a.23.23,0,0,1,.2,0c1.84-.15,3.68-.19,5.5-.5l.46,0h6v.29c-.72,0-1.45,0-2.16,0-2.77-.17-5.44.56-8.17.73-.52,0-1,0-1.55.05S131.65,168.35,131.72,168.1Z"/><path class="cls-7" d="M127.89,169c.82,0,1.6-.56,2.54-.34C129.63,169.36,128.74,169.05,127.89,169Z"/><path class="cls-54" d="M116.11,186.31c0-.52,0-1,0-1.55a1.16,1.16,0,0,1,.89-1.26,86.37,86.37,0,0,1,11.72-3.19c1.2-.22,1.48.08,1,1.19-2.64,6.86-3.76,14.08-4.9,21.27-.62,3.92-1,7.88-1.36,11.83-.11,1.11-.53,1.56-1.67,1.29a6.69,6.69,0,0,0-1.42,0c-2,0-2.23-.17-2.37-2.16-.39-5.64-.74-11.28-1.12-16.92-.24-3.49-.51-7-.77-10.46Z"/><path class="cls-55" d="M133.78,149.16c-.47.63-1.32,0-1.81.55l-2.85,0a78.48,78.48,0,0,1-8.54,0,7.53,7.53,0,0,0-1.16,0,2.91,2.91,0,0,1-3-1.31c-.32-.34-.19-.69,0-1-.34-2.12-.74-4.22-1-6.35-.15-1.31,0-2.65-.07-4,0-.46.12-1-.22-1.37-.6-.63-.22-1.62-.81-2.26a51.18,51.18,0,0,1-9.26.52c-.54,0-1.12-.17-1.62.2-1.2.74-2.53.46-3.77.34-4.6-.44-9.2,0-13.83-.15a53.25,53.25,0,0,0,5.36,2.89,10,10,0,0,1,2.92,1.59,52.46,52.46,0,0,0,13,3.87c2.59.5,2.52.5,2.83,3.09.45,3.72.69,7.45,1,11.17a.8.8,0,0,1,0,1.05,9,9,0,0,1,.24,2.31,1.35,1.35,0,0,1,0,1.83l-.51.23,0-.47a58.64,58.64,0,0,1-.66-6.75c-.35-3.44-.51-6.91-1-10.33-.1-.66-.68-.85-.91-1.34a40,40,0,0,0-5.59-1.36,69.39,69.39,0,0,1-15.33-6,2.94,2.94,0,0,0-.6-.16,15.36,15.36,0,0,1-2.12-1.14c-.42-.3-1.34-.53-.73-1.43,3.83.21,7.67.28,11.5.28,6.34,0,12.69.2,19-.64,1.17-.15,1.31.67,1.31,1.45a89.53,89.53,0,0,0,.77,9.54c.14,1.29.37,2.56.61,3.83.2,1.06,1,1.27,2,1.34a71.37,71.37,0,0,0,10.34.09C130.76,149.19,132.27,149.2,133.78,149.16Z"/><path class="cls-7" d="M108.14,143.48c.92,0,1.24.44,1.33,1.34q.82,7.58,1.39,15.18a4.07,4.07,0,0,1-.11,1.9,1.87,1.87,0,0,1-1.34.18c1.47-1.48.46-3.22.44-4.81,0-2.7-.53-5.38-.64-8.08a25.58,25.58,0,0,0-.58-4.2c-.2-1-1-1.2-1.87-1.24-.54,0-1.16.13-1.48-.52h0C106.24,143.23,107.16,143.66,108.14,143.48Z"/><path class="cls-7" d="M106.6,162.78c.77-.54,1.5-.29,2.14-.43A2.88,2.88,0,0,1,106.6,162.78Z"/><path class="cls-7" d="M105.28,143.23c-.63-.1-1.34.24-2-.4a2.19,2.19,0,0,1,2,.4Z"/><path class="cls-56" d="M111.23,162.14c0-.61,0-1.22,0-1.83.14-.29.27-.59.45-1a3.93,3.93,0,0,1,.45,3.32c-.14.7-.82.94-1.46.28A.78.78,0,0,0,111.23,162.14Z"/><path class="cls-23" d="M89.72,178.22v3.11A4.18,4.18,0,0,1,89.72,178.22Z"/><path class="cls-57" d="M117.2,227.46c0,1.48-.46,1.75-1.75,1a1,1,0,0,0-.46-.19c-1,.07-1.4-.34-1.13-1.3s.64-1.53,1.84-1.16C117.07,226.26,117.19,226.26,117.2,227.46Z"/><path class="cls-58" d="M119,117.83a.92.92,0,0,0-1.05.57,45,45,0,0,0-1.58,4.85c-.52,2-.51,4.28-2.27,5.86a3.53,3.53,0,0,1-2.87,1.17,3.65,3.65,0,0,0-2.61.52,1.71,1.71,0,0,1-1.84-.1c-2-1-4.13-.68-6.2-.91A39.47,39.47,0,0,0,93,130c-1.46.13-2.74-.74-4.2-.55-1.79.24-3.56-.28-5.31-.35-2.09-.09-4.26-1.1-6.38,0a2,2,0,0,1-1.15.08c-3.09-.39-6.21,0-9.33-.4a38.23,38.23,0,0,0-4.87.15c-.42,0-1,.13-1.15-.36s.51-.62.85-.77a1.67,1.67,0,0,0,1.06-2c1.54.86,1.94.61,2-1.28s0-3.63,0-5.44c0-3.77.83-7.43,1.39-11.14.68-4.6,2.7-8.68,4.6-12.83a50.3,50.3,0,0,1,4-7.07,20.4,20.4,0,0,1,2-2.53c2.35-2.53,5-4.75,7.47-7.15a7.82,7.82,0,0,1,3.62-2.17,5.43,5.43,0,0,0,2.25-1.48,16.82,16.82,0,0,1,5.71-2.92,5.49,5.49,0,0,0,1.3-.54,20.36,20.36,0,0,1,7.82-2.8A7.27,7.27,0,0,0,106.4,68c1.67-.76,3.48-.52,5.22-.75a.73.73,0,0,1,.85.46c.23.73-.66.66-.86,1.13.19.43.63.34,1,.43.51.15,1,.29,1.17.88a1.35,1.35,0,0,1-.63,1.46,33.6,33.6,0,0,1-3,2.06,20.12,20.12,0,0,0-5.59,4.93c-.85,1.09-2.14,1.7-3.16,2.65a38.46,38.46,0,0,0-4.63,4.83c-1.11,1.46-2.55,2.67-3.71,4.1A11.18,11.18,0,0,0,92,91.5c-1.83,3.21-4.52,5.87-6,9.32a13,13,0,0,0-.78,2.3c-.53,2.37-1.83,4.47-2.37,6.83-1,4.33-2.11,8.63-1.82,13.13a4,4,0,0,0,.15,1.15q.09.38.15.75c.4.62.67.27.75-.17a9.59,9.59,0,0,0,.29-1.91,49,49,0,0,1,.52-6.83,24.39,24.39,0,0,1,1.46-6c.51-1.33.68-2.77,1.32-4a66.73,66.73,0,0,1,5.25-9.62c2.21-3.07,3.92-6.55,6.76-9.12,2.08-1.87,3.85-4.09,6.16-5.69a9.27,9.27,0,0,1,3.59-2,.57.57,0,0,0,.49-.34c1-2.07,3.08-2.93,4.87-4.07a15.26,15.26,0,0,0,3.11-2.06c.78-.81,2-.85,2.85-1.5A18.72,18.72,0,0,0,121,69.84a2.87,2.87,0,0,1,1.53-.91,1.27,1.27,0,0,1,1.62,1.64,12.22,12.22,0,0,1-.92,2.14,1.09,1.09,0,0,1-1.46.49,1.84,1.84,0,0,0-2.18.69,2.11,2.11,0,0,1-2.15.83c-.76-.14-1,.24-1.23,1a19.13,19.13,0,0,0-.84,3.27,1.47,1.47,0,0,1-1,1.11,2.66,2.66,0,0,0-1.15.81.88.88,0,0,1-1.35.24c-.78-.49-1.18-.12-1.41.65a2.62,2.62,0,0,0,2.11,3.42c.27.06.57.11.61.38.15,1.12.69,2.27-.09,3.36-.21.28-.48.54-.43.91.27,1.92-.81,3.4-1.71,4.89a4.48,4.48,0,0,0-.72,2.29,11.12,11.12,0,0,1-.85,3.77,28.93,28.93,0,0,0-1.64,8.22c-.17,2.41-.7,4.78-1,7.19a1.58,1.58,0,0,0,1.1,1.8c.84.35,1.29-.14,1.66-.8a4.31,4.31,0,0,1,.88-1.11c.42-.38.85-.8,1.48-.54a1.54,1.54,0,0,1,.87,1.36,12.39,12.39,0,0,1-.29,3.21.55.55,0,0,1-.46.55c-.37,0-.51-.24-.65-.51s-.2-.84-.43-1.23c-.51.12-.58.76-1.13.79-1.11.07-1,.55-.36,1.18.47.47.73,1.15,1.58,1.21.58,0,.7.57.64,1.08a2.77,2.77,0,0,1-.45,1.06c-.28.49-1,1-.31,1.56s1.27,1.16,2.07.57c.63-.47,1.28-1.13.79-2.09a2.27,2.27,0,0,1,.54-3c1.3-1,1.81-2.59,2.85-3.78a7.79,7.79,0,0,1,1.63-1.46c.42-.28.89-.45,1,.35A1.7,1.7,0,0,1,119,117.83Z"/><path class="cls-59" d="M119.8,116.53c-.16-.29-.32-.53-.69-.22a9.8,9.8,0,0,0-3,3.82,1.84,1.84,0,0,1-1,1.08,2.09,2.09,0,0,0-.8,3.13c.86,1.17-.52,1.55-.79,2.3-.2.57-.93.71-1.55.29l-.21-.16c-1.77-1-1.77-1-.61-2.77.61-.92.49-1.18-.65-1.33a.59.59,0,0,1-.48-.39,2.81,2.81,0,0,0-1.23-1.45.55.55,0,0,1-.21-.88c.21-.28.47-.84.86-.61.91.51.89-.21,1.08-.69.09-.21.19-.42.42-.44s.43.27.5.51.09.68.18,1a1.78,1.78,0,0,0,.47.82c.14-1.28.71-2.51.41-3.82-.25-1.06-.83-1.18-1.64-.42a3.45,3.45,0,0,0-1.08,1.43,1.22,1.22,0,0,1-1.86.76c-.71-.39-1.67-.62-1.47-2,.45-3.22,1.1-6.42,1.23-9.69a16.82,16.82,0,0,1,1.08-4.88,15.59,15.59,0,0,0,1.22-5.64,1.58,1.58,0,0,1,.49-1.25c1.07-1.1,1.34-2.65,2.06-3.95.15-.27,0-.59-.18-.86s-.29-.67,0-.83c1.12-.63.9-1.59.75-2.57-.09-.62.33-1.65-1-1-.4.2-1.94-1.83-2-2.64a3.67,3.67,0,0,1,.45-2.24c.39-.71,1.08-.64,1.61-.1s.81.44,1-.2c.14-.43.42-.56.83-.68a1.61,1.61,0,0,0,1.07-2.61c-.34-.61,0-.67.42-.74s.8-.19.66-.83c-.26-1.15.31-1.74,1.53-1.46a1.49,1.49,0,0,0,1.72-.58c.64-.68,1.36-1.78,2.69-.83a.74.74,0,0,0,1.16-.59,2.61,2.61,0,0,1,.6-1.39,1.17,1.17,0,0,0,0-1.45c-.36-.48-.88-.33-1.41-.17a3.41,3.41,0,0,0-1.32,1,9.06,9.06,0,0,1-4,2.5c-1,.26-1.42,1.38-2.35,1.79A28,28,0,0,0,109.38,78c-.67.49-1.53.94-1,2.18-1.87-.66-2.92.8-4,1.58a55,55,0,0,0-7.63,7.09,34.61,34.61,0,0,0-3.47,4.93C91.7,96,89.82,98,88.91,100.57c-.67,1.92-2.24,3.34-2.83,5.32-.66,2.24-1.52,4.42-2.14,6.69a39.41,39.41,0,0,0-1.23,10.18,16.25,16.25,0,0,1-.26,2.17,1,1,0,0,1-.82.88c-.49.06-.68-.29-.71-.73a1.63,1.63,0,0,0,.85-1.46c.18-1.63.18-3.28.23-4.91.11-3.91,1.31-7.55,2.56-11.16.82-2.37,1.49-4.88,3.21-6.87a3.78,3.78,0,0,0,.67-1.11c1.48-3.7,4.16-6.62,6.41-9.82A46.64,46.64,0,0,1,103.6,81a94,94,0,0,1,13.51-9.5,32.57,32.57,0,0,0,4.26-2.7,8.69,8.69,0,0,1,2.61-1.1,4.69,4.69,0,0,0,.94-.43c.33-.22.66-.5.46-.95s-.61-.43-1-.37a3.82,3.82,0,0,0-1.41.63,148.07,148.07,0,0,0-14.34,9.28,19.06,19.06,0,0,0-3.87,3.41,2.35,2.35,0,0,1-.56.53c-3.7,2.38-6.34,5.81-9.17,9.06a51.73,51.73,0,0,0-7.84,11.06A57.84,57.84,0,0,0,83,111.67c-.42,1.76-.65,3.56-1.1,5.31a11.07,11.07,0,0,0-.2,4.37,2.93,2.93,0,0,1-.75,3,14,14,0,0,1-.17-5.62,65.37,65.37,0,0,1,2-9.56c.55-2.09,1.63-4,2.16-6.07.85-3.35,2.88-6.06,4.89-8.81,1.42-1.94,2.83-3.88,4.26-5.81a22.23,22.23,0,0,1,1.67-1.57,40.07,40.07,0,0,1,3.64-4.18,50.51,50.51,0,0,1,4.33-3.64,9,9,0,0,0,2.08-2.27,12.77,12.77,0,0,1,3.54-2.93c1.17-.8,2.38-1.55,3.55-2.35.41-.29.89-.66.69-1.27s-.69-.58-1.17-.61a2.48,2.48,0,0,1-.39,0c-.45-.11-1-.18-1.1-.72s.58-.48,1-.61a3.78,3.78,0,0,0,.53-.28c0-.27-.18-.42-.34-.39-1.92.35-4-.13-5.79.92a6.45,6.45,0,0,1-2.5.5c-1.67.25-3.12,1.11-4.74,1.46a2.52,2.52,0,0,0-1,.5c-1.53,1.27-3.47,1.57-5.23,2.3a15.75,15.75,0,0,0-3.56,2.52,2.77,2.77,0,0,1-1.18.75,7.76,7.76,0,0,0-4.22,2.58c-2.27,2.22-4.7,4.28-6.89,6.58a32.18,32.18,0,0,0-5.09,7.58A70.53,70.53,0,0,0,67,104.39c-.9,2.84-1.1,5.81-1.66,8.71-.7,3.66-.51,7.37-.53,11.07a11.2,11.2,0,0,1,0,1.16A1.76,1.76,0,0,1,63.72,127c-.76.22-.84-.68-1.21-1.1h0a6.23,6.23,0,0,1-.35-3.92c.24-2.27.14-4.56.43-6.83a34.52,34.52,0,0,1,1.49-6.51c.46-1.39.55-2.86,1-4.25a4.78,4.78,0,0,1,.52-1.81,36.86,36.86,0,0,1,3.11-7.78h0c1-1.71,1.59-3.6,2.62-5.32a64.87,64.87,0,0,1,4.58-6c.95-1.22,2-2.34,3-3.53a15.5,15.5,0,0,1,4-3l2.59-1.82c1.74-2.4,4.45-3.28,7-4.4h0a6.78,6.78,0,0,0,1.8-1c1.87-1.38,4.18-1.73,6.23-2.67,1.59-.57,3.23-1,4.82-1.62a25.67,25.67,0,0,1,7.53-2c2.38-.2,4.75-.57,7.12-.91a30.76,30.76,0,0,1,3.46,0c2.39-.07,4.72.5,7.19-.31a9.81,9.81,0,0,1,5.66,0,8.82,8.82,0,0,0,4,.36c.85-.15.88-.53.37-1.11,4,.44,8,.38,11.89,1.28,2.13.48,4.28.89,6.41,1.34.21,0,.41.13.62.19s.75.18.67.63a.58.58,0,0,1-.82.4c-1-.42-1.74.92-2.8.36-.29-.15-.16.37-.17.59a1.69,1.69,0,0,1-1.29,1.59c-.66.21-.81-.52-1.11-1a1.39,1.39,0,0,0-2.12-.45,2.12,2.12,0,0,1-2.63,0c-2.76-1.74-6-2.12-9-2.86-.87-.21-1.34.42-1.72,1.09s.11,1.18.66,1.43a29.4,29.4,0,0,0,5.43,2.12,23.27,23.27,0,0,1,5.66,1.71,1.93,1.93,0,0,1,1.15,2.27c-.14,1.31-.3,2.59-.56,3.88-.34,1.64-1.52,1.89-3.09,1.14-.78-.37-.85-.21-1,.46-.06.37-.16.82-.64.85s-.67-.36-.87-.7a85.26,85.26,0,0,0-6.8-9.77,4.51,4.51,0,0,1-.76-1.33c-.3-.86-.57-1.75-1.79-1.7-.23,0-.49-.32-.71-.51-.78-.68-1.61-1.07-2.56-.4s-.67,1.48-.23,2.3a2,2,0,0,1,.13.5c.1.14.26.28.28.43a2.66,2.66,0,0,0,2.39,2.56c.69.13.41.93,0,1.4a2.08,2.08,0,0,1-1.51.63c-1,.15-1.22.59-.65,1.45a3.52,3.52,0,0,0,.63.65,1,1,0,0,1,.16,1.67,1.54,1.54,0,0,0-.37.82c-.25,1.58-.37,1.69-1.88,1.89-1.3.17-1.61.74-1,1.91a15.1,15.1,0,0,1,1,1.79.75.75,0,0,0,.77.53c1,.07,1.34.51,1,1.53a9,9,0,0,0-.35,2.42,2.81,2.81,0,0,0,1,2.6,2.83,2.83,0,0,1-.17,4.11,2.35,2.35,0,0,0-.9,1.9c0,.5,0,1.16-.75,1.13s-.71-.68-.7-1.18c0-1.26-.32-2.49-.31-3.74a1.4,1.4,0,0,0-.34-1.09,2.44,2.44,0,0,1-.69-2.28c.16.89-.27,1.56-1.39,1.84s-.94,1.19-1,2a1.21,1.21,0,0,0,1.18,1.4,1.54,1.54,0,0,1,1.38,1.62,20.13,20.13,0,0,1,.16,3.1,2.63,2.63,0,0,0,.68,1.9.78.78,0,0,0,1.08.35c.92-.34,1.23-.05,1.15.93a5,5,0,0,1-.25,1,.9.9,0,0,0,.44,1.2,1.72,1.72,0,0,1,.72.55c.65,1,1.26.82,2.13.15,1.06-.81,2.47-.57,3.73-.8.53-.1.73.38.34.87a1.09,1.09,0,0,1-.19.18c-.36.34-1.19.45-1,1s1,.28,1.5.41a3.73,3.73,0,0,0,2.64-.29,9.21,9.21,0,0,1,2.89-.66,2.41,2.41,0,0,1,2.35,1.31c.47.69.11,1.25-.57,1.57a25.38,25.38,0,0,0-2.59,1.47c-1.25.75-1.82.44-2.08-1.19a12.22,12.22,0,0,1-1.65,1.58,5.21,5.21,0,0,1-3.11,1.08,1.26,1.26,0,0,0-.63.13c-2.14,1.21-4.44.65-6.69.58-.09,0-.19-.05-.26,0-1.82.9-3.91.25-5.76,1-.34.14-.85.17-.76.7s.52.39.85.44a2.93,2.93,0,0,1,.87.22.72.72,0,0,1-.1,1.37c-.44.15-1,0-1.36.33h-.52c-1.11.3-2.32-.12-3.37.51C120.85,116.05,120.16,116,119.8,116.53Z"/><path class="cls-60" d="M125.24,115.23c.24-.56.75-.48,1.21-.55.27,0,.5-.19.49-.5s-.26-.44-.53-.47-.78,0-1.16,0-.9-.21-.87-.75.14-1,.77-1c1.22,0,2.3-1.24,3.65-.32.37.25.76-.31,1.15-.45,1.6-.61,3.23-.23,4.84-.13a4.08,4.08,0,0,0,2.37-.28,7.44,7.44,0,0,1,2.72-.7,3.92,3.92,0,0,0,3.25-2.2c.23-.5.54-.69,1-.56s.34.57.18.93-.24.56.09.8a.68.68,0,0,0,.84,0,19.76,19.76,0,0,1,3.49-1.93c.44-.15.41-.64.09-1-.64-.68-1.21-1.33-2.41-1a26,26,0,0,0-3.21.9c-1.29.52-2.61-.09-3.91-.22-.52,0-.58-.6-.09-1a11,11,0,0,0,1.69-1.33c-1.38.77-3.28-.34-4.39,1.32-.08.13-.29.18-.45.25-.48.2-1.08,0-1.12-.34-.14-1.24-2.56-.84-1.81-2.62a3.3,3.3,0,0,0,.34-.83c.05-.33.12-.83-.05-1-.36-.3-.57.15-.78.4s-.64.5-.85.1c-.57-1-1.64-1.84-1.23-3.36a8,8,0,0,0-.19-3.06c-.09-.64-.61-.86-1.25-.87s-1.33-.1-1.27-.93c.09-1-.61-2.66.77-3,1.75-.39,2-1.31,1.76-2.8.43.17.26.44.29.64s0,.43,0,.64,0,.82.16,1c1.82,1.66,1,3.91,1.4,5.89.07.38-.24,1,.41,1s.34-.69.35-1.07a1.9,1.9,0,0,1,1.18-2c1-.45.91-3.2-.16-3.68a1.52,1.52,0,0,1-1-1.72c.08-1.23-.25-2.49.47-3.65a.77.77,0,0,0-.19-1c-.31-.28-.54-.06-.75.19-.43.51-.7.21-.78-.23a4.94,4.94,0,0,0-1.17-2.27,2.07,2.07,0,0,1-.34-2.09c.27-.75,1-.44,1.59-.48,1-.07,1.88-.18,1.45-1.57a.75.75,0,0,1,.33-.91c.93-.51.67-1-.05-1.38a2.12,2.12,0,0,1-1-1.44c-.24-.81,0-1.25.91-1.2a2.5,2.5,0,0,0,1.4-.16,1,1,0,0,0,.64-1c-.07-.48-.54-.31-.86-.37-1.33-.21-1.74-.74-1.71-2.1a4.46,4.46,0,0,0-.21-1c1.13,1.55,3,2.4,4.07,3.89,1.61,2.15,3.65,4,4.57,6.65.49,1.4,1.49,2.74.34,4.32-.28.38.11.79.61.51.68-.4,1,.12,1,.51-.23,1.31.75,2.1,1.29,3,1.91,3,2.41,6.39,2.91,9.79.25,1.7.39,3.41.52,5.12a8,8,0,0,1-.2,2.43,1.89,1.89,0,0,0,1.16,2.22c1,.46,1.27-.59,1.67-1.18s.49-1.92,1.84-1.78a.3.3,0,0,0,.28-.36.38.38,0,0,0-.48-.31c-.42.09-.76.09-.94-.4-.12-.32-.35-.67-.09-1s.51.11.76.19.46.24.61.18c1.54-.58,3.18.23,4.74-.4a5.44,5.44,0,0,1,2.75-.08,8.38,8.38,0,0,0,7.24-2.45c.41-.4.65-.51,1.18-.13a2.21,2.21,0,0,0,3.37-1.63c.13-1.12.13-2.31,1.25-3.11.48-.34.31-.8-.34-.82-.84,0-1-.54-.94-1.22s0-1.39-.78-1.77-1.26.3-1.79.67a2.76,2.76,0,0,0-.43.47.58.58,0,0,1-.91.07.6.6,0,0,1,0-.92c.23-.25.5-.48.71-.75a1.64,1.64,0,0,0-.37-2.46c-1.81-1-2.1-4.66-.63-5.85.27-.22.59-.6.88-.35,1.25,1.07,3.22,1,4.08,2.71.42.82,1.39,1.12,2.13,1.6A13.66,13.66,0,0,1,178.71,88a4,4,0,0,0,1.12,1,20.61,20.61,0,0,1,4.1,4.44,4.12,4.12,0,0,0,.6.82c.43.36,1,.73,1.52.36s.33-1,0-1.5c-.95-1.62-1.52-3.44-2.69-5-.58-.76-1.5-1.13-1.95-2a7.23,7.23,0,0,1-.79-1.45,1.12,1.12,0,0,0-.7-.88c-2.54-.84-4.11-3-5.88-4.72-1.23-1.22-2.85-1.73-4-2.95-.8-.83-1.76-1.51-2.64-2.27-.12-.11-.32-.26-.32-.39,0-1.83-1.26-1.89-2.6-1.77-.78.08-1-.33-.93-1a3.38,3.38,0,0,1,.88-2.09c.89-1,.68-1.74-.54-2.28a2.91,2.91,0,0,1-.6-.25c-.27-.2-.58-.44-.41-.84s.51-.25.79-.26a5.37,5.37,0,0,1,1.94.61,49.39,49.39,0,0,1,11.4,5.4,4.47,4.47,0,0,0,2.06,1c.73,1.63,2.45,2.19,3.68,3.27a37,37,0,0,1,5.79,6.83c.14.19.11.49.16.74-.3.08-.42.16-.22.51.78,1.42,1.81,2.74,1.71,4.51,0,.48.41.82.76,1.15,1.31,1.27,1.34,2.08.32,3.61-.71,1.07-1.42,2-2.9,1.6-.45-.11-.82.23-1.12.55a1.91,1.91,0,0,1-2.67.38,2.22,2.22,0,0,0-3.2.37c-1,1-1.8,1-3,.35-1.48-.77-1.54-.73-2.42.65a4.85,4.85,0,0,1-2.91,2c-3.4.93-6.66,2.3-10,3.25-1,.15-2.05-.12-3,.44a16.15,16.15,0,0,0-4.79,1.48,9.93,9.93,0,0,1-3,.74c-1,.07-1.1.9-1.53,1.59.5.2.86-.2,1.26-.13a17.65,17.65,0,0,0,9.15-.34c.83-.07,1.67,0,2.51-.06,1.89.12,3.69.77,5.62.82a51.06,51.06,0,0,0,6.06,0,5.46,5.46,0,0,1,1.93.1c.11,0,.28.06.32.16.33.81.47.18.65-.09a1.31,1.31,0,0,1,1.07-.34c1.72.45,3.37,0,5-.29a2.23,2.23,0,0,1,.89.07c1,.66,1.11.89.28,1.7s-1.37,1.92-2.83,1.6c-.43-.09-.59.43-.8.74s-.68.87-1,1.3a1.33,1.33,0,0,1-1.69,0,2.73,2.73,0,0,0-3,0c-1.22.77-2.75.73-3.9,1.61-5.91.25-11.83.5-17.75.56-5.07.06-10.13.47-15.2.75a13.7,13.7,0,0,1-2.56.24c-.14-.38-.32-.72-.82-.64-1.71.29-3.5.17-5.14.9Z"/><path class="cls-61" d="M177.59,106.69c-4.69.15-9.38.41-14-.78a3.49,3.49,0,0,0-2.58,0c-3.08,1.28-6.21,1-9.34.26-1-.83-.46-1.47.26-2.08a9.43,9.43,0,0,0,3.79-1A8.64,8.64,0,0,1,160,102c1-.52,2.13,0,3.11-.52a10.9,10.9,0,0,1,2.89-1.06,11.33,11.33,0,0,0,4-1.4A5.69,5.69,0,0,1,172,98.4c1.69-.35,3.16-.87,3.86-2.71.4-1,1.34-.86,2.19-.42,2,1,1.94,1,3.6-.52a1.6,1.6,0,0,1,2.2-.35c1.28.89,2.54,1.29,3.63-.34a.9.9,0,0,1,1.18-.22c.9.39,1.45,0,1.89-.79.33-.6.94-1.1,1.09-1.73a1.71,1.71,0,0,0-.83-2,1.63,1.63,0,0,1-1-1.53c.22-1.82-1-3-1.72-4.43-.13-.25-.51-.45-.23-.76s.56.19.87.22a41.4,41.4,0,0,1,3.58,7.25l.57,1.82a9.32,9.32,0,0,1-1.35,3.18,3.23,3.23,0,0,1-1.84,1.53c-.66.16-.9.6-.5,1.14,1,1.35,1.06,3,1.38,4.51a6.7,6.7,0,0,0,.3,1.25c.14.35.22.83.69.84s.54-.47.69-.81l.05-.12c.14-.36.25-.87.67-.85s.51.6.65,1a16.41,16.41,0,0,1,.51,3.82,1.78,1.78,0,0,0,.27,1.1,21.09,21.09,0,0,1-.51,3.15c-.05.47-.41.48-.77.49h-1.54c-.93.37-1.93-.14-2.85.25-5.53.19-11.05.69-16.59.52,0-.44.11-.79.59-.82,1.49-.1,2.67-1,4-1.48a2.14,2.14,0,0,1,2.15.2,1.55,1.55,0,0,0,1.78.29,1.64,1.64,0,0,1,1.46-.3c2.32.26,4.64-.15,7,.06a.91.91,0,0,0,1-.47c.34-.6.73-1.16,1.09-1.75a.88.88,0,0,0,.06-1c-1.24-1.82-1.63-4-2.37-6,0-.09-.09-.14-.23-.17a9.4,9.4,0,0,1-1,3.78c-.53.84-1.18,1.37-2.23.88a8.74,8.74,0,0,0-2.16.2c-1.14.27-2.27.7-3.48.09-.5-.25-1.08.12-1.62.23A.36.36,0,0,1,177.59,106.69Z"/><path class="cls-62" d="M194.41,108.49c-1-.54-.62-1.59-.7-2.38a20.6,20.6,0,0,0-.67-3.36c-.54.4-.33,1-.6,1.45s-.39.85-.9.82-.61-.43-.78-.79a17.58,17.58,0,0,1-.93-4.12,4.54,4.54,0,0,0-.8-1.86c-.87-1.15-.66-1.55.69-2s1.78-1.86,2.42-3c.26-.45,0-1.21.75-1.35a22.63,22.63,0,0,1,1.49,7.48C194.6,102.4,194.42,105.45,194.41,108.49Z"/><path class="cls-60" d="M114.63,131.62a36.61,36.61,0,0,1-6.76.73q-12.15.42-24.3,0c-8.14-.28-16.27-.66-24.41-1-1,0-1.39-.43-1.37-1.41.13-4.83-.29-9.66.34-14.47a5,5,0,0,0,0-.77.42.42,0,0,0,0-.25c.47-2.92.79-5.86,1.5-8.74a31.23,31.23,0,0,1,2.09-6.88.18.18,0,0,1,0,.31,73.23,73.23,0,0,0-2.43,10c-.37,2.5-.67,5-.95,7.51-.49,4.3-.18,8.61-.29,12.91,0,1.14.37,1.49,1.49,1.48,4.18-.05,8.34.42,12.52.26.84.33,1.75-.08,2.59.23,9.72.45,19.43.7,29.16.51,3.34-.06,6.68-.33,10-.52a3.46,3.46,0,0,0,.74-.22Z"/><path class="cls-59" d="M130.68,114.71a.59.59,0,0,1,.47-.51c1.61-.61,3.32-.52,5-.77,1.09-.16,1,.33.5,1A32.09,32.09,0,0,1,130.68,114.71Z"/><path class="cls-60" d="M121.35,115.75c1-.93,2.24-.36,3.37-.51A21.43,21.43,0,0,1,121.35,115.75Z"/><path class="cls-59" d="M188.74,112.38c.89-.69,1.91,0,2.85-.25C190.67,112.66,189.68,112.26,188.74,112.38Z"/><path class="cls-63" d="M150.39,101.14c-.1.71-.2,1.3-.27,1.9s-.28.92-.74.93-.52-.56-.56-1c-.42-4.52-.76-9.06-1.54-13.54A14.24,14.24,0,0,0,145.56,85c-1.51-2.72-2.2-5.78-3.77-8.45a33.62,33.62,0,0,0-5.93-8.07,19,19,0,0,1-2.51-2.57c-.33-.43-.85-.86-.24-1.44s.95-.24,1.49.09c2.25,1.32,3.42,3.61,4.9,5.56,3,4,5.88,8.15,7.09,13.06.93,3.72,2.53,7.23,3.14,11,.21,1.36.13,2.74.35,4.11A20.44,20.44,0,0,0,150.39,101.14Z"/><path class="cls-59" d="M127.58,61.08c-1.41.52-2.87.14-4.31.24-.63,0-1.28,0-1.92,0,1.23-.54,2.52-.15,3.78-.24C125.94,61,126.76,61.08,127.58,61.08Z"/><path class="cls-58" d="M65.1,104.35a9.58,9.58,0,0,1-.61,3.41,51.69,51.69,0,0,0-1.78,12.31c-.06,1.93-.15,3.86-.2,5.79a3.84,3.84,0,0,1-2.24-4.48c.57-2,.13-3.9,0-5.85-.05-.78-.25-2.12,1.41-2.37.53-.08,1-1.32,1.29-2.12a23.78,23.78,0,0,0,1.61-5.68A1.4,1.4,0,0,1,65.1,104.35Z"/><path class="cls-58" d="M83,76.88c-.46.72-1.3,1-1.91,1.5a71.39,71.39,0,0,0-7.18,8.06,31.38,31.38,0,0,0-4.47,7.43,1.39,1.39,0,0,1-.7.89c.48-1.37.78-2.79,1.39-4.12a3.7,3.7,0,0,0,.51-1.83c-.28-2,1.46-2.09,2.5-3a19.72,19.72,0,0,0,4.58-5.42c.33-.62.6-1.32,1.16-1.53C80.32,78.35,81.47,77.24,83,76.88Z"/><path class="cls-58" d="M100.61,67a81.51,81.51,0,0,1-8,3.63c1-.82,2.28-1.25,2.84-2.52a.52.52,0,0,1,.52-.32C97.57,68,99.06,67.31,100.61,67Z"/><path class="cls-58" d="M92.58,70.66a12.09,12.09,0,0,1-3.48,1.88c-1.45.45-2.19,1.89-3.52,2.52a7.35,7.35,0,0,1,5.62-4.13C91.65,70.83,92.12,70.75,92.58,70.66Z"/><path class="cls-58" d="M68.73,94.76a1.41,1.41,0,0,1,0,.51,38.52,38.52,0,0,0-2.76,6.87c0,.15-.2.26-.31.4A17.35,17.35,0,0,1,68.73,94.76Z"/><path class="cls-58" d="M61.76,99.16l0-.31a6.17,6.17,0,0,1,.81-2.53l.49-.57A14.84,14.84,0,0,1,61.76,99.16Z"/><path class="cls-58" d="M66.08,89.3A5.84,5.84,0,0,1,67.43,87,2.93,2.93,0,0,1,66.08,89.3Z"/><path class="cls-58" d="M64.26,92.93a15,15,0,0,1,1.34-2.87A3.94,3.94,0,0,1,64.26,92.93Z"/><path class="cls-58" d="M74.69,131.55c-.86-.09-1.76.26-2.59-.23C73,131.41,73.86,131.06,74.69,131.55Z"/><path class="cls-64" d="M149.56,115.78a3.64,3.64,0,0,1,2-.36c1.67-.06,1.58-.07,1.09,1.47a21.84,21.84,0,0,0-.62,3.54c-.07.51-.16,1-.79.95s-.52-.58-.53-1c0-.65,0-1.29,0-1.94A2.64,2.64,0,0,0,149.56,115.78Z"/><path class="cls-30" d="M146,166.58a1.23,1.23,0,0,1-1,.22,82.4,82.4,0,0,0-12.36.77,95.46,95.46,0,0,0-15.51,3.17c-.41.12-.84.16-1.26.24a15.45,15.45,0,0,1,3.85-1.83c.3-.08.7-.09.67-.46s-.43-.2-.7-.17c-1.66.15-4.79-1.28-5.08-2.76-.15-.75-1-2.08.35-2.86a.88.88,0,0,0,.38-.78c0-.58.14-1.06.88-1,.29.05.4-.06.4-.33s-.09-.45-.34-.46c-1.66-.06-1.12-1.38-1.08-2.16s.11-1.53.15-2.3a1.15,1.15,0,0,0-.75-1.23,1.91,1.91,0,0,1,.64-3.72c1.66-.21,3.28-.5,4.53,1,1.41-.38,2.8,1.17,4.23,0a1.12,1.12,0,0,1,.73-.16,16.83,16.83,0,0,0,8.61-1.22c1-.43,2.14-.07,3.21-.15.54,0,1.13.21,1.6-.25a11.46,11.46,0,0,1,5.3-1.32,1.67,1.67,0,0,1,1.64,1.07,11.15,11.15,0,0,1,1.37,6.45,13.89,13.89,0,0,0-.13,2.32,19.26,19.26,0,0,1-.59,6.14A1.64,1.64,0,0,0,146,166.58Z"/><path class="cls-56" d="M94.13,138.82a34,34,0,0,1-6.41-2.92,12.39,12.39,0,0,1-3.2-2c6.46-.12,12.7,0,18.93.2.46.08.91.18,1.38.23.64.08.9.37.76,1a1.85,1.85,0,0,0,.94,2.08c.77.48.48.78-.16,1a3.08,3.08,0,0,1-1.36.3c-1.91-.29-3.56.74-5.37,1a4.08,4.08,0,0,1-2.59-.36A4.68,4.68,0,0,0,94.13,138.82Z"/><path class="cls-56" d="M146,166.58c-1,0-1.12-.21-.82-1.21a13.69,13.69,0,0,0,.79-4.14,40.74,40.74,0,0,1,.19-5.4c.28-2.17-.6-4.2-1.6-6.09-.33-.61-1.15-.55-1.88-.48-1.54.17-2.95.92-4.51,1-.5-.15-1.23-.12-.78-1a29.09,29.09,0,0,0,6.93-1.14.92.92,0,0,1,1.2.65,16.34,16.34,0,0,1,1.43,5.68c.08,3.69.28,7.4-.71,11a3.38,3.38,0,0,0,0,.9Z"/><path class="cls-23" d="M110.89,182.5c-.34-.42.06-.82,0-1.26-.3-1.26-.4-1.35-1.54-.72-.52.3-.52.3-1.41-.6-.22,0-.27.2-.28.37-.1.78-.65.8-1.24.77-.36,0-.65-.2-.5-.55.22-.51,0-1.53.79-1.44,1.75.21,2.4-1.21,3.36-2.09.39-.35.52-.13.7,0a1.32,1.32,0,0,0,1.9-.45c.23-.32.51-.65,1-.3s.13.67-.11,1-.3.29-.23.55c.61,2.12-1,3.3-2,4.74C111.18,182.52,111,182.49,110.89,182.5Z"/><path class="cls-30" d="M109.94,168.65a1.92,1.92,0,0,1-1.72-1,1,1,0,0,1,.51-1.32c.51-.33.2-1.17.85-1.33a1.53,1.53,0,0,1,1.74.54,1.58,1.58,0,0,0,1.47,1,.43.43,0,0,1,.48.47c0,.15-.09.39-.2.43C112,167.91,110.91,168.29,109.94,168.65Z"/><path class="cls-56" d="M114.33,133.43c1.51.32.53,1.51.81,2.26,0,.82,0,1.63,0,2.45,0,.2,0,.47-.25.52s-.47-.21-.48-.46c0-.6,0-1.2,0-1.81s0-1-.48-1.25c-1.23-.7-.73-1.07.22-1.42C114.19,133.68,114.25,133.53,114.33,133.43Z"/><path class="cls-56" d="M123.45,150.62c.78.39,1.5-.27,2.27-.13.4.08,1,.07.92.63s-.55.73-1.1.45a2.93,2.93,0,0,0-2-.06.57.57,0,0,1-.73-.54C122.8,150.53,123.13,150.53,123.45,150.62Z"/><path class="cls-56" d="M111,158c0-.35,0-.7,0-1.05.37-.52.13-1.29.71-1.74.17-.13.29-.33.53-.23.09,0,.23.24.21.26C111.82,156.07,112.4,157.54,111,158Z"/><path class="cls-56" d="M114.41,160.82c-.15-1.12-.3-2.25-.47-3.36,0-.26-.13-.5.06-.73a.29.29,0,0,1,.45,0c.24.19.48.45.36.76C114.41,158.55,114.74,159.67,114.41,160.82Z"/><path class="cls-30" d="M120.58,149.74h8.54a3.59,3.59,0,0,1-2.26.21C124.76,149.88,122.65,150.24,120.58,149.74Z"/><path class="cls-30" d="M115.92,171a5.7,5.7,0,0,1-2.61.77C114,171,115,171.11,115.92,171Z"/><path class="cls-30" d="M110.47,172.78a5.87,5.87,0,0,1-2.34.76A3,3,0,0,1,110.47,172.78Z"/><path class="cls-56" d="M116.42,147.38c.29.33,0,.68,0,1-.36,0-.73-.12-.69-.57S116.1,147.4,116.42,147.38Z"/><path class="cls-25" d="M137.42,167.58a14.6,14.6,0,0,1-5.5.5A27.46,27.46,0,0,1,137.42,167.58Z"/><path class="cls-65" d="M80.91,124.31a7.08,7.08,0,0,0,.34-3.52,9.84,9.84,0,0,1,.45-4.58c.4-1.44.57-2.93.87-4.4a46.71,46.71,0,0,1,2-6.38,34,34,0,0,1,3.56-8,86.68,86.68,0,0,1,6.8-9.06c2-2.26,4-4.55,6.13-6.64a14.66,14.66,0,0,1,2.55-2c1.22-.75,1.88-2.08,3.07-2.91,2.88-2,5.61-4.26,8.66-6.06,2.48-1.47,4.92-3,7.38-4.51a4,4,0,0,1,2-.83,1.09,1.09,0,0,1,1.22.74,1.18,1.18,0,0,1-.54,1.23,1.16,1.16,0,0,1-.45.24c-3.19.74-5.58,2.95-8.31,4.52a50.93,50.93,0,0,0-8,5.35c-2.08,1.8-4.6,3-6.43,5.13a49.59,49.59,0,0,1-3.65,3.44c-2.17,2-3.76,4.56-5.64,6.84-2.44,3-3.81,6.52-5.94,9.64a19.63,19.63,0,0,0-2.08,5c-.84,2.56-1.61,5.15-2.24,7.77-.39,1.58-.11,3.25-.35,4.88a32.89,32.89,0,0,0-.09,4.1c0,.87-.57.93-1.24.75Z"/><path class="cls-66" d="M87.13,75.87c-.21-.06-.48-.06-.6-.19s0-.37.14-.56c.59-1.27,1.91-1.59,3-2.17a116.55,116.55,0,0,1,11.45-5.47A62.23,62.23,0,0,1,108,65.23c3.93-1.12,8-1.31,12-1.79.69-.08,1.32.14,1.41.82s-.51,1.12-1.21,1.2c-2.68.32-5.37.54-8,1-3.13.57-6.21,1.3-9.3,2a47.8,47.8,0,0,0-12.07,5.06c-1,.59-1.84,1.57-3,2Z"/><path class="cls-66" d="M63,122.32a59.56,59.56,0,0,1,1.4-12c.16-.89.28-1.78.41-2.67.06-.37.21-.71.63-.67s.42.5.39.82a5.47,5.47,0,0,1-.3,1.63c-.95,2.19-.83,4.52-1,6.82a84.33,84.33,0,0,0-.51,9.12c0,.38-.08.71-.56.68s-.46-.34-.46-.66C63,124.39,63,123.36,63,122.32Z"/><path class="cls-66" d="M69.2,96.17c1-2,1.51-4,2.87-5.91.87-1.19,1.76-2.48,2.55-3.79.18-.3.38-1,.9-.64s-.08.72-.32,1a38.87,38.87,0,0,0-4.56,7.44A3.62,3.62,0,0,1,69.2,96.17Z"/><path class="cls-66" d="M83.44,77.66A2.58,2.58,0,0,1,82,79.92a7.65,7.65,0,0,0-2.69,2.55,1.62,1.62,0,0,1-.71.73c-.2.08-.42.18-.61,0a.47.47,0,0,1-.05-.7A25.78,25.78,0,0,1,83.44,77.66Z"/><path class="cls-59" d="M185.37,106.17c1.52.16,2-.77,2.55-2.54a5.66,5.66,0,0,0,.31-2.29c0-.27-.12-.69.29-.74s.48.34.58.61c.49,1.42,1,2.85,1.44,4.27a3.43,3.43,0,0,0,1,1.78.89.89,0,0,1,.23,1.18c-.51.89-1.06,1.76-1.61,2.63a.68.68,0,0,1-.69.26c-2.9-.47-5.83.18-8.73-.24.17-.88,1.1-1.29,1.31-2.17.08-.32.47-.35.77-.15.75.49,1.23,0,1.62-.52a3.3,3.3,0,0,1,1-1C186,106.91,185.8,106.53,185.37,106.17Z"/><path class="cls-59" d="M134.32,83.51c0-.56,0-1,.46-1.11s.63.32.77.66c.29.66.57,1.33.8,2a.58.58,0,0,1-.35.75c-.37.13-.55-.15-.63-.46C135.17,84.61,134.29,84.22,134.32,83.51Z"/><path class="cls-59" d="M137.7,77.25a4.91,4.91,0,0,1-.54-2.39c0-.45.19-1,.69-.88s.62.62.54,1A20.65,20.65,0,0,1,137.7,77.25Z"/><path class="cls-59" d="M151.93,104.09a1.67,1.67,0,0,0-.26,2.08,4.46,4.46,0,0,1-.89.47c-.29.08-.72,0-.51-.43C150.66,105.39,150.89,104.41,151.93,104.09Z"/><path class="cls-59" d="M137.33,72.87a.51.51,0,0,1-.54.59c-.56,0-.66-.43-.66-.89s.11-.59.5-.59C137.25,72,137.14,72.55,137.33,72.87Z"/><path class="cls-59" d="M139.77,81.87c0-.89,0-1.4,0-1.91a.46.46,0,0,1,.49-.47c.21,0,.49,0,.6.12s-.08.44-.21.65C140.4,80.68,140.18,81.12,139.77,81.87Z"/><path class="cls-59" d="M163.08,101.5c-.92.91-2.07.38-3.11.52C160.88,101.11,162,101.64,163.08,101.5Z"/><path class="cls-59" d="M177.59,106.69h.52c0,.43.5.85,0,1.29a.35.35,0,0,1-.33,0C177.44,107.63,177.65,107.13,177.59,106.69Z"/><path class="cls-59" d="M161,105.91a1.93,1.93,0,0,1,2.58,0Z"/><path class="cls-67" d="M188.26,107.08a5,5,0,0,1,.24-2.41c.22-.5.57-.76.91-.19a6.11,6.11,0,0,1,1,4.63c-.12.5-.29,1.15-.9,1.07a1.37,1.37,0,0,1-1.2-1.18A15.36,15.36,0,0,1,188.26,107.08Z"/><path class="cls-2" d="M70.09,13.49c5.23,2.4,7.7,6.87,9,12.17.47,2,1.19,3.9,1.49,6C81.62,39,78.78,45,73.5,49.4c-4,3.31-9.31,4.76-14.65,5.2l-7.09.55c-5.68.46-9.42-2.69-12.69-6.54a19.53,19.53,0,0,1-3.86-7.44A121.63,121.63,0,0,1,70.09,13.49Z"/></svg>