<svg id="Layer_1" data-name="Layer 1" xmlns="http://www.w3.org/2000/svg" xmlns:xlink="http://www.w3.org/1999/xlink" viewBox="0 0 144 144"><defs><style>.cls-1{fill:none;}.cls-2{fill:#f8f8f8;}.cls-3{fill:#707071;}.cls-4{clip-path:url(#clip-path);}.cls-5{clip-path:url(#clip-path-2);}.cls-6{fill:#a5d3cf;}.cls-7{fill:#fff;}.cls-8{fill:#f7dcc3;}.cls-9{fill:#19181c;}</style><clipPath id="clip-path"><rect class="cls-1" x="30.39" y="21.11" width="83.43" height="101.56"/></clipPath><clipPath id="clip-path-2"><rect class="cls-1" x="30.48" y="21.21" width="83.25" height="101.37"/></clipPath></defs><g id="Path_1056" data-name="Path 1056"><path class="cls-2" d="M72,143.5a71,71,0,0,1-27.83-5.62A71.73,71.73,0,0,1,32,131.29,71.91,71.91,0,0,1,12.71,112,71.73,71.73,0,0,1,6.12,99.83a71.72,71.72,0,0,1,0-55.66A71.73,71.73,0,0,1,12.71,32,71.91,71.91,0,0,1,32,12.71,71.73,71.73,0,0,1,44.17,6.12a71.72,71.72,0,0,1,55.66,0A71.73,71.73,0,0,1,112,12.71,71.91,71.91,0,0,1,131.29,32a71.73,71.73,0,0,1,6.59,12.15,71.72,71.72,0,0,1,0,55.66A71.73,71.73,0,0,1,131.29,112,71.91,71.91,0,0,1,112,131.29a71.73,71.73,0,0,1-12.15,6.59A71,71,0,0,1,72,143.5Z"/><path class="cls-3" d="M72,1A71,71,0,0,0,44.36,137.42,71,71,0,0,0,99.64,6.58,70.62,70.62,0,0,0,72,1m0-1A72,72,0,1,1,0,72,72,72,0,0,1,72,0Z"/></g><g id="Group_22" data-name="Group 22"><g class="cls-4"><g id="Group_26" data-name="Group 26"><g id="Group_25" data-name="Group 25"><g class="cls-5"><g id="Group_24" data-name="Group 24"><g id="Group_23" data-name="Group 23"><g class="cls-5"><g id="Group_22-2" data-name="Group 22-2"><path id="Path_1046" data-name="Path 1046" d="M113.67,102.64c.1,6.17,0,12.35,0,18.52,0,1.06-.34,1.38-1.38,1.41H32.23c-1.44,0-1.73-.28-1.74-1.72,0-5.87,0-11.73,0-17.6A14.91,14.91,0,0,1,42.31,88.71c2.51-.58,5-1.31,7.48-2,.56-.15.82-.38.6-1A1.1,1.1,0,0,1,51,84.29a1,1,0,0,1,.25-.06c2.86-.82,5.69-1.82,8.6-2.36a1.85,1.85,0,0,0,1.75-1.82q.45-2.67.71-5.37a1.73,1.73,0,0,0-.55-1.26,16.78,16.78,0,0,1-5.39-9.62,3.58,3.58,0,0,1-.09-.45,1.75,1.75,0,0,0-1.45-1.79A3.89,3.89,0,0,1,52,58.28a21.32,21.32,0,0,1-.29-3.57,4,4,0,0,1,2.27-3.8,47.53,47.53,0,0,1-2.31-5.09C50,40.73,50.07,35.69,52.89,31a10.83,10.83,0,0,1,8.43-5.13A6.88,6.88,0,0,0,65,24.46c6.12-4.77,14.15-4,20,.32,5.57,4.14,7.71,9.81,7.16,16.62A30.1,30.1,0,0,1,90,50c-.22.56-.14.84.42,1a3.3,3.3,0,0,1,2.27,3.26,21.78,21.78,0,0,1-.39,4.56,3.78,3.78,0,0,1-3,2.84A1.39,1.39,0,0,0,88.2,63a16.91,16.91,0,0,1-5.87,10.74,1.38,1.38,0,0,0-.55,1c.33,2.14.73,4.27,1.14,6.41.1.53.42.6,1,.67a25.62,25.62,0,0,1,3.66.87c1.77.5,3.54,1,5.3,1.54.94.28,1.2.66,1,1.62-.16.63.24.67.62.77,2.9.81,5.8,1.58,8.7,2.41a14.69,14.69,0,0,1,10.54,13.64m-1.53,17.13V103.36A13.36,13.36,0,0,0,103,90.61c-.9-.31-1.85-.5-3-.8a7.46,7.46,0,0,0,.26.84,17.14,17.14,0,0,1,2,8.51,1.32,1.32,0,0,0,1.07,1.5,4.89,4.89,0,0,1,3.08,5.8,5.1,5.1,0,0,1-5.16,3.75,5,5,0,0,1-4.64-4,4.79,4.79,0,0,1,3.26-5.59,1.14,1.14,0,0,0,.9-1.27,16.91,16.91,0,0,0-1.44-6.9c-.88-1.86-1.79-3.76-4.25-4a6.68,6.68,0,0,1-1.52-.4.84.84,0,0,0-1.12.41.61.61,0,0,0,0,.12c-.58,1.19-1.19,2.36-1.78,3.54-1.41,2.83-1.48,2,.75,4.11,1.4,1.36,1.45,1.57.45,3.19q-6.36,10.26-12.68,20.53c-.17.27-.28.57-.54,1.08h32.24c1.21,0,1.23,0,1.23-1.24M101.6,108.64a3.4,3.4,0,0,0,.09-6.79h-.15a3.4,3.4,0,0,0,.06,6.79m-9.88-22.1c.32-.63.27-1-.51-1.18-2-.51-3.91-1.06-5.84-1.67-.77-.24-1-.06-1.16.72-.71,4.08-1.47,8.15-2.21,12.23l-3.39,18.28c-.18,1-.33,2-.5,3l.32.11c.17-.24.35-.47.5-.72Q81,114,83,110.69c2.45-4,4.88-8,7.35-11.91a1,1,0,0,0,0-1.4.9.9,0,0,0-.19-.15,21.15,21.15,0,0,1-1.53-1.47c-.91-.88-1-1.21-.41-2.32,1.17-2.3,2.32-4.6,3.5-6.9m-.91-28.18a20.65,20.65,0,0,0,.34-4,2.7,2.7,0,0,0-.72-1.53,1.15,1.15,0,0,0-1.57-.23c-.4.24-1.07.52-1.34.34a1.92,1.92,0,0,1-.63-1.36,17.49,17.49,0,0,0-1.14-5.93,7.42,7.42,0,0,0-7-4.94,52.17,52.17,0,0,1-6.23-.52c-3.46-.53-6.77-1.54-9.33-4.15a.7.7,0,0,0-1-.18.64.64,0,0,0-.15.13,21.47,21.47,0,0,0-2.77,3,15.15,15.15,0,0,0-2.06,8c0,1.46.1,2.94.19,4.41.07,1.09-.67,1.72-1.58,1.32-1.33-.57-2.29-.13-2.49,1.32a12.24,12.24,0,0,0,0,3.2c.25,2,1.11,2.77,3.1,3a1.1,1.1,0,0,1,1.08,1.05c.07.6.16,1.21.29,1.81a15.52,15.52,0,0,0,4.45,8.5c2.78,2.6,6.17,3.54,10.38,3.57a13.18,13.18,0,0,0,11.58-6.12,16.46,16.46,0,0,0,2.45-6.87c.22-1.68.23-1.64,1.8-2a2.63,2.63,0,0,0,2.27-1.92m-1.89-9.93a26.34,26.34,0,0,0,1.64-10.66C90,29.64,83.14,23.43,75.36,22.83a13.7,13.7,0,0,0-10.52,3.76,2.82,2.82,0,0,1-1.81.72,14.87,14.87,0,0,0-3.52.57,9.76,9.76,0,0,0-6.88,7.91,17.4,17.4,0,0,0,2.25,13.27,6,6,0,0,0,.64.7,1.87,1.87,0,0,0,.15-.32c0-.27,0-.55,0-.83a21.24,21.24,0,0,1,1.3-8.5,10.64,10.64,0,0,1,5.15-6,1.33,1.33,0,0,1,1.85.33l0,0a9.33,9.33,0,0,0,4.26,3,28.89,28.89,0,0,0,10.29,1.71,8.75,8.75,0,0,1,8.75,6.19c.44,1.2.73,2.45,1.16,3.93a7.45,7.45,0,0,0,.45-.83M82.48,84.81a2.94,2.94,0,0,0-.23-1.3c-.56-1.83-1.2-3.65-1.72-5.5a23.82,23.82,0,0,1-.44-2.81,19.62,19.62,0,0,1-16-.13c-.06.34-.12.57-.14.81a20.16,20.16,0,0,1-2.1,7.86,1.27,1.27,0,0,0-.12.79c.44,2.57.89,5.14,1.39,7.7a1.19,1.19,0,0,0,.79.71,41.78,41.78,0,0,0,16.56,0,1.14,1.14,0,0,0,.72-.76q.73-3.65,1.33-7.33M80.57,95.54c.13-.73,0-1-.86-.85A43.09,43.09,0,0,1,68,95.12l-4.34-.5c0,.44,0,.88.09,1.31.49,2.59,1,5.18,1.48,7.77q1.5,8.24,3,16.48a.86.86,0,0,0,1,.84q3,0,6,0a.8.8,0,0,0,.9-.67s0-.08,0-.12c.28-1.72.63-3.43.94-5.16q1.11-6,2.2-11.93l1.38-7.6M65.86,118.12l.24-.1a3.94,3.94,0,0,0,0-.6c-.36-2.09-.73-4.17-1.1-6.26q-1.56-8.46-3.13-16.93c-.6-3.29-1.23-6.57-1.82-9.86-.12-.69-.36-.93-1.11-.69-1.9.6-3.83,1.11-5.74,1.66-1,.28-1,.41-.55,1.35L56,93.51c.54,1.07.48,1.41-.41,2.25-.45.42-.9.84-1.34,1.27-1,.91-1,.91-.26,2l11,17.78c.26.43.57.84.85,1.25M64.29,121h1.25c-.23-.48-.32-.77-.47-1q-3.73-6.09-7.48-12.15c-1.84-3-3.68-5.95-5.5-8.94-.64-1-.59-1.41.27-2.25.55-.53,1.09-1.08,1.68-1.57a1.08,1.08,0,0,0,.31-1.48l0,0q-1.29-2.49-2.53-5a.77.77,0,0,0-1-.49l-.07,0c-1.32.38-2.67.69-4,1.1a3,3,0,0,0-1.29.79c-2.35,2.65-3.07,5.86-3.09,9.3,0,.6.37.63.85.68a14.37,14.37,0,0,1,3.51.56c3.53,1.33,5.48,4.1,6.41,7.64.58,2.18.42,2.43-1.73,3-.55.13-1.18.26-1.37-.48s.32-.92.88-1,.81-.5.65-1.15a9.3,9.3,0,0,0-4.06-5.82,6.08,6.08,0,0,0-8.31,1,8.45,8.45,0,0,0-1.43,8c.36,1.34.38,1.31,1.69,1,.32-.07.72.22,1.09.34-.13.34-.16.8-.4,1-.42.35-1,.49-1.44.8-.74.54-1.12.24-1.5-.44a10.17,10.17,0,0,1-1.35-4.46c-.25-3.79.85-7,4.29-9a1.27,1.27,0,0,0,.67-1.27A17,17,0,0,1,41.89,93c.33-.87.76-1.71,1.19-2.64a3.31,3.31,0,0,0-.63,0,13.42,13.42,0,0,0-10.39,12.83c0,5.55,0,11.12,0,16.68,0,1.16,0,1.19,1.18,1.19H64.29"/><path id="Path_1047" data-name="Path 1047" class="cls-6" d="M112.14,103.36q0,8.2,0,16.41c0,1.22,0,1.24-1.24,1.24H78.67c.25-.51.37-.81.54-1.08L91.87,99.4c1-1.63,1-1.84-.45-3.19-2.22-2.14-2.16-1.28-.74-4.11.59-1.18,1.2-2.35,1.78-3.54A.83.83,0,0,1,93.51,88l.12,0a6.74,6.74,0,0,0,1.51.4c2.47.23,3.38,2.13,4.26,4a17.21,17.21,0,0,1,1.44,6.9,1.14,1.14,0,0,1-.9,1.27,4.79,4.79,0,0,0-3.27,5.59,5,5,0,0,0,4.65,4,5.11,5.11,0,0,0,5.16-3.76,4.9,4.9,0,0,0-3.08-5.79,1.32,1.32,0,0,1-1.07-1.5,17.14,17.14,0,0,0-2-8.51,6.32,6.32,0,0,1-.27-.84c1.12.3,2.06.49,3,.8a13.36,13.36,0,0,1,9.13,12.75"/><path id="Path_1048" data-name="Path 1048" class="cls-7" d="M105.05,105.25a3.53,3.53,0,0,1-3.45,3.39,3.4,3.4,0,0,1-.06-6.79h0a3.51,3.51,0,0,1,3.51,3.4"/><path id="Path_1049" data-name="Path 1049" class="cls-7" d="M91.21,85.36c.78.2.83.55.51,1.18-1.18,2.3-2.33,4.6-3.5,6.9-.56,1.11-.5,1.44.41,2.33.5.49,1,1,1.52,1.46a1,1,0,0,1,.37,1.36,1.33,1.33,0,0,1-.14.19c-2.48,4-4.9,7.94-7.35,11.91-1.37,2.22-2.73,4.44-4.11,6.66-.15.25-.33.48-.49.72l-.32-.11c.16-1,.31-2,.5-3q1.68-9.14,3.38-18.28c.75-4.08,1.5-8.15,2.21-12.23.14-.78.4-1,1.16-.72,1.93.61,3.88,1.16,5.84,1.67"/><path id="Path_1050" data-name="Path 1050" class="cls-8" d="M91.14,54.36a19.89,19.89,0,0,1-.34,4,2.64,2.64,0,0,1-2.27,1.92c-1.57.34-1.58.31-1.8,2a16.6,16.6,0,0,1-2.46,6.88,13.18,13.18,0,0,1-11.58,6.12c-4.21,0-7.6-1-10.38-3.57a15.56,15.56,0,0,1-4.45-8.5c-.13-.6-.21-1.21-.29-1.82a1.09,1.09,0,0,0-1.08-1c-2-.28-2.85-1.07-3.1-3a12.24,12.24,0,0,1,0-3.2c.2-1.45,1.16-1.89,2.49-1.32.91.39,1.65-.23,1.58-1.32-.08-1.47-.23-3-.19-4.41a15.13,15.13,0,0,1,2.06-8,21.52,21.52,0,0,1,2.77-3,.71.71,0,0,1,1-.11.93.93,0,0,1,.13.15c2.56,2.62,5.87,3.62,9.33,4.16a54.3,54.3,0,0,0,6.24.51,7.39,7.39,0,0,1,7,4.95,17.4,17.4,0,0,1,1.14,5.93,2,2,0,0,0,.63,1.36c.27.17.95-.1,1.34-.34a1.14,1.14,0,0,1,1.57.23,2.67,2.67,0,0,1,.72,1.52"/><path id="Path_1051" data-name="Path 1051" class="cls-9" d="M90.55,37.77a26.34,26.34,0,0,1-1.64,10.66,8.28,8.28,0,0,1-.45.83c-.43-1.48-.72-2.73-1.16-3.93a8.76,8.76,0,0,0-8.75-6.19,28.88,28.88,0,0,1-10.29-1.7,9.37,9.37,0,0,1-4.26-3,1.32,1.32,0,0,0-1.83-.38l0,0a10.62,10.62,0,0,0-5.15,6,21,21,0,0,0-1.3,8.5c0,.27,0,.55,0,.83a1,1,0,0,1-.15.31,6,6,0,0,1-.63-.7,17.4,17.4,0,0,1-2.25-13.27,9.77,9.77,0,0,1,6.87-7.91A15,15,0,0,1,63,27.31a2.82,2.82,0,0,0,1.81-.72,13.7,13.7,0,0,1,10.52-3.76c7.78.6,14.66,6.81,15.19,14.94"/><path id="Path_1052" data-name="Path 1052" class="cls-8" d="M82.26,83.51a3,3,0,0,1,.22,1.3c-.4,2.45-.84,4.9-1.33,7.33a1.14,1.14,0,0,1-.72.76,41.73,41.73,0,0,1-16.55,0,1.22,1.22,0,0,1-.79-.71c-.51-2.56-1-5.13-1.39-7.7a1.26,1.26,0,0,1,.11-.79,19.94,19.94,0,0,0,2.1-7.86c0-.23.08-.47.14-.81a19.58,19.58,0,0,0,16,.13A24.32,24.32,0,0,0,80.53,78c.53,1.84,1.16,3.66,1.73,5.5"/><path id="Path_1053" data-name="Path 1053" class="cls-6" d="M79.71,94.69c.84-.14,1,.12.86.85-.47,2.53-.92,5.06-1.38,7.6q-1.11,6-2.2,11.94c-.32,1.72-.66,3.43-.95,5.15a.79.79,0,0,1-.79.8h-.12q-3,0-6,0a.87.87,0,0,1-1-.84q-1.45-8.25-3-16.48c-.48-2.59-1-5.18-1.48-7.77,0-.43-.08-.87-.09-1.3l4.33.49a43.15,43.15,0,0,0,11.74-.43"/><path id="Path_1054" data-name="Path 1054" class="cls-7" d="M66.1,118l-.24.1c-.28-.42-.58-.82-.85-1.25L54,99.09c-.7-1.14-.7-1.15.26-2.06l1.34-1.26c.89-.84.95-1.18.42-2.25L52.61,86.7c-.47-.94-.42-1.07.55-1.35,1.92-.55,3.84-1.06,5.74-1.66.75-.24,1,0,1.11.68.6,3.3,1.22,6.58,1.82,9.87q1.56,8.46,3.12,16.93c.38,2.08.74,4.17,1.11,6.25,0,.2,0,.41,0,.6"/><path id="Path_1055" data-name="Path 1055" class="cls-6" d="M65.54,121H33.23c-1.14,0-1.18,0-1.18-1.2,0-5.56,0-11.12,0-16.67A13.43,13.43,0,0,1,42.43,90.3a3.32,3.32,0,0,1,.63,0c-.42.94-.85,1.78-1.18,2.65a17,17,0,0,0-1.06,6.69,1.27,1.27,0,0,1-.68,1.27c-3.43,2-4.54,5.23-4.28,9a10.17,10.17,0,0,0,1.35,4.46c.38.68.76,1,1.5.44.44-.31,1-.45,1.44-.8.24-.2.28-.65.4-1-.37-.12-.77-.41-1.09-.34-1.31.31-1.33.34-1.69-1a8.42,8.42,0,0,1,1.43-8,6.09,6.09,0,0,1,8.31-1.05,9.35,9.35,0,0,1,4.06,5.83c.16.65,0,1-.65,1.14s-1.06.37-.88,1,.82.6,1.37.47c2.15-.51,2.31-.76,1.73-2.94-.93-3.55-2.88-6.31-6.41-7.64a14.44,14.44,0,0,0-3.51-.56c-.48,0-.86-.08-.85-.68,0-3.44.74-6.65,3.09-9.3a3,3,0,0,1,1.29-.79c1.31-.42,2.66-.72,4-1.1a.75.75,0,0,1,1,.39l0,.06q1.24,2.52,2.53,5a1.06,1.06,0,0,1-.24,1.49l0,0c-.59.49-1.13,1-1.68,1.57-.86.84-.91,1.2-.27,2.25,1.82,3,3.67,6,5.5,8.94q3.75,6.06,7.48,12.15c.15.24.24.53.47,1"/></g></g></g></g></g></g></g></g></g></svg>