<svg id="Layer_1" data-name="Layer 1" xmlns="http://www.w3.org/2000/svg" viewBox="0 0 280.5 283"><defs><style>.cls-1{fill:#f4fbf3;}.cls-2{fill:#091620;}.cls-3{fill:#526dc8;}.cls-4{fill:#708b74;}.cls-5{fill:#7b9280;}.cls-6{fill:#d9f8fa;}.cls-7{fill:#5b745e;}.cls-8{fill:#070a07;}.cls-9{fill:#3491de;}.cls-10{fill:#081122;}.cls-11{fill:#bdc7cb;}.cls-12{fill:#b0b2b0;}.cls-13{fill:#181b18;}.cls-14{fill:#bd8e4a;}.cls-15{fill:#624417;}.cls-16{fill:#100b06;}.cls-17{fill:#52462e;}.cls-18{fill:#939592;}.cls-19{fill:#1a1b19;}.cls-20{fill:#ece5a1;}.cls-21{fill:#bf914b;}.cls-22{fill:#151815;}.cls-23{fill:#070807;}.cls-24{fill:#e796be;}.cls-25{fill:#131512;}.cls-26{fill:#41463a;}.cls-27{fill:#bec7cc;}.cls-28{fill:#060d1d;}.cls-29{fill:#211c0f;}.cls-30{fill:#080907;}.cls-31{fill:#c5c5c2;}.cls-32{fill:#1c1e1b;}.cls-33{fill:#acaeac;}.cls-34{fill:#170b0a;}.cls-35{fill:#bc8f49;}.cls-36{fill:#93609e;}.cls-37{fill:#c1bfbf;}.cls-38{fill:#1c1d1b;}.cls-39{fill:#f3c26d;}.cls-40{fill:#dbf6f7;}.cls-41{fill:#627bc1;}.cls-42{fill:#ebaed7;}.cls-43{fill:#1f5e92;}.cls-44{fill:#06111a;}.cls-45{fill:none;stroke:#5b745e;stroke-miterlimit:10;}</style></defs><path class="cls-1" d="M153.05,279.69c1.16-1.75,2.67-1.27,4.22-.78.61.19,1.15.41,1.62-.49,1.28-2.44,3.44-3.24,5.33-1.43,2.3,2.21,4.3,1,6.94.47-1.49-1-2.77-.57-4-.76s-2.06-1.66-3.45-1.85a6.34,6.34,0,0,0-2.46-.19c-2.8.83-5.3,2.59-8.34,2.8-.38,0-.77.61-1.06,1s-.63.89-.16,1.31A.86.86,0,0,0,153.05,279.69Zm-8-.64c0,.61.25.94.88.92s.76-.49.74-1c0-1.25,0-2.51-.17-3.74s.1-1.86,1.63-1.87c9.41-.06,18.82-.24,28.22-.37,1.15,0,2.46-.27,2.24,1.62-.05.42.08.85.64.85s.78-.45.87-1c.37-2.21-.28-3.05-2.57-3.06-5,0-10,0-15,0v.41H147c-1.14,0-2.31-.08-2.27,1.53C144.79,275.23,144.94,277.14,145,279.05ZM218.48,257a135.35,135.35,0,0,0,31.45-29.24A126.18,126.18,0,0,0,268.53,196l.64-1.14a138.9,138.9,0,0,0,9.94-39.44l.21,0c-6.94,71.32-66.56,127-139.07,127q-5.25,0-10.39-.39L130,280c.83,0,.7-.94.81-1.49a53.3,53.3,0,0,1,1.49-6.57c.32-1,.73-1.38,1.76-1.25a20.62,20.62,0,0,1,3.46.3c2.07.65,1.93-.26,1.49-1.7-1.12-3.65-2.23-7.31-3.27-11a3,3,0,0,1,3.14-4c3.25.16,6.49.39,9.74.48,14.33.4,28.63.14,42.84-2,3.43-.51,6.76-1.46,10.45-2.37A67.78,67.78,0,0,0,196.07,269c1.68,0,1.74-1,2-2a58.67,58.67,0,0,1,5.51-16c1.92-3.47,4.89-4,7.77-1.46a25.44,25.44,0,0,1,5.29,6.56C217,256.81,217.2,258.19,218.48,257Z"/><path class="cls-1" d="M12.13,196a137,137,0,0,0,37.46,51.3A123.93,123.93,0,0,0,76,265c1.11,1.15,1.55.44,2.11-.62,1.66-3.17,3.35-6.33,5.17-9.4a33.57,33.57,0,0,1,4.93-6.4c-.06,1.11-.06,1.52-.1,1.93q-.93,8.81-1.86,17.62c-.08.77-.49,1.94.67,2.06s.77-1.22.85-1.87c.64-5.28,1.2-10.58,1.75-15.88s.51-5.16,5.4-4c.25.05.5.08.74.14A251.66,251.66,0,0,0,128,253.49a3.83,3.83,0,0,1,3.11,5.15q-2,4.46-4,8.9c-1.3,2.91-1.3,3,1.83,2.92,1.67,0,2,.43,1.55,2a57.67,57.67,0,0,0-1.23,5.84c-.1.55-.69,1.38.39,1.62a1.56,1.56,0,0,0,.35,0l-.14,2.14C57.53,276.75.5,215.84.5,141.5.5,63.63,63.07.5,140.25.5S280,63.63,280,141.5q0,7.06-.68,14l-.21,0a143.33,143.33,0,0,0-1.7-39.33A128,128,0,0,0,264.35,78a113.72,113.72,0,0,0-14.27-22.19,27,27,0,0,0-1.6-2.21Q192-11.39,107.72,6.14a109.79,109.79,0,0,0-32.25,12.3,95.23,95.23,0,0,0-15.55,9.39A124.41,124.41,0,0,0,36.46,49a123.24,123.24,0,0,0-19.95,28.8C2.27,105.65-2.06,135.09,3.17,165.9a117.33,117.33,0,0,0,8.42,28.6Z"/><path class="cls-2" d="M266,195.24a9.61,9.61,0,0,0,3.2-.36l-.64,1.14a3.3,3.3,0,0,0-2.77-.76h-.52Z"/><path class="cls-2" d="M256.68,195.25c2.85,0,5.7,0,8.56,0C262.38,195.35,259.53,195.32,256.68,195.25Z"/><path class="cls-3" d="M250.08,55.85A113.72,113.72,0,0,1,264.35,78a3.3,3.3,0,0,0-2.58.66,18.69,18.69,0,0,1-9.86,2.16,12.49,12.49,0,0,1-9.6-5,5.18,5.18,0,0,1-1-5.17c1.58-4.26,3-8.64,6.88-11.59C249.25,58.32,250.37,57.45,250.08,55.85Z"/><path class="cls-4" d="M250.51,196.71c1.55-.2,1.07,1.56,1.33,2.42s-.67,1.48-1.61,1.3c-1.32-.27-2.81-.52-2.24-2.21C247.9,195.72,249.77,196.8,250.51,196.71Z"/><path class="cls-4" d="M245.85,196.6c1.43-.24,1.05,1.1,1.15,1.89s.2,2.1-1.24,2-2.67-1-2.65-2.43S244.87,196.76,245.85,196.6Z"/><path class="cls-5" d="M239,198.68c0-1.2.2-2.16,1.71-2.18s1.33.94,1.32,2c-.05.8.23,1.91-1.35,2C239.26,200.56,238.94,199.88,239,198.68Z"/><path class="cls-3" d="M242.31,75.87a12.49,12.49,0,0,0,9.6,5,18.69,18.69,0,0,0,9.86-2.16,3.3,3.3,0,0,1,2.58-.66,21.86,21.86,0,0,1-12.46,3.49,12.63,12.63,0,0,1-11-6.56c-1.57-2.8.08-5.7,1.29-8.41,1.48-3.31,3.13-6.43,6.33-8.5.7-.45,1-1.46,1.54-2.21.29,1.6-.83,2.47-1.86,3.26-3.85,3-5.3,7.33-6.88,11.59A5.18,5.18,0,0,0,242.31,75.87Z"/><path class="cls-2" d="M256.68,195.25c-6.54-.17-13.07-.58-19.61-.4a2.57,2.57,0,0,1-.37-.18l.06-.29c3.22-.55,6.45-.22,9.67-.21,6.88,0,13.76.14,20.64.24.72,0,1.51-.19,2.1.47a9.61,9.61,0,0,1-3.2.36l-.73,0C262.38,195.27,259.53,195.26,256.68,195.25Z"/><path class="cls-2" d="M239.69,195.91c-1.07,0-2.17.2-3.14-.47,0,0,0-.07,0-.11a1.82,1.82,0,0,1,.84-.13c6.43,0,12.85,0,19.27.05,2.85.07,5.7.1,8.56,0h.52a3.3,3.3,0,0,1,2.77.76Q254.12,196,239.69,195.91Z"/><path class="cls-2" d="M237.07,194.85c6.54-.18,13.07.23,19.61.4-6.42,0-12.84-.07-19.27-.05a1.82,1.82,0,0,0-.84.13c.05-.22.09-.44.13-.66A2.57,2.57,0,0,0,237.07,194.85Z"/><path class="cls-6" d="M236.76,194.38l-.06.29-.18-.16A.89.89,0,0,1,236.76,194.38Z"/><path class="cls-6" d="M236.7,194.67c0,.22-.08.44-.13.66a.11.11,0,0,0-.07,0c-.21-.32-.3-.63,0-.85Z"/><path class="cls-6" d="M236.57,195.33s0,.07,0,.11a.35.35,0,0,1-.05-.08A.11.11,0,0,1,236.57,195.33Z"/><path class="cls-1" d="M233.84,143c-.09.71-.18,1.45-.28,2.19-.56,4.24-3.43,5.93-7.3,4.14a24.21,24.21,0,0,1-8.66-7.36,70.93,70.93,0,0,1-14.21-28.54A24.85,24.85,0,0,1,203,105c.39-3.5,2.85-5.06,6.21-4,4.43,1.43,7.41,4.79,10.09,8.26,6.74,8.7,11.87,18.25,13.92,29.22C233.53,139.93,233.64,141.43,233.84,143Z"/><path class="cls-7" d="M251.84,199.13c-.26-.86.22-2.62-1.33-2.42-.74.09-2.61-1-2.52,1.51-.57,1.69.92,1.94,2.24,2.21C251.17,200.61,252.12,200.13,251.84,199.13Zm-6.08,1.32c1.44.14,1.2-1,1.24-2s.28-2.13-1.15-1.89c-1,.16-2.72-.15-2.74,1.42S244.35,200.31,245.76,200.45Zm-5.09-3.95c-1.51,0-1.68,1-1.71,2.18s.3,1.88,1.68,1.82c1.58-.06,1.3-1.17,1.35-2C242,197.44,242.07,196.48,240.67,196.5Zm9.26,31.21A135.35,135.35,0,0,1,218.48,257a3.15,3.15,0,0,0-1-2.47c-2.6-3.31-4.41-7.55-9.4-8.13-.8-.09-1-.78-1-1.49,0-3.16-.81-6.26-.53-9.42.72-.56,1.46-1.09,2.16-1.66a91.8,91.8,0,0,0,27.86-38.34c1,.67,2.07.47,3.14.47q14.42.08,28.84.11A126.18,126.18,0,0,1,249.93,227.71Z"/><path class="cls-6" d="M208.83,232.9a91.78,91.78,0,0,0,26.27-35.49c.35-.81.61-1.71,1.4-2a.35.35,0,0,0,.05.08,91.8,91.8,0,0,1-27.86,38.34c-.7.57-1.44,1.1-2.16,1.66,0-.12,0-.24,0-.36V235A12,12,0,0,1,208.83,232.9Z"/><path class="cls-6" d="M206.54,235.08c0,.12,0,.24,0,.36-.05-.08-.1-.16-.14-.24a1.37,1.37,0,0,1,.15-.21Z"/><path class="cls-8" d="M206.09,235.74a4.68,4.68,0,0,1,.3-.54c0,.08.09.16.14.24-.28,3.16.55,6.26.53,9.42,0,.71.23,1.4,1,1.49,5,.58,6.8,4.82,9.4,8.13a3.15,3.15,0,0,1,1,2.47c-1.65-2.06-2.95-4.39-4.74-6.37-1.47-1.63-2.93-3.16-5.25-3.52-1.07-.17-2-.81-2-1.92C206.52,242,205.42,238.9,206.09,235.74Z"/><path class="cls-9" d="M82.44,123.89a9.42,9.42,0,0,1,1.49-3.36c3.91,4.57,6.93,5.83,11.29,4.44a19.74,19.74,0,0,0,8.17-4.64c2.17-2.18,4.34-4.36,6.4-6.65,2.61-2.89,3.12-6,1.19-9.33-.87-1.51-.61-2.14,1-2.72,4.79-1.75,7-5.11,7.24-10.18.23-4.64-1.72-8.46-4-12.2,12.81-5.94,26.19-9.14,40.43-8.61A82.59,82.59,0,0,1,182,75.77a87.47,87.47,0,0,1,32.51,21.34A90.33,90.33,0,0,1,233,125a92.12,92.12,0,0,1,5.61,54.32,88,88,0,0,1-12,30.52,85.92,85.92,0,0,1-18.43,21.21,5.84,5.84,0,0,0-1.88,2.17,2.23,2.23,0,0,0-.3-.57l-.18-.17h0c-.59-2.33-2.63-3-4.67-3.55a127.41,127.41,0,0,0-39.83-3.28c-2.34.32-3-.8-2.86-3a19.21,19.21,0,0,0-.26-5c-.34-1.76.19-2.5,1.92-2.62a36.44,36.44,0,0,0,7.8-1.56c9.11-2.74,17.57-6.58,24.08-13.86,5.88-6.56,7.46-16.17,3-23.53a33.55,33.55,0,0,0-10.67-10.57c-1-.67-1.84-1.32-1.77-2.75.31-5.59.14-11.13-2.53-16.27-.54-1.05-.34-1.76.93-1.9A8.45,8.45,0,0,0,186,142a10.1,10.1,0,0,0,2.51-11.19,8.71,8.71,0,0,0-9.2-5.34,9.63,9.63,0,0,0-8.17,7c-.43,1.63-.79,2.13-2.65,1.39a57.27,57.27,0,0,0-37.37-2.05c-1.58.43-2.25.18-2.57-1.53a5.73,5.73,0,0,0-4.92-4.68,9.83,9.83,0,0,0-10.92,6.38c-1.36,4,.12,7.15,4.73,9.71,1.07.6,1.15,1.12.65,2.16a35.61,35.61,0,0,0-2.56,9.07,70.9,70.9,0,0,0-.66,9.2,6.52,6.52,0,0,1-.39,3.08,2.34,2.34,0,0,1-1,.9,28.47,28.47,0,0,0-6.7,5.13c-5.83,5.55-9.55,12-7.67,20.44,1.39,6.24,5.47,10.7,10.46,14.37,8.85,6.51,19.13,9,29.81,10,5.55.52,5.5.32,4.73,6-.18,1.39-.51,2.18-2,2.09-4.33-.44-8.63.29-13,.33A132.11,132.11,0,0,0,100.25,228c-2.62.61-5.07,2.15-7.84,2.13a2,2,0,0,0-.91-.07l-.27,0a.88.88,0,0,0,0-.23c-.33-.86-1.14-1.18-1.84-1.61-7.14-4.38-12.29-10.67-16.57-17.68-6.37-10.45-10-21.9-11.86-34-2.16-13.76-1.7-27.32,2.51-40.7.75-2.38,2.21-4.52,2.4-7.07a2.6,2.6,0,0,1,.63.3,24.37,24.37,0,0,0,9.26,1.65,4.94,4.94,0,0,0,4.22-2.2A17.56,17.56,0,0,0,82.44,123.89Zm151.12,21.25c.1-.74.19-1.48.28-2.19-.2-1.52-.31-3-.59-4.48-2.05-11-7.18-20.52-13.92-29.22-2.68-3.47-5.66-6.83-10.09-8.26-3.36-1.09-5.82.47-6.21,4a24.85,24.85,0,0,0,.36,8.42,70.93,70.93,0,0,0,14.21,28.54,24.21,24.21,0,0,0,8.66,7.36C230.13,151.07,233,149.38,233.56,145.14Z"/><path class="cls-6" d="M206.3,235a2.34,2.34,0,0,1,.21-1.24,4.8,4.8,0,0,1,0,1.2,1.37,1.37,0,0,0-.15.21,1,1,0,0,1-.1-.17v0S206.29,235,206.3,235Z"/><path class="cls-9" d="M206.29,235a2.94,2.94,0,0,1,.07-1.78,1.86,1.86,0,0,1,.15.56,2.34,2.34,0,0,0-.21,1.24S206.29,235,206.29,235Z"/><path class="cls-9" d="M206.29,235c-.58-.61,0-1.39-.31-2,0-.17-.06-.33-.1-.48l.18.17a2.23,2.23,0,0,1,.3.57A2.94,2.94,0,0,0,206.29,235Z"/><path class="cls-10" d="M206,233a6.28,6.28,0,0,0-.76-.93,2.45,2.45,0,0,1,.66.44h0C205.92,232.64,206,232.8,206,233Z"/><path class="cls-10" d="M203.66,231.78a3,3,0,0,1,1.55.25h0a6.28,6.28,0,0,1,.76.93c-.82-.35-1.58-1-2.58-.52A1.21,1.21,0,0,0,203.66,231.78Z"/><path class="cls-10" d="M203.66,231.78a1.21,1.21,0,0,1-.26.67,2.19,2.19,0,0,0-.13-.62Z"/><path class="cls-11" d="M202.71,231.94c-2.72.73-5.32,1.83-8.09,2.42-11.55,2.49-23.3,3.07-35.06,3.39-.15-2.33-.24-4.67-.57-7-.25-1.81,0-3.06,1.5-3.52a3.33,3.33,0,0,0,1.12-.18,137.57,137.57,0,0,1,21.67.47c5.85.66,11.75,1.18,17.41,3,.9.28,2.18.24,2.58,1.33A5.54,5.54,0,0,0,202.71,231.94Z"/><path class="cls-11" d="M203.4,232.45c-14.16,5.18-29,5.63-43.79,5.93,0-.21,0-.42-.05-.63,11.76-.32,23.51-.9,35.06-3.39,2.77-.59,5.37-1.69,8.09-2.42a5.54,5.54,0,0,1,.56-.11A2.19,2.19,0,0,1,203.4,232.45Z"/><path class="cls-12" d="M186.49,244a1.32,1.32,0,0,1,1.3.89c0,.4-.17.65-.55.68a1,1,0,0,1-1.25-.89A.52.52,0,0,1,186.49,244Z"/><path class="cls-13" d="M187.24,245.54c.38,0,.55-.28.55-.68a1.32,1.32,0,0,0-1.3-.89.52.52,0,0,0-.5.68A1,1,0,0,0,187.24,245.54Zm-2.86-1c0-1.49.78-2.09,2.23-2.11a2.7,2.7,0,0,1,2.79,2.85c0,1.47-1,2.1-2.32,2A2.65,2.65,0,0,1,184.38,244.49Z"/><path class="cls-14" d="M182.53,166.43a6.26,6.26,0,0,0-1.07.12,2.35,2.35,0,0,1-.39-.38A10.93,10.93,0,0,1,182.53,166.43Z"/><path class="cls-15" d="M182.25,133.84c-2.95.56-4.75,2.55-6.24,4.95a2.21,2.21,0,0,1-.57.46c-1-.14-.94-.77-.76-1.46.57-2.13,4.94-5.42,7.08-5.33.41,0,.89-.05,1.06.43A.71.71,0,0,1,182.25,133.84Z"/><path class="cls-14" d="M179.05,167.41a23.7,23.7,0,0,1-16.54,2l.41-.38c5.63.6,11.14.39,16.25-2.47a3.34,3.34,0,0,1,1.9-.39,2.35,2.35,0,0,0,.39.38A9.18,9.18,0,0,0,179.05,167.41Z"/><path class="cls-1" d="M155.12,146.19a11.7,11.7,0,0,1,11.53,11.65,12.8,12.8,0,0,1-12.45,12.65,11.59,11.59,0,0,1-11.82-11.57A13,13,0,0,1,155.12,146.19Zm-2.34,12a3.57,3.57,0,0,0-3.36-3.86,3.42,3.42,0,0,0-3.53,3.65c-.07,2.37,1.34,4,3.43,4A3.55,3.55,0,0,0,152.78,158.18Z"/><path class="cls-16" d="M162.92,169l-.41.38c0-.13,0-.25.05-.37l.22,0Z"/><path class="cls-10" d="M161.38,225.65a127.41,127.41,0,0,1,39.83,3.28c2,.52,4.08,1.22,4.67,3.55a2.45,2.45,0,0,0-.66-.44h0a9.25,9.25,0,0,0-4.3-2.44c-5.54-1.62-11.27-2.1-16.95-2.89-4.46-.61-9-.46-13.44-.76-2.88-.2-5.8.41-8.72.26l-.77,0A2.29,2.29,0,0,0,161.38,225.65Z"/><path class="cls-10" d="M159.54,226a2.9,2.9,0,0,0,1.84-.35,2.29,2.29,0,0,1-.35.5A12,12,0,0,1,159.54,226Z"/><path class="cls-10" d="M160.49,227.25a4.3,4.3,0,0,1,1.12-.18A3.33,3.33,0,0,1,160.49,227.25Z"/><path class="cls-10" d="M161.61,227.07c-.59-.38-1.46.08-2.14,0,.61-.27,1.4-.3,2-.54a127.39,127.39,0,0,1,19.14.09,125.91,125.91,0,0,1,18.43,2.66,11.3,11.3,0,0,1,3.49,1.3c.49.32,1.15.62,1.11,1.23l-.39.05c-.4-1.09-1.68-1.05-2.58-1.33-5.66-1.78-11.56-2.3-17.41-3A137.57,137.57,0,0,0,161.61,227.07Z"/><path class="cls-10" d="M159.47,227a1,1,0,0,1-.74-.6c.84.2,1.67.4,2.3-.29l.77,0c2.92.15,5.84-.46,8.72-.26,4.48.3,9,.15,13.44.76,5.68.79,11.41,1.27,16.95,2.89a9.25,9.25,0,0,1,4.3,2.44,3,3,0,0,0-1.55-.25c0-.61-.62-.91-1.11-1.23a11.3,11.3,0,0,0-3.49-1.3,125.91,125.91,0,0,0-18.43-2.66,127.39,127.39,0,0,0-19.14-.09C160.87,226.74,160.08,226.77,159.47,227Z"/><path class="cls-17" d="M159.56,237.75c0,.21,0,.42.05.63-.1-.2-.2-.41-.28-.62Z"/><path class="cls-10" d="M158.73,226.44a1.87,1.87,0,0,1-.14-.4,4.3,4.3,0,0,1,.95,0,12,12,0,0,0,1.49.15C160.4,226.84,159.57,226.64,158.73,226.44Z"/><path class="cls-18" d="M159.4,247c-.47.12-.84-.06-.87-.55a1.21,1.21,0,0,1,.9-1.25c.57-.06.86.23.8.69A1.17,1.17,0,0,1,159.4,247Z"/><path class="cls-17" d="M159.47,227c.68.11,1.55-.35,2.14,0a4.3,4.3,0,0,0-1.12.18,11.39,11.39,0,0,1-1.31-.05A2.69,2.69,0,0,1,159.47,227Z"/><path class="cls-17" d="M158.73,226.44a1,1,0,0,0,.74.6,2.69,2.69,0,0,0-.29.16h0c-.64,0-.92-.33-.73-.84Z"/><path class="cls-17" d="M158.63,235.6c0-1.57-.19-3.14-.36-4.7,0-.87.13-1.75.25-2.62a1.42,1.42,0,0,1,.66-1.08,11.39,11.39,0,0,0,1.31.05c-1.48.46-1.75,1.71-1.5,3.52.33,2.31.42,4.65.57,7h-.23a11.38,11.38,0,0,1-.7-2.14Z"/><path class="cls-17" d="M158.63,235.62a11.38,11.38,0,0,0,.7,2.14h-1.16A3,3,0,0,0,158.63,235.62Z"/><path class="cls-17" d="M158.59,226a1.87,1.87,0,0,0,.14.4l-.31-.08A2.55,2.55,0,0,1,158.59,226Z"/><path class="cls-19" d="M160.23,245.85c.06-.46-.23-.75-.8-.69a1.21,1.21,0,0,0-.9,1.25c0,.49.4.67.87.55A1.17,1.17,0,0,0,160.23,245.85Zm-3.23.23a2.49,2.49,0,0,1,2.69-2.44,1.85,1.85,0,0,1,2,2.24,2.6,2.6,0,0,1-2.7,2.67C157.55,248.59,157,247.64,157,246.08Z"/><path class="cls-20" d="M158.52,214a2.08,2.08,0,0,0-.38-.3,6.87,6.87,0,0,1,3-.94c8.43-1.57,16.42-4.26,23.4-9.4,4.12-3,7.71-6.61,9.63-11.5a16.17,16.17,0,0,0-2-16.08,29.94,29.94,0,0,0-10-8.83,3.17,3.17,0,0,1-.63-.37,6.26,6.26,0,0,1,1.07-.12,29.88,29.88,0,0,1,10.34,9.21c5.47,8,3.91,17.56-4.18,25.07-7.91,7.35-17.63,10.79-28,12.77C160,213.62,159.24,213.81,158.52,214Z"/><path class="cls-20" d="M158.52,214l-.87.1.24-.2a2.43,2.43,0,0,1,.25-.2A2.08,2.08,0,0,1,158.52,214Z"/><path class="cls-17" d="M158.27,230.9c.17,1.56.31,3.13.36,4.7A16.13,16.13,0,0,1,158.27,230.9Z"/><path class="cls-17" d="M158.27,230.9c-.19-1.73-.41-3.46-.61-5.19a3.12,3.12,0,0,0,.67.63l.09,0c-.19.51.09.81.73.84h0a1.42,1.42,0,0,0-.66,1.08C158.4,229.15,158.31,230,158.27,230.9Z"/><path class="cls-17" d="M158,236.44c-.3-4-.6-8-.87-12a3,3,0,0,0,.58,1.25c.2,1.73.42,3.46.61,5.19a16.13,16.13,0,0,0,.36,4.7v0a3,3,0,0,1-.46,2.13h-.54A1.57,1.57,0,0,0,158,236.44Z"/><path class="cls-17" d="M157.2,219.31c0-2.07-.08-3.09-.66-3.58a3.11,3.11,0,0,1,1.11-1.66l.87-.1a3.29,3.29,0,0,0-1.16,3.8c.48,1.76.08,3.74.19,5.61a3.63,3.63,0,0,0,1,2.66,2.55,2.55,0,0,0-.17.32l-.09,0a3.12,3.12,0,0,1-.67-.63A62,62,0,0,1,157.2,219.31Z"/><path class="cls-21" d="M156.82,220.47c.07,1.33.16,2.66.26,4a8.36,8.36,0,0,1-.24-1.89C156.8,221.87,156.81,221.17,156.82,220.47Z"/><path class="cls-17" d="M156.82,220.47a18.48,18.48,0,0,0-.27-3.85,2.06,2.06,0,0,1,0-.89c.58.49.64,1.51.66,3.58a62,62,0,0,0,.46,6.4,3,3,0,0,1-.58-1.25C157,223.13,156.89,221.8,156.82,220.47Z"/><path class="cls-21" d="M154.81,215.94c1.2-.12,1.73,0,1.81,1.42.06,1,.12,2.07.2,3.11,0,.7,0,1.4,0,2.1a8.36,8.36,0,0,0,.24,1.89c.27,4,.57,8,.87,12a1.57,1.57,0,0,1-.32,1.3c-4.23,0-8.47.29-12.69-.2l-.45-.1a4.49,4.49,0,0,0,.72-2.36c.1-1.66.2-3.3.35-5,.38-4.36,1.24-8.68,1.11-13.09a1.84,1.84,0,0,0,0-.25C149.27,215.84,152.07,216.2,154.81,215.94Z"/><path class="cls-16" d="M156.69,144.9a11.14,11.14,0,0,1,3.37.79c1.61.8,2.79,1,3.33-1.1.13-.52.43-1,1.05-.73a.82.82,0,0,1,.41,1.25c-1.68,2.27,0,3.66,1.13,5.36,4,5.73,2.66,13.24-3.06,18.56h-.14l-.22,0a5.19,5.19,0,0,1,1.81-2.45c3.62-3.52,4.33-12.25.58-16.38-1.25-1.38-1.89-2.85-1-4.81-1.06,1.65-2.3,1.47-3.8,1a23.3,23.3,0,0,1-4.74-1.89l0,0A2.64,2.64,0,0,0,156.69,144.9Z"/><path class="cls-17" d="M144.48,238.06c4,.37,8,0,11.92.19a2.14,2.14,0,0,0,1.77-.5h1.16c.08.21.18.42.28.62C154.56,238.56,149.51,238.87,144.48,238.06Z"/><path class="cls-22" d="M157.27,278.91c-1.55-.49-3.06-1-4.22.78a.86.86,0,0,1-1.32.08c-.47-.42-.13-.93.16-1.31s.68-1,1.06-1c3-.21,5.54-2,8.34-2.8a6.34,6.34,0,0,1,2.46.19c1.39.19,2.18,1.65,3.45,1.85s2.47-.23,4,.76c-2.64.53-4.64,1.74-6.94-.47-1.89-1.81-4.05-1-5.33,1.43C158.42,279.32,157.88,279.1,157.27,278.91Z"/><path class="cls-17" d="M154.81,215.94c-2.74.26-5.54-.1-8.19.85a1.85,1.85,0,0,0-.11-.42,3.67,3.67,0,0,1,1.76-.69,21.16,21.16,0,0,1,4.7-.44c2,0,3,0,3.57.49a2.06,2.06,0,0,0,0,.89,18.48,18.48,0,0,1,.27,3.85c-.08-1-.14-2.07-.2-3.11C156.54,216,156,215.82,154.81,215.94Z"/><path class="cls-23" d="M149.42,154.32a3.84,3.84,0,0,1-.1,7.63c-2.09,0-3.5-1.61-3.43-4A3.42,3.42,0,0,1,149.42,154.32Z"/><path class="cls-24" d="M148.23,174.72c1.47.47,2.11.87,1.08,2.53a22.89,22.89,0,0,1-6.32,7.3c-3.24,2.22-6.4,2.06-9.37-.46a16.41,16.41,0,0,1-4.71-6.94c-.68-1.8-.1-2.83,1.77-3.32a32.72,32.72,0,0,1,6-.54A37.6,37.6,0,0,1,148.23,174.72Z"/><path class="cls-17" d="M145.08,214.63a107.8,107.8,0,0,0,12.57-.56,3.11,3.11,0,0,0-1.11,1.66c-.56-.49-1.61-.49-3.57-.49a21.16,21.16,0,0,0-4.7.44,3.67,3.67,0,0,0-1.76.69A2.6,2.6,0,0,0,145.08,214.63Z"/><path class="cls-17" d="M146.62,216.79c-.19.08-.39.15-.58.24a1.83,1.83,0,0,1,.47-.66A1.85,1.85,0,0,1,146.62,216.79Z"/><path class="cls-25" d="M145,279.05c-.07-1.91-.22-3.82-.26-5.73,0-1.61,1.13-1.53,2.27-1.53H162.5v-.41c5,0,10,0,15,0,2.29,0,2.94.85,2.57,3.06-.09.54-.23,1-.87,1s-.69-.43-.64-.85c.22-1.89-1.09-1.64-2.24-1.62-9.4.13-18.81.31-28.22.37-1.53,0-1.79.55-1.63,1.87s.12,2.49.17,3.74c0,.53,0,1-.74,1S145,279.66,145,279.05Z"/><path class="cls-17" d="M156.4,238.25c-4-.19-8,.18-11.92-.19,3.9,0,7.8,0,11.7,0a2,2,0,0,0,1.45-.36h.54A2.14,2.14,0,0,1,156.4,238.25Z"/><path class="cls-16" d="M145.47,147.88c.16-1-.76-1.82-1.19-2.69-.24-.5-.91-1-.15-1.44.6-.39,1.12,0,1.46.53s.59,1,.89,1.51c.16.28.27.65.52.82.59.42,6.15-2.12,6.34-2.87.08-.32.06-.67.16-1,.23-.73-.17-2.06.93-2s.68,1.31.57,2a1.63,1.63,0,0,0,.4,1.66l0,0c-.74-.52-.87-1.12-1.11-2.34-.18,4.33-3.83,3.63-6.05,4.81-1.64.88-2.16-.94-3.1-1.86A6,6,0,0,1,145.47,147.88Z"/><path class="cls-21" d="M144.08,237.38c.65-6.79,1.31-13.56,2-20.35.19-.09.39-.16.58-.24a1.84,1.84,0,0,1,0,.25c.13,4.41-.73,8.73-1.11,13.09-.15,1.65-.25,3.29-.35,5a4.49,4.49,0,0,1-.72,2.36Z"/><path class="cls-21" d="M144.94,237.54c4.22.49,8.46.2,12.69.2a2,2,0,0,1-1.45.36c-3.9,0-7.8,0-11.7,0L144,238a3.43,3.43,0,0,0,.47-.55Z"/><path class="cls-21" d="M144,238l.06-.61.41.06A3.43,3.43,0,0,1,144,238Z"/><path class="cls-26" d="M142.47,238l.06-.66a9.62,9.62,0,0,1,1.52.09h0L144,238Z"/><path class="cls-17" d="M138.52,214.49c2.18.08,4.37.13,6.55.14h0a2.6,2.6,0,0,1,1.43,1.74,1.83,1.83,0,0,0-.47.66c-.17-1.66-1.15-2.08-2.72-2.09-.93,0-1.89.18-2.83.14A3.82,3.82,0,0,1,138.52,214.49Z"/><path class="cls-20" d="M143.2,214.29a14.38,14.38,0,0,1-4.14-.22,4.61,4.61,0,0,1,2-.36c5.21-.17,10.43.27,15.63-.31a2.24,2.24,0,0,1,1.46.27,2.43,2.43,0,0,0-.25.2l-.24.2a107.8,107.8,0,0,1-12.57.56h0A4.46,4.46,0,0,0,143.2,214.29Z"/><path class="cls-27" d="M142.59,230.5c.09-1.58.29-3.1-.65-4.49a.38.38,0,0,1,0-.4c1.25.24,1.79.79,1.57,2.29-.46,3.11-.7,6.26-1,9.39h-.29C141.59,235,142.45,232.75,142.59,230.5Z"/><path class="cls-28" d="M143.07,224.53a3,3,0,0,1-.54.1c0-.16-.13-.33-.45-.52Z"/><path class="cls-28" d="M142.53,224.63a3,3,0,0,0,.54-.1l.57.23c-.21,1-1.08.54-1.63.77C142.19,225.23,142.57,225,142.53,224.63Z"/><path class="cls-27" d="M142.47,238a3.63,3.63,0,0,1-.23-.68h.29Z"/><path class="cls-16" d="M141.88,164.79a2,2,0,0,1,1.37.72c6.6,6.7,9.56,7.32,18.09,3.88a5.16,5.16,0,0,1,1.22-.35c0,.12,0,.24-.05.37-7.75,4.75-14.27,2.43-17.86-1.19A40.74,40.74,0,0,1,141.88,164.79Z"/><path class="cls-27" d="M142,225.61a.38.38,0,0,0,0,.4c.94,1.39.74,2.91.65,4.49-.14,2.25-1,4.51-.35,6.77-5.5-.63-11-.89-16.54-1.53a177.07,177.07,0,0,1-28-5.22c4.54-1.8,9.39-2.35,14.15-3.12,10-1.63,20-1.49,30.08-1.81Z"/><path class="cls-28" d="M141.89,225.59a3.68,3.68,0,0,0-1.6-.85l1.37,0,.87-.07c0,.32-.34.6-.52.9h0Z"/><path class="cls-1" d="M141.36,155.12c0,9.21-3.41,13.86-10.21,13.8-5.92,0-11.09-5.12-11.09-10.9a10.47,10.47,0,0,1,10.72-10.44C135.28,147.6,141.35,151.93,141.36,155.12Zm-4.76,2c0-1.75-.73-2.86-2.25-2.94a3.63,3.63,0,0,0-3.87,3.74c0,1.85.71,3.08,2.74,3.08S136.59,159.4,136.6,157.17Z"/><path class="cls-26" d="M140.49,215.08c.94,0,1.9-.14,2.83-.14,1.57,0,2.55.43,2.72,2.09-.65,6.79-1.31,13.56-2,20.35h0a9.62,9.62,0,0,0-1.52-.09c.31-3.13.55-6.28,1-9.39.22-1.5-.32-2.05-1.57-2.29a.19.19,0,0,1,0-.08h0c.55-.23,1.42.19,1.63-.77l-.57-.23a1.83,1.83,0,0,0,1.49-1.59,19.17,19.17,0,0,0,.6-4.19c-.06-2.31-.81-3.26-3.1-3.35-.53,0-1.06-.05-1.58-.09Z"/><path class="cls-20" d="M139.06,214.07a14.38,14.38,0,0,0,4.14.22,4.46,4.46,0,0,1,1.87.34c-2.18,0-4.37-.06-6.55-.14A2.32,2.32,0,0,1,139.06,214.07Z"/><path class="cls-28" d="M140.29,224.74l-3.41.1A8.9,8.9,0,0,1,140.29,224.74Z"/><path class="cls-29" d="M137.16,199a1,1,0,0,1,.68-1.18c.56-.15.87.1,1.2.57,2.72,3.86,6.66,4.25,10.11,1,.63-.59,1.19-1.77,2.08-.74.66.77-.21,1.64-.81,2.32-2.08,2.33-6.31,3.18-9.7,2C138.83,202.19,137.29,201.2,137.16,199Z"/><path class="cls-30" d="M134.35,154.23c1.52.08,2.26,1.19,2.25,2.94,0,2.23-1.44,3.88-3.38,3.88s-2.75-1.23-2.74-3.08A3.63,3.63,0,0,1,134.35,154.23Z"/><path class="cls-31" d="M134.06,246.68c-.76-.15-1.13-.56-1.1-1.22s.28-1,.89-.92a1.17,1.17,0,0,1,1,1.2C134.93,246.38,134.46,246.55,134.06,246.68Z"/><path class="cls-1" d="M133.31,257.59l.6-.07c1.05,3.61,2.12,7.22,3.14,10.85.32,1.14-.58.86-1.17.86h-7.67Z"/><path class="cls-32" d="M134.06,246.68c.4-.13.87-.3.81-.94a1.17,1.17,0,0,0-1-1.2c-.61-.06-.87.39-.89.92S133.3,246.53,134.06,246.68Zm-2.68-1.34a2.15,2.15,0,0,1,2.56-2.31c1.68.08,2.42,1.18,2.54,2.72-.11,1.59-.88,2.63-2.46,2.54A2.63,2.63,0,0,1,131.38,245.34Z"/><path class="cls-33" d="M131.22,253.93c1.74,0,2.84-.45,3.7.44.3.3,0,.83-.41,1C133.31,255.79,132.53,255.11,131.22,253.93Z"/><path class="cls-34" d="M132.73,185.51a21.61,21.61,0,0,1-5.63-7.82c-1.23-2.62-.35-4.24,2.45-5.16s5.57-.76,7.77-.87a42.19,42.19,0,0,1,11.92,1.7c2.84.94,3.16,1.67,1.76,4.21a22.55,22.55,0,0,1-7.41,8.57A8.86,8.86,0,0,1,132.73,185.51Zm-2-11.68c-1.87.49-2.45,1.52-1.77,3.32a16.41,16.41,0,0,0,4.71,6.94c3,2.52,6.13,2.68,9.37.46a22.89,22.89,0,0,0,6.32-7.3c1-1.66.39-2.06-1.08-2.53a37.6,37.6,0,0,0-11.56-1.43A32.72,32.72,0,0,0,130.68,173.83Z"/><path class="cls-35" d="M123.21,135.86c-1,.75-1.42-.66-2-1.28s-.82-1.5-1.94-1.37c-.53,1.57.85,2.39,1.42,3.48.38.74,1,1.26.26,2.19a2.47,2.47,0,0,1-2.22,1.23c-3.27-.16-5.44-3.47-4.58-7.13a8.31,8.31,0,0,1,8.89-6c2.43.41,4.59,2.94,4.3,5.35S124.67,134.81,123.21,135.86Z"/><path class="cls-16" d="M122.51,166.61c1.24.47,2.28,1.31,3.46,1.88a11.35,11.35,0,0,0,13.2-1.85c.49-.44,1-.93,1.47-1.34a2.05,2.05,0,0,1,1.22-.51c-2.35,3-5.22,5.2-9.17,5.58A13.32,13.32,0,0,1,122.36,167,1,1,0,0,0,122.51,166.61Z"/><path class="cls-20" d="M129.55,172.53c-2.8.92-3.68,2.54-2.45,5.16a21.61,21.61,0,0,0,5.63,7.82,8.86,8.86,0,0,0,10.86.63,22.55,22.55,0,0,0,7.41-8.57c1.4-2.54,1.08-3.27-1.76-4.21a42.19,42.19,0,0,0-11.92-1.7C135.12,171.77,132.27,171.64,129.55,172.53ZM122.36,167a13.32,13.32,0,0,0,10.33,3.39c3.95-.38,6.82-2.55,9.17-5.58h0a40.74,40.74,0,0,0,2.77,3.43c3.59,3.62,10.11,5.94,17.86,1.19a23.7,23.7,0,0,0,16.54-2,9.18,9.18,0,0,1,2.41-.86,3.17,3.17,0,0,0,.63.37,29.94,29.94,0,0,1,10,8.83,16.17,16.17,0,0,1,2,16.08c-1.92,4.89-5.51,8.46-9.63,11.5-7,5.14-15,7.83-23.4,9.4a6.87,6.87,0,0,0-3,.94,2.24,2.24,0,0,0-1.46-.27c-5.2.58-10.42.14-15.63.31a4.61,4.61,0,0,0-2,.36H139c-4.18-1.11-8.54-1.39-12.69-2.66-7.41-2.28-14.34-5.38-19.8-11.11-6.71-7-7.34-15.75-1.62-23.61a30,30,0,0,1,9.7-8.48c1.09-.62,2.19-1.21,2.48-2.52C118.84,166.11,120.37,167.45,122.36,167Zm28.06,33.93c.6-.68,1.47-1.55.81-2.32-.89-1-1.45.15-2.08.74-3.45,3.26-7.39,2.87-10.11-1-.33-.47-.64-.72-1.2-.57a1,1,0,0,0-.68,1.18c.13,2.25,1.67,3.24,3.56,3.91C144.11,204.09,148.34,203.24,150.42,200.91Z"/><path class="cls-16" d="M122.51,166.61a1,1,0,0,1-.15.37c-.16-.17-.32-.35-.47-.53.19,0,.38.08.57.14Z"/><path class="cls-14" d="M122.36,167c-2,.47-3.52-.87-5.29-1.3a1.65,1.65,0,0,0,.06-.32s0-.08,0-.12c.81-.27,1.57.3,2.31.6a16.37,16.37,0,0,0,2.46.61C122,166.63,122.2,166.81,122.36,167Z"/><path class="cls-16" d="M155.12,146.19a13,13,0,0,0-12.74,12.73,11.59,11.59,0,0,0,11.82,11.57,12.8,12.8,0,0,0,12.45-12.65A11.7,11.7,0,0,0,155.12,146.19Zm-24.34,1.39A10.47,10.47,0,0,0,120.06,158c0,5.78,5.17,10.86,11.09,10.9,6.8.06,10.24-4.59,10.21-13.8C141.35,151.93,135.28,147.6,130.78,147.58Zm-9.07,17.49c-3.44-4.63-3.51-9.84.1-14.47,1.32-1.69,2-3.29,1.27-5.38.69,1.1.75,2.79,2.69,2.36,1.14-.25,2.23-.68,3.35-1,1.39-.39,1.49-1.55,1.59-2.78,0,2.52,1.77,2.93,3.61,3.45,2.16.62,3-.77,3.78-2.37a7,7,0,0,0,3.3,7.63,1.26,1.26,0,0,0,1.39-.1,6.14,6.14,0,0,0,2.68-4.51v0a6,6,0,0,0-.35-2.8c.94.92,1.46,2.74,3.1,1.86,2.22-1.18,5.87-.48,6.05-4.81.24,1.22.37,1.82,1.11,2.34a23.3,23.3,0,0,0,4.74,1.89c1.5.51,2.74.69,3.8-1-.86,2-.22,3.43,1,4.81,3.75,4.13,3,12.86-.58,16.38a5.19,5.19,0,0,0-1.81,2.45,5.16,5.16,0,0,0-1.22.35c-8.53,3.44-11.49,2.82-18.09-3.88a2,2,0,0,0-1.37-.72h0a2.05,2.05,0,0,0-1.22.51c-.52.41-1,.9-1.47,1.34a11.35,11.35,0,0,1-13.2,1.85c-1.18-.57-2.22-1.41-3.46-1.88C122.66,166,122.06,165.54,121.71,165.07Z"/><path class="cls-16" d="M121.81,150.6c-3.61,4.63-3.54,9.84-.1,14.47.35.47,1,.88.8,1.54l-.05,0c-.19-.06-.38-.1-.57-.14A12.62,12.62,0,0,1,119,154.59a8.8,8.8,0,0,1,2.36-4.32c1.56-1.46,2-2.85,1.18-4.77-.24-.59-.84-1.6.22-1.92s1.12.86,1.18,1.47c.23,2.34,1.31,2.13,3.14,1.54s3.81-.77,2.81-3.54a.65.65,0,0,1,.63-.88c.76,0,.84.64,1,1.22.26,1.1-.23,2.42,1.61,2.89,2.23.57,4,1,4.43-2.06.06-.52.36-1,1-.93a.75.75,0,0,1,.53,1.16c-2.55,4.07,1.61,5.44,3,8.06,1.11-1.37,2.13-2.53,3.07-3.76a2.13,2.13,0,0,0,.41-.85,6.14,6.14,0,0,1-2.68,4.51,1.26,1.26,0,0,1-1.39.1,7,7,0,0,1-3.3-7.63c-.79,1.6-1.62,3-3.78,2.37-1.84-.52-3.61-.93-3.61-3.45-.1,1.23-.2,2.39-1.59,2.78-1.12.32-2.21.75-3.35,1-1.94.43-2-1.26-2.69-2.36C123.8,147.31,123.13,148.91,121.81,150.6Z"/><path class="cls-14" d="M181.76,132.46c-2.14-.09-6.51,3.2-7.08,5.33-.18.69-.21,1.32.76,1.46a2.21,2.21,0,0,0,.57-.46c1.49-2.4,3.29-4.39,6.24-4.95a.71.71,0,0,0,.57-1C182.65,132.41,182.17,132.47,181.76,132.46Zm-64.64,32.78a46.83,46.83,0,0,1,2.32-18.54c2.5-7.37,7.54-11.91,15.22-13.59A51,51,0,0,1,153,132.3c4.93.7,9.93,1.18,14.43,3.62s4.48,2.42,5.8-2.36a7.34,7.34,0,0,1,6.18-5.76,6.36,6.36,0,0,1,7.41,6c.35,4.57-2.66,8.34-6.8,8.52-.92,0-1.82-.2-2.73-.18-1.76,0-2.35,1-1.29,2.35,4.44,5.64,4.77,12.21,4.43,18.93a3.72,3.72,0,0,0,.67,2.78,3.34,3.34,0,0,0-1.9.39c-5.11,2.86-10.62,3.07-16.25,2.47,5.72-5.32,7-12.83,3.06-18.56-1.18-1.7-2.81-3.09-1.13-5.36a.82.82,0,0,0-.41-1.25c-.62-.23-.92.21-1.05.73-.54,2.13-1.72,1.9-3.33,1.1a11.14,11.14,0,0,0-3.37-.79,2.64,2.64,0,0,1-1.29-.46,1.63,1.63,0,0,1-.4-1.66c.11-.71.65-2-.57-2s-.7,1.27-.93,2c-.1.31-.08.66-.16,1-.19.75-5.75,3.29-6.34,2.87-.25-.17-.36-.54-.52-.82-.3-.5-.57-1-.89-1.51s-.86-.92-1.46-.53c-.76.48-.09.94.15,1.44.43.87,1.35,1.68,1.19,2.69v0a2.13,2.13,0,0,1-.41.85c-.94,1.23-2,2.39-3.07,3.76-1.41-2.62-5.57-4-3-8.06a.75.75,0,0,0-.53-1.16c-.6-.07-.9.41-1,.93-.4,3.07-2.2,2.63-4.43,2.06-1.84-.47-1.35-1.79-1.61-2.89-.13-.58-.21-1.23-1-1.22a.65.65,0,0,0-.63.88c1,2.77-.91,2.92-2.81,3.54s-2.91.8-3.14-1.54c-.06-.61-.07-1.81-1.18-1.47s-.46,1.33-.22,1.92c.77,1.92.38,3.31-1.18,4.77a8.8,8.8,0,0,0-2.36,4.32,12.62,12.62,0,0,0,2.94,11.86,16.37,16.37,0,0,1-2.46-.61C118.69,165.54,117.93,165,117.12,165.24Z"/><path class="cls-9" d="M238.65,179.33A92.12,92.12,0,0,0,233,125a90.33,90.33,0,0,0-18.56-27.9A87.47,87.47,0,0,0,182,75.77a82.59,82.59,0,0,0-26.34-5.13c-14.24-.53-27.62,2.67-40.43,8.61l-.19-.32a73.92,73.92,0,0,1,26.26-8.27A83.35,83.35,0,0,1,193,80c21.32,11.55,35.68,29,43.4,51.94a90.72,90.72,0,0,1,2.47,49.95,89.33,89.33,0,0,1-30.89,50.3,4.83,4.83,0,0,0-1.43,1.58,1.86,1.86,0,0,0-.15-.56,5.84,5.84,0,0,1,1.88-2.17,85.92,85.92,0,0,0,18.43-21.21A88,88,0,0,0,238.65,179.33Z"/><path class="cls-14" d="M117.13,165.36a1.65,1.65,0,0,1-.06.32,4.35,4.35,0,0,0-.52-.1,1.72,1.72,0,0,1,.57-.34S117.13,165.32,117.13,165.36Z"/><path class="cls-14" d="M116.55,165.58a38.42,38.42,0,0,1,1.13-15.29c3.06-11.78,7.86-16.63,20.46-18.58a59,59,0,0,1,26.35,2.21,17,17,0,0,1,5.35,2.6c1.57,1.18,2,.74,2.28-1.09a9.57,9.57,0,0,1,2-5.51c2.64-2.94,6.7-3.93,9.68-2.17a8.34,8.34,0,0,1,3.3,9.85,8.06,8.06,0,0,1-9.32,5.3c-.65-.12-1.44-.62-1.85,0-.62,1,.64,1.09,1,1.61A20.48,20.48,0,0,1,181,155.59c.18,2.71.82,5.44.09,8.18a2,2,0,0,0,1.47,2.66,10.93,10.93,0,0,0-1.46-.26,3.72,3.72,0,0,1-.67-2.78c.34-6.72,0-13.29-4.43-18.93-1.06-1.35-.47-2.32,1.29-2.35.91,0,1.81.22,2.73.18,4.14-.18,7.15-3.95,6.8-8.52a6.36,6.36,0,0,0-7.41-6,7.34,7.34,0,0,0-6.18,5.76c-1.32,4.78-1.33,4.77-5.8,2.36S157.9,133,153,132.3a51,51,0,0,0-18.31.81c-7.68,1.68-12.72,6.22-15.22,13.59a46.83,46.83,0,0,0-2.32,18.54A1.72,1.72,0,0,0,116.55,165.58Z"/><path class="cls-9" d="M115,78.93l.19.32-.17.08C115,79.2,115,79.07,115,78.93Z"/><path class="cls-6" d="M207.94,232.21a89.33,89.33,0,0,0,30.89-50.3A90.72,90.72,0,0,0,236.36,132C228.64,109.05,214.28,91.57,193,80a83.35,83.35,0,0,0-51.69-9.36A73.92,73.92,0,0,0,115,78.93c-.7,0-1.21-.17-1.34-.77l.11,0a86.58,86.58,0,0,1,47.72-8.8,84.8,84.8,0,0,1,43.61,17.17,90.87,90.87,0,0,1,28.82,36.41,94.16,94.16,0,0,1,8,41.77,98.06,98.06,0,0,1-5.19,28.11c-.19.56-.66,1.23-.2,1.73-.32.22-.23.53,0,.85-.79.34-1.05,1.24-1.4,2a91.78,91.78,0,0,1-26.27,35.49,12,12,0,0,0-2.29,2.09,4.8,4.8,0,0,0,0-1.2A4.83,4.83,0,0,1,207.94,232.21Z"/><path class="cls-36" d="M115,79.34c-.85-.1-1.77-.14-1.58-1.1l.24-.08c.13.6.64.79,1.34.77,0,.14,0,.27,0,.4Z"/><path class="cls-6" d="M228.69,111.46a93.82,93.82,0,0,1,14,46.78,98.28,98.28,0,0,1-5.16,34.58,13.85,13.85,0,0,1-.74,1.56.89.89,0,0,0-.24.13c-.46-.5,0-1.17.2-1.73a98.06,98.06,0,0,0,5.19-28.11,94.16,94.16,0,0,0-8-41.77,90.87,90.87,0,0,0-28.82-36.41A84.8,84.8,0,0,0,161.5,69.32a86.58,86.58,0,0,0-47.72,8.8l-.11,0a1.5,1.5,0,0,1,0-.49,77.48,77.48,0,0,1,26.46-8.53,85.24,85.24,0,0,1,43,4.52A89.51,89.51,0,0,1,228.69,111.46Z"/><path class="cls-36" d="M113.63,77.67a1.5,1.5,0,0,0,0,.49l-.24.08A2.62,2.62,0,0,1,113.63,77.67Z"/><path class="cls-26" d="M117.42,141.64c-4.61-2.56-6.09-5.69-4.73-9.71a9.83,9.83,0,0,1,10.92-6.38,5.73,5.73,0,0,1,4.92,4.68c.32,1.71,1,2,2.57,1.53a57.27,57.27,0,0,1,37.37,2.05c1.86.74,2.22.24,2.65-1.39a9.63,9.63,0,0,1,8.17-7,8.71,8.71,0,0,1,9.2,5.34A10.1,10.1,0,0,1,186,142a8.45,8.45,0,0,1-4.92,2.66c-1.27.14-1.47.85-.93,1.9,2.67,5.14,2.84,10.68,2.53,16.27-.07,1.43.77,2.08,1.77,2.75a33.55,33.55,0,0,1,10.67,10.57c4.42,7.36,2.84,17-3,23.53-6.51,7.28-15,11.12-24.08,13.86a36.44,36.44,0,0,1-7.8,1.56c-1.73.12-2.26.86-1.92,2.62a19.21,19.21,0,0,1,.26,5c-.16,2.2.52,3.32,2.86,3a2.9,2.9,0,0,1-1.84.35c-1.58-.31-1.67-1.11-1.7-3.86a35.27,35.27,0,0,0-.13-4.24c-.33-2.44.19-3.22,2.62-3.52a59.09,59.09,0,0,0,18.94-6,38.43,38.43,0,0,0,12.13-9.06c8.34-9.53,7.26-21.49-3-30-1.47-1.23-3.06-2.3-4.57-3.48a4.46,4.46,0,0,1-1.67-3.88c-.11-4.71,0-9.48-2.1-13.93-1.3-2.74-1-3.15,1.94-4.34,6.45-2.63,7.81-8.61,5.36-13.44-1.61-3.16-4.58-4.52-8.19-4a8.73,8.73,0,0,0-7.15,5.52c-1.51,3.54-1.5,3.57-5.05,2.16a54.54,54.54,0,0,0-15.54-3.33,54.18,54.18,0,0,0-20,1.72c-1.83.52-3.06,0-3.62-1.94-1.19-4.15-4.85-4.8-8.47-3.88a8.76,8.76,0,0,0-6.2,8.67,6.68,6.68,0,0,0,3.52,5.37c2.58,1.66,2.6,1.67,1.54,4.62a40.09,40.09,0,0,0-2.51,15.17,8.43,8.43,0,0,1-1.12,4.9l-.12-.07a6.52,6.52,0,0,0,.39-3.08,70.9,70.9,0,0,1,.66-9.2,35.61,35.61,0,0,1,2.56-9.07C118.57,142.76,118.49,142.24,117.42,141.64Z"/><path class="cls-37" d="M106.57,242.47c0-.53.21-1,.79-1s1,.48,1,1.1c-.08.5-.25,1-.83,1S106.59,243.1,106.57,242.47Z"/><path class="cls-38" d="M107.5,245.26a2.44,2.44,0,0,1-2.47-2.49c0-1.91.65-2.84,2.31-2.86a2.42,2.42,0,0,1,2.63,2.63C110,244.14,109.21,245.3,107.5,245.26Zm-.93-2.79c0,.63.34,1.12,1,1.11s.75-.51.83-1c-.09-.62-.38-1.12-1-1.1S106.54,241.94,106.57,242.47Z"/><path class="cls-28" d="M111.81,227.4c-4.76.77-9.61,1.32-14.15,3.12l-.78-.22-.11,0c.27-.56,1-.69,1.53-.83A138.68,138.68,0,0,1,120,225.66c5.54-.51,11.1,0,16.63-.79l.21,0,3.41-.1a3.68,3.68,0,0,1,1.6.85C131.85,225.91,121.76,225.77,111.81,227.4Z"/><path class="cls-20" d="M106.82,201.52c-8.53-8.3-8.7-19.28-.34-27.79a35.2,35.2,0,0,1,8.89-6.74c.64-.34,1.14-.64,1.18-1.41a4.35,4.35,0,0,1,.52.1c-.29,1.31-1.39,1.9-2.48,2.52a30,30,0,0,0-9.7,8.48c-5.72,7.86-5.09,16.57,1.62,23.61,5.46,5.73,12.39,8.83,19.8,11.11,4.15,1.27,8.51,1.55,12.69,2.66h.06a2.32,2.32,0,0,0-.54.42c-5.31-.92-10.65-1.7-15.75-3.57C116.88,208.76,111.39,206,106.82,201.52Z"/><path class="cls-26" d="M123,127a8.31,8.31,0,0,0-8.89,6c-.86,3.66,1.31,7,4.58,7.13a2.47,2.47,0,0,0,2.22-1.23c.74-.93.12-1.45-.26-2.19-.57-1.09-2-1.91-1.42-3.48,1.12-.13,1.41.8,1.94,1.37s1,2,2,1.28c1.46-1.05,3.86-1.2,4.13-3.51S125.47,127.41,123,127Zm-16.56,46.73c-8.36,8.51-8.19,19.49.34,27.79,4.57,4.45,10.06,7.24,16,9.4,5.1,1.87,10.44,2.65,15.75,3.57a3.82,3.82,0,0,0,2,.59v.23c-1.63-.11-3.25-.28-4.87-.49-11.2-1.49-21.63-4.85-29.89-13-5.76-5.69-8.71-14.29-4.36-22.58a29.69,29.69,0,0,1,10.22-11.07,9.3,9.3,0,0,0,3-2.95,8.43,8.43,0,0,0,1.12-4.9,40.09,40.09,0,0,1,2.51-15.17c1.06-3,1-3-1.54-4.62a6.68,6.68,0,0,1-3.52-5.37,8.76,8.76,0,0,1,6.2-8.67c3.62-.92,7.28-.27,8.47,3.88.56,1.94,1.79,2.46,3.62,1.94a54.18,54.18,0,0,1,20-1.72A54.54,54.54,0,0,1,167,133.92c3.55,1.41,3.54,1.38,5.05-2.16a8.73,8.73,0,0,1,7.15-5.52c3.61-.54,6.58.82,8.19,4,2.45,4.83,1.09,10.81-5.36,13.44-2.91,1.19-3.24,1.6-1.94,4.34,2.11,4.45,2,9.22,2.1,13.93a4.46,4.46,0,0,0,1.67,3.88c1.51,1.18,3.1,2.25,4.57,3.48,10.28,8.55,11.36,20.51,3,30a38.43,38.43,0,0,1-12.13,9.06,59.09,59.09,0,0,1-18.94,6c-2.43.3-3,1.08-2.62,3.52a35.27,35.27,0,0,1,.13,4.24c0,2.75.12,3.55,1.7,3.86a4.3,4.3,0,0,0-.95,0,3.63,3.63,0,0,1-1-2.66c-.11-1.87.29-3.85-.19-5.61a3.29,3.29,0,0,1,1.16-3.8c.72-.16,1.44-.35,2.17-.49,10.37-2,20.09-5.42,28-12.77,8.09-7.51,9.65-17.12,4.18-25.07a29.88,29.88,0,0,0-10.34-9.21,2,2,0,0,1-1.47-2.66c.73-2.74.09-5.47-.09-8.18A20.48,20.48,0,0,0,177,144.54c-.4-.52-1.66-.62-1-1.61.41-.65,1.2-.15,1.85,0a8.06,8.06,0,0,0,9.32-5.3,8.34,8.34,0,0,0-3.3-9.85c-3-1.76-7-.77-9.68,2.17a9.57,9.57,0,0,0-2,5.51c-.23,1.83-.71,2.27-2.28,1.09a17,17,0,0,0-5.35-2.6,59,59,0,0,0-26.35-2.21c-12.6,1.95-17.4,6.8-20.46,18.58a38.42,38.42,0,0,0-1.13,15.29c0,.77-.54,1.07-1.18,1.41A35.2,35.2,0,0,0,106.48,173.73Z"/><path class="cls-26" d="M99.09,191.62c-1.88-8.42,1.84-14.89,7.67-20.44a28.47,28.47,0,0,1,6.7-5.13,2.34,2.34,0,0,0,1-.9l.12.07a9.3,9.3,0,0,1-3,2.95,29.69,29.69,0,0,0-10.22,11.07c-4.35,8.29-1.4,16.89,4.36,22.58,8.26,8.15,18.69,11.51,29.89,13,1.62.21,3.24.38,4.87.49.52,0,1.05.07,1.58.09,2.29.09,3,1,3.1,3.35a19.17,19.17,0,0,1-.6,4.19,1.83,1.83,0,0,1-1.49,1.59l-1-.42c1.5.09,1.83-.7,2-2.09.77-5.72.82-5.52-4.73-6-10.68-1-21-3.48-29.81-10C104.56,202.32,100.48,197.86,99.09,191.62Z"/><path class="cls-27" d="M100.21,232c-1.2-.31-2.38-.7-3.57-1.06q.51-.23,1-.42a177.07,177.07,0,0,0,28,5.22c5.5.64,11,.9,16.54,1.53a3.63,3.63,0,0,0,.23.68C128.24,237,114.07,235.54,100.21,232Z"/><path class="cls-28" d="M96.88,230.3l.78.22q-.51.19-1,.42a1.3,1.3,0,0,1,.13-.66Z"/><path class="cls-28" d="M95.25,230a123.66,123.66,0,0,1,21.6-4.22c6.66-.57,13.34-.78,20-1l-.21,0c-5.53.77-11.09.28-16.63.79a138.68,138.68,0,0,0-21.74,3.79c-.56.14-1.26.27-1.53.83C96.27,230.21,95.73,230.06,95.25,230Z"/><path class="cls-39" d="M91.19,91c5-.73,6.44,3.23,4.77,6.79-2.55,5.44-6.84,9.27-12.84,10.11s-6.41-1.88-5.25-7.25C78.64,97.07,86.55,90,91.19,91Z"/><path class="cls-28" d="M95.25,230h0a8,8,0,0,1-1,.21A1.59,1.59,0,0,1,95.25,230Z"/><path class="cls-28" d="M94.16,230.25a8,8,0,0,0,1-.21h0c.48,0,1,.18,1.52.25a1.3,1.3,0,0,0-.13.66,2.28,2.28,0,0,0-3.09.54A1.9,1.9,0,0,1,94.16,230.25Z"/><path class="cls-28" d="M92.41,230.09c2.77,0,5.22-1.52,7.84-2.13a132.11,132.11,0,0,1,28.88-3.52c4.32,0,8.62-.77,13-.33.32.19.44.36.45.52l-.87.07-1.37,0a8.9,8.9,0,0,0-3.41.1c-6.69.19-13.37.4-20,1A123.66,123.66,0,0,0,95.25,230a1.59,1.59,0,0,0-1.09.22,5.72,5.72,0,0,1-1.37.05A.83.83,0,0,0,92.41,230.09Z"/><path class="cls-36" d="M94.16,76c-1,.2-2,.42-3,.71A11.44,11.44,0,0,1,94,75.49a13,13,0,0,1,6.77-.93A3.24,3.24,0,0,1,104,77.41c.28,2,.68,3.06,3.15,1.8,1.92-1,4.3-1.06,6.48-1.54a2.62,2.62,0,0,0-.2.57c-2.24.75-4.62,1-6.82,1.94-1.56.67-2.48-.29-3.06-1.68-1.26-3-2-3.47-5.23-3.27A32.62,32.62,0,0,0,94.16,76Z"/><path class="cls-1" d="M184.38,244.49a2.65,2.65,0,0,0,2.7,2.72c1.31.12,2.36-.51,2.32-2a2.7,2.7,0,0,0-2.79-2.85C185.16,242.4,184.34,243,184.38,244.49Zm-22.66,1.39a1.85,1.85,0,0,0-2-2.24,2.49,2.49,0,0,0-2.69,2.44c0,1.56.55,2.51,2,2.47A2.6,2.6,0,0,0,161.72,245.88ZM93,232a3.28,3.28,0,0,0,.1-.49h.48l0,.17c2,1.84,4.64,2.15,7.11,2.77,16.41,4.1,33.18,5.61,50,6.13,17.24.52,34.49,0,51.23-5.08,1.53-.46,2.27.12,2.32,1.6.08,2.08.29,4.15.53,6.22a3.73,3.73,0,0,1-2.45,4.16,35.69,35.69,0,0,1-9.6,2.66,222.45,222.45,0,0,1-44.3,2.2c-11.15-.54-22.26-1.27-33.34-2.65-7-.88-14-2.27-20.88-3.82-2.8-.63-3.16-1.18-2.77-4C91.81,238.6,91.9,235.24,93,232Zm43.52,13.71c-.12-1.54-.86-2.64-2.54-2.72a2.15,2.15,0,0,0-2.56,2.31,2.63,2.63,0,0,0,2.64,2.95C135.6,248.38,136.37,247.34,136.48,245.75Zm-29-.49c1.71,0,2.54-1.12,2.47-2.72a2.42,2.42,0,0,0-2.63-2.63c-1.66,0-2.35,1-2.31,2.86A2.44,2.44,0,0,0,107.5,245.26Z"/><path class="cls-28" d="M93.08,231.28a.7.7,0,0,1,.43.26h-.45A.86.86,0,0,0,93.08,231.28Z"/><path class="cls-28" d="M92.55,231.56a.58.58,0,0,1,.53-.28.86.86,0,0,1,0,.27Z"/><path class="cls-28" d="M93.08,231.28a1.17,1.17,0,0,0-.29-1,5.72,5.72,0,0,0,1.37-.05,1.9,1.9,0,0,0-.61,1.23h0l0,0A.7.7,0,0,0,93.08,231.28Z"/><path class="cls-9" d="M92.41,230.09a5.67,5.67,0,0,1-.91-.07A2,2,0,0,1,92.41,230.09Z"/><path class="cls-28" d="M91.5,230a5.67,5.67,0,0,0,.91.07.83.83,0,0,1,.38.21,6.07,6.07,0,0,1-1.44-.26Z"/><path class="cls-28" d="M91.5,230l-.15,0-.12,0v0Z"/><path class="cls-28" d="M92.55,231.56c.47-1.8-1-.77-1.58-1.1a.82.82,0,0,0,.25-.4h.13a6.07,6.07,0,0,0,1.44.26,1.17,1.17,0,0,1,.29,1A.58.58,0,0,0,92.55,231.56Z"/><path class="cls-28" d="M91.25,230.05h0s0,0,0-.06l.12,0Z"/><path class="cls-28" d="M91.23,230v0l-.13,0Z"/><path class="cls-1" d="M92,246.09c-1.49-.42-1.8-1-1.6-2.41.44-3.22.72-6.45,1.13-9.67a3.38,3.38,0,0,1,1-2.45h.51a3.28,3.28,0,0,1-.1.49c-1.06,3.2-1.15,6.56-1.6,9.85-.39,2.84,0,3.39,2.77,4,6.91,1.55,13.85,2.94,20.88,3.82,11.08,1.38,22.19,2.11,33.34,2.65a222.45,222.45,0,0,0,44.3-2.2,35.69,35.69,0,0,0,9.6-2.66,3.73,3.73,0,0,0,2.45-4.16c-.24-2.07-.45-4.14-.53-6.22,0-1.48-.79-2.06-2.32-1.6-16.74,5.05-34,5.6-51.23,5.08-16.82-.52-33.59-2-50-6.13-2.47-.62-5.1-.93-7.11-2.77l0-.17c8.65,3.09,17.65,4.59,26.71,5.81a267.64,267.64,0,0,0,42.8,2.52c12.64-.33,25.28-1,37.51-4.73.24-.07.48-.13.72-.21,3.42-1.14,3.41-1.14,3.67,2.6.16,2.32.24,4.66.56,7a2.76,2.76,0,0,1-1.71,3.17,30.47,30.47,0,0,1-8.74,2.85c-15.13,2.79-30.4,3.17-45.74,2.67A331.17,331.17,0,0,1,111.56,250,165.43,165.43,0,0,1,92,246.09Z"/><path class="cls-28" d="M91.05,230.13l.17-.07a.82.82,0,0,1-.25.4h0Z"/><path class="cls-28" d="M91.22,230.06l-.17.07s0-.11,0-.17l.13,0S91.22,230,91.22,230.06Z"/><path class="cls-40" d="M90.48,230.76a.83.83,0,0,1,.57-.63l-.09.33h0l-.42.37Z"/><path class="cls-40" d="M90.54,230.84a.6.6,0,0,1-.08.08.78.78,0,0,1,0-.16Z"/><path class="cls-41" d="M89.23,77.31A10.58,10.58,0,0,1,94,75.49a11.44,11.44,0,0,0-2.84,1.18A18.18,18.18,0,0,0,89.23,77.31Z"/><path class="cls-41" d="M87.28,78.25a13.47,13.47,0,0,1,2-.94A14,14,0,0,1,87.28,78.25Z"/><path class="cls-42" d="M80.55,92.35c.34.58.55,1.32,1.4,1.06s.51-1,.56-1.51c.08-.83.12-1.66.17-2.49.48-8.77,6.54-11.19,14.59-12.84,1.67-.34,3.78-1.11,5,1,1.1,2-.39,3.5-1.34,5-.74,1.16-1.34,2.49-2.67,3.21-.5.27-1,.8-.45,1.42a1.15,1.15,0,0,0,1.6.11,13.61,13.61,0,0,0,2-1.85c2.38-2.71,5.56-4.11,8.77-5.51a2.19,2.19,0,0,1,2.85.84c2.15,3,4.18,6,4,9.66,0,7.14-6,11.26-12.65,9-1-.36-2.52-1.77-3.2,0s1.3,1.92,2.45,2.44c2.12,1,4.21,1.94,5.63,4,1.19,1.7,1.18,3.4-.15,4.79-3.49,3.65-6.44,7.87-10.92,10.5a16.77,16.77,0,0,1-4,1.88c-5.34,1.49-8.19-3.15-9.07-8.08-.18-1,.71-2.81-.84-2.92-1.17-.09-.72,1.77-1.1,2.72-1.4,3.54-2.48,7.21-4,10.68s-3.28,4-6.92,2.9q-3.47-1-6.9-2.16c-2.59-.87-3.91-2.37-3.91-4.36a7.09,7.09,0,0,1,.95-3.25c1.59-3,4.11-5.2,6.56-7.45,1.33-1.23,2.76-2.36,4.16-3.5.38-.31,1-.49.77-1.1-.31-.77-1-.43-1.5-.27a47.08,47.08,0,0,1-8,2c-1.48.18-3,.22-3.95-.87a1.9,1.9,0,0,1-.47-1.27,5.88,5.88,0,0,1,.86-2.49c2.34-4.48,5.79-8.08,9.51-11.42.49-.45,1-.81,1.54-1.26C75.12,87.86,78.25,88.36,80.55,92.35ZM91.19,91c-4.64-1-12.55,6-13.32,9.65-1.16,5.37-.71,8.08,5.25,7.25S93.41,103.25,96,97.81C97.63,94.25,96.17,90.29,91.19,91Z"/><path class="cls-41" d="M81.85,85.2c.82-3,2.14-5.73,5.4-6.94a11.09,11.09,0,0,0-4.44,4.62,7.06,7.06,0,0,0-.63,1.88,4.93,4.93,0,0,1-1.09,2.55A9,9,0,0,0,81.85,85.2Z"/><path class="cls-8" d="M76,265c3.18-6.49,6.39-12.9,11.54-18.19,2.24-2.31,1.53-5.81,2-8.8a68.44,68.44,0,0,1,1-7.12.6.6,0,0,0,.08-.08,1,1,0,0,1,.17.24c-.09,4.39-.79,8.72-1.27,13.08a5.72,5.72,0,0,1-1.61,3.31,54.42,54.42,0,0,0-9.67,14.68C77.65,263.23,77.33,264.54,76,265Z"/><path class="cls-41" d="M81.09,87.31c-.42.68-1,.85-2,.63A2.37,2.37,0,0,0,81.09,87.31Z"/><path class="cls-42" d="M16.51,77.78a123.24,123.24,0,0,1,20-28.8c1.13,1.06,1.41,2.62,2.25,3.84,3.74,5.4,8.42,9.45,15.41,9.09,6.12-.3,12.2-1.12,18-3.48,6.67-2.74,10.32-7.91,12-14.74,1-3.92.19-7.64-.79-11.48C81.89,26.84,79.84,22,75.47,18.44a109.79,109.79,0,0,1,32.25-12.3q84.2-17.47,140.76,47.5a27,27,0,0,1,1.6,2.21c-.5.75-.84,1.76-1.54,2.21-3.2,2.07-4.85,5.19-6.33,8.5-1.21,2.71-2.86,5.61-1.29,8.41a12.63,12.63,0,0,0,11,6.56A21.86,21.86,0,0,0,264.35,78a128,128,0,0,1,13.06,38.07,143.33,143.33,0,0,1,1.7,39.33,138.9,138.9,0,0,1-9.94,39.44c-.59-.66-1.38-.46-2.1-.47-6.88-.1-13.76-.22-20.64-.24-3.22,0-6.45-.34-9.67.21a13.85,13.85,0,0,0,.74-1.56,98.28,98.28,0,0,0,5.16-34.58,93.82,93.82,0,0,0-14-46.78,89.51,89.51,0,0,0-45.64-37.8,85.24,85.24,0,0,0-43-4.52,77.48,77.48,0,0,0-26.46,8.53c-2.18.48-4.56.56-6.48,1.54-2.47,1.26-2.87.17-3.15-1.8a3.24,3.24,0,0,0-3.23-2.85,13,13,0,0,0-6.77.93c-2.92-.61-4.84,1.62-7.23,2.51-3.24,1.22-4.65,3.81-5.24,6.94-.44,2.32-1.58,3-3.79,2.07-1.91-.78-3.85-1.24-5.21,1-.91.7-1.84,1.39-2.74,2.11a37.4,37.4,0,0,0-9.85,11.59c-3.08,5.79-2,7.56,4.63,8.26.48,0,1.05-.06,1.3.51s-.18,1.09-.58,1.51-.62.55-.93.83c-2.12,1.91-3.94,4.12-4.31,7s-.53,5.72,2.71,7.33c.44.22.61,1,.91,1.46a6.2,6.2,0,0,1-.27,1c-5.87,13.14-6.65,27-5.52,41,.62,7.74,2.56,15.19,4.46,22.67L11.59,194.5a117.33,117.33,0,0,1-8.42-28.6C-2.06,135.09,2.27,105.65,16.51,77.78Z"/><path class="cls-41" d="M78.85,88.28c-1.71-.93-3.67-.48-5.56-.32a3.05,3.05,0,0,1,1.45-.74,2.09,2.09,0,0,1,.34,0,5.82,5.82,0,0,1,2.38.38,7.1,7.1,0,0,0,1.65.38c1,.22,1.56,0,2-.63a4.93,4.93,0,0,0,1.09-2.55,7.06,7.06,0,0,1,.63-1.88,11.09,11.09,0,0,1,4.44-4.62h0a14,14,0,0,0,2-.94,18.18,18.18,0,0,1,1.93-.64,29.51,29.51,0,0,1-3.52,1.85C84.13,79.9,82.75,83,82,86.43,81.54,88.26,81.26,89.6,78.85,88.28Z"/><path class="cls-41" d="M79.11,87.94a11.61,11.61,0,0,1-1.34-.4,6.12,6.12,0,0,0-2.69-.36,2.09,2.09,0,0,0-.34,0,6.64,6.64,0,0,0-2.21.8c1.36-2.25,3.3-1.79,5.21-1,2.21.9,3.35.25,3.79-2.07.59-3.13,2-5.72,5.24-6.94,2.39-.89,4.31-3.12,7.23-2.51a10.58,10.58,0,0,0-4.77,1.82,13.47,13.47,0,0,0-2,.94h0c-3.26,1.21-4.58,4-5.4,6.94a9,9,0,0,1-.76,2.11A2.37,2.37,0,0,1,79.11,87.94Z"/><path class="cls-8" d="M134.92,254.37c-.86-.89-2-.43-3.7-.44,1.31,1.18,2.09,1.86,3.29,1.43C135,255.2,135.22,254.67,134.92,254.37Zm-6.71,14.86h7.67c.59,0,1.49.28,1.17-.86-1-3.63-2.09-7.24-3.14-10.85l-.6.07Zm-50.12-4.82c-.56,1.06-1,1.77-2.11.62,1.35-.49,1.67-1.8,2.18-2.88a54.42,54.42,0,0,1,9.67-14.68,5.72,5.72,0,0,0,1.61-3.31c.48-4.36,1.18-8.69,1.27-13.08a1,1,0,0,0-.17-.24l.42-.37h0c.56.33,2-.7,1.58,1.1a3.38,3.38,0,0,0-1,2.45c-.41,3.22-.69,6.45-1.13,9.67-.2,1.4.11,2,1.6,2.41A165.43,165.43,0,0,0,111.56,250a331.17,331.17,0,0,0,37.76,3.21c15.34.5,30.61.12,45.74-2.67a30.47,30.47,0,0,0,8.74-2.85,2.76,2.76,0,0,0,1.71-3.17c-.32-2.3-.4-4.64-.56-7-.26-3.74-.25-3.74-3.67-2.6-.24.08-.48.14-.72.21-12.23,3.76-24.87,4.4-37.51,4.73a267.64,267.64,0,0,1-42.8-2.52c-9.06-1.22-18.06-2.72-26.71-5.81a.13.13,0,0,1,0-.06h0a2.28,2.28,0,0,1,3.09-.54c1.19.36,2.37.75,3.57,1.06,13.86,3.54,28,5,42.26,5.95l1.55,0,.46.07c5,.81,10.08.5,15.13.32,14.83-.3,29.63-.75,43.79-5.93,1-.5,1.76.17,2.58.52.27.65-.27,1.43.31,2v0a1,1,0,0,0,.1.17,4.68,4.68,0,0,0-.3.54c-.67,3.16.43,6.26.41,9.4,0,1.11.92,1.75,2,1.92,2.32.36,3.78,1.89,5.25,3.52,1.79,2,3.09,4.31,4.74,6.37-1.28,1.24-1.49-.14-1.88-.82a25.44,25.44,0,0,0-5.29-6.56c-2.88-2.55-5.85-2-7.77,1.46A58.67,58.67,0,0,0,198,267c-.22,1-.28,2-2,2a67.78,67.78,0,0,1,5.84-18.62c-3.69.91-7,1.86-10.45,2.37-14.21,2.13-28.51,2.39-42.84,2-3.25-.09-6.49-.32-9.74-.48a3,3,0,0,0-3.14,4c1,3.67,2.15,7.33,3.27,11,.44,1.44.58,2.35-1.49,1.7a20.62,20.62,0,0,0-3.46-.3c-1-.13-1.44.3-1.76,1.25a53.3,53.3,0,0,0-1.49,6.57c-.11.55,0,1.49-.81,1.49a1.56,1.56,0,0,1-.35,0c-1.08-.24-.49-1.07-.39-1.62a57.67,57.67,0,0,1,1.23-5.84c.45-1.58.12-2.05-1.55-2-3.13.08-3.13,0-1.83-2.92s2.63-5.93,4-8.9a3.83,3.83,0,0,0-3.11-5.15,251.66,251.66,0,0,1-32.31-4.87c-.24-.06-.49-.09-.74-.14-4.89-1.17-4.87-1.17-5.4,4s-1.11,10.6-1.75,15.88c-.08.65.45,2-.85,1.87s-.75-1.29-.67-2.06q.92-8.82,1.86-17.62c0-.41,0-.82.1-1.93a33.57,33.57,0,0,0-4.93,6.4C81.44,258.08,79.75,261.24,78.09,264.41Z"/><path class="cls-41" d="M75.08,87.18a6.12,6.12,0,0,1,2.69.36,11.61,11.61,0,0,0,1.34.4,7.1,7.1,0,0,1-1.65-.38A5.82,5.82,0,0,0,75.08,87.18Z"/><path class="cls-43" d="M59.92,27.83a95.23,95.23,0,0,1,15.55-9.39c-.27,1,.65,1.41,1.14,2,6,7.48,9,15.84,6.15,25.3a17.47,17.47,0,0,1-8.82,11c-6.32,3.25-13.16,4-20,4.43-2,.11-4.32.26-6.09-.88-3.71-2.39-7.3-5-9.27-9.19-.42-.89-.63-2.15-2.07-2.13A124.41,124.41,0,0,1,59.92,27.83Z"/><path class="cls-41" d="M74.74,87.22a3.05,3.05,0,0,0-1.45.74l-.76.06A6.64,6.64,0,0,1,74.74,87.22Z"/><path class="cls-9" d="M75.76,130.69A24.37,24.37,0,0,1,66.5,129a2.6,2.6,0,0,0-.63-.3,1.36,1.36,0,0,0,0-.2c2.75.07,5.21,1.52,8,1.53,4.32,0,6.44-1.5,7.71-5.73.43-1.43,1-2.82,1.47-4.23.17-.5.43-.94,1-.89s.63.44.84.81c2.75,4.84,7.37,5.88,12.39,3.53,5.42-2.52,8.82-7.16,12.82-11.16,2.1-2.11,1.9-5.55-.09-8.26-1.16-1.58-1-2.26.92-2.9,6.54-2.14,9.28-8.53,7-15.06-.84-2.34-2.68-4.27-2.91-6.85l.17-.08c2.28,3.74,4.23,7.56,4,12.2-.24,5.07-2.45,8.43-7.24,10.18-1.59.58-1.85,1.21-1,2.72,1.93,3.34,1.42,6.44-1.19,9.33-2.06,2.29-4.23,4.47-6.4,6.65A19.74,19.74,0,0,1,95.22,125c-4.36,1.39-7.38.13-11.29-4.44a9.42,9.42,0,0,0-1.49,3.36,17.56,17.56,0,0,1-2.46,4.6A4.94,4.94,0,0,1,75.76,130.69Z"/><path class="cls-9" d="M65.89,128.54a1.36,1.36,0,0,1,0,.2.11.11,0,0,0-.08,0Z"/><path class="cls-40" d="M65.89,128.54l-.1.17a4,4,0,0,0-1.78-.13,2.51,2.51,0,0,0,0-.27C64.58,127.65,65.19,127,65.89,128.54Z"/><path class="cls-40" d="M64,128.31a2.51,2.51,0,0,1,0,.27l-.34,0Z"/><path class="cls-40" d="M77.61,221c-7-7.88-11.38-17.29-15-27.09,0,0,0,0,0,0,.93,0,1.16,1.12,1.47,1.9,1.33,3.41,2.67,6.8,4.29,10.09a73.32,73.32,0,0,0,10.17,15.35,44.52,44.52,0,0,0,10.16,8.38,7.24,7.24,0,0,1,1.76,1.13.78.78,0,0,0,0,.16C85.08,229,81.24,225.11,77.61,221Z"/><path class="cls-7" d="M60,194.93c1,0,2.06.19,2.6-1,3.61,9.8,8,19.21,15,27.09,3.63,4.09,7.47,8,12.85,9.9a68.44,68.44,0,0,0-1,7.12c-.43,3,.28,6.49-2,8.8C82.37,252.13,79.16,258.54,76,265a123.93,123.93,0,0,1-26.39-17.78A137,137,0,0,1,12.13,196c5.07-.13,10.14-.28,15.21-.38C38.23,195.34,49.13,195.15,60,194.93Z"/><path class="cls-40" d="M62.59,193.51a.42.42,0,0,1,0,.4h0a2.39,2.39,0,0,0-.13-.28A.6.6,0,0,0,62.59,193.51Z"/><path class="cls-40" d="M62.63,193.91s0,0,0,0,0,0,0,0Z"/><path class="cls-40" d="M62.59,193.51a.6.6,0,0,1-.11.12,2.92,2.92,0,0,0-.14-.31h0A.52.52,0,0,1,62.59,193.51Z"/><path class="cls-44" d="M62.61,193.91a2.13,2.13,0,0,0-.88.22h-.2a3.91,3.91,0,0,0,.75-.3,1.26,1.26,0,0,0,.2-.2A2.39,2.39,0,0,1,62.61,193.91Z"/><path class="cls-44" d="M54.59,194.18c2.31-.05,4.61-.07,6.92-.05a10.21,10.21,0,0,1-2.65.1C57.43,194.2,56,194.18,54.59,194.18Z"/><path class="cls-36" d="M62.47,109.33c-2.11-.24-3.23-1.26-3.27-3.23l.71,0a1.9,1.9,0,0,0,.47,1.27c1,1.09,2.47,1.05,3.95.87a47.08,47.08,0,0,0,8-2c.53-.16,1.19-.5,1.5.27.24.61-.39.79-.77,1.1-1.4,1.14-2.83,2.27-4.16,3.5-2.45,2.25-5,4.45-6.56,7.45a7.09,7.09,0,0,0-.95,3.25l-.69,0c0-.23,0-.46,0-.7.08-3.28,1.94-5.56,4-7.74.81-.82,2-1.52,1.55-2.87s-1.93-1-3-1.09C63,109.34,62.72,109.36,62.47,109.33Z"/><path class="cls-36" d="M59.22,105.5a11.29,11.29,0,0,1,3.16-6.63c3.31-3.71,6.31-7.73,10.53-10.52a4.68,4.68,0,0,1,.38-.39c1.89-.16,3.85-.61,5.56.32,2.41,1.32,2.69,0,3.12-1.85.78-3.4,2.16-6.53,5.67-7.91a29.51,29.51,0,0,0,3.52-1.85c1-.29,2-.51,3-.71a32.62,32.62,0,0,1,4.16-.73c3.26-.2,4,.24,5.23,3.27.58,1.39,1.5,2.35,3.06,1.68,2.2-1,4.58-1.19,6.82-1.94-.19,1,.73,1,1.58,1.1h0c.23,2.58,2.07,4.51,2.91,6.85,2.32,6.53-.42,12.92-7,15.06-2,.64-2.08,1.32-.92,2.9,2,2.71,2.19,6.15.09,8.26-4,4-7.4,8.64-12.82,11.16-5,2.35-9.64,1.31-12.39-3.53-.21-.37-.38-.77-.84-.81s-.86.39-1,.89c-.49,1.41-1,2.8-1.47,4.23-1.27,4.23-3.39,5.76-7.71,5.73-2.79,0-5.25-1.46-8-1.53-.7-1.58-1.31-.89-1.92-.23a3.08,3.08,0,0,0-1.24-2c-1.71-1.16-2.06-2.76-2.08-4.57l.69,0c0,2,1.32,3.49,3.91,4.36q3.44,1.14,6.9,2.16c3.64,1.06,5.42.46,6.92-2.9s2.63-7.14,4-10.68c.38-1-.07-2.81,1.1-2.72,1.55.11.66,1.89.84,2.92.88,4.93,3.73,9.57,9.07,8.08a16.77,16.77,0,0,0,4-1.88c4.48-2.63,7.43-6.85,10.92-10.5,1.33-1.39,1.34-3.09.15-4.79-1.42-2-3.51-3-5.63-4-1.15-.52-3.12-.68-2.45-2.44s2.15-.35,3.2,0c6.61,2.3,12.66-1.82,12.65-9,.19-3.62-1.84-6.68-4-9.66a2.19,2.19,0,0,0-2.85-.84c-3.21,1.4-6.39,2.8-8.77,5.51a13.61,13.61,0,0,1-2,1.85,1.15,1.15,0,0,1-1.6-.11c-.52-.62,0-1.15.45-1.42,1.33-.72,1.93-2,2.67-3.21,1-1.49,2.44-3,1.34-5-1.18-2.12-3.29-1.35-5-1-8,1.65-14.11,4.07-14.59,12.84-.05.83-.09,1.66-.17,2.49-.05.55.15,1.29-.56,1.51s-1.06-.48-1.4-1.06c-2.3-4-5.43-4.49-8.73-1.44-.49.45-1,.81-1.54,1.26-3.72,3.34-7.17,6.94-9.51,11.42a5.88,5.88,0,0,0-.86,2.49l-.71,0C59.2,105.91,59.2,105.71,59.22,105.5Z"/><path class="cls-9" d="M64.19,192.94a99.19,99.19,0,0,1-5.13-35.08,73.64,73.64,0,0,1,5.65-27.15,19.28,19.28,0,0,1,1.08-2,.11.11,0,0,1,.08,0c-.19,2.55-1.65,4.69-2.4,7.07-4.21,13.38-4.67,26.94-2.51,40.7,1.9,12.05,5.49,23.5,11.86,34,4.28,7,9.43,13.3,16.57,17.68.7.43,1.51.75,1.84,1.61a.88.88,0,0,1,0,.23l-.13,0C76.71,221.56,69.29,208.05,64.19,192.94Z"/><path class="cls-36" d="M59.2,106.1c0,2,1.16,3,3.27,3.23.25,0,.5,0,.75,0,1.11.13,2.55-.32,3,1.09s-.74,2.05-1.55,2.87c-2.11,2.18-4,4.46-4,7.74,0,.24,0,.47,0,.7,0,1.81.37,3.41,2.08,4.57a3.08,3.08,0,0,1,1.24,2l-.3.32c-.3-.5-.47-1.24-.91-1.46-3.24-1.61-3.07-4.55-2.71-7.33s2.19-5.1,4.31-7c.31-.28.64-.54.93-.83s.87-.85.58-1.51-.82-.46-1.3-.51c-6.6-.7-7.71-2.47-4.63-8.26a37.4,37.4,0,0,1,9.85-11.59c.9-.72,1.83-1.41,2.74-2.11l.76-.06a4.68,4.68,0,0,0-.38.39c-4.22,2.79-7.22,6.81-10.53,10.52a11.29,11.29,0,0,0-3.16,6.63C59.2,105.71,59.2,105.91,59.2,106.1Z"/><path class="cls-40" d="M62.56,191.07a105.43,105.43,0,0,1-4.32-33.73,81.54,81.54,0,0,1,2.61-18.45c.92-3.38,2.47-6.53,3.2-9.95,0-.12,0-.24,0-.36a4,4,0,0,1,1.78.13,19.28,19.28,0,0,0-1.08,2,73.64,73.64,0,0,0-5.65,27.15,99.19,99.19,0,0,0,5.13,35.08c5.1,15.11,12.52,28.62,26.91,37,0,.06,0,.12,0,.17a.83.83,0,0,0-.57.63,7.24,7.24,0,0,0-1.76-1.13,44.52,44.52,0,0,1-10.16-8.38A73.32,73.32,0,0,1,68.39,205.9c-1.62-3.29-3-6.68-4.29-10.09-.31-.78-.54-1.87-1.47-1.9a.42.42,0,0,0,0-.4C63.18,192.75,62.79,191.88,62.56,191.07Z"/><path class="cls-40" d="M57.88,170.64c-1.13-14.09-.35-27.91,5.52-41a6.2,6.2,0,0,0,.27-1l.34,0c0,.12,0,.24,0,.36-.73,3.42-2.28,6.57-3.2,9.95a81.54,81.54,0,0,0-2.61,18.45,105.43,105.43,0,0,0,4.32,33.73c.23.81.62,1.68,0,2.44a.52.52,0,0,0-.25-.2C60.44,185.83,58.5,178.38,57.88,170.64Z"/><path class="cls-44" d="M32.29,194.71c7.43-.19,14.87-.53,22.3-.53C47.16,194.31,39.73,194.66,32.29,194.71Z"/><path class="cls-43" d="M72.08,58.43c-5.76,2.36-11.84,3.18-18,3.48-7,.36-11.67-3.69-15.41-9.09C37.87,51.6,37.59,50,36.46,49c1.44,0,1.65,1.24,2.07,2.13,2,4.21,5.56,6.8,9.27,9.19,1.77,1.14,4.11,1,6.09.88,6.89-.39,13.73-1.18,20-4.43a17.47,17.47,0,0,0,8.82-11c2.8-9.46-.19-17.82-6.15-25.3-.49-.62-1.41-1-1.14-2,4.37,3.59,6.42,8.4,7.79,13.77,1,3.84,1.74,7.56.79,11.48C82.4,50.52,78.75,55.69,72.08,58.43Z"/><path class="cls-44" d="M32.29,194.71q-3.06.07-6.12.11,1.72-.09,3.45-.09C30.51,194.73,31.4,194.73,32.29,194.71Z"/><path class="cls-44" d="M11.59,194.5l50.75-1.19h0a2.92,2.92,0,0,1,.14.31,1.26,1.26,0,0,1-.2.2,3.91,3.91,0,0,1-.75.3h0c-2.31,0-4.61,0-6.92.05-7.43,0-14.87.34-22.3.53-.89,0-1.78,0-2.67,0q-1.73,0-3.45.09c-1.77,0-3.55,0-5.33,0-2.15,0-4.27.56-6.44.43A4,4,0,0,1,11.59,194.5Z"/><path class="cls-44" d="M26.17,194.82q3.06,0,6.12-.11c7.44-.05,14.87-.4,22.3-.53,1.43,0,2.84,0,4.27,0a10.21,10.21,0,0,0,2.65-.1h.22a2.13,2.13,0,0,1,.88-.22s0,0,0,0c-.54,1.19-1.63,1-2.6,1-10.89.22-21.79.41-32.68.64-5.07.1-10.14.25-15.21.38a2.57,2.57,0,0,1,2.07-.68C18.2,195.44,22.18,195,26.17,194.82Z"/><path class="cls-44" d="M14.4,195.25c2.17.13,4.29-.46,6.44-.43,1.78,0,3.56,0,5.33,0-4,.19-8,.62-12,.45a2.57,2.57,0,0,0-2.07.68l-.54-1.45A4,4,0,0,0,14.4,195.25Z"/><path class="cls-45" d="M129.86,282.11C57.53,276.75.5,215.84.5,141.5.5,63.63,63.07.5,140.25.5S280,63.63,280,141.5q0,7.06-.68,14c-6.94,71.32-66.56,127-139.07,127Q135,282.5,129.86,282.11Z"/></svg>