<svg xmlns="http://www.w3.org/2000/svg" viewBox="0 0 156.52 156.92"><defs><style>.cls-1{fill:#93d6df;}.cls-2{fill:#d6edf0;}.cls-3{fill:#d8e6b7;}.cls-4{fill:#130b0b;}.cls-5{fill:#0f0607;}.cls-6{fill:#080910;}.cls-7{fill:#0d0606;}.cls-8{fill:#050b08;}.cls-9{fill:#130a0a;}.cls-10{fill:#060b10;}.cls-11{fill:#09130f;}.cls-12{fill:#160c0c;}.cls-13{fill:#0a0e0e;}.cls-14{fill:#1b1010;}.cls-15{fill:#121b17;}.cls-16{fill:#221a19;}.cls-17{fill:#12201b;}.cls-18{fill:#231717;}.cls-19{fill:#121c27;}.cls-20{fill:#172520;}.cls-21{fill:#292220;}.cls-22{fill:#322221;}.cls-23{fill:#362426;}.cls-24{fill:#23221e;}.cls-25{fill:#633b2d;}.cls-26{fill:#492822;}.cls-27{fill:#162920;}.cls-28{fill:#583937;}.cls-29{fill:#392d2a;}.cls-30{fill:#5d3c33;}.cls-31{fill:#08090a;}.cls-32{fill:#4b2419;}.cls-33{fill:#2b0903;}.cls-34{fill:#ef4e37;}.cls-35{fill:#ace0f8;}.cls-36{fill:#ec4e37;}.cls-37{fill:#d8e6b6;}.cls-38{fill:#d55545;}.cls-39{fill:#cb5949;}.cls-40{fill:#b1d7e9;}.cls-41{fill:#67332a;}.cls-42{fill:#4f1108;}.cls-43{fill:#2c2429;}.cls-44{fill:#2a3e48;}.cls-45{fill:#abcbd3;}.cls-46{fill:#1e2e3a;}.cls-47{fill:#c35143;}.cls-48{fill:#a1b2b8;}.cls-49{fill:#a2b6dd;}.cls-50{fill:#ee4e37;}.cls-51{fill:#8590c5;}.cls-52{fill:#d25847;}.cls-53{fill:#c95543;}.cls-54{fill:#e24c39;}.cls-55{fill:#dd4f3a;}.cls-56{fill:#1a2234;}.cls-57{fill:#aa5041;}.cls-58{fill:#384768;}.cls-59{fill:#93d3e1;}.cls-60{fill:#e14c39;}.cls-61{fill:#070e18;}.cls-62{fill:#d35041;}.cls-63{fill:#afcfdd;}.cls-64{fill:#3c2725;}.cls-65{fill:#201e20;}.cls-66{fill:#390d06;}.cls-67{fill:#663734;}.cls-68{fill:#5f3a36;}.cls-69{fill:#dddbe3;}.cls-70{fill:#f7c6c1;}.cls-71{fill:#f5c1be;}.cls-72{fill:#1c0b0c;}.cls-73{fill:#1a2935;}.cls-74{fill:#15242c;}.cls-75{fill:#422524;}.cls-76{fill:#254253;}.cls-77{fill:#091c2d;}.cls-78{fill:#151e2c;}.cls-79{fill:#080a08;}.cls-80{fill:#252021;}.cls-81{fill:#070810;}.cls-82{fill:#232120;}.cls-83{fill:#1b1818;}.cls-84{fill:#0c0d16;}.cls-85{fill:#1e2938;}.cls-86{fill:#352a1a;}.cls-87{fill:#f5c6c3;}.cls-88{fill:#f5c5c2;}.cls-89{fill:#aedaec;}.cls-90{fill:#a3b5d4;}.cls-91{fill:#e1c14e;}.cls-92{fill:#8a939d;}.cls-93{fill:#b4b7c0;}.cls-94{fill:#3c3018;}.cls-95{fill:#21252f;}.cls-96{fill:#060811;}.cls-97{fill:#1a0e03;}</style></defs><g id="Layer_2" data-name="Layer 2"><g id="Layer_1-2" data-name="Layer 1"><path class="cls-1" d="M73,0H83.88c2.41.49,4.88.29,7.32.59A69.83,69.83,0,0,1,117.82,10a79.38,79.38,0,0,1,22.82,19.85,77.65,77.65,0,0,1,12.63,23.74,48.67,48.67,0,0,1,2.85,13.85c.06,1.21-.21,2.46.4,3.62V86.69c-.67,1.59-.31,3.29-.49,4.93-1,9.56-4.7,18.2-9.31,26.49A76,76,0,0,1,121.13,145,71.18,71.18,0,0,1,90,156.62c-2.19.25-4.39-.22-6.55.3H70.63a47.46,47.46,0,0,0-5.32-.54c-12-1.28-22.52-6.26-32.33-13a75,75,0,0,1-16.25-15.05A81.29,81.29,0,0,1,1.26,97,54.15,54.15,0,0,1,.2,87c0-.39.11-.81-.2-1.15V70.63c.53-1.87.29-3.82.57-5.72a73.61,73.61,0,0,1,11-29,78.34,78.34,0,0,1,32.93-29A70.41,70.41,0,0,1,64.9.49C67.57.09,70.34.39,73,0Z"/><path class="cls-2" d="M155.76,67.41l.76,1.22V71C155.43,70,155.76,68.67,155.76,67.41Z"/><path class="cls-3" d="M75.89,63.28l-.07-1.42c-1-2.47-.87-5.12-1-7.67s-.47-5.29-.56-7.95a58,58,0,0,1,3.68-21.72c1.33-2.93,2.4-6,4.18-8.73a9.25,9.25,0,0,1,1.36-1.69A6.25,6.25,0,0,1,86.5,12c2.93-.82,4.93,1.06,4.25,4A31.18,31.18,0,0,1,89,20.68c-2.67,5.74-5.75,11.3-7.37,17.48-.58,1.83-1,3.69-1.51,5.55a88.33,88.33,0,0,0-1.85,17.46,3.51,3.51,0,0,0,.34,2.14,4.67,4.67,0,0,1,.26,2.06,11.38,11.38,0,0,0,.27,1.75c.2,1.16.18,2.37-1.2,2.75-1.55.43-1.3-1.08-1.73-1.84a25.42,25.42,0,0,1-.53-2.87C75.67,64.52,75.89,63.92,75.89,63.28Z"/><path class="cls-4" d="M75.89,63.28A2.56,2.56,0,0,1,76.21,65c-.13.14-.27.27-.4.4-1.46,1-3.12,1.77-4.39,3.12-.84.9-1.48,1.54,0,2.38a1,1,0,0,1,.33.71c-.08.94-.75,1.06-1.44.88-1.14-.3-2.4-.25-3.38-1.08a1.64,1.64,0,0,0-1-.53,9.26,9.26,0,0,1-5.73-1.67,4.43,4.43,0,0,1,1.76.82,4,4,0,0,0,2.91.91c2.15,0,3.93,1.33,5.8,2.25.35.17.38.67.18,1.08-.92.89-1.91,0-2.85.12a2.53,2.53,0,0,1-.56-.11c-1.09-.57-1.44.12-1.67,1a1.83,1.83,0,0,1-.52.65c-1.88,1.23-3,3.18-4.56,4.72-1.19,1.17.5,1.67.54,2.55a.94.94,0,0,1-.79.72c-1.55-.47-1.56.72-1.8,1.67a.84.84,0,0,1-.69.42c-.8-.28-.91-1.1-1.33-1.68L56,83.74c-1.76-.77-3.65,0-5.43-.53,2.52,1,3.14,3.11,1.65,5.59-.7.7-1.46.4-2.21.12a6.06,6.06,0,0,0-.73-.09l-9.44.32c-.52.13-1.08.39-1.42-.3.94-1.19,2.32-1.19,3.6-1.12,2.53.14,5-.45,7.52-.47.27,0,.95.14.64-.58-.07-.15-.35-.15-.55-.17-3.81-.06-7.61,0-11.41,0-2.38,0-3.41-.59-4-2.77A30.46,30.46,0,0,1,33.13,77a2.22,2.22,0,0,1,2.09-2.63c3.22-.52,6.16-1.6,8.39-4.18s3.53-5.45,3-9a5.68,5.68,0,0,0-3.9-4.85c-1-.14-1.82-.19-1.54,1.23.06.32.17.74,0,1A4.9,4.9,0,0,0,40,63.38c-1.82,1.29-1.9,3.84-3.71,5.14a1,1,0,0,1-.2,0c-.41,0-.83-.09-.77-.68.88-.44.78-1.3.9-2.08.17-1.07,0-2.37,1.7-2.45.9,0,.32-.68.18-1-.55-1.4-.59-2.64.94-3.42.8-.41.67-1,.54-1.7-.38-2,.36-2.79,2.48-2.65,3.38.23,6.68,4.14,6.82,8.06.16,4.27-2.38,7.07-5.28,9.64a12.82,12.82,0,0,1-7,3.22c-1.58.19-2,1-1.83,2.38s.24,2.66.49,4c.58,3,1,3.46,4.08,3.53,2.54.06,5.08,0,7.62,0,1.08,0,1.51-.28,1.62-1.42a2.29,2.29,0,0,1,2.45-2.16,7.3,7.3,0,0,1,1.79-.11c3.66.87,6-.82,8-3.68,1.36-2,3.07-3.66,5-5.86-2.13.56-3.59.28-4.64-1.2-.31-.44-.78-.41-1.26-.47-2.48-.31-3.06-1-3.26-4,1,1.39,2.08,1.91,3.55,1.41a1.73,1.73,0,0,1,1.61.65,1.78,1.78,0,0,0,2.31.48,2,2,0,0,1,2.09.22c.5.36.86,1.5,1.72.53s1.92-1.57,1.39-3.06c-.79-2.2-1.53-4.41-2.28-6.62a15.93,15.93,0,0,1-.38-1.55c.21-.28,0-.84.56-.89,1,.38,1.07,1.29,1.31,2.1a41.23,41.23,0,0,0,2,5.59c-.34-3.35-1.06-6.63-1.56-9.94-.18-1.24-.57-2.48.07-3.71a1.05,1.05,0,0,1,.77-.45c.69,4,1.35,8.08,2.09,12.11.44,2.34.75,2.4,2.84,1.23C75.42,64.28,75.43,63.63,75.89,63.28Z"/><path class="cls-5" d="M131.16,99.16a5.31,5.31,0,0,1,0,3.54,2.92,2.92,0,0,1-.5,1.07c-.24.28-.87.68-.93.62-1.91-2-3.6,1.78-5.44.22-.42-.36-.76-.83-1.31-.22a1.93,1.93,0,0,1-2.67.41c-.76-.4-1,.47-1.27.93-.57.83.3.62.61.77a2.75,2.75,0,0,1,1.35,2.72c0,1.2.39,1.38,1.43.8,2.75-1.54,2.8-1.54,4.53,1.11.64,1,1.06.63,1.38-.09a5.31,5.31,0,0,0,.42-1.94c.08-1.49.51-2.65,2.24-2.74.7,0,.82-.56,1.07-1,1.33-2.53,4-3.07,6.11-1.06,3.25,3.17,3.87,7.24,3.26,11.48a16.56,16.56,0,0,1-14.92,13.79c-7.14.67-13.66-1-18.6-6.75-1.07-.35-1.4-1.35-1.92-2.18-.91-1.48-1-3.22-1.52-4.82a18,18,0,0,1,.12-9,5.59,5.59,0,0,1,1.61-2.88c.6-.14.81.26,1,.7.29,1-.16,2-.26,3-.52,5.06-.52,10,2.93,14.27,2.83,4.09,7.15,5.32,11.72,5.92,5,.66,9.46-.93,13.41-4a11.73,11.73,0,0,0,4.43-6.2c1.11-3.15.46-6.19-.53-9.21a5.4,5.4,0,0,0-1.59-2.5c-1.85-1.55-2.94-1.33-4,.85-.21.42-.34,1-.75,1.14-1.94.47-2.1,2.13-2.7,3.59-.84,2-2.55,2.38-4.08.8a2.33,2.33,0,0,0-3.14-.59c-1.7.8-2.81.21-3.26-1.69-.3-1.24-.78-1.82-2.12-1.8s-1.21-.76-.7-1.72a8,8,0,0,1,6-4c.12-.05.28-.15.37-.1,1.89,1.09,3.87-.28,5.77.23a.76.76,0,0,0,1-.66c.13-.71.45-1.37.53-2.1C130.48,99.42,130.66,99.07,131.16,99.16Z"/><path class="cls-6" d="M106.71,120.41c.42.79.83,1.59,1.24,2.38l-7.46,4.46A30,30,0,0,1,95.17,130c-1,.35-1.46.79-1,1.88a9.15,9.15,0,0,1,.44,1.75c.69,3.2.7,3.26-2.53,4.1-1,.24-1.07.87-1.22,1.55a22.3,22.3,0,0,1-2,5.85c-1.1,2-2.55,2.08-3.77.13A21.14,21.14,0,0,1,82.49,139a2.7,2.7,0,0,0-2.37-2.3c-1-.18-2.33-.43-2.26-2,0-.52-.33-.57-.82-.48-3.07.58-6.09.06-9.12-.5-.75-.13-1.59-.62-1.94.83-.25,1.06-1.57.7-2.46.77-.68,0-1.52-.35-1.77.73a.93.93,0,0,1-.81-.07,17.09,17.09,0,0,0-3.06-.83c-1.31-.33-1.74.12-1.37,1.41a2.35,2.35,0,0,1,0,1.57c-.15.26-.35.46-.7.34a20.85,20.85,0,0,1-.95-2.18c-.48-1.61-.86-3.13-2.93-3.54-1.37-.27-1.07-1.46-.72-2.45s1-2.23.15-3.41c-.14-.38.08-.54.38-.65,1.72.3,1.66,1.65,1.34,2.76-.55,1.94.33,2.64,2,3.05a46.38,46.38,0,0,0,8.52,1.63c-.4-1.21-2.14-1.23-1.92-2.63a1.08,1.08,0,0,1,.72-.6,2.43,2.43,0,0,1,1.39,0c5.9,2.08,11.91,1.93,18,1a2.36,2.36,0,0,1,1,.06,1.79,1.79,0,0,1,.8.43c.48.68,2.11.06,1.88,1.29-.18,1-1.44,1-2.36,1.14a4.67,4.67,0,0,0-2.42.62,9.63,9.63,0,0,0,3.47.89,42.33,42.33,0,0,0,7.38.22c1.33,0,1.77-.72,1.62-1.93s-.56-2.47-.74-3.72,0-1.86,1.57-2.34C98.74,126.56,103.35,124.48,106.71,120.41Z"/><path class="cls-7" d="M35.23,89.14c-2.44-.19-3.58-1.92-4.3-3.92-.88-2.44-1.54-5-2.26-7.46-.2-.67-.35-1.09-1.26-1.19-9.26-.93-15.12-5.94-17.14-15C8.93,55.5,9,49.45,12.65,44c5.34-7.94,17.73-9.93,24.34-4a11,11,0,0,1,3.23,5.2c.73,2.54-.08,3.49-2.73,3.32-.59,0-1.19,0-1.78-.05-.39.11-.52-.12-.6-.43.06-.79.62-1.08,1.26-1.31,2.44-.85,2.43-.86,1.53-3.34-1.94-3.57-5.32-4.82-9-5.08A16,16,0,0,0,12,51a21.2,21.2,0,0,0,4.15,18.63c2.91,3.67,7,5.23,11.54,5.59a2.54,2.54,0,0,1,2.7,2.32c.5,2.34,1.32,4.61,2,6.9A4.63,4.63,0,0,0,35.6,88a1.22,1.22,0,0,1,1,.87C36.29,89.53,35.75,89.3,35.23,89.14Z"/><path class="cls-8" d="M69.89,51.28l-.4.49c-1.34-1.23-1.16-2.91-1.23-4.47A57.37,57.37,0,0,1,69.59,33c.85-4.18,1.56-8.38,2.18-12.61a7.77,7.77,0,0,0,0-2.59,1.69,1.69,0,0,0-1.15-1.5,1.56,1.56,0,0,0-1.71.75c-2.47,3.05-3.54,6.64-4.27,10.43C63.13,35,64,42.34,65.89,49.64c.47,1.81,1,3.62,1.37,5.44.2.88.57,1.82-.21,2.65l-.36.85c-4-11-5.85-22.25-3.3-33.9.86-3.92,1.81-7.83,5.6-10.16.63-.39.37-.88.24-1.4a10.57,10.57,0,0,1-.38-3.75c.08-.62.11-1.52.94-1.57S71,8.43,71,9.27c-.5.23-1.22.21-1.12,1,.12-.37.16-.89.83-.65-.19.46.17.73.37,1.06.37.46,1.09.26,1.43.77.36.72,1.1,1.14,1.46,1.86-1.2.63-1.69,1.11-.73,2.68,1.25,2.06.42,4.57,0,6.84-.79,4.65-1.79,9.26-2.64,13.9A71.35,71.35,0,0,0,69.89,51.28Z"/><path class="cls-9" d="M106.82,104.89l-.42-.94c-.57-1.33.55-2.46.43-3.74a1.69,1.69,0,0,1,.7-.88,94.86,94.86,0,0,0,5.66-10.27c.62-1.19.08-1.68-1.08-1.89-1.56-.28-3.2-.07-4.71-.7a4.44,4.44,0,0,0-2.13-.38c-1.17.28-2.21,1.74-3.56.39C100,84,100.39,82,102.87,81.2,100.23,81.13,97.63,81,95,81A3.14,3.14,0,0,1,93,80.41a2.05,2.05,0,0,1-.59-1.1,6,6,0,0,0-2.6-4.74c-1.26-.86-1.89-2.24-3-3.2-1.71-1.48-2.93-3.58-5.48-4-1.14-.17-.94-2-2.25-2.12a.7.7,0,0,1-.72.11l-.11-1.78c0-1.41-.69-2.88.37-4.19,0,.73.09,1.46.08,2.2s0,1.35,1.09,1.42c.91.05,1.1,1.05,1.45,1.75.49,1,1,1.92,2.43,1.44.38-.13.92-.15,1.12.21a14.47,14.47,0,0,0,4,4.43c.82.64,1.47,1.76,2.52,2.48,1.36.92,1.86,2.59,2.55,4a2.67,2.67,0,0,0,2.78,1.76c1.6,0,3.2.21,4.8.23a5.61,5.61,0,0,1,3.94,1.51c1.54,1.36,3.79,1,5.72,1.37a40.46,40.46,0,0,1,4.51.91.43.43,0,0,1-.1.56c-1,.69-2,.41-3.1.26-2.68-.37-5.34-1-8.09-1.08,0,1,.65,1,1.11,1,2.5.44,5,.81,7.52,1.18,3.74.57,4.4,1.92,2.54,5.31a79.43,79.43,0,0,0-5.86,10.46C108.64,102.18,108.62,104.16,106.82,104.89Z"/><path class="cls-10" d="M49.3,88.83l.63-.45c.62.16.8,1.66,1.82.59a1,1,0,0,1,.55-.08.8.8,0,0,1,.53.62,2.92,2.92,0,0,1-1.74,2.56c-.5.15-.92-.14-1.37-.28-1.91.2-1.91.2-2,3.2a29.14,29.14,0,0,0-3.43,5.46c-2.84,4.19-4.6,8.57-2.41,13.64a7.47,7.47,0,0,0,1.48,3c.54.8,1.22,1.59,1,2.68-.16.29-.35.5-.72.33-5.78-6.14-6.55-12-2.4-18.4,1-1.62,2.13-3.23,3.27-4.79.95-1.3,1.87-2.51,1.61-4.31a1.84,1.84,0,0,1,2-2.2C49.29,90.33,49.47,89.76,49.3,88.83Z"/><path class="cls-11" d="M78.31,24.17a75.13,75.13,0,0,0-3.38,14.75c-.59,5.55-.08,11,.31,16.57.15,2.12.38,4.24.58,6.37a.6.6,0,0,1-.67-.58c-1.1-10-2.41-20,.19-30a47.67,47.67,0,0,1,2.58-7.55C78.28,23.67,78.53,23.73,78.31,24.17Z"/><path class="cls-12" d="M115.55,83.61l0-.46c5.71.08,6.25,1,3.57,6-.63,1.17-1.21,2.35-2,3.93,3.57-1,6.77-1.23,9.71.78.11.4-.11.61-.42.77-3.85-1.11-7.49-.13-11.08,1.21a1,1,0,0,1-.75-.51c-.25-1.35,1.14-2,1.3-3.24.76-1.54,1.63-3,2.27-4.64.76-1.9.62-2.14-1.3-2.83C116.32,84.43,115.66,84.37,115.55,83.61Z"/><path class="cls-13" d="M88.62,20.71c.49-1.43,1-2.85,1.47-4.29.38-1.23.6-2.54-.56-3.48s-2.36-.5-3.57-.11a9.41,9.41,0,0,0-2.44,1.64c-.43.08-.6-.07-.49-.5a3.43,3.43,0,0,1,1.88-2c2.38-.66,3-2.31,3-4.47a3.59,3.59,0,0,1,.43-1.1c.34-.07.52.12.67.37.37.71-.07,1.41,0,2.11a.5.5,0,0,0,.72.35c.49-.15,1-.4,1.47-.08.69,1.18-.43,1.74-.87,2.54,2.26,3.53.34,6.51-1.25,9.54C88.65,21.3,88.41,21.19,88.62,20.71Z"/><path class="cls-14" d="M32.09,52.92c-.84.76-.09,1.3.27,1.87,1,1.54,1.43,3-.37,4.31-.35.26-1,.8-.24,1.25,2.34,1.38,1.55,3,.45,4.66a5.06,5.06,0,0,0-.44,1.1c.19.34,0,.54-.29.68-1.39-.22-1-1.24-.72-2,.67-1.46.63-2.59-.75-3.65a1.39,1.39,0,0,1,0-2.47,2.79,2.79,0,0,0,.85-3.55c-.35-.89-.84-1.87.06-2.78C31.47,52.25,32,52.1,32.09,52.92Z"/><path class="cls-15" d="M78.58,59.42c-.67,1.34-.09,2.81-.37,4.19-.81-5-.12-10,.62-15,.26-1.76.72-3.5,1.09-5.25.4,0,.6.12.42.55Q79.46,51.66,78.58,59.42Z"/><path class="cls-16" d="M88.73,6.87l-.37-.43c.68-1.14,1.4-2.18,2.3-.19.39.87.73.16,1,0,.69-.3,1.43-.68,2,.08s-.1,1.33-.68,1.8l-1.19,1c.21.23.27.37.35.37.86.08,2.2-.37,2.25.91s-1.27,1.22-2.27,1.2c-.6,0-1.19.06-1.79.09-.73-1.14,1.19-1.47.77-2.52C91,9.1,91,9,91,8.86c.72-1.13-.42-.52-.68-.72C89.72,7.81,89.41,7.11,88.73,6.87Z"/><path class="cls-17" d="M88.62,20.71l.46.56C86.57,27,83.59,32.5,81.77,38.51c-.45,0-.5-.23-.38-.58C82.82,31.78,85.83,26.29,88.62,20.71Z"/><path class="cls-18" d="M61.35,135.58l.4.45c-.47,1.65-.6,3.4-1.4,4.95-1,1.92-2.23,2-3.32.15a6.78,6.78,0,0,1-1.24-2.68l.42-.44c.86-.11,1.12.61,1.46,1.13.69,1.06,1.2.85,1.65-.16.3-.67.48-1.38.77-2S60.47,135.61,61.35,135.58Z"/><path class="cls-19" d="M43.65,120.05l.55-.55a1.16,1.16,0,0,1,1.12.27c2.07,1.84,4,3.85,6.22,5.53a1,1,0,0,1,.31,1.08l-.51.49C48.47,124.94,45.62,123,43.65,120.05Z"/><path class="cls-20" d="M83,14l.49.5c-2.28,3-3.44,6.49-5.21,9.7l-.39-.47C79.23,20.25,80.39,16.72,83,14Z"/><path class="cls-21" d="M73.94,13.33c-1.17,0-1.82-.55-1.71-1.8-.46-.71,0-1,.55-1.32a1.76,1.76,0,0,1,1.08.19h.39c.71,0,1.7-.54,2,.52.26.87-.57,1.36-1.17,1.84a5.26,5.26,0,0,1-.84.46.73.73,0,0,1-.22-.7c-.26.27.13.55,0,.82Z"/><path class="cls-22" d="M32.09,52.92a1.65,1.65,0,0,0-1.19-.37c0-.82.65-1,1.18-1a2.09,2.09,0,0,0,2.19-2.21c0-.53.2-1.2,1-1.16l.41.38c.09.45.21.9.28,1.35C36.4,52.27,35.39,53.05,32.09,52.92Z"/><path class="cls-23" d="M126.38,94.35l.47-.49a8.06,8.06,0,0,1,4.31,5.3l-.39.84a.77.77,0,0,1-.78-.49c-.75-1.64-1.56-3.22-3.26-4.12A.82.82,0,0,1,126.38,94.35Z"/><path class="cls-24" d="M73.86,10.4c-.29.38-.58.36-.86,0-.21-.68-1-.33-1.37-.81a6.68,6.68,0,0,1,.41-.9c.44-.71,1-1.38,1.93-.93s.38,1.26.19,1.93A7.49,7.49,0,0,1,73.86,10.4Z"/><path class="cls-25" d="M71.63,9.57l1.86-1c.36.82-.3,1.26-.49,1.84a1.63,1.63,0,0,0-.77,1.15c-.63.06-1.08-.13-1.18-.83C71.68,10.55,71.18,9.81,71.63,9.57Z"/><path class="cls-26" d="M31.31,66.62l.45-.51a3.39,3.39,0,0,0,3.59,1.77l.75.33c-.41,1.51-1.59,1.17-2.54.93C32.32,68.82,31.15,68.26,31.31,66.62Z"/><path class="cls-27" d="M81.39,37.93l.38.58q-.72,2.68-1.43,5.39l-.42-.55A33.92,33.92,0,0,1,81.39,37.93Z"/><path class="cls-28" d="M70.68,9.64c-.85.93-.12,2.19-.72,3.32a3.94,3.94,0,0,1-.48-3.37c.16-.91,1-.26,1.49-.32C71,9.52,70.89,9.61,70.68,9.64Z"/><path class="cls-29" d="M35.23,89.14l1.27-.37a1.22,1.22,0,0,1,2,0l1.33.41A7.2,7.2,0,0,1,35.23,89.14Z"/><path class="cls-30" d="M74,13.35c-1.47-1.77.53-1.57,1.07-2.21.14.91-1,1.2-.83,2.09l-.09.12Z"/><path class="cls-31" d="M76.42,33.31a7,7,0,0,1,.87-3.15c.52-.69,1.14-1.38,2.13-1.13A2.13,2.13,0,0,1,81,31.27a7.52,7.52,0,0,1-1.5,4.23,1.37,1.37,0,0,1-1.75.53A2.66,2.66,0,0,1,76.42,33.31Z"/><path class="cls-32" d="M78.32,65.39l.37-.42c1.59.88,1.57,2.37,1.22,3.78a3.42,3.42,0,0,1-3,2.64c-1.47.2-1.86-.92-1.12-3.09a1.18,1.18,0,0,1,.89-.57l.58,1.85c1.25-.29,1.6-1,1.23-2.22A9.82,9.82,0,0,1,78.32,65.39Z"/><path class="cls-33" d="M76.72,67.73l-.39.46a2,2,0,0,1-.59-3.06l.47-.12Z"/><path class="cls-34" d="M31.31,66.62c1.38,2.07,2.53,2.45,4.79,1.59a1.8,1.8,0,0,0,1-1.79c0-1.34.31-2.33,1.91-2.46.76-.07.64-.5.36-1.13-.62-1.38-1.08-2.84.87-3.66.7-.3.43-.76.25-1.31-.69-2.12-.18-2.63,2-2.19,1,1,2.57,1.33,3.39,2.69a8.5,8.5,0,0,1,.51,7.84c-.54,1.44-1.24,1.55-2.31.62a1.27,1.27,0,0,0-1.76.33c-1.44,1.54-2.77,3.18-4.23,4.7-.47.49-.33,1.1-.4,1.67-.3,1.31-1.46.94-2.28,1.09-2,.35-2.22.64-2.05,2.56.2,2.1.69,4.16,1,6.26.26,1.87,1.33,2.71,3.26,2.84.92.06,1.86,0,2.79,0,1.73,0,3.47,0,5.21,0,.65,0,1.52-.11,1.65.74.16,1-.87.88-1.42.9a72.65,72.65,0,0,1-9.78.3,4.42,4.42,0,0,1-3.88-3.33A49.84,49.84,0,0,1,30,76.66c-.15-1.17-1.15-1.44-2.12-1.39-8.39.48-14.65-7.23-16.19-13.73-.42-1.76.08-2.25,1.82-1.73a1.9,1.9,0,0,0,2.54-.93c.84-1.66,2-3.18,2.43-5,.94-2.52,2.86-4.25,4.81-6a11.37,11.37,0,0,0,2.29-2.46c1.13-1.81.91-3.2-.74-4.69-.66-.59-2.17-.25-2.11-1.48s1.42-.89,2.24-1.05a12.47,12.47,0,0,1,12.14,3.71,8.06,8.06,0,0,1,1.4,1.4,3.2,3.2,0,0,1,.78,2c.13,1.43-.33,2.29-2,2.21-.72,0-1.64-.4-2.06.64,0,2.94-1.44,4.42-4.4,4.39a4,4,0,0,0,.71,2.65c1.12,1.85.14,3.29-1.2,4-1.08.6-.92,1-.26,1.32,2.32,1.12,2.61,2.56,1.1,4.56A1.22,1.22,0,0,0,31.31,66.62Z"/><path class="cls-35" d="M50.92,91.88l1.71-2.32C53.57,87.27,54.5,85,57,83.93c.68.47.36,1.37.82,1.93a1.57,1.57,0,0,0,1.76-.38c.51-.4,1-.87,1.7-.3,1,1.19.37,2.78,1,4.06.55.49.95.13,1.4-.19,1-.69,1.93-1.38,2.87-2.12a2.27,2.27,0,0,1,2.75-.3c1.94,1.4,4.15,2.31,6.2,3.52a2,2,0,0,0,1.7.27c1.53-1.63,2-3.88,3.25-5.66.82-.79,2-.71,2.93-1.34A17.6,17.6,0,0,0,89.29,81c1.29-.31,2.28-1.64,3.81-1.12,1,.82,2.14.19,3.21.28,2.31.22,4.64.26,7.06.38-2.47,2.69-2.53,3-1.05,5.79.06,1-.68,1.2-1.46,1.3a5.66,5.66,0,0,1-2.8-.58,34.92,34.92,0,0,1,3.56,5.5c.9,1.65.61,2.32-1.15,3.13a45,45,0,0,1-9.12,3,86.94,86.94,0,0,1-9.19,1.86,6.75,6.75,0,0,0-2.48.35c-.8.07-1.6,0-2.4.05H70.47c-1.37.17-2.68-.35-4-.41C61.33,99.2,56.3,97.65,51.8,94.78A2.92,2.92,0,0,1,50.33,93,1.22,1.22,0,0,1,50.92,91.88Z"/><path class="cls-36" d="M75.74,65.13l.59,3.06c0,.07,0,.15,0,.2.43.86-1.13,1.75,0,2.53.58.41,1.14-.15,1.59-.5,1-.74,1.87-1.57,1.54-3-.2-.83-.49-1.64-.74-2.46.08-.43-.07-1,.58-1.11s.81.38.92.84c.45,1.85,1.4,3,3.51,2.69a1.19,1.19,0,0,1,1.27.79c.61,1.27,2,2,2.62,3,1.49,2.44,4.52,3.53,5.33,6.45.16.59.55,1.11-.17,1.57-.85,1.13-2.2,1.51-3.37,2.15a38.62,38.62,0,0,1-7.32,2.94,39.2,39.2,0,0,1-13.34,1.86c-1.43-.07-2.1,1-3.07,1.63-.71.45-1.33,1.08-2,1.58-1.15.79-1.71.47-1.8-.88A13.44,13.44,0,0,0,61,83.15c-2.38-1.21-2.38-1.21-.6-3.24l3-3.45c.43-.51.82-1.07,1.61-1,1.42-.28,2.57.54,3.74,1.07a43.49,43.49,0,0,0,4.54,1.57c3.64,1.17,6.54-.41,9.27-2.48-2.44,1.8-4.94,3.4-8.28,2.65A27,27,0,0,1,67,75.67c-.43-.47-1.2-.83-.87-1.63s.85-.49,1.37-.23h0a9,9,0,0,0,2.23.6c1,.27,1.48-.21,1.32-1.26-.14-.59,1.16-.86.36-1.6-.57-.89-1.42-1.13-2.71-1C70.73,68.07,72.72,66,75.74,65.13Z"/><path class="cls-37" d="M67.05,57.73c-1-4.27-2.22-8.51-3-12.82-1.49-8-1.4-15.94,1.43-23.68a19.12,19.12,0,0,1,2.81-4.82,2.37,2.37,0,0,1,2.55-1.12c1.3.28,1.65,1.27,1.76,2.37.27,3-.48,5.84-1,8.73-1.11,6.56-2.87,13-2.52,19.79.1,1.87.27,3.73.4,5.59A69.71,69.71,0,0,0,71.57,64.7a2.16,2.16,0,0,1-1.25,2.71C69.22,64.16,68.14,60.94,67.05,57.73Z"/><path class="cls-38" d="M38.54,43.34c-1.91-.7-2.95-2.52-4.72-3.53-3.26-1.85-6.52-1.87-10-1.21-.34.07-.7.23-.7.59,0,.55.5.49.88.53.58.05,1.23-.11,1.61.53a1.92,1.92,0,0,1-1.64.57,8,8,0,0,0-5.95,2.87c-3.12,3.29-5.31,7-5.28,11.73a6.42,6.42,0,0,0,.09,1.39c.2.92.39,2,1.4,2.25s1.33-.88,1.8-1.55.92-1.63,1.39-2.43.75-1.46,1.75-1.42c-.46,2.35-1.88,4.25-3,6.25a1.8,1.8,0,0,1-2.61.64c-.45-.22-.84-.9-1.4-.47s-.14,1.13,0,1.68c.74,3.86,3.21,6.66,5.85,9.35a14.85,14.85,0,0,0,6.54,3.54,5.07,5.07,0,0,0,2.74.13c1.9-.44,2.7.51,3.13,2.47a57.94,57.94,0,0,0,2.43,8.16,3.78,3.78,0,0,0,3.08,2.36c3.52.15,7.08.49,10.58-.28a5.48,5.48,0,0,0,.87-.48c-2.5-.6-4.68-.19-6.82-.32,0-.92.74-.58,1.16-.59,1.91,0,3.82,0,5.72,0,.7-.23,1.32.73,2.05.16a1.42,1.42,0,0,1,.3-.3c.7,0,1.75-.64,1.92.66s-1,1.19-1.78,1.25c-3.79.31-7.58.59-11.37.88l-2,0a5.33,5.33,0,0,1-4.79-4.42c-.62-2.45-1.4-4.87-2.06-7.31-.21-.83-.56-1.29-1.48-1.27-9.76.17-17-8.69-17.36-18.64-.25-7,1.86-12.88,7.84-17s14.77-3.16,19,1.67A2.86,2.86,0,0,1,38.54,43.34Z"/><path class="cls-39" d="M49.76,86v.33a1.11,1.11,0,0,1-1.58,0c-2.54.18-5.13-.48-7.65.38a20.6,20.6,0,0,1-4-.27,3,3,0,0,1-2.42-2.78c-.36-2.16-.63-4.34-1-6.51-.33-1.9.25-2.69,2.2-2.89.78-.07,1.87.4,2-1,0-.63.53-.73,1-.82a7,7,0,0,0,5.49-5.37,2.62,2.62,0,0,1,.69-1.18l1,1.23a7.4,7.4,0,0,0,.3-8.57c-.79-1.4-2.69-1.3-3.16-2.86,5.25,1.71,5.88,7.11,4,11.22C44.46,71.37,41,74.23,36,74.83c-2.06.24-2.64,1-2.21,3,.37,1.69.55,3.43.86,5.13C35,84.88,36,86,38.14,86,42,86,45.89,86,49.76,86Z"/><path class="cls-40" d="M52.08,89a1.53,1.53,0,0,1-.3,0c-.13-.08-.17-.14-.12-.2a.19.19,0,0,1,.15-.08,3.15,3.15,0,0,0,.12-3.87c-.48-.69-.83-2.31-1.52-.11,0,.16-.45.32-.66.3-.47-.06-.34-.48-.32-.79a1.53,1.53,0,0,1,1.51-1.56c1.8-.1,3.59-.12,5.39-.09.65,0,.45.48.27.86C55.28,85.49,54.11,87.61,52.08,89Z"/><path class="cls-41" d="M71.35,71.54c.87.45.32,1,.1,1.54-.56.16.28,1.37-.83,1.11a1.12,1.12,0,0,0-1.08-1,3.79,3.79,0,0,1-2.78-1.36c-.18-.17-.53-.39-.69-.33-3.08,1.29-4.69-2.38-7.47-2.1a2.26,2.26,0,0,1,3,.06,3,3,0,0,0,3,.58,1.29,1.29,0,0,1,1.46.33c1.36,1.47,3.38,1,5,1.65A4.89,4.89,0,0,0,71.35,71.54Z"/><path class="cls-42" d="M67.39,75.56c1.74.84,3.6,1.35,5.39,2,3.09,1.17,5.73.19,8.32-1.36.38-.23,1-.43.83-1s.08-.69.54-.6a1.11,1.11,0,0,1,1,.87c.08.36-.12.52-.45.73-4.27,2.82-8.69,3.41-13.39,1.07-1.48-.74-3.08-1.24-4.62-1.84l.42-.41C66.23,74.56,66.8,75.1,67.39,75.56Z"/><path class="cls-43" d="M61,83.15C62.45,83.63,62,85,62.17,86a15.4,15.4,0,0,1-.05,2.35c-.33.51.21,1.22-.37,1.67-.69-1.56-.28-3.29-.77-4.88a1.56,1.56,0,0,1-.8-.63,1,1,0,0,1,0-1Z"/><path class="cls-44" d="M52.08,89,56.6,83.5l.44.43-4.41,5.63C52.45,89.38,52.26,89.2,52.08,89Z"/><path class="cls-45" d="M60.17,83.49l.44.79c-.65.68-.76,2.47-2.37,1.13l-.19-2.86C59,82.47,59.39,83.47,60.17,83.49Z"/><path class="cls-46" d="M58.24,85.41c1.37.84,1.5-.91,2.37-1.13.12.27.25.55.37.83-.48.4-.95.82-1.46,1.2-.73.55-1.39.74-1.66-.45Z"/><path class="cls-47" d="M67.39,75.56l-2-.48c-.9-1,.35-1.13.68-1.55.51-.66,1-.22,1.37.28C65,74.3,67.86,75,67.39,75.56Z"/><path class="cls-48" d="M51.81,88.76a.28.28,0,0,1,0,.28.88.88,0,0,1-.9,1c-1-.09-.53-1.18-1-1.71C50.68,87.89,51,89.51,51.81,88.76Z"/><path class="cls-47" d="M70.62,74.19l.83-1.11c-.36,2-1.47,2.16-4,.72Z"/><path class="cls-49" d="M41.38,114.39c-2.32-4.12-1-8,.78-11.85.45-1,.71-2.19,2-2.6.86.19,1.24.92,1.77,1.62,1.32-2,2.63-4,1.52-6.56-1.27-3-.57-4.06,2.58-3.86.94.54-.23,1.39.29,2a19.41,19.41,0,0,0,7.53,4.41,53.37,53.37,0,0,0,8.58,2.6c1.17,0,2.26.55,3.44.45a13.11,13.11,0,0,0,3,.15,46.78,46.78,0,0,0,8.69-.4,4.5,4.5,0,0,0,1.93-.22,70.51,70.51,0,0,0,16.29-4.35c1.13-.48,2.84-.62,2.56-2.73-.11-.82.88-.84,1.55-.63A1.8,1.8,0,0,1,105.16,94c-.1,2.13.87,3.81,1.88,5.52.13.22,0,.53.11.78.9,1.45-.4,2.43-.75,3.62-1.79,3.85-1.86,7.87-1.2,12,.55,1.63-.33,2.5-1.65,3.15a79.69,79.69,0,0,1-25.76,8.17,45.72,45.72,0,0,1-14.3-.39,5,5,0,0,1-2.73-1.13,32.6,32.6,0,0,1-1.54-11.93,4.05,4.05,0,0,1,1.89-2.94c2.38-2,4.83-1.13,7.32-1a7.88,7.88,0,0,0,2.68.35c3.6,0,7.16.58,10.77.42s4.15-.9,3.11-4.41a1.46,1.46,0,0,0-1.68-1.26c-2.67.07-5.35-.06-8,0-3.23.13-6.34-.7-9.53-.87-1.22-.07-1.55-1.13-2.12-1.91-1.83-1.52-4.14-1.79-6.3-2.45-1.85-.73-3.73.24-5.68-.09-1.18-.2-1.65,2.15-2.19,3.49-.37.93.45,1.25,1.07,1.65,1.55,1,3.63,4.44,3.62,5.95A28.84,28.84,0,0,0,55,122.43c-.44,1.66-1.6,1.15-2.52.69C48.22,121,44.18,118.45,41.38,114.39Z"/><path class="cls-50" d="M106.82,104.89c.88-1.32,1.11-3,2.24-4.18.43-.24.53-1,1.22-.8s.62.8.65,1.33,0,1.06,0,1.58c0,.27,0-.07.09.18,0,.09.23,0,.29-.16a9,9,0,0,1,.5-2.35c.26-.49.52-1,1.12-1s.75.63.86,1.16c.14.69.1,1.59,1.26,1.29,1.68-1.27,3-3,4.92-4,.44-.23,1-.53.87-1.17s-.7-.52-1.13-.66a2.19,2.19,0,0,1-1.19-.65c-.41-.88,0-1.2.82-1.4a10.32,10.32,0,0,1,9,2,5.65,5.65,0,0,1,1.72,5.8c-.15.39-.48,1-.65.91-1.78-1.09-3.59,1.44-5.35-.09a.78.78,0,0,0-1.22.12c-.58.66-.91,1.71-2.19.86-.8-.53-1.33.23-1.75.85-.7,1-1.22,2.22-2.46,2.84.52.62.93.16,1.3,0,1.35-.38,2,.12,2.19,1.49.44,3,.67,3.13,3.23,1.65a1.67,1.67,0,0,1,2.56.49c.55.77,1,2,2.23,1.65s1.5-1.56,1.75-2.7.22-2.82,2.32-2.48c.75.11.57-.77.71-1.2.81-2.49,2.73-3.16,4.7-1.38,3.14,2.82,3.26,6.69,3.24,10.53a10,10,0,0,1-.47,2.12c-.71.57-.45,2.21-2,1.84-.68-.38-.69-1.09-.84-1.72-.56-2.29-2-2.86-4-1.59a27.67,27.67,0,0,0-3.11,2.5,73.26,73.26,0,0,1-6.53,5.26,3.42,3.42,0,0,0-1.78,2.29c-.12,1.19-.59,1.67-2,1.52a15.89,15.89,0,0,1-8.87-3.95c-.54-.47-.95-1.11-1.71-1.29-2.62-2.65-3.06-6.1-3.44-9.54A19.09,19.09,0,0,1,106.82,104.89Z"/><path class="cls-51" d="M41.38,114.39c3,2.37,5.78,5.12,9.19,7,1.25.69,2.38,1.9,4.06,1.38,1,0,1.24,1,2,1.36,1.19,1.35,2.88,1.23,4.44,1.51a72.46,72.46,0,0,0,8.68,1.2c9.85.26,19.14-2.14,28.12-6,2-.87,4-1.89,6-2.75a2.06,2.06,0,0,0,1.39-2.17c.67,1.45.58,3.15,1.51,4.5a1.83,1.83,0,0,1-.75,2.24A54.84,54.84,0,0,1,94.41,129c-.63.28-1.08-.1-1.66-.23.41,2,.79,4,1.21,5.92.3,1.43-.23,2.13-1.71,2.22a35.85,35.85,0,0,1-11.72-.93c-.64-.17-1.57-.2-1.45-1.29s1-.56,1.58-.71c1.47-.39,3.06-.16,4.53-.85-.64-.48-1.32-.11-1.94-.25,0,0-.1-.07-.15-.1l.33-.35c.31-.47.81-.59,1.72-.89a10.1,10.1,0,0,1-2.1.5,35.87,35.87,0,0,1-16.8.08c-1.35-.35-2.66-.85-4-1.28-1.54-.13-2.79-1.09-4.24-1.55,1.24.74,2.87.7,3.68,2.13.83.42,1.63.88,2.48,1.25.63.29,1,.66.8,1.38s-.76.43-1.16.4a42.79,42.79,0,0,1-10.89-2.29c-1.15-.4-1.1-1-.84-2,.33-1.24,1.32-2.61-.25-3.76a92.25,92.25,0,0,1-7.65-6.88C43.37,117.74,41.75,116.41,41.38,114.39Z"/><path class="cls-52" d="M115.54,102.63c-2,.92-2.07.82-2.57-2.81-1.13,1.11-1,2.45-1,3.72a.43.43,0,0,1-.59,0,6.63,6.63,0,0,1,3.93-7.9c3.5-2.12,7.14-3,11.07-1.26a9.65,9.65,0,0,1,4.4,5.65c-.13.7-.26,1.41-.37,2.12-.19,1.19-.83,1.66-1.93,1a1.65,1.65,0,0,0-2.42.36.88.88,0,0,1-1.51,0,1.56,1.56,0,0,0-1.72-.67c.21-.15.53-.47.61-.42,1.64,1.11,3.3-.36,4.95.07,1.25.33,1.43-.77,1.57-1.58A4.94,4.94,0,0,0,128,96.33a9.9,9.9,0,0,0-8.43-2c-.71.14-1.16.36-.8,1.18-.18.87-1,1-1.6,1.3a4.53,4.53,0,0,0-2.34,2.54C114.32,100.62,114.27,101.75,115.54,102.63Z"/><path class="cls-53" d="M109.42,122.47c.77-.11,1.18.45,1.69.87a15.57,15.57,0,0,0,8.9,4c1.19.09,1.44-.28,1.21-1.3a1.29,1.29,0,0,1,1.15,0,12.31,12.31,0,0,0,13.39-4.48c.65-.88,1-2.07,2.3-2.35,1.27.22,1.29-1.23,2.13-1.6-.84,3.7-3.69,5.76-6.48,7.83C126.84,130.52,114.94,129.05,109.42,122.47Z"/><path class="cls-54" d="M85.76,144.52A30.86,30.86,0,0,1,83.57,139c-.31-1.12-.26-1.83,1.26-1.49a12.09,12.09,0,0,0,3.17.29c2-.1,2.22.83,1.68,2.44a17.16,17.16,0,0,1-1,3.41C87.94,144.8,87.17,145.73,85.76,144.52Z"/><path class="cls-55" d="M61.35,135.58c-.54,1.42-1.05,2.85-1.61,4.26-.22.53-.35,1.24-1.07,1.31s-1-.59-1.29-1.08c-.42-.66-.78-1.37-1.17-2.06-1-4-1-4,3-3.28C60,134.86,60.89,134.7,61.35,135.58Z"/><path class="cls-56" d="M61.71,131.37c-.92-.34-1.86-.65-2.77-1A7.15,7.15,0,0,1,56.4,129c2.62-1.26,4,1.18,5.87,1.82Z"/><path class="cls-57" d="M85.76,144.52c1.26.7,2-.17,2.89-.86C87.71,145.67,87.23,145.82,85.76,144.52Z"/><path class="cls-58" d="M83.05,132c.54-.23,1.08-.48,1.64-.67a3.28,3.28,0,0,1,.84,0c-.51.91-1.39.82-2.1,1.07Z"/><path class="cls-59" d="M107.55,85.84c1.7.26,3.39.63,5.1.75S115,87.36,114,89c-2,3.6-3.72,7.33-5.91,10.82a5.24,5.24,0,0,1-3-4.57c-.14-2.33-.46-2.83-2.67-3.17-1.68-.26-2.27-1.56-2.75-2.82-.38-1,.39-1.59,1.33-1.37a3.55,3.55,0,0,0,4.11-1.63A2,2,0,0,1,107.55,85.84Z"/><path class="cls-60" d="M115.55,83.61a11.68,11.68,0,0,0,2.3.5c1.76,0,1.91.89,1.45,2.34a27.23,27.23,0,0,1-2.83,5.88c-.78,1.31-2,2.25-2.86,3.52-.3.46-.78.81-1.35.43s-.2-.87,0-1.35c.84-1.56,2.1-2.92,2.43-4.75l.18-.35c1.72-3.09,1.41-3.59-2.12-4-2.84-.32-5.65-.84-8.47-1.31-.65-.12-1.63-.09-1.44-1.19s.88-1.52,2-1.34C108.45,82.56,112,83.08,115.55,83.61Z"/><path class="cls-61" d="M107.55,85.84c-.64.13-1.42-.42-1.85.63-.89,2.19-2.56,2.7-4.72,1.91a1,1,0,0,0-1,.09c.72,1.57,1.1,3.31,3.52,3.29A2.08,2.08,0,0,1,105.58,94c-.28,2.5,1.38,4,2.54,5.83l-1,.47c-.62-.87-1.21-1.75-1.86-2.59a2.45,2.45,0,0,1-.58-2.17c.31-1.51-.24-2.7-2.4-2.92,1.52,1,.86,1.62.07,2.17a20.55,20.55,0,0,1-4.7,2.2,56.94,56.94,0,0,1-14.16,3.34c-.48.12-1,.53-1.23-.35C87.61,98.88,93,97.92,98.1,96c4-1.5,4-1.5,1.87-5-1.13-1.85-2.21-3.75-4.15-5l4.84,1.2a3.61,3.61,0,0,0,4.49-1.62C106,85.56,106.82,85.24,107.55,85.84Z"/><path class="cls-62" d="M114.74,90.18c.38,2.41-2,3.68-2.63,6.21l4.36-4.06a7,7,0,0,1-1.75,2.7c-.46,1.52-2,2.28-2.59,3.73s-1.45,3-.66,4.74l.5,0c-.33.56-.74,1-1.43.6s-.55-.8-.4-1.36a10.26,10.26,0,0,0,.22-1.35c.17-1.32-.44-1.24-1.3-.72C110.51,97,112.75,93.64,114.74,90.18Z"/><path class="cls-63" d="M105.15,85.5c-.78,2.52-1.6,2.82-4.49,1.62.65,0,1.3-.09,1.66-.76.62.09,1.59,1.16,1.48-.66C103.77,85.22,104.65,85.37,105.15,85.5Z"/><path class="cls-64" d="M89.43,80.9l3.32-1.74.35.75-3.57,1.63A.47.47,0,0,1,89.43,80.9Z"/><path class="cls-65" d="M47.41,95c1.75,1.33,1.64,2.81.5,4.49-.76,1.12-1.32,2.37-2.14,3.86-.23-1.57-1.23-2.33-1.65-3.41C44.39,97.74,45.8,96.31,47.41,95Z"/><path class="cls-4" d="M49.74,93.12c-.36-.37-.8-.79,0-1.1.59-.22.33-.54.25-.88l.93.74a.9.9,0,0,1-.38.84C50.39,93.08,50.18,93.34,49.74,93.12Z"/><path class="cls-66" d="M111.47,103.5c-.84.3-.68-.34-.7-.76-.13-3.31,1.56-5.69,4-7.71l.59.58C113,97.73,111.32,100.17,111.47,103.5Z"/><path class="cls-67" d="M90.3,8,93,6.41c-.23,1.51-1.49,1.86-1.9,2.8L89.88,10c-.77.53-.91,0-.89-.58a1.47,1.47,0,0,1,1-1.34Z"/><path class="cls-68" d="M88.73,6.87c1.9-1.46,1,.81,1.57,1.16h0c-.89,0-.87,1.53-2,1.11Z"/><path class="cls-16" d="M88.33,9.13c.82-.08.74-1.76,2-1.11-.13.66-1.43,1.06-.42,2C88.64,11,88.7,9.69,88.33,9.13Z"/><path class="cls-69" d="M78.07,30.52c.89-.73,1.67-.78,2.36.69C79.49,30.94,78.84,30.39,78.07,30.52Z"/><path class="cls-70" d="M19.2,53.66c-1.37,1.43-1.87,3.36-2.91,5-.48.75-.87,1.53-1.92,1.51s-1.49-.94-1.82-1.83a11.27,11.27,0,0,1,.2-7.45,18.11,18.11,0,0,1,6.3-9,7.52,7.52,0,0,1,6.59-1.57c1.92,2.21,2,3.93.07,6.16-1.63,1.85-3.49,3.49-5.18,5.29A4.12,4.12,0,0,0,19.2,53.66Z"/><path class="cls-71" d="M44.47,65.88c.18,4-2.72,7-7.14,7.36-.7-.82-.2-1.46.36-2.07,1.47-1.6,3-3.14,4.41-4.8A1.62,1.62,0,0,1,44.47,65.88Z"/><path class="cls-72" d="M61.75,90c.12-.56-.07-1.18.37-1.67.15.73.43,1.47,1.22.6,2.88-3.19,6.57-3.64,10.61-3.69,2.75,0,5.48-.9,8.22-1.4a1.44,1.44,0,0,1,1.51.11l-3,1.17a6.48,6.48,0,0,1-.81.56A21.86,21.86,0,0,1,72.17,87a5.46,5.46,0,0,0-1.93.25A1.67,1.67,0,0,1,69,87.1a1.5,1.5,0,0,0-2.07.19A34.38,34.38,0,0,1,63.5,90C62.94,90.4,62.34,91,61.75,90Z"/><path class="cls-73" d="M49.74,93.12l.8-.4c1,1.58,2.66,2.17,4.16,3,3.65,1.92,7.64,3,11.53,4.33v.26C60.26,99,54.36,97.52,49.74,93.12Z"/><path class="cls-74" d="M69,87.1l.93-.5c2.65.19,4.52,2,6.72,3.16.37.4,1.08.61.86,1.39-.51.61-1,.11-1.42-.09A50.72,50.72,0,0,1,69,87.1Z"/><path class="cls-75" d="M83.68,83.94l-1.51-.11a46.12,46.12,0,0,0,7.26-2.93c0,.22.07.43.1.64A13.88,13.88,0,0,1,83.68,83.94Z"/><path class="cls-76" d="M77.49,91.15l-1.23-.81c1.37-1.59,2-3.66,3.51-5.16l.93-.07A24,24,0,0,1,77.49,91.15Z"/><path class="cls-77" d="M81.85,100.69a36.72,36.72,0,0,1-9.19.38c.19-.94.94-.46,1.43-.52a21.19,21.19,0,0,0,3.37-.16l2.18-.08C80.41,100.27,81.29,99.55,81.85,100.69Z"/><path class="cls-78" d="M77.46,100.39c-1.51.88-3.29-.18-4.8.68a6.38,6.38,0,0,1-2.91-.29c.06-.26.31-.27.48-.39Z"/><path class="cls-77" d="M70.23,100.39l-.48.39a10.07,10.07,0,0,1-3.53-.51,2.17,2.17,0,0,0,0-.26Z"/><path class="cls-78" d="M81.85,100.69c-.66-.56-1.47-.28-2.21-.38a5.1,5.1,0,0,1,2.65-.3l1.23.35A2.69,2.69,0,0,1,81.85,100.69Z"/><path class="cls-79" d="M69,31.44a7.33,7.33,0,0,1-1.08,3.71,1.57,1.57,0,0,1-2.86.11c-1-1.36-.67-4.59.51-5.8a1.93,1.93,0,0,1,2.31-.64C69.08,29.37,68.89,30.55,69,31.44Z"/><path class="cls-34" d="M48.18,86.31l1.58,0c.32,0,.75-.06.88.31s-.19.48-.46.46C49.45,87,48.51,87.47,48.18,86.31Z"/><path class="cls-80" d="M71.05,110.71a4.7,4.7,0,0,1-2.49-.3c-1-1-2.4-.32-3.6-.6-1.37-.32-2-.87-1.75-2.28,0-.33,0-.67,0-1,.3-2.53.58-2.91,3-2.55a83.28,83.28,0,0,0,13.93.77l2-.08c.93,0,2.21-.79,2.7.41a6.62,6.62,0,0,1,.36,4.68c-.27.81-1.26.7-1.94.75a46.4,46.4,0,0,1-8.58,0A6.39,6.39,0,0,0,71.05,110.71Z"/><path class="cls-81" d="M71.05,110.71c.28-1,1.14-.73,1.82-.74,3.45-.08,6.89.36,10.36,0,1.54-.13,2-.63,1.84-2a9,9,0,0,1-.23-1.77c.06-1.23-.61-1.57-1.63-1.42a58.4,58.4,0,0,1-17.31-.48c-1.15-.17-1.81-.11-1.77,1.24a6,6,0,0,1-.25,1c-.43,2.63-.12,3,2.54,3.06,1.28.05,2.62-.31,4,.37-.62.65-1.28.24-1.81.47-.93-.06-1.86-.08-2.78-.18-1.21-.12-2.52-.72-3.26.89a.62.62,0,0,1-.5.29c-2.41-.25-2.08,1.59-2.24,3a20.81,20.81,0,0,0,.67,7.28c.31,1.28.39,2.62.58,3.93-2.05,1.4-3.42,0-4.87-1.16-.13-.38.09-.57.38-.73a1.89,1.89,0,0,1,1.47.18c1.05.62,1.73.59,1.37-.89s-.59-3.12-1-4.68c.09-2.37-.39-4.77.46-7.09a1.68,1.68,0,0,1,.58-.78c3.08-.63,2.68-3.4,3.31-5.49.3-1,.14-2.12.36-3.16a.62.62,0,0,1,.76-.38c2,3.47,5.57,2.41,8.51,2.72A45.12,45.12,0,0,0,84.35,104c.8-.12,1.09.18,1.17.92.23,2,.5,4.09.71,5.86A81,81,0,0,1,71.05,110.71Z"/><path class="cls-82" d="M103.18,99.07a3.75,3.75,0,0,1,1.16,1.67c1.35,3.16,1.31,3.07-2,4.65a48.67,48.67,0,0,1-8.83,3.09c-1,.28-1.41,0-1.7-1s-.25-2.11-.61-3.13a1,1,0,0,1,.71-1.27C95.84,102.21,99.36,100.21,103.18,99.07Z"/><path class="cls-83" d="M53.72,110.24c0-.13.06-.32,0-.39-1.63-1.65-2-4.51-4.72-5.07-1-.2-.88-.5-.59-1.12.7-1.51,1.38-3,2.11-4.51a1.12,1.12,0,0,1,2-.39,1.86,1.86,0,0,0,2.62.24c.77-.55,1.53,0,2.29.18a.67.67,0,0,1-.34.73,2.36,2.36,0,0,0-2.29,2.29,3.84,3.84,0,0,1-.48,1.5c-1.07,1.9-1,3.59.66,5.11a2,2,0,0,1,.1.94c-.19,1,.13,2.1-1,2.71C53.18,111.82,53.63,111,53.72,110.24Z"/><path class="cls-84" d="M103.18,99.07a42.67,42.67,0,0,1-10.05,4.11c-2.73.66-1.08,2.53-1,3.82.1,1.8,1.49,1,2.4.8a42.46,42.46,0,0,0,8.93-3.26c1.25-.63,2-1.4.92-2.77-.26-.34-.43-.68,0-1,2.35,2.88,2.24,3.38-1.25,4.85a56.59,56.59,0,0,1-9,3.18,3.41,3.41,0,0,0-2,1.65c-.5-2.4-1-4.53-1.4-6.66-.12-.59,0-1,.7-1.18a44.78,44.78,0,0,0,10.87-3.89A.63.63,0,0,1,103.18,99.07Z"/><path class="cls-85" d="M53.72,110.24c.17.71-.15,1.5.4,2.13a2,2,0,0,1,.82,1.92c.06,3.06.27,6.1,1.73,8.9a1.05,1.05,0,0,1,0,.78l-.5.48c-.82-.29-.93-1.21-1.53-1.71A24.91,24.91,0,0,1,53.72,110.24Z"/><path class="cls-86" d="M56.93,99.56l.45-.38c2.25.53,4.56.86,6.51,2.25l-.47.48A9.62,9.62,0,0,1,56.93,99.56Z"/><path class="cls-87" d="M138.06,119.21c-2.14,4.58-5.91,7-10.68,8.17a6.48,6.48,0,0,1-6.16-1.35,2.12,2.12,0,0,1,1.26-2.1,73.47,73.47,0,0,0,9.46-7.7,7.86,7.86,0,0,1,1.44-1.06c2.51-1.41,4.59-.23,4.69,2.64C138.09,118.28,138.06,118.75,138.06,119.21Z"/><path class="cls-88" d="M115.54,102.63c-1.77.48-2.13-.45-1.9-1.91a5.9,5.9,0,0,1,5.15-5.22l1.39,0a1.59,1.59,0,0,1,1.73,1.06c.24.83-.34,1.4-1,1.73A16.94,16.94,0,0,0,115.54,102.63Z"/><path class="cls-89" d="M79.77,85.18c-.35,1.72-1.41,3.11-2.18,4.64-.31.62-.78.62-1.33.52L69.91,86.6Z"/><path class="cls-90" d="M56.66,124c-2.34-2.28-2.22-5.3-2.43-8.2-.09-1.13-.08-2.27-.11-3.4.32-.93-.14-2,.45-2.88,1.42-.57,2.51.15,3.6.9a2.5,2.5,0,0,1,.47.88,37.9,37.9,0,0,0-.25,6.82c.24,1.36.4,2.72.69,4.07a2.5,2.5,0,0,1-.33,2.27.77.77,0,0,1-1,0Z"/><path class="cls-91" d="M56.93,99.56c2.12.92,4.47,1.18,6.49,2.35.61,3-.6,5.7-1.54,8.41-.29.84-1.29.39-2,.37a10.92,10.92,0,0,1-5.34-1.89c-1.83-.61-2.21-1.8-1.52-3.55.51-1.28.84-2.63,1.26-3.94S55.45,99.24,56.93,99.56Z"/><path class="cls-92" d="M57.78,124.42h.77c1.17-1.62-.32-3.14-.16-4.73a1,1,0,0,1,.63-.93c.32,1.41.64,2.82,1,4.22.17.75.67,1.67-.13,2.15S58.38,125,57.78,124.42Z"/><path class="cls-93" d="M59,118.75l-.32.82c-1-1.67-.43-3.49-.51-5.25-.15-1,.31-2,.13-3.08l-.52-.51c.7-.43,1.19-.22,1.53.48A38,38,0,0,0,59,118.75Z"/><path class="cls-94" d="M59.33,111.21l-1.53-.48-3.23-1.24v-.69l5.33,1.89Z"/><path class="cls-95" d="M58.52,114l.18,5.59c.23,1.17.51,2.33.67,3.51.09.58.35,1.45-.82,1.33.31-2.21-.85-4.25-.71-6.44.4-1-.14-2.1.14-3.15C58.08,114.47,57.91,114,58.52,114Z"/><path class="cls-96" d="M58.52,114c-.84,1.22.19,2.77-.68,4a13.49,13.49,0,0,1,.48-6.73C59,112.1,58.47,113.06,58.52,114Z"/><path class="cls-82" d="M58.19,101.22l.43.16a.71.71,0,0,0,.4.4c3,1,3.72,3.75,1.77,6.3-.13.16-.24.37-.42.42-1.93.6-3.49-.51-5-1.3-1.12-.57-.86-1.81-.52-2.87a5.54,5.54,0,0,0,.39-.91C55.43,101.62,56.45,101,58.19,101.22Z"/><path class="cls-97" d="M58.19,101.22c-2.31.19-2.67,2.07-3.14,3.76a1.84,1.84,0,0,0,1.4,2.47c.26.07.51.18.77.23,1,.2,2.07,1.27,3,.27a4.73,4.73,0,0,0,1.18-4.08A1.66,1.66,0,0,0,60,102.38c-.64-.11-1.16-.3-1.34-1,1.32.36,3.15.33,3.52,1.8A7.83,7.83,0,0,1,61,108.73a.8.8,0,0,1-.26.29c-1.28.9-6.37-1.36-6.5-2.93a9.36,9.36,0,0,1,1.3-4.75C56.07,100.14,57.27,101.08,58.19,101.22Z"/></g></g></svg>