<svg xmlns="http://www.w3.org/2000/svg" viewBox="0 0 135.62 148.02"><defs><style>.cls-1{fill:#fbf35c;}.cls-2{fill:#99d9e5;}.cls-3{fill:#e8ea80;}.cls-4{fill:#98d9e4;}.cls-5{fill:#030307;}.cls-6{fill:#8ea040;}.cls-7{fill:#a5a68b;}.cls-8{fill:#b4b02d;}.cls-9{fill:#949a2f;}.cls-10{fill:#fafbf9;}.cls-11{fill:#fafaf9;}.cls-12{fill:#f9f260;}.cls-13{fill:#892309;}.cls-14{fill:#f6e767;}.cls-15{fill:#ec9e8b;}.cls-16{fill:#fbea6c;}.cls-17{fill:#5a2a13;}.cls-18{fill:#b4c32c;}.cls-19{fill:#b2c12d;}.cls-20{fill:#a19a3b;}.cls-21{fill:#b5c029;}.cls-22{fill:#f2f0eb;}.cls-23{fill:#a7a73e;}.cls-24{fill:#b6c32d;}.cls-25{fill:#f0d162;}.cls-26{fill:#bbba37;}.cls-27{fill:#b9c12e;}.cls-28{fill:#969f30;}.cls-29{fill:#e8e26c;}.cls-30{fill:#593f16;}.cls-31{fill:#bbbf2e;}.cls-32{fill:#c5c13e;}.cls-33{fill:#af7f22;}.cls-34{fill:#d5b250;}.cls-35{fill:#5f540d;}.cls-36{fill:#bac42a;}.cls-37{fill:#8d9a34;}.cls-38{fill:#99964f;}.cls-39{fill:#d0b234;}.cls-40{fill:#40390c;}.cls-41{fill:#433905;}.cls-42{fill:#443e0c;}.cls-43{fill:#593f19;}.cls-44{fill:#51491c;}.cls-45{fill:#4f4611;}.cls-46{fill:#4b4624;}.cls-47{fill:#3c3808;}.cls-48{fill:#40390e;}.cls-49{fill:#8da245;}.cls-50{fill:#b7b45a;}.cls-51{fill:#221307;}.cls-52{fill:#f1ec5f;}.cls-53{fill:#1b1d0e;}.cls-54{fill:#3d3e3a;}.cls-55{fill:#4d5b3b;}.cls-56{fill:#d9d77d;}.cls-57{fill:#334813;}.cls-58{fill:#151604;}.cls-59{fill:#3c4f29;}.cls-60{fill:#1c2d28;}.cls-61{fill:#b0b459;}.cls-62{fill:#334131;}.cls-63{fill:#cdd47a;}.cls-64{fill:#dfdf88;}.cls-65{fill:#1b2913;}.cls-66{fill:#293f23;}.cls-67{fill:#435154;}.cls-68{fill:#374614;}.cls-69{fill:#f9f8f8;}.cls-70{fill:#959a0b;}.cls-71{fill:#989a0d;}.cls-72{fill:#a7d0d5;}.cls-73{fill:#9fa21c;}.cls-74{fill:#3d3e1d;}.cls-75{fill:#9fa21f;}.cls-76{fill:#42524b;}.cls-77{fill:#3c370d;}.cls-78{fill:#2f4349;}.cls-79{fill:#edeeec;}.cls-80{fill:#b6b3b6;}.cls-81{fill:#d5d8d8;}.cls-82{fill:#3f8cad;}.cls-83{fill:#bc9a5e;}.cls-84{fill:#6e6b37;}.cls-85{fill:#4095af;}.cls-86{fill:#4a7d8c;}.cls-87{fill:#47210c;}.cls-88{fill:#695f0b;}.cls-89{fill:#f6f6ee;}.cls-90{fill:#dee4c6;}.cls-91{fill:#f9f9f2;}.cls-92{fill:#e5e5c5;}.cls-93{fill:#d1563e;}.cls-94{fill:#6b2c17;}.cls-95{fill:#c99130;}.cls-96{fill:#c59236;}.cls-97{fill:#956313;}.cls-98{fill:#e8e375;}.cls-99{fill:#d55337;}.cls-100{fill:#2c1b0b;}.cls-101{fill:#ad8441;}.cls-102{fill:#af8745;}.cls-103{fill:#a98f60;}.cls-104{fill:#dedd71;}.cls-105{fill:#d2d989;}.cls-106{fill:#dbcccd;}.cls-107{fill:#02151d;}.cls-108{fill:#021626;}.cls-109{fill:#f5f1ef;}.cls-110{fill:#b78f5c;}.cls-111{fill:#71582d;}.cls-112{fill:#a98c5a;}.cls-113{fill:#251205;}.cls-114{fill:#2d1201;}.cls-115{fill:#2a0f05;}.cls-116{fill:#2b0f03;}</style></defs><g id="Layer_2" data-name="Layer 2"><g id="Layer_1-2" data-name="Layer 1"><path class="cls-1" d="M34.86,2l2.2-1A4.31,4.31,0,0,1,40.89.84C47.15,3.45,54.25,2,60.49,5.36c2.94,1.61,6.94-.61,10.64,0,7,1.21,14.09,1.53,20.71,4.44a11.44,11.44,0,0,0,5.37.67,8.56,8.56,0,0,1,5.66,1.37,12.23,12.23,0,0,0,6.61,1.68c3.94,0,5.78,2.2,3.62,5.06-4.13,5.47-6.45,11.55-9,17.75-1.46,3.5-4.11,6.36-4.31,10.63-.18,4-4.34,6.1-5.81,9.63,0,7.48-6,13.53-5.11,21.23A89.11,89.11,0,0,0,84,92.21c-5.5,2.11-10.38-1.15-15.54-1.88a25.44,25.44,0,0,1-5.52-1.9,4.44,4.44,0,0,1-2.13-1,2.37,2.37,0,0,1-.1-2.81c2.3-1.41.72-3.51.92-5.3a4.16,4.16,0,0,1,.5-1.28,3.16,3.16,0,0,1,1.08-.84A14.19,14.19,0,0,0,69.76,73a50.68,50.68,0,0,0,7.93-12.36,10.14,10.14,0,0,1,2.54-3.2c2.17-1.45,5.13-1.29,7-3.45a3.27,3.27,0,0,0,.94-4.74c-.8-1.43-1.68-2.82-1.66-4.55a5.9,5.9,0,0,1,.39-2.08c1.87-3.22,1.74-6.58.67-10-.55-1.5-1.45-2.86-1.86-4.42-.41-1.06,1-3.66-2.08-2.45a5.71,5.71,0,0,1-3.13-1.38c-.84-3.66-2.58-.72-4-.52a4.38,4.38,0,0,1-2.68-.13c-1.19-.78-2.37-2.32-3.59,0a6.78,6.78,0,0,1-4.56,2,5.32,5.32,0,0,1-4.55-4.39c.88-2.53-1-2.4-2.51-2.56a4.94,4.94,0,0,1-2.28-1.46c-1.27-2.71-2.32.37-3.49.16a4.69,4.69,0,0,1-4.07,0c-.83.06-1.14-3.14-2.41-.36-3,3.35-6.26,6.46-7.73,10.86-1.28,2.07-2.34,4.28-3.61,6.35-.2,1.44-.1,2.9-.39,4.32.3,2.12,2.79,2.93,3,5.06a29.88,29.88,0,0,1,.25,4c.69,2.41,2.82,3.39,4.61,4.72s3.45,2.42,3.94,4.68a11.36,11.36,0,0,1-.65,4.9c-2,5.11-2,10.37-1.08,15.7-.47,1.34.4,2.1,1.24,2.9,1,1,1.63,2,.68,3.44a3.76,3.76,0,0,1-3.21.93c-5-.8-9.82-2.34-14.71-3.6a5.55,5.55,0,0,1-4.34-4.26,15.79,15.79,0,0,1-.18-2.57c.56-4.93-1.74-9.71-.78-14.66,1.48-4.75.45-9.64.78-14.46-.29-3.25,1.83-5.88,2.28-8.93.92-2.57.76-5.25.69-7.9a20.14,20.14,0,0,1,3.34-12.25,13.19,13.19,0,0,0,2.15-8A8.43,8.43,0,0,1,34.86,2Z"/><path class="cls-2" d="M125.64,36.85c23.16,38.56,4.21,88.06-38.43,100.35-1.87.53-3.77,1.69-5.47-.34-3.37-1-4.4-3.53-4.54-6.77s.48-6.56-.63-9.75a7.9,7.9,0,0,1-.38-2.5c.09-2,.34-3.92,2.27-5.09a30.93,30.93,0,0,1,12.92-5c5.2,1.36.8,4.18,1,6.31C91,117.57,94.5,120.25,94,123.6c1.88,4.23,3.81,1.56,5.71,0,1-4.89.92-9.62-2-13.93-.32-1.16-.53-2.54.23-3.34,2.88-3,2.07-6.77,2.46-10.29a15.14,15.14,0,0,0,1.84-8.31c0-7.5,4.21-14.1,4.46-21.56.06-1.62,1.33-3,2.52-4.22a10.14,10.14,0,0,0,3.11-6.61,7.15,7.15,0,0,1,1.22-3.76c3-3.91,6-7.74,7.31-12.67A3.26,3.26,0,0,1,125.64,36.85Z"/><path class="cls-2" d="M32.77,130.69c-9.54-6.78-18-14.55-23.83-24.92C-8.35,75,0,37.46,28.85,16.92c1.29.17,1,1.2.77,1.83-2.2,5.4-1.2,11.05-1.47,16.6-1.33,3.25-2.94,6.41-3.21,10-.55,4.23-.08,8.47-.29,12.71a26.4,26.4,0,0,0,0,10.1c.12,1.89-.73,3.52-1.31,5.24-1.25,3.71-2.29,7.17,2.16,9.94,2.89,1.8,1.07,5.63,2.26,8.32A6.75,6.75,0,0,1,27,96.18c-1.95,2.3-1.66,5.38-2.77,8s.89,3.86,2.3,5.36A9.32,9.32,0,0,0,29.84,111c3.72-.18,2.73-3.2,3.22-5.31-.16-2,0-4,1.77-5.37,1-.45,2.37-.68,2.79.06,2.28,4,7.2,5.63,8.93,10.08a9.89,9.89,0,0,1,.39,2.29c.15,3.09.22,6.17.2,9.27a14,14,0,0,1-.5,4.73C42.76,132.27,40.07,133,32.77,130.69Z"/><path class="cls-3" d="M114.68,15c2.53,2.1.83,6.81,4.9,8,3,2.27,3.17,6.33,5.72,9,1.1,1.15,0,3.09-1.6,4.17-2.17,1.5-2.53,4.11-3.76,6.16-3.7,6.11-6.56,12.6-9.86,18.88-1.4,2.66-2.8,4.92-3,8-.36,5.05-3.46,9.29-4.83,14.07a2.28,2.28,0,0,1-2.08-.51c-1.18-.91-1.44-3.29-3.57-2.63-1.72.53-2,2.37-2.58,3.85a7.87,7.87,0,0,0-.44,4.27A4.2,4.2,0,0,1,92,91.49a12,12,0,0,1-3.43,1.57c-1.47.14-3,1.08-4.32-.44C84,87.51,86,83,87.88,78.39c.2-4.85.35-9.54,3.85-13.68,1.51-1.78.09-5.1,1.08-7.59a16.08,16.08,0,0,1,3.87-5.7c.89-.78,2-1.89,1.83-2.86-1.33-8,7.83-12.12,7.14-19.84a4.2,4.2,0,0,1,1.13-2.7A65.19,65.19,0,0,0,114.68,15Z"/><path class="cls-4" d="M58.67,139.07c-1.65-.67-4.52,1.58-4.93-2.06,1.26-4.77-1.52-8.42-3.41-12.32-.13-2,0-4-.88-6-.43-2.61,0-5.32-.85-7.88a4.69,4.69,0,0,1,2.59-4.79,14.58,14.58,0,0,1,11.44-.48c2.21.71,4.43,1.35,5.11,4,.63,2.45,3.38,2.38,4.77,4,1.77,1.82,1.57,4.13,1.63,6.38a30.71,30.71,0,0,0,.64,7.26c.66,2.59.54,5.21-1.82,7.13C69.05,138.43,63.53,137.75,58.67,139.07Z"/><path class="cls-5" d="M58.67,139.07c1.95-2.62,4.58-4.21,7.68-2.87s3-2.75,5.19-2.43c1.18-.68,2.38-.2,3.57-.12,1.81-2.64-.66-5.32.1-8a21.79,21.79,0,0,1,.26-4.42,3.63,3.63,0,0,1,.77-1.33,1.13,1.13,0,0,1,1.41-.13c1.49.85.9,2.32,1,3.52.24,4.7-.82,9.68,3.13,13.52-.16,7-.17,6.9-7.37,8.14-2.05.35-3.9,1.73-6,2.28-3,.82-6.16,1.47-8.86-1C57.21,144.13,57.45,141.66,58.67,139.07Z"/><path class="cls-5" d="M51.51,125c2.59,3,5.37,5.91,3.79,10.46-.3.86-.67,1.42-1.56,1.59-3.53.78-7,1.08-10.11,3.75-2.76,2.38-6.23,1.08-9-1.3s-3.77-5.31-1.84-8.77c1.28-.29,2.94-1.25,3.8-.77,4.34,2.42,6.36-1.19,9.07-3.07a2.35,2.35,0,0,1,1.7-.68c1.4.41,2.19-.56,3-1.38A.91.91,0,0,1,51.51,125Z"/><path class="cls-6" d="M101.39,82.92c2.66-2.39,2.15-6.1,2.92-9,2-7.61,6.46-14.14,8.47-21.65.21-.8.3-1.93.85-2.3,5.44-3.59,5-11,9.84-15,1.5-1.25,1.91-3,.45-4.32-2.36-2.14-2.74-5.24-4.34-7.73,4.21,2.49,7.16,9.24,6.06,13.87-.59.27-1.56.4-1.72.84-2.44,6.49-8,11.26-10,18-.19.62.07,1.56-.3,1.93-5.32,5.22-5.26,12.68-7.85,19-1.4,3.41-1.67,7.28-2.45,10.95-2,.21-2-1.49-2.47-2.69A2.36,2.36,0,0,1,101.39,82.92Z"/><path class="cls-7" d="M97.66,11.1c-4,.42-7.65-1-11.49-2C79.42,7.31,72.43,5.49,65.29,6.41c-2,.26-4,.62-5.8-.39C52.51,2,44.32,3.55,37.06,1A2.57,2.57,0,0,1,40.25.27c6,2.62,12.74,1,18.84,3.85,3.76,1.74,8.44.29,12.72.51A71.18,71.18,0,0,1,94.05,9.56a24.89,24.89,0,0,0,3.36.79l.82.14Z"/><path class="cls-8" d="M97.66,11.1a2.14,2.14,0,0,0-.25-.75A59.51,59.51,0,0,1,114.68,15c-1.32,3.76-2.91,7.34-6.16,9.88-.13.1-.3.23-.33.37-1.66,7.68-7.52,13.72-8.58,21.56-.59,4.39-4.44,6.5-6.07,10.08-.89.18-1.43,0-1-1,2.82-4.52,7.39-8.25,6.27-14.56-.14-.8,1.18-1.89,1.89-2.79s2.26-1.9,2.49-3c1.36-6.59,3.89-12.47,8.7-17.35,1-1.07,1.45-4-.93-3.74C106,14.94,102.26,11.44,97.66,11.1Z"/><path class="cls-9" d="M27.56,35.78a61.61,61.61,0,0,1,1.29-18.86c2.39-2.25,2.77-5.16,2.79-8.22,0-2.73.43-5.31,3.22-6.73-.52,10.63-7.54,20-6,31.06.19,1.4.23,3-1,4.17A.86.86,0,0,1,27.56,35.78Z"/><path class="cls-10" d="M86.85,28.19c.53,1.3,2,2.16,1.88,3.76.67,3.77,1,7.51-.83,11.09l-.22,1.47a2.31,2.31,0,0,1-.85,1.1c-5.32-1-8.65,1.37-10.5,6.24a5.41,5.41,0,0,1-5.06.62c-5.69-.85-8.51-4.83-10.55-9.66a7.89,7.89,0,0,1-1-2c-1-8.49.72-13.07,6-15.71L69.5,22.8A5.56,5.56,0,0,1,74,22.69l2.35.09c1.68-.51,3.27-.57,4.55.92l2.8,1A15.27,15.27,0,0,1,86.85,28.19Z"/><path class="cls-11" d="M65.65,25.07c-4.52,4.33-5,9.94-5,15.72-1,4.11-4.29,4.45-7.69,4.56C47.17,43.87,43.06,40,39.2,35.71,37,33.46,36,30.94,37.39,27.86a17.28,17.28,0,0,1,8.24-11A3,3,0,0,1,49,16.57c1.39.65,2.53-.05,3.7-.66,1.32,1.22,3.26-.31,4.56,1l1.68.79c.94,1.31,3.64,1.12,3.13,3.67A8.51,8.51,0,0,0,65.65,25.07Z"/><path class="cls-12" d="M40.62,35.33c3.68,3.37,7.35,6.77,12,8.8,3.63,1.89,6.09-2.26,9.43-1.83,2.12,4.08,4.28,8.11,9.51,8.84,1.63,2.74.5,4.71-1.77,6.37-6.54,2.5-13.14.93-19.72.29a5.57,5.57,0,0,1-2.91-.93c-1.76-2.16-4.65-3-6.21-5.4-.27-1.77.19-3,2.25-3,3.51-.32,6.52,3.25,10,1-3.25,1.73-6.16-.67-9.36-1.2a3.86,3.86,0,0,1-3.16-1.2,51.9,51.9,0,0,1-7-8.3,8.39,8.39,0,0,0-1-4.79C35.67,32.5,38.34,32.75,40.62,35.33Z"/><path class="cls-13" d="M80.71,58l-1.86,3c-.69.27-.9.92-1.21,1.49-5.08,9.45-9.27,11.31-19.55,8.4a9.52,9.52,0,0,0-6.71.82c-3,1.29-5.21.9-6-2.72a4.69,4.69,0,0,1,3.67-5.21A4.06,4.06,0,0,0,52,61.29c.58-1.34,1.07-3.09,3-2.67,1.79.38,1.9,2.12,2.07,3.6A2.91,2.91,0,0,0,59,64.85c2.39,1,4.63.7,5-2.12.43-3.51,2.4-4.49,5.42-5.34,2.16-.6,4.23-1.88,6.37-2.75,2.56-1,4.63-.75,5,2.59C80.77,57.48,80.74,57.72,80.71,58Z"/><path class="cls-14" d="M69.71,56.11c1.88-1.18,1.27-3.3,1.87-5,1.41.42,2.81.73,4.14-.26.75.44,1.12.12,1.36-.62,2-6.24,3.09-6.79,8.89-4.49,2.48,2.62,5.8,5.06,1.82,9-1.22,3.57-4.51,2.61-7.08,3.22l-.45,0c-.24-1.51.37-2.9.46-4.55-2.17.25-4,1.62-6,2.31C73.21,56.23,71.51,57.76,69.71,56.11Z"/><path class="cls-15" d="M63.38,78.05l-.31.06-.31,0c-5.32,2.54-10.31,1.67-15.08-1.45-1.33-2-.27-3.34,1.39-4.47,2.39-1.61,5-2.83,7.86-2.07,3.33.88,6.44,1.93,9.89.4,1.23-.55,2.53.31,3.15,1.7C69.13,75.65,66.22,76.81,63.38,78.05Z"/><path class="cls-16" d="M43.65,78.06c-1.41-5.47-1.5-10.88.9-16.14A2.17,2.17,0,0,1,46.31,63c.8,3.38-1.77,6.67-.29,10.07a8.26,8.26,0,0,0,1.43,3.06c4.72,2.85,9.95,3,15.23,2.81-.39,2.2,1.14,3.45,2.5,4.76-.72,1.92-2.85-.47-3.52,1.27-3.42,1.88-6.4-1.26-9.7-.82C48.61,82.9,45.15,81.82,43.65,78.06Z"/><path class="cls-17" d="M46.72,75.92a3.17,3.17,0,0,1-1.89-2c.53-1.67-1-4.09,1.75-5,.36,2.72,1.87,2.8,3.83,1.61,3.23-2,6.34-1.86,9.9-.46,5.65,2.23,12.9-1,16-6.3.6-1,.25-3.25,2.56-2.83a31.77,31.77,0,0,1-8.22,12.93c-.88.2-1.35,0-1-1-.31-1.12-1.41-1.9-2.17-1.58-4.43,1.88-8.67-.2-13-.29-3-.07-5.86.93-6.34,4.68A.86.86,0,0,1,46.72,75.92Z"/><path class="cls-18" d="M81.74,79.76c-.09,2.85-.74,5.61-4.14,5.72-2.54.08-3.77-2.1-3.72-4.45.06-2.83,1.23-5.59,4.33-5.77C80.62,75.11,81.87,77.21,81.74,79.76Z"/><path class="cls-19" d="M33.64,56c3.14.26,3.51,2.65,3.56,4.7,0,2.56-1.32,4.45-4.24,4.37S29.47,63,29.6,60.58A4.48,4.48,0,0,1,33.64,56Z"/><path class="cls-20" d="M25.48,77c.06.15.06.38.18.46A32.56,32.56,0,0,0,46.72,83c1.69-.53,2.24.55,2.64,1.85a3,3,0,0,1-.28,1.45c-2.59,3.18-5.76,3-8.77,1A25.9,25.9,0,0,0,27.94,83a8.29,8.29,0,0,1-2.63-1.38A4,4,0,0,1,23.88,79C24,78,24.05,77,25.48,77Z"/><path class="cls-21" d="M103.76,20.61c-.08,2.63-.55,4.91-3.32,4.87a3.59,3.59,0,0,1-3.73-4.24c.18-2.25.86-4.25,3.71-4.23C103,17,103.65,18.78,103.76,20.61Z"/><path class="cls-22" d="M45.44,63.16l-.89-1.24,1-4.83c.07-2,1.33-1.63,2.58-1.26l1.3,1c4.58,0,4.12,2.91,2.87,5.62C50.55,66.16,47.87,64.37,45.44,63.16Z"/><path class="cls-23" d="M84.76,92.75l4-1c0,3.24-2.52,3.25-4.75,3.59a12.78,12.78,0,0,1-1.64-.06C77.32,93.81,72,93.74,66.94,92.07c-1.85-1.71-5-1.08-6.47-3.43-.06-1.52,1.39-1,2.06-1.55,5.57,1.4,11.14,2.75,16.68,4.23a7.54,7.54,0,0,0,4.35.36C84.14,91.84,84.24,92.53,84.76,92.75Z"/><path class="cls-24" d="M38.76,15c-2.3-.11-3.17-1.47-3-3.32.25-2.19,1-4.36,3.73-4.5a2.56,2.56,0,0,1,2.76,3.27C41.92,12.45,41.44,14.78,38.76,15Z"/><path class="cls-25" d="M51.64,83c3.65-.88,6.73,1.08,10,2l-1,1.88c-3.68,2.76-6.82.87-10-1.13C50,84.45,50.47,83.58,51.64,83Z"/><path class="cls-26" d="M92.58,55.86c.32.35.64.7,1,1-.84,4.59-1,9.27-4.16,13.3C87.57,72.53,89,76,88.5,78.85c-.85.16-1.43.07-.92-1-.15-4.82-.11-9.4,3.54-13.44C93.05,62.27,90.54,58.5,92.58,55.86Z"/><path class="cls-27" d="M35.05,70.07c2.07,0,2.6,1,2.59,2.51,0,1.84-.69,3.21-2.75,3.35-1.71.12-2.3-.93-2.27-2.45C32.65,71.64,33.45,70.38,35.05,70.07Z"/><path class="cls-28" d="M24.22,58.19c-.16-4.45-1.28-8.93.3-13.35.38-.46.7-.42.94.13-.19,5,1.54,10.07-.74,15C24.12,59.47,24.21,58.82,24.22,58.19Z"/><path class="cls-29" d="M41.47,45.67l1.9,2.24a.79.79,0,0,1,.68.9C42.29,49,41.6,50,41.73,51.72c-3.09.55-3.67-3-6-3.67l.9-3.9C38.69,43.2,39.57,46.07,41.47,45.67Z"/><path class="cls-30" d="M46.72,75.92l1.45-.21a27.24,27.24,0,0,0,14.59,2.36,7.89,7.89,0,0,0-.08.85C56.79,80.92,51.51,79.72,46.72,75.92Z"/><path class="cls-31" d="M84.59,68.6c-.27,1.39-.76,3-2.49,3.14s-2.33-1.15-2.36-2.6a2.73,2.73,0,0,1,3.05-3.09C84.32,66.07,84.64,67.17,84.59,68.6Z"/><path class="cls-32" d="M87.58,77.84l.92,1a52.68,52.68,0,0,0-3.74,13.9l-1.2-1.07C83,86.53,85.26,82.17,87.58,77.84Z"/><path class="cls-33" d="M50.69,84.92c3.21,1.26,6.46,2.3,10,1.91l1.85.26-2,.92a2.52,2.52,0,0,1-1.1,1.57,3.37,3.37,0,0,1-2.48.09c-.85-.63-1.83-.19-2.76-.27a28.11,28.11,0,0,1-5.48-2.08,1,1,0,0,1-.34-.77c0-.29.05-.44.11-.44l.15-1.4A1.5,1.5,0,0,1,50.69,84.92Z"/><path class="cls-34" d="M50.69,84.92l-2-.2-2-1.72a48.87,48.87,0,0,1-4-3.61c-.94-1,0-1.31.91-1.33,1.85,3,5.62,2.78,8,4.89C51.32,83.61,51,84.26,50.69,84.92Z"/><path class="cls-35" d="M35.72,48.05c3.06-.5,3.45,3.36,6,3.67l6.36,4.11-2.58,1.26C43,53.26,37.75,52.4,35.72,48.05Z"/><path class="cls-36" d="M36.53,20.17c-.12,1.43-.66,2.63-2.24,2.74a1.84,1.84,0,0,1-2.16-2.06c.1-1.35.72-2.59,2.29-2.75C35.83,18,36.51,18.78,36.53,20.17Z"/><path class="cls-37" d="M24.22,58.19l.5,1.73c-.7,5,2.09,9.84.76,14.88-1.73.13-1.72-1.17-1.92-2.3,0-1.08.46-2.16,0-3.24C23.73,65.56,23,61.82,24.22,58.19Z"/><path class="cls-38" d="M40.62,35.33C38.17,33.72,35.4,34,32.7,34c2.64-1.2,2.75-4.35,4.69-6.1C36.53,31.18,39.33,32.93,40.62,35.33Z"/><path class="cls-39" d="M87.79,54.75c2.19-3.65.16-6.2-2.24-8.66.08-.65.79-.73,1.1-1.18l1-.39c-.16,1.85,1.34,3,2,4.44C90.77,51.42,91.18,53.72,87.79,54.75Z"/><path class="cls-40" d="M49,16.57a4.55,4.55,0,0,1-3.32.29c.29-1.76-.92-4.71,1.66-4.8C49.48,12,48.21,15.06,49,16.57Z"/><path class="cls-41" d="M41.47,45.67c-2.2,1.35-3.19-1.15-4.85-1.52-.87-1.86-3.82-2.59-2.94-5.4Z"/><path class="cls-42" d="M80.87,23.7l-4.55-.92c2.4-.56,2.91-3,4.15-5.14C82.48,20.12,79.93,21.93,80.87,23.7Z"/><path class="cls-43" d="M69.66,72.9c.32.34.64.68,1,1-2.17,1.82-3.6,4.92-7.25,4.14Q66.53,75.49,69.66,72.9Z"/><path class="cls-44" d="M62,21.38c-.75-1.48-2.87-1.78-3.13-3.67,2.45,1.69,3.22-2.05,6-2Z"/><path class="cls-45" d="M57.21,16.92c-1.6,0-3.38.86-4.56-1,3.22.64,1.31-3.83,4-4C58.05,13.48,55.87,15.46,57.21,16.92Z"/><path class="cls-46" d="M87.9,43c.93-3.65.83-7.37.83-11.09C90.32,35.79,91.08,39.56,87.9,43Z"/><path class="cls-47" d="M74,22.69l-4.47.11c1.81-1.15.61-3.27,1.21-4.89C73.42,18.72,72.07,21.74,74,22.69Z"/><path class="cls-48" d="M86.85,28.19c-1.57-.72-2.91-1.64-3.18-3.53,2.23.93,2.1-2.82,4.46-2.12C88.75,24.65,85.4,26,86.85,28.19Z"/><path class="cls-49" d="M25.46,45a4.34,4.34,0,0,1-.94-.13c-.1-3.39,1.32-6.28,3-9.06l.3,1.42Z"/><path class="cls-50" d="M24.58,71.85l.9,3V77c-.29.68-.59,1.35-.88,2-2.54-.31-2.17-2.34-2.37-4C22.66,73.71,22.43,71.9,24.58,71.85Z"/><path class="cls-51" d="M82.66,94h1.12a37.87,37.87,0,0,0,4.08,4.87,2.16,2.16,0,0,1-.9,2.12c-1.6,1.49-2.27,3.38-1.28,5.29s3,.29,4.48.7a3.68,3.68,0,0,1,1.34.56,1,1,0,0,1,.33.83c0,.31-.1.46-.18.46a70.24,70.24,0,0,0-12,4.84,2.83,2.83,0,0,1-1.56-.85c-1.38-1.27-3.16-1.45-4.86-1.57-2.35-.16.47,1-.24,1.28a1.51,1.51,0,0,1-1.29,1.39c-2.46-1-6.41-.1-5.63-5,.21-1.34-8.77-3.38-11.42-2.64-.94.26-1.86.57-2.79.87-.72.4-1.13.06-1.42-.58-1-2.55-3.66-1.63-5.29-1.82-2.51-.29.59.44.12.83a4.3,4.3,0,0,1,1.46,2.6,2.8,2.8,0,0,1-1.16,2.82c-1-1.67-1.62-3.64-4.12-3.89-2-.19-3.29-1.22-3.07-3.54.26-2.85-1.89-2.46-3.64-2.54a3.69,3.69,0,0,1-2.72.41A8.88,8.88,0,0,1,26.89,99c-.67-.91-1.76-1.67-1.2-3.06,1.11-1,.68-2.36.84-3.58-.28-1.9-1-3.83.45-5.59a1.34,1.34,0,0,1,1.38.61c-.3,8.63,5.52,10.5,12.41,11.16,2.94.29,5.61,2.14,8.7,1.55a8,8,0,0,1,3.6.89c7.82,3.32,16.3,4,24.42,6.13,1.12.29,2.4.27,3-1a4.5,4.5,0,0,0-1.1-5.79,2.62,2.62,0,0,1-.11-1.36C80.49,97.32,81.12,95.33,82.66,94Z"/><path class="cls-52" d="M92.59,123.76c1-3.58-4-6-1.87-9.78.8-2.28,3.77-3,4.14-5.56a2.22,2.22,0,0,1,1-.84A2.06,2.06,0,0,1,98,108.9a5.78,5.78,0,0,0,.71,1.92,8.09,8.09,0,0,1,1.9,3.81c.54,3.07-.75,5.68-2.1,8.27C96.79,124.89,94.9,125.8,92.59,123.76Z"/><path class="cls-53" d="M97.9,110.84l-.42-1.94c-2.5-3.24-.11-7.48-2.22-10.79-.47-.6-1.05-1.08-1.55-1.65a2.11,2.11,0,0,1,0-2.88c2.23-1,4.2-.43,6.06,1a11.66,11.66,0,0,1-.49,7.64c2-1.36-.82-4.92,2.22-6.18,1.59,5.07-1.55,9.19-2.76,13.7C99.39,110.76,98.63,110.79,97.9,110.84Z"/><path class="cls-54" d="M101.52,96c-2,2.24.26,5.62-2.56,8.25-.9-3.57,1.6-6.57.63-9.63.73-3.27-.88-7,2-9.87,1.67.28,1,2,1.76,2.83A8.63,8.63,0,0,1,101.52,96Z"/><path class="cls-55" d="M92.59,123.76c2,.11,4,.16,5.24-1.78,1.83-.34,2,1.2,2.62,2.28.07.21.13.41.19.62-1.5,2.93-4.53,2.6-6.91,2.61S92,125.34,92.59,123.76Z"/><path class="cls-56" d="M77.65,119.82l-1,.33c-1.76.8-2.74-.1-3.45-1.58-.09-.82,0-1.64-.09-2.45-.07-1.4,0-2.72,1.83-2.83s2.22,1,2.17,2.53a3.45,3.45,0,0,0,.41,1.89Z"/><path class="cls-57" d="M97.9,110.84l.86-1.15c4.24,4.61,4.08,9.77,1.88,15.19l.06,0a6.46,6.46,0,0,1-.81-6,8.61,8.61,0,0,0-.1-5.24Z"/><path class="cls-58" d="M77.57,117.71c-.79-.21-.84-.86-.87-1.5-.07-1.28-.46-2.31-2-2.1s-1,1.41-1,2.29.08,1.62.13,2.43c.26,1-.21,1.17-1,1q-.54-3-1.1-6l1.16-1.05c1.82-1.79,3.68-1.33,5.56-.09l1.23.89C76.83,113.92,77.92,116.17,77.57,117.71Z"/><path class="cls-59" d="M95.51,107.88c.7,3.83-3.07,4.17-4.79,6.1-.42-1.78.91-2.49,2-3.5,1.87-1.78-.08-1.49-1-1.7a6.4,6.4,0,0,0-.05-.88A2.57,2.57,0,0,1,95.51,107.88Z"/><path class="cls-60" d="M27.57,87c-1.42,1.59-.47,3.65-1,5.41-1.15-3.81-.11-8.34-5.15-10.74-2.2-1-.95-4.58-.15-6.92.64-1.87,1.57-3.64,2.36-5.46,1.61.38.88,1.65,1,2.6-1.07.73-1.3,1.93-1.65,3.05.2,2.4-.85,5.37,2.81,6.21.94-.26,1.41.35,1.87,1C29,83.72,29.28,85.35,27.57,87Z"/><path class="cls-61" d="M34.35,105.88c.34,2.54.24,5-1.83,6.85-1.25,1.13-2.61,2-3-.73-1.45-1.88-3.19-3.69-1.59-6.34,1.4-1.67,3.07-1.52,4.84-.73A4.9,4.9,0,0,1,34.35,105.88Z"/><path class="cls-62" d="M49.78,110.72c1.26,2.42,1.08,5,1,7.64.16.88.64,1.77-.13,2.6-1,1-1.94-1.46-3-.12-.48.61-.88,1.33-1.84,1-.13-3-.25-6-.38-9.06.75-.58,1.82-.07,2.53-.75A4.08,4.08,0,0,1,49.78,110.72Z"/><path class="cls-63" d="M28.53,105.25c-1.56,2.53,2.1,4.29,1,6.75-1.26-.44-2.88.63-3.89-.9a18.65,18.65,0,0,1-1-3.68C25.86,103.46,26.28,103.22,28.53,105.25Z"/><path class="cls-64" d="M49,112.91c-.31,1,.63,2.56-1,2.77-2,.24-.65-2.76-2.48-2.91,0-.62.07-1.24.1-1.86.09-.93.17-1.85.26-2.78C51.43,106.69,48.43,111,49,112.91Z"/><path class="cls-65" d="M25.69,106.94c0,1.39,0,2.77-.05,4.16-.11-2.69-6.34-3-2.74-7.15A.71.71,0,0,1,24,104C24.12,105.21,24.41,106.36,25.69,106.94Z"/><path class="cls-66" d="M24,104l-1.12,0c1.13-2.6-.23-6.07,2.79-8,.61.72,1.22,1.44,1.82,2.17C26.15,100,26.82,103,24,104Z"/><path class="cls-67" d="M45.83,121.83l1-2.2c1.5.19,1.73,1.42,2.08,2.54.17,1.8.4,3.62-1.44,4.81l-1.84-.13C45.7,125.17,45.76,123.5,45.83,121.83Z"/><path class="cls-68" d="M34.35,105.88l-1.5-.13c-1.63-1.86-1.93-3.78-.21-5.76l2.08,1C34.6,102.59,34.47,104.23,34.35,105.88Z"/><path class="cls-69" d="M101.57,84.74c-1.49,1.66.26,3.19.27,4.81,0,2.17-.43,3.84-2.25,5.06a11.31,11.31,0,0,1-5.68-.51c-2.43,0-3.19-1.06-2.25-3.31.51-.82,1.31-1.54.92-2.68-.48-2.1.58-3.88,1.4-5.61,1.91-4,3.65-4,6.67-.36l.74.78Z"/><path class="cls-70" d="M118.4,30.27c-.65,2.6-.55,5.73-4,5.51-3.32-.2-4.72-2.65-4.76-5.86,0-2.8,1-5.16,4-5.3C117.46,24.44,117.51,27.91,118.4,30.27Z"/><path class="cls-71" d="M105.85,55.88c-.09,2.4-.24,5.12-3.44,5s-4-2.57-3.85-5.37c.14-2.56.53-5.49,3.79-5.31S105.92,53.19,105.85,55.88Z"/><path class="cls-72" d="M91.66,90.79a3.75,3.75,0,0,0,2.25,3.31c0,.74.07,1.44.86,1.79-.09,3.28-2.28,4.1-5,4.29a3,3,0,0,1-2.2-1c-4.44.59-4.12-2.3-3.78-5.19,1.86-.31,3.82-.43,5-2.25Z"/><path class="cls-73" d="M113.58,44.21c-.5,1.93-1.21,3.67-3.22,3.34A3.06,3.06,0,0,1,108,43.79c.23-1.52.85-3,2.77-2.87C112.84,41.06,113.09,42.85,113.58,44.21Z"/><path class="cls-74" d="M100.65,82.14c-2.91-3.25-4.81-2.21-6.16,1.42-.57,1.54-1.27,3-1.91,4.55-1.8-4.39.53-7.67,3.77-9.61C99.2,76.8,100.69,79.13,100.65,82.14Z"/><path class="cls-75" d="M99.64,65.88c1.68.08,2.16,1.21,2.18,2.64,0,1-.17,2.17-1.37,2.21-1.89.06-2.32-1.49-2.51-3C97.78,66.59,98.45,66,99.64,65.88Z"/><path class="cls-76" d="M72.78,119.84l1-1a3.63,3.63,0,0,0,2.88,1.32,1,1,0,0,1-.1.78c-1.51,1.8-.73,3.95-.93,6-.59,2.94,1.75,6.18-.9,8.91-1.18-.51-1.65-2.15-3.23-2,2.6-1.72,1.65-4.29,1.58-6.64S72.9,122.27,72.78,119.84Z"/><path class="cls-77" d="M49,112.91c-1.17-1.52,1.34-5.48-3.17-4.78l-1.17-2.08c2-1.76,4.06-1.46,6.07,0l1.13,1a3,3,0,0,0-2.06,3.66C49.52,111.45,49.25,112.18,49,112.91Z"/><path class="cls-78" d="M49.86,120.88c.32-.84.64-1.68,1-2.52a11.48,11.48,0,0,1,.7,6.6l-.44,0-.43-.08c-2.09,0-1.8-1.5-1.77-2.83A2.05,2.05,0,0,1,49.86,120.88Z"/><path class="cls-79" d="M74.77,135.8q0-4.91.1-9.81a.93.93,0,0,1,1.64,0c.42,2,.21,4,1,6.06C78.09,133.71,78.46,136.54,74.77,135.8Z"/><path class="cls-80" d="M76.51,125.94l-1.64,0c0-1.87-1.86-4.41,1.73-5.06Z"/><path class="cls-81" d="M49.59,121.91l1,3c-.23,1.2.61,2.76-1.15,3.44-1.36.53-1.77-.29-2-1.38.11-1.68.21-3.37.32-5.06A1.11,1.11,0,0,1,49.59,121.91Z"/><path class="cls-82" d="M79.7,36.51c-.24,2.8-2.25,4.52-5.79,4.46-3.26,0-5.13-2.22-5-5,.18-3.07,2.34-5.75,5.66-5.75C77.69,30.18,79.75,32.22,79.7,36.51Z"/><path class="cls-83" d="M86.65,44.91l-1.1,1.18c-4.15-1.68-7-.86-7.91,4-.24,1.33-.48,2.46-1.93.81C78.22,43.78,79.87,42.88,86.65,44.91Z"/><path class="cls-84" d="M62.07,42.3c-3.11.75-5.63,4.63-9.43,1.82a11.11,11.11,0,0,0,8-3.33Z"/><path class="cls-85" d="M55.74,26.14c3,4.09,2.73,7.9-.69,9.37a5.31,5.31,0,0,1-6-.7c-1.79-1.67-2.68-3.73-.9-6.05C49.7,25,53,26.34,55.74,26.14Z"/><path class="cls-86" d="M55.74,26.14c-2.26,1.66-5.67,0-7.58,2.62C49.48,24.38,52.22,24.13,55.74,26.14Z"/><path class="cls-87" d="M45.44,63.16c1-.49,1.79.27,2.66.4,1.61.25,3,.42,4-2.05,1.35-3.4-1.08-3.55-2.67-4.68,2.45-1.67,4.75.3,7.11.42,4.5.24,8.91.45,13.21-1.14,3.62-.25,6.58-2.1,9.59-3.87,1-.61,1.83-2.14,3.34-.63s-.9,1.57-1,2.64c-.08,1.26-.91,2.46-1.41,3.69-.83-1.81-1.32-4-4.16-2a15.23,15.23,0,0,1-5,2c-3.25.77-5.72,1.69-5.68,6,0,3.05-2.8,3.53-5.22,2.85-2-.59-5.54,0-4.65-4.19a11,11,0,0,0-.14-2.9c-2.07-.11-1.93,1.54-2,2.4,0,2.07-.71,3.14-2.89,3-2.85-.23-3.81,1.45-3.94,3.95-1.59,1.29-.19,3.64-1.75,5-2.26-1.66-.24-3.47-.16-5.2S46.19,65.16,45.44,63.16Z"/><path class="cls-88" d="M44.05,48.81l-.67-.9c4-1.06,7.43,2.4,12.7.32C51.06,52.44,47.55,50.76,44.05,48.81Z"/><path class="cls-89" d="M27.57,87c0-1.63,0-3.25,0-4.87C31.85,81.29,35.84,82,39,85c3,2.78,6.07,2.91,9.5,1.16a1.28,1.28,0,0,0,.25.68c1.4,1.1,2.65,2.29,2.26,4.33a3.41,3.41,0,0,1-1.54,1.64,10.51,10.51,0,0,1-6,.3,8,8,0,0,1-1.39-.53,18.93,18.93,0,0,0-9.68-2.17c-1.86-.08-3.71-.18-4.38-2.41Z"/><path class="cls-90" d="M25.74,81.11c-2.39.49-3.83-.33-3.78-2.42a17.6,17.6,0,0,1,1-3.79c.55,1.39,1.11,2.78,1.67,4.17Z"/><path class="cls-91" d="M82.66,94c-.65,1.82,2,5.62-2.91,4.89-3.31.92-6.63-1-9.94,0-1.87-.49-3.82-.71-5.53-1.71-2.73-2.53-7.33,0-9.68-3.59-1.34-2.55,0-3.78,2.24-4.61l2.83.06c1.79,2.33,4.91.57,6.9,2.26C72,91.72,77.49,91.93,82.66,94Z"/><path class="cls-92" d="M66.57,91.28c-2.58.12-6,2.91-6.9-2.26l.9-1C62.44,89.34,66,87.65,66.57,91.28Z"/><path class="cls-93" d="M50.55,90.84c-.51-1.39-2.57-2.09-1.78-4,2.56-.75,4.32.64,6,2.26,0,2-1.18,2.66-3,2.64A2.08,2.08,0,0,1,50.55,90.84Z"/><path class="cls-94" d="M51.42,90.89a3.58,3.58,0,0,0,3.35-1.84c.68-.21,1.32-1.47,2.07-.09-.36,1.41-3.48,2.05-1.17,4.2A2.55,2.55,0,0,1,56,95.91a1.86,1.86,0,0,1-1.38.35C52.62,95,51.32,93.35,51.42,90.89Z"/><path class="cls-95" d="M64.75,95.76c1.39,1.57,3.5.7,5.11,1.53.14.43.28.86.45,1.28,2.08,3.05,4.75,3.69,7.82,1.84.42-.57.9-1,1.69-.66,5.2,1.43,2.19,5.38,2.14,8.08,0,3.3-2.79,1.3-4.16,1-7.12-1.48-14.2-3.22-21.29-4.84-1.44-.33-3-.34-3.61-2.12A4.92,4.92,0,0,1,55.82,99c2.06-1.22,5,.48,6.7-1.88A3.68,3.68,0,0,1,64.75,95.76Z"/><path class="cls-96" d="M28,88c1.37.64,2.75,1.27,4.32.82,3.29,1.69,7.5.38,10.46,3.16l.1-.19c.2.39.4.79.58,1.2.55,3.22,4.86,3.19,5.48,6.34a1.89,1.89,0,0,1-.15,1.34c.36,2.34-1.39,1.23-2.08,1.08-3.54-.76-7-1.75-10.57-2.58C27.43,97,27.42,97.05,28,88Z"/><path class="cls-97" d="M87.56,99.14l2.21,0c.87,1,1.39,2.28,2.83,2.66,1.76.46,3.16,1.3,2.71,3.43-.38,1.81-1.82,2.18-3.43,2.22a3,3,0,0,0-1.42.38,2.76,2.76,0,0,1-.49.07c-2.09-.23-4.5,3.73-6.15.09A6.32,6.32,0,0,1,87.56,99.14Z"/><path class="cls-98" d="M32.64,100l.21,5.76c-1.54.76-2.76-1.39-4.32-.49-2.49-2-2,.9-2.84,1.68-3.09.44-2.52-1.18-1.67-3,1.86-1.53-.85-5.8,3.49-5.85C28.92,99.57,30.83,99.64,32.64,100Z"/><path class="cls-99" d="M48.8,100.62l-.09-.14C48,98.71,47.24,97,47.88,95c.51-1.11,1.4-2,1.69-3.27l1-.87a5.26,5.26,0,0,0,.88,0c2.12,1,2.32,3.4,3.44,5.13,1.1,1.18,1.8,2.45.88,4.07a3,3,0,0,1-2.84,1.79Z"/><path class="cls-100" d="M90.46,107.8c1-.49,2.11-.91,3.09-1.48a1.92,1.92,0,0,0,.87-2.13c-.2-1.11-1.07-1.19-1.88-.94-5.64,1.73-3.14-1.91-2.77-4.14,2.3-.1,3.4-2,5-3.22l1.84.07c.43,4.05.5,8.08-.85,12l-.25-.09-3.91,0Z"/><path class="cls-101" d="M78.4,112.73l-5.56.09c-.44-.2-.87-.44-1.32-.61-1.4-.53-4.06-.15-3.47-2.37s2.7-.65,4.16-.36A37.89,37.89,0,0,1,78.87,111C80.84,111.79,78.46,112.1,78.4,112.73Z"/><path class="cls-102" d="M50.71,106.07l-6.07,0a24.84,24.84,0,0,1-2.83-.69c-.91-.33-1.91-.79-1.52-2.07s1.34-1.13,2.36-.87c2.83.73,5.75,1.2,8.47,2.2C53.25,105.39,51.44,105.73,50.71,106.07Z"/><path class="cls-103" d="M69.7,98.78c0-.5.11-1,.16-1.48,3.42-.26,6.83-.51,9.89,1.54a3.09,3.09,0,0,1,.07.91l-1.12,1C75.19,102.41,72.21,101.69,69.7,98.78Z"/><path class="cls-104" d="M95.76,108a54.29,54.29,0,0,1,.85-12c2.42,4.17.52,8.63.87,12.94Z"/><path class="cls-105" d="M99.79,113.68c2,3.6.34,7.5.91,11.22-2.87.91-1.4-2.46-2.88-2.92C98.46,119.21,100.37,116.74,99.79,113.68Z"/><path class="cls-106" d="M49.59,121.91H47.8l-1-2.29c.62-.52-.77-2.07.89-1.95,1.93.14,1.94,1.78,2.13,3.2Z"/><path class="cls-107" d="M74.11,32.87c2.2,0,3,1,3,2.49a2.48,2.48,0,0,1-2.75,2.78,2.43,2.43,0,0,1-2.5-2.53A2.41,2.41,0,0,1,74.11,32.87Z"/><path class="cls-108" d="M52.69,33.26c-1.47-.14-2.67-.77-2.7-2.33a2.55,2.55,0,0,1,2.75-2.82,2.42,2.42,0,0,1,2.68,2.34C55.54,32.24,54.42,33.11,52.69,33.26Z"/><path class="cls-109" d="M61.24,59c1.31.22,3.68-1,3.21,2-.31,2,0,4.72-3.41,4-1.69-.36-4.36.68-4.33-2.56C56.73,59.47,58.28,58.34,61.24,59Z"/><path class="cls-110" d="M49.57,91.71c1,1.39,0,2.17-.91,3-2.58,1.59-4.66,1.39-6-1.62.07-.45.14-.89.22-1.33Z"/><path class="cls-111" d="M42.79,91.93c-3.31-1.64-7.37-.78-10.45-3.16C36,89.33,40.1,88.26,42.79,91.93Z"/><path class="cls-112" d="M64.75,95.76,63.55,98c-3,.73-5.77.84-7.74-2.1-.05-.91-.1-1.83-.14-2.74C58.26,95.54,62.19,93.25,64.75,95.76Z"/><path class="cls-113" d="M55.81,95.9,63.55,98c-1.59,4.49-5.44.52-7.81,2.09-.56-1.3-1.35-2.55-.88-4.07A5,5,0,0,0,55.81,95.9Z"/><path class="cls-114" d="M69.7,98.78l9,1.93c1,.87,1.31,2.6.2,2.69a18.63,18.63,0,0,1-10.17-2.28C67.45,100.46,68.33,99.17,69.7,98.78Z"/><path class="cls-115" d="M42.67,93.07c2,.67,3.83,1.68,6,1.62l.05,5.79c-1.38-1.73-2.47-3.67-5.06-4.08C41.6,96.07,40.85,94.81,42.67,93.07Z"/><path class="cls-116" d="M33.31,91.48c1.4.82,4-.46,4.49,2,.3,1.67-1.55,1.71-2.47,1.2-1.53-.86-4.56.47-4.51-2.61C30.84,90.63,32.32,91.39,33.31,91.48Z"/></g></g></svg>