<svg id="Layer_1" data-name="Layer 1" xmlns="http://www.w3.org/2000/svg" xmlns:xlink="http://www.w3.org/1999/xlink" viewBox="0 0 34.73 34.58"><defs><style>.cls-1,.cls-6{fill:none;}.cls-2{clip-path:url(#clip-path);}.cls-3{clip-path:url(#clip-path-2);}.cls-4{fill:#fff;}.cls-5{fill:#bdc6b7;}.cls-6{stroke:#1a1818;stroke-linecap:round;stroke-linejoin:round;stroke-width:0.5px;}</style><clipPath id="clip-path"><rect class="cls-1" x="0.22" y="0.22" width="34.28" height="34.13"/></clipPath><clipPath id="clip-path-2"><rect class="cls-1" x="0.25" y="0.25" width="34.23" height="34.08"/></clipPath></defs><g class="cls-2"><g id="Group_232" data-name="Group 232"><g id="Group_231" data-name="Group 231"><g class="cls-3"><g id="Group_230" data-name="Group 230"><g id="Group_229" data-name="Group 229"><g class="cls-3"><g id="Group_228" data-name="Group 228"><path id="Path_1488" data-name="Path 1488" class="cls-4" d="M28.61,13.2a4.2,4.2,0,0,1-.94,1.27q-5.46,5.45-10.91,10.9a2.88,2.88,0,0,1-2.33,1.06,9.76,9.76,0,0,1-2.81-2.38c-1.57-1.57-3.15-3.13-4.69-4.72-1.17-1.2-1.16-2.24,0-3.45.34-.36.68-.71,1-1a2.09,2.09,0,0,1,2.93-.24,2.83,2.83,0,0,1,.25.24c1,.94,2,1.91,2.9,2.92.57.63.91.68,1.53,0,2.35-2.42,4.78-4.76,7.16-7.13.89-.88,1.71-1.91,3.18-1.4A4.85,4.85,0,0,1,28.6,13.2"/><path id="Path_1489" data-name="Path 1489" class="cls-5" d="M17.36.25a17,17,0,1,1-17.11,17h0A17.08,17.08,0,0,1,17.36.25M27.67,14.47a4,4,0,0,0,.93-1.27,4.85,4.85,0,0,0-2.68-3.92c-1.48-.51-2.3.52-3.18,1.4-2.39,2.37-4.81,4.71-7.16,7.12-.62.65-1,.6-1.53,0-.92-1-1.9-2-2.91-2.92a2.08,2.08,0,0,0-2.92-.25L8,14.85a14.43,14.43,0,0,0-1,1c-1.15,1.21-1.16,2.25,0,3.45,1.54,1.59,3.11,3.15,4.69,4.72a9.63,9.63,0,0,0,2.81,2.38,2.87,2.87,0,0,0,2.32-1.06q5.44-5.46,10.92-10.9"/></g></g></g></g></g></g><path id="Path_1490" data-name="Path 1490" class="cls-6" d="M28.61,13.19a4.12,4.12,0,0,1-.94,1.28q-5.46,5.45-10.91,10.9a2.91,2.91,0,0,1-2.33,1.06,9.76,9.76,0,0,1-2.81-2.38c-1.57-1.57-3.15-3.13-4.69-4.72-1.17-1.2-1.16-2.24,0-3.45.34-.36.68-.71,1-1a2.09,2.09,0,0,1,2.93-.24,1.88,1.88,0,0,1,.25.24c1,.94,2,1.91,2.9,2.92.57.63.91.67,1.53,0,2.35-2.41,4.78-4.75,7.16-7.12.89-.88,1.71-1.91,3.18-1.4A4.86,4.86,0,0,1,28.61,13.19Z"/><ellipse id="Ellipse_6" data-name="Ellipse 6" class="cls-6" cx="17.37" cy="17.29" rx="17.12" ry="17.04"/></g></g></svg>