<svg id="Layer_1" data-name="Layer 1" xmlns="http://www.w3.org/2000/svg" xmlns:xlink="http://www.w3.org/1999/xlink" viewBox="0 0 233.87 250.24"><defs><style>.cls-1{fill:none;}.cls-2{fill:#6c613c;}.cls-3{fill:#799b56;stroke:#000;stroke-miterlimit:10;stroke-width:0.5px;}.cls-4{fill:#b7c49d;}.cls-5{fill:#0c0d0d;}.cls-6{fill:#78543c;}.cls-7{fill:#4f3a25;}.cls-8{clip-path:url(#clip-path);}.cls-9{fill:#0f0f0f;}.cls-10{fill:#768b49;}.cls-11{fill:#b5becb;}.cls-12{clip-path:url(#clip-path-2);}.cls-13{fill:#050605;}.cls-14{fill:#7d5742;}.cls-15{isolation:isolate;}.cls-16{fill:#f8f8f8;}</style><clipPath id="clip-path"><rect class="cls-1" x="73.12" y="112.58" width="21.54" height="12.81"/></clipPath><clipPath id="clip-path-2"><rect class="cls-1" x="-1.35" y="156.53" width="90.32" height="81.4"/></clipPath></defs><path id="Path_1571" data-name="Path 1571" class="cls-2" d="M115.67,148.75l3.14,5,0,1.32-1-.77-1.34-.44.2,2.16-1.14,1.2-.65,2.51-.57,2.53h-1.76l-1.14-1.42-.43-1.68-1.66-1.33,1.23-.94.21-1.79-2.31-2,1.38-1h1.62l-1.14-2.88-1.69.39-.11-1.35,1.64-1.15,1.49-.39.44,1.8,1.16.64,1.88-.19Z"/><path id="Path_1572" data-name="Path 1572" class="cls-3" d="M134.4,106.85m27.46,31-.08-1.72.47-1,1.84.61.08,2,.64-.84,2-1,.42,1.16-1,.89-.64,1.17,1.34.33.43,1.33-1.13,0-.52.88.89.72.47,1.95,1.85.11v-2.44l1.57-.05-.25.88,2,1.22-1.52,3.6-1.87.67,2.62.94,1.71,1.66-1.94,1.55-1.51-.11-.72-.38-.26-1.22-.95.05-1.88,1.55-1.33-.72.3-1.22.69-1.33.76-1.71-.65-1.56-1.75.61-1.15-1.27.47-1.17-.71-1.16.37-1.55-1.41-.05-1,.78-.66,1.89-1.3.83-1.8.22-1.1-1.11-1.43-2.05,2.37-.44,2.09-.34.69-.94-1,.11-2,.17-2.05-.89,4.39-.94.08-1.45.08-1.17,1.45.73.31,1.27Zm9.7-16.28,1.75-2.26,2,1.48-.6,1.2-.59,1.12.33,1.41,2.34-.22.52,2.68-.74,1.47-1.56.21-.41-1-.4-1.2-1.64.35.75,1.7-1.08.63-1.7-.28-.62-1.06-1.4-.91-1.37.84,1.24,2.18,0,1.55-1.64.35-2.19-.35.73-1.13-1.25-1.62-2.91-.69.68-2.11,1.7.35.17-1.55,1.9,1.12,1.84-.14-.74-2,1-1.19,1.62.7,2.2.21Zm-95.5-1.85.08-2.17,2.32-.19,1.92,1.74-.57.86L82,121.61l-.77,2.65L79,123.15l-1.37-.62-.26,1.61,2.1,2,1.12.62-.88,1.48-1.12-.37L76.26,126l-.7,1.54-.08,1.67-.26,1-2.94.07-2.18-.5.14-1.55,1.88-.37,1.37-.18-1.17-1.86-.82.93-.49-.66-.21-.68.8-.42.71-.06.72-1.41-.61-.76.17-.89,1-.75,1.69.25Zm5.48-30.32-1.05-1.31,4.12,1.63L84,90.87l-1.7.5-.39,1,1.51.5.87.75.68,1.3-.14,1.19-.88.38-1.52,1.3-.83.88-1.19.88-1.13-.69L77.7,97.73,77.06,99l-1.32.44-1.69-1.13-.87-1.12-.89.69-.7,1H70.53l-2.69-1.06,1.46-1.61,1.83-1.57,1.44.25,1.12.94,2.13,1.43,1-.62L77,94.92,75.09,93.8l-1.94-.31-1.38-.63.71-2.48L74.63,89l1.24,1.56,1.4-1.62,1.32-.44.17,2.06Zm56.1-12.06.31-2,.41-1.45,2.69.5,1.73.95L144.22,77l-1.1,1.68-2.34-1.06-.84-.67-.48,2.12L138,80.34l-1.35-.28-1.73-1-1.3.22-1.13.39-.31-2,2.05-1.62,1.85,1.06.66.9Zm-51.39,3-.17-1.1,1.34-1.37,2.36-.49.49-1-.29-2,1-.8L93,73l.43,1.55L95,75.1l2.66.4L97.8,77l.2,1.81-1,1.15-1.36-.62L93.23,77.7l-.45.93L94,80l-.65,2.29-2.61-.49,0-1-1.9.4-1,.57Zm32.94-15,1.74-.22,0-1.62.9-.56,3.47,1.51-.64,1.62,1.4.34,1,1.12.09,2.07L125,70.88l-.65-2.13-1.19,1.39-1.79-.9.36-1.56,1.19-1-3.15.22Zm-9.12-25.77-2.48,2-1.31,2.15-2.22.67-1.74.41L101,46.23l.75,2.15,2.77.15,2.3.67L106,50.73l-2.36,0L102,52.22l5.84.77,1.47,1.28-3.65.66-1.23.1-2.07,1.7.7,1.58,2.19.89.64,2.15-1.45,1.58-5-.72-1.38.2-2.24-1.68-.28-2.4-.85-1.69,2.3.51,1.12,1.28,1.35-2L97.34,53l-1.13.71-.73.72L93.75,53.2l-.66-1.69-.86-2-1,2.41-.13,2L89,53.05l-2.4-1-1.3,1.13,1.17,1.59-1,1.13-1.39,1,3.17.72,1,2.7L85.87,62l-.78.77,0,1.73-.94,1.74,1.53.2,3,.58.49,2-2,2.09L85,72.84l-1.66,1.64-3.65.71-2.86-1,.07-1.53,2.2-.16,2.27-1L82,69.33,80.1,67.54l-1.85-.92-.4-1.89-3.47-.91-1.5,1.84-4.15-.41.06-1.84-1.22-1.49L68.4,61l1.94,1,2,.41.57-1.84L72,59l-2.67-.56-2-.26-.56-.77-2,.21-.07,2.3-1.4,2.71-1.9.4-1.39.21-.36-1.69-.75-2.2-1.24.41-.27,2.1-1.65.92-1.32-1.13-.91-1.79-.93.66-1.59-.15-.78,1,.3,1.89L50,65.9l-3.64.82-1.1,1.68,4.35.46,1.07,2.25-1.8.82.2,1.58,2,1.68,1.9-.87-.19-2.65,2.09.51.86.92,0,1.17-.57,1.17L57,74.58l.61,1.48-1.39.5L55,77.79l1.39.78L58.25,78l1-1.27L61,80l-2.52,1.68-.55.76L56.19,83l1.51,3.66,1.27.56,2.67-1.12,2.6.91,1,1.58,1.5-1.22,2.32-2.8L67,83l2.27-1.84,1.36,1.33,1.17,2.24-.68,2-.89,3-3.62-.16L66.2,92l-2.3,0-1.58-.91L59,92.88,56,93.6,55.49,96l2,4.31-3.17.41-2.63,2.78-3.31-1.36-1.22-.91L46,103.38l-1.78-2.94,1.85-1.12,2.19.81,1.94-.5,2.11-1.78-2.18-4-2,0,.06-1.87-1-.15-1,1.31-2-3.14-.4-1-4,.51.65,2.64L37,91.56l-1.44-2-3.32.76-.06,1.58,1.12,2.85-1,2.29-3-1.42-.82-.11.86,2.74.05,1.37-1.69.76L29,101.72l3.26,1.16,1.77,2.7-2,.31,2.29,1.76-.67,2-3.52-.45-.82,1.92,1.26,1.72,1.53.45.91,1.72,1.94-.71,1.85-2.27,2.19.35L41.18,114l2.35-1L46,109.38l2.59,3.69-1.19,2.43-1.57-.85L43.56,117l3.72,1.62L48,120l-.56,1.57-4.93-2.19.45,1.94,1.21,2,1.47,1-1.28,1.52-2.7.45L40.36,128l-2.55-.65-1-1.61,1.53,0,.11-3.23-.34-2.47L34,119.62l-1,1.67-.47,3.38L31.65,128l-2.15,1.7-2.13-.2-1.64-1.18-3.15.19L24,133l4.42.86,1.83,1.92-1.39,1.6-2.08,0,.86,2.21,4.94-1.36.65,3,1.37.46,2.45-2.77-.79-3.82v-2.37l2.44-.55,2.88,4.58-.93,2.92L39,141.29l-2.55,2.82,1.78,2.54-1.33.69-1.63.45,2.43,1.72,2.64,1.39.55-.06,3.21-.39.48-4L42,144.09l1.34-1.91L49,143.87l.89-3.32.47-3.37-1.61-2.6,2.19.5.79,3.72,2,2.46,1.3-4.37,1.68-1.06,2.93,2.87.5,2.26L52,144.13l-1.39,2.76,1.81,2.25-3.1.75L48.84,151l.95,1.65,1.4,3.25.66,1,1.52,1.1,1.38-1.9.73-3.71,1.13-1.55,2.32,2.4.69,2,1.73.7.48,3.92-2.42.59h0l-3.65-.2-.92.9-.73,3.15,1.71,1.91.9,2,3.18,1.29.89-1.11-1.38-1.7.25-1.45,1.89-1.05,1.4,1.29.23,1.62,2,.65.26-1.7L65,164.22,67,163.9l1.79,2.51,2-.33.34-1.22-.56-1.69-.65-1.46.26-1.94,1.65-1,1,1.54,2.3-1,0-1.38,0-1.38L73.26,156l-1.72-.8-1.71-.82-.15-2.51,2.72-1.38H74l.46-.94.45-.94-2.45-1.38-.72-2,.34-1.87h1.48l1.73-.57.67-1.54.71-.25.72-.24.47-.17.73,1.87,1.22.89-1.92,1.46-1,1.79,1.39,1.38,2.39-.49.27-2.35,1.32-.16.4,1.13.19-.66.2-.67,1-.76,1.63-.12.1-1.24-.56-.68-2.15.28-2.72-3.2.28-1.79-1.1-1.29,1-1.42,1.82.13.21-1.8,1,1,.77,1.15.84.39-.67,2.12.7,2.18,2.22-1,.6-1.48.92-.64,1.16.13-.3-2.57.08-1.29,1-.39,1-2.35,1.52-.61,1.21,1.68-1.24,1,.71.83L97,133l2,.39.75,2.38-.29,1.86-1.13,2.18-1.43-.13-.49-2.05-3.26.83,1.54,2.12,1.39,3.28.11,2,1.8,1.73,1.62.2.24,1.34L99,150l-1.44,1.15.18,2.05.89.9,1.18-.32,1.17-.32,1.71-2.24.59.12.58.13.83,1,.83,1L107,156.7l.08.15,1.67,1.41.54-.41,1.23-.93.21-1.8-2.31-2,1.38-1h1.62l-1.14-2.88-1.69.38-.11-1.34,1.63-1.16,1.5-.39.43,1.8,1.16.64,1.89-.19.58-.3.79-.4-.56-1.22L114.34,146l.4-.9,1.11.65,1.45-.1.52,0,.38-1.12.3-1.63-1.22-1.39-1.28.11-1.28.11-.44-1.58-.12-1.19-.39.47-2.07,2.43-2.15.54-.53-1.81,2.07-.68-.3-1.53-2.23-1.14,1-1.42,2.44-1-.84-2.08,1.92-.4,1-2.21-.21-1.27.92-.25.92-.25,1,.14,1,.13,1.65-.36.84,1.63.11,1.77,0,.81-.06.95,1.22,1-.37.73.4.52.4.52,1.33-.09,1.33-.09.54-1.85-.12-1.22,1.86,1,.34,2,.3,1.49-.39,1.36-1,.45-1.2.86.34.3.92.78h1.51l.12.9.22.9.77.41,1.19.27,1.15-1.26.16-1.09-1.23-1,.48-1.31,1.79-.5.76,1.36,1,.13,1,.14,1.16-.73-.16-1.76.69-.13,1.1.09.79-.95-.75-1.86-2-.26-.79.76-1.2.55-.78-2.36.3-1.4.92-.55,1.27.46h1.43l.93-1.72-.2-1.81.79-.27,1,1.85,1.15-.5,1.45.82.8,1.3.13.76.2,1.28-.91,2.49-1.15.72-1.23.33-.46.71-.26.54.44,1.31L141,140l.17.81,1.36.59L144,141l2-4.61,1.77,1,.53,1.4.2,1.76-.08,1.94-1.33.45-.6.18.27,1.19,1.17.9,1.17.9-.06,1-1.06.81-.25.95,1.26,1.35.2,1.16-.47,1.22-1.24.4-.84-1.53-1.39.9,1.15,2.25v0l.38,1.39-2,.55-3-.05,0,1.76,1.56,1.92.72.82h0l1.34-.22.54-2.47,1.29-.5.82,1.67-1.84.85-1,1.26-.24,1.31.23.19,1.84,1.49.55.07,2.13.25,1.3-1.08-.35-1.13H153l1.69.41.92-.93.24-.25-1.37-2.55-.9-.72,1.95-1.89,3.11-.5,1.09.54.66-1.35.61-.83.18-.25,1.27.27,1.3,1.4.06,1.88-.89,1,1.76,1-1.12,1.44-1.78.18-.78.08,1.51,2.12.58.84,1.13.82.43,1.74,2.19-.17.92-.59.22-1.84-1.62-1.26,2.52-.85,1.17,1.12.65,1.62.2,1.7,0,1.22,1.37.54,1,.18,1.88-.36.72-1.88.29-.86,1,.18,1.65,1.57,1.64-.05,1.26-.89.76-1.75-1.56-1.4-.39,1.08-2.77-.39-.48-.94.61-.85,1.19-.36.4-1.58-.2-1.48-1.73-.31-2.08-1.35-.07-1.44,1.95-2.67,2.26.22.46,2,.35,1.22,1.74.36.93.93-.26,1.51,2.92.15-.34,2.08-.31,1.15.42.86.42.86,2.34-.5.46,2.44.27,1.07,2.09.79,1.17-.21,1.43-2.08-1.38-.51,3.36-.28,1.84-.79-1-2.37-1.58-1.15,2.63-.22,2,1.08,1,.28,1.47-.65-.07-3.16-.93-.71-2,.86-1.61-.07.18-1.23,1.12-1,.55-2-2.67-1.44-1.34,1.65-1,1.08L192,153.79l1.43-2.15-.76-1.95-3-.72-1.34,1.52h-1.46L186.1,149l0-1.73-1.06-1.51-.69-.18-.7-.18-2.27.5-1.29-.65-.63-1.44-.11-2-2.31-1.51.11-1.74,1.18-.5,2.6,1.87,2.31-2,1.32-.44,2.35,2.89-.76,1.52.47,1.94,2.25.8.11,1.73,1.92-1-1-3.46.55-2.09,2,.64,1.06,1.52-.12,2.31,2.26-.87.32-1.08,1.13,1.81,1,1,1.08-2.89-1.57-1.88-1-.65,2-1,2.57-.53.33-1.95-.17-2.17-.68-2.1-1-.43-1.23,2.46-1.21-1.31-2.11-.5L195,135l-1.32.58-.7-1.88.47-1.45-.61-1.95L191.18,129l-1.26.8-.92,2h-2l-1.06-2-.31-2.61-2.61-1,.2-1.45.44-1.78-1.13-1.54.35-2.63,2.49-.11,2.77-2.76,1.25,1.21-.61,1.43,4,.17,1.23-.28-.29,2.63.71,2,1.87,1.9,2,1.48.46-3,1.18-.92.32-1.49-1.76-1.2.43-1.09,1.1-.34,1,.23.6-1.15-1.36-1.08L199.26,113l-1.76-.58-2.74,1-3-.18-1.4-2.29-.53-2,2.27-.79.54,1.72,1.38.52,2.5-.46.5-1.67-1.79-.79,2-.25,1.93-.86.26-1.45-.71-2.19.46-2.19-2.07-.86L196.3,101l-1.79,0,0-1.32L192,100l-.78,1.49-.92,2.3-2.48-.46-1.7-2.3-1.48,1.67-.38,1.43-2.35-1.09-1.84-.63-1.2,2.37-.44,1.83-.56,1.73-1.21-.06-1.54-1.61L173.71,104l-1.7,1-.3-2.41,2.1-.75.5-2.07-.38-1.44,2.93-1.44,2.59,1.33,1.81-.74.78-1.62.86.47,1.33.34,1-1.33,1.11-.17.73,1,2.2.4-.18-2.24-1.9-1,.91-1.64,1.74.06-.25-2.31-2.23-1.5-1.34.34-2.27.41-2.48-.74,1.48-1.74,1.11,0,.86.28,1.18-.91.32-1.62-1-1.85-.33-1.09.37-.93h-2.73l-.66-2,0-1-1.24-1.85-2,.87-1.32,2.31L177,80.65,175.64,82l-2.43-.81,1.19,1.62,2.28,2.08.3,2.19-1.22,1.15-3.26.4-.15-1.27.82-.69-.47-2.43L171,82.44l-2.61-.52-.59.75,1.08,4.09-.67,1.68L166,89.76l-.8-1.75-3.37-1.18,1.24,2.42.49,3.14L161.69,94l-1.5-.45-.42-2.32-3.22-1.78-2.13,1.41-1.26,1.45-1.7-.36L154,97.51l-2.89.17-1.91.23,1.91,3.44.32,2.66,2.62.36.11-2.61,1.6.51-.37,2.28.22,2.06,2.9.51,3.69-1.88-.66-3.62,1.83-.58,1.82.36-.14,3.48,1.66,1.59.94-4,2.58,2.68.28,4.34-1.06,1.94L168,110.14l-1.28-2-2.66,2,2.41,3.48-2.05.58-2-.73-1.47.62,0,1.82,1.6.78,2-.28.21,2.35-1.45,1.83-1.53-1.19-.74,2.79-1.5.34-2.5-1.6,1.41-1.93.61-1.59-1.64-2.23L156.07,114l-1.06-1.6.2-1.88-1.5-3-1.32-.4-.74,2.63,1.06,2.34-1.58,1.19h-4.08l-2.58-.63-.32,1.94,1.71,1-.2,1.87-.78,2-3-.46-.48,1.65-1.42-1.3.42-1.43,1.29-1.37L140.18,114l-1.85-.57-2.11-.74-1.55-1.08,2.12-2.86-2.38-1.94-1.59,2.51-1.29,1.43-3.34-.11-2.37.17,2.33-1.43.41-.75-2-2.17-2.51,1.83.15-2,1.86-1-.39-1.26-1-.85,1.92-1.43,1.21-.12,1.59,1.72,1.4-.69.79,1.49-.15,1.88,3,.74,1.56-.34.54-1.31L134.94,103l.78-2.12,1.91-.28,1.16,3.14,3.45.29.77-1.26-.67-1.37,4.27-.14,2.14-.46-3.56-4.63-.61-1.83L148,94l1.32.63,1.55-.6-.11-.74.11-1.1-.38-.8-.39-.19.48-1.1,1.18-2.93,1,.45.61,1.16,1.37-.2.76-1.13-.4-1.69-.8-1.62-.21-1-.62,0-.25-.62,1.51-.2.64-.3,0-1-.6-.9-.51-.43,1.4-.56.48.31.73-.74.63,1.2-.39,1.1.73.82,1.8-.28,1.19.06,0,1,1.3.64,1.54-.53.54-1.5-.57-1-1.19-.34-.05-2,1.16-1.3,1.72,1.05.56,2.1,2.24-.67.62-1.6,2,.78.8-1.18-.16-1.1-.56-1.54.81-2.38.74-.45.34-1-3.35-1.5-.43,1.37-1.07.77-.8-.86L165.52,70l-1.43.59-1.78.67-1.95-.41-.62-1.13,1.48-1,1.22.41,1.5.27,1.16-.9.11-1.6,1.29-.68-.11-1.55-1.89-1.13-1.4-1.09.34-.86.63-1.73-1.88-.19-1.61.82-.12,1.64-1.35-.37-.81-1.13-1.13-.46-1.66.73.42,2.14H153.6l-.89,1.59,2,1,.39,1.41-2,2.81-2,.36-.68-2.81-2.16.45.44,1.23-1.34.95-.76-.9.18-2.55-1.5-.09-1.38.55-2,.13-.06-1.91,2.41.5.83-1L143.7,63.4l-1.77-1-1.19-2.52,1.06-.67,1.1.18L144,60.53l1.8,1,3.53-.72L147,57.44l-.92-2.14,1.47-1,1.73.32-.3-1.93L147.28,50,146,49.63l-.57,1.09L144.27,52l-.81,2.55-1,.14-1-1-.81-.46-1.25.55-.62-1.36,1.75-.69,1.46-2,2.25-.68-.39-1.69-1.44-.82-2.25.9-1-.59L138.08,45l.15-1.14-2.38.18-.35,2.37.48,1.73L132.2,50l-1.43.78,1.67,1.91,1.67.87-.9,2.42-2.26-.3-1.28-.86-.5-.64-.46.83,0,1.76-1.35.41-.67-.1,1.1,1.57,1.62.57-2,2.08-1.91,1.31L124,61.29l.28-1.5-1-1L122,57.73l-1.78.38-.59.58-.2-1.86.22-1.69-1.79-.1-1.3.36-.86-2.34,3,0,.92.86,1.4-1.73.4-1,1.46,1.12,1,.44,1.27-.86-.22-3.12-.11-1.5-2.06,0-1.19-.06-.68-1.28,0-2.28-1.11-1.82-1.09-.15-.34-1L118,40l-2.1-.12-1,.32,1,1.67.81,1.31-2.2,1.57-1.41-.38-.36-2.15-1.44-.35-.41-.67-.07-1.45Z"/><path id="Path_1573" data-name="Path 1573" class="cls-4" d="M182.32,169.06l-.49,2.31h-2.47l-.48-1.62-2.65-.69-.6,1.25-.12,2.51-2.23.62-3.09-2.18-2.45-1.44L166.26,171l-.88,2.56-2,2-1.69-.94-1.32-1.06-2.14-1-.86-1.56L155,170l.47-1.5-2.22-.68-2.85-.44-.15-.62,9.14-2.27,3.1-.66.58.83,1.13.82.43,1.75,2.19-.18.92-.59.22-1.84-1.62-1.25,2.52-.86,1.17,1.12.65,1.62.19,1.71v1.19l1.36.54,1,.19,1.88-.36.72-1.88.29-.86,1,.18,1.66,1.57,1.64,0Z"/><path id="Path_1574" data-name="Path 1574" class="cls-2" d="M170.25,105.08l.28,4.34-1.06,2L168,110.14l-1.27-2-2.67,2,2.42,3.47-2,.58-2-.72-1.47.62,0,1.82,1.61.78,2-.29.21,2.35-1.45,1.84-1.53-1.19-.74,2.79-1.5.34-2.5-1.6,1.41-1.93.61-1.59-1.64-2.23L156.08,114l-1.06-1.6.2-1.88-1.5-3-1.32-.4-.74,2.63,1.06,2.34-1.58,1.19h-4.08l-2.58-.63-.32,1.94,1.7,1-.19,1.88-.78,2-3-.46-.48,1.65-1.42-1.3.42-1.43,1.29-1.37L140.19,114l-1.85-.57-2.12-.74-1.53-1.08,2.11-2.86-2.39-2,1.57-.34.53-1.32L134.93,103l.78-2.11,1.91-.29,1.17,3.15,3.45.28.77-1.25-.67-1.38,4.27-.13,2.14-.46-3.56-4.64-.6-1.83L148,94l1.31.63,1.56-.6-.12-.74.11-1.1.61-.22L154,97.5l-2.89.17-1.91.23,1.91,3.44.32,2.66,2.62.36.12-2.61,1.59.51-.36,2.29.21,2.06,2.91.5,3.69-1.88-.67-3.62,1.84-.58,1.82.37-.14,3.47,1.65,1.6,1-4Z"/><path id="Path_1575" data-name="Path 1575" class="cls-4" d="M99.63,147.88l.25,1.34L99,150l-1.44,1.16.17,2,.9.9-.24,1.46-1.53,1.56L94.74,157,93,154.63l.81-1.7-.2-1.28-3.43-2.06-1.23.85-.37,1,0,.71-3-3.87.06-4.29.09-1.23-.57-.69-2.16.28-2.72-3.2.27-1.8-1.09-1.29,1-1.41,1.82.12.21-1.8,1,1,.77,1.15.84.39-.67,2.12.7,2.18,2.22-1,.6-1.48.92-.64,1.16.13-.3-2.57.09-1.29,1-.38,1-2.36,1.51-.61,1.22,1.68-1.24,1,.71.84L97,133l2,.39.75,2.37-.28,1.87-1.14,2.18-1.43-.13-.5-2.05-3.25.83,1.53,2.12,1.4,3.28.1,2,1.8,1.73Z"/><path id="Path_1576" data-name="Path 1576" class="cls-2" d="M82,121.6l-.77,2.66L79,123.15l-1.37-.62-.26,1.61,2.1,2,1.12.62-.88,1.48-1.13-.37L76.26,126l-.7,1.54-.08,1.67-.26,1-2.94.06-2.18-.49.13-1.55,1.88-.37,1.38-.18-1.17-1.86-.81.93-.5-.66-.21-.68.8-.43.71,0,.72-1.41-.61-.76.17-.89,1-.75,1.69.25.82-1.67.09-2.17,2.31-.18,1.92,1.73-.57.86Z"/><path id="Path_1577" data-name="Path 1577" class="cls-4" d="M59.63,138.7l.5,2.26L52,144.12l-1.39,2.76,1.81,2.26-3.1.75L48.83,151l1,1.66,1.4,3.25.66,1,1.51,1.1L52,159.47l-.9.35-2.24-1L47.44,160l.19,2.18-2-.16-2.16-1.3-2.05.2-1.94-1.3-.88-1.3L37,158l-1.71,1.91-.9,3.13-1.47-.42V162l.16-1.29-.54-1.54,1.13-1-2-1.79.63-1.88,2.48.49,1.24-.79-.3-1.92.67-1.38,1.2,0,.9,1,1.54.65,1.24-.5-.32-1.23,3.22-.38.47-4L42,144.09l1.33-1.91,5.69,1.7.89-3.32.47-3.37-1.62-2.61,2.19.5.8,3.72,2,2.47L55,136.9l1.69-1.06Z"/><rect class="cls-1" width="233.87" height="250.24"/><path id="Path_1578" data-name="Path 1578" class="cls-5" d="M66.78,104.07a45.21,45.21,0,0,0,3.34,5.39,10.36,10.36,0,0,0,8.2,4.18c3.39.2,6.15,2.29,8.34,5.86a2.3,2.3,0,0,1,.38,1.1,30.24,30.24,0,0,0,1.79,8c2.72,7.38,6.92,12.55,12.41,15.74,3.1,1.8,4.92,5,5.62,9.53a42,42,0,0,1,.15,8.82,12.39,12.39,0,0,1-.67,3.71c-.69,1.83-1.91,2.33-3.19,1.26a8,8,0,0,1-1.94-3c-1-2.23-1.79-4.61-2.68-6.93C95.93,151,92.4,145.57,87,143.06a13.43,13.43,0,0,0-6.11-1.57,4.06,4.06,0,0,0-3.5,2,3.38,3.38,0,0,0,.06,3.72,4.15,4.15,0,0,0,2,1.59c1.14.41,2.3.72,3.43,1.17a12.09,12.09,0,0,1,4.68,3.54c-.33.28-.59.18-.84.22-1,.15-2.08.22-3.11.46a18.64,18.64,0,0,0-7.36,3.51c-.4.33-.68.24-1-.22-.61-.88-1.25-1.71-1.91-2.51a20.82,20.82,0,0,0-5.68-5.23c-.71-.39-1.21-.11-1.48.78a1.6,1.6,0,0,0,.61,2c2.62,1.45,4.63,4.05,6.64,6.65.35.45.34.75,0,1.12a21,21,0,0,0-2.82,3.55,1,1,0,0,1-1,.56c-1.06,0-2.13,0-3.19,0-.5,0-.85.25-1,.93-.26,1.09.19,2,1.06,2,1.3,0,2.6,0,3.9,0a1.6,1.6,0,0,0,1.48-1,16.11,16.11,0,0,1,1.89-2.67c4.58-5.32,9.92-7.33,15.8-6.95a1.12,1.12,0,0,1,.92.56A17.25,17.25,0,0,1,93,164a49.61,49.61,0,0,0,1,5.67c.48,1.63,1.13,3.11,2.43,3.57,3.37,1.19,6,3.88,8.38,7.31a3.73,3.73,0,0,1,.65,1.45,37.35,37.35,0,0,1,.56,4.94c.32,5.52.23,11,0,16.56a147.58,147.58,0,0,1-1.39,15.85c0,.23.09,1.06-.4,1.47-.67.56-2,0-2.5-.2-1.52-.57-3.59-.19-7.72.57a26.93,26.93,0,0,0-9.9,3.33,22.89,22.89,0,0,0-6.31,5.7,125,125,0,0,1,14.73-1.05q3.15,0,6.11.08a.19.19,0,0,1,0,.08,2.42,2.42,0,0,0,1.07.41c1.23.22,2.54.93,3.77,1.28a29.56,29.56,0,0,0,3.85.8,28.39,28.39,0,0,0,5,.25c3.27-.1,16.08-.81,33.48-2a17.46,17.46,0,0,0-9.66-7.44,12.45,12.45,0,0,0-6.44-1.73c-2.56.07-5.13-.34-7.68-.08a.62.62,0,0,1-.76-.6c-.41-2.2-.79-4.41-1.09-6.65-.4-2.94-.71-5.88-.92-8.85a89.28,89.28,0,0,1-.08-12.13c.25-3.8,1.6-6.4,4.12-8a44.22,44.22,0,0,1,5.29-2.86c3.36-1.51,6.78-2.75,10.1-4.45a13.21,13.21,0,0,0,4.94-3.76,3.19,3.19,0,0,1,1.35-1.09,34.43,34.43,0,0,0,5.9-3.29,27.45,27.45,0,0,0,4.67-4.78,23.73,23.73,0,0,1,10.18-6.7h0a1.5,1.5,0,0,0,1-1.87c-.17-1-.72-1.34-1.58-1a28.58,28.58,0,0,0-7.89,4.36c-.17.12-.33.5-.54.22s0-.48.06-.73a2.46,2.46,0,0,1,.11-.45,34.93,34.93,0,0,1,4.25-9.93,1.89,1.89,0,0,0,0-2.41c-.57-.64-1.09-.48-1.7.55a47.1,47.1,0,0,0-2.6,5,30.94,30.94,0,0,0-2.78,10.34,1.62,1.62,0,0,1-.44.93,18.37,18.37,0,0,1-7.14,5.88c-.12.06-.24.28-.37.07s0-.36.06-.53c.54-1.52,1.1-3,1.62-4.56a126.55,126.55,0,0,0,3.64-12.64c.52-2.33-.83-4.32-2.54-3.77-2.2.71-3.77,2.61-4.41,5.55a33.8,33.8,0,0,1-5.46,12.64c-1.48,2.09-3,4-5.21,4.69-.62.2-.66-.1-.64-.76,0-1.87.1-3.73.06-5.59a5.26,5.26,0,0,1,1.25-3.84,47.71,47.71,0,0,0,5.26-7.66l.17-.3a1.94,1.94,0,0,0-.07-2.22c-.52-.58-1.09-.5-1.57.33a61.1,61.1,0,0,1-5.8,8.39,6.62,6.62,0,0,0-1.35,4.18q-.09,3.79-.12,7.61c0,.58-.13.83-.57.95-2.49.71-5,1.34-7.45,2.26-1.09.41-1.43-.15-1.57-1.57-.23-2.45,0-4.88,0-7.31a7.74,7.74,0,0,1,1.75-5.39,60.32,60.32,0,0,1,6.07-6.21,45.21,45.21,0,0,0,5.76-6.29,19.23,19.23,0,0,0,3.11-7.69c.11-.56.13-1.21.61-1.53,3.78-2.54,7.6-4.85,11.89-5.16.64-.05.92-.64,1-1.44a4.11,4.11,0,0,0,0-.86,2.5,2.5,0,0,1,1.18-2.62,7.17,7.17,0,0,1,2.78-1.08,23.75,23.75,0,0,1,8.45.16c.8.13,1.28-.32,1.38-1.26a.31.31,0,0,0,0-.08,1.35,1.35,0,0,0-1.06-1.59,20.79,20.79,0,0,0-2.83-.43c-3.22-.25-6.44-.29-9.5,1.49-.14.08-.27.29-.39,0a4.34,4.34,0,0,1,.53-3,38.41,38.41,0,0,0,4.76-5.73,19,19,0,0,0,3.42-7.78c.15-.94-.14-1.72-.77-2s-1.12.27-1.28,1.16a13.52,13.52,0,0,1-1.51,4.18,36.63,36.63,0,0,1-6.5,8.31,2.76,2.76,0,0,0-.84,2.25c0,2.18,0,4.37,0,6.55,0,.66-.13,1-.64,1.1a25,25,0,0,0-9.23,3.93c-.13.09-.28.31-.43.13s-.06-.49,0-.71c.29-.95.57-1.89.89-2.82,1.22-3.62,2.69-7.06,4.21-10.46a4.08,4.08,0,0,0,.32-2.73c-.4-1.63-1.93-2.91-3.59-1.2-5,5.16-8.14,11.89-9.16,20.43a5.56,5.56,0,0,1-1.7,3.64,31.92,31.92,0,0,1-7.8,5.08c-1.44.73-2,.08-1.86-2,.34-4.37.63-8.75,1.26-13.06a25.2,25.2,0,0,1,1.22-5.49,12,12,0,0,1,3.55-4.61,22.09,22.09,0,0,0,5.64-7.43c1.95-4.35,2.21-9.24,2.09-14.2a3.23,3.23,0,0,0-.37-1.33c-.9-1.8-2.79-1.73-3.59.2s-1.66,4.13-2.4,6.26a15,15,0,0,1-4.72,7.06c-1.3,1-2.49,2.32-3.78,3.38-3.22,2.64-5,6.58-5.65,11.62-.1.82-.32.69-.65.25a47.51,47.51,0,0,1-4.11-6.13,15.67,15.67,0,0,1-1.66-4.17,1.69,1.69,0,0,1,.54-1.88,26.18,26.18,0,0,0,6.52-8.63,11.47,11.47,0,0,0,.69-8.75c-.33-1-.86-1.34-1.42-1s-.88,1.14-.55,2.22a6.58,6.58,0,0,1,.2,3.65c-1,4.38-3.62,6.85-6.11,9.61a2.41,2.41,0,0,1-.08-.44c0-.26,0-.52,0-.77a35.6,35.6,0,0,0-.33-9.28,12.66,12.66,0,0,0-2.22-5.66c-.2-.26-.4-.55-.69-.6-.51-.09-.89.12-1.17.77a1.69,1.69,0,0,0,.24,1.81,9.61,9.61,0,0,1,1.71,4.21,31.7,31.7,0,0,1,.3,8.7A20.16,20.16,0,0,0,107.74,122a69.42,69.42,0,0,0,5,7,1.54,1.54,0,0,1,.46,1.3,35,35,0,0,0-.23,4.8c0,.7-.23,1.06-.72,1.17a4.82,4.82,0,0,1-2.55-.21,20.25,20.25,0,0,1-7-4.41,29,29,0,0,1-5.55-6.74A20.4,20.4,0,0,1,94.31,115c-.19-4.64-.22-9.31-.84-13.9a11.58,11.58,0,0,0-1.41-4.84c-1-1.57-2.43-1.43-3.29.29a6.85,6.85,0,0,0-.4,1,36,36,0,0,0-1.28,8.82c-.16,2.68-.29,5.38-.27,8.09,0,.24.08.57-.11.7s-.36-.19-.51-.36c-2.41-2.67-5.14-4.16-8.23-4.2-.75,0-1-.49-1-1.34a7.8,7.8,0,0,1,.59-3.6,11,11,0,0,0,.69-2.59,34.57,34.57,0,0,0-1-12.4c-.22-1-.77-1.32-1.35-1a1.65,1.65,0,0,0-.65,1.94,46.92,46.92,0,0,1,1,7.06,13.7,13.7,0,0,1-.68,5.89A11.27,11.27,0,0,0,74.8,109c0,.8-.2.83-.64.59a9.68,9.68,0,0,1-3.58-3.69c-1.27-2.15-2.49-4.37-3.74-6.55-.57-1-1.08-1.13-1.64-.5a1.94,1.94,0,0,0,0,2.37c.53,1,1.07,1.93,1.61,2.89"/><path id="Path_1579" data-name="Path 1579" class="cls-6" d="M108.22,189.86a48,48,0,0,0-.84-7.17,6.28,6.28,0,0,0-.74-1.93c-2.33-3.82-5.09-6.81-8.41-8.49a3.38,3.38,0,0,1-2.32-2.73c-.18-1-.46-2-.55-3a26.73,26.73,0,0,0-5.71-14.19A16,16,0,0,0,83,146.89a21.86,21.86,0,0,1-3.11-1c-.24-.13-.55-.22-.53-.65s.33-.4.55-.52c1.25-.68,2.48-.12,3.69.22,5.74,1.57,9.76,6.48,12.54,13.84,1.23,3.28,2.24,6.74,3.73,9.8.92,1.92,2,3.44,3.7,4,2.44.79,4.07-1.09,4.83-4.06a40.85,40.85,0,0,0,.86-12.13,23,23,0,0,0-2.69-10.23,13.71,13.71,0,0,0-4.75-4.94c-5.37-3.47-9.42-9-11.72-17a28.06,28.06,0,0,1-1-7c-.13-4.58,0-9.14.29-13.7A57,57,0,0,1,90,97.47c.1-.53.11-1.39.47-1.42s.45.79.56,1.32a58.17,58.17,0,0,1,.78,8.53c.18,3.69.24,7.38.6,11a21.12,21.12,0,0,0,2.49,7.94,30.39,30.39,0,0,0,12.7,13.18,7.58,7.58,0,0,0,4.77,1c1.62-.27,2.73-1.87,2.74-4.29a68.2,68.2,0,0,1,.51-8.08A42.69,42.69,0,0,1,117,119.6a11.49,11.49,0,0,1,3.37-4.85c1.54-1.55,3.09-3.08,4.68-4.52a16.44,16.44,0,0,0,4.46-7.18c.66-2,1.4-3.86,2.1-5.79a1.83,1.83,0,0,1,.45-.8c.22,7.29-1.16,13.45-5.41,17.76a37.32,37.32,0,0,0-4,4.31,18.15,18.15,0,0,0-2.76,7.91c-.87,5.41-1.17,10.95-1.61,16.46-.28,3.53,2,6.49,4.47,5.13,3-1.66,6-3.26,8.68-6a7.35,7.35,0,0,0,2.3-3.93c.24-1.33.32-2.72.54-4.08a35.93,35.93,0,0,1,4.06-12,25.42,25.42,0,0,1,3.6-5,.85.85,0,0,1-.1.8,101.71,101.71,0,0,0-4.44,12.67c-.62,2.3-1,4.71-1.41,7.09a18.36,18.36,0,0,1-4.21,9.05c-2.31,2.66-4.8,4.94-7.19,7.42a25.48,25.48,0,0,0-3.86,4.91,10.43,10.43,0,0,0-1.5,5.32c0,3.25-.24,6.49.08,9.74s2,4.91,4,4.06a75.66,75.66,0,0,1,7.91-2.51,26.26,26.26,0,0,0,5.07-2A9.07,9.07,0,0,0,138.9,171a38.33,38.33,0,0,0,7-14.12c.25-.94.43-1.93.68-2.87a6.28,6.28,0,0,1,2-3.3c.17-.14.39-.29.58-.05s.05.5,0,.75a156.16,156.16,0,0,1-5.25,17.48c-.73,1.88-1.38,3.87-2.72,5a20.74,20.74,0,0,1-4.5,2.85c-4.28,2.12-8.7,3.64-12.89,6.2a19.09,19.09,0,0,0-3.68,3c-1.69,1.75-2.52,4.22-2.9,7.12a82.12,82.12,0,0,0,0,16.59c.08,1.11.17,2.22.26,3.33a.7.7,0,0,1,0,.29c0,.32.12.76-.09,1s-.48-.1-.69-.3a39.8,39.8,0,0,1-8-10.72,2.67,2.67,0,0,1-.26-1.33c0-3,0-6,0-8.94a12.39,12.39,0,0,0-.2-3.1"/><path id="Path_1580" data-name="Path 1580" class="cls-7" d="M108.22,188.07c.36.27.27.8.28,1.26,0,3.84,0,7.69,0,11.53a3.66,3.66,0,0,0,.4,1.78c.88,1.77,1.84,3.5,2.89,5.17a34.15,34.15,0,0,0,5.55,6.84c0-.54,0-.93.06-1.33.29,2.46.45,5,.83,7.38.23,1.53.39,3.11.67,4.62.17.92,0,1-.5,1-2.15,0-4.31,0-6.45,0-1.56,0-3.1,0-4.65,0-.48,0-.64-.14-.54-1,.83-6.93,1.28-13.92,1.48-21,.14-5.21.18-10.4,0-15.6,0-.22,0-.44,0-.66"/><path id="Path_1581" data-name="Path 1581" class="cls-5" d="M224.05,250.24H9.82A9.82,9.82,0,0,1,0,240.42v-1.08a9.82,9.82,0,0,1,9.82-9.82H224.05a9.82,9.82,0,0,1,9.82,9.82v1.08a9.82,9.82,0,0,1-9.82,9.82"/><g id="Group_315" data-name="Group 315"><g class="cls-8"><g id="Group_314" data-name="Group 314"><path id="Path_1637" data-name="Path 1637" class="cls-9" d="M73.23,121.42c-.22.64-.15.93.46,1.23,1,.5,2,1,3.08,1.4a21.53,21.53,0,0,0,5.13,1.27,9.21,9.21,0,0,0,5.37-.82,5.61,5.61,0,0,0,2.59-2.8s0-.07.08-.24c.23-.67.33-.83.25-.94s0,0-.38-.15h0l-.12-.05c-.18,0-.28.48-.43.87a4.45,4.45,0,0,1-.54,1,5.13,5.13,0,0,1-3,2.09,9.73,9.73,0,0,1-4.52.16,23.05,23.05,0,0,1-6.89-2.31c-.42-.22-.41-.23-.25-.68.07-.19.13-.38.21-.57s.31-.63.46-.94a13.07,13.07,0,0,1,3.8-4.85,7.83,7.83,0,0,1,4.39-1.7,6.41,6.41,0,0,1,6.45,4.77c0,.12.06.24.08.37.09.57,0,.86.23,1l.2.08h0l.31.11c.11-.07.15-.55,0-1.32a7.56,7.56,0,0,0-1.09-2.66,7.33,7.33,0,0,0-9.39-2.32,11.19,11.19,0,0,0-4.06,3.42,17.28,17.28,0,0,0-2.44,4.46s0,.1,0,.15"/><path id="Path_1638" data-name="Path 1638" class="cls-10" d="M74.33,122.11a23.05,23.05,0,0,0,6.89,2.31,9.73,9.73,0,0,0,4.52-.16,5.13,5.13,0,0,0,3-2.09,4.45,4.45,0,0,0,.54-1c.15-.39.24-.84.43-.87-.42-.14-.84-.27-1.27-.38s-.42,0-.55.22a4.08,4.08,0,0,1-2.48,2,.47.47,0,0,1-.63-.2h0s0,0,0,0c-.12-.29,0-.45.3-.55l.19-.06a3.54,3.54,0,0,0,1.7-1.3c.23-.36.21-.44-.25-.48-1.24-.12-2.48-.2-3.72-.3a.44.44,0,0,0-.54.35h0v0a3.79,3.79,0,0,1-1.6,2,.44.44,0,0,1-.63,0h0l0,0c-.18-.26-.08-.45.16-.6a3.18,3.18,0,0,0,.37-.27,3.1,3.1,0,0,0,.91-1.23,1.46,1.46,0,0,0-.29,0c-.54.06-1.08.16-1.6.27-.7.19-1.39.44-2.07.68a.49.49,0,0,1-.63-.19c-.14-.24,0-.42.2-.54l.21-.1a13,13,0,0,1,3.74-.93c.12,0,.23,0,.39-.07A2.64,2.64,0,0,0,80,117.34c-.38-.09-.57-.3-.51-.56s.34-.31.71-.2a3.43,3.43,0,0,1,2.08,1.61.49.49,0,0,0,.49.27c.73,0,1.47,0,2.2.08s1.38.15,2.09.24A3.64,3.64,0,0,0,86,117.24c-.41-.31-.84-.59-1.28-.86-.22-.14-.33-.31-.24-.52a.38.38,0,0,1,.49-.21l0,0a2.17,2.17,0,0,1,.41.19,5.65,5.65,0,0,1,2.6,2.89.49.49,0,0,0,.37.35c.53.13,1.06.29,1.58.47l0,0-.2-.07c-.19-.12-.14-.41-.24-1,0-.13,0-.25-.07-.38a6.43,6.43,0,0,0-6.45-4.77,7.89,7.89,0,0,0-4.39,1.71,13,13,0,0,0-3.8,4.84c-.15.32-.32.63-.46,1a5.54,5.54,0,0,0-.21.57c-.17.45-.17.45.24.68"/><path id="Path_1639" data-name="Path 1639" class="cls-9" d="M77,120.13a.47.47,0,0,0,.63.18c.68-.23,1.36-.48,2.06-.67a14.62,14.62,0,0,1,1.61-.27,1.31,1.31,0,0,1,.28,0,3,3,0,0,1-.9,1.24,3.18,3.18,0,0,1-.37.27c-.24.15-.34.33-.16.6a.46.46,0,0,0,.63.11l0,0a3.65,3.65,0,0,0,1.59-1.95.46.46,0,0,1,.53-.37h0c1.24.1,2.48.18,3.72.3.46,0,.48.12.25.47a3.5,3.5,0,0,1-1.7,1.31l-.19.06c-.26.09-.41.25-.3.54a.47.47,0,0,0,.62.24h0l0,0a4,4,0,0,0,2.48-2c.12-.25.26-.3.55-.22s.85.25,1.26.39h0l.11,0h0A19,19,0,0,1,93.35,122l.63.38c.24.14.46.14.61-.07s.06-.44-.18-.59c-.43-.28-.88-.54-1.33-.78a22.69,22.69,0,0,0-2.81-1.25h0s-.07,0-.29-.12h0c-.52-.17-1-.33-1.58-.47a.48.48,0,0,1-.37-.34,5.63,5.63,0,0,0-2.6-2.9l-.41-.19a.38.38,0,0,0-.51.13s0,0,0,0c-.09.21,0,.39.23.53a13.52,13.52,0,0,1,1.28.85,3.69,3.69,0,0,1,1.12,1.55c-.72-.09-1.41-.2-2.09-.25s-1.47-.07-2.21-.08a.47.47,0,0,1-.49-.27,3.46,3.46,0,0,0-2.06-1.61c-.38-.11-.66,0-.72.21s.13.46.51.56a2.64,2.64,0,0,1,1.51,1.15c-.16,0-.27.06-.39.07a13,13,0,0,0-3.74.93l-.21.1c-.22.12-.33.3-.19.54"/><path id="Path_1640" data-name="Path 1640" class="cls-9" d="M89.67,120.31h0l.13,0-.12,0"/><path id="Path_1641" data-name="Path 1641" class="cls-9" d="M90,119.58c.23.09.26.13.29.12h0l-.31-.11"/></g></g></g><rect class="cls-1" width="233.87" height="250.24"/><g id="Group_318" data-name="Group 318"><path id="Path_1647" data-name="Path 1647" class="cls-11" d="M115,244.45H11.5a14,14,0,0,1-3.1-.16c-2.83-.66-4.53-2.8-4.28-5.32s2.17-4.35,5.21-4.62c.75,0,1.51-.06,2.27,0q32.17,0,64.34,0c2,0,3.85-.65,4.61-1.76,2.38-2.5,6.38-4.31,11-5a49.09,49.09,0,0,1,8.73-.75c10.06,0,20.13-.07,30.19,0a36.57,36.57,0,0,1,14.29,2.59,13.25,13.25,0,0,1,4.93,3.39,4.34,4.34,0,0,0,3.76,1.49q32.38,0,64.77,0c.76,0,1.51,0,2.27,0,3.25.25,5.43,2.35,5.35,5.15s-2.3,4.81-5.59,4.94c-.75,0-1.51,0-2.27,0H115"/></g><g id="Group_323" data-name="Group 323"><g id="Group_322" data-name="Group 322"><g class="cls-12"><g id="Group_321" data-name="Group 321"><path id="Path_1648" data-name="Path 1648" class="cls-13" d="M89,214.26v6.6c0,1.42-.44,1.81-2.06,1.81-2.76,0-5.53,0-8.29,0-.73,0-1,.1-1,.84,0,4.23,0,8.47,0,12.71,0,1.29-.47,1.73-1.88,1.73H71.13c-1.43,0-1.91-.43-1.91-1.7,0-4.27,0-8.53,0-12.8,0-.6-.13-.78-.84-.78q-12.3,0-24.61,0t-24.52,0c-.65,0-.87.11-.87.76,0,4.26,0,8.53,0,12.79,0,1.29-.47,1.72-1.88,1.72q-2.39,0-4.77,0c-1.3,0-1.81-.45-1.81-1.62,0-4.29,0-8.58,0-12.87,0-.62-.15-.79-.85-.78-2.88,0-5.76,0-8.64,0-1.31,0-1.82-.45-1.82-1.63v-6.91c0-1.18.5-1.63,1.81-1.63,2.91,0,5.82,0,8.73,0,.63,0,.78-.14.77-.7,0-1.86,0-1.86-2.1-1.86H3.18c-1.18,0-1.71-.48-1.71-1.56v-32.5c0-1.07.53-1.54,1.73-1.55,2,0,4,0,6,0,.64,0,.76-.16.76-.7,0-1.86,0-1.86-2-1.86H.53c-1.4,0-1.88-.43-1.88-1.72v-6.76c0-1.26.49-1.68,1.92-1.68,2.77,0,5.53,0,8.29,0,.84,0,1.21-.1,1.11-.95a19.1,19.1,0,0,1,0-2.62c0-1,.53-1.53,1.65-1.53h5.12c1.14,0,1.68.48,1.69,1.49s0,2.07,0,3.1c0,.37.08.55.53.49h.44l48.86,0c.77,0,1.07-.13,1-.88a25.79,25.79,0,0,1,0-2.78c0-.93.55-1.43,1.57-1.44,1.76,0,3.52,0,5.29,0,1,0,1.57.5,1.59,1.42s0,2,0,3c0,.51.13.66.72.65,2.91,0,5.82,0,8.73,0,1.36,0,1.85.44,1.85,1.67,0,2.3,0,4.61,0,6.92,0,1.12-.51,1.58-1.76,1.58-2.94,0-5.88,0-8.82,0-.59,0-.72.15-.72.66,0,1.9,0,1.9,2.14,1.9h4.68c1.13,0,1.66.49,1.66,1.51v32.59c0,1-.54,1.5-1.69,1.5-2,0-4,0-6.08,0-.6,0-.71.16-.71.66,0,1.89,0,1.89,2.06,1.89h7.32c1.47,0,1.92.42,1.92,1.77m-2.8,1.69c.06-.77-.19-.94-1-.94q-41.31,0-82.64,0H2.05c-.45-.06-.6.1-.58.52,0,1.25.06,2.49,0,3.74,0,.7.17.85.94.85q20.69,0,41.37,0H63.26c7.38,0,14.76,0,22.14,0,.61,0,.8-.12.77-.68a29.19,29.19,0,0,1,0-3.5m0-50.91c0-.72-.19-.9-1-.9q-40.65,0-81.31,0c-.59,0-1.18,0-1.77,0s-.64.1-.63.56c0,1.22.06,2.44,0,3.66,0,.72.19.9,1,.9q20.64,0,41.28,0H85.36c.65,0,.84-.12.81-.73a33.86,33.86,0,0,1,0-3.49m-3.72,42.39c.72,0,.9-.15.9-.81q0-14.46,0-28.93c0-.66-.17-.82-.9-.82q-19.28,0-38.54,0l-38.73,0c-.73,0-.9.15-.9.82q0,14.46,0,28.93c0,.66.17.81.9.81q38.64,0,77.27,0m-8.21,28c.5,0,.64-.12.63-.57,0-1.9,0-3.81,0-5.72v-4.53c0-1.93,0-1.91-2.11-1.92-.58,0-.73.13-.72.65,0,3.39,0,6.78,0,10.17,0,2,0,1.94,2.2,1.92M74.86,173c0-1.22,0-1.22-1.3-1.22-1.52,0-1.52,0-1.52,1.34s0,1.21,1.3,1.21c1.52,0,1.52,0,1.52-1.33m-1.38-11.39c1.38,0,1.38,0,1.38-1.21s0-1.33-1.43-1.33-1.39,0-1.39,1.21,0,1.33,1.44,1.33m0,50.87c1.36,0,1.36,0,1.36-1.24s0-1.31-1.46-1.31-1.36,0-1.36,1.24,0,1.31,1.46,1.31m-4.26-39.82c0-.72-.19-.9-1-.89q-24,0-47.89,0c-1.95,0-1.91,0-2,1.75,0,.66.17.82.9.81q12.21,0,24.43,0H67.36c1.86,0,1.81,0,1.88-1.67m0,38.07c0-.66-.17-.81-.9-.81q-12.23,0-24.43,0H20.27c-1.86,0-1.81,0-1.88,1.67,0,.72.19.9,1,.89q24,0,47.89,0c2,0,1.91,0,2-1.75M15,235.39c.5,0,.64-.12.63-.57,0-1.93,0-3.87,0-5.8v-4.45c0-1.93,0-1.91-2.12-1.92-.57,0-.72.13-.72.65,0,3.39,0,6.78,0,10.17,0,2,0,1.94,2.2,1.92m.62-75.1c0-1.21,0-1.21-1.3-1.21-1.53,0-1.53,0-1.53,1.41,0,1.13,0,1.13,1.3,1.13,1.53,0,1.53,0,1.53-1.33m-1.31,14.05c1.31,0,1.31,0,1.31-1.2s0-1.34-1.51-1.34c-1.31,0-1.31,0-1.31,1.2s0,1.34,1.51,1.34m0,38.15c1.36,0,1.36,0,1.36-1.23s0-1.31-1.46-1.31-1.36,0-1.36,1.23,0,1.31,1.46,1.31"/><path id="Path_1649" data-name="Path 1649" class="cls-7" d="M85.13,215c.85,0,1.1.17,1,.94a29.19,29.19,0,0,0,0,3.5c0,.56-.16.69-.77.69-7.38,0-14.76,0-22.14,0H2.41c-.77,0-1-.15-1-.85.07-1.25,0-2.49,0-3.74,0-.42.13-.58.59-.51h.43l82.65,0m-10.28,2.56c0-1.28,0-1.28-1.41-1.28s-1.41,0-1.41,1.27,0,1.28,1.4,1.28,1.42,0,1.42-1.27m-59.28-.05c0-1.23,0-1.23-1.36-1.23s-1.46,0-1.46,1.32,0,1.22,1.37,1.22,1.46,0,1.46-1.31"/><path id="Path_1650" data-name="Path 1650" class="cls-7" d="M85.18,164.15c.8,0,1,.17,1,.9a33.86,33.86,0,0,0,0,3.49c0,.61-.17.73-.82.73q-20.82,0-41.63,0l-41.27,0c-.8,0-1-.17-1-.9.07-1.22,0-2.44,0-3.66,0-.45.13-.59.63-.56s1.18,0,1.76,0l81.32,0M73.5,168c1.36,0,1.36,0,1.36-1.24s0-1.3-1.46-1.3-1.36,0-1.36,1.23S72,168,73.5,168m-57.91-1.32c0-1.22,0-1.22-1.38-1.22s-1.44,0-1.44,1.32,0,1.22,1.38,1.22,1.44,0,1.44-1.32"/><path id="Path_1651" data-name="Path 1651" class="cls-14" d="M83.35,206.61c0,.66-.18.81-.9.81q-38.64,0-77.27,0c-.73,0-.9-.15-.9-.81q0-14.48,0-28.93c0-.67.17-.82.9-.82q19.37,0,38.73,0l38.54,0c.73,0,.9.16.9.82q0,14.46,0,28.93m-2.84-26c0-1.22,0-1.22-1.38-1.22s-1.45,0-1.45,1.31,0,1.23,1.38,1.23,1.45,0,1.45-1.32m0,22.9c0-1.23,0-1.23-1.37-1.23s-1.46,0-1.46,1.31,0,1.23,1.37,1.23,1.46,0,1.46-1.31m-70.57,0c0-1.28,0-1.28-1.4-1.28s-1.42,0-1.42,1.26,0,1.28,1.4,1.28,1.42,0,1.42-1.26m0-22.9c0-1.27,0-1.27-1.4-1.27s-1.42,0-1.42,1.27,0,1.27,1.41,1.27,1.41,0,1.41-1.27"/><path id="Path_1652" data-name="Path 1652" class="cls-13" d="M79.13,179.43c1.38,0,1.38,0,1.38,1.22s0,1.32-1.45,1.32-1.38,0-1.38-1.23,0-1.31,1.45-1.31"/><path id="Path_1653" data-name="Path 1653" class="cls-13" d="M79.14,202.32c1.37,0,1.37,0,1.37,1.23s0,1.31-1.45,1.31-1.38,0-1.38-1.23,0-1.31,1.46-1.31"/><path id="Path_1654" data-name="Path 1654" class="cls-7" d="M74.87,234.82c0,.45-.13.57-.63.57-2.2,0-2.2,0-2.2-1.92,0-3.39,0-6.78,0-10.17,0-.52.14-.65.72-.65,2.11,0,2.11,0,2.11,1.92v4.53c0,1.91,0,3.81,0,5.72"/><path id="Path_1655" data-name="Path 1655" class="cls-7" d="M73.56,171.79c1.3,0,1.3,0,1.3,1.22s0,1.33-1.52,1.33c-1.3,0-1.3,0-1.3-1.21s0-1.34,1.52-1.34"/><path id="Path_1656" data-name="Path 1656" class="cls-7" d="M74.86,160.41c0,1.21,0,1.21-1.38,1.21s-1.44,0-1.44-1.33,0-1.21,1.39-1.21,1.43,0,1.43,1.33"/><path id="Path_1657" data-name="Path 1657" class="cls-13" d="M74.86,166.74c0,1.24,0,1.24-1.36,1.24S72,168,72,166.67s0-1.23,1.36-1.23,1.47,0,1.47,1.3"/><path id="Path_1658" data-name="Path 1658" class="cls-7" d="M74.86,211.25c0,1.24,0,1.24-1.36,1.24s-1.46,0-1.46-1.3S72,210,73.4,210s1.47,0,1.47,1.3"/><path id="Path_1659" data-name="Path 1659" class="cls-13" d="M73.46,216.31c1.41,0,1.41,0,1.41,1.27s0,1.27-1.42,1.27-1.41,0-1.41-1.28,0-1.26,1.42-1.26"/><path id="Path_1660" data-name="Path 1660" class="cls-7" d="M15.6,234.82c0,.45-.13.57-.63.57-2.2,0-2.2,0-2.2-1.92,0-3.39,0-6.78,0-10.17,0-.52.15-.65.72-.65,2.12,0,2.12,0,2.12,1.92V229c0,1.93,0,3.87,0,5.8"/><path id="Path_1661" data-name="Path 1661" class="cls-7" d="M14.29,159.08c1.3,0,1.3,0,1.3,1.21s0,1.33-1.52,1.33c-1.3,0-1.3,0-1.3-1.13,0-1.41,0-1.41,1.53-1.41"/><path id="Path_1662" data-name="Path 1662" class="cls-7" d="M15.59,173.14c0,1.2,0,1.2-1.31,1.2-1.51,0-1.51,0-1.51-1.34s0-1.2,1.31-1.2c1.51,0,1.51,0,1.51,1.34"/><path id="Path_1663" data-name="Path 1663" class="cls-13" d="M14.21,165.44c1.38,0,1.38,0,1.38,1.22s0,1.32-1.44,1.32-1.38,0-1.38-1.22,0-1.32,1.44-1.32"/><path id="Path_1664" data-name="Path 1664" class="cls-7" d="M15.59,211.25c0,1.24,0,1.24-1.36,1.24s-1.46,0-1.46-1.31,0-1.24,1.37-1.24,1.45,0,1.45,1.31"/><path id="Path_1665" data-name="Path 1665" class="cls-13" d="M14.22,216.31c1.37,0,1.37,0,1.37,1.23s0,1.31-1.45,1.31-1.37,0-1.37-1.23,0-1.31,1.45-1.31"/><path id="Path_1666" data-name="Path 1666" class="cls-13" d="M8.55,202.32c1.4,0,1.4,0,1.4,1.28s0,1.26-1.43,1.26-1.4,0-1.4-1.28,0-1.26,1.43-1.26"/><path id="Path_1667" data-name="Path 1667" class="cls-13" d="M8.54,179.43c1.4,0,1.4,0,1.4,1.27s0,1.27-1.41,1.27-1.41,0-1.41-1.27,0-1.27,1.42-1.27"/></g></g></g><g id="One_piece_of_leaf_will_emerge_when_one_record_is_uploaded._" data-name="One piece of leaf will emerge when one record is uploaded. " class="cls-15"><path class="cls-16" d="M12.65,183.77v-1.32H12.6l-.88,2.15-.88-2.15h-.05v3.42h-.46v-4.19H11l.73,1.85h0l.74-1.85h.62v4.19h-.46Z"/><path class="cls-16" d="M15.32,186a1.37,1.37,0,0,1-.58-.12,1.15,1.15,0,0,1-.45-.33A1.56,1.56,0,0,1,14,185a2.24,2.24,0,0,1-.09-.66,2.31,2.31,0,0,1,.09-.67,1.56,1.56,0,0,1,.28-.51,1.15,1.15,0,0,1,.45-.33,1.36,1.36,0,0,1,.58-.11,1.41,1.41,0,0,1,.59.11,1.19,1.19,0,0,1,.44.33,1.4,1.4,0,0,1,.28.51,2.3,2.3,0,0,1,.1.67,2.23,2.23,0,0,1-.1.66,1.4,1.4,0,0,1-.28.51,1.19,1.19,0,0,1-.44.33A1.41,1.41,0,0,1,15.32,186Zm0-.42a.88.88,0,0,0,.65-.24,1,1,0,0,0,.24-.74v-.45a1,1,0,0,0-.24-.74.88.88,0,0,0-.65-.24.9.9,0,0,0-.65.24,1,1,0,0,0-.24.74v.45a1,1,0,0,0,.24.74A.9.9,0,0,0,15.32,185.53Z"/><path class="cls-16" d="M17.58,185.46h.91v-2.27h-.91v-.41H19v.78h0a1,1,0,0,1,.36-.58,1.14,1.14,0,0,1,.68-.2h.44v.48h-.59a1,1,0,0,0-.67.24.81.81,0,0,0-.25.62v1.34h1.2v.41H17.58Z"/><path class="cls-16" d="M22.58,186a1.48,1.48,0,0,1-.61-.12,1.15,1.15,0,0,1-.45-.33,1.28,1.28,0,0,1-.29-.51,1.9,1.9,0,0,1-.11-.66,2,2,0,0,1,.11-.67,1.58,1.58,0,0,1,.29-.51,1.15,1.15,0,0,1,.45-.33,1.34,1.34,0,0,1,.58-.11,1.3,1.3,0,0,1,.56.11,1.4,1.4,0,0,1,.44.31,1.42,1.42,0,0,1,.27.48,1.7,1.7,0,0,1,.1.61v.23H21.63v.14a1.21,1.21,0,0,0,.06.38,1.17,1.17,0,0,0,.19.3.77.77,0,0,0,.3.19,1,1,0,0,0,.4.07,1.09,1.09,0,0,0,.54-.14,1,1,0,0,0,.34-.4l.36.24a1.13,1.13,0,0,1-.46.51A1.42,1.42,0,0,1,22.58,186Zm0-2.85a.87.87,0,0,0-.37.07,1,1,0,0,0-.29.2.85.85,0,0,0-.19.3.9.9,0,0,0-.07.37v0H23.4V184a1.06,1.06,0,0,0-.06-.37.92.92,0,0,0-.17-.29.7.7,0,0,0-.27-.19A.84.84,0,0,0,22.55,183.1Z"/><path class="cls-16" d="M30.47,185.37h0a1,1,0,0,1-1,.58,1.07,1.07,0,0,1-.89-.43,2,2,0,0,1-.32-1.19,2,2,0,0,1,.32-1.2,1.06,1.06,0,0,1,.89-.42,1,1,0,0,1,1,.57h0v-1.85H31v4.44h-.48Zm-.79.15a1.55,1.55,0,0,0,.31,0,.75.75,0,0,0,.25-.13.53.53,0,0,0,.23-.47v-1.11a.53.53,0,0,0-.23-.47.75.75,0,0,0-.25-.13,1.55,1.55,0,0,0-.31,0,.83.83,0,0,0-.65.26.93.93,0,0,0-.23.67v.53a.93.93,0,0,0,.23.67A.83.83,0,0,0,29.68,185.52Z"/><path class="cls-16" d="M34.49,185.87a.48.48,0,0,1-.4-.14.73.73,0,0,1-.15-.36h0a.87.87,0,0,1-.33.42,1.07,1.07,0,0,1-.6.16,1.12,1.12,0,0,1-.77-.26.84.84,0,0,1-.29-.69.76.76,0,0,1,.31-.66,1.7,1.7,0,0,1,1-.24h.66v-.3a.63.63,0,0,0-.19-.51.82.82,0,0,0-.55-.17,1,1,0,0,0-.51.12,1,1,0,0,0-.32.34l-.32-.25a1.06,1.06,0,0,1,.16-.23,1,1,0,0,1,.25-.2,1.22,1.22,0,0,1,.35-.14,1.38,1.38,0,0,1,.42,0,1.31,1.31,0,0,1,.87.27,1,1,0,0,1,.32.77v1.71h.43v.41Zm-1.43-.33a1.18,1.18,0,0,0,.34,0,1.11,1.11,0,0,0,.27-.12.62.62,0,0,0,.18-.18.46.46,0,0,0,.06-.23v-.51h-.66a1.25,1.25,0,0,0-.63.12.39.39,0,0,0-.2.35v.13a.42.42,0,0,0,.17.36A.82.82,0,0,0,33.06,185.54Z"/><path class="cls-16" d="M37.07,185.87a.65.65,0,0,1-.52-.19.8.8,0,0,1-.16-.51v-2h-1v-.41h.76a.26.26,0,0,0,.22-.07.29.29,0,0,0,.07-.21v-.82h.46v1.1h1.41v.41H36.87v2.27h1.41v.41Z"/><path class="cls-16" d="M41.69,185.87a.48.48,0,0,1-.4-.14.73.73,0,0,1-.15-.36h0a.87.87,0,0,1-.33.42,1.07,1.07,0,0,1-.6.16,1.12,1.12,0,0,1-.77-.26.84.84,0,0,1-.29-.69.76.76,0,0,1,.31-.66,1.7,1.7,0,0,1,1-.24h.66v-.3a.63.63,0,0,0-.19-.51.82.82,0,0,0-.55-.17,1,1,0,0,0-.51.12,1,1,0,0,0-.32.34l-.32-.25a1.06,1.06,0,0,1,.16-.23,1,1,0,0,1,.25-.2,1.22,1.22,0,0,1,.35-.14,1.38,1.38,0,0,1,.42,0,1.31,1.31,0,0,1,.87.27,1,1,0,0,1,.32.77v1.71H42v.41Zm-1.43-.33a1.18,1.18,0,0,0,.34,0,1.11,1.11,0,0,0,.27-.12.62.62,0,0,0,.18-.18.46.46,0,0,0,.06-.23v-.51h-.66a1.25,1.25,0,0,0-.63.12.39.39,0,0,0-.2.35v.13a.42.42,0,0,0,.17.36A.82.82,0,0,0,40.26,185.54Z"/><path class="cls-16" d="M47.78,186a1.48,1.48,0,0,1-.61-.12,1.15,1.15,0,0,1-.45-.33,1.28,1.28,0,0,1-.29-.51,1.9,1.9,0,0,1-.11-.66,2,2,0,0,1,.11-.67,1.58,1.58,0,0,1,.29-.51,1.15,1.15,0,0,1,.45-.33,1.34,1.34,0,0,1,.58-.11,1.3,1.3,0,0,1,.56.11,1.4,1.4,0,0,1,.44.31,1.42,1.42,0,0,1,.27.48,1.7,1.7,0,0,1,.1.61v.23H46.83v.14a1.21,1.21,0,0,0,.06.38,1.17,1.17,0,0,0,.19.3.85.85,0,0,0,.3.19,1,1,0,0,0,.4.07,1.09,1.09,0,0,0,.54-.14,1,1,0,0,0,.34-.4l.36.24a1.13,1.13,0,0,1-.46.51A1.42,1.42,0,0,1,47.78,186Zm0-2.85a.87.87,0,0,0-.37.07,1,1,0,0,0-.29.2.85.85,0,0,0-.19.3.9.9,0,0,0-.07.37v0H48.6V184a1.06,1.06,0,0,0-.06-.37.92.92,0,0,0-.17-.29.7.7,0,0,0-.27-.19A.84.84,0,0,0,47.75,183.1Z"/><path class="cls-16" d="M50.11,185.87v-3.09h.48v.5h0l.12-.22a.77.77,0,0,1,.18-.18.87.87,0,0,1,.59-.17,1.06,1.06,0,0,1,.78.3,1.26,1.26,0,0,1,.29.88v2h-.48V184a.9.9,0,0,0-.19-.63.67.67,0,0,0-.54-.21.86.86,0,0,0-.28,0,.64.64,0,0,0-.25.11.42.42,0,0,0-.17.18.46.46,0,0,0-.07.26v2.15Z"/><path class="cls-16" d="M55.07,185.87a.65.65,0,0,1-.52-.19.8.8,0,0,1-.16-.51v-2h-1v-.41h.76a.26.26,0,0,0,.22-.07.25.25,0,0,0,.07-.21v-.82h.46v1.1h1.41v.41H54.87v2.27h1.41v.41Z"/><path class="cls-16" d="M57.18,185.46h.91v-2.27h-.91v-.41h1.39v.78h0A1.05,1.05,0,0,1,59,183a1.14,1.14,0,0,1,.68-.2h.44v.48h-.59a.92.92,0,0,0-.66.24.82.82,0,0,0-.26.62v1.34h1.2v.41H57.18Z"/><path class="cls-16" d="M63.12,182.78h.48l-1.53,3.77a1.61,1.61,0,0,1-.12.23.61.61,0,0,1-.16.16.51.51,0,0,1-.21.1,1.39,1.39,0,0,1-.3,0h-.46v-.41h.72l.35-.85-1.25-3h.49l.52,1.29.47,1.18h0l.46-1.18Z"/><path class="cls-16" d="M67.7,182.78h.43l.35,2.67h.06l.52-2.67h.53l.53,2.67h0l.36-2.67h.41l-.47,3.09h-.63l-.49-2.59h0l-.5,2.59h-.62Z"/><path class="cls-16" d="M71.76,185.46h1.11v-2.27H71.76v-.41h1.59v2.68H74.4v.41H71.76Zm1.35-3.37a.44.44,0,0,1-.29-.08.3.3,0,0,1-.08-.22v-.1a.29.29,0,0,1,.08-.22.39.39,0,0,1,.29-.09.41.41,0,0,1,.3.09.33.33,0,0,1,.08.22v.1a.35.35,0,0,1-.08.22A.47.47,0,0,1,73.11,182.09Z"/><path class="cls-16" d="M75.2,185.46h1.08v-3.61H75.2v-.42h1.56v4h1.08v.41H75.2Z"/><path class="cls-16" d="M78.8,185.46h1.08v-3.61H78.8v-.42h1.56v4h1.08v.41H78.8Z"/><path class="cls-16" d="M12.89,193.07a.48.48,0,0,1-.4-.14.73.73,0,0,1-.15-.36h0A.87.87,0,0,1,12,193a1.07,1.07,0,0,1-.6.16,1.1,1.1,0,0,1-.77-.26.83.83,0,0,1-.29-.69.77.77,0,0,1,.31-.66,1.7,1.7,0,0,1,1-.24h.66V191a.66.66,0,0,0-.19-.51.82.82,0,0,0-.55-.17,1,1,0,0,0-.51.12,1,1,0,0,0-.32.34l-.32-.24a1.11,1.11,0,0,1,.16-.24,1,1,0,0,1,.25-.2,1.28,1.28,0,0,1,.34-.14,1.45,1.45,0,0,1,.43-.05,1.33,1.33,0,0,1,.87.27,1,1,0,0,1,.32.77v1.71h.43v.41Zm-1.43-.33a1.18,1.18,0,0,0,.34,0,1.11,1.11,0,0,0,.27-.12.62.62,0,0,0,.18-.18.46.46,0,0,0,.06-.23v-.51h-.66a1.25,1.25,0,0,0-.63.12.39.39,0,0,0-.2.35v.13a.42.42,0,0,0,.17.36A.82.82,0,0,0,11.46,192.74Z"/><path class="cls-16" d="M16.07,192.57h0a1,1,0,0,1-1,.58,1.07,1.07,0,0,1-.89-.43,2,2,0,0,1-.32-1.19,2,2,0,0,1,.32-1.2,1.06,1.06,0,0,1,.89-.42,1,1,0,0,1,1,.57h0v-1.85h.48v4.44h-.48Zm-.79.15a1.06,1.06,0,0,0,.31,0,.75.75,0,0,0,.25-.13.53.53,0,0,0,.23-.47V191a.53.53,0,0,0-.23-.47.75.75,0,0,0-.25-.13,1.55,1.55,0,0,0-.31,0,.83.83,0,0,0-.65.26.93.93,0,0,0-.23.67v.53a.93.93,0,0,0,.23.67A.83.83,0,0,0,15.28,192.72Z"/><path class="cls-16" d="M19.67,192.57h0a1,1,0,0,1-1,.58,1.07,1.07,0,0,1-.89-.43,2,2,0,0,1-.32-1.19,2,2,0,0,1,.32-1.2,1.06,1.06,0,0,1,.89-.42,1,1,0,0,1,1,.57h0v-1.85h.48v4.44h-.48Zm-.79.15a1.06,1.06,0,0,0,.31,0,.75.75,0,0,0,.25-.13.53.53,0,0,0,.23-.47V191a.53.53,0,0,0-.23-.47.75.75,0,0,0-.25-.13,1.55,1.55,0,0,0-.31,0,.83.83,0,0,0-.65.26.93.93,0,0,0-.23.67v.53a.93.93,0,0,0,.23.67A.83.83,0,0,0,18.88,192.72Z"/><path class="cls-16" d="M24.65,193.07V190h.44v.36h0a1,1,0,0,1,.21-.31.57.57,0,0,1,.39-.12.54.54,0,0,1,.4.13.6.6,0,0,1,.16.35h0a1.09,1.09,0,0,1,.24-.35.63.63,0,0,1,.43-.13.51.51,0,0,1,.51.26,1.87,1.87,0,0,1,.13.75v2.15h-.45V191a1.24,1.24,0,0,0-.08-.55.3.3,0,0,0-.29-.15.44.44,0,0,0-.32.12.54.54,0,0,0-.12.38v2.27H25.9V191a1.41,1.41,0,0,0-.08-.55.31.31,0,0,0-.29-.15.44.44,0,0,0-.32.12.54.54,0,0,0-.12.38v2.27Z"/><path class="cls-16" d="M29.72,193.15a1.37,1.37,0,0,1-.58-.12,1.06,1.06,0,0,1-.45-.33,1.56,1.56,0,0,1-.28-.51,2.24,2.24,0,0,1-.09-.66,2.31,2.31,0,0,1,.09-.67,1.56,1.56,0,0,1,.28-.51,1.15,1.15,0,0,1,.45-.33,1.36,1.36,0,0,1,.58-.11,1.41,1.41,0,0,1,.59.11,1.19,1.19,0,0,1,.44.33,1.4,1.4,0,0,1,.28.51,2.3,2.3,0,0,1,.1.67,2.23,2.23,0,0,1-.1.66,1.4,1.4,0,0,1-.28.51,1.09,1.09,0,0,1-.44.33A1.41,1.41,0,0,1,29.72,193.15Zm0-.42a.88.88,0,0,0,.65-.24,1,1,0,0,0,.25-.74v-.45a1,1,0,0,0-.25-.74.88.88,0,0,0-.65-.24.9.9,0,0,0-.65.24,1,1,0,0,0-.24.74v.45a1,1,0,0,0,.24.74A.9.9,0,0,0,29.72,192.73Z"/><path class="cls-16" d="M32,192.66h.91v-2.27H32V190h1.39v.78h0a1,1,0,0,1,.36-.58,1.14,1.14,0,0,1,.68-.2h.44v.48h-.59a1,1,0,0,0-.67.24.82.82,0,0,0-.25.63v1.33h1.2v.41H32Z"/><path class="cls-16" d="M37,193.15a1.48,1.48,0,0,1-.61-.12,1.06,1.06,0,0,1-.45-.33,1.28,1.28,0,0,1-.29-.51,1.9,1.9,0,0,1-.11-.66,2,2,0,0,1,.11-.67,1.58,1.58,0,0,1,.29-.51,1.15,1.15,0,0,1,.45-.33,1.34,1.34,0,0,1,.58-.11,1.3,1.3,0,0,1,.56.11,1.4,1.4,0,0,1,.44.31,1.42,1.42,0,0,1,.27.48,1.74,1.74,0,0,1,.1.61v.23H36v.14a1.21,1.21,0,0,0,.06.38,1.17,1.17,0,0,0,.19.3.77.77,0,0,0,.3.19,1,1,0,0,0,.4.07,1.09,1.09,0,0,0,.54-.14,1,1,0,0,0,.34-.4l.36.24a1.13,1.13,0,0,1-.46.51A1.42,1.42,0,0,1,37,193.15Zm0-2.85a1.06,1.06,0,0,0-.37.07,1,1,0,0,0-.29.2.85.85,0,0,0-.19.3.9.9,0,0,0-.07.37v0H37.8v-.07a1.06,1.06,0,0,0-.06-.37.92.92,0,0,0-.17-.29.7.7,0,0,0-.27-.19A.84.84,0,0,0,37,190.3Z"/><path class="cls-16" d="M42.8,192.66h1.08v-3.61H42.8v-.42h1.56v4h1.08v.41H42.8Z"/><path class="cls-16" d="M47.78,193.15a1.48,1.48,0,0,1-.61-.12,1.06,1.06,0,0,1-.45-.33,1.28,1.28,0,0,1-.29-.51,1.9,1.9,0,0,1-.11-.66,2,2,0,0,1,.11-.67,1.58,1.58,0,0,1,.29-.51,1.15,1.15,0,0,1,.45-.33,1.34,1.34,0,0,1,.58-.11,1.3,1.3,0,0,1,.56.11,1.4,1.4,0,0,1,.44.31,1.42,1.42,0,0,1,.27.48,1.74,1.74,0,0,1,.1.61v.23H46.83v.14a1.21,1.21,0,0,0,.06.38,1.17,1.17,0,0,0,.19.3.85.85,0,0,0,.3.19,1,1,0,0,0,.4.07,1.09,1.09,0,0,0,.54-.14,1,1,0,0,0,.34-.4l.36.24a1.13,1.13,0,0,1-.46.51A1.42,1.42,0,0,1,47.78,193.15Zm0-2.85a1.06,1.06,0,0,0-.37.07,1,1,0,0,0-.29.2.85.85,0,0,0-.19.3.9.9,0,0,0-.07.37v0H48.6v-.07a1.06,1.06,0,0,0-.06-.37.92.92,0,0,0-.17-.29.7.7,0,0,0-.27-.19A.84.84,0,0,0,47.75,190.3Z"/><path class="cls-16" d="M52.49,193.07a.48.48,0,0,1-.4-.14.73.73,0,0,1-.15-.36h0a.87.87,0,0,1-.33.42,1.07,1.07,0,0,1-.6.16,1.12,1.12,0,0,1-.77-.26.83.83,0,0,1-.29-.69.77.77,0,0,1,.31-.66,1.7,1.7,0,0,1,1-.24h.66V191a.63.63,0,0,0-.19-.51.82.82,0,0,0-.55-.17,1,1,0,0,0-.51.12,1,1,0,0,0-.32.34l-.32-.24a1.11,1.11,0,0,1,.16-.24,1,1,0,0,1,.25-.2,1.22,1.22,0,0,1,.35-.14,1.38,1.38,0,0,1,.42-.05,1.29,1.29,0,0,1,.87.27,1,1,0,0,1,.32.77v1.71h.43v.41Zm-1.43-.33a1.18,1.18,0,0,0,.34,0,1.11,1.11,0,0,0,.27-.12.52.52,0,0,0,.18-.18.46.46,0,0,0,.06-.23v-.51h-.66a1.25,1.25,0,0,0-.63.12.39.39,0,0,0-.2.35v.13a.42.42,0,0,0,.17.36A.82.82,0,0,0,51.06,192.74Z"/><path class="cls-16" d="M54.62,193.07,53.51,190H54l.45,1.29.48,1.4h0l.48-1.4.44-1.29h.48l-1.11,3.09Z"/><path class="cls-16" d="M58.58,193.15A1.48,1.48,0,0,1,58,193a1.06,1.06,0,0,1-.45-.33,1.28,1.28,0,0,1-.29-.51,1.9,1.9,0,0,1-.11-.66,2,2,0,0,1,.11-.67,1.58,1.58,0,0,1,.29-.51A1.15,1.15,0,0,1,58,190a1.34,1.34,0,0,1,.58-.11,1.3,1.3,0,0,1,.56.11,1.4,1.4,0,0,1,.44.31,1.42,1.42,0,0,1,.27.48,1.74,1.74,0,0,1,.1.61v.23H57.63v.14a1.21,1.21,0,0,0,.06.38,1.17,1.17,0,0,0,.19.3,1,1,0,0,0,.3.19,1,1,0,0,0,.4.07,1.09,1.09,0,0,0,.54-.14,1,1,0,0,0,.34-.4l.36.24a1.13,1.13,0,0,1-.46.51A1.4,1.4,0,0,1,58.58,193.15Zm0-2.85a1.06,1.06,0,0,0-.37.07,1,1,0,0,0-.29.2.85.85,0,0,0-.19.3.9.9,0,0,0-.07.37v0H59.4v-.07a1.06,1.06,0,0,0-.06-.37.92.92,0,0,0-.17-.29.7.7,0,0,0-.27-.19A.84.84,0,0,0,58.55,190.3Z"/><path class="cls-16" d="M62.16,193.15a2,2,0,0,1-.84-.17,2,2,0,0,1-.6-.44l.33-.28a2,2,0,0,0,.48.36,1.56,1.56,0,0,0,.64.12,1.15,1.15,0,0,0,.59-.13.41.41,0,0,0,.23-.4.4.4,0,0,0,0-.2.27.27,0,0,0-.13-.13l-.17-.08-.2,0-.49-.07-.35-.07a1.33,1.33,0,0,1-.35-.13,1,1,0,0,1-.26-.25.73.73,0,0,1-.1-.41.88.88,0,0,1,.09-.41.77.77,0,0,1,.26-.28,1.22,1.22,0,0,1,.4-.18,2,2,0,0,1,.5-.05,1.83,1.83,0,0,1,.73.13,1.61,1.61,0,0,1,.53.36l-.32.3a.83.83,0,0,0-.13-.14.76.76,0,0,0-.2-.12,1.69,1.69,0,0,0-.27-.1,2,2,0,0,0-.36,0,1.06,1.06,0,0,0-.56.12.43.43,0,0,0-.2.37.39.39,0,0,0,.05.2.37.37,0,0,0,.12.13.48.48,0,0,0,.18.07l.2.05.48.07.36.07a1.26,1.26,0,0,1,.34.13.88.88,0,0,1,.26.25.71.71,0,0,1,.11.41.8.8,0,0,1-.36.71A1.62,1.62,0,0,1,62.16,193.15Z"/><path class="cls-16" d="M68.16,192.66h1.11v-2.27H68.16V190h1.59v2.68h1v.41H68.16Zm1.35-3.37a.44.44,0,0,1-.29-.08.29.29,0,0,1-.08-.22v-.1a.29.29,0,0,1,.08-.22.39.39,0,0,1,.29-.09.41.41,0,0,1,.3.09.33.33,0,0,1,.08.22v.1a.33.33,0,0,1-.08.22A.47.47,0,0,1,69.51,189.29Z"/><path class="cls-16" d="M71.71,193.07V190h.48v.5h0l.12-.22a.77.77,0,0,1,.18-.18.87.87,0,0,1,.59-.17,1.06,1.06,0,0,1,.78.3,1.26,1.26,0,0,1,.29.88v2h-.48v-1.9a.9.9,0,0,0-.19-.63.67.67,0,0,0-.54-.21.86.86,0,0,0-.28,0,.64.64,0,0,0-.25.11.42.42,0,0,0-.17.18.48.48,0,0,0-.07.26v2.15Z"/><path class="cls-16" d="M11.87,200.27a.64.64,0,0,1-.52-.19.8.8,0,0,1-.16-.51v-2h-1v-.41h.77a.26.26,0,0,0,.22-.07.29.29,0,0,0,.07-.21v-.82h.46v1.1h1.41v.41H11.67v2.27h1.41v.41Z"/><path class="cls-16" d="M14.11,195.83h.48v1.85h0l.12-.22a.77.77,0,0,1,.18-.18,1.17,1.17,0,0,1,.25-.13,1.13,1.13,0,0,1,.34,0,1,1,0,0,1,.77.3,1.22,1.22,0,0,1,.3.88v2h-.48v-1.9a.9.9,0,0,0-.19-.63.67.67,0,0,0-.54-.21.86.86,0,0,0-.28,0,.64.64,0,0,0-.25.11.62.62,0,0,0-.18.18.58.58,0,0,0-.06.26v2.15h-.48Z"/><path class="cls-16" d="M19,200.35a1.48,1.48,0,0,1-.61-.12,1.06,1.06,0,0,1-.45-.33,1.28,1.28,0,0,1-.29-.51,1.9,1.9,0,0,1-.11-.66,2,2,0,0,1,.11-.67,1.42,1.42,0,0,1,.29-.51,1.15,1.15,0,0,1,.45-.33,1.34,1.34,0,0,1,.58-.11,1.3,1.3,0,0,1,.56.11,1.4,1.4,0,0,1,.44.31,1.42,1.42,0,0,1,.27.48,1.74,1.74,0,0,1,.1.61v.23H18V199a1.21,1.21,0,0,0,.06.38,1.17,1.17,0,0,0,.19.3.77.77,0,0,0,.3.19,1,1,0,0,0,.4.07,1.09,1.09,0,0,0,.54-.14,1,1,0,0,0,.34-.4l.36.24a1.13,1.13,0,0,1-.46.51A1.42,1.42,0,0,1,19,200.35Zm0-2.85a1.06,1.06,0,0,0-.37.07,1,1,0,0,0-.29.2.85.85,0,0,0-.19.3.9.9,0,0,0-.07.37v.05H19.8v-.07a1.06,1.06,0,0,0-.06-.37.92.92,0,0,0-.17-.29.7.7,0,0,0-.27-.19A.84.84,0,0,0,19,197.5Z"/><path class="cls-16" d="M26.27,200.27a.65.65,0,0,1-.52-.19.8.8,0,0,1-.16-.51v-2h-1v-.41h.76a.26.26,0,0,0,.22-.07.29.29,0,0,0,.07-.21v-.82h.46v1.1h1.41v.41H26.07v2.27h1.41v.41Z"/><path class="cls-16" d="M28.38,199.86h.91v-2.27h-.91v-.41h1.39V198h0a1,1,0,0,1,.36-.58,1.14,1.14,0,0,1,.68-.2h.44v.48h-.59a1,1,0,0,0-.67.24.82.82,0,0,0-.25.63v1.33H31v.41H28.38Z"/><path class="cls-16" d="M33.38,200.35a1.48,1.48,0,0,1-.61-.12,1.06,1.06,0,0,1-.45-.33,1.28,1.28,0,0,1-.29-.51,1.9,1.9,0,0,1-.11-.66,2,2,0,0,1,.11-.67,1.58,1.58,0,0,1,.29-.51,1.15,1.15,0,0,1,.45-.33,1.34,1.34,0,0,1,.58-.11,1.3,1.3,0,0,1,.56.11,1.4,1.4,0,0,1,.44.31,1.42,1.42,0,0,1,.27.48,1.74,1.74,0,0,1,.1.61v.23H32.43V199a1.21,1.21,0,0,0,.06.38,1.17,1.17,0,0,0,.19.3.77.77,0,0,0,.3.19,1,1,0,0,0,.4.07,1.09,1.09,0,0,0,.54-.14,1,1,0,0,0,.34-.4l.36.24a1.13,1.13,0,0,1-.46.51A1.42,1.42,0,0,1,33.38,200.35Zm0-2.85a1.06,1.06,0,0,0-.37.07,1,1,0,0,0-.29.2.85.85,0,0,0-.19.3.9.9,0,0,0-.07.37v.05H34.2v-.07a1.06,1.06,0,0,0-.06-.37.92.92,0,0,0-.17-.29.7.7,0,0,0-.27-.19A.84.84,0,0,0,33.35,197.5Z"/><path class="cls-16" d="M37,200.35a1.48,1.48,0,0,1-.61-.12,1.06,1.06,0,0,1-.45-.33,1.28,1.28,0,0,1-.29-.51,1.9,1.9,0,0,1-.11-.66,2,2,0,0,1,.11-.67,1.58,1.58,0,0,1,.29-.51,1.15,1.15,0,0,1,.45-.33,1.34,1.34,0,0,1,.58-.11,1.3,1.3,0,0,1,.56.11,1.4,1.4,0,0,1,.44.31,1.42,1.42,0,0,1,.27.48,1.74,1.74,0,0,1,.1.61v.23H36V199a1.21,1.21,0,0,0,.06.38,1.17,1.17,0,0,0,.19.3.77.77,0,0,0,.3.19,1,1,0,0,0,.4.07,1.09,1.09,0,0,0,.54-.14,1,1,0,0,0,.34-.4l.36.24a1.13,1.13,0,0,1-.46.51A1.42,1.42,0,0,1,37,200.35Zm0-2.85a1.06,1.06,0,0,0-.37.07,1,1,0,0,0-.29.2.85.85,0,0,0-.19.3.9.9,0,0,0-.07.37v.05H37.8v-.07a1.06,1.06,0,0,0-.06-.37.92.92,0,0,0-.17-.29.7.7,0,0,0-.27-.19A.84.84,0,0,0,37,197.5Z"/><path class="cls-16" d="M40.52,200.33a.49.49,0,0,1-.34-.1.35.35,0,0,1-.1-.26v-.11a.35.35,0,0,1,.1-.26.45.45,0,0,1,.34-.1.47.47,0,0,1,.35.1.4.4,0,0,1,.1.26V200a.4.4,0,0,1-.1.26A.52.52,0,0,1,40.52,200.33Z"/></g></g></svg>