<svg id="Layer_1" data-name="Layer 1" xmlns="http://www.w3.org/2000/svg" xmlns:xlink="http://www.w3.org/1999/xlink" viewBox="0 0 233.87 250.24"><defs><style>.cls-1{fill:none;}.cls-2{fill:#6c613c;}.cls-3{fill:#5f7939;stroke:#000;stroke-miterlimit:10;stroke-width:0.5px;}.cls-4{fill:#b7c49d;}.cls-5{clip-path:url(#clip-path);}.cls-6{fill:#0c0d0d;}.cls-7{fill:#78543c;}.cls-8{fill:#4f3a25;}.cls-9{clip-path:url(#clip-path-2);}.cls-10{fill:#0f0f0f;}.cls-11{fill:#768b49;}.cls-12{fill:#b5becb;}.cls-13{clip-path:url(#clip-path-4);}.cls-14{clip-path:url(#clip-path-5);}.cls-15{clip-path:url(#clip-path-6);}.cls-16{clip-path:url(#clip-path-7);}.cls-17{clip-path:url(#clip-path-8);}.cls-18{clip-path:url(#clip-path-9);}.cls-19{clip-path:url(#clip-path-10);}.cls-20{clip-path:url(#clip-path-11);}.cls-21{clip-path:url(#clip-path-12);}.cls-22{clip-path:url(#clip-path-13);}.cls-23{clip-path:url(#clip-path-14);}.cls-24{fill:#050605;}.cls-25{fill:#7d5742;}.cls-26{isolation:isolate;}.cls-27{fill:#f8f8f8;}</style><clipPath id="clip-path"><rect class="cls-1" width="233.87" height="250.24"/></clipPath><clipPath id="clip-path-2"><rect class="cls-1" x="64.26" y="89.38" width="26.37" height="15.68"/></clipPath><clipPath id="clip-path-4"><rect class="cls-1" x="49.34" y="91.06" width="26.37" height="15.68" transform="translate(-54.44 95.85) rotate(-56.2)"/></clipPath><clipPath id="clip-path-5"><rect class="cls-1" x="166.16" y="75.65" width="25.3" height="15.94"/></clipPath><clipPath id="clip-path-6"><rect class="cls-1" x="164.48" y="92.38" width="24.26" height="15.29"/></clipPath><clipPath id="clip-path-7"><rect class="cls-1" x="85.66" y="65.26" width="18.19" height="16.36"/></clipPath><clipPath id="clip-path-8"><rect class="cls-1" x="35.65" y="76.64" width="26.37" height="15.68"/></clipPath><clipPath id="clip-path-9"><rect class="cls-1" x="47.58" y="47.1" width="15.68" height="26.37" transform="translate(-17.58 97.39) rotate(-74.35)"/></clipPath><clipPath id="clip-path-10"><rect class="cls-1" x="165.76" y="149.21" width="11.62" height="19.53" transform="translate(-62.33 159.74) rotate(-43.01)"/></clipPath><clipPath id="clip-path-11"><rect class="cls-1" x="60.23" y="72.02" width="26.37" height="15.68" transform="translate(-31.82 106.19) rotate(-61.46)"/></clipPath><clipPath id="clip-path-12"><rect class="cls-1" x="100.77" y="77.12" width="23.93" height="14.24" transform="translate(-22.73 46.11) rotate(-21.05)"/></clipPath><clipPath id="clip-path-13"><rect class="cls-1" x="153.8" y="117.15" width="13.26" height="22.3" transform="translate(-37.93 181.69) rotate(-53.71)"/></clipPath><clipPath id="clip-path-14"><rect class="cls-1" x="-1.07" y="155.28" width="90.32" height="81.4"/></clipPath></defs><path id="Path_1571" data-name="Path 1571" class="cls-2" d="M116.34,133.65l3.85,6.16-.06,1.61-1.22-.95-1.64-.54.25,2.66-1.39,1.46-.8,3.08-.7,3.08h-2.15l-1.4-1.73-.53-2.06-2-1.63,1.5-1.14.25-2.2L107.46,139l1.68-1.18h2l-1.38-3.53-2.07.47-.14-1.64,2-1.42,1.84-.47.52,2.2,1.43.78,2.31-.23Z"/><path id="Path_1572" data-name="Path 1572" class="cls-3" d="M139.27,82.36m33.62,37.9-.1-2.1.57-1.23,2.25.75.1,2.45.78-1,2.44-1.22.52,1.43-1.19,1.08-.79,1.43,1.65.41.52,1.63-1.38-.07-.64,1.09,1.08.88.58,2.38,2.26.14v-3l1.93-.07-.31,1.08,2.45,1.5-1.87,4.41-2.28.81,3.2,1.15,2.1,2-2.37,1.9-1.85-.14-.89-.47-.31-1.49-1.17.06-2.3,1.9-1.63-.88.37-1.49.85-1.63.93-2.1-.79-1.9-2.15.75L174,129.17l.58-1.43-.87-1.42.45-1.9-1.72-.06-1.18,1-.8,2.31-1.6,1-2.2.27-1.35-1.36-1.74-2.5,2.9-.55,2.54-.41.86-1.15-1.18.14-2.41.2-2.52-1.09,5.38-1.15.1-1.77.1-1.43,1.77.89.38,1.55Zm11.87-19.93,2.14-2.76,2.49,1.82-.73,1.46-.72,1.37.4,1.73,2.87-.27.63,3.28-.9,1.8L189,109l-.5-1.29-.49-1.46-2,.43.92,2.07-1.32.77-2.08-.34-.75-1.29-1.72-1.12-1.67,1,1.51,2.67.05,1.89-2,.43-2.68-.43.89-1.37-1.53-2-3.55-.85.83-2.58L175,106l.21-1.9,2.31,1.38,2.27-.17-.91-2.42,1.24-1.46,2,.86,2.69.26ZM67.86,98.07l.1-2.65,2.84-.23,2.35,2.13-.7,1.06,2.66,2-1,3.26-2.74-1.37-1.67-.76-.32,2L72,105.94l1.38.77-1.09,1.81-1.37-.45L68.1,105.8l-.85,1.89-.1,2L66.83,111l-3.59.07-2.67-.61.17-1.89,2.3-.45,1.68-.23-1.44-2.27-1,1.14-.6-.82-.26-.82,1-.52.86-.07.89-1.73-.75-.93.2-1.09,1.18-.91,2.07.3ZM74.57,61l-1.29-1.6,5,2-.71,1.45-2.08.61-.47,1.23,1.84.61,1.07.91.83,1.6-.16,1.46-1.08.45-1.87,1.6-1,1.08-1.46,1.07-1.38-.84-2-1.38-.79,1.6-1.61.54L65.4,72l-1.07-1.37-1.08.84-.86,1.22h-1.3l-3.29-1.3,1.78-2,2.24-1.91,1.77.3L65,68.91l2.6,1.75,1.16-.76.32-2.14-2.37-1.37L64.3,66l-1.69-.77.87-3,2.63-1.69,1.52,1.91,1.71-2L71,59.9l.21,2.52Zm68.66-14.75.38-2.4.5-1.79,3.3.62,2.12,1.17,1.76,2L150,47.92l-2.87-1.3-1-.83-.59,2.61-1.74,1.51-1.65-.34L140,48.33l-1.58.27-1.39.48-.37-2.4,2.51-2,2.25,1.3.81,1.1Zm-62.9,3.72-.2-1.35,1.63-1.68,2.89-.59.61-1.19-.36-2.49,1.21-1,2.45-.7.52,1.89,2,.65,3.26.49.14,1.78L94.72,48l-1.26,1.4-1.67-.76-2.92-1.94-.55,1.13,1.45,1.73L89,52.34l-3.19-.59-.05-1.19-2.34.49-1.2.7Zm40.32-18.39,2.14-.27-.05-2,1.11-.68,4.25,1.84-.79,2,1.71.41,1.22,1.37.1,2.53-2.56,1.58L127,35.72l-1.46,1.71-2.18-1.1.43-1.92,1.47-1.16-3.86.28ZM109.49,0l-3,2.5-1.6,2.64L102.14,6,100,6.46,98.34,8.15l.92,2.64,3.39.18,2.81.82-.9,1.88-2.89-.06-2,1.88,7.16.94L108.6,18l-4.47.81-1.51.12L100.09,21l.85,1.93L103.62,24l.79,2.63-1.78,1.94-6.09-.88L94.85,28l-2.74-2.06L91.77,23l-1-2.07,2.82.63,1.37,1.56,1.65-2.39-2.65-4.26-1.39.88-.89.88-2.12-1.51-.81-2.07-1-2.44-1.22,3-.15,2.51-2.56-1.13-3-1.19L79.2,16.7l1.42,1.95L79.43,20l-1.71,1.25,3.88.88,1.29,3.31-3,2-1,.94,0,2.13L77.8,32.66l1.88.25,3.63.71.6,2.5-2.47,2.56-2.6,2-2,2-4.47.88-3.5-1.24.08-1.88,2.7-.19,2.77-1.18.72-2.68-2.3-2.2-2.26-1.12-.49-2.31-4.25-1.12L64,31.94l-5.08-.5L59,29.19l-1.49-1.82,1-1.13,2.38,1.25,2.38.5L64,25.74,62.9,23.8l-3.26-.69-2.5-.32-.68-.94-2.52.25-.08,2.82-1.72,3.31-2.32.5-1.7.26-.44-2.08-.92-2.69-1.52.5-.33,2.57-2,1.12L41.27,27l-1.11-2.19L39,25.65l-2-.18-.94,1.25L36.49,29,36,32.24l-4.46,1L30.15,35.3l5.33.56,1.3,2.75-2.2,1,.25,1.94,2.49,2.05,2.33-1.06-.24-3.24,2.56.62L43,41.05l0,1.44-.7,1.43,2.2-1.06.74,1.81-1.7.62-1.57,1.5,1.69,1L46.06,47l1.2-1.56,2.17,4-3.08,2.06-.68.93-2.14.69,1.85,4.47,1.56.69,3.27-1.37L53.39,58,54.63,60l1.83-1.49L59.3,55l-2.55-1.87,2.78-2.24,1.67,1.63,1.42,2.74-.83,2.49-1.08,3.7-4.45-.19-.47,2.86L53,64.21,51,63.09l-4,2.17-3.76.88-.58,3,2.4,5.28-3.88.5L38,78.3l-4.05-1.67-1.5-1.12-1.39,2.6-2.17-3.6,2.26-1.36,2.68,1,2.38-.62,2.57-2.17-2.66-4.91-2.5-.06.08-2.3-1.18-.18-1.26,1.61-2.48-3.85-.49-1.24L23.39,61l.8,3.24-4.12-.62-1.76-2.49-4.07.94L14.17,64l1.36,3.49-1.27,2.8-3.68-1.73-1-.13,1.05,3.35.06,1.68-2.08.92,1.69,1.68,4,1.43,2.17,3.3L14,81.18l2.8,2.17L16,85.83l-4.3-.56-1,2.35,1.55,2.11,1.87.55,1.11,2.1,2.38-.86,2.26-2.78,2.68.43,2.62,2L28,90l3.08-4.51L34.28,90l-1.45,3-1.92-1-2.83,2.91,4.55,2,.93,1.61-.7,1.91-6-2.67.55,2.37,1.48,2.41,1.8,1.24-1.56,1.86-3.3.55-1.64,2.22L21,107.5l-1.23-2,1.87.06.14-4-.42-3-5-.62-1.2,2-.57,4.15-1.14,4-2.62,2.09L8.26,110l-2-1.44-3.86.24,1.78,5.54,5.42,1,2.23,2.34-1.69,2-2.55.06,1.05,2.71,6-1.67.79,3.64,1.68.55,3-3.38-1-4.68,0-2.9,3-.67L25.72,119l-1.14,3.56-2.06,2L19.39,128l2.18,3.11-1.63.85-2,.56,3,2.09,3.23,1.71.67-.08,3.93-.47.59-4.91-3.17-2.88,1.64-2.34,7,2.07,1.08-4.06.58-4.12-2-3.19,2.67.61,1,4.56,2.41,3,1.58-5.35,2.07-1.29,3.58,3.51.61,2.76L38.45,128l-1.7,3.38L39,134.13l-3.8.92-.63,1.31,1.17,2,1.72,4,.8,1.22,1.85,1.35,1.69-2.33.9-4.53,1.38-1.9,2.84,2.94.85,2.46,2.11.85.59,4.8-3,.73h0L43,147.71l-1.13,1.1L41,152.67,43.06,155l1.1,2.5,3.9,1.58,1.08-1.36-1.69-2.08.32-1.77,2.31-1.29,1.71,1.58.29,2,2.5.78.32-2.07-.59-2.27,2.51-.4L59,155.26l2.41-.4.42-1.49-.69-2.08-.79-1.77.32-2.39,2-1.18,1.2,1.88,2.83-1.19,0-1.69,0-1.68-2.21-.7-2.1-1-2.1-1-.18-3.08,3.34-1.68h1.9l.56-1.16.56-1.15-3-1.69-.89-2.38.42-2.29h1.81l2.12-.7.82-1.89.87-.3.88-.3.58-.2.88,2.29,1.5,1.09-2.34,1.79-1.23,2.18,1.7,1.69,2.93-.59.33-2.88,1.61-.2.49,1.39.24-.82.24-.81,1.2-.93,2-.15.13-1.52-.69-.83-2.64.34L73,121.9l.34-2.2L72,118.12l1.21-1.73,2.23.16.26-2.21L77,115.53l.94,1.41,1,.48-.82,2.6.85,2.66,2.72-1.17.74-1.81,1.12-.79,1.43.16-.37-3.15.1-1.58,1.2-.47,1.3-2.88,1.85-.75,1.49,2.06-1.52,1.26.86,1,3.59-.16,2.46.48.92,2.91-.35,2.28-1.39,2.67-1.74-.16-.61-2.52-4,1,1.89,2.59,1.7,4,.13,2.5,2.21,2.12,2,.25.29,1.65-1.12.93-1.77,1.41.22,2.51,1.1,1.1,1.44-.39,1.43-.39,2.1-2.74.71.15.72.16,1,1.25,1,1.26,1.87,3.9.09.18,2,1.73.66-.5,1.5-1.15.26-2.19L107.46,139l1.68-1.18h2l-1.39-3.53-2.07.47-.14-1.64,2-1.42,1.84-.47.52,2.2,1.42.79,2.31-.24.72-.36,1-.49-.69-1.5-1.9-1.41.5-1.1,1.36.79,1.77-.12.63,0,.47-1.38.37-2-1.49-1.7-1.57.13-1.57.14-.54-1.94-.15-1.45-.48.57-2.52,3-2.64.66-.64-2.2,2.53-.84-.37-1.87-2.73-1.39,1.25-1.74,3-1.27-1-2.55,2.36-.49,1.21-2.71-.26-1.55,1.13-.31,1.12-.3,1.29.16,1.28.17,2-.44,1,2,.12,2.16.06,1-.07,1.16,1.49,1.22-.46.88.5.64.49.63,1.62-.11,1.62-.11.67-2.25-.15-1.5,2.28,1.22.41,2.38.37,1.82-.48,1.67-1.23.55-1.47,1,.42.36,1.13,1h1.84l.15,1.11.26,1.1,1,.5,1.45.33,1.42-1.55.18-1.32-1.49-1.22.59-1.6,2.18-.61.93,1.66,1.18.16,1.17.17,1.41-.89-.19-2.15.84-.17,1.34.11,1-1.16-.91-2.27L141.1,116l-1,.94-1.46.67-1-2.89.36-1.71,1.13-.67,1.56.56h1.74l1.15-2.11-.25-2.22,1-.33,1.16,2.27,1.41-.61,1.78,1,1,1.6.15.93.25,1.56-1.11,3-1.41.88-1.51.4-.56.88-.31.65.54,1.6,1.56.39.2,1,1.67.72,1.9-.5,2.44-5.64,2.16,1.22.64,1.71.25,2.16-.09,2.37-1.64.55-.73.22.33,1.46,1.43,1.1,1.44,1.11-.08,1.22-1.3,1-.3,1.16,1.54,1.65.25,1.43-.57,1.49-1.52.49-1-1.87-1.7,1.1,1.4,2.75v0l.48,1.71-2.41.66-3.69-.06,0,2.16,1.92,2.36.87,1,0,0,1.64-.26.66-3,1.57-.61,1,2-2.25,1-1.26,1.55-.3,1.6.29.23,2.25,1.83.67.08,2.62.3,1.58-1.31-.42-1.38H162l2.06.5,1.13-1.15.29-.3-1.67-3.13-1.1-.88,2.38-2.31,3.81-.61,1.33.66.81-1.65.74-1,.23-.31,1.56.33,1.58,1.71.08,2.31-1.09,1.27,2.15,1.21L175,149.08l-2.18.23-.95.09,1.85,2.6.71,1,1.38,1,.52,2.14,2.68-.22,1.13-.71.27-2.25-2-1.54,3.09-1.05,1.42,1.37.8,2,.24,2.09,0,1.49,1.68.66,1.22.22,2.3-.44.88-2.31.35-1,1.17.22,2,1.92,2-.06,1.54-1.1.93-2.14-1.91-1.71-.48,1.32-3.39-.47-.58-1.16.74-1,1.46-.44.48-1.93-.24-1.81-2.11-.39L189.43,144l-.08-1.77,2.38-3.26,2.76.27.58,2.46.42,1.5,2.12.45,1.14,1.14-.31,1.84,3.57.18-.41,2.55-.38,1.4.51,1.06.51,1,2.87-.61.56,3,.33,1.32,2.56,1,1.43-.27,1.75-2.55-1.68-.61,4.11-.35,2.25-1-1.19-2.9-1.93-1.41,3.22-.27,2.38,1.33,1.24.35,1.8-.8-.09-3.87-1.14-.87-2.43,1.05-2-.08.22-1.5,1.37-1.24.67-2.46-3.26-1.76-1.65,2-1.19,1.32-2.72-1.85,1.75-2.64-.93-2.38-3.65-.88-1.64,1.85h-1.79l-.94-1.85,0-2.12-1.3-1.85-.84-.22-.86-.22-2.78.61-1.58-.79-.77-1.77-.13-2.48-2.83-1.84.14-2.13,1.44-.61,3.17,2.29,2.84-2.47,1.62-.53,2.87,3.54-.93,1.85.58,2.38,2.75,1,.14,2.12,2.34-1.24-1.16-4.24.68-2.56,2.49.8,1.3,1.85-.15,2.83,2.77-1.06.39-1.32,1.38,2.21,1.22,1.23,1.33-3.53-1.92-2.3-1.23-.8L218,121.3l3.14-.65.41-2.39-.21-2.65-.83-2.57-1.24-.53-1.5,3-1.49-1.6-2.58-.61-.25,3.45-1.63.7-.85-2.3.58-1.77L210.8,111l-2-1.5-1.54,1-1.13,2.39h-2.41l-1.29-2.48L202,107.2l-3.2-1.25.24-1.77.54-2.17-1.38-1.89.42-3.22,3.05-.14,3.39-3.37,1.53,1.48-.74,1.75,4.87.21,1.5-.35-.35,3.22.87,2.46,2.28,2.31,2.44,1.82.57-3.71,1.45-1.12.39-1.83-2.17-1.46.53-1.35,1.36-.41,1.26.28.74-1.4L219.94,94l-1.29-4.09-2.14-.71-3.36,1.26-3.67-.22-1.71-2.8L207.11,85l2.79-1,.66,2.11,1.69.63,3.06-.56.61-2-2.19-1,2.42-.3,2.36-1.05.32-1.78L218,77.39l.55-2.68-2.53-1-1,1.47-2.2.07,0-1.61-3.13.42-1,1.83-1.13,2.81-3-.57-2.07-2.81-1.82,2-.46,1.76-2.88-1.34L195.14,77l-1.47,2.9-.54,2.25-.68,2.11L191,84.15l-1.88-2-1.7-3.38L185.31,80l-.37-3,2.56-.92.62-2.53-.46-1.77,3.58-1.76,3.17,1.63,2.22-.91,1-2,1.06.56,1.62.42,1.24-1.62,1.35-.21.9,1.2,2.69.49-.22-2.74-2.32-1.28,1.11-2,2.13.07-.3-2.82-2.74-1.83-1.64.41-2.78.5-3-.91,1.82-2.12,1.35-.07,1.06.35,1.43-1.12.39-2-1.23-2.26-.4-1.34.45-1.13h-3.34l-.8-2.47,0-1.2-1.52-2.27-2.44,1.06-1.61,2.82-.41,3L189.75,52l-3-1,1.45,2L191,55.52l.37,2.68-1.5,1.42-4,.48-.18-1.55,1-.84-.58-3-2.1-2.26-3.18-.64-.73.92,1.33,5-.82,2L178,61.45l-1-2.15-4.13-1.45,1.52,3,.6,3.85-2.33,2-1.84-.56-.51-2.84-4-2.17-2.61,1.72-1.54,1.78-2.08-.44,3.12,6.82-3.53.22-2.35.28,2.34,4.21.39,3.25,3.21.44.14-3.19,1.95.62-.44,2.8.26,2.52,3.56.62,4.51-2.3L172.5,76l2.24-.7,2.23.44L176.8,80l2,2,1.16-5,3.16,3.28.35,5.31-1.3,2.37-1.76-1.51L178.87,84l-3.26,2.39,2.95,4.25-2.51.71-2.48-.88-1.8.75,0,2.22,2,1,2.47-.35.26,2.87-1.77,2.25-1.88-1.46-.91,3.41-1.84.42-3.06-2,1.74-2.37.73-2-2-2.72-1.73-1.4-1.31-2,.26-2.3-1.85-3.64-1.61-.49-.9,3.22,1.29,2.87-1.93,1.46h-5l-3.16-.77-.39,2.37,2.09,1.19-.24,2.3-1,2.44-3.72-.55-.6,2L146,97.72l.52-1.74,1.57-1.68-1.78-3.14-2.27-.69-2.59-.91-1.88-1.33,2.59-3.5-2.92-2.37-1.95,3.07-1.58,1.75L131.67,87l-2.9.21,2.86-1.75.5-.91-2.43-2.66-3.07,2.24.18-2.45,2.27-1.19L128.61,79l-1.25-1,2.35-1.75,1.48-.14,1.95,2.1,1.71-.84,1,1.82-.17,2.3,3.64.91,1.91-.42.66-1.61-1.92-2.72,1-2.59,2.33-.35,1.42,3.85,4.23.35.94-1.54L149,75.64l5.23-.17,2.62-.56-4.37-5.67L151.73,67l4.17-.42,1.62.77,1.9-.73-.14-.91.13-1.34-.46-1-.48-.24.59-1.34,1.45-3.59,1.27.55.75,1.42L164.2,60l.93-1.38-.49-2.08-1-2-.26-1.22-.77.07-.3-.76,1.85-.25L165,52l0-1.25-.74-1.11-.62-.52,1.72-.69.59.37.88-.9.78,1.47-.48,1.35.89,1,2.2-.35,1.46.07.05,1.25,1.59.79,1.89-.66.66-1.83-.71-1.19-1.45-.42-.06-2.46,1.42-1.6,2.11,1.29.68,2.57,2.74-.83.77-2,2.43,1,1-1.44-.2-1.34-.69-1.89,1-2.91.9-.56.42-1.27-4.1-1.83-.53,1.67-1.3,1-1-1.06-1.89-.44-1.75.72-2.18.83-2.39-.5-.75-1.39,1.8-1.22,1.5.5,1.84.33,1.41-1.11.15-1.95,1.57-.83-.13-1.89-2.31-1.39L174.4,28l.41-1.06.77-2.11-2.29-.22-2,1-.15,2-1.66-.45-1-1.39-1.39-.56-2,.9.52,2.61h-2.85l-1.1,2L164.11,32l.48,1.73-2.41,3.44-2.4.45L159,34.12l-2.64.56.54,1.5-1.64,1.16-.93-1.11.22-3.11L152.66,33l-1.69.67-2.46.16-.08-2.33,3,.61,1-1.22-1.76-1.73L148.49,28,147,24.87l1.3-.83,1.34.23L151,25.66l2.22,1.28,4.31-.89-2.84-4.17-1.13-2.62,1.8-1.23,2.12.39-.37-2.36L155,12.71l-1.61-.39-.7,1.34-1.37,1.5-1,3.13-1.18.16-1.27-1.28-1-.56-1.52.67-.75-1.67,2.13-.84,1.79-2.45,2.76-.84-.48-2.07-1.76-1-2.76,1.11-1.22-.73-1.33-2.19L144,5.2l-2.91.22-.44,2.9.59,2.12-4.62,2.29-1.75.95,2,2.34,2,1.06-1.11,3L135,19.68l-1.56-1.06-.62-.78-.56,1,0,2.16-1.66.5-.82-.13,1.35,1.92,2,.7-2.43,2.55-2.34,1.6-1.83-1.56.35-1.84-1.24-1.22-1.51-1.3-2.18.47-.72.7L121,21.14l.26-2.08L119.06,19l-1.59.43-1.06-2.86,3.65,0,1.13,1.06,1.72-2.12.49-1.22,1.78,1.38,1.21.54,1.55-1.06-.26-3.81-.13-1.84-2.52,0-1.46-.07-.84-1.57,0-2.79-1.36-2.22L120,2.6l-.41-1.18-.34-.83L116.68.43l-1.27.4,1.2,2,1,1.61-2.7,1.92-1.72-.47-.44-2.63L111,2.87l-.5-.82L110.39.27Z"/><path id="Path_1573" data-name="Path 1573" class="cls-4" d="M197.93,158.51l-.6,2.83h-3l-.58-2-3.25-.84-.74,1.53-.14,3.07-2.73.76-3.78-2.67-3-1.76-1.82,1.45L177.19,164l-2.46,2.45-2.07-1.14-1.61-1.3-2.62-1.23-1.06-1.91-2.85-1.3.57-1.84-2.7-.84-3.49-.54-.19-.75,11.19-2.78,3.79-.81.71,1,1.38,1,.52,2.14L179,156l1.12-.71.27-2.25-2-1.55,3.09-1,1.42,1.37.8,2,.24,2.09,0,1.47,1.67.66,1.22.22,2.3-.44.88-2.3.36-1,1.16.22,2,1.92,2,0Z"/><path id="Path_1574" data-name="Path 1574" class="cls-2" d="M183.15,80.2l.34,5.31-1.3,2.39-1.75-1.51L178.87,84l-3.26,2.39,3,4.25-2.51.71-2.48-.88-1.8.75.05,2.22,2,1,2.47-.35.26,2.88-1.77,2.25-1.88-1.46-.9,3.41-1.84.42-3.07-2,1.74-2.37.74-2-2-2.72-1.74-1.4-1.3-2,.25-2.3-1.85-3.64-1.61-.49L160.4,86l1.29,2.87-1.93,1.46h-5l-3.16-.77-.39,2.37,2.09,1.19-.24,2.3-1,2.44-3.72-.55-.59,2-1.74-1.6.52-1.75,1.58-1.67-1.79-3.14-2.27-.7-2.59-.91-1.88-1.32,2.59-3.5-2.92-2.38,1.91-.42.66-1.61-1.94-2.73,1-2.59,2.33-.35,1.43,3.85,4.23.35.94-1.54L149,75.63l5.23-.16,2.62-.56-4.36-5.68L151.74,67l4.17-.42,1.61.77,1.9-.73-.14-.91.14-1.34.74-.27,3.12,6.83-3.53.21-2.34.28,2.34,4.21.39,3.25,3.21.44.14-3.19,1.95.62-.44,2.8.26,2.52,3.56.62,4.51-2.3L172.52,76l2.25-.71,2.22.45-.16,4.25,2,2,1.16-5Z"/><path id="Path_1575" data-name="Path 1575" class="cls-4" d="M96.71,132.58l.3,1.65-1.12.94-1.77,1.41.22,2.51,1.1,1.1-.3,1.78-1.87,1.91-2.54-.09-2.17-2.95,1-2.08-.24-1.56-4.2-2.52-1.5,1-.45,1.22v.86l-3.65-4.73.07-5.24.12-1.52-.69-.84-2.65.35L73,121.9l.33-2.2L72,118.12l1.21-1.74,2.23.16.26-2.21L77,115.51l.94,1.42,1,.47-.82,2.6.85,2.67,2.73-1.17.73-1.82,1.12-.78,1.43.16-.36-3.16.1-1.57,1.19-.47,1.3-2.88,1.85-.74,1.49,2.05-1.52,1.26.86,1,3.59-.16,2.46.48.92,2.91-.34,2.28-1.39,2.68-1.75-.17-.61-2.51-4,1,1.88,2.59,1.71,4,.13,2.51,2.2,2.12Z"/><path id="Path_1576" data-name="Path 1576" class="cls-2" d="M75.11,100.42l-1,3.26-2.74-1.37-1.68-.76-.32,2L72,105.94l1.38.76-1.08,1.82-1.38-.46-2.81-2.27-.85,1.89-.1,2-.32,1.21-3.6.08-2.67-.6.17-1.9,2.3-.45,1.68-.23-1.42-2.27-1,1.13-.61-.81-.26-.82,1-.52.87-.08.88-1.72-.75-.93.2-1.09,1.18-.91,2.06.3,1-2.05.1-2.65,2.83-.22,2.35,2.12-.7,1.06Z"/><path id="Path_1577" data-name="Path 1577" class="cls-4" d="M47.75,121.35l.61,2.76L38.44,128l-1.71,3.38L39,134.13l-3.8.91-.62,1.31,1.17,2,1.71,4,.8,1.23,1.86,1.35-1.68,1.83-1.1.42L34.54,146l-1.72,1.4.24,2.68-2.38-.2L28,148.26l-2.51.24-2.37-1.58-1.08-1.59L20,144.91l-2.09,2.34-1.11,3.83-1.8-.52v-.76l.2-1.58-.66-1.88,1.38-1.22-2.46-2.19.77-2.3,3,.61,1.52-1-.37-2.36.82-1.69,1.47.05,1.1,1.27,1.89.8,1.52-.61-.39-1.51,3.93-.47.58-4.92L26.17,128l1.63-2.34,7,2.07,1.08-4.06.58-4.12-2-3.19,2.68.61,1,4.55,2.41,3,1.59-5.35,2.06-1.3Z"/><g id="Group_291" data-name="Group 291"><g class="cls-5"><g id="Group_290" data-name="Group 290"><path id="Path_1578" data-name="Path 1578" class="cls-6" d="M56.5,79a56.66,56.66,0,0,0,4.09,6.6,12.68,12.68,0,0,0,10,5.11c4.14.24,7.53,2.81,10.21,7.17a3,3,0,0,1,.46,1.35A37.23,37.23,0,0,0,83.49,109c3.34,9,8.47,15.37,15.19,19.27,3.8,2.2,6,6.1,6.88,11.66a52,52,0,0,1,.19,10.8,15.23,15.23,0,0,1-.83,4.53c-.84,2.24-2.33,2.86-3.9,1.55a9.82,9.82,0,0,1-2.37-3.62c-1.22-2.74-2.2-5.64-3.28-8.48-3.18-8.35-7.5-15-14.18-18a16.51,16.51,0,0,0-7.47-1.92,4.93,4.93,0,0,0-4.29,2.41,4.15,4.15,0,0,0,.07,4.56,5.13,5.13,0,0,0,2.48,2c1.4.5,2.82.87,4.2,1.43a14.72,14.72,0,0,1,5.73,4.32c-.4.35-.72.23-1,.28-1.26.17-2.54.27-3.8.56a22.85,22.85,0,0,0-9,4.3c-.5.39-.83.28-1.23-.28-.75-1.07-1.53-2.09-2.35-3.07a25.25,25.25,0,0,0-6.95-6.4c-.87-.47-1.48-.14-1.81,1a2,2,0,0,0,.75,2.4c3.2,1.78,5.66,5,8.13,8.15.42.55.41.91-.06,1.36A25.32,25.32,0,0,0,61.11,152a1.27,1.27,0,0,1-1.19.69c-1.3,0-2.61,0-3.91,0-.61,0-1,.31-1.23,1.15-.32,1.33.23,2.45,1.3,2.48,1.59,0,3.18,0,4.76,0a2,2,0,0,0,1.82-1.23A19.75,19.75,0,0,1,65,151.87c5.6-6.51,12.13-9,19.34-8.5a1.37,1.37,0,0,1,1.12.68,21.32,21.32,0,0,1,3.1,8.25,58.08,58.08,0,0,0,1.29,6.94c.58,2,1.37,3.8,3,4.37,4.12,1.46,7.39,4.74,10.26,8.95a4.84,4.84,0,0,1,.79,1.78,45.2,45.2,0,0,1,.68,6c.39,6.76.28,13.51,0,20.27a180.07,180.07,0,0,1-1.7,19.4c0,.28.11,1.29-.49,1.8-.82.69-2.43,0-3.06-.25-1.86-.7-4.4-.23-9.45.7-3.77.7-7.75,1.44-12.11,4.08a28.12,28.12,0,0,0-7.73,7,153.14,153.14,0,0,1,18-1.28q3.86,0,7.49.09a.44.44,0,0,0,0,.1,2.88,2.88,0,0,0,1.3.5c1.51.27,3.11,1.15,4.62,1.57a34.41,34.41,0,0,0,4.72,1,36,36,0,0,0,6.06.3c4-.12,19.69-1,41-2.42a21.28,21.28,0,0,0-11.82-9.1,15.28,15.28,0,0,0-7.88-2.12c-3.14.08-6.29-.41-9.41-.09a.9.9,0,0,1-.62-.14.83.83,0,0,1-.3-.6c-.5-2.7-1-5.4-1.34-8.14q-.74-5.38-1.13-10.84a107.93,107.93,0,0,1-.09-14.83c.3-4.66,1.95-7.84,5-9.76a56.84,56.84,0,0,1,6.47-3.5c4.11-1.85,8.3-3.36,12.36-5.44a16.11,16.11,0,0,0,6-4.6,3.89,3.89,0,0,1,1.65-1.33,41.57,41.57,0,0,0,7.23-4,34,34,0,0,0,5.71-5.85,29.06,29.06,0,0,1,12.47-8.2h0a1.85,1.85,0,0,0,1.24-2.29c-.21-1.22-.88-1.64-1.94-1.26a34.55,34.55,0,0,0-9.66,5.33c-.2.15-.4.62-.66.27s.05-.59.07-.89a3.41,3.41,0,0,1,.14-.55,42.61,42.61,0,0,1,5.2-12.15,2.32,2.32,0,0,0,0-3c-.7-.78-1.34-.58-2.08.68a55.89,55.89,0,0,0-3.18,6.09,37.67,37.67,0,0,0-3.41,12.65,2,2,0,0,1-.53,1.15,22.56,22.56,0,0,1-8.75,7.19c-.14.08-.29.35-.45.09s0-.45.08-.65c.66-1.86,1.35-3.71,2-5.58a157,157,0,0,0,4.46-15.47c.64-2.85-1-5.29-3.12-4.62-2.69.87-4.61,3.2-5.39,6.8A41.62,41.62,0,0,1,145,153.93c-1.82,2.55-3.72,4.93-6.39,5.74-.76.24-.8-.12-.78-.94,0-2.28.12-4.56.07-6.84a6.52,6.52,0,0,1,1.54-4.7,58.52,58.52,0,0,0,6.44-9.37c.06-.12.14-.24.2-.36a2.36,2.36,0,0,0-.08-2.72c-.64-.72-1.33-.62-1.92.4A74.55,74.55,0,0,1,137,145.41a8.18,8.18,0,0,0-1.65,5.11c-.07,3.11-.11,6.21-.14,9.32,0,.7-.16,1-.7,1.16-3.05.87-6.12,1.64-9.12,2.77-1.34.5-1.75-.19-1.92-1.93-.28-3,0-6-.06-9a9.57,9.57,0,0,1,2.15-6.59,73,73,0,0,1,7.43-7.6A54.19,54.19,0,0,0,140,131a23.49,23.49,0,0,0,3.81-9.41c.14-.69.15-1.48.75-1.88,4.62-3.11,9.3-5.93,14.54-6.32.79-.06,1.13-.77,1.26-1.75a5.36,5.36,0,0,0,0-1.06,3.06,3.06,0,0,1,1.44-3.2,8.58,8.58,0,0,1,3.41-1.32,28.81,28.81,0,0,1,10.35.19c1,.16,1.56-.39,1.68-1.55l0-.09a1.67,1.67,0,0,0-1.3-2,27.15,27.15,0,0,0-3.47-.52c-3.94-.31-7.88-.35-11.62,1.82-.18.1-.33.35-.48-.06a5.21,5.21,0,0,1,.65-3.7,48.39,48.39,0,0,0,5.83-7,23.39,23.39,0,0,0,4.18-9.53,2,2,0,0,0-.94-2.4c-.68-.26-1.37.33-1.58,1.43a16.65,16.65,0,0,1-1.84,5.11,44.9,44.9,0,0,1-8,10.18,3.36,3.36,0,0,0-1,2.75c.05,2.67,0,5.35,0,8,0,.81-.16,1.22-.78,1.34a30.56,30.56,0,0,0-11.3,4.81c-.17.12-.34.39-.53.16s-.07-.6,0-.87c.35-1.16.7-2.31,1.08-3.44,1.5-4.43,3.3-8.64,5.15-12.8a5,5,0,0,0,.4-3.35c-.49-2-2.36-3.56-4.39-1.47-6.11,6.31-10,14.55-11.22,25a6.76,6.76,0,0,1-2.07,4.45,39.17,39.17,0,0,1-9.56,6.24c-1.76.88-2.48.09-2.28-2.48.43-5.35.78-10.71,1.55-16a31.54,31.54,0,0,1,1.49-6.72A14.6,14.6,0,0,1,129.65,98a27.2,27.2,0,0,0,6.9-9.09c2.38-5.33,2.7-11.32,2.56-17.39a3.87,3.87,0,0,0-.46-1.63c-1.1-2.19-3.41-2.11-4.39.25s-2,5.06-2.94,7.66a18.2,18.2,0,0,1-5.77,8.64c-1.59,1.26-3,2.84-4.63,4.14-3.94,3.23-6.14,8.06-6.91,14.22-.13,1-.39.84-.8.31a58.78,58.78,0,0,1-5-7.5,19.3,19.3,0,0,1-2-5.11,2,2,0,0,1,.67-2.29,32.09,32.09,0,0,0,8-10.57,14.08,14.08,0,0,0,.85-10.71c-.4-1.18-1.06-1.64-1.75-1.24-.84.5-1.07,1.4-.66,2.72a8.19,8.19,0,0,1,.24,4.47c-1.29,5.36-4.44,8.38-7.48,11.75a3.1,3.1,0,0,1-.1-.53c0-.32,0-.63,0-.94a43.66,43.66,0,0,0-.41-11.36,15.52,15.52,0,0,0-2.71-6.92c-.25-.32-.49-.68-.86-.74-.62-.12-1.08.15-1.42.93a2.08,2.08,0,0,0,.29,2.22,11.7,11.7,0,0,1,2.09,5.15,38.4,38.4,0,0,1,.37,10.65,24.7,24.7,0,0,0,3.37,15.84,81.06,81.06,0,0,0,6.09,8.53,1.94,1.94,0,0,1,.55,1.6,41.14,41.14,0,0,0-.27,5.87c0,.86-.29,1.3-.89,1.44a5.83,5.83,0,0,1-3.12-.27,24.5,24.5,0,0,1-8.6-5.38,35.76,35.76,0,0,1-6.8-8.26,25,25,0,0,1-3.4-12.15c-.23-5.68-.28-11.4-1-17a14.42,14.42,0,0,0-1.72-5.92c-1.24-1.92-3-1.75-4,.35a7.8,7.8,0,0,0-.49,1.24,44.23,44.23,0,0,0-1.57,10.79c-.2,3.29-.35,6.59-.33,9.9,0,.3.1.71-.13.87s-.44-.24-.63-.44C77.33,88.79,74,87,70.2,86.91c-.92,0-1.17-.59-1.25-1.64a9.61,9.61,0,0,1,.72-4.4,13,13,0,0,0,.84-3.18,42,42,0,0,0-1.25-15.17c-.26-1.16-.93-1.62-1.64-1.25a2,2,0,0,0-.8,2.38,58.4,58.4,0,0,1,1.25,8.64,16.79,16.79,0,0,1-.83,7.21,13.83,13.83,0,0,0-.93,5.44c0,1-.23,1-.78.72a11.86,11.86,0,0,1-4.38-4.51c-1.55-2.64-3-5.35-4.58-8-.69-1.21-1.32-1.39-2-.61a2.37,2.37,0,0,0,0,2.9c.65,1.19,1.31,2.37,2,3.54"/><path id="Path_1579" data-name="Path 1579" class="cls-7" d="M107.22,184a56.25,56.25,0,0,0-1-8.78,7.4,7.4,0,0,0-.9-2.37c-2.85-4.67-6.23-8.32-10.29-10.39a4.11,4.11,0,0,1-2.84-3.34c-.22-1.24-.56-2.45-.68-3.71a32.63,32.63,0,0,0-7-17.37,19.55,19.55,0,0,0-8.15-6.64,28,28,0,0,1-3.81-1.17c-.3-.17-.67-.28-.65-.8s.4-.49.67-.63c1.53-.84,3-.15,4.52.26C84.1,131,89,137,92.42,146c1.51,4,2.75,8.25,4.57,12,1.13,2.35,2.5,4.2,4.53,4.86,3,1,5-1.32,5.91-5A50,50,0,0,0,108.49,143a28.26,28.26,0,0,0-3.29-12.53,16.87,16.87,0,0,0-5.82-6c-6.57-4.25-11.53-11-14.34-20.75a34.48,34.48,0,0,1-1.26-8.57c-.15-5.6,0-11.19.37-16.77a69.43,69.43,0,0,1,.77-7.48c.13-.65.14-1.7.58-1.74s.56,1,.69,1.62a71.58,71.58,0,0,1,1,10.44c.22,4.51.29,9,.73,13.5a25.81,25.81,0,0,0,3,9.72,37.26,37.26,0,0,0,15.55,16.13,9.23,9.23,0,0,0,5.83,1.22c2-.32,3.34-2.29,3.36-5.25a83.76,83.76,0,0,1,.62-9.89A52.12,52.12,0,0,1,118,98,13.92,13.92,0,0,1,122.15,92c1.88-1.89,3.78-3.78,5.73-5.53a20.08,20.08,0,0,0,5.45-8.79c.82-2.4,1.72-4.72,2.58-7.09a2.17,2.17,0,0,1,.54-1c.27,8.91-1.41,16.45-6.62,21.73a46.33,46.33,0,0,0-4.93,5.27,22.37,22.37,0,0,0-3.38,9.68c-1.07,6.64-1.43,13.41-2,20.15-.35,4.33,2.46,7.94,5.47,6.28,3.67-2,7.36-4,10.61-7.31a9,9,0,0,0,2.82-4.8c.3-1.63.4-3.34.66-5a43.82,43.82,0,0,1,5-14.63,30.26,30.26,0,0,1,4.4-6.15,1,1,0,0,1-.13,1,127.21,127.21,0,0,0-5.43,15.51c-.76,2.82-1.21,5.76-1.73,8.68a22.42,22.42,0,0,1-5.15,11.07c-2.82,3.26-5.87,6-8.79,9.09a31.3,31.3,0,0,0-4.74,6,12.64,12.64,0,0,0-1.83,6.51,118.52,118.52,0,0,0,.1,11.92c.37,3.84,2.43,6,4.84,5a94,94,0,0,1,9.69-3.08,32.39,32.39,0,0,0,6.21-2.5,11.2,11.2,0,0,0,3.24-3.12,47.06,47.06,0,0,0,8.6-17.29c.3-1.15.53-2.35.83-3.51a7.83,7.83,0,0,1,2.41-4c.21-.17.49-.35.72-.06s.06.61,0,.92a187.25,187.25,0,0,1-6.43,21.39c-.88,2.3-1.69,4.74-3.32,6.15a25.16,25.16,0,0,1-5.51,3.49c-5.24,2.59-10.65,4.45-15.77,7.59a22.52,22.52,0,0,0-4.51,3.63c-2.07,2.14-3.09,5.17-3.55,8.71a99.9,99.9,0,0,0-.06,20.31c.1,1.36.21,2.72.31,4.07a1.13,1.13,0,0,1,.06.36c0,.4.14.94-.11,1.17s-.59-.12-.85-.37a48.75,48.75,0,0,1-9.78-13.12,3.28,3.28,0,0,1-.31-1.63c0-3.65,0-7.3,0-10.95a15.53,15.53,0,0,0-.24-3.79"/><path id="Path_1580" data-name="Path 1580" class="cls-8" d="M107.22,181.77c.45.33.34,1,.34,1.55,0,4.7,0,9.41,0,14.11a4.45,4.45,0,0,0,.5,2.18,70,70,0,0,0,3.54,6.33,41.71,41.71,0,0,0,6.79,8.37c0-.66,0-1.14.07-1.63.35,3,.56,6.06,1,9,.29,1.87.48,3.8.83,5.65.2,1.12,0,1.19-.62,1.18-2.63,0-5.26,0-7.9,0-1.9,0-3.79,0-5.69,0-.58,0-.77-.17-.65-1.23,1-8.48,1.57-17,1.8-25.66.18-6.37.23-12.73,0-19.09,0-.27,0-.54,0-.81"/><path id="Path_1581" data-name="Path 1581" class="cls-6" d="M224.05,250.24H9.82A9.82,9.82,0,0,1,0,240.42v-1.08a9.82,9.82,0,0,1,9.82-9.82H224.05a9.82,9.82,0,0,1,9.82,9.82v1.08a9.82,9.82,0,0,1-9.82,9.82"/></g></g></g><g id="Group_315" data-name="Group 315"><g class="cls-9"><g id="Group_314" data-name="Group 314"><path id="Path_1637" data-name="Path 1637" class="cls-10" d="M64.4,100.19c-.27.79-.18,1.14.56,1.51,1.24.61,2.49,1.21,3.77,1.71A26.12,26.12,0,0,0,75,105a11.19,11.19,0,0,0,6.57-1,6.83,6.83,0,0,0,3.17-3.43c0-.07,0-.09.1-.3.29-.81.4-1,.3-1.14s-.06,0-.45-.19h0l-.16-.05c-.21,0-.33.59-.52,1.07a5.55,5.55,0,0,1-.66,1.19,6.19,6.19,0,0,1-3.61,2.56,11.88,11.88,0,0,1-5.53.19A28.09,28.09,0,0,1,65.75,101c-.51-.27-.5-.28-.3-.83a6.61,6.61,0,0,1,.26-.7c.17-.39.37-.77.56-1.16a16.13,16.13,0,0,1,4.65-5.93,9.77,9.77,0,0,1,5.37-2.09,7.87,7.87,0,0,1,7.9,5.85,3.4,3.4,0,0,1,.09.46c.12.69.06,1,.29,1.19,0,0,0,0,.25.09l0,0h0l.38.14c.13-.09.18-.68,0-1.62a8.8,8.8,0,0,0-12.83-6.09,13.55,13.55,0,0,0-5,4.18,21,21,0,0,0-3,5.46c0,.06,0,.12-.07.19"/><path id="Path_1638" data-name="Path 1638" class="cls-11" d="M65.74,101a28,28,0,0,0,8.44,2.82,11.89,11.89,0,0,0,5.53-.19,6.22,6.22,0,0,0,3.61-2.56A5.55,5.55,0,0,0,84,99.92c.18-.48.3-1,.52-1.07-.51-.17-1-.33-1.55-.47-.35-.1-.52,0-.67.27a5,5,0,0,1-3,2.46.57.57,0,0,1-.77-.24h0s0,0,0,0c-.14-.36,0-.55.37-.66l.23-.09a4.26,4.26,0,0,0,2.08-1.59c.29-.43.26-.53-.3-.59-1.52-.14-3-.24-4.56-.36a.54.54,0,0,0-.66.43h0v0a4.64,4.64,0,0,1-2,2.39.55.55,0,0,1-.78-.06h0l0,0c-.22-.32-.1-.55.19-.73a3.72,3.72,0,0,0,.45-.33,3.79,3.79,0,0,0,1.11-1.51,1.37,1.37,0,0,0-.35,0,16,16,0,0,0-2,.33c-.86.23-1.69.53-2.53.82a.57.57,0,0,1-.77-.22c-.17-.29,0-.51.24-.66l.25-.12a15.85,15.85,0,0,1,4.59-1.14l.47-.09a3.19,3.19,0,0,0-1.84-1.4c-.47-.13-.7-.38-.63-.69s.41-.39.88-.26a4.22,4.22,0,0,1,2.53,2,.6.6,0,0,0,.6.33c.9,0,1.8,0,2.7.09s1.68.2,2.56.3A4.44,4.44,0,0,0,80,95.07a18.38,18.38,0,0,0-1.56-1c-.27-.17-.4-.38-.29-.64a.46.46,0,0,1,.6-.26l.06,0a3.22,3.22,0,0,1,.5.23,6.88,6.88,0,0,1,3.18,3.54.6.6,0,0,0,.46.42c.65.17,1.29.36,1.93.58l0,0-.24-.09c-.23-.15-.18-.5-.29-1.2,0-.15,0-.31-.09-.46a7.88,7.88,0,0,0-7.9-5.84,9.65,9.65,0,0,0-5.38,2.09,16,16,0,0,0-4.64,5.93c-.19.38-.39.77-.57,1.15s-.17.47-.26.7c-.2.56-.2.56.3.83"/><path id="Path_1639" data-name="Path 1639" class="cls-10" d="M69,98.61a.59.59,0,0,0,.77.23c.83-.29,1.67-.6,2.53-.83.65-.14,1.3-.25,2-.33a2.06,2.06,0,0,1,.35,0,3.79,3.79,0,0,1-1.11,1.51,2.36,2.36,0,0,1-.45.33c-.29.19-.41.41-.19.74a.56.56,0,0,0,.77.14l.05,0A4.51,4.51,0,0,0,75.63,98a.56.56,0,0,1,.64-.46h0c1.51.13,3,.23,4.55.37.56,0,.59.15.3.58a4.23,4.23,0,0,1-2.08,1.6l-.23.08c-.32.11-.5.31-.36.66a.56.56,0,0,0,.75.29h0l0,0a5,5,0,0,0,3-2.46c.15-.31.32-.36.67-.27.52.15,1,.31,1.55.48h0s0,0,.14,0h0a23,23,0,0,1,4.34,2l.78.46c.29.17.56.17.74-.08s.07-.54-.21-.73c-.54-.34-1.08-.65-1.64-1a25.69,25.69,0,0,0-3.44-1.52h0s-.08,0-.36-.15h0c-.63-.21-1.28-.41-1.93-.58a.57.57,0,0,1-.45-.42,6.92,6.92,0,0,0-3.18-3.54,3.71,3.71,0,0,0-.5-.23.46.46,0,0,0-.63.15l0,.07c-.11.26,0,.47.29.64a16.36,16.36,0,0,1,1.56,1,4.5,4.5,0,0,1,1.37,1.88c-.88-.09-1.72-.23-2.56-.3s-1.8-.08-2.7-.09a.6.6,0,0,1-.6-.33,4.2,4.2,0,0,0-2.53-2c-.46-.13-.8,0-.87.25s.15.57.63.69a3.27,3.27,0,0,1,1.84,1.4l-.48.09a16.12,16.12,0,0,0-4.58,1.14l-.26.13c-.26.14-.4.36-.23.65"/><path id="Path_1640" data-name="Path 1640" class="cls-10" d="M84.52,98.84h0l.15,0c-.11,0-.12,0-.14,0"/><path id="Path_1641" data-name="Path 1641" class="cls-10" d="M84.86,97.94c.28.12.31.16.36.15h0l-.38-.14"/></g></g></g><g id="Group_319" data-name="Group 319"><g class="cls-5"><g id="Group_318" data-name="Group 318"><path id="Path_1647" data-name="Path 1647" class="cls-12" d="M114,244.45H10.5a14,14,0,0,1-3.1-.16c-2.83-.66-4.53-2.8-4.28-5.32s2.17-4.35,5.21-4.62c.75,0,1.51-.06,2.27,0q32.17,0,64.34,0c2,0,3.85-.65,4.61-1.76,2.38-2.5,6.38-4.31,11-5a49.09,49.09,0,0,1,8.73-.75c10.06,0,20.13-.07,30.19,0a36.57,36.57,0,0,1,14.29,2.59,13.25,13.25,0,0,1,4.93,3.39,4.34,4.34,0,0,0,3.76,1.49q32.38,0,64.77,0c.76,0,1.51,0,2.27,0,3.25.25,5.43,2.35,5.35,5.15s-2.3,4.81-5.59,4.94c-.75,0-1.51,0-2.27,0H114"/></g></g></g><g id="Group_315-2" data-name="Group 315"><g class="cls-13"><g id="Group_314-2" data-name="Group 314"><path id="Path_1637-2" data-name="Path 1637" class="cls-10" d="M57.75,111.4c.5.66.85.78,1.56.36a41.17,41.17,0,0,0,3.52-2.18,26,26,0,0,0,4.78-4.35,11.18,11.18,0,0,0,2.83-6,6.9,6.9,0,0,0-1.08-4.55l-.2-.25c-.52-.68-.62-.89-.78-.88s0,0-.41.27v0h0l-.13.1c-.09.2.3.61.6,1a6.59,6.59,0,0,1,.74,5.64,12,12,0,0,1-2.91,4.7,28.24,28.24,0,0,1-7,5.44c-.51.28-.51.26-.86-.21-.14-.2-.3-.39-.44-.6-.22-.36-.43-.74-.64-1.12a15.93,15.93,0,0,1-2.34-7.15A9.62,9.62,0,0,1,56.17,96a7.88,7.88,0,0,1,9.25-3.32l.43.18c.64.29.9.54,1.16.43,0,0,0,0,.21-.15l0,0h0l.32-.24c0-.16-.46-.53-1.35-.89a9.13,9.13,0,0,0-3.45-.7,9,9,0,0,0-8.75,8,13.48,13.48,0,0,0,.72,6.45,20.43,20.43,0,0,0,2.87,5.52l.12.16"/><path id="Path_1638-2" data-name="Path 1638" class="cls-11" d="M59.19,110.75a27.88,27.88,0,0,0,7-5.44,11.92,11.92,0,0,0,2.91-4.7A6.21,6.21,0,0,0,69,96.18,5.33,5.33,0,0,0,68.41,95c-.3-.42-.69-.82-.6-1-.42.33-.84.67-1.25,1s-.33.4-.15.71a5,5,0,0,1,.35,3.89.56.56,0,0,1-.62.5h0c-.37-.08-.43-.34-.34-.67l.06-.24a4.28,4.28,0,0,0-.17-2.62c-.2-.48-.3-.51-.65-.07-1,1.18-1.9,2.39-2.84,3.58a.56.56,0,0,0,0,.79h0a4.49,4.49,0,0,1,.9,3,.55.55,0,0,1-.48.62h-.06c-.39,0-.51-.22-.5-.56a3.51,3.51,0,0,0,0-.56,3.79,3.79,0,0,0-.64-1.77,1.94,1.94,0,0,0-.21.29,19.57,19.57,0,0,0-.81,1.81c-.29.84-.5,1.7-.72,2.56a.58.58,0,0,1-.62.51c-.34,0-.44-.26-.41-.56a2.7,2.7,0,0,1,0-.28,16,16,0,0,1,1.6-4.44c.06-.13.11-.27.19-.45a3.23,3.23,0,0,0-2.19.75c-.37.33-.7.38-.92.14s-.1-.56.27-.86a4.21,4.21,0,0,1,3-1,.61.61,0,0,0,.62-.31c.51-.74,1-1.48,1.57-2.19s1.1-1.29,1.68-2a4.39,4.39,0,0,0-2.33.09,14.74,14.74,0,0,0-1.74.71c-.3.14-.54.12-.7-.12a.46.46,0,0,1,.12-.63l.07,0a3.21,3.21,0,0,1,.46-.29,6.86,6.86,0,0,1,4.72-.67.58.58,0,0,0,.6-.15c.51-.44,1-.87,1.56-1.28l0,0c-.2.13-.17.13-.21.15-.26.11-.52-.13-1.16-.43l-.43-.18A7.88,7.88,0,0,0,56.16,96a9.62,9.62,0,0,0-1.25,5.63,16,16,0,0,0,2.34,7.15c.21.38.42.76.64,1.12s.29.4.44.6c.35.47.35.48.86.21"/><path id="Path_1639-2" data-name="Path 1639" class="cls-10" d="M59,106.69a.58.58,0,0,0,.62-.51c.22-.85.43-1.72.72-2.56a19.75,19.75,0,0,1,.81-1.82,3,3,0,0,1,.22-.28,3.79,3.79,0,0,1,.64,1.77,3.46,3.46,0,0,1,0,.56c0,.34.11.57.5.56a.55.55,0,0,0,.55-.56.13.13,0,0,0,0-.06,4.48,4.48,0,0,0-.9-3,.56.56,0,0,1,0-.79h0l0,0c.94-1.19,1.87-2.4,2.83-3.58.36-.44.45-.41.66.07a4.27,4.27,0,0,1,.16,2.62l-.06.24c-.08.33,0,.58.35.67a.58.58,0,0,0,.66-.47h0v0a4.94,4.94,0,0,0-.36-3.89c-.18-.3-.13-.47.15-.71s.83-.69,1.26-1v0l.13-.09h0A22.69,22.69,0,0,1,72,91.32l.82-.39c.3-.15.46-.37.35-.67s-.42-.36-.73-.22c-.58.25-1.14.53-1.7.83a25,25,0,0,0-3.18,2v0s-.06,0-.31.22h0c-.53.4-1,.83-1.55,1.28a.59.59,0,0,1-.61.14,6.94,6.94,0,0,0-4.71.67l-.47.29a.46.46,0,0,0-.22.61l0,.06c.15.24.4.25.69.12a18.75,18.75,0,0,1,1.74-.72,4.49,4.49,0,0,1,2.33-.08c-.57.67-1.15,1.29-1.67,2s-1.07,1.45-1.58,2.19a.61.61,0,0,1-.61.31,4.17,4.17,0,0,0-3,1c-.37.31-.48.64-.28.86s.56.19.92-.14a3.26,3.26,0,0,1,2.19-.75c-.08.19-.12.32-.19.45a16,16,0,0,0-1.6,4.44,2.7,2.7,0,0,0,0,.28c0,.3.08.54.41.56"/><path id="Path_1640-2" data-name="Path 1640" class="cls-10" d="M67.82,93.92h0l.13-.1-.13.09"/><path id="Path_1641-2" data-name="Path 1641" class="cls-10" d="M67.26,93.14c.25-.17.3-.18.32-.22v0l-.32.24"/></g></g></g><g id="Group_295" data-name="Group 295"><g class="cls-14"><g id="Group_294" data-name="Group 294"><path id="Path_1587" data-name="Path 1587" class="cls-10" d="M180.61,83.45a3.67,3.67,0,0,0,1.5,1.14,2.92,2.92,0,0,0,.52.19c.33.09.51.28.39.65a.57.57,0,0,1-.7.36h0l-.06,0A4.54,4.54,0,0,1,179.71,84a.55.55,0,0,0-.74-.25h0c-1.42.55-2.85,1.08-4.26,1.64-.53.21-.52.31-.13.65A4.32,4.32,0,0,0,177,87h.25c.34,0,.57.15.54.53s-.29.5-.68.48a5,5,0,0,1-3.61-1.5c-.23-.26-.41-.26-.72-.07-.46.29-.91.58-1.36.89h0s0,0-.12.1a22.4,22.4,0,0,0-3.6,3.14l-.62.66a.51.51,0,0,1-.73.13c-.27-.2-.22-.5,0-.75.42-.48.85-.94,1.3-1.38a24.82,24.82,0,0,1,2.87-2.44h0c.05,0,.07,0,.3-.23h0c.55-.39,1.11-.75,1.69-1.1a.63.63,0,0,0,.32-.54,6.91,6.91,0,0,1,2-4.3,4.82,4.82,0,0,1,.43-.36.45.45,0,0,1,.64,0h0l0,.05c.18.22.12.46-.1.7a16.35,16.35,0,0,0-1.2,1.44,4.46,4.46,0,0,0-.78,2.2c.81-.35,1.59-.71,2.37-1s1.71-.59,2.56-.86a.58.58,0,0,0,.48-.48,4.17,4.17,0,0,1,1.87-2.6c.4-.27.76-.27.91,0s0,.58-.41.83a3.3,3.3,0,0,0-1.38,1.87c.2,0,.35,0,.49-.06a16.26,16.26,0,0,1,4.72-.2l.28,0c.3.06.49.23.41.56a.57.57,0,0,1-.67.43c-.88,0-1.77-.1-2.65-.08q-1,.08-2,.24a1.85,1.85,0,0,0-.33.12"/><path id="Path_1588" data-name="Path 1588" class="cls-10" d="M180.65,75.8a13.47,13.47,0,0,1,5.94,2.61,21,21,0,0,1,4.4,4.38l.12.16c.48.68.49,1-.12,1.61-1,.93-2,1.86-3.13,2.7a26.2,26.2,0,0,1-5.58,3.26,11.29,11.29,0,0,1-6.58.91,6.91,6.91,0,0,1-4-2.4,2.48,2.48,0,0,1-.18-.25c-.5-.7-.67-.87-.61-1s0,0,.38-.31l0,0,.14-.1c.22,0,.49.47.81.88a5.13,5.13,0,0,0,1,1,6.21,6.21,0,0,0,4.19,1.45,12,12,0,0,0,5.35-1.38,27.88,27.88,0,0,0,7.3-5.1c.42-.41.42-.41.06-.89-.15-.2-.28-.41-.44-.59s-.58-.63-.87-1a16.05,16.05,0,0,0-6.14-4.37,9.56,9.56,0,0,0-5.74-.49A7.87,7.87,0,0,0,171,84.69c0,.15,0,.31,0,.46.09.7.25,1,.06,1.23,0,0,0,0-.2.16l0,0s0,0,0,0l-.33.24c-.15,0-.36-.59-.45-1.55a9.2,9.2,0,0,1,.37-3.5,9,9,0,0,1,10.21-6"/><path id="Path_1589" data-name="Path 1589" class="cls-10" d="M171.43,87.35l-.13.1c.1-.08.1-.09.12-.09h0"/><path id="Path_1590" data-name="Path 1590" class="cls-11" d="M178.88,82.78c-.86.27-1.72.54-2.56.86s-1.56.66-2.37,1a4.46,4.46,0,0,1,.78-2.2,16.35,16.35,0,0,1,1.2-1.44c.21-.24.27-.48.1-.7a.45.45,0,0,0-.64-.07l-.06.05a4.71,4.71,0,0,0-.42.36,6.92,6.92,0,0,0-2,4.3.59.59,0,0,1-.32.54c-.57.35-1.14.71-1.68,1.1l0,0,.2-.16c.17-.2,0-.53-.07-1.23,0-.15,0-.3,0-.46a7.87,7.87,0,0,1,5.93-7.84,9.75,9.75,0,0,1,5.75.49,16.09,16.09,0,0,1,6.13,4.37l.88,1c.16.19.29.4.44.6.35.47.35.47-.06.88a28,28,0,0,1-7.3,5.1,12,12,0,0,1-5.36,1.38,6.2,6.2,0,0,1-4.19-1.44,5.51,5.51,0,0,1-1-1c-.32-.41-.59-.91-.81-.87.44-.31.89-.61,1.36-.9.31-.19.48-.18.72.07a4.92,4.92,0,0,0,3.61,1.5c.38,0,.65-.16.67-.48s-.2-.51-.53-.53H177a4.32,4.32,0,0,1-2.45-.94c-.4-.34-.4-.43.13-.64,1.41-.57,2.84-1.1,4.26-1.65a.57.57,0,0,1,.76.23v0a4.59,4.59,0,0,0,2.55,1.74.55.55,0,0,0,.73-.28l0,0c.13-.38-.06-.56-.39-.65a5.44,5.44,0,0,1-.52-.19,3.83,3.83,0,0,1-1.5-1.14l.33-.13c.66-.11,1.32-.18,2-.23.89,0,1.77,0,2.66.08a.57.57,0,0,0,.67-.43c.08-.33-.12-.5-.41-.57l-.28,0a15.89,15.89,0,0,0-4.72.2c-.15,0-.29,0-.49.05a3.19,3.19,0,0,1,1.38-1.86c.41-.25.56-.56.4-.83s-.5-.26-.91,0a4.16,4.16,0,0,0-1.86,2.6.61.61,0,0,1-.48.48"/><path id="Path_1591" data-name="Path 1591" class="cls-10" d="M170.84,86.58c-.24.19-.26.24-.3.24h0l.33-.23"/></g></g></g><g id="Group_297" data-name="Group 297"><g class="cls-15"><g id="Group_296" data-name="Group 296"><path id="Path_1592" data-name="Path 1592" class="cls-10" d="M188.4,99.38c.46.65.47,1-.11,1.54-1,.89-1.95,1.79-3,2.59a25.15,25.15,0,0,1-5.35,3.13,10.82,10.82,0,0,1-6.32.87,6.61,6.61,0,0,1-3.84-2.3,2.8,2.8,0,0,1-.17-.25c-.48-.67-.65-.83-.58-1s0,0,.36-.3l0,0,.13-.09c.21,0,.47.45.77.84a5.12,5.12,0,0,0,.94.92,6,6,0,0,0,4,1.38,11.54,11.54,0,0,0,5.14-1.32,26.84,26.84,0,0,0,7-4.9c.4-.39.39-.39.05-.84a6,6,0,0,0-.42-.57c-.27-.31-.56-.61-.84-.91A15.29,15.29,0,0,0,180.3,94a9.2,9.2,0,0,0-5.51-.46A7.53,7.53,0,0,0,169.1,101c0,.15,0,.3,0,.45.09.67.23,1,.06,1.18,0,0,0,0-.2.14l0,0h0l-.31.22c-.14,0-.35-.56-.43-1.48a8.85,8.85,0,0,1,.35-3.36,8.58,8.58,0,0,1,9.8-5.73,13,13,0,0,1,5.7,2.5,19.82,19.82,0,0,1,4.22,4.21l.12.15"/><path id="Path_1593" data-name="Path 1593" class="cls-11" d="M187.38,100.52a26.8,26.8,0,0,1-7,4.89,11.47,11.47,0,0,1-5.13,1.33,6,6,0,0,1-4-1.39,5,5,0,0,1-.93-.91c-.3-.4-.57-.88-.78-.84.43-.3.86-.58,1.3-.85s.47-.18.7.06a4.7,4.7,0,0,0,3.46,1.44c.37,0,.62-.16.65-.46s-.19-.49-.51-.51h-.24a4,4,0,0,1-2.34-.9c-.39-.32-.39-.42.11-.62,1.35-.54,2.72-1,4.09-1.57a.54.54,0,0,1,.73.2h0v0a4.3,4.3,0,0,0,2.44,1.66.53.53,0,0,0,.7-.27.43.43,0,0,0,0,0c.13-.36-.06-.53-.37-.62a2.3,2.3,0,0,1-.5-.18,3.54,3.54,0,0,1-1.44-1.1l.32-.11a17.27,17.27,0,0,1,1.9-.22c.85,0,1.7,0,2.55.07a.55.55,0,0,0,.64-.42c.08-.31-.11-.47-.4-.54l-.27,0a15.23,15.23,0,0,0-4.52.19c-.14,0-.28,0-.47,0a3.1,3.1,0,0,1,1.33-1.78c.4-.25.54-.54.39-.8s-.49-.25-.88,0a4,4,0,0,0-1.79,2.49.57.57,0,0,1-.46.47c-.82.25-1.65.51-2.46.82s-1.49.63-2.27,1a4.3,4.3,0,0,1,.75-2.11,17,17,0,0,1,1.15-1.39c.2-.23.27-.46.09-.67a.44.44,0,0,0-.61-.07s0,0-.05,0a4.36,4.36,0,0,0-.4.35,6.61,6.61,0,0,0-2,4.12.54.54,0,0,1-.31.51c-.55.34-1.09.69-1.61,1.06l0,0a1.54,1.54,0,0,1,.2-.15c.17-.2,0-.51-.06-1.18,0-.14,0-.3,0-.44a7.56,7.56,0,0,1,5.69-7.52,9.27,9.27,0,0,1,5.51.46,15.54,15.54,0,0,1,5.89,4.2c.28.3.56.6.83.91s.29.38.43.57c.34.46.34.46-.06.85"/><path id="Path_1594" data-name="Path 1594" class="cls-10" d="M183.74,99.17a.56.56,0,0,1-.65.42c-.85,0-1.69-.1-2.54-.07a17.27,17.27,0,0,0-1.9.22l-.32.11a3.58,3.58,0,0,0,1.43,1.1,2.51,2.51,0,0,0,.5.18c.32.09.49.27.38.62a.53.53,0,0,1-.67.34l-.05,0a4.3,4.3,0,0,1-2.44-1.66.54.54,0,0,0-.72-.25h0c-1.36.53-2.73,1-4.09,1.58-.5.2-.5.3-.11.62a4.12,4.12,0,0,0,2.35.9h.23c.33,0,.55.14.52.51s-.28.48-.65.46a4.79,4.79,0,0,1-3.46-1.44c-.23-.25-.39-.26-.69-.07s-.88.56-1.3.85h0s0,0-.12.09a21.53,21.53,0,0,0-3.45,3l-.59.63c-.22.23-.47.31-.7.13s-.22-.49,0-.73c.4-.45.81-.9,1.24-1.32a24.46,24.46,0,0,1,2.75-2.34h0c.05,0,.07,0,.29-.22h0c.53-.37,1.07-.72,1.62-1.06a.57.57,0,0,0,.31-.51,6.61,6.61,0,0,1,2-4.12,4.36,4.36,0,0,1,.4-.35.43.43,0,0,1,.62,0s0,0,0,0c.18.21.12.44-.09.67a17,17,0,0,0-1.15,1.39,4.3,4.3,0,0,0-.75,2.11c.78-.34,1.52-.69,2.27-1s1.64-.57,2.46-.82a.56.56,0,0,0,.46-.47,4,4,0,0,1,1.79-2.49c.39-.25.73-.26.88,0s0,.56-.39.8a3.13,3.13,0,0,0-1.33,1.78,4.53,4.53,0,0,0,.47,0,15.57,15.57,0,0,1,4.52-.19l.27,0c.28.07.47.23.4.54"/><path id="Path_1595" data-name="Path 1595" class="cls-10" d="M169.53,103.59l-.13.1c.1-.08.1-.09.13-.09h0"/><path id="Path_1596" data-name="Path 1596" class="cls-10" d="M169,102.86c-.22.18-.24.23-.29.23h0l.31-.23"/></g></g></g><g id="Group_313" data-name="Group 313"><g class="cls-16"><g id="Group_312" data-name="Group 312"><path id="Path_1632" data-name="Path 1632" class="cls-10" d="M86.19,68.29c-.56.41-.67.7-.34,1.3.56,1,1.13,2,1.77,3a21.7,21.7,0,0,0,3.56,4.09,9.37,9.37,0,0,0,5,2.48,5.73,5.73,0,0,0,3.83-.83l.21-.15c.58-.42.76-.51.75-.64s0,0-.22-.35h0l-.09-.11c-.16-.08-.51.24-.87.48a4.27,4.27,0,0,1-1,.5A5.21,5.21,0,0,1,95,78a10,10,0,0,1-3.88-2.52,23.79,23.79,0,0,1-4.43-6c-.22-.43-.22-.43.19-.71.17-.12.34-.25.51-.36s.63-.34,1-.52a13.43,13.43,0,0,1,6-1.83,8.14,8.14,0,0,1,4.69,1.15,6.6,6.6,0,0,1,2.61,7.81l-.16.36c-.25.53-.47.75-.38,1a1.82,1.82,0,0,0,.12.18l0,0s0,0,0,0l.19.27c.14,0,.45-.37.78-1.11a7.94,7.94,0,0,0,.64-2.88,7.5,7.5,0,0,0-6.51-7.47,11.3,11.3,0,0,0-5.41.49,17.45,17.45,0,0,0-4.68,2.31l-.13.09"/><path id="Path_1633" data-name="Path 1633" class="cls-11" d="M86.71,69.51a23.27,23.27,0,0,0,4.43,6A9.87,9.87,0,0,0,95,78a5.21,5.21,0,0,0,3.71,0,4.94,4.94,0,0,0,1-.51c.35-.24.71-.56.87-.48-.27-.36-.55-.72-.84-1.07s-.33-.28-.58-.13a4.14,4.14,0,0,1-3.27.22c-.31-.08-.47-.3-.41-.56s.29-.35.57-.28l.2.06a3.56,3.56,0,0,0,2.19-.09c.41-.16.44-.24.09-.55-1-.83-2-1.63-3-2.44a.46.46,0,0,0-.66,0h0a3.8,3.8,0,0,1-2.49.7.47.47,0,0,1-.51-.41h0v0c0-.33.2-.42.48-.41a3.69,3.69,0,0,0,.47,0,3.09,3.09,0,0,0,1.49-.51l-.23-.18a16,16,0,0,0-1.51-.71c-.7-.25-1.41-.45-2.12-.65a.48.48,0,0,1-.42-.53c0-.28.22-.36.47-.33l.24,0a13.56,13.56,0,0,1,3.69,1.42c.1.06.22.1.37.17a2.66,2.66,0,0,0-.59-1.84c-.27-.31-.31-.6-.1-.78s.46-.07.72.25a3.51,3.51,0,0,1,.78,2.57.49.49,0,0,0,.26.51c.61.44,1.22.89,1.8,1.37s1.06.94,1.62,1.43a3.83,3.83,0,0,0,0-2q-.25-.75-.57-1.47c-.11-.25-.09-.45.11-.58a.39.39,0,0,1,.53.12l0,0c.08.13.16.26.23.4a5.73,5.73,0,0,1,.48,4,.52.52,0,0,0,.11.52q.54.65,1,1.32l0,0a1,1,0,0,0-.12-.18c-.08-.21.12-.43.38-1,.06-.12.11-.24.16-.36a6.6,6.6,0,0,0-2.61-7.81,8.15,8.15,0,0,0-4.7-1.15,13.42,13.42,0,0,0-6,1.83c-.32.18-.64.34-1,.52s-.34.24-.51.36c-.41.28-.41.28-.19.71"/><path id="Path_1634" data-name="Path 1634" class="cls-10" d="M90.11,69.42a.47.47,0,0,0,.42.52c.71.21,1.43.4,2.12.65a13.92,13.92,0,0,1,1.51.72,1.3,1.3,0,0,1,.23.18,3.19,3.19,0,0,1-1.49.5,2.46,2.46,0,0,1-.47,0c-.28,0-.48.08-.48.41a.47.47,0,0,0,.46.47h0a3.85,3.85,0,0,0,2.48-.7.46.46,0,0,1,.67,0h0c1,.82,2,1.62,2.95,2.45.36.3.33.38-.08.54a3.6,3.6,0,0,1-2.2.09l-.2,0c-.27-.08-.49,0-.57.28s.11.47.41.56a4.18,4.18,0,0,0,3.27-.23c.25-.14.39-.1.59.14s.56.7.83,1.07h0s0,0,.08.1h0a19.31,19.31,0,0,1,2,3.46l.31.69c.11.25.3.39.54.31s.31-.34.21-.61c-.21-.48-.43-1-.67-1.44a21.21,21.21,0,0,0-1.62-2.7h0s0-.06-.18-.26h0c-.33-.45-.68-.9-1-1.33a.5.5,0,0,1-.11-.51,5.77,5.77,0,0,0-.47-4l-.24-.4a.4.4,0,0,0-.51-.2l0,0c-.2.13-.21.34-.11.58a13.13,13.13,0,0,1,.57,1.47,3.83,3.83,0,0,1,0,2c-.55-.5-1.06-1-1.61-1.43s-1.2-.93-1.81-1.37a.51.51,0,0,1-.25-.51,3.52,3.52,0,0,0-.79-2.57c-.25-.31-.53-.41-.72-.25s-.17.46.1.77a2.75,2.75,0,0,1,.6,1.85l-.37-.17a13.22,13.22,0,0,0-3.69-1.41l-.23,0c-.25,0-.46.06-.48.34"/><path id="Path_1635" data-name="Path 1635" class="cls-10" d="M100.64,77h0l.08.11c0-.09,0-.1-.07-.1"/><path id="Path_1636" data-name="Path 1636" class="cls-10" d="M101.31,76.59c.13.21.14.25.18.27h0l-.2-.28"/></g></g></g><g id="Group_315-3" data-name="Group 315"><g class="cls-17"><g id="Group_314-3" data-name="Group 314"><path id="Path_1637-3" data-name="Path 1637" class="cls-10" d="M35.79,87.46c-.26.79-.18,1.14.57,1.51,1.24.61,2.48,1.21,3.77,1.7a26.06,26.06,0,0,0,6.27,1.56,11.23,11.23,0,0,0,6.58-1,6.9,6.9,0,0,0,3.17-3.42c0-.07,0-.09.1-.3.28-.82.4-1,.3-1.15s-.06,0-.46-.18h0l-.16,0c-.22,0-.34.59-.52,1.06a5.42,5.42,0,0,1-.67,1.2,6.26,6.26,0,0,1-3.6,2.56,11.89,11.89,0,0,1-5.53.19,27.93,27.93,0,0,1-8.44-2.83c-.52-.27-.5-.27-.3-.82.08-.23.15-.48.25-.7.18-.39.38-.78.57-1.16a16,16,0,0,1,4.64-5.93,9.65,9.65,0,0,1,5.38-2.09,7.88,7.88,0,0,1,7.9,5.84,3.4,3.4,0,0,1,.09.46c.11.69.06,1,.29,1.2,0,0,0,0,.24.09l0,0h0l.38.13c.13-.09.18-.67,0-1.61a9.22,9.22,0,0,0-1.34-3.26,9,9,0,0,0-11.49-2.83,13.38,13.38,0,0,0-5,4.18,20.74,20.74,0,0,0-3,5.46l-.07.18"/><path id="Path_1638-3" data-name="Path 1638" class="cls-11" d="M37.13,88.3a28.08,28.08,0,0,0,8.45,2.83,11.84,11.84,0,0,0,5.52-.19,6.28,6.28,0,0,0,3.61-2.56,5.39,5.39,0,0,0,.66-1.2c.19-.47.3-1,.53-1.06-.51-.17-1-.33-1.55-.48-.36-.1-.52,0-.67.27a5,5,0,0,1-3,2.46.57.57,0,0,1-.77-.23h0s0,0,0,0c-.15-.35,0-.55.36-.66l.23-.08a4.27,4.27,0,0,0,2.08-1.59c.29-.44.27-.54-.3-.59-1.51-.14-3-.24-4.55-.37a.57.57,0,0,0-.67.43h0v0a4.49,4.49,0,0,1-1.95,2.38.55.55,0,0,1-.78-.05h0l0,0c-.22-.33-.1-.55.19-.73a3.72,3.72,0,0,0,.45-.33A3.82,3.82,0,0,0,46,85a2.17,2.17,0,0,0-.36,0,18.68,18.68,0,0,0-2,.34c-.85.23-1.69.53-2.52.82a.58.58,0,0,1-.77-.23c-.18-.29,0-.51.23-.65l.26-.13A16.12,16.12,0,0,1,45.46,84l.48-.09a3.25,3.25,0,0,0-1.85-1.4c-.47-.12-.7-.38-.62-.69s.41-.38.87-.25a4.26,4.26,0,0,1,2.54,2,.61.61,0,0,0,.6.34c.9,0,1.8,0,2.7.09s1.68.19,2.56.3a4.53,4.53,0,0,0-1.37-1.89,18.38,18.38,0,0,0-1.56-1c-.28-.18-.4-.39-.29-.65a.46.46,0,0,1,.59-.25l.07,0,.5.23a6.94,6.94,0,0,1,3.18,3.55.6.6,0,0,0,.45.42c.65.17,1.3.36,1.93.58l0,0A2.08,2.08,0,0,0,56,85.1c-.23-.15-.17-.5-.29-1.2a3.4,3.4,0,0,0-.09-.46,7.85,7.85,0,0,0-7.9-5.84,9.62,9.62,0,0,0-5.37,2.09,16,16,0,0,0-4.65,5.93c-.19.38-.39.76-.56,1.15a7.23,7.23,0,0,0-.26.7c-.2.55-.21.56.3.83"/><path id="Path_1639-3" data-name="Path 1639" class="cls-10" d="M40.4,85.88a.58.58,0,0,0,.77.23c.83-.29,1.66-.6,2.52-.83a18.83,18.83,0,0,1,2-.33A1.4,1.4,0,0,1,46,85a4.09,4.09,0,0,1-1.57,1.84c-.28.18-.41.41-.19.73a.56.56,0,0,0,.77.15l0,0a4.51,4.51,0,0,0,2-2.39.56.56,0,0,1,.64-.46h0c1.52.12,3,.22,4.56.37.56,0,.58.15.3.58a4.2,4.2,0,0,1-2.08,1.59l-.23.09c-.33.11-.5.3-.37.66a.56.56,0,0,0,.75.28h0a5,5,0,0,0,3-2.46c.15-.32.31-.37.67-.27.52.14,1,.3,1.55.47h0s0,0,.15.06h0a22.68,22.68,0,0,1,4.34,2l.77.46a.52.52,0,0,0,.75-.08c.2-.28.07-.55-.22-.73-.53-.34-1.08-.66-1.64-1a26.34,26.34,0,0,0-3.43-1.53h0s-.08,0-.35-.14h0c-.64-.22-1.28-.41-1.93-.58a.6.6,0,0,1-.46-.42,6.89,6.89,0,0,0-3.18-3.55l-.5-.23a.45.45,0,0,0-.62.16l0,.06c-.11.26,0,.48.29.65.54.32,1.06.67,1.57,1a4.51,4.51,0,0,1,1.36,1.89c-.87-.1-1.71-.24-2.56-.3s-1.8-.08-2.7-.09a.61.61,0,0,1-.6-.34,4.16,4.16,0,0,0-2.52-2c-.46-.14-.8,0-.88.25s.16.57.63.69A3.21,3.21,0,0,1,46,83.86l-.48.09a15.71,15.71,0,0,0-4.58,1.14l-.26.12c-.26.15-.41.37-.24.66"/><path id="Path_1640-3" data-name="Path 1640" class="cls-10" d="M55.92,86.11h0l.16,0c-.12,0-.12,0-.15,0"/><path id="Path_1641-3" data-name="Path 1641" class="cls-10" d="M56.26,85.21c.28.11.31.15.35.14h0l-.38-.13"/></g></g></g><g id="Group_315-4" data-name="Group 315"><g class="cls-18"><g id="Group_314-4" data-name="Group 314"><path id="Path_1637-4" data-name="Path 1637" class="cls-10" d="M42.05,59.63c-.47.68-.47,1,.14,1.6,1,.92,2.07,1.84,3.17,2.66A26.51,26.51,0,0,0,51,67.08a11.24,11.24,0,0,0,6.6.82,6.86,6.86,0,0,0,4-2.45c0-.06,0-.08.18-.26.49-.71.66-.87.6-1s-.06,0-.39-.3h0l-.13-.1c-.22,0-.49.48-.79.89a5.51,5.51,0,0,1-1,1,6.23,6.23,0,0,1-4.17,1.49A11.8,11.8,0,0,1,50.5,65.8a28,28,0,0,1-7.37-5c-.42-.4-.41-.41-.07-.88.15-.2.28-.42.44-.61s.57-.64.86-1a16,16,0,0,1,6.07-4.45,9.65,9.65,0,0,1,5.74-.57,7.87,7.87,0,0,1,6,7.76,4.07,4.07,0,0,1,0,.47c-.08.69-.22,1,0,1.23,0,0,0,0,.21.15l0,0h0l.33.23c.15-.05.35-.59.43-1.55a9.41,9.41,0,0,0-.42-3.5,9,9,0,0,0-10.3-5.83A13.47,13.47,0,0,0,46.52,55a20.86,20.86,0,0,0-4.35,4.45l-.12.16"/><path id="Path_1638-4" data-name="Path 1638" class="cls-11" d="M43.12,60.8a27.81,27.81,0,0,0,7.37,5,11.92,11.92,0,0,0,5.37,1.31A6.25,6.25,0,0,0,60,65.61a5.19,5.19,0,0,0,1-1c.3-.41.56-.91.79-.88-.45-.3-.9-.6-1.37-.88-.31-.19-.49-.18-.72.08a4.92,4.92,0,0,1-3.58,1.55.57.57,0,0,1-.68-.43h0s0,0,0,0c0-.38.19-.52.53-.54l.25,0a4.2,4.2,0,0,0,2.43-1c.4-.34.4-.44-.13-.64-1.42-.55-2.86-1.06-4.29-1.58a.55.55,0,0,0-.75.23h0v0a4.49,4.49,0,0,1-2.52,1.77.56.56,0,0,1-.74-.26h0s0,0,0-.06c-.13-.37,0-.56.38-.65a3.28,3.28,0,0,0,.52-.2A3.72,3.72,0,0,0,52.55,60l-.33-.11q-1-.15-2-.21c-.89,0-1.77.06-2.66.11a.58.58,0,0,1-.68-.42c-.08-.33.11-.5.41-.57l.28-.05a15.9,15.9,0,0,1,4.72.14l.48,0a3.24,3.24,0,0,0-1.4-1.85c-.42-.24-.57-.55-.41-.83s.5-.26.91,0a4.25,4.25,0,0,1,1.91,2.59.6.6,0,0,0,.48.48c.87.25,1.73.51,2.58.82s1.57.64,2.38,1a4.55,4.55,0,0,0-.8-2.19c-.39-.5-.8-1-1.23-1.43-.22-.24-.28-.48-.1-.7a.46.46,0,0,1,.64-.08l0,.05a3.62,3.62,0,0,1,.42.36,6.9,6.9,0,0,1,2.11,4.27.6.6,0,0,0,.32.53c.58.33,1.15.69,1.7,1.07l0,0c-.19-.14-.18-.12-.22-.15-.18-.21,0-.53,0-1.23,0-.16,0-.31,0-.47a7.88,7.88,0,0,0-6-7.76,9.65,9.65,0,0,0-5.74.57,16,16,0,0,0-6.07,4.45c-.29.32-.59.64-.86,1s-.29.4-.44.61c-.34.48-.35.48.07.88"/><path id="Path_1639-4" data-name="Path 1639" class="cls-10" d="M46.92,59.35a.56.56,0,0,0,.67.42c.88-.05,1.77-.12,2.66-.11a19,19,0,0,1,2,.21,1.83,1.83,0,0,1,.33.11,3.59,3.59,0,0,1-1.48,1.16,3.28,3.28,0,0,1-.52.2c-.33.09-.51.28-.38.65a.55.55,0,0,0,.7.34l.06,0a4.53,4.53,0,0,0,2.52-1.77.56.56,0,0,1,.74-.27h0c1.43.52,2.86,1,4.29,1.58.52.2.52.3.13.64a4.2,4.2,0,0,1-2.43,1l-.25,0c-.34,0-.56.16-.53.54a.57.57,0,0,0,.65.48h0A4.92,4.92,0,0,0,59.71,63c.23-.26.4-.27.72-.08s.91.57,1.36.88h0s0,0,.13.09h0a22.89,22.89,0,0,1,3.64,3.09l.63.66a.51.51,0,0,0,.73.12c.27-.21.22-.51,0-.76-.42-.47-.86-.92-1.32-1.36a24.8,24.8,0,0,0-2.9-2.4h0s-.07-.05-.3-.24h0c-.55-.38-1.12-.74-1.7-1.08a.58.58,0,0,1-.32-.53,6.92,6.92,0,0,0-2.11-4.27,4.87,4.87,0,0,0-.42-.35.45.45,0,0,0-.64,0,.12.12,0,0,0,0,0c-.18.22-.11.46.1.7a16.83,16.83,0,0,1,1.23,1.43,4.51,4.51,0,0,1,.8,2.18c-.81-.33-1.59-.69-2.38-1s-1.71-.57-2.57-.82a.61.61,0,0,1-.49-.49,4.23,4.23,0,0,0-1.9-2.57c-.41-.26-.76-.26-.91,0s0,.58.41.83a3.21,3.21,0,0,1,1.4,1.85l-.48,0a15.9,15.9,0,0,0-4.72-.13l-.28,0c-.3.07-.49.25-.41.57"/><path id="Path_1640-4" data-name="Path 1640" class="cls-10" d="M61.8,63.75h0l.14.09-.12-.09"/><path id="Path_1641-4" data-name="Path 1641" class="cls-10" d="M62.37,63c.24.18.26.23.3.23h0L62.37,63"/></g></g></g><g id="Group_315-5" data-name="Group 315"><g class="cls-19"><g id="Group_314-5" data-name="Group 314"><path id="Path_1637-5" data-name="Path 1637" class="cls-10" d="M176.55,167.55l.06-.14a15.29,15.29,0,0,0,1.45-4.37,10,10,0,0,0-.24-4.8,6.54,6.54,0,0,0-9.78-3.88c-.61.38-.9.7-.88.82l.26.13h0l0,0,.17.08c.2.05.37-.16.8-.45a2.29,2.29,0,0,1,.29-.18,5.84,5.84,0,0,1,7.16,1.33,7.12,7.12,0,0,1,1.58,4,12,12,0,0,1-.86,5.52c-.12.29-.22.59-.34.89s-.17.33-.25.49c-.2.39-.2.4-.6.26a20.93,20.93,0,0,1-5.8-3.15,8.79,8.79,0,0,1-2.69-3.09,4.59,4.59,0,0,1-.43-3.25,3.71,3.71,0,0,1,.31-1c.16-.34.4-.69.31-.82l-.11-.06h0c-.29-.13-.29-.16-.33-.16s-.17.18-.47.75a1.65,1.65,0,0,0-.11.2,5.07,5.07,0,0,0-.26,3.45,8.38,8.38,0,0,0,2.78,4.06,19.7,19.7,0,0,0,4,2.62c.91.44,1.87.81,2.82,1.18.58.21.81.08,1.11-.46"/><path id="Path_1638-5" data-name="Path 1638" class="cls-11" d="M175.42,167.24c.4.14.4.13.6-.26.08-.16.18-.32.25-.49s.22-.59.34-.89a11.93,11.93,0,0,0,.86-5.51,7.15,7.15,0,0,0-1.58-4,5.84,5.84,0,0,0-7.16-1.33,2.9,2.9,0,0,0-.29.19c-.44.29-.6.5-.8.45l-.17-.09h0c.44.23.86.48,1.29.75a.41.41,0,0,0,.45,0,5.1,5.1,0,0,1,3.53-.06,2.5,2.5,0,0,1,.38.15l0,0a.34.34,0,0,1,.16.45c-.08.19-.26.23-.49.17a12.78,12.78,0,0,0-1.36-.32,3.33,3.33,0,0,0-1.71.21c.5.42,1,.81,1.45,1.24s1,.93,1.42,1.41a.44.44,0,0,0,.48.16,3.08,3.08,0,0,1,2.35.38c.31.18.43.4.3.6s-.38.2-.69,0a2.38,2.38,0,0,0-1.69-.3,3.4,3.4,0,0,0,.2.31,11.88,11.88,0,0,1,1.69,3.06,1.18,1.18,0,0,1,.07.2c.05.21,0,.4-.24.46a.43.43,0,0,1-.51-.31c-.27-.59-.52-1.2-.83-1.78a14.5,14.5,0,0,0-.81-1.23,1.07,1.07,0,0,0-.19-.18,2.8,2.8,0,0,0-.26,1.37,3.05,3.05,0,0,0,.05.41c.05.24,0,.42-.3.47h0a.4.4,0,0,1-.42-.39,3.28,3.28,0,0,1,.31-2.26s0,0,0,0h0a.41.41,0,0,0-.1-.57c-.84-.76-1.66-1.54-2.5-2.29-.32-.28-.38-.24-.47.14a3.05,3.05,0,0,0,.19,1.93,1.22,1.22,0,0,0,.07.17c.1.23.09.43-.18.53h0a.42.42,0,0,1-.52-.3,3.68,3.68,0,0,1-.2-2.89c.09-.24,0-.35-.19-.5s-.69-.41-1-.6c.09.14-.15.48-.32.83a3.85,3.85,0,0,0-.31,1,4.56,4.56,0,0,0,.44,3.24,8.82,8.82,0,0,0,2.69,3.1,20.72,20.72,0,0,0,5.79,3.14"/><path id="Path_1639-5" data-name="Path 1639" class="cls-10" d="M175.07,164.23c.25,0,.3-.24.24-.46l-.06-.2a11.85,11.85,0,0,0-1.7-3l-.19-.31a2.43,2.43,0,0,1,1.69.29c.3.2.56.18.69,0s0-.42-.31-.61a3.14,3.14,0,0,0-2.34-.37.44.44,0,0,1-.48-.16c-.46-.48-.93-1-1.42-1.41s-1-.81-1.45-1.24a3.33,3.33,0,0,1,1.71-.21,12.78,12.78,0,0,1,1.36.32c.23.06.41,0,.49-.17,0,0,0,0,0-.05a.34.34,0,0,0-.23-.42,2.5,2.5,0,0,0-.38-.15,5,5,0,0,0-3.52.07.45.45,0,0,1-.46,0q-.63-.41-1.29-.75h0c-.2-.09-.24-.09-.25-.12h0a18.62,18.62,0,0,0-2.56-1.1c-.45-.15-.89-.28-1.35-.4-.24-.06-.45,0-.5.25s.1.37.33.44l.64.19A16.77,16.77,0,0,1,167,155.9h0l.1,0h0c.35.19.7.39,1,.6s.29.26.19.5a3.66,3.66,0,0,0,.2,2.88v0h0a.41.41,0,0,0,.53.26c.26-.1.28-.3.18-.53a.87.87,0,0,1-.07-.17,3.11,3.11,0,0,1-.19-1.93c.09-.37.15-.41.47-.13.84.75,1.66,1.52,2.5,2.28v0h0a.42.42,0,0,1,.08.58,3.28,3.28,0,0,0-.31,2.26v0a.42.42,0,0,0,.47.34c.29,0,.35-.22.3-.47a1.92,1.92,0,0,1-.05-.41,2.82,2.82,0,0,1,.26-1.37,1.07,1.07,0,0,1,.19.18q.44.6.81,1.23c.31.58.56,1.19.83,1.79a.43.43,0,0,0,.51.3"/><path id="Path_1640-5" data-name="Path 1640" class="cls-10" d="M167.11,156l-.1-.05.11.06h0"/><path id="Path_1641-5" data-name="Path 1641" class="cls-10" d="M167.43,155.32l-.27-.14v0s.06,0,.26.12"/></g></g></g><g id="Group_315-6" data-name="Group 315"><g class="cls-20"><g id="Group_314-6" data-name="Group 314"><path id="Path_1637-6" data-name="Path 1637" class="cls-10" d="M82.27,69.82l-.2,0a20.92,20.92,0,0,0-6.22,0,13.46,13.46,0,0,0-6,2.36,9,9,0,0,0-3,11.45A9.29,9.29,0,0,0,69,86.35c.74.62,1.28.85,1.42.78l.06-.4h0v0c0-.23,0-.21,0-.25,0-.28-.36-.4-.92-.83l-.36-.3a7.86,7.86,0,0,1-1.35-9.73,9.62,9.62,0,0,1,4.4-3.72,16,16,0,0,1,7.43-1.25c.43,0,.86,0,1.29,0,.24,0,.49.08.73.11.58.09.59.08.59.66a28.14,28.14,0,0,1-1.55,8.77A11.83,11.83,0,0,1,78,84.94a6.18,6.18,0,0,1-4,2,5.16,5.16,0,0,1-1.36,0c-.51-.07-1.06-.22-1.19-.05l0,.17h0v0c0,.43-.08.43-.06.49s.3.14,1.15.28l.31.06a6.92,6.92,0,0,0,4.53-1.15,11.22,11.22,0,0,0,4-5.3A26,26,0,0,0,83,75.17c.18-1.37.25-2.75.3-4.13,0-.83-.23-1.08-1-1.22"/><path id="Path_1638-6" data-name="Path 1638" class="cls-11" d="M82.36,71.4c0-.58,0-.57-.59-.66-.24,0-.49-.09-.73-.11-.43,0-.86,0-1.29-.06a16.06,16.06,0,0,0-7.43,1.25,9.7,9.7,0,0,0-4.4,3.73,7.87,7.87,0,0,0,1.36,9.73,3.51,3.51,0,0,0,.36.29c.56.44.89.56.91.83,0,0,0,0,0,.26v0c.11-.66.25-1.32.41-2a.6.6,0,0,0-.15-.61,6.87,6.87,0,0,1-1.59-4.48,3.31,3.31,0,0,1,0-.55.08.08,0,0,1,0-.07.47.47,0,0,1,.5-.41c.28,0,.41.24.43.57a16.87,16.87,0,0,0,.17,1.87,4.48,4.48,0,0,0,1,2.1c.32-.82.61-1.62,1-2.39s.79-1.62,1.21-2.42a.59.59,0,0,0,0-.68A4.16,4.16,0,0,1,73,74.5c.1-.47.33-.73.64-.65s.42.41.3.88A3.26,3.26,0,0,0,74.26,77l.31-.38a16,16,0,0,1,3.19-3.48L78,73c.26-.17.52-.19.69.1a.58.58,0,0,1-.17.79c-.65.59-1.32,1.18-1.93,1.82a18.9,18.9,0,0,0-1.23,1.57,1.77,1.77,0,0,0-.15.31,3.7,3.7,0,0,0,1.86-.25,2.38,2.38,0,0,0,.51-.24c.29-.16.55-.16.73.19a.08.08,0,0,1,0,0h0a.55.55,0,0,1-.32.72,4.57,4.57,0,0,1-3,.57h0a.55.55,0,0,0-.69.38c-.62,1.39-1.26,2.77-1.86,4.17-.22.53-.14.59.37.55a4.29,4.29,0,0,0,2.4-1.07l.18-.16c.25-.23.51-.3.76,0,0,0,0,0,0,0h0a.58.58,0,0,1-.16.79,5,5,0,0,1-3.61,1.49c-.35,0-.48.1-.56.46-.12.53-.23,1.06-.32,1.59.13-.18.67,0,1.18,0a5.71,5.71,0,0,0,1.37,0,6.18,6.18,0,0,0,4-1.95,11.81,11.81,0,0,0,2.81-4.76,28.14,28.14,0,0,0,1.55-8.77"/><path id="Path_1639-6" data-name="Path 1639" class="cls-10" d="M78.66,73.12A.44.44,0,0,0,78,73l-.23.17a16.28,16.28,0,0,0-3.2,3.48c-.08.12-.17.22-.3.38a3.22,3.22,0,0,1-.35-2.29c.12-.48,0-.81-.31-.88s-.53.17-.64.64a4.21,4.21,0,0,0,.52,3.16.6.6,0,0,1,0,.69c-.42.8-.83,1.59-1.21,2.42s-.63,1.57-1,2.39a4.49,4.49,0,0,1-1-2.11,16.66,16.66,0,0,1-.17-1.87c0-.32-.15-.53-.43-.56h-.07a.46.46,0,0,0-.44.47c0,.19,0,.37,0,.55a6.94,6.94,0,0,0,1.6,4.49.59.59,0,0,1,.15.6c-.16.66-.3,1.31-.41,2h0c0,.3,0,.35,0,.38l0,0a26.09,26.09,0,0,0-.3,3.75c0,.63,0,1.26,0,1.89,0,.34.2.58.54.54s.43-.28.42-.62l0-.9A22.35,22.35,0,0,1,71.43,87h0c0-.13,0-.13,0-.15v0c.09-.53.2-1.06.32-1.59.09-.35.21-.47.56-.46A5,5,0,0,0,76,83.31l0,0h0a.57.57,0,0,0,.11-.8c-.25-.29-.51-.23-.76,0l-.18.17a4.21,4.21,0,0,1-2.4,1.06c-.51,0-.59,0-.37-.54.61-1.4,1.24-2.79,1.86-4.18v0h0a.56.56,0,0,1,.71-.35,4.51,4.51,0,0,0,3-.57l.06,0a.56.56,0,0,0,.24-.75c-.18-.35-.43-.35-.73-.18a4,4,0,0,1-.51.24,3.7,3.7,0,0,1-1.86.25,2.3,2.3,0,0,1,.15-.32c.38-.54.8-1.06,1.23-1.56.62-.65,1.28-1.23,1.93-1.83a.57.57,0,0,0,.17-.78"/><path id="Path_1640-6" data-name="Path 1640" class="cls-10" d="M71.46,86.85s0,0,0,.15l0-.16h0"/><path id="Path_1641-6" data-name="Path 1641" class="cls-10" d="M70.51,86.73c0,.13-.05.26-.07.39h0s0-.09,0-.39"/></g></g></g><g id="Group_315-7" data-name="Group 315"><g class="cls-21"><g id="Group_314-7" data-name="Group 314"><path id="Path_1637-7" data-name="Path 1637" class="cls-10" d="M124.76,82.51l-.12-.13a18.6,18.6,0,0,0-4.31-3.65,12.19,12.19,0,0,0-5.56-1.93A8.14,8.14,0,0,0,106,83a8.56,8.56,0,0,0-.07,3.19c.15.86.38,1.34.52,1.37l.28-.23h0l0,0,.18-.15c.14-.21,0-.49-.15-1.11a3.07,3.07,0,0,1-.07-.42A7.13,7.13,0,0,1,111.47,78a8.8,8.8,0,0,1,5.23,0,14.57,14.57,0,0,1,5.87,3.51c.28.27.58.52.86.8s.29.34.44.51c.35.4.36.4,0,.8a25.52,25.52,0,0,1-6.24,5.14,10.84,10.84,0,0,1-4.74,1.64,5.66,5.66,0,0,1-3.89-1,4.86,4.86,0,0,1-1-.8c-.31-.34-.6-.77-.79-.73l-.12.1h0c-.28.27-.3.25-.32.31s.12.27.62.87l.19.22a6.21,6.21,0,0,0,3.8,1.87,10.17,10.17,0,0,0,5.89-1.3,24,24,0,0,0,4.81-3.36c.93-.84,1.79-1.76,2.64-2.68.51-.55.47-.88,0-1.46"/><path id="Path_1638-7" data-name="Path 1638" class="cls-11" d="M123.9,83.66c.34-.4.33-.4,0-.8-.15-.18-.29-.36-.44-.51l-.86-.8a14.43,14.43,0,0,0-5.87-3.5,8.72,8.72,0,0,0-5.23,0,7.13,7.13,0,0,0-4.79,7.52c0,.14,0,.28.07.42.14.63.29.91.15,1.11l-.18.15,0,0c.47-.39,1-.77,1.45-1.12a.54.54,0,0,0,.24-.51,6.3,6.3,0,0,1,1.54-4l.35-.36,0,0a.41.41,0,0,1,.59,0c.18.18.14.4,0,.64a15.2,15.2,0,0,0-1,1.39,4.18,4.18,0,0,0-.54,2c.71-.38,1.38-.76,2.07-1.09s1.5-.66,2.26-1a.55.55,0,0,0,.4-.48,3.82,3.82,0,0,1,1.5-2.5c.35-.26.66-.3.83-.07s0,.53-.31.79A3,3,0,0,0,115,82.78l.43-.08a14.6,14.6,0,0,1,4.26-.53l.26,0c.27,0,.46.18.41.48a.52.52,0,0,1-.58.44c-.8,0-1.61,0-2.4.13a18.1,18.1,0,0,0-1.78.36,1.85,1.85,0,0,0-.29.13,3.49,3.49,0,0,0,1.44.92,2.72,2.72,0,0,0,.49.13c.3.06.48.21.4.56l0,0h0a.51.51,0,0,1-.64.31,4.14,4.14,0,0,1-2.43-1.39v0h0a.5.5,0,0,0-.7-.15c-1.25.6-2.51,1.18-3.74,1.8-.47.23-.45.32-.07.59a3.8,3.8,0,0,0,2.29.67h.22c.31,0,.53.09.52.44v0h0a.5.5,0,0,1-.57.45A4.49,4.49,0,0,1,109.1,87c-.23-.22-.38-.21-.65,0s-.78.59-1.16.91c.2-.05.48.38.79.73a4.81,4.81,0,0,0,1,.79,5.67,5.67,0,0,0,3.89,1,10.84,10.84,0,0,0,4.74-1.64,25.33,25.33,0,0,0,6.24-5.15"/><path id="Path_1639-7" data-name="Path 1639" class="cls-10" d="M120.32,82.67c.05-.3-.14-.45-.41-.48l-.26,0a14.21,14.21,0,0,0-4.25.53l-.44.08A2.93,2.93,0,0,1,116.07,81c.36-.26.47-.56.31-.79s-.48-.19-.83.07a3.84,3.84,0,0,0-1.49,2.49.55.55,0,0,1-.4.48c-.76.3-1.52.61-2.26,1s-1.36.72-2.07,1.09a4.18,4.18,0,0,1,.54-2.05,15.2,15.2,0,0,1,1-1.39c.17-.24.21-.46,0-.64l0,0a.41.41,0,0,0-.58.07l-.35.36a6.24,6.24,0,0,0-1.53,4,.57.57,0,0,1-.25.51c-.5.35-1,.73-1.45,1.12h0c-.19.19-.21.23-.25.24h0A22.85,22.85,0,0,0,104,89.91c-.38.43-.74.88-1.08,1.34-.18.25-.2.52.06.69s.46.06.65-.18l.51-.64a20.66,20.66,0,0,1,3-3.1h0l.1-.09h0c.38-.31.77-.62,1.16-.91s.43-.21.66,0a4.51,4.51,0,0,0,3.37,1.1h0a.52.52,0,0,0,.55-.49c0-.34-.22-.45-.53-.44h-.22a3.87,3.87,0,0,1-2.28-.68c-.39-.27-.4-.36.06-.59,1.24-.61,2.5-1.2,3.74-1.79h0a.51.51,0,0,1,.7.18A4.08,4.08,0,0,0,117,85.69l.05,0a.51.51,0,0,0,.61-.37c.08-.35-.1-.5-.4-.56a3.92,3.92,0,0,1-.49-.13,3.43,3.43,0,0,1-1.44-.92,1.08,1.08,0,0,1,.29-.13q.89-.22,1.77-.36c.81-.09,1.61-.1,2.41-.13a.52.52,0,0,0,.58-.44"/><path id="Path_1640-7" data-name="Path 1640" class="cls-10" d="M107.27,87.92l-.1.1.11-.1h0"/><path id="Path_1641-7" data-name="Path 1641" class="cls-10" d="M106.69,87.28a3.11,3.11,0,0,0-.28.23h0s.06-.05.26-.24"/></g></g></g><g id="Group_315-8" data-name="Group 315"><g class="cls-22"><g id="Group_314-8" data-name="Group 314"><path id="Path_1637-8" data-name="Path 1637" class="cls-10" d="M150.05,123.8c-.58.4-.69.68-.37,1.31.54,1,1.09,2.07,1.72,3a22,22,0,0,0,3.49,4.2,9.56,9.56,0,0,0,5,2.61,5.86,5.86,0,0,0,3.88-.75l.22-.16c.6-.41.78-.49.77-.63s0,0-.21-.35h0l-.08-.11c-.16-.09-.52.23-.89.46a4.15,4.15,0,0,1-1,.48,5.24,5.24,0,0,1-3.74-.06,10,10,0,0,1-3.86-2.63,23.63,23.63,0,0,1-4.34-6.15c-.22-.44-.2-.44.21-.72.17-.11.34-.24.52-.35l1-.5a13.61,13.61,0,0,1,6.13-1.72,8.24,8.24,0,0,1,4.71,1.27,6.64,6.64,0,0,1,2.46,7.93,2.37,2.37,0,0,1-.17.36c-.27.53-.48.75-.4,1,0,0,0,0,.12.19l0,0h0l.19.28c.14,0,.46-.37.81-1.11a7.82,7.82,0,0,0,.71-2.89,7.57,7.57,0,0,0-6.41-7.68,11.44,11.44,0,0,0-5.48.37,17.6,17.6,0,0,0-4.77,2.23l-.14.09"/><path id="Path_1638-8" data-name="Path 1638" class="cls-11" d="M150.54,125a23.7,23.7,0,0,0,4.34,6.15,10.06,10.06,0,0,0,3.86,2.64,5.27,5.27,0,0,0,3.75.06,4.91,4.91,0,0,0,1-.48c.37-.24.73-.56.89-.47-.26-.37-.53-.74-.82-1.1s-.33-.29-.59-.15a4.21,4.21,0,0,1-3.3.16.48.48,0,0,1-.4-.55h0v0c.08-.31.31-.35.58-.27a.76.76,0,0,0,.2.06,3.58,3.58,0,0,0,2.22,0c.41-.15.45-.23.09-.55-1-.86-2-1.69-2.93-2.53a.47.47,0,0,0-.67,0h0v0a3.88,3.88,0,0,1-2.52.65.47.47,0,0,1-.5-.43h0a.06.06,0,0,1,0-.06c0-.33.2-.42.49-.4h.47a3.26,3.26,0,0,0,1.52-.47A1.37,1.37,0,0,0,158,127a16.39,16.39,0,0,0-1.51-.76c-.69-.27-1.42-.48-2.13-.7A.49.49,0,0,1,154,125c0-.28.23-.36.49-.33l.24,0a13,13,0,0,1,3.69,1.51l.37.18a2.77,2.77,0,0,0-.56-1.88c-.26-.32-.29-.61-.08-.78s.47-.06.72.26a3.53,3.53,0,0,1,.74,2.62.5.5,0,0,0,.25.52c.6.46,1.21.92,1.79,1.42s1,1,1.59,1.48a3.76,3.76,0,0,0,0-2,15.63,15.63,0,0,0-.55-1.49c-.1-.26-.08-.46.13-.59a.39.39,0,0,1,.53.13l0,0a3.23,3.23,0,0,1,.22.41,5.8,5.8,0,0,1,.4,4,.48.48,0,0,0,.1.51c.36.44.7.9,1,1.36l0,0c-.1-.17-.1-.15-.12-.19-.08-.21.13-.43.41-1l.17-.36a6.65,6.65,0,0,0-2.47-7.93,8.22,8.22,0,0,0-4.71-1.27,13.61,13.61,0,0,0-6.13,1.72l-1,.5c-.18.11-.34.23-.52.35-.41.28-.42.28-.21.72"/><path id="Path_1639-8" data-name="Path 1639" class="cls-10" d="M154,125a.49.49,0,0,0,.41.54c.71.22,1.43.43,2.13.7A16.39,16.39,0,0,1,158,127a1.37,1.37,0,0,1,.23.19,3.15,3.15,0,0,1-1.52.47,1.85,1.85,0,0,1-.47,0c-.29,0-.49.07-.49.41a.47.47,0,0,0,.45.48h.05a3.88,3.88,0,0,0,2.52-.65.47.47,0,0,1,.67,0h0c1,.84,2,1.67,2.92,2.53.36.31.33.39-.09.55a3.63,3.63,0,0,1-2.21,0l-.2-.06c-.28-.08-.49,0-.58.27a.47.47,0,0,0,.37.57h0a4.21,4.21,0,0,0,3.3-.16c.26-.14.4-.1.59.15s.55.72.82,1.1h0a.46.46,0,0,1,.07.11h0a19.61,19.61,0,0,1,2,3.53l.3.7c.11.26.29.4.54.32s.32-.34.22-.61c-.19-.5-.41-1-.64-1.47a21.6,21.6,0,0,0-1.58-2.76h0s0-.06-.17-.28h0c-.33-.47-.67-.92-1-1.36a.5.5,0,0,1-.1-.52,5.76,5.76,0,0,0-.4-4,3.23,3.23,0,0,0-.22-.41.39.39,0,0,0-.51-.21l0,0c-.2.12-.22.33-.12.58q.3.74.54,1.5a3.87,3.87,0,0,1,0,2c-.55-.51-1.06-1-1.6-1.49s-1.19-1-1.79-1.41a.5.5,0,0,1-.24-.53,3.57,3.57,0,0,0-.74-2.6c-.25-.33-.53-.43-.73-.27s-.17.47.09.79a2.73,2.73,0,0,1,.56,1.87l-.38-.17a13.25,13.25,0,0,0-3.69-1.52l-.24,0c-.25,0-.46,0-.49.32"/><path id="Path_1640-8" data-name="Path 1640" class="cls-10" d="M164.44,133h0l.08.11c0-.09,0-.1-.07-.11"/><path id="Path_1641-8" data-name="Path 1641" class="cls-10" d="M165.13,132.5c.13.22.13.26.17.28h0l-.19-.27"/></g></g></g><g id="Group_323" data-name="Group 323"><g id="Group_322" data-name="Group 322"><g class="cls-23"><g id="Group_321" data-name="Group 321"><path id="Path_1648" data-name="Path 1648" class="cls-24" d="M89.26,213v6.6c0,1.43-.44,1.81-2.06,1.81-2.76,0-5.53,0-8.29,0-.73,0-1,.1-1,.83,0,4.24,0,8.48,0,12.72,0,1.29-.47,1.72-1.88,1.72H71.41c-1.43,0-1.91-.42-1.91-1.7,0-4.26,0-8.53,0-12.79,0-.6-.13-.79-.84-.79-8.2,0-16.4,0-24.61,0s-16.34,0-24.52,0c-.65,0-.87.11-.87.75,0,4.27,0,8.54,0,12.8,0,1.29-.47,1.72-1.88,1.72H12c-1.3,0-1.81-.45-1.81-1.62,0-4.29,0-8.59,0-12.88,0-.61-.15-.79-.85-.78-2.88,0-5.76,0-8.64,0-1.31,0-1.82-.45-1.82-1.63v-6.91c0-1.18.5-1.63,1.81-1.63,2.91,0,5.82,0,8.73,0,.63,0,.78-.14.77-.7,0-1.86,0-1.86-2.1-1.86H3.46c-1.18,0-1.71-.48-1.71-1.56V174.63c0-1.07.53-1.53,1.73-1.54,2,0,4,0,6,0,.64,0,.76-.17.76-.7,0-1.86,0-1.86-2-1.86H.81c-1.4,0-1.88-.43-1.88-1.72v-6.76c0-1.27.49-1.69,1.92-1.69,2.77,0,5.53,0,8.29,0,.84,0,1.21-.11,1.11-1a19.08,19.08,0,0,1,0-2.62c0-1,.53-1.52,1.65-1.53H17c1.14,0,1.68.48,1.69,1.5s0,2.07,0,3.1c0,.36.08.55.53.49h49.3c.77,0,1.07-.12,1-.88a25.6,25.6,0,0,1,0-2.77c0-.94.55-1.44,1.57-1.45h5.29c1,0,1.57.5,1.59,1.43s0,2,0,3c0,.51.13.66.72.65,2.91,0,5.82,0,8.73,0,1.36,0,1.85.44,1.85,1.67,0,2.3,0,4.61,0,6.91,0,1.13-.51,1.59-1.76,1.59-2.94,0-5.88,0-8.82,0-.59,0-.72.14-.72.65,0,1.9,0,1.9,2.14,1.9h4.68c1.13,0,1.66.49,1.66,1.52v32.58c0,1-.54,1.5-1.69,1.5-2,0-4,0-6.08,0-.6,0-.71.17-.71.66,0,1.9,0,1.9,2.06,1.9h7.32c1.47,0,1.92.42,1.92,1.77m-2.8,1.69c.06-.77-.19-.94-1-.94q-41.31,0-82.64,0H2.33c-.45-.06-.6.1-.58.52,0,1.24.06,2.49,0,3.73,0,.7.17.86.94.86q20.69,0,41.37,0H63.54c7.38,0,14.76,0,22.14,0,.61,0,.8-.12.77-.69a29.19,29.19,0,0,1,0-3.5m0-50.9c0-.73-.19-.9-1-.9q-40.65,0-81.31,0c-.59,0-1.18,0-1.77,0s-.64.11-.63.57c0,1.22.06,2.44,0,3.65,0,.73.19.9,1,.9q20.64,0,41.28,0l41.63,0c.65,0,.84-.12.81-.73a33.86,33.86,0,0,1,0-3.49m-3.72,42.39c.72,0,.9-.15.9-.82q0-14.46,0-28.93c0-.66-.17-.81-.9-.81q-19.28,0-38.54,0l-38.73,0c-.73,0-.9.15-.9.81q0,14.46,0,28.93c0,.66.17.82.9.82q38.64,0,77.27,0m-8.21,28c.5,0,.64-.12.63-.57,0-1.91,0-3.82,0-5.72v-4.53c0-1.93,0-1.91-2.11-1.92-.58,0-.73.13-.72.65,0,3.39,0,6.78,0,10.17,0,2,0,1.94,2.2,1.92m.62-62.39c0-1.21,0-1.21-1.3-1.21-1.52,0-1.52,0-1.52,1.34s0,1.21,1.3,1.21c1.52,0,1.52,0,1.52-1.34m-1.38-11.38c1.38,0,1.38,0,1.38-1.22s0-1.33-1.43-1.33-1.39,0-1.39,1.22,0,1.32,1.44,1.32m0,50.88c1.36,0,1.36,0,1.36-1.24s0-1.31-1.46-1.31-1.36,0-1.36,1.24,0,1.31,1.46,1.31m-4.26-39.82c0-.72-.19-.9-1-.89q-24,0-47.89,0c-1.95,0-1.91,0-2,1.75,0,.66.17.82.9.81q12.21,0,24.43,0H67.64c1.86,0,1.81,0,1.88-1.67m0,38.07c0-.66-.17-.82-.9-.81q-12.23,0-24.43,0H20.55c-1.86,0-1.81,0-1.88,1.67,0,.72.19.9,1,.89q24,0,47.89,0c2,0,1.91,0,2-1.75M15.25,234.15c.5,0,.64-.12.63-.57,0-1.93,0-3.87,0-5.8v-4.45c0-1.93,0-1.91-2.12-1.92-.57,0-.72.13-.72.65,0,3.39,0,6.78,0,10.17,0,2,0,1.94,2.2,1.92m.62-75.1c0-1.21,0-1.21-1.3-1.21-1.53,0-1.53,0-1.53,1.4,0,1.14,0,1.14,1.3,1.14,1.53,0,1.53,0,1.53-1.33m-1.31,14c1.31,0,1.31,0,1.31-1.2s0-1.34-1.51-1.34c-1.31,0-1.31,0-1.31,1.2s0,1.34,1.51,1.34m-.05,38.15c1.36,0,1.36,0,1.36-1.24s0-1.31-1.46-1.31-1.36,0-1.36,1.24,0,1.31,1.46,1.31"/><path id="Path_1649" data-name="Path 1649" class="cls-8" d="M85.41,213.77c.85,0,1.1.16,1,.94a29.19,29.19,0,0,0,0,3.5c0,.56-.16.69-.77.68-7.38,0-14.76,0-22.14,0H44.05l-41.36,0c-.77,0-1-.15-.95-.86.07-1.24,0-2.49,0-3.73,0-.42.13-.58.59-.52a3.09,3.09,0,0,0,.43,0q41.34,0,82.65,0m-10.28,2.56c0-1.27,0-1.27-1.41-1.27s-1.41,0-1.41,1.27,0,1.27,1.4,1.27,1.42,0,1.42-1.27m-59.28,0c0-1.23,0-1.23-1.36-1.23s-1.46,0-1.46,1.31,0,1.23,1.37,1.23,1.46,0,1.46-1.31"/><path id="Path_1650" data-name="Path 1650" class="cls-8" d="M85.46,162.91c.8,0,1,.16,1,.9a33.86,33.86,0,0,0,0,3.49c0,.6-.17.73-.82.73Q64.81,168,44,168q-20.62,0-41.27,0c-.8,0-1-.18-1-.9.07-1.22,0-2.44,0-3.66,0-.45.13-.59.63-.56s1.18,0,1.76,0l81.32,0m-11.68,3.84c1.36,0,1.36,0,1.36-1.24s0-1.31-1.46-1.31-1.36,0-1.36,1.24,0,1.31,1.46,1.31m-57.91-1.33c0-1.22,0-1.22-1.38-1.22s-1.44,0-1.44,1.33,0,1.22,1.38,1.22,1.44,0,1.44-1.33"/><path id="Path_1651" data-name="Path 1651" class="cls-25" d="M83.63,205.36c0,.67-.18.82-.9.82q-38.64,0-77.27,0c-.73,0-.9-.16-.9-.82q0-14.46,0-28.93c0-.66.17-.81.9-.81q19.37,0,38.73,0l38.54,0c.73,0,.9.15.9.81q0,14.48,0,28.93m-2.84-26c0-1.23,0-1.23-1.38-1.23s-1.45,0-1.45,1.32,0,1.23,1.38,1.23,1.45,0,1.45-1.32m0,22.9c0-1.23,0-1.23-1.37-1.23s-1.46,0-1.46,1.31,0,1.23,1.37,1.23,1.46,0,1.46-1.31m-70.57.05c0-1.29,0-1.29-1.4-1.29s-1.42,0-1.42,1.26,0,1.29,1.4,1.29,1.42,0,1.42-1.26m0-22.9c0-1.28,0-1.28-1.4-1.28s-1.42,0-1.42,1.27,0,1.28,1.41,1.28,1.41,0,1.41-1.27"/><path id="Path_1652" data-name="Path 1652" class="cls-24" d="M79.41,178.18c1.38,0,1.38,0,1.38,1.23s0,1.32-1.45,1.32-1.38,0-1.38-1.23,0-1.32,1.45-1.32"/><path id="Path_1653" data-name="Path 1653" class="cls-24" d="M79.42,201.07c1.37,0,1.37,0,1.37,1.23s0,1.32-1.45,1.32-1.38,0-1.38-1.24,0-1.31,1.46-1.31"/><path id="Path_1654" data-name="Path 1654" class="cls-8" d="M75.15,233.58c0,.45-.13.56-.63.57-2.2,0-2.2,0-2.2-1.92,0-3.4,0-6.78,0-10.17,0-.52.14-.66.72-.65,2.11,0,2.11,0,2.11,1.92v4.53c0,1.91,0,3.81,0,5.72"/><path id="Path_1655" data-name="Path 1655" class="cls-8" d="M73.84,170.55c1.3,0,1.3,0,1.3,1.21s0,1.34-1.52,1.34c-1.3,0-1.3,0-1.3-1.21s0-1.34,1.52-1.34"/><path id="Path_1656" data-name="Path 1656" class="cls-8" d="M75.14,159.16c0,1.22,0,1.22-1.38,1.22s-1.44,0-1.44-1.33,0-1.21,1.39-1.21,1.43,0,1.43,1.32"/><path id="Path_1657" data-name="Path 1657" class="cls-24" d="M75.14,165.5c0,1.24,0,1.24-1.36,1.24s-1.46,0-1.46-1.31,0-1.24,1.36-1.24,1.47,0,1.47,1.31"/><path id="Path_1658" data-name="Path 1658" class="cls-8" d="M75.14,210c0,1.24,0,1.24-1.36,1.24s-1.46,0-1.46-1.31,0-1.24,1.36-1.24,1.47,0,1.47,1.31"/><path id="Path_1659" data-name="Path 1659" class="cls-24" d="M73.74,215.06c1.41,0,1.41,0,1.41,1.28s0,1.26-1.42,1.26-1.41,0-1.41-1.27,0-1.27,1.42-1.27"/><path id="Path_1660" data-name="Path 1660" class="cls-8" d="M15.88,233.58c0,.45-.13.56-.63.57-2.2,0-2.2,0-2.2-1.92,0-3.39,0-6.78,0-10.17,0-.52.15-.66.72-.65,2.12,0,2.12,0,2.12,1.92v4.45c0,1.93,0,3.87,0,5.8"/><path id="Path_1661" data-name="Path 1661" class="cls-8" d="M14.57,157.84c1.3,0,1.3,0,1.3,1.21s0,1.33-1.52,1.33c-1.3,0-1.3,0-1.3-1.13,0-1.41,0-1.41,1.53-1.41"/><path id="Path_1662" data-name="Path 1662" class="cls-8" d="M15.87,171.89c0,1.2,0,1.2-1.31,1.2-1.51,0-1.51,0-1.51-1.34s0-1.2,1.31-1.2c1.51,0,1.51,0,1.51,1.34"/><path id="Path_1663" data-name="Path 1663" class="cls-24" d="M14.49,164.19c1.38,0,1.38,0,1.38,1.22s0,1.33-1.44,1.33-1.38,0-1.38-1.22,0-1.33,1.44-1.33"/><path id="Path_1664" data-name="Path 1664" class="cls-8" d="M15.87,210c0,1.24,0,1.24-1.36,1.24s-1.46,0-1.46-1.32,0-1.23,1.37-1.23,1.45,0,1.45,1.31"/><path id="Path_1665" data-name="Path 1665" class="cls-24" d="M14.5,215.06c1.37,0,1.37,0,1.37,1.23s0,1.31-1.45,1.31-1.37,0-1.37-1.23,0-1.31,1.45-1.31"/><path id="Path_1666" data-name="Path 1666" class="cls-24" d="M8.83,201.07c1.4,0,1.4,0,1.4,1.29s0,1.26-1.43,1.26-1.4,0-1.4-1.29,0-1.26,1.43-1.26"/><path id="Path_1667" data-name="Path 1667" class="cls-24" d="M8.82,178.18c1.4,0,1.4,0,1.4,1.28s0,1.27-1.41,1.27-1.41,0-1.41-1.28,0-1.27,1.42-1.27"/></g></g></g><g id="One_piece_of_leaf_will_emerge_when_one_record_is_uploaded._" data-name="One piece of leaf will emerge when one record is uploaded. " class="cls-26"><path class="cls-27" d="M12.93,182.53v-1.32h0L12,183.36l-.88-2.15h0v3.42h-.46v-4.19h.65l.74,1.85h0l.74-1.85h.62v4.19h-.46Z"/><path class="cls-27" d="M15.6,184.7a1.36,1.36,0,0,1-.58-.11,1.25,1.25,0,0,1-.45-.33,1.56,1.56,0,0,1-.28-.51,2.5,2.5,0,0,1,0-1.33,1.73,1.73,0,0,1,.28-.52,1.12,1.12,0,0,1,.45-.32,1.37,1.37,0,0,1,.58-.12,1.41,1.41,0,0,1,.59.12,1.16,1.16,0,0,1,.44.32,1.53,1.53,0,0,1,.28.52,2.26,2.26,0,0,1,0,1.33,1.4,1.4,0,0,1-.28.51,1.31,1.31,0,0,1-.44.33A1.41,1.41,0,0,1,15.6,184.7Zm0-.41a.88.88,0,0,0,.65-.24,1,1,0,0,0,.25-.75v-.44a1,1,0,0,0-.25-.74.88.88,0,0,0-.65-.24.9.9,0,0,0-.65.24,1,1,0,0,0-.24.74v.44a1,1,0,0,0,.24.75A.9.9,0,0,0,15.6,184.29Z"/><path class="cls-27" d="M17.86,184.22h.91V182h-.91v-.41h1.39v.77h0a1,1,0,0,1,.36-.57,1.08,1.08,0,0,1,.68-.2h.44V182h-.59a1,1,0,0,0-.67.24.86.86,0,0,0-.25.63v1.34h1.2v.41H17.86Z"/><path class="cls-27" d="M22.86,184.7a1.48,1.48,0,0,1-.61-.11,1.25,1.25,0,0,1-.45-.33,1.28,1.28,0,0,1-.29-.51,2.07,2.07,0,0,1,0-1.33,1.75,1.75,0,0,1,.29-.52,1.12,1.12,0,0,1,.45-.32,1.34,1.34,0,0,1,.58-.12,1.31,1.31,0,0,1,.56.12,1.25,1.25,0,0,1,.44.31,1.33,1.33,0,0,1,.27.48,1.64,1.64,0,0,1,.1.6v.23H21.91v.15a1.1,1.1,0,0,0,.06.37.91.91,0,0,0,.19.3.88.88,0,0,0,.3.2,1,1,0,0,0,.4.07,1,1,0,0,0,.54-.15.87.87,0,0,0,.34-.39l.36.24a1.13,1.13,0,0,1-.46.51A1.42,1.42,0,0,1,22.86,184.7Zm0-2.84a.87.87,0,0,0-.37.07.84.84,0,0,0-.29.2.77.77,0,0,0-.19.3.9.9,0,0,0-.07.37v0h1.77v-.06a1.06,1.06,0,0,0-.06-.37,1,1,0,0,0-.17-.3,1,1,0,0,0-.27-.19A1,1,0,0,0,22.83,181.86Z"/><path class="cls-27" d="M30.75,184.13h0a1,1,0,0,1-1,.57,1.06,1.06,0,0,1-.89-.42,2,2,0,0,1-.32-1.2,2,2,0,0,1,.32-1.19,1,1,0,0,1,.89-.43,1,1,0,0,1,1,.58h0v-1.85h.48v4.44h-.48Zm-.79.15a1.06,1.06,0,0,0,.31-.05.58.58,0,0,0,.25-.12.55.55,0,0,0,.17-.2.54.54,0,0,0,.06-.27v-1.12a.6.6,0,0,0-.06-.27.65.65,0,0,0-.17-.2,1,1,0,0,0-.25-.12,1.06,1.06,0,0,0-.31,0,.82.82,0,0,0-.65.25,1,1,0,0,0-.23.68v.53a1,1,0,0,0,.23.67A.83.83,0,0,0,30,184.28Z"/><path class="cls-27" d="M34.77,184.63a.51.51,0,0,1-.4-.14.73.73,0,0,1-.15-.36h0a.87.87,0,0,1-.33.42,1.07,1.07,0,0,1-.6.15,1.12,1.12,0,0,1-.77-.25.85.85,0,0,1-.29-.69.79.79,0,0,1,.31-.67,1.79,1.79,0,0,1,1-.23h.66v-.3a.63.63,0,0,0-.19-.51.77.77,0,0,0-.55-.17,1,1,0,0,0-.51.12.92.92,0,0,0-.32.33l-.32-.24a.87.87,0,0,1,.16-.23,1,1,0,0,1,.25-.21,2.32,2.32,0,0,1,.35-.14,1.79,1.79,0,0,1,.42,0,1.25,1.25,0,0,1,.87.28,1,1,0,0,1,.32.77v1.71h.43v.41Zm-1.43-.33a1.18,1.18,0,0,0,.34,0,1,1,0,0,0,.27-.12.52.52,0,0,0,.18-.18.46.46,0,0,0,.06-.23v-.51h-.66a1.25,1.25,0,0,0-.63.12.39.39,0,0,0-.2.35v.12a.44.44,0,0,0,.17.37A.82.82,0,0,0,33.34,184.3Z"/><path class="cls-27" d="M37.35,184.63a.62.62,0,0,1-.52-.2.76.76,0,0,1-.16-.51v-2h-1v-.41h.76a.3.3,0,0,0,.22-.07.26.26,0,0,0,.07-.22v-.81h.46v1.1h1.41V182H37.15v2.27h1.41v.41Z"/><path class="cls-27" d="M42,184.63a.51.51,0,0,1-.4-.14.73.73,0,0,1-.15-.36h0a.87.87,0,0,1-.33.42,1.07,1.07,0,0,1-.6.15,1.12,1.12,0,0,1-.77-.25.85.85,0,0,1-.29-.69.79.79,0,0,1,.31-.67,1.79,1.79,0,0,1,1-.23h.66v-.3a.63.63,0,0,0-.19-.51.77.77,0,0,0-.55-.17,1,1,0,0,0-.51.12.92.92,0,0,0-.32.33l-.32-.24a.87.87,0,0,1,.16-.23,1,1,0,0,1,.25-.21,2.32,2.32,0,0,1,.35-.14,1.79,1.79,0,0,1,.42,0,1.25,1.25,0,0,1,.87.28,1,1,0,0,1,.32.77v1.71h.43v.41Zm-1.43-.33a1.18,1.18,0,0,0,.34,0,1,1,0,0,0,.27-.12.52.52,0,0,0,.18-.18.46.46,0,0,0,.06-.23v-.51h-.66a1.25,1.25,0,0,0-.63.12.39.39,0,0,0-.2.35v.12a.44.44,0,0,0,.17.37A.82.82,0,0,0,40.54,184.3Z"/><path class="cls-27" d="M48.06,184.7a1.48,1.48,0,0,1-.61-.11,1.35,1.35,0,0,1-.45-.33,1.28,1.28,0,0,1-.29-.51,2.07,2.07,0,0,1,0-1.33,1.75,1.75,0,0,1,.29-.52,1.12,1.12,0,0,1,.45-.32,1.34,1.34,0,0,1,.58-.12,1.31,1.31,0,0,1,.56.12,1.25,1.25,0,0,1,.44.31,1.33,1.33,0,0,1,.27.48,1.64,1.64,0,0,1,.1.6v.23H47.11v.15a1.1,1.1,0,0,0,.06.37.91.91,0,0,0,.19.3,1,1,0,0,0,.3.2,1,1,0,0,0,.4.07,1,1,0,0,0,.54-.15.87.87,0,0,0,.34-.39l.36.24a1.13,1.13,0,0,1-.46.51A1.39,1.39,0,0,1,48.06,184.7Zm0-2.84a.87.87,0,0,0-.37.07.84.84,0,0,0-.29.2.77.77,0,0,0-.19.3.9.9,0,0,0-.07.37v0h1.77v-.06a1.06,1.06,0,0,0-.06-.37,1,1,0,0,0-.17-.3,1,1,0,0,0-.27-.19A1,1,0,0,0,48,181.86Z"/><path class="cls-27" d="M50.39,184.63v-3.09h.48v.5h0l.12-.22a.77.77,0,0,1,.18-.18.66.66,0,0,1,.25-.13,1.16,1.16,0,0,1,.34,0,1.06,1.06,0,0,1,.78.31,1.25,1.25,0,0,1,.29.87v2h-.48v-1.9a.88.88,0,0,0-.19-.63.67.67,0,0,0-.54-.21,1.27,1.27,0,0,0-.28,0,.82.82,0,0,0-.25.11.52.52,0,0,0-.17.19.44.44,0,0,0-.07.26v2.15Z"/><path class="cls-27" d="M55.35,184.63a.62.62,0,0,1-.52-.2.76.76,0,0,1-.16-.51v-2h-1v-.41h.76a.3.3,0,0,0,.22-.07.26.26,0,0,0,.07-.22v-.81h.46v1.1h1.41V182H55.15v2.27h1.41v.41Z"/><path class="cls-27" d="M57.46,184.22h.91V182h-.91v-.41h1.39v.77h0a1.06,1.06,0,0,1,.36-.57,1.08,1.08,0,0,1,.68-.2h.44V182h-.59a.92.92,0,0,0-.66.24.83.83,0,0,0-.26.63v1.34h1.2v.41H57.46Z"/><path class="cls-27" d="M63.4,181.54h.49l-1.54,3.77a2.42,2.42,0,0,1-.12.23.49.49,0,0,1-.16.16.68.68,0,0,1-.21.1,1.39,1.39,0,0,1-.3,0H61.1v-.41h.72l.35-.85-1.25-3h.49l.53,1.29L62.4,184h0l.46-1.18Z"/><path class="cls-27" d="M68,181.54h.43l.35,2.67h.06l.53-2.67h.52l.53,2.67h.06l.35-2.67h.41l-.47,3.09h-.62l-.5-2.59h0l-.51,2.59h-.62Z"/><path class="cls-27" d="M72,184.22h1.12V182H72v-.41h1.6v2.68h1v.41H72Zm1.36-3.37a.41.41,0,0,1-.3-.09.31.31,0,0,1-.08-.22v-.09a.33.33,0,0,1,.08-.22.41.41,0,0,1,.3-.09.39.39,0,0,1,.29.09.29.29,0,0,1,.08.22v.09a.27.27,0,0,1-.08.22A.39.39,0,0,1,73.4,180.85Z"/><path class="cls-27" d="M75.48,184.22h1.08V180.6H75.48v-.41H77v4h1.08v.41H75.48Z"/><path class="cls-27" d="M79.08,184.22h1.08V180.6H79.08v-.41h1.56v4h1.08v.41H79.08Z"/><path class="cls-27" d="M13.17,191.83a.51.51,0,0,1-.4-.14.73.73,0,0,1-.15-.36h0a.87.87,0,0,1-.33.42,1.07,1.07,0,0,1-.6.15,1.12,1.12,0,0,1-.77-.25.85.85,0,0,1-.29-.69.79.79,0,0,1,.31-.67,1.79,1.79,0,0,1,1-.23h.66v-.3a.63.63,0,0,0-.19-.51.77.77,0,0,0-.55-.17,1,1,0,0,0-.51.12.92.92,0,0,0-.32.33l-.32-.24a.87.87,0,0,1,.16-.23,1,1,0,0,1,.25-.21,2.32,2.32,0,0,1,.35-.14,1.79,1.79,0,0,1,.42-.05,1.26,1.26,0,0,1,.87.28,1,1,0,0,1,.32.77v1.71h.43v.41Zm-1.43-.33a1.18,1.18,0,0,0,.34,0,1.11,1.11,0,0,0,.27-.12.62.62,0,0,0,.18-.18.46.46,0,0,0,.06-.23v-.51h-.66a1.25,1.25,0,0,0-.63.12.39.39,0,0,0-.2.35V191a.44.44,0,0,0,.17.37A.82.82,0,0,0,11.74,191.5Z"/><path class="cls-27" d="M16.35,191.33h0a1,1,0,0,1-1,.57,1.06,1.06,0,0,1-.89-.42,2,2,0,0,1-.32-1.2,2,2,0,0,1,.32-1.19,1,1,0,0,1,.89-.43,1,1,0,0,1,1,.58h0v-1.85h.48v4.44h-.48Zm-.79.15a1.06,1.06,0,0,0,.31,0,.58.58,0,0,0,.25-.12.55.55,0,0,0,.17-.2.54.54,0,0,0,.06-.27v-1.12a.6.6,0,0,0-.06-.27.65.65,0,0,0-.17-.2,1,1,0,0,0-.25-.12,1.06,1.06,0,0,0-.31,0,.82.82,0,0,0-.65.25,1,1,0,0,0-.23.68v.53a.93.93,0,0,0,.23.67A.83.83,0,0,0,15.56,191.48Z"/><path class="cls-27" d="M20,191.33h0a1,1,0,0,1-1,.57,1.06,1.06,0,0,1-.89-.42,2,2,0,0,1-.32-1.2,2,2,0,0,1,.32-1.19,1,1,0,0,1,.89-.43,1,1,0,0,1,1,.58h0v-1.85h.48v4.44H20Zm-.79.15a1.06,1.06,0,0,0,.31,0,.58.58,0,0,0,.25-.12.55.55,0,0,0,.17-.2.54.54,0,0,0,.06-.27v-1.12a.6.6,0,0,0-.06-.27.65.65,0,0,0-.17-.2,1,1,0,0,0-.25-.12,1.06,1.06,0,0,0-.31,0,.82.82,0,0,0-.65.25,1,1,0,0,0-.23.68v.53a1,1,0,0,0,.23.67A.83.83,0,0,0,19.16,191.48Z"/><path class="cls-27" d="M24.93,191.83v-3.09h.44v.35h0a.81.81,0,0,1,.21-.3.57.57,0,0,1,.39-.13.54.54,0,0,1,.4.14.57.57,0,0,1,.16.35h0a1,1,0,0,1,.24-.35.63.63,0,0,1,.43-.14.52.52,0,0,1,.51.27,1.68,1.68,0,0,1,.13.75v2.15h-.45v-2.07a1.22,1.22,0,0,0-.08-.55.3.3,0,0,0-.29-.15.44.44,0,0,0-.32.12.52.52,0,0,0-.12.38v2.27h-.44v-2.07a1.38,1.38,0,0,0-.08-.55.31.31,0,0,0-.29-.15.45.45,0,0,0-.32.12.52.52,0,0,0-.12.38v2.27Z"/><path class="cls-27" d="M30,191.9a1.36,1.36,0,0,1-.58-.11,1.35,1.35,0,0,1-.45-.33,1.56,1.56,0,0,1-.28-.51,2.5,2.5,0,0,1,0-1.33,1.73,1.73,0,0,1,.28-.52,1.2,1.2,0,0,1,.45-.32,1.37,1.37,0,0,1,.58-.12,1.41,1.41,0,0,1,.59.12,1.16,1.16,0,0,1,.44.32,1.53,1.53,0,0,1,.28.52,2.26,2.26,0,0,1,0,1.33,1.4,1.4,0,0,1-.28.51,1.31,1.31,0,0,1-.44.33A1.41,1.41,0,0,1,30,191.9Zm0-.41a.88.88,0,0,0,.65-.24,1,1,0,0,0,.25-.75v-.44a1,1,0,0,0-.25-.74.88.88,0,0,0-.65-.24.9.9,0,0,0-.65.24,1,1,0,0,0-.24.74v.44a1,1,0,0,0,.24.75A.9.9,0,0,0,30,191.49Z"/><path class="cls-27" d="M32.26,191.42h.91v-2.27h-.91v-.41h1.39v.77h0a1.06,1.06,0,0,1,.36-.57,1.08,1.08,0,0,1,.68-.2h.44v.47h-.59a.92.92,0,0,0-.66.24.83.83,0,0,0-.26.63v1.34h1.2v.41H32.26Z"/><path class="cls-27" d="M37.26,191.9a1.48,1.48,0,0,1-.61-.11,1.35,1.35,0,0,1-.45-.33,1.28,1.28,0,0,1-.29-.51,2.07,2.07,0,0,1,0-1.33,1.75,1.75,0,0,1,.29-.52,1.12,1.12,0,0,1,.45-.32,1.34,1.34,0,0,1,.58-.12,1.31,1.31,0,0,1,.56.12,1.25,1.25,0,0,1,.44.31,1.33,1.33,0,0,1,.27.48,1.68,1.68,0,0,1,.1.6v.23H36.31v.15a1.1,1.1,0,0,0,.06.37.91.91,0,0,0,.19.3,1,1,0,0,0,.3.2,1,1,0,0,0,.4.07,1,1,0,0,0,.54-.15.87.87,0,0,0,.34-.39l.36.24a1.13,1.13,0,0,1-.46.51A1.39,1.39,0,0,1,37.26,191.9Zm0-2.84a.87.87,0,0,0-.37.07,1,1,0,0,0-.29.2.77.77,0,0,0-.19.3.9.9,0,0,0-.07.37v0h1.77V190a1.06,1.06,0,0,0-.06-.37,1,1,0,0,0-.17-.3.8.8,0,0,0-.27-.18A.84.84,0,0,0,37.23,189.06Z"/><path class="cls-27" d="M43.08,191.42h1.08V187.8H43.08v-.41h1.56v4h1.08v.41H43.08Z"/><path class="cls-27" d="M48.06,191.9a1.48,1.48,0,0,1-.61-.11,1.35,1.35,0,0,1-.45-.33,1.28,1.28,0,0,1-.29-.51,2.07,2.07,0,0,1,0-1.33,1.75,1.75,0,0,1,.29-.52,1.12,1.12,0,0,1,.45-.32,1.34,1.34,0,0,1,.58-.12,1.31,1.31,0,0,1,.56.12,1.25,1.25,0,0,1,.44.31,1.33,1.33,0,0,1,.27.48,1.68,1.68,0,0,1,.1.6v.23H47.11v.15a1.1,1.1,0,0,0,.06.37.91.91,0,0,0,.19.3,1,1,0,0,0,.3.2,1,1,0,0,0,.4.07,1,1,0,0,0,.54-.15.87.87,0,0,0,.34-.39l.36.24a1.13,1.13,0,0,1-.46.51A1.39,1.39,0,0,1,48.06,191.9Zm0-2.84a.87.87,0,0,0-.37.07,1,1,0,0,0-.29.2.77.77,0,0,0-.19.3.9.9,0,0,0-.07.37v0h1.77V190a1.06,1.06,0,0,0-.06-.37,1,1,0,0,0-.17-.3.8.8,0,0,0-.27-.18A.84.84,0,0,0,48,189.06Z"/><path class="cls-27" d="M52.77,191.83a.51.51,0,0,1-.4-.14.73.73,0,0,1-.15-.36h0a.87.87,0,0,1-.33.42,1.07,1.07,0,0,1-.6.15,1.12,1.12,0,0,1-.77-.25.85.85,0,0,1-.29-.69.79.79,0,0,1,.31-.67,1.79,1.79,0,0,1,1-.23h.66v-.3a.63.63,0,0,0-.19-.51.77.77,0,0,0-.55-.17,1,1,0,0,0-.51.12.92.92,0,0,0-.32.33l-.32-.24a.87.87,0,0,1,.16-.23,1,1,0,0,1,.25-.21,2.32,2.32,0,0,1,.35-.14,1.79,1.79,0,0,1,.42-.05,1.25,1.25,0,0,1,.87.28,1,1,0,0,1,.32.77v1.71h.43v.41Zm-1.43-.33a1.18,1.18,0,0,0,.34,0,1,1,0,0,0,.27-.12.52.52,0,0,0,.18-.18.46.46,0,0,0,.06-.23v-.51h-.66a1.25,1.25,0,0,0-.63.12.39.39,0,0,0-.2.35V191a.44.44,0,0,0,.17.37A.82.82,0,0,0,51.34,191.5Z"/><path class="cls-27" d="M54.9,191.83l-1.11-3.09h.48l.45,1.29.48,1.4h0l.48-1.4.45-1.29h.47l-1.11,3.09Z"/><path class="cls-27" d="M58.86,191.9a1.48,1.48,0,0,1-.61-.11,1.35,1.35,0,0,1-.45-.33,1.28,1.28,0,0,1-.29-.51,2.07,2.07,0,0,1,0-1.33,1.75,1.75,0,0,1,.29-.52,1.12,1.12,0,0,1,.45-.32,1.34,1.34,0,0,1,.58-.12,1.31,1.31,0,0,1,.56.12,1.25,1.25,0,0,1,.44.31,1.52,1.52,0,0,1,.28.48,1.93,1.93,0,0,1,.09.6v.23H57.91v.15a.9.9,0,0,0,.07.37.75.75,0,0,0,.18.3,1,1,0,0,0,.3.2,1,1,0,0,0,.4.07,1,1,0,0,0,.54-.15.89.89,0,0,0,.35-.39l.35.24a1.13,1.13,0,0,1-.46.51A1.37,1.37,0,0,1,58.86,191.9Zm0-2.84a.87.87,0,0,0-.37.07,1,1,0,0,0-.29.2.77.77,0,0,0-.19.3.9.9,0,0,0-.07.37v0h1.78V190a1.06,1.06,0,0,0-.07-.37,1,1,0,0,0-.17-.3.8.8,0,0,0-.27-.18A.81.81,0,0,0,58.83,189.06Z"/><path class="cls-27" d="M62.44,191.9a2,2,0,0,1-.84-.16,2,2,0,0,1-.6-.44l.33-.29a1.71,1.71,0,0,0,.49.37,1.48,1.48,0,0,0,.63.12,1.15,1.15,0,0,0,.59-.13.41.41,0,0,0,.23-.4.4.4,0,0,0,0-.2.3.3,0,0,0-.12-.13,1,1,0,0,0-.18-.08l-.2,0-.49-.07-.35-.07a1.07,1.07,0,0,1-.35-.14.85.85,0,0,1-.26-.24.76.76,0,0,1-.1-.41.79.79,0,0,1,.35-.7,1.61,1.61,0,0,1,.4-.17,2,2,0,0,1,.5-.06,2,2,0,0,1,.73.13,1.64,1.64,0,0,1,.53.37l-.31.3a1.85,1.85,0,0,0-.14-.14.77.77,0,0,0-.2-.13l-.27-.09a1.94,1.94,0,0,0-.36,0,1.08,1.08,0,0,0-.56.12.43.43,0,0,0-.2.37.42.42,0,0,0,.05.2.37.37,0,0,0,.12.13A.75.75,0,0,0,62,190l.2,0,.49.07a2.41,2.41,0,0,1,.35.07,1,1,0,0,1,.34.13.77.77,0,0,1,.26.25.71.71,0,0,1,.11.41.81.81,0,0,1-.36.71A1.6,1.6,0,0,1,62.44,191.9Z"/><path class="cls-27" d="M68.44,191.42h1.12v-2.27H68.44v-.41H70v2.68h1v.41H68.44Zm1.36-3.37a.41.41,0,0,1-.3-.09.3.3,0,0,1-.08-.21v-.1a.33.33,0,0,1,.08-.22.41.41,0,0,1,.3-.09.39.39,0,0,1,.29.09.29.29,0,0,1,.08.22v.1a.26.26,0,0,1-.08.21A.39.39,0,0,1,69.8,188.05Z"/><path class="cls-27" d="M72,191.83v-3.09h.48v.5h0a.94.94,0,0,1,.12-.22.58.58,0,0,1,.17-.18,1,1,0,0,1,.25-.13,1.16,1.16,0,0,1,.34-.05,1.06,1.06,0,0,1,.78.31,1.25,1.25,0,0,1,.29.87v2H74v-1.9a.93.93,0,0,0-.18-.63.71.71,0,0,0-.55-.21.86.86,0,0,0-.28,0,.69.69,0,0,0-.25.1.52.52,0,0,0-.17.19.46.46,0,0,0-.07.26v2.15Z"/><path class="cls-27" d="M12.15,199a.62.62,0,0,1-.52-.2.75.75,0,0,1-.16-.5v-2h-1v-.41h.76a.25.25,0,0,0,.29-.29v-.81H12v1.1h1.41v.41H12v2.27h1.41V199Z"/><path class="cls-27" d="M14.39,194.59h.48v1.85h0l.12-.22a.77.77,0,0,1,.18-.18.84.84,0,0,1,.25-.13,1.16,1.16,0,0,1,.34,0,1.06,1.06,0,0,1,.78.31,1.25,1.25,0,0,1,.29.87v2h-.48v-1.9a.88.88,0,0,0-.19-.63.67.67,0,0,0-.54-.21.86.86,0,0,0-.28,0,.63.63,0,0,0-.25.1.52.52,0,0,0-.17.19.46.46,0,0,0-.07.26V199h-.48Z"/><path class="cls-27" d="M19.26,199.1a1.48,1.48,0,0,1-.61-.11,1.25,1.25,0,0,1-.45-.33,1.28,1.28,0,0,1-.29-.51,2.07,2.07,0,0,1,0-1.33,1.75,1.75,0,0,1,.29-.52,1.12,1.12,0,0,1,.45-.32,1.34,1.34,0,0,1,.58-.12,1.31,1.31,0,0,1,.56.12,1.25,1.25,0,0,1,.44.31,1.33,1.33,0,0,1,.27.48,1.7,1.7,0,0,1,.1.61v.22H18.31v.15a1.21,1.21,0,0,0,.06.38,1,1,0,0,0,.19.29.88.88,0,0,0,.3.2,1,1,0,0,0,.4.07,1,1,0,0,0,.54-.15.87.87,0,0,0,.34-.39l.36.24a1.13,1.13,0,0,1-.46.51A1.42,1.42,0,0,1,19.26,199.1Zm0-2.84a.87.87,0,0,0-.37.07,1,1,0,0,0-.29.2.77.77,0,0,0-.19.3.9.9,0,0,0-.07.37v0h1.77v-.06a1.06,1.06,0,0,0-.06-.37,1,1,0,0,0-.17-.3.8.8,0,0,0-.27-.18A.84.84,0,0,0,19.23,196.26Z"/><path class="cls-27" d="M26.55,199a.62.62,0,0,1-.52-.2.75.75,0,0,1-.16-.5v-2h-1v-.41h.76a.3.3,0,0,0,.22-.07.26.26,0,0,0,.07-.22v-.81h.46v1.1h1.41v.41H26.35v2.27h1.41V199Z"/><path class="cls-27" d="M28.66,198.62h.91v-2.27h-.91v-.41h1.39v.77h0a1.06,1.06,0,0,1,.36-.57,1.08,1.08,0,0,1,.68-.2h.44v.48H31a1,1,0,0,0-.66.23.83.83,0,0,0-.26.63v1.34h1.2V199H28.66Z"/><path class="cls-27" d="M33.66,199.1a1.48,1.48,0,0,1-.61-.11,1.35,1.35,0,0,1-.45-.33,1.28,1.28,0,0,1-.29-.51,2.07,2.07,0,0,1,0-1.33,1.75,1.75,0,0,1,.29-.52,1.12,1.12,0,0,1,.45-.32,1.34,1.34,0,0,1,.58-.12,1.31,1.31,0,0,1,.56.12,1.25,1.25,0,0,1,.44.31,1.33,1.33,0,0,1,.27.48,1.7,1.7,0,0,1,.1.61v.22H32.71v.15a1.21,1.21,0,0,0,.06.38,1,1,0,0,0,.19.29,1,1,0,0,0,.3.2,1,1,0,0,0,.4.07,1,1,0,0,0,.54-.15.87.87,0,0,0,.34-.39l.36.24a1.13,1.13,0,0,1-.46.51A1.39,1.39,0,0,1,33.66,199.1Zm0-2.84a.87.87,0,0,0-.37.07,1,1,0,0,0-.29.2.77.77,0,0,0-.19.3.9.9,0,0,0-.07.37v0h1.77v-.06a1.06,1.06,0,0,0-.06-.37,1,1,0,0,0-.17-.3.8.8,0,0,0-.27-.18A.84.84,0,0,0,33.63,196.26Z"/><path class="cls-27" d="M37.26,199.1a1.48,1.48,0,0,1-.61-.11,1.35,1.35,0,0,1-.45-.33,1.28,1.28,0,0,1-.29-.51,2.07,2.07,0,0,1,0-1.33,1.75,1.75,0,0,1,.29-.52,1.12,1.12,0,0,1,.45-.32,1.34,1.34,0,0,1,.58-.12,1.31,1.31,0,0,1,.56.12,1.25,1.25,0,0,1,.44.31,1.33,1.33,0,0,1,.27.48,1.7,1.7,0,0,1,.1.61v.22H36.31v.15a1.21,1.21,0,0,0,.06.38,1,1,0,0,0,.19.29,1,1,0,0,0,.3.2,1,1,0,0,0,.4.07,1,1,0,0,0,.54-.15.87.87,0,0,0,.34-.39l.36.24a1.13,1.13,0,0,1-.46.51A1.39,1.39,0,0,1,37.26,199.1Zm0-2.84a.87.87,0,0,0-.37.07,1,1,0,0,0-.29.2.77.77,0,0,0-.19.3.9.9,0,0,0-.07.37v0h1.77v-.06a1.06,1.06,0,0,0-.06-.37,1,1,0,0,0-.17-.3.8.8,0,0,0-.27-.18A.84.84,0,0,0,37.23,196.26Z"/><path class="cls-27" d="M40.8,199.08a.45.45,0,0,1-.34-.1.32.32,0,0,1-.1-.25v-.11a.34.34,0,0,1,.1-.26.45.45,0,0,1,.34-.1.47.47,0,0,1,.35.1.38.38,0,0,1,.1.26v.11a.36.36,0,0,1-.1.25A.47.47,0,0,1,40.8,199.08Z"/></g></g></svg>