<svg id="Layer_1" data-name="Layer 1" xmlns="http://www.w3.org/2000/svg" xmlns:xlink="http://www.w3.org/1999/xlink" viewBox="0 0 234 250"><defs><style>.cls-1{fill:none;}.cls-2{fill:#6c613c;}.cls-3{fill:#799b56;stroke:#000;stroke-miterlimit:10;stroke-width:0.5px;}.cls-4{fill:#b7c49d;}.cls-5{fill:#0c0d0d;}.cls-6{fill:#78543c;}.cls-7{fill:#4f3a25;}.cls-8{clip-path:url(#clip-path);}.cls-9{fill:#0f0f0f;}.cls-10{fill:#768b49;}.cls-11{fill:#b5becb;}.cls-12{clip-path:url(#clip-path-2);}.cls-13{clip-path:url(#clip-path-3);}.cls-14{clip-path:url(#clip-path-4);}.cls-15{clip-path:url(#clip-path-5);}.cls-16{fill:#050605;}.cls-17{fill:#7d5742;}.cls-18{isolation:isolate;}.cls-19{fill:#f8f8f8;}</style><clipPath id="clip-path"><rect class="cls-1" x="55.21" y="99.73" width="21.54" height="12.81"/></clipPath><clipPath id="clip-path-2"><rect class="cls-1" x="138.79" y="104.9" width="21.54" height="12.81"/></clipPath><clipPath id="clip-path-3"><rect class="cls-1" x="154.79" y="113.9" width="21.54" height="12.81"/></clipPath><clipPath id="clip-path-4"><rect class="cls-1" x="81.21" y="89.11" width="21.54" height="12.81"/></clipPath><clipPath id="clip-path-5"><rect class="cls-1" x="0.18" y="156.87" width="90.32" height="81.4"/></clipPath></defs><path id="Path_1571" data-name="Path 1571" class="cls-2" d="M119.76,147.9l3.15,5,0,1.32-1-.77-1.34-.44.2,2.16-1.13,1.2-.66,2.51-.57,2.53h-1.75L115.46,160l-.43-1.68L113.38,157l1.22-.94.21-1.79-2.31-2,1.38-1h1.62l-1.13-2.88-1.7.39-.11-1.35,1.64-1.15,1.5-.39.43,1.8,1.16.64,1.89-.19Z"/><path id="Path_1572" data-name="Path 1572" class="cls-3" d="M138.49,106,166,137l-.08-1.72.47-1,1.84.61.08,2,.63-.84,2-1,.43,1.16-1,.89-.64,1.17,1.34.33.43,1.33-1.13,0-.52.88.88.72.47,1.95,1.85.12v-2.45l1.57-.05-.24.88,2,1.22-1.53,3.61-1.86.66,2.61.94,1.71,1.66-1.93,1.55-1.51-.11-.73-.38-.25-1.22-1,0L170,151.44l-1.33-.72.3-1.22.7-1.33.76-1.71-.65-1.55-1.75.6-1.16-1.27.48-1.17-.71-1.16.36-1.55-1.4-.05-1,.78L164,143l-1.31.83-1.79.22-1.11-1.11-1.42-2,2.37-.44,2.08-.34.7-.94-1,.11-2,.17-2.06-.89,4.39-.94.09-1.45.07-1.17,1.45.73.31,1.27Zm9.7-16.28,1.75-2.26,2,1.48-.6,1.2-.59,1.12.33,1.41,2.35-.22.51,2.68-.73,1.47-1.57.21-.41-1-.4-1.2-1.64.35.75,1.7-1.08.63-1.69-.28-.62-1.06-1.41-.91-1.36.84,1.23,2.18.05,1.55-1.65.35-2.19-.35.73-1.13-1.25-1.61-2.9-.7L166,125l1.7.35.17-1.55,1.89,1.13,1.85-.15-.74-2,1-1.19,1.62.7,2.2.21Zm-95.5-1.85.08-2.17,2.31-.19,1.93,1.74-.58.86,2.18,1.68-.78,2.65-2.24-1.11-1.36-.62-.26,1.61,2.1,2,1.12.62-.89,1.48L82.65,127l-2.3-1.85-.7,1.54-.08,1.67-.26,1-2.93.07-2.18-.5.14-1.55,1.87-.37,1.38-.18L76.42,125l-.82.93-.5-.66-.21-.68.81-.42.71-.06.72-1.41-.61-.76.16-.89,1-.75,1.68.25Zm5.47-30.32-1-1.31,4.13,1.63L88.13,90l-1.7.5-.38,1,1.5.5.87.75.68,1.3L89,95.26l-.89.38-1.52,1.3-.82.88-1.2.88L83.42,98,81.8,96.88l-.65,1.31-1.32.44L78.14,97.5l-.87-1.12-.88.69-.7,1H74.63L71.94,97l1.45-1.61,1.83-1.57,1.45.25,1.12.94,2.12,1.43,1-.62.26-1.75L79.19,93l-2-.31L75.86,92l.72-2.48,2.15-1.38L80,89.71l1.39-1.62,1.32-.44.18,2.06Zm56.1-12.06.31-2,.41-1.45,2.7.5,1.73,1,1.43,1.68-1.09,1.68-2.35-1.06-.84-.67-.48,2.13-1.42,1.23-1.35-.28-1.73-1-1.29.22-1.14.39-.3-2,2.05-1.62,1.84,1.06.66.9Zm-51.39,3-.16-1.1L91.51,77l2.36-.49.5-1-.29-2,1-.8,2-.57.42,1.55,1.64.53,2.66.4.11,1.45.2,1.81-1,1.15-1.37-.62-2.38-1.59-.45.93,1.18,1.41-.64,2.29L94.8,81l0-1-1.91.4-1,.57Zm32.94-15,1.75-.22,0-1.62.91-.56,3.47,1.51-.65,1.62,1.4.34,1,1.12.08,2.07L129.11,70l-.65-2.13-1.19,1.39-1.79-.9.36-1.56,1.2-1-3.15.22Zm-9.12-25.77-2.48,2-1.3,2.15-2.22.67-1.75.41-1.35,1.39.74,2.15,2.77.15,2.3.67-.73,1.53-2.36-.05-1.66,1.54,5.84.77,1.48,1.28-3.65.66-1.24.1-2.07,1.7.7,1.58,2.19.89L110,60.5l-1.45,1.58-5-.72-1.38.2L100,59.88l-.29-2.4-.85-1.69,2.31.51,1.11,1.28,1.35-2-2.17-3.47-1.13.71-.73.72-1.73-1.23-.66-1.69-.85-2-1,2.41-.12,2-2.09-.92-2.41-1-1.29,1.13L90.58,54l-1,1.13-1.4,1,3.17.72,1.06,2.7L90,61.16l-.78.77,0,1.73-.94,1.74,1.53.2,3,.58.49,2-2,2.09L89.12,72l-1.65,1.64-3.66.71-2.85-1L81,71.8l2.21-.16,2.26-1,.59-2.19L84.2,66.69l-1.85-.92L82,63.88,78.48,63,77,64.81l-4.15-.41.06-1.84-1.22-1.49.82-.92,1.94,1,1.95.41L77,59.74l-.86-1.59-2.66-.56-2-.26-.55-.77-2.06.21-.07,2.3-1.4,2.71-1.89.4-1.4.21-.36-1.69-.75-2.2-1.23.41L61.41,61l-1.65.92L58.43,60.8,57.52,59l-.92.66L55,59.52l-.77,1,.3,1.89-.44,2.62-3.65.82-1.09,1.68L53.7,68l1.06,2.25L53,71.08l.2,1.58,2,1.68,1.89-.87-.19-2.65,2.09.51.87.92,0,1.18-.57,1.16,1.8-.86.6,1.48-1.39.51-1.28,1.22,1.38.78,1.9-.61,1-1.27L65.1,79.1l-2.52,1.68-.56.76-1.74.56,1.51,3.66,1.27.56,2.67-1.12,2.6.91,1,1.58,1.49-1.22,2.32-2.8-2.08-1.52,2.26-1.84,1.37,1.33,1.16,2.24-.68,2-.88,3-3.63-.16-.38,2.34-2.3,0-1.58-.91L63.13,92l-3.07.72-.48,2.43,2,4.31-3.16.41-2.63,2.78-3.31-1.36-1.23-.91-1.13,2.12-1.77-2.94,1.84-1.12,2.19.81,1.95-.5L56.39,97l-2.17-4-2,0,.06-1.87-1-.15-1,1.31-2-3.14-.4-1-4,.51.66,2.64-3.37-.51-1.44-2-3.32.76L36.29,91l1.11,2.85-1,2.29-3-1.42-.82-.11.86,2.74,0,1.37-1.69.76,1.38,1.37L36.39,102l1.78,2.7-2,.31,2.28,1.76-.67,2-3.51-.45-.83,1.92L34.72,112l1.53.45.91,1.72,1.94-.71L41,111.21l2.19.35,2.13,1.62,2.35-1,2.52-3.69,2.58,3.69-1.18,2.43L50,113.8l-2.3,2.38,3.71,1.62.76,1.31-.57,1.57-4.93-2.19.45,1.94,1.21,2,1.48,1-1.29,1.52-2.69.45-1.34,1.81-2.55-.65-1-1.61,1.52,0,.12-3.23-.35-2.47-4.07-.51-1,1.67-.47,3.38-.93,3.28-2.14,1.7-2.14-.2-1.63-1.18-3.16.19,1.46,4.53,4.42.86,1.83,1.92L33,136.52l-2.08,0,.85,2.21,4.94-1.36.65,3,1.38.46,2.45-2.77-.8-3.82v-2.37l2.44-.55,2.89,4.58-.93,2.92-1.69,1.6-2.56,2.82,1.78,2.54-1.33.69-1.62.46,2.43,1.71,2.63,1.39L45,150l3.21-.39.48-4-2.58-2.35,1.33-1.91L53.12,143,54,139.7l.48-3.37-1.61-2.6,2.18.5.8,3.72,2,2.46L59.11,136l1.69-1,2.93,2.86.5,2.26-8.11,3.17L54.73,146l1.82,2.25-3.11.75-.51,1.08,1,1.65,1.4,3.25.65,1,1.52,1.1,1.38-1.9.74-3.71L60.7,150l2.32,2.4.7,2,1.72.7.48,3.92-2.41.59h0l-3.64-.2-.93.9-.73,3.15,1.71,1.91.9,2L64,168.68l.88-1.11-1.38-1.7.26-1.45,1.89-1L67,164.66l.24,1.62,2,.65.26-1.7-.48-1.86,2.06-.32,1.78,2.51,2-.33.34-1.22-.56-1.69L74,160.86l.27-1.94,1.64-1,1,1.54,2.31-1,0-1.38,0-1.38-1.81-.57-1.71-.8-1.72-.82-.15-2.51,2.73-1.38h1.55l.46-.94.46-.94-2.45-1.38-.73-1.95.34-1.87h1.48l1.74-.57.67-1.54.71-.25.71-.24.47-.17.73,1.87,1.23.89L82,144.05l-1,1.79,1.39,1.38,2.39-.48.27-2.36,1.31-.16.4,1.13.2-.66.2-.67,1-.76,1.63-.12.1-1.24-.56-.68-2.16.28-2.71-3.2.27-1.79-1.1-1.29,1-1.42,1.82.13.21-1.8,1,1,.77,1.15.84.39-.67,2.12.7,2.18,2.22-1,.6-1.48.92-.64,1.17.13-.3-2.57.08-1.29,1-.39L96,129.39l1.51-.61,1.22,1.68-1.25,1,.71.83,2.93-.12,2,.38.75,2.38-.29,1.86L102.45,139l-1.43-.13-.5-2.05-3.26.83,1.54,2.12,1.4,3.28.1,2,1.8,1.73,1.62.2.24,1.34-.92.77-1.44,1.15.18,2.05.9.9,1.17-.32,1.17-.32,1.72-2.24.58.12.59.13.83,1,.82,1,1.53,3.19.08.15,1.66,1.41.55-.41,1.22-.93.21-1.79-2.31-2,1.38-1h1.62l-1.13-2.88-1.7.38-.11-1.34,1.64-1.16,1.5-.38.43,1.79,1.16.64,1.89-.19.58-.3.79-.4-.57-1.22-1.55-1.15.41-.9,1.11.65,1.45-.1.51,0,.38-1.12.3-1.63-1.21-1.39-1.28.11-1.28.11-.44-1.58-.13-1.19-.39.47-2.06,2.43-2.16.54-.52-1.81,2.06-.68-.3-1.53-2.23-1.14,1-1.42,2.44-1-.85-2.08,1.93-.4,1-2.21L118,127.9l.92-.25.92-.25,1,.14,1,.13,1.65-.36.85,1.63.1,1.77,0,.81-.06.95,1.22,1-.38.73.41.52.4.52,1.33-.09,1.32-.09.55-1.85-.13-1.22,1.87,1,.33,1.95.3,1.49-.39,1.36-1,.45-1.21.86.35.3.92.78h1.51l.12.9.21.9.77.41,1.19.27,1.16-1.26.15-1.09-1.22-1,.48-1.31,1.79-.5.75,1.36,1,.13,1,.14,1.15-.73-.15-1.76.68-.13,1.1.09.8-1-.75-1.86-2.06-.26-.79.76-1.19.55-.78-2.36.3-1.4.92-.55,1.27.46h1.42l.94-1.72-.2-1.81.78-.27,1,1.85,1.15-.5,1.45.82.81,1.3.12.76.21,1.28-.91,2.49-1.15.72-1.24.33-.46.72-.25.53.44,1.31,1.27.32.17.81,1.36.59,1.56-.41,2-4.61,1.77,1,.52,1.4.2,1.76-.07,1.94-1.34.45-.6.18.27,1.19,1.17.9,1.17.9-.06,1-1.06.81-.24.95,1.25,1.35.21,1.16-.47,1.22-1.24.4-.84-1.53-1.39.9,1.14,2.25v0l.39,1.39-2,.55-3-.05,0,1.76,1.57,1.92.71.82h0l1.34-.22.54-2.47,1.29-.5.83,1.67-1.84.85-1,1.26-.24,1.31.23.19,1.84,1.49.55.07,2.14.25,1.29-1.08-.34-1.13h2.23l1.68.41.92-.93.24-.25-1.37-2.55-.89-.72,1.94-1.89,3.11-.5,1.09.54.66-1.35.61-.83.18-.25,1.28.27,1.29,1.4.06,1.88-.88,1,1.76,1-1.12,1.44-1.78.18-.78.08,1.51,2.13.58.83,1.13.82.42,1.74,2.19-.17.92-.59.22-1.84-1.62-1.26,2.53-.85,1.16,1.12.65,1.62.2,1.7,0,1.22,1.37.54,1,.18,1.88-.36.72-1.88.29-.86.95.18,1.66,1.57,1.64-.05,1.25-.89.77-1.75-1.57-1.4-.39,1.08-2.76-.39-.49-.94.61-.85,1.2-.36.39-1.58-.2-1.48-1.72-.31-2.08-1.35-.07-1.44,1.94-2.67,2.26.22.47,2,.34,1.22,1.74.36.93.94-.25,1.5,2.91.15-.33,2.08-.32,1.15.42.86.42.86,2.34-.5.46,2.44.27,1.07,2.09.79,1.17-.21,1.43-2.08-1.37-.51,3.36-.28,1.83-.79-1-2.37L199,160l2.62-.22,2,1.08,1,.28,1.47-.65-.08-3.16-.93-.71-2,.86-1.6-.07.18-1.23,1.11-1,.56-2-2.67-1.44-1.35,1.65-1,1.08-2.23-1.52,1.44-2.15-.77-1.95-3-.72-1.35,1.52H191l-.77-1.52,0-1.73-1.07-1.51-.68-.18-.7-.18-2.27.5-1.3-.65-.63-1.44-.1-2-2.31-1.51.11-1.74,1.18-.5,2.59,1.87,2.31-2,1.33-.44,2.35,2.89-.76,1.52.47,1.94,2.25.8.11,1.73,1.91-1-1-3.46.56-2.09,2,.64,1.06,1.52-.12,2.31,2.27-.87.31-1.08,1.13,1.81,1,1,1.09-2.89-1.57-1.88-1-.65,2-1,2.57-.53.34-1.95-.17-2.17-.69-2.1-1-.43-1.22,2.46-1.22-1.31-2.11-.5-.2,2.82-1.33.58-.7-1.88.48-1.45-.62-1.95-1.66-1.23L194,129l-.91,1.95h-2l-1.05-2-.31-2.61-2.62-1,.2-1.45.44-1.78-1.12-1.54.34-2.63,2.49-.11,2.77-2.76,1.25,1.21-.61,1.43,4,.17,1.22-.28-.29,2.63.71,2,1.87,1.9,2,1.48.47-3,1.18-.92.32-1.49-1.77-1.2.43-1.09,1.11-.34,1,.23.6-1.15-1.36-1.08-1.05-3.34-1.75-.58-2.75,1-3-.18-1.4-2.29-.54-2,2.28-.79.54,1.72,1.37.52,2.5-.46.5-1.67-1.78-.79,2-.25,1.93-.85.26-1.46-.7-2.19.45-2.19-2.06-.86-.78,1.21-1.8.05,0-1.32-2.55.35-.79,1.49-.92,2.3-2.48-.46-1.69-2.3-1.49,1.67-.37,1.43L186,102.22l-1.84-.63-1.2,2.37-.44,1.83-.56,1.73-1.21-.06-1.53-1.61-1.39-2.75-1.7,1-.3-2.41,2.09-.75.51-2.07L178,97.4,181,96l2.59,1.34,1.81-.75.79-1.62.86.47,1.33.34,1-1.33,1.1-.17.74,1,2.2.4-.19-2.24-1.89-1,.91-1.64,1.73.06-.24-2.31L191.46,87l-1.34.35-2.27.4L185.37,87l1.49-1.74,1.1,0,.87.28,1.17-.91.32-1.62-1-1.85L189,80l.36-.93h-2.73L186,77l0-1-1.25-1.85-2,.87-1.31,2.31-.34,2.42-1.37,1.39-2.42-.81L178.5,82l2.28,2.08.3,2.19-1.23,1.15-3.26.4-.15-1.27.83-.69-.48-2.43-1.71-1.84-2.6-.52-.6.75L173,85.91l-.67,1.68-2.17,1.32-.79-1.75L166,86l1.24,2.42.49,3.14-1.91,1.59-1.5-.45-.42-2.32-3.22-1.78L158.51,90l-1.26,1.45-1.69-.36,2.55,5.58-2.89.17-1.92.23,1.91,3.44.32,2.66,2.62.36.12-2.61,1.59.51-.36,2.29.21,2.05,2.91.51,3.68-1.88-.66-3.62,1.84-.58,1.82.36-.14,3.48,1.65,1.59.95-4.05,2.58,2.68.28,4.34-1.06,1.94-1.44-1.24-1.27-2-2.66,2,2.41,3.48-2,.58-2-.73-1.47.62,0,1.82,1.6.78,2-.28.21,2.35-1.45,1.83L166,118.55l-.74,2.79-1.51.34-2.5-1.6,1.42-1.93.6-1.59-1.63-2.23-1.42-1.14-1.07-1.6.21-1.88-1.51-3-1.32-.4-.73,2.63,1.06,2.34-1.58,1.19h-4.09l-2.58-.62-.32,1.93,1.71,1-.2,1.88-.78,2-3-.46-.49,1.65-1.42-1.3.43-1.43,1.29-1.37-1.46-2.56-1.85-.57-2.12-.74-1.54-1.08,2.11-2.86L138.5,106l-1.59,2.51-1.29,1.43-3.34-.11-2.36.17,2.33-1.43.41-.75-2-2.17-2.51,1.83.15-2,1.85-1-.38-1.26-1-.85,1.93-1.43,1.21-.12,1.59,1.72,1.39-.69.79,1.49-.14,1.88,3,.74,1.56-.34.54-1.31L139,102.11l.79-2.12,1.9-.28,1.16,3.14,3.46.29.77-1.26-.67-1.37,4.27-.14,2.14-.46-3.57-4.63-.6-1.83,3.41-.34,1.31.63,1.56-.6-.12-.74.11-1.1-.38-.8-.39-.19.49-1.1,1.18-2.93,1,.45.61,1.16,1.36-.2.76-1.13-.39-1.69-.8-1.62-.21-1-.63,0-.24-.62,1.51-.2.63-.3v-1l-.61-.9-.51-.43,1.41-.56.48.31.72-.74.64,1.2-.39,1.1.72.82,1.8-.28,1.2.06,0,1,1.29.64,1.55-.53.54-1.5-.58-1-1.19-.34-.05-2,1.16-1.3,1.73,1,.55,2.1,2.24-.67.63-1.6,2,.78.8-1.18-.17-1.1-.56-1.54.82-2.38.73-.45.34-1-3.34-1.5L173,69.59l-1.06.77-.8-.86-1.55-.36-1.43.59-1.78.67-2-.41-.62-1.13,1.48-1,1.22.41,1.51.27,1.15-.9.12-1.6,1.29-.68-.11-1.55-1.89-1.13-1.4-1.09.33-.86.63-1.73-1.87-.19-1.61.82-.12,1.64-1.36-.37-.8-1.13-1.14-.46-1.65.73.42,2.14H157.7l-.9,1.59,2,1,.39,1.41-2,2.81-2,.36-.68-2.81-2.15.45.43,1.23-1.33,1-.76-.9.18-2.55-1.51-.09-1.38.55-2,.13L146,64.45l2.41.5.84-1-1.44-1.41-1.76-1L144.84,59l1.06-.67,1.09.18,1.08,1.14,1.81,1L153.4,60l-2.32-3.41-.92-2.14,1.47-1,1.73.32-.3-1.93-1.69-2.73-1.32-.32-.57,1.09-1.12,1.23-.81,2.55-1,.14-1-1-.82-.46-1.24.55-.62-1.36,1.74-.69,1.47-2,2.25-.68L148,46.4l-1.44-.82-2.26.9-1-.59-1.09-1.79.16-1.14-2.38.18-.36,2.37.48,1.73-3.78,1.87-1.42.78,1.66,1.92,1.68.86-.91,2.42-2.26-.3-1.27-.86-.51-.64-.46.83,0,1.76-1.36.41-.67-.1,1.1,1.57,1.63.57-2,2.08-1.91,1.31-1.49-1.28.28-1.5-1-1-1.23-1.06-1.78.38-.59.58-.2-1.86.21-1.69-1.79-.1-1.29.36-.87-2.34,3,0,.92.86,1.41-1.73.4-1L127,51.44l1,.44,1.27-.86L129,47.9l-.1-1.5-2.06,0-1.19-.06L125,45.09l0-2.28L123.84,41l-1.09-.15-.35-1-.27-.68L120,39.07l-1,.32,1,1.67.82,1.31-2.21,1.57-1.41-.38-.35-2.15-1.44-.35-.41-.67-.08-1.45Z"/><path id="Path_1574" data-name="Path 1574" class="cls-2" d="M174.34,104.23l.28,4.34-1.06,2-1.43-1.24-1.28-2-2.66,2,2.41,3.47-2,.58-2-.72-1.47.62,0,1.82,1.6.78,2-.29.21,2.35-1.45,1.84L166,118.55l-.74,2.79-1.51.34-2.5-1.6,1.42-1.93.6-1.59-1.63-2.23-1.42-1.14-1.07-1.6.21-1.88-1.51-3-1.32-.4-.73,2.63,1.06,2.34-1.58,1.19h-4.09l-2.58-.62-.32,1.93,1.71,1-.2,1.87-.78,2-3-.46-.49,1.65-1.42-1.3.43-1.43,1.29-1.37-1.46-2.56-1.86-.57-2.11-.74-1.54-1.08,2.12-2.86-2.39-2,1.56-.34.54-1.31L139,102.1l.78-2.11,1.91-.29,1.16,3.15,3.45.28.77-1.25-.67-1.38,4.27-.13,2.15-.46-3.56-4.64-.61-1.83,3.41-.34,1.32.63,1.55-.6-.11-.74.11-1.1.61-.22,2.54,5.58-2.88.17-1.92.23,1.91,3.44.33,2.66,2.61.36.12-2.61,1.6.51-.36,2.29.21,2.06,2.91.5,3.68-1.88-.66-3.62,1.83-.58,1.82.37-.13,3.47,1.65,1.6.94-4.05Z"/><path id="Path_1575" data-name="Path 1575" class="cls-4" d="M103.72,147l.25,1.34-.92.77-1.44,1.16.18,2,.9.9-.25,1.46-1.52,1.56-2.08-.07-1.78-2.41.82-1.7-.2-1.28-3.44-2.06-1.22.85-.37,1v.71l-3-3.87.06-4.29.09-1.23-.56-.69-2.17.28-2.72-3.2.28-1.8-1.1-1.29,1-1.41,1.82.12.21-1.8,1,1,.77,1.15.84.39-.67,2.12.7,2.18,2.22-1,.6-1.48.92-.64,1.17.13-.3-2.57.08-1.29,1-.38L96,129.38l1.51-.61,1.22,1.68-1.25,1,.71.84,2.93-.13,2,.39.76,2.37-.29,1.87L102.45,139l-1.43-.13-.5-2.05-3.26.83,1.54,2.12,1.39,3.28.11,2,1.8,1.73Z"/><path id="Path_1576" data-name="Path 1576" class="cls-2" d="M86.07,120.75l-.77,2.66-2.24-1.11-1.37-.62-.26,1.61,2.1,2,1.12.62-.88,1.48L82.65,127l-2.3-1.85-.7,1.54-.08,1.67-.26,1-2.94.06-2.18-.49.14-1.55,1.88-.37,1.37-.18L76.42,125l-.82.93-.5-.66-.21-.68.81-.43.71-.05.72-1.41-.61-.76.16-.89,1-.75,1.68.25.83-1.67.08-2.17,2.32-.18,1.92,1.73-.57.86Z"/><path id="Path_1577" data-name="Path 1577" class="cls-4" d="M63.72,137.85l.5,2.26-8.1,3.16L54.72,146l1.82,2.26-3.11.75-.51,1.07,1,1.66,1.4,3.25.65,1,1.52,1.1-1.38,1.49-.89.35-2.25-1-1.4,1.15.19,2.18-1.94-.16-2.17-1.3-2,.2-1.93-1.3-.89-1.3L41,157.1,39.33,159l-.9,3.13L37,161.72v-.62l.16-1.29-.53-1.54,1.12-1-2-1.79.63-1.88,2.48.5,1.25-.8-.3-1.92.66-1.38,1.2,0,.9,1,1.55.65,1.24-.5L45,150l3.21-.38.48-4-2.58-2.36,1.33-1.91,5.69,1.7.88-3.32.48-3.37-1.62-2.61,2.19.5.79,3.72,2,2.47,1.29-4.37L60.79,135Z"/><path id="Path_1578" data-name="Path 1578" class="cls-5" d="M70.87,103.22a45.29,45.29,0,0,0,3.35,5.39,10.35,10.35,0,0,0,8.19,4.18c3.39.2,6.16,2.29,8.35,5.86a2.4,2.4,0,0,1,.37,1.1,31.21,31.21,0,0,0,1.79,8c2.73,7.37,6.93,12.54,12.41,15.73,3.1,1.8,4.93,5,5.63,9.53a43.34,43.34,0,0,1,.15,8.82,12.72,12.72,0,0,1-.68,3.71c-.68,1.83-1.91,2.33-3.18,1.26a7.9,7.9,0,0,1-1.94-3c-1-2.23-1.8-4.61-2.68-6.93C100,150.13,96.5,144.72,91,142.21a13.39,13.39,0,0,0-6.1-1.57,4,4,0,0,0-3.5,2,3.36,3.36,0,0,0,.06,3.72,4.17,4.17,0,0,0,2,1.59c1.14.41,2.3.72,3.44,1.17a12.16,12.16,0,0,1,4.68,3.54c-.34.28-.6.18-.85.22-1,.15-2.08.22-3.1.46a18.58,18.58,0,0,0-7.36,3.51c-.41.33-.69.24-1-.22-.61-.88-1.25-1.71-1.92-2.51a20.79,20.79,0,0,0-5.67-5.23c-.72-.39-1.22-.11-1.48.78a1.6,1.6,0,0,0,.6,2c2.62,1.45,4.63,4.05,6.65,6.65.34.45.34.75,0,1.12a20.89,20.89,0,0,0-2.81,3.55,1,1,0,0,1-1,.56c-1.06,0-2.13,0-3.2,0-.49,0-.84.25-1,.93-.26,1.09.19,2,1.06,2,1.3,0,2.6,0,3.89,0a1.62,1.62,0,0,0,1.49-1,16.11,16.11,0,0,1,1.89-2.67c4.58-5.32,9.91-7.33,15.8-6.95a1.13,1.13,0,0,1,.92.56,17.41,17.41,0,0,1,2.53,6.74,45.61,45.61,0,0,0,1,5.67c.47,1.63,1.12,3.11,2.43,3.57,3.37,1.19,6,3.88,8.38,7.31a3.73,3.73,0,0,1,.65,1.45,39.1,39.1,0,0,1,.56,4.94c.31,5.52.22,11,0,16.56a150.2,150.2,0,0,1-1.39,15.85c0,.23.08,1.06-.41,1.47-.67.56-2,0-2.49-.2-1.53-.57-3.6-.19-7.73.57a26.94,26.94,0,0,0-9.89,3.33,22.93,22.93,0,0,0-6.32,5.7,125.3,125.3,0,0,1,14.73-1.05q3.16,0,6.12.08s0,.05,0,.08a2.38,2.38,0,0,0,1.06.41c1.24.22,2.54.93,3.77,1.28a30.05,30.05,0,0,0,3.86.8,28.28,28.28,0,0,0,5,.25c3.28-.1,16.09-.81,33.49-2a17.46,17.46,0,0,0-9.66-7.44,12.47,12.47,0,0,0-6.44-1.73c-2.56.07-5.14-.34-7.69-.08a.61.61,0,0,1-.75-.6c-.41-2.2-.8-4.41-1.1-6.65-.39-2.94-.71-5.88-.92-8.85a89.28,89.28,0,0,1-.07-12.13c.24-3.8,1.59-6.4,4.12-8a44.09,44.09,0,0,1,5.28-2.86c3.36-1.51,6.78-2.75,10.1-4.45a13.14,13.14,0,0,0,4.94-3.76,3.19,3.19,0,0,1,1.35-1.09,34.68,34.68,0,0,0,5.9-3.28,27.14,27.14,0,0,0,4.67-4.79,23.76,23.76,0,0,1,10.19-6.7h0a1.51,1.51,0,0,0,1-1.87c-.17-1-.72-1.34-1.59-1a28.72,28.72,0,0,0-7.89,4.36c-.16.12-.33.5-.53.22s0-.48,0-.73a3.74,3.74,0,0,1,.12-.45,34.91,34.91,0,0,1,4.24-9.93,1.89,1.89,0,0,0,0-2.41c-.58-.64-1.1-.48-1.71.55a47,47,0,0,0-2.59,5,30.72,30.72,0,0,0-2.79,10.34,1.61,1.61,0,0,1-.43.93,18.48,18.48,0,0,1-7.15,5.88c-.12.06-.24.28-.37.07s0-.36.07-.53c.54-1.52,1.1-3,1.62-4.56a129.28,129.28,0,0,0,3.64-12.64c.52-2.33-.84-4.32-2.55-3.77-2.2.71-3.77,2.61-4.41,5.55a33.78,33.78,0,0,1-5.45,12.64c-1.49,2.09-3,4-5.22,4.69-.62.2-.65-.1-.64-.76,0-1.87.1-3.73.06-5.59a5.35,5.35,0,0,1,1.25-3.84,47.71,47.71,0,0,0,5.26-7.66c.06-.1.12-.2.17-.3a1.94,1.94,0,0,0-.06-2.22c-.53-.58-1.09-.5-1.57.33a61.16,61.16,0,0,1-5.81,8.39,6.68,6.68,0,0,0-1.35,4.18q-.08,3.8-.11,7.61c0,.58-.13.83-.57.95-2.49.71-5,1.34-7.45,2.26-1.1.41-1.44-.15-1.57-1.57-.23-2.45,0-4.88,0-7.31a7.79,7.79,0,0,1,1.75-5.39,60.32,60.32,0,0,1,6.07-6.21,44,44,0,0,0,5.76-6.29,19.25,19.25,0,0,0,3.12-7.69c.11-.56.12-1.21.61-1.53,3.77-2.54,7.59-4.85,11.88-5.16.64-.05.92-.64,1-1.44a3.53,3.53,0,0,0,0-.86,2.53,2.53,0,0,1,1.18-2.62,7.16,7.16,0,0,1,2.79-1.08,23.76,23.76,0,0,1,8.45.16c.8.13,1.28-.32,1.38-1.26,0,0,0-.06,0-.08a1.36,1.36,0,0,0-1.06-1.59,20.93,20.93,0,0,0-2.84-.43c-3.22-.25-6.43-.29-9.49,1.49-.14.08-.27.29-.4-.05a4.26,4.26,0,0,1,.54-3,40.3,40.3,0,0,0,4.76-5.74,19,19,0,0,0,3.42-7.78c.15-.94-.14-1.72-.77-2s-1.12.27-1.29,1.16a13.76,13.76,0,0,1-1.5,4.18,36.67,36.67,0,0,1-6.51,8.31,2.82,2.82,0,0,0-.84,2.25c.05,2.18,0,4.37,0,6.55,0,.66-.13,1-.63,1.1a25,25,0,0,0-9.23,3.93c-.14.09-.29.31-.44.13s-.05-.49,0-.71c.28-.95.57-1.89.88-2.82,1.23-3.62,2.7-7.06,4.21-10.46a4,4,0,0,0,.32-2.73c-.4-1.63-1.92-2.91-3.58-1.2-5,5.16-8.14,11.89-9.17,20.43a5.54,5.54,0,0,1-1.69,3.64,32.31,32.31,0,0,1-7.81,5.09c-1.44.72-2,.07-1.86-2,.35-4.37.64-8.75,1.27-13.06a25.77,25.77,0,0,1,1.21-5.49,11.93,11.93,0,0,1,3.56-4.61,22.35,22.35,0,0,0,5.64-7.43c1.94-4.35,2.2-9.24,2.08-14.2A3.08,3.08,0,0,0,138,95.8c-.9-1.8-2.79-1.73-3.58.2s-1.67,4.13-2.41,6.26a14.91,14.91,0,0,1-4.71,7.06c-1.3,1-2.5,2.32-3.78,3.38-3.22,2.64-5,6.58-5.65,11.62-.11.82-.32.69-.66.25a48.56,48.56,0,0,1-4.11-6.13,15.67,15.67,0,0,1-1.66-4.17,1.68,1.68,0,0,1,.55-1.88,26.18,26.18,0,0,0,6.52-8.63,11.56,11.56,0,0,0,.69-8.75c-.33-1-.87-1.34-1.43-1s-.87,1.14-.54,2.22a6.77,6.77,0,0,1,.2,3.65c-1.06,4.38-3.63,6.85-6.12,9.61,0-.15-.06-.3-.08-.44a6.52,6.52,0,0,1,0-.77,35.6,35.6,0,0,0-.34-9.28,12.76,12.76,0,0,0-2.21-5.66c-.21-.26-.4-.55-.7-.6-.51-.09-.89.12-1.16.77a1.71,1.71,0,0,0,.23,1.81,9.5,9.5,0,0,1,1.71,4.21,30.94,30.94,0,0,1,.3,8.7,20.17,20.17,0,0,0,2.76,12.94,66.35,66.35,0,0,0,5,7,1.57,1.57,0,0,1,.45,1.3,35,35,0,0,0-.22,4.8c0,.7-.24,1.06-.73,1.17a4.78,4.78,0,0,1-2.54-.21,20.28,20.28,0,0,1-7-4.4,29.31,29.31,0,0,1-5.56-6.75,20.39,20.39,0,0,1-2.77-9.93c-.2-4.64-.23-9.31-.84-13.9a11.88,11.88,0,0,0-1.41-4.84c-1-1.57-2.43-1.43-3.29.29a6.24,6.24,0,0,0-.4,1,36.5,36.5,0,0,0-1.29,8.82c-.16,2.68-.28,5.38-.27,8.09,0,.24.09.57-.11.7s-.35-.19-.51-.36c-2.4-2.67-5.14-4.16-8.22-4.2-.76,0-1-.49-1-1.34a7.93,7.93,0,0,1,.59-3.6,10.54,10.54,0,0,0,.69-2.59,34.35,34.35,0,0,0-1-12.4c-.22-1-.76-1.32-1.34-1a1.67,1.67,0,0,0-.66,1.94,48.26,48.26,0,0,1,1,7.06,13.77,13.77,0,0,1-.69,5.9,11.38,11.38,0,0,0-.75,4.44c0,.8-.19.83-.64.59A9.66,9.66,0,0,1,74.68,105c-1.28-2.15-2.5-4.37-3.75-6.55-.57-1-1.08-1.13-1.64-.5a1.94,1.94,0,0,0,0,2.37c.53,1,1.07,1.93,1.61,2.89"/><path id="Path_1579" data-name="Path 1579" class="cls-6" d="M112.31,189a45.53,45.53,0,0,0-.84-7.18,6.11,6.11,0,0,0-.73-1.93c-2.34-3.82-5.09-6.81-8.41-8.49a3.35,3.35,0,0,1-2.32-2.73c-.18-1-.46-2-.55-3a26.89,26.89,0,0,0-5.71-14.19A16.08,16.08,0,0,0,87.09,146a21.1,21.1,0,0,1-3.11-1c-.25-.13-.55-.22-.53-.65s.32-.4.54-.52c1.26-.68,2.48-.12,3.7.22,5.74,1.57,9.75,6.48,12.53,13.84,1.24,3.28,2.25,6.74,3.73,9.8.93,1.92,2,3.44,3.7,4,2.44.79,4.07-1.09,4.83-4.06a41.15,41.15,0,0,0,.87-12.12,23,23,0,0,0-2.69-10.24,13.8,13.8,0,0,0-4.75-4.94c-5.37-3.47-9.42-8.95-11.72-17a28.07,28.07,0,0,1-1-7c-.13-4.58,0-9.14.3-13.7a57,57,0,0,1,.63-6.11c.1-.53.12-1.39.48-1.42s.45.79.56,1.32a58.17,58.17,0,0,1,.78,8.53c.17,3.69.23,7.38.59,11A21.14,21.14,0,0,0,99,124a30.33,30.33,0,0,0,12.7,13.18,7.55,7.55,0,0,0,4.76,1c1.63-.27,2.73-1.87,2.75-4.29a68.19,68.19,0,0,1,.5-8.08,42.71,42.71,0,0,1,1.43-7.08,11.56,11.56,0,0,1,3.36-4.85c1.55-1.55,3.09-3.08,4.69-4.52a16.42,16.42,0,0,0,4.45-7.18c.67-2,1.41-3.86,2.11-5.79a1.91,1.91,0,0,1,.44-.8c.22,7.29-1.15,13.45-5.41,17.76a37.24,37.24,0,0,0-4,4.31,18.17,18.17,0,0,0-2.77,7.91c-.87,5.41-1.16,10.95-1.6,16.46-.28,3.53,2,6.49,4.47,5.13,3-1.66,6-3.26,8.67-6a7.29,7.29,0,0,0,2.3-3.93c.25-1.33.33-2.72.54-4.08a35.94,35.94,0,0,1,4.07-11.95,25,25,0,0,1,3.59-5,.82.82,0,0,1-.1.8,103.31,103.31,0,0,0-4.43,12.67c-.63,2.3-1,4.71-1.42,7.09a18.28,18.28,0,0,1-4.21,9.05c-2.3,2.66-4.79,4.94-7.18,7.42a25.15,25.15,0,0,0-3.87,4.91,10.32,10.32,0,0,0-1.49,5.32c0,3.25-.25,6.49.07,9.74s2,4.91,4,4.06a75.66,75.66,0,0,1,7.91-2.51,26.61,26.61,0,0,0,5.08-2.05,9.33,9.33,0,0,0,2.65-2.55,38.64,38.64,0,0,0,7-14.12c.24-.94.43-1.93.67-2.87a6.35,6.35,0,0,1,2-3.3c.17-.14.4-.29.58,0s.06.5,0,.75A152.07,152.07,0,0,1,148,168.07c-.72,1.88-1.38,3.87-2.72,5a20.5,20.5,0,0,1-4.5,2.85c-4.28,2.12-8.7,3.64-12.88,6.2a18.85,18.85,0,0,0-3.69,3c-1.69,1.75-2.52,4.22-2.89,7.12a81.4,81.4,0,0,0,0,16.59c.08,1.11.17,2.22.25,3.33a.93.93,0,0,1,0,.29c0,.32.11.76-.09.95s-.48-.1-.7-.3a40,40,0,0,1-8-10.72,2.77,2.77,0,0,1-.25-1.33c0-3,0-6,0-8.94a12.87,12.87,0,0,0-.2-3.1"/><path id="Path_1580" data-name="Path 1580" class="cls-7" d="M112.31,187.22c.36.27.28.8.28,1.26,0,3.84,0,7.69,0,11.53a3.56,3.56,0,0,0,.41,1.78,56.83,56.83,0,0,0,2.89,5.17,33.8,33.8,0,0,0,5.55,6.84c0-.54,0-.93,0-1.33.29,2.46.46,4.95.83,7.38.24,1.53.39,3.11.67,4.62.17.92,0,1-.5,1-2.15,0-4.3,0-6.45,0-1.55,0-3.1,0-4.65,0-.48,0-.63-.14-.53-1,.83-6.93,1.28-13.92,1.47-21,.15-5.21.19-10.4,0-15.6,0-.22,0-.44,0-.66"/><path id="Path_1581" data-name="Path 1581" class="cls-5" d="M228.14,249.39H13.91a9.82,9.82,0,0,1-9.82-9.82v-1.08a9.83,9.83,0,0,1,9.82-9.82H228.14a9.82,9.82,0,0,1,9.82,9.82v1.08a9.81,9.81,0,0,1-9.82,9.82"/><g id="Group_315" data-name="Group 315"><g class="cls-8"><g id="Group_314" data-name="Group 314"><path id="Path_1637" data-name="Path 1637" class="cls-9" d="M55.32,108.57c-.21.64-.14.93.47,1.23,1,.5,2,1,3.08,1.4A21.57,21.57,0,0,0,64,112.47a9.25,9.25,0,0,0,5.38-.82,5.65,5.65,0,0,0,2.59-2.8s0-.07.08-.24c.23-.67.32-.83.24-.94s0,0-.37-.15h0l-.13,0c-.18,0-.28.48-.43.87a4.45,4.45,0,0,1-.54,1,5.07,5.07,0,0,1-3,2.09,9.69,9.69,0,0,1-4.51.16,23,23,0,0,1-6.9-2.31c-.42-.22-.41-.23-.25-.68.07-.19.13-.38.21-.57s.31-.63.47-.94a13,13,0,0,1,3.79-4.85,7.86,7.86,0,0,1,4.39-1.7,6.41,6.41,0,0,1,6.46,4.77c0,.12,0,.24.07.37.09.57.05.86.24,1l.2.08h0l.31.11c.11-.07.15-.55,0-1.32a7.58,7.58,0,0,0-1.1-2.66,7.32,7.32,0,0,0-9.39-2.32,11.08,11.08,0,0,0-4,3.42,17.28,17.28,0,0,0-2.44,4.46l-.06.15"/><path id="Path_1638" data-name="Path 1638" class="cls-10" d="M56.42,109.26a23,23,0,0,0,6.9,2.31,9.69,9.69,0,0,0,4.51-.16,5.07,5.07,0,0,0,3-2.09,4.45,4.45,0,0,0,.54-1c.15-.39.25-.84.43-.87-.42-.14-.84-.27-1.27-.38s-.42,0-.54.22a4.11,4.11,0,0,1-2.48,2,.47.47,0,0,1-.63-.2h0s0,0,0,0c-.11-.29,0-.45.3-.55l.19-.06a3.49,3.49,0,0,0,1.7-1.3c.24-.36.22-.44-.24-.48-1.24-.12-2.49-.2-3.73-.3a.45.45,0,0,0-.54.35h0v0a3.77,3.77,0,0,1-1.59,2,.46.46,0,0,1-.64,0h0l0,0c-.18-.26-.08-.45.15-.6a2.51,2.51,0,0,0,.37-.27,3,3,0,0,0,.91-1.23,1.37,1.37,0,0,0-.29,0c-.54.06-1.07.16-1.6.27-.7.19-1.38.44-2.06.68a.48.48,0,0,1-.63-.19c-.14-.24,0-.42.19-.54l.21-.1a13.5,13.5,0,0,1,3.74-.93c.12,0,.23,0,.4-.07a2.65,2.65,0,0,0-1.51-1.14c-.39-.1-.57-.31-.52-.57s.34-.31.72-.2a3.41,3.41,0,0,1,2.07,1.61.5.5,0,0,0,.49.27c.74,0,1.47,0,2.21.08s1.37.15,2.09.24a3.66,3.66,0,0,0-1.12-1.54c-.41-.31-.84-.59-1.28-.86-.22-.14-.32-.31-.23-.52a.37.37,0,0,1,.48-.21l.06,0a2.42,2.42,0,0,1,.4.19,5.56,5.56,0,0,1,2.6,2.89.5.5,0,0,0,.38.35c.53.13,1.05.29,1.57.47l0,0-.19-.07c-.19-.12-.15-.41-.24-1,0-.13,0-.25-.07-.38A6.45,6.45,0,0,0,65,100.51a7.94,7.94,0,0,0-4.39,1.71,13.09,13.09,0,0,0-3.79,4.84c-.16.32-.32.63-.47,1s-.14.38-.21.57c-.16.45-.17.45.25.68"/><path id="Path_1639" data-name="Path 1639" class="cls-9" d="M59.09,107.28a.47.47,0,0,0,.63.18c.68-.23,1.36-.48,2.06-.67a14.44,14.44,0,0,1,1.6-.27,1.41,1.41,0,0,1,.29,0,3,3,0,0,1-.91,1.24,2.51,2.51,0,0,1-.37.27c-.23.15-.33.33-.15.6a.46.46,0,0,0,.63.11l0,0a3.69,3.69,0,0,0,1.59-2,.45.45,0,0,1,.52-.37h0c1.23.1,2.48.18,3.72.3.46,0,.48.12.24.47a3.45,3.45,0,0,1-1.7,1.31l-.18.06c-.27.09-.41.25-.3.54a.46.46,0,0,0,.61.24h0l0,0a4,4,0,0,0,2.47-2c.13-.25.26-.3.55-.22s.85.25,1.27.39h0l.12,0h0a19.23,19.23,0,0,1,3.54,1.63l.64.38a.42.42,0,0,0,.61-.07c.16-.22,0-.44-.18-.59-.44-.28-.88-.54-1.34-.78a21.44,21.44,0,0,0-2.81-1.25h0s-.06,0-.29-.12h0c-.52-.17-1-.33-1.58-.47a.49.49,0,0,1-.38-.34A5.61,5.61,0,0,0,67.5,103l-.41-.19a.37.37,0,0,0-.51.13l0,0c-.09.21,0,.39.24.53a13.38,13.38,0,0,1,1.27.85,3.61,3.61,0,0,1,1.12,1.55c-.71-.09-1.4-.2-2.09-.25s-1.47-.07-2.21-.08a.47.47,0,0,1-.49-.27,3.43,3.43,0,0,0-2.06-1.61c-.38-.11-.65,0-.71.21s.12.46.51.56a2.68,2.68,0,0,1,1.51,1.15l-.39.07a13.14,13.14,0,0,0-3.75.93l-.21.1c-.21.12-.33.3-.19.54"/><path id="Path_1640" data-name="Path 1640" class="cls-9" d="M71.77,107.46h0l.13.05-.12-.05"/><path id="Path_1641" data-name="Path 1641" class="cls-9" d="M72.05,106.73c.22.09.25.13.29.12h0l-.3-.11"/></g></g></g><g id="Group_318" data-name="Group 318"><path id="Path_1647" data-name="Path 1647" class="cls-11" d="M119.07,243.6H15.6a14,14,0,0,1-3.1-.16c-2.83-.66-4.54-2.8-4.28-5.32s2.17-4.35,5.2-4.62c.76-.05,1.51-.06,2.27,0q32.18,0,64.35,0c2,.05,3.84-.65,4.61-1.76,2.38-2.5,6.37-4.31,11-5a49.2,49.2,0,0,1,8.74-.75c10.06,0,20.13-.07,30.19,0a36.52,36.52,0,0,1,14.28,2.59,13.2,13.2,0,0,1,4.94,3.39,4.32,4.32,0,0,0,3.75,1.49q32.4,0,64.78,0c.75,0,1.51,0,2.26,0,3.25.25,5.44,2.35,5.36,5.15s-2.3,4.81-5.59,4.94c-.76,0-1.52,0-2.27,0H119.07"/></g><g id="Group_315-2" data-name="Group 315"><g class="cls-12"><g id="Group_314-2" data-name="Group 314"><path id="Path_1637-2" data-name="Path 1637" class="cls-9" d="M138.9,113.74c-.22.64-.14.93.46,1.23,1,.5,2,1,3.08,1.39a21.06,21.06,0,0,0,5.13,1.27,9.13,9.13,0,0,0,5.37-.81,5.61,5.61,0,0,0,2.59-2.8,1.16,1.16,0,0,0,.08-.25c.23-.66.33-.83.25-.93s-.05,0-.37-.15h0l-.12,0c-.18,0-.28.48-.43.87a4.38,4.38,0,0,1-.54,1,5.09,5.09,0,0,1-3,2.1,9.73,9.73,0,0,1-4.52.15,22.75,22.75,0,0,1-6.89-2.3c-.42-.23-.41-.23-.25-.68.07-.19.13-.39.21-.57s.31-.63.46-1a13.22,13.22,0,0,1,3.8-4.84,7.94,7.94,0,0,1,4.39-1.71,6.43,6.43,0,0,1,6.45,4.77,2.57,2.57,0,0,1,.08.38c.09.56,0,.85.23,1l.2.07,0,0h0l.31.11c.11-.08.15-.55,0-1.32a7.48,7.48,0,0,0-1.09-2.66,7.32,7.32,0,0,0-9.39-2.32,11,11,0,0,0-4,3.42,16.55,16.55,0,0,0-2.44,4.46l-.06.15"/><path id="Path_1638-2" data-name="Path 1638" class="cls-10" d="M140,114.42a22.47,22.47,0,0,0,6.9,2.31,9.69,9.69,0,0,0,4.51-.15,5.09,5.09,0,0,0,3-2.1,4.38,4.38,0,0,0,.54-1c.15-.39.24-.84.43-.87-.42-.14-.84-.27-1.27-.39s-.42,0-.55.22a4,4,0,0,1-2.48,2,.46.46,0,0,1-.63-.19h0s0,0,0,0c-.12-.29,0-.45.3-.54l.19-.07a3.48,3.48,0,0,0,1.7-1.3c.23-.35.22-.43-.25-.48-1.23-.11-2.48-.2-3.72-.3a.46.46,0,0,0-.54.35h0v0a3.67,3.67,0,0,1-1.6,2,.44.44,0,0,1-.63,0h0l0,0c-.19-.27-.09-.45.15-.6a3.18,3.18,0,0,0,.37-.27,3.13,3.13,0,0,0,.91-1.24,1.41,1.41,0,0,0-.29,0,14.44,14.44,0,0,0-1.6.27c-.7.19-1.38.44-2.07.67a.47.47,0,0,1-.63-.18c-.14-.24,0-.42.2-.54l.21-.1a13,13,0,0,1,3.74-.93l.39-.08a2.63,2.63,0,0,0-1.51-1.14c-.38-.1-.57-.31-.51-.56s.34-.32.72-.21A3.44,3.44,0,0,1,148,110.5a.48.48,0,0,0,.49.28c.73,0,1.47,0,2.2.07s1.38.16,2.09.25a3.67,3.67,0,0,0-1.11-1.55c-.41-.3-.84-.59-1.28-.85-.22-.14-.33-.31-.24-.53a.37.37,0,0,1,.49-.2l.05,0,.41.19a5.67,5.67,0,0,1,2.6,2.9.48.48,0,0,0,.37.34c.53.14,1.06.3,1.58.47h0l-.2-.08c-.19-.12-.14-.4-.23-1,0-.12,0-.25-.08-.37a6.43,6.43,0,0,0-6.45-4.77,7.81,7.81,0,0,0-4.39,1.71,12.93,12.93,0,0,0-3.8,4.84c-.15.31-.32.63-.46.94s-.14.38-.21.57c-.16.46-.17.46.24.68"/><path id="Path_1639-2" data-name="Path 1639" class="cls-9" d="M142.66,112.44a.48.48,0,0,0,.63.19c.68-.24,1.36-.49,2.07-.67.52-.12,1.06-.21,1.6-.28a1.46,1.46,0,0,1,.29,0,3.27,3.27,0,0,1-1.28,1.51c-.24.14-.34.33-.16.59a.45.45,0,0,0,.63.12l0,0a3.71,3.71,0,0,0,1.6-2,.45.45,0,0,1,.52-.38h0l3.73.3c.45,0,.47.12.24.48a3.48,3.48,0,0,1-1.7,1.3l-.19.07c-.26.09-.41.25-.3.54a.47.47,0,0,0,.62.23h0a4,4,0,0,0,2.48-2c.12-.26.26-.3.55-.22s.85.25,1.26.39h0l.11,0h0A18.4,18.4,0,0,1,159,114.3l.63.37c.24.14.46.15.61-.06s.06-.45-.18-.6c-.43-.27-.88-.53-1.33-.77a21.3,21.3,0,0,0-2.81-1.25h0s-.06,0-.29-.12h0c-.52-.18-1-.33-1.58-.47a.5.5,0,0,1-.37-.35,5.56,5.56,0,0,0-2.6-2.89,3,3,0,0,0-.41-.19.37.37,0,0,0-.51.13s0,0,0,0c-.09.21,0,.38.23.52.44.27.87.55,1.28.86a3.72,3.72,0,0,1,1.12,1.54c-.72-.08-1.4-.19-2.09-.24s-1.47-.07-2.21-.08a.5.5,0,0,1-.49-.27,3.42,3.42,0,0,0-2.06-1.61c-.38-.11-.66,0-.72.21s.13.46.52.56a2.64,2.64,0,0,1,1.5,1.14l-.39.08a12.75,12.75,0,0,0-3.74.93l-.21.1c-.22.12-.33.3-.19.54"/><path id="Path_1640-2" data-name="Path 1640" class="cls-9" d="M155.34,112.63h0l.13.05-.12-.05"/><path id="Path_1641-2" data-name="Path 1641" class="cls-9" d="M155.62,111.9c.23.09.26.12.29.11h0l-.31-.11"/></g></g></g><g id="Group_315-3" data-name="Group 315"><g class="cls-13"><g id="Group_314-3" data-name="Group 314"><path id="Path_1637-3" data-name="Path 1637" class="cls-9" d="M176.22,122.74l-.06-.15a16.83,16.83,0,0,0-2.44-4.46,11,11,0,0,0-4.05-3.42,7.31,7.31,0,0,0-9.39,2.32,7.48,7.48,0,0,0-1.09,2.66c-.16.77-.12,1.24,0,1.32l.31-.11h0l0,0,.2-.07c.18-.13.14-.42.23-1,0-.13,0-.25.07-.38a6.45,6.45,0,0,1,6.46-4.77,7.94,7.94,0,0,1,4.39,1.71,13.09,13.09,0,0,1,3.79,4.84c.16.32.32.63.47,1s.14.38.21.57c.16.45.17.45-.25.68a22.72,22.72,0,0,1-6.9,2.3,9.69,9.69,0,0,1-4.51-.15,5.09,5.09,0,0,1-2.95-2.1,4.38,4.38,0,0,1-.54-1c-.15-.39-.25-.84-.43-.87l-.13,0h0c-.32.14-.34.11-.37.15s0,.27.25.93a1.16,1.16,0,0,0,.08.25,5.56,5.56,0,0,0,2.59,2.8,9.12,9.12,0,0,0,5.37.81,21,21,0,0,0,5.12-1.27c1.06-.4,2.07-.89,3.08-1.39.61-.3.69-.59.47-1.23"/><path id="Path_1638-3" data-name="Path 1638" class="cls-10" d="M175.12,123.42c.42-.22.41-.22.25-.68-.07-.19-.13-.38-.21-.57s-.31-.63-.46-.94a13,13,0,0,0-3.8-4.84,7.84,7.84,0,0,0-4.39-1.71,6.43,6.43,0,0,0-6.45,4.77c0,.12-.06.25-.08.37-.09.58,0,.86-.23,1l-.2.08h0c.52-.17,1.05-.33,1.58-.47a.48.48,0,0,0,.37-.34,5.63,5.63,0,0,1,2.6-2.9l.41-.19.05,0a.36.36,0,0,1,.48.2c.1.22,0,.39-.23.53-.44.26-.87.55-1.28.85a3.69,3.69,0,0,0-1.12,1.55c.72-.09,1.41-.2,2.1-.25s1.47-.06,2.2-.07a.48.48,0,0,0,.49-.28,3.44,3.44,0,0,1,2.07-1.61c.38-.11.66,0,.72.21s-.13.46-.51.56a2.63,2.63,0,0,0-1.51,1.14l.39.08a13.07,13.07,0,0,1,3.74.93l.21.1c.22.12.34.3.19.54a.46.46,0,0,1-.62.18c-.69-.23-1.37-.48-2.07-.67a14.44,14.44,0,0,0-1.6-.27,1.41,1.41,0,0,0-.29,0,3.13,3.13,0,0,0,.91,1.24,3.18,3.18,0,0,0,.37.27c.24.15.34.33.15.6l0,0h0a.44.44,0,0,1-.63,0,3.67,3.67,0,0,1-1.6-2v0h0a.46.46,0,0,0-.54-.35c-1.24.1-2.49.19-3.72.3-.47,0-.49.13-.25.48a3.48,3.48,0,0,0,1.7,1.3l.19.07c.26.09.42.25.3.54a0,0,0,0,0,0,0h0a.46.46,0,0,1-.63.19,4,4,0,0,1-2.48-2c-.13-.25-.26-.3-.55-.22s-.85.25-1.27.39c.18,0,.28.48.43.87a4.38,4.38,0,0,0,.54,1,5.09,5.09,0,0,0,3,2.1,9.69,9.69,0,0,0,4.51.15,22.47,22.47,0,0,0,6.9-2.31"/><path id="Path_1639-3" data-name="Path 1639" class="cls-9" d="M172.44,121.44c.14-.24,0-.42-.19-.54l-.21-.1a12.83,12.83,0,0,0-3.74-.93l-.4-.08a2.69,2.69,0,0,1,1.51-1.14c.39-.1.58-.32.52-.56s-.34-.32-.72-.21a3.42,3.42,0,0,0-2.06,1.61.5.5,0,0,1-.49.27c-.74,0-1.47,0-2.21.08s-1.38.16-2.09.24a3.72,3.72,0,0,1,1.12-1.54c.41-.31.83-.59,1.27-.86.23-.14.33-.31.24-.52l0,0a.36.36,0,0,0-.51-.13,2.93,2.93,0,0,0-.4.19,5.56,5.56,0,0,0-2.6,2.89.5.5,0,0,1-.38.35c-.53.14-1,.29-1.57.47h0c-.23.09-.25.13-.29.12h0a20.73,20.73,0,0,0-2.81,1.25c-.45.24-.9.5-1.34.77-.23.15-.34.37-.17.6s.37.2.6.06l.64-.37a18.4,18.4,0,0,1,3.55-1.63h0l.12,0h0c.42-.14.84-.27,1.27-.39s.43,0,.55.22a4,4,0,0,0,2.47,2h0a.47.47,0,0,0,.62-.23c.1-.29,0-.45-.3-.54l-.19-.07a3.43,3.43,0,0,1-1.7-1.3c-.23-.36-.21-.44.24-.48,1.24-.11,2.49-.2,3.73-.3h0a.45.45,0,0,1,.52.38,3.67,3.67,0,0,0,1.6,2l0,0a.44.44,0,0,0,.62-.12c.19-.26.09-.45-.15-.59a3.27,3.27,0,0,1-1.28-1.51,1.42,1.42,0,0,1,.29,0c.54.07,1.07.16,1.6.28.71.18,1.39.43,2.07.67a.48.48,0,0,0,.63-.19"/><path id="Path_1640-3" data-name="Path 1640" class="cls-9" d="M159.78,121.63s0,0-.12.05l.13-.05h0"/><path id="Path_1641-3" data-name="Path 1641" class="cls-9" d="M159.5,120.9l-.31.11h0s.06,0,.29-.11"/></g></g></g><g id="Group_315-4" data-name="Group 315"><g class="cls-14"><g id="Group_314-4" data-name="Group 314"><path id="Path_1637-4" data-name="Path 1637" class="cls-9" d="M102.64,98l-.06-.15a17,17,0,0,0-2.43-4.46,11.07,11.07,0,0,0-4.06-3.41,7.33,7.33,0,0,0-9.39,2.31,7.56,7.56,0,0,0-1.09,2.66c-.16.77-.12,1.25,0,1.32l.31-.11h0l.2-.08c.18-.12.14-.41.23-1,0-.13,0-.25.08-.37a6.41,6.41,0,0,1,6.45-4.77,7.9,7.9,0,0,1,4.39,1.7,13.17,13.17,0,0,1,3.8,4.85c.15.31.32.62.46.94s.14.39.21.57c.16.45.17.46-.25.68A23.05,23.05,0,0,1,94.64,101a9.73,9.73,0,0,1-4.52-.16,5.06,5.06,0,0,1-3-2.09,4.61,4.61,0,0,1-.54-1c-.15-.39-.25-.85-.43-.88l-.12.05h0c-.32.14-.33.11-.37.15s0,.27.25.94c.06.17.06.19.08.24A5.61,5.61,0,0,0,88.6,101a9.21,9.21,0,0,0,5.37.82,21.53,21.53,0,0,0,5.13-1.27c1.05-.41,2.07-.9,3.08-1.4.6-.3.68-.58.46-1.23"/><path id="Path_1638-4" data-name="Path 1638" class="cls-10" d="M101.55,98.64c.41-.22.4-.23.24-.68-.07-.19-.13-.39-.21-.57s-.31-.63-.46-1a13,13,0,0,0-3.8-4.84,7.89,7.89,0,0,0-4.39-1.71,6.43,6.43,0,0,0-6.45,4.77,2.53,2.53,0,0,0-.07.38c-.1.57,0,.86-.24,1l-.2.07,0,0c.52-.18,1-.33,1.58-.47a.49.49,0,0,0,.37-.35,5.65,5.65,0,0,1,2.6-2.89,3,3,0,0,1,.41-.19l0,0a.39.39,0,0,1,.49.21c.09.21,0,.39-.24.52-.44.27-.87.55-1.28.86a3.7,3.7,0,0,0-1.11,1.54c.71-.08,1.4-.19,2.09-.24s1.47-.07,2.2-.08a.49.49,0,0,0,.49-.27,3.43,3.43,0,0,1,2.08-1.61c.37-.11.65,0,.71.2s-.13.47-.51.57A2.63,2.63,0,0,0,94.35,95c.16,0,.27.06.39.07a13,13,0,0,1,3.74.94l.21.1c.22.12.34.3.2.53a.48.48,0,0,1-.63.19c-.69-.24-1.37-.49-2.07-.67-.53-.12-1.06-.21-1.6-.28a1.42,1.42,0,0,0-.29,0,3.2,3.2,0,0,0,.91,1.24,2.26,2.26,0,0,0,.37.26c.24.15.34.34.16.6a.08.08,0,0,1,0,0h0a.44.44,0,0,1-.63,0,3.67,3.67,0,0,1-1.6-2v0h0a.45.45,0,0,0-.54-.35c-1.24.1-2.48.18-3.72.3-.47,0-.48.12-.25.48a3.48,3.48,0,0,0,1.7,1.3l.19.07c.26.09.42.25.3.54v0h0a.47.47,0,0,1-.63.2,4.08,4.08,0,0,1-2.48-2c-.13-.26-.26-.3-.55-.22s-.85.24-1.27.38c.19,0,.28.48.43.88a4.61,4.61,0,0,0,.54,1,5.06,5.06,0,0,0,2.95,2.09,9.69,9.69,0,0,0,4.51.16,23,23,0,0,0,6.9-2.31"/><path id="Path_1639-4" data-name="Path 1639" class="cls-9" d="M98.86,96.65c.14-.24,0-.42-.19-.54L98.46,96a13.09,13.09,0,0,0-3.74-.94c-.12,0-.23,0-.39-.07a2.64,2.64,0,0,1,1.5-1.14c.39-.1.58-.33.52-.57s-.34-.31-.72-.2a3.44,3.44,0,0,0-2.06,1.6.49.49,0,0,1-.49.28c-.74,0-1.47,0-2.21.07s-1.37.17-2.09.25a3.69,3.69,0,0,1,1.12-1.55c.41-.3.84-.59,1.28-.85.22-.14.32-.31.23-.53a.17.17,0,0,0,0-.05.39.39,0,0,0-.51-.13l-.41.19a5.58,5.58,0,0,0-2.6,2.9.48.48,0,0,1-.37.34c-.54.14-1.06.3-1.58.47h0c-.22.1-.25.13-.29.12h0a22.69,22.69,0,0,0-2.81,1.25c-.45.24-.9.5-1.33.78-.24.15-.34.37-.18.59s.37.21.61.07l.63-.38a18.36,18.36,0,0,1,3.55-1.62h0l.11,0h0c.41-.14.84-.27,1.26-.39s.43,0,.55.22a4.06,4.06,0,0,0,2.48,2h0a.48.48,0,0,0,.62-.23c.11-.3,0-.45-.3-.55l-.19-.06a3.54,3.54,0,0,1-1.7-1.3c-.23-.36-.21-.44.25-.48,1.24-.12,2.48-.2,3.72-.3h0a.45.45,0,0,1,.52.37,3.77,3.77,0,0,0,1.6,2l0,0a.46.46,0,0,0,.63-.12c.18-.27.08-.45-.16-.6a3.18,3.18,0,0,1-.37-.27,3.13,3.13,0,0,1-.91-1.24,1.43,1.43,0,0,1,.29,0,14.62,14.62,0,0,1,1.61.27c.7.19,1.38.44,2.06.67a.47.47,0,0,0,.63-.18"/><path id="Path_1640-4" data-name="Path 1640" class="cls-9" d="M86.2,96.85s0,0-.12,0l.13,0h0"/><path id="Path_1641-4" data-name="Path 1641" class="cls-9" d="M85.92,96.11l-.31.11h0s.06,0,.29-.12"/></g></g></g><g id="Group_323" data-name="Group 323"><g id="Group_322" data-name="Group 322"><g class="cls-15"><g id="Group_321" data-name="Group 321"><path id="Path_1648" data-name="Path 1648" class="cls-16" d="M90.5,214.6v6.6c0,1.43-.43,1.81-2,1.81-2.76,0-5.53,0-8.29,0-.73,0-1,.1-1,.83,0,4.24,0,8.48,0,12.72,0,1.29-.47,1.72-1.88,1.72H72.66c-1.44,0-1.91-.42-1.91-1.7,0-4.26,0-8.53,0-12.79,0-.6-.13-.79-.84-.79-8.2,0-16.4,0-24.61,0S29,223,20.79,223c-.65,0-.87.12-.87.76,0,4.27,0,8.53,0,12.8,0,1.29-.47,1.72-1.89,1.72H13.29c-1.31,0-1.82-.45-1.82-1.62,0-4.3,0-8.59,0-12.88,0-.61-.15-.79-.85-.78-2.88,0-5.76,0-8.65,0-1.3,0-1.81-.46-1.81-1.63v-6.92c0-1.17.5-1.62,1.81-1.63,2.91,0,5.82,0,8.73,0,.62,0,.78-.14.77-.7,0-1.87,0-1.87-2.1-1.87H4.71c-1.19,0-1.71-.47-1.71-1.55V176.22c0-1.07.53-1.54,1.73-1.54,2,0,4,0,6,0,.64,0,.76-.16.76-.7,0-1.85,0-1.85-2-1.85H2.06c-1.4,0-1.88-.43-1.88-1.73v-6.75c0-1.27.49-1.69,1.92-1.69,2.76,0,5.53,0,8.29,0,.83,0,1.2-.11,1.11-1a19.08,19.08,0,0,1,0-2.62c0-1,.54-1.52,1.66-1.53h5.12c1.14,0,1.68.48,1.69,1.5s0,2.06,0,3.1c0,.36.08.55.52.49h49.3c.77,0,1.08-.12,1-.88a25.76,25.76,0,0,1,0-2.78c0-.93.55-1.43,1.58-1.44h5.29c1,0,1.57.5,1.59,1.43s0,2,0,3c0,.51.13.65.72.65,2.91,0,5.82,0,8.73,0,1.36,0,1.85.44,1.85,1.67,0,2.3,0,4.61,0,6.91,0,1.12-.52,1.59-1.77,1.59-2.94,0-5.87,0-8.81,0-.59,0-.73.14-.72.65,0,1.9,0,1.9,2.14,1.9,1.56,0,3.12,0,4.67,0,1.13,0,1.67.49,1.67,1.52v32.58c0,1-.55,1.5-1.69,1.5-2,0-4,0-6.08,0-.6,0-.71.17-.71.66,0,1.9,0,1.9,2.06,1.9h7.32c1.46,0,1.92.42,1.92,1.76m-2.8,1.7c.06-.78-.19-.94-1-.94q-41.31,0-82.64,0H3.58c-.46-.06-.6.1-.59.52,0,1.24.07,2.49,0,3.73,0,.7.18.86,1,.85q20.69,0,41.37,0H64.79c7.38,0,14.76,0,22.14,0,.61,0,.79-.12.76-.69a31.44,31.44,0,0,1,0-3.5m0-50.9c0-.73-.19-.9-1-.9q-40.65,0-81.31,0c-.59,0-1.18,0-1.77,0s-.65.11-.63.57c0,1.22.06,2.43,0,3.65-.05.72.19.9,1,.9q20.64,0,41.27,0l41.63,0c.65,0,.85-.13.82-.73a29,29,0,0,1,0-3.49M84,207.77c.73,0,.9-.15.9-.82q0-14.46,0-28.93c0-.66-.16-.81-.9-.81q-19.26,0-38.54,0l-38.72,0c-.73,0-.9.15-.9.81q0,14.46,0,28.93c0,.66.17.82.9.82q38.64,0,77.26,0m-8.2,28c.5,0,.64-.12.63-.57,0-1.91,0-3.82,0-5.72v-4.53c0-1.94,0-1.91-2.12-1.93-.57,0-.72.14-.71.66,0,3.38,0,6.77,0,10.17,0,2,0,1.94,2.2,1.92m.62-62.39c0-1.21,0-1.21-1.31-1.21-1.51,0-1.51,0-1.51,1.33s0,1.21,1.3,1.21c1.52,0,1.52,0,1.52-1.33M75,162c1.39,0,1.39,0,1.39-1.21s0-1.33-1.44-1.33-1.38,0-1.38,1.22S73.57,162,75,162m0,50.87c1.36,0,1.36,0,1.36-1.24s0-1.3-1.46-1.3-1.36,0-1.36,1.24,0,1.3,1.46,1.3M70.77,173c0-.72-.19-.9-1-.9q-23.94,0-47.88,0c-1.95,0-1.92,0-2,1.74,0,.67.17.82.9.82,8.14,0,16.28,0,24.43,0H68.89c1.86,0,1.81,0,1.88-1.66m0,38.07c0-.66-.17-.82-.9-.82-8.15,0-16.29,0-24.43,0H21.8c-1.86,0-1.82,0-1.88,1.67,0,.72.19.9,1,.89q24,0,47.89,0c2,0,1.91,0,2-1.74M16.5,235.74c.5,0,.64-.13.63-.57,0-1.93,0-3.87,0-5.8v-4.45c0-1.94,0-1.91-2.12-1.93-.58,0-.72.14-.72.66,0,3.38,0,6.78,0,10.17,0,2,0,1.94,2.21,1.92m.62-75.1c0-1.22,0-1.22-1.3-1.22-1.53,0-1.53,0-1.53,1.41,0,1.14,0,1.14,1.3,1.14,1.52,0,1.52,0,1.52-1.33m-1.3,14c1.31,0,1.31,0,1.31-1.2s0-1.34-1.51-1.34c-1.32,0-1.32,0-1.32,1.2s0,1.35,1.52,1.35m-.06,38.15c1.37,0,1.37,0,1.37-1.24s0-1.31-1.46-1.31-1.37,0-1.37,1.23,0,1.32,1.46,1.32"/><path id="Path_1649" data-name="Path 1649" class="cls-7" d="M86.66,215.36c.85,0,1.1.16,1,.93a31.44,31.44,0,0,0,0,3.5c0,.57-.15.7-.76.69-7.38,0-14.76,0-22.14,0H45.3l-41.37,0c-.77,0-1-.15-1-.86.08-1.24,0-2.49,0-3.73,0-.42.13-.58.59-.52H4l82.64,0m-10.27,2.56c0-1.27,0-1.27-1.41-1.27s-1.41,0-1.41,1.27,0,1.27,1.4,1.27,1.42,0,1.42-1.27m-59.28,0c0-1.23,0-1.23-1.36-1.23s-1.46,0-1.46,1.31,0,1.23,1.37,1.23,1.45,0,1.45-1.31"/><path id="Path_1650" data-name="Path 1650" class="cls-7" d="M86.71,164.49c.8,0,1,.17,1,.9a29.19,29.19,0,0,0,0,3.5c0,.6-.17.73-.82.73q-20.82,0-41.63,0-20.64,0-41.27,0c-.8,0-1-.18-1-.9.08-1.22,0-2.44,0-3.66,0-.46.14-.6.64-.56s1.17,0,1.76,0l81.32,0M75,168.33c1.36,0,1.36,0,1.36-1.24s0-1.31-1.46-1.31-1.36,0-1.36,1.24,0,1.31,1.46,1.31M17.12,167c0-1.22,0-1.22-1.38-1.22s-1.45,0-1.45,1.33,0,1.22,1.39,1.22,1.44,0,1.44-1.33"/><path id="Path_1651" data-name="Path 1651" class="cls-17" d="M84.87,207c0,.67-.17.82-.9.82q-38.62,0-77.26,0c-.73,0-.9-.16-.9-.82q0-14.46,0-28.93c0-.66.17-.81.9-.81q19.37,0,38.72,0H84c.73,0,.9.15.9.81q0,14.47,0,28.93M82,181c0-1.23,0-1.23-1.37-1.23s-1.45,0-1.45,1.32,0,1.23,1.38,1.23S82,182.32,82,181m0,22.9c0-1.24,0-1.24-1.36-1.24s-1.46,0-1.46,1.32,0,1.23,1.37,1.23,1.45,0,1.45-1.31m-70.56,0c0-1.28,0-1.28-1.4-1.28s-1.42,0-1.42,1.26,0,1.29,1.4,1.29,1.42,0,1.42-1.27m0-22.9c0-1.27,0-1.27-1.41-1.27s-1.41,0-1.41,1.27,0,1.28,1.41,1.28,1.41,0,1.41-1.27"/><path id="Path_1652" data-name="Path 1652" class="cls-16" d="M80.66,179.77c1.37,0,1.37,0,1.37,1.23s0,1.32-1.44,1.32-1.38,0-1.38-1.23,0-1.32,1.45-1.32"/><path id="Path_1653" data-name="Path 1653" class="cls-16" d="M80.67,202.66c1.36,0,1.36,0,1.36,1.23s0,1.32-1.45,1.32-1.37,0-1.37-1.24,0-1.31,1.46-1.31"/><path id="Path_1654" data-name="Path 1654" class="cls-7" d="M76.4,235.17c0,.45-.13.56-.63.57-2.2,0-2.2,0-2.2-1.92,0-3.4,0-6.78,0-10.17,0-.52.15-.66.73-.66,2.11,0,2.11,0,2.11,1.93v4.53c0,1.9,0,3.81,0,5.72"/><path id="Path_1655" data-name="Path 1655" class="cls-7" d="M75.08,172.14c1.31,0,1.31,0,1.31,1.21s0,1.33-1.52,1.33c-1.3,0-1.3,0-1.3-1.21s0-1.33,1.52-1.33"/><path id="Path_1656" data-name="Path 1656" class="cls-7" d="M76.39,160.75c0,1.21,0,1.21-1.39,1.21s-1.43,0-1.43-1.32,0-1.22,1.38-1.22,1.44,0,1.44,1.33"/><path id="Path_1657" data-name="Path 1657" class="cls-16" d="M76.39,167.09c0,1.24,0,1.24-1.36,1.24s-1.46,0-1.46-1.31,0-1.24,1.36-1.24,1.46,0,1.46,1.31"/><path id="Path_1658" data-name="Path 1658" class="cls-7" d="M76.39,211.6c0,1.24,0,1.24-1.36,1.24s-1.46,0-1.46-1.31,0-1.24,1.36-1.24,1.46,0,1.46,1.31"/><path id="Path_1659" data-name="Path 1659" class="cls-16" d="M75,216.65c1.41,0,1.41,0,1.41,1.27s0,1.27-1.41,1.27-1.41,0-1.41-1.27,0-1.27,1.41-1.27"/><path id="Path_1660" data-name="Path 1660" class="cls-7" d="M17.13,235.17c0,.45-.13.56-.63.57-2.21,0-2.21,0-2.21-1.92,0-3.39,0-6.78,0-10.17,0-.52.14-.66.72-.66,2.12,0,2.12,0,2.12,1.93v4.45c0,1.93,0,3.87,0,5.8"/><path id="Path_1661" data-name="Path 1661" class="cls-7" d="M15.82,159.42c1.3,0,1.3,0,1.3,1.22s0,1.33-1.52,1.33c-1.3,0-1.3,0-1.3-1.14,0-1.4,0-1.4,1.53-1.4"/><path id="Path_1662" data-name="Path 1662" class="cls-7" d="M17.12,173.48c0,1.2,0,1.2-1.31,1.2-1.52,0-1.52,0-1.52-1.34s0-1.2,1.32-1.2c1.51,0,1.51,0,1.51,1.34"/><path id="Path_1663" data-name="Path 1663" class="cls-16" d="M15.74,165.78c1.38,0,1.38,0,1.38,1.22s0,1.33-1.44,1.33-1.39,0-1.39-1.22,0-1.33,1.45-1.33"/><path id="Path_1664" data-name="Path 1664" class="cls-7" d="M17.12,211.6c0,1.23,0,1.23-1.37,1.23s-1.45,0-1.45-1.31,0-1.23,1.36-1.23,1.46,0,1.46,1.31"/><path id="Path_1665" data-name="Path 1665" class="cls-16" d="M15.75,216.65c1.37,0,1.37,0,1.37,1.23s0,1.31-1.46,1.31-1.37,0-1.37-1.23,0-1.31,1.46-1.31"/><path id="Path_1666" data-name="Path 1666" class="cls-16" d="M10.07,202.66c1.4,0,1.4,0,1.4,1.28s0,1.27-1.42,1.27-1.4,0-1.4-1.29,0-1.26,1.42-1.26"/><path id="Path_1667" data-name="Path 1667" class="cls-16" d="M10.06,179.77c1.41,0,1.41,0,1.41,1.27s0,1.27-1.41,1.27-1.41,0-1.41-1.27,0-1.27,1.41-1.27"/></g></g></g><g id="One_piece_of_leaf_will_emerge_when_one_record_is_uploaded._" data-name="One piece of leaf will emerge when one record is uploaded. " class="cls-18"><path class="cls-19" d="M14.18,184.12v-1.33h0L13.25,185l-.88-2.16h0v3.43h-.46V182h.65l.73,1.85h0L14,182h.62v4.19h-.46Z"/><path class="cls-19" d="M16.85,186.29a1.59,1.59,0,0,1-.59-.11,1.31,1.31,0,0,1-.44-.33,1.56,1.56,0,0,1-.28-.51,2.31,2.31,0,0,1-.09-.67,2.41,2.41,0,0,1,.09-.67,1.56,1.56,0,0,1,.28-.51,1.16,1.16,0,0,1,.44-.32,1.41,1.41,0,0,1,.59-.12,1.34,1.34,0,0,1,.58.12,1.12,1.12,0,0,1,.45.32,1.56,1.56,0,0,1,.28.51,2.41,2.41,0,0,1,.09.67,2.31,2.31,0,0,1-.09.67,1.56,1.56,0,0,1-.28.51,1.25,1.25,0,0,1-.45.33A1.5,1.5,0,0,1,16.85,186.29Zm0-.41a.9.9,0,0,0,.65-.24,1,1,0,0,0,.24-.75v-.44a1,1,0,0,0-.24-.74,1,1,0,0,0-1.3,0,1,1,0,0,0-.24.74v.44a1,1,0,0,0,.24.75A.9.9,0,0,0,16.85,185.88Z"/><path class="cls-19" d="M19.11,185.8H20v-2.26h-.91v-.42H20.5v.78h0a1,1,0,0,1,.36-.57,1.08,1.08,0,0,1,.68-.21H22v.48h-.58a1,1,0,0,0-.67.24.82.82,0,0,0-.25.63v1.33h1.2v.42H19.11Z"/><path class="cls-19" d="M24.1,186.29a1.64,1.64,0,0,1-.6-.11,1.39,1.39,0,0,1-.46-.33,1.58,1.58,0,0,1-.29-.51,2.28,2.28,0,0,1-.1-.66,2.11,2.11,0,0,1,.11-.68,1.42,1.42,0,0,1,.29-.51,1.12,1.12,0,0,1,.45-.32,1.41,1.41,0,0,1,1.14,0,1.23,1.23,0,0,1,.71.79,1.64,1.64,0,0,1,.1.6v.23H23.16v.14a1.12,1.12,0,0,0,.06.38.91.91,0,0,0,.19.3.79.79,0,0,0,.3.2,1.23,1.23,0,0,0,.39.07,1,1,0,0,0,.54-.15.88.88,0,0,0,.35-.39l.36.24a1.19,1.19,0,0,1-.46.51A1.52,1.52,0,0,1,24.1,186.29Zm0-2.84a.86.86,0,0,0-.36.07.84.84,0,0,0-.29.2.7.7,0,0,0-.19.29,1,1,0,0,0-.07.38v0h1.77v-.06a1.12,1.12,0,0,0-.06-.38.79.79,0,0,0-.18-.29.77.77,0,0,0-.27-.19A1,1,0,0,0,24.07,183.45Z"/><path class="cls-19" d="M32,185.71h0a1,1,0,0,1-1,.58,1.06,1.06,0,0,1-.89-.42,2,2,0,0,1-.32-1.2,2,2,0,0,1,.32-1.19,1,1,0,0,1,.89-.43,1,1,0,0,1,1,.58h0v-1.85h.48v4.44H32Zm-.79.16a.94.94,0,0,0,.3-.05,1,1,0,0,0,.26-.12.55.55,0,0,0,.17-.2.6.6,0,0,0,.06-.27v-1.12a.6.6,0,0,0-.06-.27.65.65,0,0,0-.17-.2,1,1,0,0,0-.26-.12,1,1,0,0,0-.3,0,.82.82,0,0,0-.65.25,1,1,0,0,0-.23.68v.52a1,1,0,0,0,.23.68A.83.83,0,0,0,31.21,185.87Z"/><path class="cls-19" d="M36,186.22a.51.51,0,0,1-.4-.14.73.73,0,0,1-.15-.37h0a.89.89,0,0,1-.33.43,1.07,1.07,0,0,1-.6.15,1.14,1.14,0,0,1-.78-.25.88.88,0,0,1-.28-.69.79.79,0,0,1,.31-.67,1.79,1.79,0,0,1,1-.23h.66v-.31a.69.69,0,0,0-.19-.51.82.82,0,0,0-.55-.17,1,1,0,0,0-.51.13.92.92,0,0,0-.32.33l-.32-.24a.87.87,0,0,1,.16-.23,1,1,0,0,1,.25-.21,1.73,1.73,0,0,1,.34-.14,1.88,1.88,0,0,1,.43,0,1.28,1.28,0,0,1,.87.28,1,1,0,0,1,.32.77v1.7h.43v.42Zm-1.43-.33a1.16,1.16,0,0,0,.34,0,1.11,1.11,0,0,0,.27-.12.77.77,0,0,0,.18-.18.43.43,0,0,0,.06-.22v-.51h-.66a1.25,1.25,0,0,0-.63.12.39.39,0,0,0-.2.35v.12a.45.45,0,0,0,.17.37A.82.82,0,0,0,34.59,185.89Z"/><path class="cls-19" d="M38.6,186.22a.64.64,0,0,1-.52-.2.76.76,0,0,1-.16-.51v-2h-1v-.42h.77a.3.3,0,0,0,.22-.06.32.32,0,0,0,.06-.22V182h.47v1.09h1.41v.42H38.4v2.26h1.41v.42Z"/><path class="cls-19" d="M43.22,186.22a.51.51,0,0,1-.4-.14.73.73,0,0,1-.15-.37h0a.89.89,0,0,1-.33.43,1.07,1.07,0,0,1-.6.15,1.14,1.14,0,0,1-.78-.25.88.88,0,0,1-.28-.69.79.79,0,0,1,.31-.67,1.79,1.79,0,0,1,1-.23h.66v-.31a.69.69,0,0,0-.19-.51.82.82,0,0,0-.55-.17,1,1,0,0,0-.51.13.92.92,0,0,0-.32.33l-.32-.24a.87.87,0,0,1,.16-.23,1,1,0,0,1,.25-.21,1.73,1.73,0,0,1,.34-.14,1.88,1.88,0,0,1,.43,0,1.28,1.28,0,0,1,.87.28,1,1,0,0,1,.32.77v1.7h.43v.42Zm-1.43-.33a1.16,1.16,0,0,0,.34,0,1.11,1.11,0,0,0,.27-.12.77.77,0,0,0,.18-.18.43.43,0,0,0,.06-.22v-.51H42a1.25,1.25,0,0,0-.63.12.39.39,0,0,0-.2.35v.12a.45.45,0,0,0,.17.37A.82.82,0,0,0,41.79,185.89Z"/><path class="cls-19" d="M49.3,186.29a1.64,1.64,0,0,1-.6-.11,1.25,1.25,0,0,1-.45-.33,1.44,1.44,0,0,1-.3-.51,2.28,2.28,0,0,1-.1-.66A2.11,2.11,0,0,1,48,184a1.42,1.42,0,0,1,.29-.51,1.12,1.12,0,0,1,.45-.32,1.41,1.41,0,0,1,1.14,0,1.23,1.23,0,0,1,.71.79,1.64,1.64,0,0,1,.1.6v.23H48.36v.14a1.12,1.12,0,0,0,.06.38.91.91,0,0,0,.19.3.79.79,0,0,0,.3.2,1.23,1.23,0,0,0,.39.07,1,1,0,0,0,.54-.15.88.88,0,0,0,.35-.39l.36.24a1.19,1.19,0,0,1-.46.51A1.52,1.52,0,0,1,49.3,186.29Zm0-2.84a.86.86,0,0,0-.36.07.84.84,0,0,0-.29.2.81.81,0,0,0-.19.29,1,1,0,0,0-.07.38v0h1.77v-.06a1.12,1.12,0,0,0-.06-.38.92.92,0,0,0-.17-.29,1,1,0,0,0-.27-.19A1,1,0,0,0,49.27,183.45Z"/><path class="cls-19" d="M51.64,186.22v-3.1h.48v.51h0a.94.94,0,0,1,.12-.22,1.07,1.07,0,0,1,.18-.19.83.83,0,0,1,.25-.12,1.09,1.09,0,0,1,.33,0,1,1,0,0,1,.78.31,1.21,1.21,0,0,1,.3.87v2h-.48v-1.9a.91.91,0,0,0-.19-.64.7.7,0,0,0-.54-.2,1.43,1.43,0,0,0-.29,0,.88.88,0,0,0-.24.11.66.66,0,0,0-.18.19.53.53,0,0,0-.06.26v2.15Z"/><path class="cls-19" d="M56.6,186.22a.64.64,0,0,1-.52-.2.76.76,0,0,1-.16-.51v-2h-1v-.42h.77a.3.3,0,0,0,.22-.06.32.32,0,0,0,.07-.22V182h.46v1.09h1.41v.42H56.4v2.26h1.41v.42Z"/><path class="cls-19" d="M58.71,185.8h.91v-2.26h-.91v-.42H60.1v.78h0a1,1,0,0,1,.36-.57,1.08,1.08,0,0,1,.68-.21h.43v.48H61a1,1,0,0,0-.67.24.82.82,0,0,0-.25.63v1.33h1.2v.42H58.71Z"/><path class="cls-19" d="M64.65,183.12h.48L63.6,186.9l-.12.23a.81.81,0,0,1-.16.16.9.9,0,0,1-.22.1,1.23,1.23,0,0,1-.29,0h-.46V187h.72l.35-.84-1.25-3h.49l.52,1.3.47,1.17h0l.46-1.17Z"/><path class="cls-19" d="M69.23,183.12h.43L70,185.8h.06l.52-2.68h.53l.53,2.68h0l.36-2.68h.41l-.47,3.1h-.63l-.49-2.59h0l-.5,2.59h-.62Z"/><path class="cls-19" d="M73.29,185.8H74.4v-2.26H73.29v-.42h1.59v2.68h1.05v.42H73.29Zm1.35-3.36a.39.39,0,0,1-.29-.09.29.29,0,0,1-.08-.22V182a.29.29,0,0,1,.08-.22.39.39,0,0,1,.29-.09.41.41,0,0,1,.3.09A.33.33,0,0,1,75,182v.09a.33.33,0,0,1-.08.22A.41.41,0,0,1,74.64,182.44Z"/><path class="cls-19" d="M76.73,185.8h1.08v-3.61H76.73v-.41h1.56v4h1.08v.42H76.73Z"/><path class="cls-19" d="M80.33,185.8h1.08v-3.61H80.33v-.41h1.56v4H83v.42H80.33Z"/><path class="cls-19" d="M14.42,193.42a.51.51,0,0,1-.4-.14.73.73,0,0,1-.15-.36h0a.92.92,0,0,1-.33.42,1.07,1.07,0,0,1-.6.15,1.14,1.14,0,0,1-.78-.25.88.88,0,0,1-.28-.69.79.79,0,0,1,.31-.67,1.79,1.79,0,0,1,1-.23h.66v-.31a.69.69,0,0,0-.19-.51.82.82,0,0,0-.55-.16,1,1,0,0,0-.51.12.92.92,0,0,0-.32.33l-.32-.24a.87.87,0,0,1,.16-.23,1,1,0,0,1,.25-.21,1.73,1.73,0,0,1,.34-.14,1.88,1.88,0,0,1,.43-.05,1.28,1.28,0,0,1,.87.28,1,1,0,0,1,.32.77V193h.43v.42ZM13,193.09a1.16,1.16,0,0,0,.34-.05,1.11,1.11,0,0,0,.27-.12.58.58,0,0,0,.17-.18.36.36,0,0,0,.07-.22V192h-.66a1.25,1.25,0,0,0-.63.12.39.39,0,0,0-.2.35v.12a.45.45,0,0,0,.17.37A.8.8,0,0,0,13,193.09Z"/><path class="cls-19" d="M17.6,192.92h0a1,1,0,0,1-1,.57,1.05,1.05,0,0,1-.89-.42,2,2,0,0,1-.32-1.2,2,2,0,0,1,.32-1.19,1,1,0,0,1,.89-.43,1,1,0,0,1,1,.58h0V189h.48v4.44H17.6Zm-.79.15a.94.94,0,0,0,.3,0,.77.77,0,0,0,.26-.12.67.67,0,0,0,.17-.2.6.6,0,0,0,.06-.27v-1.12a.6.6,0,0,0-.06-.27.82.82,0,0,0-.17-.2,1,1,0,0,0-.26-.12,1,1,0,0,0-.3,0,.82.82,0,0,0-.65.25,1,1,0,0,0-.23.68v.52a.94.94,0,0,0,.23.68A.83.83,0,0,0,16.81,193.07Z"/><path class="cls-19" d="M21.2,192.92h0a1,1,0,0,1-1,.57,1.05,1.05,0,0,1-.89-.42,2,2,0,0,1-.32-1.2,2,2,0,0,1,.32-1.19,1,1,0,0,1,.89-.43,1,1,0,0,1,1,.58h0V189h.48v4.44H21.2Zm-.79.15a.94.94,0,0,0,.3,0,.77.77,0,0,0,.26-.12.67.67,0,0,0,.17-.2.6.6,0,0,0,.06-.27v-1.12a.6.6,0,0,0-.06-.27.82.82,0,0,0-.17-.2,1,1,0,0,0-.26-.12,1,1,0,0,0-.3,0,.82.82,0,0,0-.65.25,1,1,0,0,0-.23.68v.52a.94.94,0,0,0,.23.68A.83.83,0,0,0,20.41,193.07Z"/><path class="cls-19" d="M26.17,193.42v-3.1h.45v.36h0a.81.81,0,0,1,.21-.3.5.5,0,0,1,.39-.13.54.54,0,0,1,.4.14.57.57,0,0,1,.16.35h0a.79.79,0,0,1,.24-.35.63.63,0,0,1,.43-.14.53.53,0,0,1,.51.26,1.89,1.89,0,0,1,.13.76v2.15h-.45v-2.07a1.19,1.19,0,0,0-.08-.55.3.3,0,0,0-.3-.15.43.43,0,0,0-.31.12.51.51,0,0,0-.12.37v2.28h-.44v-2.07a1.34,1.34,0,0,0-.08-.55.31.31,0,0,0-.29-.15.44.44,0,0,0-.32.12.51.51,0,0,0-.12.37v2.28Z"/><path class="cls-19" d="M31.25,193.49a1.5,1.5,0,0,1-.58-.11,1.25,1.25,0,0,1-.45-.33,1.56,1.56,0,0,1-.28-.51,2.5,2.5,0,0,1,0-1.33,1.52,1.52,0,0,1,.28-.52,1.12,1.12,0,0,1,.45-.32,1.46,1.46,0,0,1,1.16,0,1.12,1.12,0,0,1,.45.32,1.52,1.52,0,0,1,.28.52,2.5,2.5,0,0,1,0,1.33,1.56,1.56,0,0,1-.28.51,1.25,1.25,0,0,1-.45.33A1.5,1.5,0,0,1,31.25,193.49Zm0-.41a.9.9,0,0,0,.65-.24,1,1,0,0,0,.24-.75v-.44a1,1,0,0,0-.24-.74,1,1,0,0,0-1.3,0,1,1,0,0,0-.24.74v.44a1,1,0,0,0,.24.75A.9.9,0,0,0,31.25,193.08Z"/><path class="cls-19" d="M33.51,193h.91v-2.26h-.91v-.42H34.9v.78h0a1,1,0,0,1,.36-.57,1.08,1.08,0,0,1,.68-.21h.43v.48h-.58a1,1,0,0,0-.67.24.82.82,0,0,0-.25.63V193h1.2v.42H33.51Z"/><path class="cls-19" d="M38.5,193.49a1.64,1.64,0,0,1-.6-.11,1.25,1.25,0,0,1-.45-.33,1.44,1.44,0,0,1-.3-.51,2.28,2.28,0,0,1-.1-.66,2,2,0,0,1,.11-.67,1.38,1.38,0,0,1,.29-.52,1.12,1.12,0,0,1,.45-.32,1.41,1.41,0,0,1,1.14,0,1.23,1.23,0,0,1,.71.79,1.64,1.64,0,0,1,.1.6V192H37.56v.14a1.12,1.12,0,0,0,.06.38.91.91,0,0,0,.19.3.79.79,0,0,0,.3.2,1.23,1.23,0,0,0,.39.07,1,1,0,0,0,.54-.15.83.83,0,0,0,.35-.39l.36.24a1.19,1.19,0,0,1-.46.51A1.52,1.52,0,0,1,38.5,193.49Zm0-2.84a.86.86,0,0,0-.36.07.84.84,0,0,0-.29.2.81.81,0,0,0-.19.29,1,1,0,0,0-.07.38v0h1.77v-.06a1.12,1.12,0,0,0-.06-.38.92.92,0,0,0-.17-.29,1,1,0,0,0-.27-.19A1,1,0,0,0,38.47,190.65Z"/><path class="cls-19" d="M44.33,193h1.08v-3.61H44.33V189h1.56v4H47v.42H44.33Z"/><path class="cls-19" d="M49.3,193.49a1.64,1.64,0,0,1-.6-.11,1.25,1.25,0,0,1-.45-.33,1.44,1.44,0,0,1-.3-.51,2.28,2.28,0,0,1-.1-.66,2,2,0,0,1,.11-.67,1.38,1.38,0,0,1,.29-.52,1.12,1.12,0,0,1,.45-.32,1.41,1.41,0,0,1,1.14,0,1.23,1.23,0,0,1,.71.79,1.64,1.64,0,0,1,.1.6V192H48.36v.14a1.12,1.12,0,0,0,.06.38.91.91,0,0,0,.19.3.79.79,0,0,0,.3.2,1.23,1.23,0,0,0,.39.07,1,1,0,0,0,.54-.15.83.83,0,0,0,.35-.39l.36.24a1.19,1.19,0,0,1-.46.51A1.52,1.52,0,0,1,49.3,193.49Zm0-2.84a.86.86,0,0,0-.36.07.84.84,0,0,0-.29.2.81.81,0,0,0-.19.29,1,1,0,0,0-.07.38v0h1.77v-.06a1.12,1.12,0,0,0-.06-.38.92.92,0,0,0-.17-.29,1,1,0,0,0-.27-.19A1,1,0,0,0,49.27,190.65Z"/><path class="cls-19" d="M54,193.42a.51.51,0,0,1-.4-.14.73.73,0,0,1-.15-.36h0a.92.92,0,0,1-.33.42,1.07,1.07,0,0,1-.6.15,1.14,1.14,0,0,1-.78-.25.88.88,0,0,1-.28-.69.79.79,0,0,1,.31-.67,1.79,1.79,0,0,1,1-.23h.66v-.31a.69.69,0,0,0-.19-.51.82.82,0,0,0-.55-.16,1,1,0,0,0-.51.12.92.92,0,0,0-.32.33l-.32-.24a.87.87,0,0,1,.16-.23,1,1,0,0,1,.25-.21,1.73,1.73,0,0,1,.34-.14,1.88,1.88,0,0,1,.43-.05,1.28,1.28,0,0,1,.87.28,1,1,0,0,1,.32.77V193h.43v.42Zm-1.43-.33a1.16,1.16,0,0,0,.34-.05,1.11,1.11,0,0,0,.27-.12.77.77,0,0,0,.18-.18.43.43,0,0,0,.06-.22V192h-.66a1.25,1.25,0,0,0-.63.12.39.39,0,0,0-.2.35v.12a.45.45,0,0,0,.17.37A.82.82,0,0,0,52.59,193.09Z"/><path class="cls-19" d="M56.15,193.42,55,190.32h.49l.44,1.3.48,1.4h0l.48-1.4.44-1.3h.48l-1.11,3.1Z"/><path class="cls-19" d="M60.1,193.49a1.64,1.64,0,0,1-.6-.11,1.25,1.25,0,0,1-.45-.33,1.44,1.44,0,0,1-.3-.51,2.28,2.28,0,0,1-.1-.66,2,2,0,0,1,.11-.67,1.38,1.38,0,0,1,.29-.52,1.12,1.12,0,0,1,.45-.32,1.34,1.34,0,0,1,.58-.12,1.31,1.31,0,0,1,.56.12,1.23,1.23,0,0,1,.71.79,1.64,1.64,0,0,1,.1.6V192H59.16v.14a1.12,1.12,0,0,0,.06.38.91.91,0,0,0,.19.3.79.79,0,0,0,.3.2,1.23,1.23,0,0,0,.39.07,1,1,0,0,0,.55-.15.87.87,0,0,0,.34-.39l.36.24a1.19,1.19,0,0,1-.46.51A1.52,1.52,0,0,1,60.1,193.49Zm0-2.84a.87.87,0,0,0-.37.07.84.84,0,0,0-.29.2.81.81,0,0,0-.19.29,1,1,0,0,0-.07.38v0h1.77v-.06a1.12,1.12,0,0,0-.06-.38.92.92,0,0,0-.17-.29,1,1,0,0,0-.27-.19A1,1,0,0,0,60.08,190.65Z"/><path class="cls-19" d="M63.69,193.49a1.94,1.94,0,0,1-.84-.16,1.89,1.89,0,0,1-.6-.45l.33-.28a1.59,1.59,0,0,0,.48.36,1.41,1.41,0,0,0,.64.13,1.15,1.15,0,0,0,.59-.13.44.44,0,0,0,.23-.41.42.42,0,0,0,0-.2.53.53,0,0,0-.13-.13l-.17-.07-.2-.05-.49-.07-.35-.06a1.35,1.35,0,0,1-.35-.14.77.77,0,0,1-.26-.25.71.71,0,0,1-.1-.41.84.84,0,0,1,.09-.4.89.89,0,0,1,.26-.29,1.12,1.12,0,0,1,.4-.17,2,2,0,0,1,.5-.06,1.75,1.75,0,0,1,.72.13,1.58,1.58,0,0,1,.54.37l-.32.29a.8.8,0,0,0-.13-.13,1,1,0,0,0-.2-.13,1.07,1.07,0,0,0-.27-.09,2,2,0,0,0-.36,0,1.05,1.05,0,0,0-.56.13.41.41,0,0,0-.2.36.46.46,0,0,0,.05.21.34.34,0,0,0,.12.12.49.49,0,0,0,.18.08l.2,0,.48.08.36.06a1.43,1.43,0,0,1,.34.14.77.77,0,0,1,.26.25.71.71,0,0,1,.11.41.83.83,0,0,1-.36.71A1.62,1.62,0,0,1,63.69,193.49Z"/><path class="cls-19" d="M69.69,193H70.8v-2.26H69.69v-.42h1.59V193h1v.42H69.69ZM71,189.64a.39.39,0,0,1-.29-.09.29.29,0,0,1-.08-.22v-.09a.29.29,0,0,1,.08-.22.39.39,0,0,1,.29-.09.41.41,0,0,1,.3.09.33.33,0,0,1,.08.22v.09a.33.33,0,0,1-.08.22A.41.41,0,0,1,71,189.64Z"/><path class="cls-19" d="M73.24,193.42v-3.1h.48v.51h0l.12-.22a1.07,1.07,0,0,1,.18-.19.83.83,0,0,1,.25-.12,1.16,1.16,0,0,1,.34-.05,1,1,0,0,1,.78.31,1.25,1.25,0,0,1,.29.87v2h-.48v-1.9a.91.91,0,0,0-.19-.64.7.7,0,0,0-.54-.2,1.27,1.27,0,0,0-.28,0,.82.82,0,0,0-.25.11.52.52,0,0,0-.17.19.44.44,0,0,0-.07.26v2.15Z"/><path class="cls-19" d="M13.4,200.62a.64.64,0,0,1-.52-.2.76.76,0,0,1-.16-.51v-2h-1v-.42h.77a.3.3,0,0,0,.22-.06.32.32,0,0,0,.06-.22v-.81h.47v1.09h1.41v.42H13.2v2.27h1.41v.41Z"/><path class="cls-19" d="M15.64,196.18h.48V198h0a.94.94,0,0,1,.12-.22.77.77,0,0,1,.18-.18.66.66,0,0,1,.25-.13,1.09,1.09,0,0,1,.33-.05,1,1,0,0,1,.78.31,1.21,1.21,0,0,1,.3.87v2h-.48v-1.9a.91.91,0,0,0-.19-.64.7.7,0,0,0-.54-.2,1.43,1.43,0,0,0-.29,0,.88.88,0,0,0-.24.11.66.66,0,0,0-.18.19.53.53,0,0,0-.06.26v2.15h-.48Z"/><path class="cls-19" d="M20.5,200.69a1.64,1.64,0,0,1-.6-.11,1.39,1.39,0,0,1-.46-.33,1.58,1.58,0,0,1-.29-.51,2.28,2.28,0,0,1-.1-.66,2,2,0,0,1,.11-.67,1.46,1.46,0,0,1,.29-.52,1.12,1.12,0,0,1,.45-.32,1.41,1.41,0,0,1,1.14,0,1.23,1.23,0,0,1,.71.79,1.64,1.64,0,0,1,.1.6v.23H19.56v.14a1.12,1.12,0,0,0,.06.38.91.91,0,0,0,.19.3.79.79,0,0,0,.3.2,1.23,1.23,0,0,0,.39.07,1,1,0,0,0,.54-.15.83.83,0,0,0,.35-.39l.36.24a1.19,1.19,0,0,1-.46.51A1.52,1.52,0,0,1,20.5,200.69Zm0-2.84a.86.86,0,0,0-.36.07,1,1,0,0,0-.49.49,1.16,1.16,0,0,0-.06.38v0h1.77v-.06a1.12,1.12,0,0,0-.06-.38.79.79,0,0,0-.18-.29.77.77,0,0,0-.27-.19A1,1,0,0,0,20.47,197.85Z"/><path class="cls-19" d="M27.8,200.62a.64.64,0,0,1-.52-.2.76.76,0,0,1-.16-.51v-2h-1v-.42h.77a.3.3,0,0,0,.22-.06.32.32,0,0,0,.06-.22v-.81h.47v1.09H29v.42H27.6v2.27H29v.41Z"/><path class="cls-19" d="M29.91,200.21h.91v-2.27h-.91v-.42H31.3v.78h0a1,1,0,0,1,.36-.57,1.08,1.08,0,0,1,.68-.21h.43V198h-.58a1,1,0,0,0-.67.24.82.82,0,0,0-.25.63v1.34h1.2v.41H29.91Z"/><path class="cls-19" d="M34.9,200.69a1.64,1.64,0,0,1-.6-.11,1.25,1.25,0,0,1-.45-.33,1.44,1.44,0,0,1-.3-.51,2.28,2.28,0,0,1-.1-.66,2,2,0,0,1,.11-.67,1.46,1.46,0,0,1,.29-.52,1.12,1.12,0,0,1,.45-.32,1.41,1.41,0,0,1,1.14,0,1.23,1.23,0,0,1,.71.79,1.64,1.64,0,0,1,.1.6v.23H34v.14a1.12,1.12,0,0,0,.06.38.91.91,0,0,0,.19.3.79.79,0,0,0,.3.2,1.23,1.23,0,0,0,.39.07,1,1,0,0,0,.54-.15.83.83,0,0,0,.35-.39l.36.24a1.19,1.19,0,0,1-.46.51A1.52,1.52,0,0,1,34.9,200.69Zm0-2.84a.86.86,0,0,0-.36.07.84.84,0,0,0-.29.2.81.81,0,0,0-.19.29,1,1,0,0,0-.07.38v0h1.77v-.06a1.12,1.12,0,0,0-.06-.38.92.92,0,0,0-.17-.29,1,1,0,0,0-.27-.19A1,1,0,0,0,34.87,197.85Z"/><path class="cls-19" d="M38.5,200.69a1.64,1.64,0,0,1-.6-.11,1.25,1.25,0,0,1-.45-.33,1.44,1.44,0,0,1-.3-.51,2.28,2.28,0,0,1-.1-.66,2,2,0,0,1,.11-.67,1.46,1.46,0,0,1,.29-.52,1.12,1.12,0,0,1,.45-.32,1.41,1.41,0,0,1,1.14,0,1.23,1.23,0,0,1,.71.79,1.64,1.64,0,0,1,.1.6v.23H37.56v.14a1.12,1.12,0,0,0,.06.38.91.91,0,0,0,.19.3.79.79,0,0,0,.3.2,1.23,1.23,0,0,0,.39.07,1,1,0,0,0,.54-.15.83.83,0,0,0,.35-.39l.36.24a1.19,1.19,0,0,1-.46.51A1.52,1.52,0,0,1,38.5,200.69Zm0-2.84a.86.86,0,0,0-.36.07.84.84,0,0,0-.29.2.81.81,0,0,0-.19.29,1,1,0,0,0-.07.38v0h1.77v-.06a1.12,1.12,0,0,0-.06-.38.92.92,0,0,0-.17-.29,1,1,0,0,0-.27-.19A1,1,0,0,0,38.47,197.85Z"/><path class="cls-19" d="M42.05,200.67a.45.45,0,0,1-.34-.1.34.34,0,0,1-.1-.26v-.1a.34.34,0,0,1,.1-.26.45.45,0,0,1,.34-.11.49.49,0,0,1,.35.11.37.37,0,0,1,.09.26v.1a.37.37,0,0,1-.09.26A.49.49,0,0,1,42.05,200.67Z"/></g></g></svg>