<svg id="Layer_1" data-name="Layer 1" xmlns="http://www.w3.org/2000/svg" xmlns:xlink="http://www.w3.org/1999/xlink" viewBox="0 0 233.87 250.24"><defs><style>.cls-1{fill:none;}.cls-2{fill:#6c613c;}.cls-3{fill:#799056;stroke:#000;stroke-miterlimit:10;stroke-width:0.5px;}.cls-4{fill:#b7c49d;}.cls-5{clip-path:url(#clip-path);}.cls-6{fill:#0c0d0d;}.cls-7{fill:#78543c;}.cls-8{fill:#4f3a25;}.cls-9{clip-path:url(#clip-path-2);}.cls-10{fill:#0f0f0f;}.cls-11{fill:#768b49;}.cls-12{clip-path:url(#clip-path-3);}.cls-13{clip-path:url(#clip-path-4);}.cls-14{clip-path:url(#clip-path-5);}.cls-15{clip-path:url(#clip-path-6);}.cls-16{clip-path:url(#clip-path-7);}.cls-17{clip-path:url(#clip-path-8);}.cls-18{fill:#b5becb;}.cls-19{clip-path:url(#clip-path-10);}.cls-20{fill:#050605;}.cls-21{fill:#7d5742;}.cls-22{isolation:isolate;}.cls-23{fill:#f8f8f8;}</style><clipPath id="clip-path"><rect class="cls-1" width="233.87" height="250.24"/></clipPath><clipPath id="clip-path-2"><rect class="cls-1" x="152.97" y="126.57" width="21.72" height="19.32"/></clipPath><clipPath id="clip-path-3"><rect class="cls-1" x="145.08" y="89.11" width="24.26" height="15.29"/></clipPath><clipPath id="clip-path-4"><rect class="cls-1" x="126.9" y="58.17" width="25.3" height="15.94"/></clipPath><clipPath id="clip-path-5"><rect class="cls-1" x="134.35" y="116.37" width="25.3" height="15.94"/></clipPath><clipPath id="clip-path-6"><rect class="cls-1" x="83.75" y="57.83" width="21.71" height="19.53"/></clipPath><clipPath id="clip-path-7"><rect class="cls-1" x="64.26" y="89.38" width="26.37" height="15.68"/></clipPath><clipPath id="clip-path-8"><rect class="cls-1" x="119.09" y="130.9" width="16.84" height="23.01" transform="translate(-41.52 231.65) rotate(-75.99)"/></clipPath><clipPath id="clip-path-10"><rect class="cls-1" x="-2.21" y="153.74" width="90.32" height="81.4"/></clipPath></defs><path id="Path_1571" data-name="Path 1571" class="cls-2" d="M116.34,133.65l3.85,6.16-.06,1.61-1.22-.95-1.64-.54.25,2.66-1.39,1.46-.8,3.08-.7,3.08h-2.15l-1.4-1.73-.53-2.06-2-1.63,1.5-1.14.25-2.2L107.46,139l1.68-1.18h2l-1.38-3.53-2.07.47-.14-1.64,2-1.42,1.84-.47.52,2.2,1.43.78,2.31-.23Z"/><path id="Path_1572" data-name="Path 1572" class="cls-3" d="M139.27,82.36m33.62,37.9-.1-2.1.57-1.23,2.25.75.1,2.45.78-1,2.44-1.22.52,1.43-1.19,1.08-.79,1.43,1.65.41.52,1.63-1.38-.07-.64,1.09,1.08.88.58,2.38,2.26.14v-3l1.93-.07-.31,1.08,2.45,1.5-1.87,4.41-2.28.81,3.2,1.15,2.1,2-2.37,1.9-1.85-.14-.89-.47-.31-1.49-1.17.06-2.3,1.9-1.63-.88.37-1.49.85-1.63.93-2.1-.79-1.9-2.15.75L174,129.17l.58-1.43-.87-1.42.45-1.9-1.72-.06-1.18,1-.8,2.31-1.6,1-2.2.27-1.35-1.36-1.74-2.5,2.9-.55,2.54-.41.86-1.15-1.18.14-2.41.2-2.52-1.09,5.38-1.15.1-1.77.1-1.43,1.77.89.38,1.55Zm11.87-19.93,2.14-2.76,2.49,1.82-.73,1.46-.72,1.37.4,1.73,2.87-.27.63,3.28-.9,1.8L189,109l-.5-1.29-.49-1.46-2,.43.92,2.07-1.32.77-2.08-.34-.75-1.29-1.72-1.12-1.67,1,1.51,2.67.05,1.89-2,.43-2.68-.43.89-1.37-1.53-2-3.55-.85.83-2.58L175,106l.21-1.9,2.31,1.38,2.27-.17-.91-2.42,1.24-1.46,2,.86,2.69.26ZM67.86,98.07l.1-2.65,2.84-.23,2.35,2.13-.7,1.06,2.66,2-1,3.26-2.74-1.37-1.67-.76-.32,2L72,105.94l1.38.77-1.09,1.81-1.37-.45L68.1,105.8l-.85,1.89-.1,2L66.83,111l-3.59.07-2.67-.61.17-1.89,2.3-.45,1.68-.23-1.44-2.27-1,1.14-.6-.82-.26-.82,1-.52.86-.07.89-1.73-.75-.93.2-1.09,1.18-.91,2.07.3ZM74.57,61l-1.29-1.6,5,2-.71,1.45-2.08.61-.47,1.23,1.84.61,1.07.91.83,1.6-.16,1.46-1.08.45-1.87,1.6-1,1.08-1.46,1.07-1.38-.84-2-1.38-.79,1.6-1.61.54L65.4,72l-1.07-1.37-1.08.84-.86,1.22h-1.3l-3.29-1.3,1.78-2,2.24-1.91,1.77.3L65,68.91l2.6,1.75,1.16-.76.32-2.14-2.37-1.37L64.3,66l-1.69-.77.87-3,2.63-1.69,1.52,1.91,1.71-2L71,59.9l.21,2.52Zm68.66-14.75.38-2.4.5-1.79,3.3.62,2.12,1.17,1.76,2L150,47.92l-2.87-1.3-1-.83-.59,2.61-1.74,1.51-1.65-.34L140,48.33l-1.58.27-1.39.48-.37-2.4,2.51-2,2.25,1.3.81,1.1Zm-62.9,3.72-.2-1.35,1.63-1.68,2.89-.59.61-1.19-.36-2.49,1.21-1,2.45-.7.52,1.89,2,.65,3.26.49.14,1.78L94.72,48l-1.26,1.4-1.67-.76-2.92-1.94-.55,1.13,1.45,1.73L89,52.34l-3.19-.59-.05-1.19-2.34.49-1.2.7Zm40.32-18.39,2.14-.27-.05-2,1.11-.68,4.25,1.84-.79,2,1.71.41,1.22,1.37.1,2.53-2.56,1.58L127,35.72l-1.46,1.71-2.18-1.1.43-1.92,1.47-1.16-3.86.28ZM109.49,0l-3,2.5-1.6,2.64L102.14,6,100,6.46,98.34,8.15l.92,2.64,3.39.18,2.81.82-.9,1.88-2.89-.06-2,1.88,7.16.94L108.6,18l-4.47.81-1.51.12L100.09,21l.85,1.93L103.62,24l.79,2.63-1.78,1.94-6.09-.88L94.85,28l-2.74-2.06L91.77,23l-1-2.07,2.82.63,1.37,1.56,1.65-2.39-2.65-4.26-1.39.88-.89.88-2.12-1.51-.81-2.07-1-2.44-1.22,3-.15,2.51-2.56-1.13-3-1.19L79.2,16.7l1.42,1.95L79.43,20l-1.71,1.25,3.88.88,1.29,3.31-3,2-1,.94,0,2.13L77.8,32.66l1.88.25,3.63.71.6,2.5-2.47,2.56-2.6,2-2,2-4.47.88-3.5-1.24.08-1.88,2.7-.19,2.77-1.18.72-2.68-2.3-2.2-2.26-1.12-.49-2.31-4.25-1.12L64,31.94l-5.08-.5L59,29.19l-1.49-1.82,1-1.13,2.38,1.25,2.38.5L64,25.74,62.9,23.8l-3.26-.69-2.5-.32-.68-.94-2.52.25-.08,2.82-1.72,3.31-2.32.5-1.7.26-.44-2.08-.92-2.69-1.52.5-.33,2.57-2,1.12L41.27,27l-1.11-2.19L39,25.65l-2-.18-.94,1.25L36.49,29,36,32.24l-4.46,1L30.15,35.3l5.33.56,1.3,2.75-2.2,1,.25,1.94,2.49,2.05,2.33-1.06-.24-3.24,2.56.62L43,41.05l0,1.44-.7,1.43,2.2-1.06.74,1.81-1.7.62-1.57,1.5,1.69,1L46.06,47l1.2-1.56,2.17,4-3.08,2.06-.68.93-2.14.69,1.85,4.47,1.56.69,3.27-1.37L53.39,58,54.63,60l1.83-1.49L59.3,55l-2.55-1.87,2.78-2.24,1.67,1.63,1.42,2.74-.83,2.49-1.08,3.7-4.45-.19-.47,2.86L53,64.21,51,63.09l-4,2.17-3.76.88-.58,3,2.4,5.28-3.88.5L38,78.3l-4.05-1.67-1.5-1.12-1.39,2.6-2.17-3.6,2.26-1.36,2.68,1,2.38-.62,2.57-2.17-2.66-4.91-2.5-.06.08-2.3-1.18-.18-1.26,1.61-2.48-3.85-.49-1.24L23.39,61l.8,3.24-4.12-.62-1.76-2.49-4.07.94L14.17,64l1.36,3.49-1.27,2.8-3.68-1.73-1-.13,1.05,3.35.06,1.68-2.08.92,1.69,1.68,4,1.43,2.17,3.3L14,81.18l2.8,2.17L16,85.83l-4.3-.56-1,2.35,1.55,2.11,1.87.55,1.11,2.1,2.38-.86,2.26-2.78,2.68.43,2.62,2L28,90l3.08-4.51L34.28,90l-1.45,3-1.92-1-2.83,2.91,4.55,2,.93,1.61-.7,1.91-6-2.67.55,2.37,1.48,2.41,1.8,1.24-1.56,1.86-3.3.55-1.64,2.22L21,107.5l-1.23-2,1.87.06.14-4-.42-3-5-.62-1.2,2-.57,4.15-1.14,4-2.62,2.09L8.26,110l-2-1.44-3.86.24,1.78,5.54,5.42,1,2.23,2.34-1.69,2-2.55.06,1.05,2.71,6-1.67.79,3.64,1.68.55,3-3.38-1-4.68,0-2.9,3-.67L25.72,119l-1.14,3.56-2.06,2L19.39,128l2.18,3.11-1.63.85-2,.56,3,2.09,3.23,1.71.67-.08,3.93-.47.59-4.91-3.17-2.88,1.64-2.34,7,2.07,1.08-4.06.58-4.12-2-3.19,2.67.61,1,4.56,2.41,3,1.58-5.35,2.07-1.29,3.58,3.51.61,2.76L38.45,128l-1.7,3.38L39,134.13l-3.8.92-.63,1.31,1.17,2,1.72,4,.8,1.22,1.85,1.35,1.69-2.33.9-4.53,1.38-1.9,2.84,2.94.85,2.46,2.11.85.59,4.8-3,.73h0L43,147.71l-1.13,1.1L41,152.67,43.06,155l1.1,2.5,3.9,1.58,1.08-1.36-1.69-2.08.32-1.77,2.31-1.29,1.71,1.58.29,2,2.5.78.32-2.07-.59-2.27,2.51-.4L59,155.26l2.41-.4.42-1.49-.69-2.08-.79-1.77.32-2.39,2-1.18,1.2,1.88,2.83-1.19,0-1.69,0-1.68-2.21-.7-2.1-1-2.1-1-.18-3.08,3.34-1.68h1.9l.56-1.16.56-1.15-3-1.69-.89-2.38.42-2.29h1.81l2.12-.7.82-1.89.87-.3.88-.3.58-.2.88,2.29,1.5,1.09-2.34,1.79-1.23,2.18,1.7,1.69,2.93-.59.33-2.88,1.61-.2.49,1.39.24-.82.24-.81,1.2-.93,2-.15.13-1.52-.69-.83-2.64.34L73,121.9l.34-2.2L72,118.12l1.21-1.73,2.23.16.26-2.21L77,115.53l.94,1.41,1,.48-.82,2.6.85,2.66,2.72-1.17.74-1.81,1.12-.79,1.43.16-.37-3.15.1-1.58,1.2-.47,1.3-2.88,1.85-.75,1.49,2.06-1.52,1.26.86,1,3.59-.16,2.46.48.92,2.91-.35,2.28-1.39,2.67-1.74-.16-.61-2.52-4,1,1.89,2.59,1.7,4,.13,2.5,2.21,2.12,2,.25.29,1.65-1.12.93-1.77,1.41.22,2.51,1.1,1.1,1.44-.39,1.43-.39,2.1-2.74.71.15.72.16,1,1.25,1,1.26,1.87,3.9.09.18,2,1.73.66-.5,1.5-1.15.26-2.19L107.46,139l1.68-1.18h2l-1.39-3.53-2.07.47-.14-1.64,2-1.42,1.84-.47.52,2.2,1.42.79,2.31-.24.72-.36,1-.49-.69-1.5-1.9-1.41.5-1.1,1.36.79,1.77-.12.63,0,.47-1.38.37-2-1.49-1.7-1.57.13-1.57.14-.54-1.94-.15-1.45-.48.57-2.52,3-2.64.66-.64-2.2,2.53-.84-.37-1.87-2.73-1.39,1.25-1.74,3-1.27-1-2.55,2.36-.49,1.21-2.71-.26-1.55,1.13-.31,1.12-.3,1.29.16,1.28.17,2-.44,1,2,.12,2.16.06,1-.07,1.16,1.49,1.22-.46.88.5.64.49.63,1.62-.11,1.62-.11.67-2.25-.15-1.5,2.28,1.22.41,2.38.37,1.82-.48,1.67-1.23.55-1.47,1,.42.36,1.13,1h1.84l.15,1.11.26,1.1,1,.5,1.45.33,1.42-1.55.18-1.32-1.49-1.22.59-1.6,2.18-.61.93,1.66,1.18.16,1.17.17,1.41-.89-.19-2.15.84-.17,1.34.11,1-1.16-.91-2.27L141.1,116l-1,.94-1.46.67-1-2.89.36-1.71,1.13-.67,1.56.56h1.74l1.15-2.11-.25-2.22,1-.33,1.16,2.27,1.41-.61,1.78,1,1,1.6.15.93.25,1.56-1.11,3-1.41.88-1.51.4-.56.88-.31.65.54,1.6,1.56.39.2,1,1.67.72,1.9-.5,2.44-5.64,2.16,1.22.64,1.71.25,2.16-.09,2.37-1.64.55-.73.22.33,1.46,1.43,1.1,1.44,1.11-.08,1.22-1.3,1-.3,1.16,1.54,1.65.25,1.43-.57,1.49-1.52.49-1-1.87-1.7,1.1,1.4,2.75v0l.48,1.71-2.41.66-3.69-.06,0,2.16,1.92,2.36.87,1,0,0,1.64-.26.66-3,1.57-.61,1,2-2.25,1-1.26,1.55-.3,1.6.29.23,2.25,1.83.67.08,2.62.3,1.58-1.31-.42-1.38H162l2.06.5,1.13-1.15.29-.3-1.67-3.13-1.1-.88,2.38-2.31,3.81-.61,1.33.66.81-1.65.74-1,.23-.31,1.56.33,1.58,1.71.08,2.31-1.09,1.27,2.15,1.21L175,149.08l-2.18.23-.95.09,1.85,2.6.71,1,1.38,1,.52,2.14,2.68-.22,1.13-.71.27-2.25-2-1.54,3.09-1.05,1.42,1.37.8,2,.24,2.09,0,1.49,1.68.66,1.22.22,2.3-.44.88-2.31.35-1,1.17.22,2,1.92,2-.06,1.54-1.1.93-2.14-1.91-1.71-.48,1.32-3.39-.47-.58-1.16.74-1,1.46-.44.48-1.93-.24-1.81-2.11-.39L189.43,144l-.08-1.77,2.38-3.26,2.76.27.58,2.46.42,1.5,2.12.45,1.14,1.14-.31,1.84,3.57.18-.41,2.55-.38,1.4.51,1.06.51,1,2.87-.61.56,3,.33,1.32,2.56,1,1.43-.27,1.75-2.55-1.68-.61,4.11-.35,2.25-1-1.19-2.9-1.93-1.41,3.22-.27,2.38,1.33,1.24.35,1.8-.8-.09-3.87-1.14-.87-2.43,1.05-2-.08.22-1.5,1.37-1.24.67-2.46-3.26-1.76-1.65,2-1.19,1.32-2.72-1.85,1.75-2.64-.93-2.38-3.65-.88-1.64,1.85h-1.79l-.94-1.85,0-2.12-1.3-1.85-.84-.22-.86-.22-2.78.61-1.58-.79-.77-1.77-.13-2.48-2.83-1.84.14-2.13,1.44-.61,3.17,2.29,2.84-2.47,1.62-.53,2.87,3.54-.93,1.85.58,2.38,2.75,1,.14,2.12,2.34-1.24-1.16-4.24.68-2.56,2.49.8,1.3,1.85-.15,2.83,2.77-1.06.39-1.32,1.38,2.21,1.22,1.23,1.33-3.53-1.92-2.3-1.23-.8L218,121.3l3.14-.65.41-2.39-.21-2.65-.83-2.57-1.24-.53-1.5,3-1.49-1.6-2.58-.61-.25,3.45-1.63.7-.85-2.3.58-1.77L210.8,111l-2-1.5-1.54,1-1.13,2.39h-2.41l-1.29-2.48L202,107.2l-3.2-1.25.24-1.77.54-2.17-1.38-1.89.42-3.22,3.05-.14,3.39-3.37,1.53,1.48-.74,1.75,4.87.21,1.5-.35-.35,3.22.87,2.46,2.28,2.31,2.44,1.82.57-3.71,1.45-1.12.39-1.83-2.17-1.46.53-1.35,1.36-.41,1.26.28.74-1.4L219.94,94l-1.29-4.09-2.14-.71-3.36,1.26-3.67-.22-1.71-2.8L207.11,85l2.79-1,.66,2.11,1.69.63,3.06-.56.61-2-2.19-1,2.42-.3,2.36-1.05.32-1.78L218,77.39l.55-2.68-2.53-1-1,1.47-2.2.07,0-1.61-3.13.42-1,1.83-1.13,2.81-3-.57-2.07-2.81-1.82,2-.46,1.76-2.88-1.34L195.14,77l-1.47,2.9-.54,2.25-.68,2.11L191,84.15l-1.88-2-1.7-3.38L185.31,80l-.37-3,2.56-.92.62-2.53-.46-1.77,3.58-1.76,3.17,1.63,2.22-.91,1-2,1.06.56,1.62.42,1.24-1.62,1.35-.21.9,1.2,2.69.49-.22-2.74-2.32-1.28,1.11-2,2.13.07-.3-2.82-2.74-1.83-1.64.41-2.78.5-3-.91,1.82-2.12,1.35-.07,1.06.35,1.43-1.12.39-2-1.23-2.26-.4-1.34.45-1.13h-3.34l-.8-2.47,0-1.2-1.52-2.27-2.44,1.06-1.61,2.82-.41,3L189.75,52l-3-1,1.45,2L191,55.52l.37,2.68-1.5,1.42-4,.48-.18-1.55,1-.84-.58-3-2.1-2.26-3.18-.64-.73.92,1.33,5-.82,2L178,61.45l-1-2.15-4.13-1.45,1.52,3,.6,3.85-2.33,2-1.84-.56-.51-2.84-4-2.17-2.61,1.72-1.54,1.78-2.08-.44,3.12,6.82-3.53.22-2.35.28,2.34,4.21.39,3.25,3.21.44.14-3.19,1.95.62-.44,2.8.26,2.52,3.56.62,4.51-2.3L172.5,76l2.24-.7,2.23.44L176.8,80l2,2,1.16-5,3.16,3.28.35,5.31-1.3,2.37-1.76-1.51L178.87,84l-3.26,2.39,2.95,4.25-2.51.71-2.48-.88-1.8.75,0,2.22,2,1,2.47-.35.26,2.87-1.77,2.25-1.88-1.46-.91,3.41-1.84.42-3.06-2,1.74-2.37.73-2-2-2.72-1.73-1.4-1.31-2,.26-2.3-1.85-3.64-1.61-.49-.9,3.22,1.29,2.87-1.93,1.46h-5l-3.16-.77-.39,2.37,2.09,1.19-.24,2.3-1,2.44-3.72-.55-.6,2L146,97.72l.52-1.74,1.57-1.68-1.78-3.14-2.27-.69-2.59-.91-1.88-1.33,2.59-3.5-2.92-2.37-1.95,3.07-1.58,1.75L131.67,87l-2.9.21,2.86-1.75.5-.91-2.43-2.66-3.07,2.24.18-2.45,2.27-1.19L128.61,79l-1.25-1,2.35-1.75,1.48-.14,1.95,2.1,1.71-.84,1,1.82-.17,2.3,3.64.91,1.91-.42.66-1.61-1.92-2.72,1-2.59,2.33-.35,1.42,3.85,4.23.35.94-1.54L149,75.64l5.23-.17,2.62-.56-4.37-5.67L151.73,67l4.17-.42,1.62.77,1.9-.73-.14-.91.13-1.34-.46-1-.48-.24.59-1.34,1.45-3.59,1.27.55.75,1.42L164.2,60l.93-1.38-.49-2.08-1-2-.26-1.22-.77.07-.3-.76,1.85-.25L165,52l0-1.25-.74-1.11-.62-.52,1.72-.69.59.37.88-.9.78,1.47-.48,1.35.89,1,2.2-.35,1.46.07.05,1.25,1.59.79,1.89-.66.66-1.83-.71-1.19-1.45-.42-.06-2.46,1.42-1.6,2.11,1.29.68,2.57,2.74-.83.77-2,2.43,1,1-1.44-.2-1.34-.69-1.89,1-2.91.9-.56.42-1.27-4.1-1.83-.53,1.67-1.3,1-1-1.06-1.89-.44-1.75.72-2.18.83-2.39-.5-.75-1.39,1.8-1.22,1.5.5,1.84.33,1.41-1.11.15-1.95,1.57-.83-.13-1.89-2.31-1.39L174.4,28l.41-1.06.77-2.11-2.29-.22-2,1-.15,2-1.66-.45-1-1.39-1.39-.56-2,.9.52,2.61h-2.85l-1.1,2L164.11,32l.48,1.73-2.41,3.44-2.4.45L159,34.12l-2.64.56.54,1.5-1.64,1.16-.93-1.11.22-3.11L152.66,33l-1.69.67-2.46.16-.08-2.33,3,.61,1-1.22-1.76-1.73L148.49,28,147,24.87l1.3-.83,1.34.23L151,25.66l2.22,1.28,4.31-.89-2.84-4.17-1.13-2.62,1.8-1.23,2.12.39-.37-2.36L155,12.71l-1.61-.39-.7,1.34-1.37,1.5-1,3.13-1.18.16-1.27-1.28-1-.56-1.52.67-.75-1.67,2.13-.84,1.79-2.45,2.76-.84-.48-2.07-1.76-1-2.76,1.11-1.22-.73-1.33-2.19L144,5.2l-2.91.22-.44,2.9.59,2.12-4.62,2.29-1.75.95,2,2.34,2,1.06-1.11,3L135,19.68l-1.56-1.06-.62-.78-.56,1,0,2.16-1.66.5-.82-.13,1.35,1.92,2,.7-2.43,2.55-2.34,1.6-1.83-1.56.35-1.84-1.24-1.22-1.51-1.3-2.18.47-.72.7L121,21.14l.26-2.08L119.06,19l-1.59.43-1.06-2.86,3.65,0,1.13,1.06,1.72-2.12.49-1.22,1.78,1.38,1.21.54,1.55-1.06-.26-3.81-.13-1.84-2.52,0-1.46-.07-.84-1.57,0-2.79-1.36-2.22L120,2.6l-.41-1.18-.34-.83L116.68.43l-1.27.4,1.2,2,1,1.61-2.7,1.92-1.72-.47-.44-2.63L111,2.87l-.5-.82L110.39.27Z"/><path id="Path_1573" data-name="Path 1573" class="cls-4" d="M197.93,158.51l-.6,2.83h-3l-.58-2-3.25-.84-.74,1.53-.14,3.07-2.73.76-3.78-2.67-3-1.76-1.82,1.45L177.19,164l-2.46,2.45-2.07-1.14-1.61-1.3-2.62-1.23-1.06-1.91-2.85-1.3.57-1.84-2.7-.84-3.49-.54-.19-.75,11.19-2.78,3.79-.81.71,1,1.38,1,.52,2.14L179,156l1.12-.71.27-2.25-2-1.55,3.09-1,1.42,1.37.8,2,.24,2.09,0,1.47,1.67.66,1.22.22,2.3-.44.88-2.3.36-1,1.16.22,2,1.92,2,0Z"/><path id="Path_1574" data-name="Path 1574" class="cls-2" d="M183.15,80.2l.34,5.31-1.3,2.39-1.75-1.51L178.87,84l-3.26,2.39,3,4.25-2.51.71-2.48-.88-1.8.75.05,2.22,2,1,2.47-.35.26,2.88-1.77,2.25-1.88-1.46-.9,3.41-1.84.42-3.07-2,1.74-2.37.74-2-2-2.72-1.74-1.4-1.3-2,.25-2.3-1.85-3.64-1.61-.49L160.4,86l1.29,2.87-1.93,1.46h-5l-3.16-.77-.39,2.37,2.09,1.19-.24,2.3-1,2.44-3.72-.55-.59,2-1.74-1.6.52-1.75,1.58-1.67-1.79-3.14-2.27-.7-2.59-.91-1.88-1.32,2.59-3.5-2.92-2.38,1.91-.42.66-1.61-1.94-2.73,1-2.59,2.33-.35,1.43,3.85,4.23.35.94-1.54L149,75.63l5.23-.16,2.62-.56-4.36-5.68L151.74,67l4.17-.42,1.61.77,1.9-.73-.14-.91.14-1.34.74-.27,3.12,6.83-3.53.21-2.34.28,2.34,4.21.39,3.25,3.21.44.14-3.19,1.95.62-.44,2.8.26,2.52,3.56.62,4.51-2.3L172.52,76l2.25-.71,2.22.45-.16,4.25,2,2,1.16-5Z"/><path id="Path_1575" data-name="Path 1575" class="cls-4" d="M96.71,132.58l.3,1.65-1.12.94-1.77,1.41.22,2.51,1.1,1.1-.3,1.78-1.87,1.91-2.54-.09-2.17-2.95,1-2.08-.24-1.56-4.2-2.52-1.5,1-.45,1.22v.86l-3.65-4.73.07-5.24.12-1.52-.69-.84-2.65.35L73,121.9l.33-2.2L72,118.12l1.21-1.74,2.23.16.26-2.21L77,115.51l.94,1.42,1,.47-.82,2.6.85,2.67,2.73-1.17.73-1.82,1.12-.78,1.43.16-.36-3.16.1-1.57,1.19-.47,1.3-2.88,1.85-.74,1.49,2.05-1.52,1.26.86,1,3.59-.16,2.46.48.92,2.91-.34,2.28-1.39,2.68-1.75-.17-.61-2.51-4,1,1.88,2.59,1.71,4,.13,2.51,2.2,2.12Z"/><path id="Path_1576" data-name="Path 1576" class="cls-2" d="M75.11,100.42l-1,3.26-2.74-1.37-1.68-.76-.32,2L72,105.94l1.38.76-1.08,1.82-1.38-.46-2.81-2.27-.85,1.89-.1,2-.32,1.21-3.6.08-2.67-.6.17-1.9,2.3-.45,1.68-.23-1.42-2.27-1,1.13-.61-.81-.26-.82,1-.52.87-.08.88-1.72-.75-.93.2-1.09,1.18-.91,2.06.3,1-2.05.1-2.65,2.83-.22,2.35,2.12-.7,1.06Z"/><path id="Path_1577" data-name="Path 1577" class="cls-4" d="M47.75,121.35l.61,2.76L38.44,128l-1.71,3.38L39,134.13l-3.8.91-.62,1.31,1.17,2,1.71,4,.8,1.23,1.86,1.35-1.68,1.83-1.1.42L34.54,146l-1.72,1.4.24,2.68-2.38-.2L28,148.26l-2.51.24-2.37-1.58-1.08-1.59L20,144.91l-2.09,2.34-1.11,3.83-1.8-.52v-.76l.2-1.58-.66-1.88,1.38-1.22-2.46-2.19.77-2.3,3,.61,1.52-1-.37-2.36.82-1.69,1.47.05,1.1,1.27,1.89.8,1.52-.61-.39-1.51,3.93-.47.58-4.92L26.17,128l1.63-2.34,7,2.07,1.08-4.06.58-4.12-2-3.19,2.68.61,1,4.55,2.41,3,1.59-5.35,2.06-1.3Z"/><g id="Group_291" data-name="Group 291"><g class="cls-5"><g id="Group_290" data-name="Group 290"><path id="Path_1578" data-name="Path 1578" class="cls-6" d="M56.5,79a56.66,56.66,0,0,0,4.09,6.6,12.68,12.68,0,0,0,10,5.11c4.14.24,7.53,2.81,10.21,7.17a3,3,0,0,1,.46,1.35A37.23,37.23,0,0,0,83.49,109c3.34,9,8.47,15.37,15.19,19.27,3.8,2.2,6,6.1,6.88,11.66a52,52,0,0,1,.19,10.8,15.23,15.23,0,0,1-.83,4.53c-.84,2.24-2.33,2.86-3.9,1.55a9.82,9.82,0,0,1-2.37-3.62c-1.22-2.74-2.2-5.64-3.28-8.48-3.18-8.35-7.5-15-14.18-18a16.51,16.51,0,0,0-7.47-1.92,4.93,4.93,0,0,0-4.29,2.41,4.15,4.15,0,0,0,.07,4.56,5.13,5.13,0,0,0,2.48,2c1.4.5,2.82.87,4.2,1.43a14.72,14.72,0,0,1,5.73,4.32c-.4.35-.72.23-1,.28-1.26.17-2.54.27-3.8.56a22.85,22.85,0,0,0-9,4.3c-.5.39-.83.28-1.23-.28-.75-1.07-1.53-2.09-2.35-3.07a25.25,25.25,0,0,0-6.95-6.4c-.87-.47-1.48-.14-1.81,1a2,2,0,0,0,.75,2.4c3.2,1.78,5.66,5,8.13,8.15.42.55.41.91-.06,1.36A25.32,25.32,0,0,0,61.11,152a1.27,1.27,0,0,1-1.19.69c-1.3,0-2.61,0-3.91,0-.61,0-1,.31-1.23,1.15-.32,1.33.23,2.45,1.3,2.48,1.59,0,3.18,0,4.76,0a2,2,0,0,0,1.82-1.23A19.75,19.75,0,0,1,65,151.87c5.6-6.51,12.13-9,19.34-8.5a1.37,1.37,0,0,1,1.12.68,21.32,21.32,0,0,1,3.1,8.25,58.08,58.08,0,0,0,1.29,6.94c.58,2,1.37,3.8,3,4.37,4.12,1.46,7.39,4.74,10.26,8.95a4.84,4.84,0,0,1,.79,1.78,45.2,45.2,0,0,1,.68,6c.39,6.76.28,13.51,0,20.27a180.07,180.07,0,0,1-1.7,19.4c0,.28.11,1.29-.49,1.8-.82.69-2.43,0-3.06-.25-1.86-.7-4.4-.23-9.45.7-3.77.7-7.75,1.44-12.11,4.08a28.12,28.12,0,0,0-7.73,7,153.14,153.14,0,0,1,18-1.28q3.86,0,7.49.09a.44.44,0,0,0,0,.1,2.88,2.88,0,0,0,1.3.5c1.51.27,3.11,1.15,4.62,1.57a34.41,34.41,0,0,0,4.72,1,36,36,0,0,0,6.06.3c4-.12,19.69-1,41-2.42a21.28,21.28,0,0,0-11.82-9.1,15.28,15.28,0,0,0-7.88-2.12c-3.14.08-6.29-.41-9.41-.09a.9.9,0,0,1-.62-.14.83.83,0,0,1-.3-.6c-.5-2.7-1-5.4-1.34-8.14q-.74-5.38-1.13-10.84a107.93,107.93,0,0,1-.09-14.83c.3-4.66,1.95-7.84,5-9.76a56.84,56.84,0,0,1,6.47-3.5c4.11-1.85,8.3-3.36,12.36-5.44a16.11,16.11,0,0,0,6-4.6,3.89,3.89,0,0,1,1.65-1.33,41.57,41.57,0,0,0,7.23-4,34,34,0,0,0,5.71-5.85,29.06,29.06,0,0,1,12.47-8.2h0a1.85,1.85,0,0,0,1.24-2.29c-.21-1.22-.88-1.64-1.94-1.26a34.55,34.55,0,0,0-9.66,5.33c-.2.15-.4.62-.66.27s.05-.59.07-.89a3.41,3.41,0,0,1,.14-.55,42.61,42.61,0,0,1,5.2-12.15,2.32,2.32,0,0,0,0-3c-.7-.78-1.34-.58-2.08.68a55.89,55.89,0,0,0-3.18,6.09,37.67,37.67,0,0,0-3.41,12.65,2,2,0,0,1-.53,1.15,22.56,22.56,0,0,1-8.75,7.19c-.14.08-.29.35-.45.09s0-.45.08-.65c.66-1.86,1.35-3.71,2-5.58a157,157,0,0,0,4.46-15.47c.64-2.85-1-5.29-3.12-4.62-2.69.87-4.61,3.2-5.39,6.8A41.62,41.62,0,0,1,145,153.93c-1.82,2.55-3.72,4.93-6.39,5.74-.76.24-.8-.12-.78-.94,0-2.28.12-4.56.07-6.84a6.52,6.52,0,0,1,1.54-4.7,58.52,58.52,0,0,0,6.44-9.37c.06-.12.14-.24.2-.36a2.36,2.36,0,0,0-.08-2.72c-.64-.72-1.33-.62-1.92.4A74.55,74.55,0,0,1,137,145.41a8.18,8.18,0,0,0-1.65,5.11c-.07,3.11-.11,6.21-.14,9.32,0,.7-.16,1-.7,1.16-3.05.87-6.12,1.64-9.12,2.77-1.34.5-1.75-.19-1.92-1.93-.28-3,0-6-.06-9a9.57,9.57,0,0,1,2.15-6.59,73,73,0,0,1,7.43-7.6A54.19,54.19,0,0,0,140,131a23.49,23.49,0,0,0,3.81-9.41c.14-.69.15-1.48.75-1.88,4.62-3.11,9.3-5.93,14.54-6.32.79-.06,1.13-.77,1.26-1.75a5.36,5.36,0,0,0,0-1.06,3.06,3.06,0,0,1,1.44-3.2,8.58,8.58,0,0,1,3.41-1.32,28.81,28.81,0,0,1,10.35.19c1,.16,1.56-.39,1.68-1.55l0-.09a1.67,1.67,0,0,0-1.3-2,27.15,27.15,0,0,0-3.47-.52c-3.94-.31-7.88-.35-11.62,1.82-.18.1-.33.35-.48-.06a5.21,5.21,0,0,1,.65-3.7,48.39,48.39,0,0,0,5.83-7,23.39,23.39,0,0,0,4.18-9.53,2,2,0,0,0-.94-2.4c-.68-.26-1.37.33-1.58,1.43a16.65,16.65,0,0,1-1.84,5.11,44.9,44.9,0,0,1-8,10.18,3.36,3.36,0,0,0-1,2.75c.05,2.67,0,5.35,0,8,0,.81-.16,1.22-.78,1.34a30.56,30.56,0,0,0-11.3,4.81c-.17.12-.34.39-.53.16s-.07-.6,0-.87c.35-1.16.7-2.31,1.08-3.44,1.5-4.43,3.3-8.64,5.15-12.8a5,5,0,0,0,.4-3.35c-.49-2-2.36-3.56-4.39-1.47-6.11,6.31-10,14.55-11.22,25a6.76,6.76,0,0,1-2.07,4.45,39.17,39.17,0,0,1-9.56,6.24c-1.76.88-2.48.09-2.28-2.48.43-5.35.78-10.71,1.55-16a31.54,31.54,0,0,1,1.49-6.72A14.6,14.6,0,0,1,129.65,98a27.2,27.2,0,0,0,6.9-9.09c2.38-5.33,2.7-11.32,2.56-17.39a3.87,3.87,0,0,0-.46-1.63c-1.1-2.19-3.41-2.11-4.39.25s-2,5.06-2.94,7.66a18.2,18.2,0,0,1-5.77,8.64c-1.59,1.26-3,2.84-4.63,4.14-3.94,3.23-6.14,8.06-6.91,14.22-.13,1-.39.84-.8.31a58.78,58.78,0,0,1-5-7.5,19.3,19.3,0,0,1-2-5.11,2,2,0,0,1,.67-2.29,32.09,32.09,0,0,0,8-10.57,14.08,14.08,0,0,0,.85-10.71c-.4-1.18-1.06-1.64-1.75-1.24-.84.5-1.07,1.4-.66,2.72a8.19,8.19,0,0,1,.24,4.47c-1.29,5.36-4.44,8.38-7.48,11.75a3.1,3.1,0,0,1-.1-.53c0-.32,0-.63,0-.94a43.66,43.66,0,0,0-.41-11.36,15.52,15.52,0,0,0-2.71-6.92c-.25-.32-.49-.68-.86-.74-.62-.12-1.08.15-1.42.93a2.08,2.08,0,0,0,.29,2.22,11.7,11.7,0,0,1,2.09,5.15,38.4,38.4,0,0,1,.37,10.65,24.7,24.7,0,0,0,3.37,15.84,81.06,81.06,0,0,0,6.09,8.53,1.94,1.94,0,0,1,.55,1.6,41.14,41.14,0,0,0-.27,5.87c0,.86-.29,1.3-.89,1.44a5.83,5.83,0,0,1-3.12-.27,24.5,24.5,0,0,1-8.6-5.38,35.76,35.76,0,0,1-6.8-8.26,25,25,0,0,1-3.4-12.15c-.23-5.68-.28-11.4-1-17a14.42,14.42,0,0,0-1.72-5.92c-1.24-1.92-3-1.75-4,.35a7.8,7.8,0,0,0-.49,1.24,44.23,44.23,0,0,0-1.57,10.79c-.2,3.29-.35,6.59-.33,9.9,0,.3.1.71-.13.87s-.44-.24-.63-.44C77.33,88.79,74,87,70.2,86.91c-.92,0-1.17-.59-1.25-1.64a9.61,9.61,0,0,1,.72-4.4,13,13,0,0,0,.84-3.18,42,42,0,0,0-1.25-15.17c-.26-1.16-.93-1.62-1.64-1.25a2,2,0,0,0-.8,2.38,58.4,58.4,0,0,1,1.25,8.64,16.79,16.79,0,0,1-.83,7.21,13.83,13.83,0,0,0-.93,5.44c0,1-.23,1-.78.72a11.86,11.86,0,0,1-4.38-4.51c-1.55-2.64-3-5.35-4.58-8-.69-1.21-1.32-1.39-2-.61a2.37,2.37,0,0,0,0,2.9c.65,1.19,1.31,2.37,2,3.54"/><path id="Path_1579" data-name="Path 1579" class="cls-7" d="M107.22,184a56.25,56.25,0,0,0-1-8.78,7.4,7.4,0,0,0-.9-2.37c-2.85-4.67-6.23-8.32-10.29-10.39a4.11,4.11,0,0,1-2.84-3.34c-.22-1.24-.56-2.45-.68-3.71a32.63,32.63,0,0,0-7-17.37,19.55,19.55,0,0,0-8.15-6.64,28,28,0,0,1-3.81-1.17c-.3-.17-.67-.28-.65-.8s.4-.49.67-.63c1.53-.84,3-.15,4.52.26C84.1,131,89,137,92.42,146c1.51,4,2.75,8.25,4.57,12,1.13,2.35,2.5,4.2,4.53,4.86,3,1,5-1.32,5.91-5A50,50,0,0,0,108.49,143a28.26,28.26,0,0,0-3.29-12.53,16.87,16.87,0,0,0-5.82-6c-6.57-4.25-11.53-11-14.34-20.75a34.48,34.48,0,0,1-1.26-8.57c-.15-5.6,0-11.19.37-16.77a69.43,69.43,0,0,1,.77-7.48c.13-.65.14-1.7.58-1.74s.56,1,.69,1.62a71.58,71.58,0,0,1,1,10.44c.22,4.51.29,9,.73,13.5a25.81,25.81,0,0,0,3,9.72,37.26,37.26,0,0,0,15.55,16.13,9.23,9.23,0,0,0,5.83,1.22c2-.32,3.34-2.29,3.36-5.25a83.76,83.76,0,0,1,.62-9.89A52.12,52.12,0,0,1,118,98,13.92,13.92,0,0,1,122.15,92c1.88-1.89,3.78-3.78,5.73-5.53a20.08,20.08,0,0,0,5.45-8.79c.82-2.4,1.72-4.72,2.58-7.09a2.17,2.17,0,0,1,.54-1c.27,8.91-1.41,16.45-6.62,21.73a46.33,46.33,0,0,0-4.93,5.27,22.37,22.37,0,0,0-3.38,9.68c-1.07,6.64-1.43,13.41-2,20.15-.35,4.33,2.46,7.94,5.47,6.28,3.67-2,7.36-4,10.61-7.31a9,9,0,0,0,2.82-4.8c.3-1.63.4-3.34.66-5a43.82,43.82,0,0,1,5-14.63,30.26,30.26,0,0,1,4.4-6.15,1,1,0,0,1-.13,1,127.21,127.21,0,0,0-5.43,15.51c-.76,2.82-1.21,5.76-1.73,8.68a22.42,22.42,0,0,1-5.15,11.07c-2.82,3.26-5.87,6-8.79,9.09a31.3,31.3,0,0,0-4.74,6,12.64,12.64,0,0,0-1.83,6.51,118.52,118.52,0,0,0,.1,11.92c.37,3.84,2.43,6,4.84,5a94,94,0,0,1,9.69-3.08,32.39,32.39,0,0,0,6.21-2.5,11.2,11.2,0,0,0,3.24-3.12,47.06,47.06,0,0,0,8.6-17.29c.3-1.15.53-2.35.83-3.51a7.83,7.83,0,0,1,2.41-4c.21-.17.49-.35.72-.06s.06.61,0,.92a187.25,187.25,0,0,1-6.43,21.39c-.88,2.3-1.69,4.74-3.32,6.15a25.16,25.16,0,0,1-5.51,3.49c-5.24,2.59-10.65,4.45-15.77,7.59a22.52,22.52,0,0,0-4.51,3.63c-2.07,2.14-3.09,5.17-3.55,8.71a99.9,99.9,0,0,0-.06,20.31c.1,1.36.21,2.72.31,4.07a1.13,1.13,0,0,1,.06.36c0,.4.14.94-.11,1.17s-.59-.12-.85-.37a48.75,48.75,0,0,1-9.78-13.12,3.28,3.28,0,0,1-.31-1.63c0-3.65,0-7.3,0-10.95a15.53,15.53,0,0,0-.24-3.79"/><path id="Path_1580" data-name="Path 1580" class="cls-8" d="M107.22,181.77c.45.33.34,1,.34,1.55,0,4.7,0,9.41,0,14.11a4.45,4.45,0,0,0,.5,2.18,70,70,0,0,0,3.54,6.33,41.71,41.71,0,0,0,6.79,8.37c0-.66,0-1.14.07-1.63.35,3,.56,6.06,1,9,.29,1.87.48,3.8.83,5.65.2,1.12,0,1.19-.62,1.18-2.63,0-5.26,0-7.9,0-1.9,0-3.79,0-5.69,0-.58,0-.77-.17-.65-1.23,1-8.48,1.57-17,1.8-25.66.18-6.37.23-12.73,0-19.09,0-.27,0-.54,0-.81"/><path id="Path_1581" data-name="Path 1581" class="cls-6" d="M224.05,250.24H9.82A9.82,9.82,0,0,1,0,240.42v-1.08a9.82,9.82,0,0,1,9.82-9.82H224.05a9.82,9.82,0,0,1,9.82,9.82v1.08a9.82,9.82,0,0,1-9.82,9.82"/></g></g></g><g id="Group_293" data-name="Group 293"><g class="cls-9"><g id="Group_292" data-name="Group 292"><path id="Path_1582" data-name="Path 1582" class="cls-10" d="M173.12,145.06c-.33.76-.64,1-1.43.74-1.33-.38-2.66-.77-3.94-1.26a26,26,0,0,1-5.7-3,11.17,11.17,0,0,1-4.22-5.14,6.93,6.93,0,0,1-.06-4.67l.13-.29c.33-.79.38-1,.54-1s.06,0,.46.16h0l.16.07c.14.17-.14.67-.33,1.15a5,5,0,0,0-.3,1.33,6.23,6.23,0,0,0,1,4.32,11.85,11.85,0,0,0,4,3.84,28.16,28.16,0,0,0,8.17,3.55c.56.15.56.14.78-.41.1-.23.2-.45.28-.69.13-.41.24-.82.35-1.24a15.92,15.92,0,0,0,.52-7.51,9.65,9.65,0,0,0-2.6-5.15,7.86,7.86,0,0,0-9.78-1l-.37.28c-.55.44-.75.74-1,.7l-.24-.1h-.06l-.37-.16c0-.15.32-.62,1.09-1.2a9.34,9.34,0,0,1,3.18-1.52,9,9,0,0,1,10.42,5.59,13.42,13.42,0,0,1,.89,6.42,20.8,20.8,0,0,1-1.45,6.06,1.34,1.34,0,0,1-.07.18"/><path id="Path_1583" data-name="Path 1583" class="cls-11" d="M171.55,144.78a28,28,0,0,1-8.16-3.55,11.82,11.82,0,0,1-4-3.85,6.21,6.21,0,0,1-1-4.32,5.12,5.12,0,0,1,.3-1.33c.19-.48.47-1,.33-1.14.49.22,1,.45,1.46.69s.42.31.32.65a5,5,0,0,0,.61,3.86.57.57,0,0,0,.73.34h0l0,0c.35-.16.34-.43.17-.73a2.25,2.25,0,0,0-.12-.21,4.28,4.28,0,0,1-.48-2.58c.08-.52.16-.58.61-.25,1.22.91,2.42,1.86,3.63,2.78a.56.56,0,0,1,.21.76v0a4.53,4.53,0,0,0-.15,3.08.55.55,0,0,0,.62.47h0c.39-.09.44-.34.35-.67a3.45,3.45,0,0,1-.11-.54,3.76,3.76,0,0,1,.19-1.88,2,2,0,0,1,.27.22,19,19,0,0,1,1.24,1.57c.48.74.9,1.52,1.32,2.3a.57.57,0,0,0,.72.34c.32-.1.37-.37.27-.65l-.11-.26a15.73,15.73,0,0,0-2.64-3.91c-.1-.11-.17-.23-.3-.39a3.21,3.21,0,0,1,2.3.2c.44.23.78.19.93-.09s0-.56-.48-.77a4.16,4.16,0,0,0-3.19-.23.62.62,0,0,1-.67-.15c-.67-.6-1.35-1.19-2.07-1.74s-1.38-1-2.1-1.49a4.5,4.5,0,0,1,2.28-.49q.93.09,1.86.27c.32.06.55,0,.65-.28a.47.47,0,0,0-.28-.59h-.06a3.62,3.62,0,0,0-.53-.17,6.82,6.82,0,0,0-4.74.5.58.58,0,0,1-.62,0c-.6-.31-1.21-.59-1.82-.86l0,0,.25.09c.27,0,.47-.25,1-.69a3.27,3.27,0,0,1,.37-.28,7.88,7.88,0,0,1,9.79,1,9.72,9.72,0,0,1,2.6,5.15,16.24,16.24,0,0,1-.52,7.52c-.13.41-.23.83-.35,1.24-.08.23-.19.45-.28.68-.22.55-.22.56-.78.42"/><path id="Path_1584" data-name="Path 1584" class="cls-10" d="M170.75,140.8a.57.57,0,0,1-.72-.34c-.43-.78-.84-1.56-1.32-2.3a19,19,0,0,0-1.24-1.57,2,2,0,0,0-.27-.22,3.76,3.76,0,0,0-.19,1.88,3.45,3.45,0,0,0,.11.54c.09.33,0,.58-.35.67a.54.54,0,0,1-.66-.4h0a.07.07,0,0,1,0-.05,4.47,4.47,0,0,1,.15-3.08.58.58,0,0,0-.18-.78h0c-1.21-.92-2.4-1.87-3.63-2.78-.45-.33-.53-.28-.61.25a4.36,4.36,0,0,0,.48,2.58l.12.21c.17.3.18.57-.17.73a.57.57,0,0,1-.75-.29s0,0,0,0a5,5,0,0,1-.61-3.86c.1-.34,0-.49-.32-.65-.49-.25-1-.48-1.46-.69h0s0,0-.16-.06a22.65,22.65,0,0,0-4.55-1.42l-.89-.18c-.32-.07-.53-.25-.5-.56s.32-.45.65-.39q.93.17,1.86.39a24.83,24.83,0,0,1,3.57,1.17v0s.08,0,.36.13h0c.61.27,1.22.56,1.82.86a.58.58,0,0,0,.62,0,6.88,6.88,0,0,1,4.74-.5,3.27,3.27,0,0,1,.53.17.46.46,0,0,1,.37.53h0s0,.05,0,.07c-.09.27-.33.34-.65.28q-.93-.18-1.86-.27a4.5,4.5,0,0,0-2.28.49c.72.5,1.43,1,2.1,1.49s1.39,1.14,2.06,1.74a.62.62,0,0,0,.67.15,4.16,4.16,0,0,1,3.19.23c.44.21.63.5.49.77s-.5.32-.93.09a3.24,3.24,0,0,0-2.31-.2c.13.16.2.28.3.38a16,16,0,0,1,2.64,3.92l.11.26c.1.29.06.55-.26.65"/><path id="Path_1585" data-name="Path 1585" class="cls-10" d="M159.07,130.58h0l-.16-.07c.13,0,.13,0,.15.06"/><path id="Path_1586" data-name="Path 1586" class="cls-10" d="M159.42,129.68c-.28-.1-.33-.09-.36-.13v0l.37.15"/></g></g></g><g id="Group_297" data-name="Group 297"><g class="cls-12"><g id="Group_296" data-name="Group 296"><path id="Path_1592" data-name="Path 1592" class="cls-10" d="M169,96.11c.46.65.48,1-.11,1.54-1,.9-1.95,1.79-3,2.59a25.22,25.22,0,0,1-5.36,3.13,10.78,10.78,0,0,1-6.31.87,6.67,6.67,0,0,1-3.85-2.3l-.17-.24c-.48-.68-.64-.83-.58-1s0,0,.37-.3h0l.13-.09c.21,0,.47.44.78.83a4.77,4.77,0,0,0,.93.92,5.92,5.92,0,0,0,4,1.38,11.34,11.34,0,0,0,5.14-1.32,27,27,0,0,0,7-4.89c.4-.39.4-.4.06-.85-.15-.19-.27-.39-.43-.57s-.55-.61-.83-.91a15.33,15.33,0,0,0-5.89-4.2,9.27,9.27,0,0,0-5.51-.46,7.53,7.53,0,0,0-5.68,7.51,3.42,3.42,0,0,0,0,.45c.08.67.23,1,.06,1.18l-.2.15,0,0h0l-.31.23c-.15,0-.35-.57-.43-1.49a8.89,8.89,0,0,1,.35-3.36,8.59,8.59,0,0,1,9.8-5.73,13,13,0,0,1,5.69,2.5,20.34,20.34,0,0,1,4.23,4.21.83.83,0,0,0,.11.15"/><path id="Path_1593" data-name="Path 1593" class="cls-11" d="M168,97.25a26.84,26.84,0,0,1-7,4.9,11.54,11.54,0,0,1-5.14,1.32,6,6,0,0,1-4-1.38,5.46,5.46,0,0,1-.94-.92c-.3-.39-.56-.87-.77-.84.42-.3.86-.58,1.3-.85s.47-.18.69.07a4.8,4.8,0,0,0,3.47,1.44.56.56,0,0,0,.65-.46c0-.37-.19-.5-.52-.52h-.23a4,4,0,0,1-2.35-.9c-.39-.32-.39-.42.11-.62,1.36-.54,2.73-1,4.09-1.57a.54.54,0,0,1,.73.21h0v0a4.43,4.43,0,0,0,2.44,1.67.54.54,0,0,0,.7-.27s0,0,0-.05c.12-.37-.06-.54-.38-.62a5,5,0,0,1-.5-.18,3.67,3.67,0,0,1-1.43-1.1,1.75,1.75,0,0,1,.32-.12c.63-.1,1.26-.18,1.9-.22.85,0,1.7,0,2.54.07a.54.54,0,0,0,.64-.42c.08-.31-.11-.47-.39-.54l-.27,0a15.64,15.64,0,0,0-4.53.19,4.31,4.31,0,0,1-.46,0A3.07,3.07,0,0,1,160,93.78c.4-.25.54-.54.39-.8s-.49-.25-.87,0a4,4,0,0,0-1.79,2.49.57.57,0,0,1-.46.47c-.83.26-1.65.51-2.46.82s-1.5.64-2.27,1a4.32,4.32,0,0,1,.74-2.11,16.94,16.94,0,0,1,1.16-1.38c.2-.24.26-.46.09-.68a.44.44,0,0,0-.61-.06l0,0c-.14.11-.27.23-.4.35a6.61,6.61,0,0,0-2,4.12.59.59,0,0,1-.31.52q-.82.5-1.62,1l0,0a1.06,1.06,0,0,1,.2-.14c.17-.2,0-.51-.06-1.18,0-.15,0-.3,0-.45a7.53,7.53,0,0,1,5.69-7.51,9.2,9.2,0,0,1,5.51.46,15.37,15.37,0,0,1,5.88,4.2c.28.3.57.6.84.91s.28.38.42.57c.34.45.34.45-.06.84"/><path id="Path_1594" data-name="Path 1594" class="cls-10" d="M164.34,95.9a.55.55,0,0,1-.65.42c-.84,0-1.69-.1-2.54-.07-.64,0-1.27.12-1.9.22a2.08,2.08,0,0,0-.32.12,3.63,3.63,0,0,0,1.44,1.1,4.24,4.24,0,0,0,.5.18c.31.08.49.26.37.62a.53.53,0,0,1-.67.34l0,0a4.43,4.43,0,0,1-2.44-1.67.53.53,0,0,0-.71-.25l0,0c-1.36.52-2.73,1-4.09,1.57-.5.2-.5.3-.11.62a4.12,4.12,0,0,0,2.35.9h.24c.32,0,.55.14.51.51s-.28.48-.65.46a4.79,4.79,0,0,1-3.46-1.44c-.22-.25-.39-.25-.69-.07l-1.3.85h0s0,0-.12.09a22.17,22.17,0,0,0-3.46,3l-.59.63c-.22.24-.47.31-.7.13s-.21-.49,0-.73c.4-.45.82-.89,1.25-1.32a24.53,24.53,0,0,1,2.75-2.33h0s.06,0,.29-.23h0c.52-.37,1.06-.72,1.61-1a.57.57,0,0,0,.31-.52,6.66,6.66,0,0,1,2-4.12c.13-.12.26-.24.4-.35a.44.44,0,0,1,.63,0l0,0c.17.21.11.44-.09.68a16.94,16.94,0,0,0-1.16,1.38,4.32,4.32,0,0,0-.74,2.11c.77-.33,1.51-.68,2.27-1s1.63-.56,2.46-.82a.57.57,0,0,0,.46-.47A4,4,0,0,1,159.52,93c.39-.25.73-.26.87,0s0,.56-.39.8a3.06,3.06,0,0,0-1.32,1.79l.46,0a15.3,15.3,0,0,1,4.53-.19l.27,0c.28.06.47.22.39.54"/><path id="Path_1595" data-name="Path 1595" class="cls-10" d="M150.14,100.33l-.13.09c.1-.08.1-.09.12-.09h0"/><path id="Path_1596" data-name="Path 1596" class="cls-10" d="M149.57,99.6c-.22.17-.25.22-.29.22h0l.31-.22"/></g></g></g><g id="Group_303" data-name="Group 303"><g class="cls-13"><g id="Group_302" data-name="Group 302"><path id="Path_1607" data-name="Path 1607" class="cls-10" d="M141.57,64.85a15.92,15.92,0,0,1,4.72-.2l.28,0c.3.07.49.24.41.57a.57.57,0,0,1-.67.43c-.88,0-1.76-.1-2.65-.08a18.46,18.46,0,0,0-2,.24,1.85,1.85,0,0,0-.33.12,3.76,3.76,0,0,0,1.5,1.14,3.24,3.24,0,0,0,.52.19c.33.09.51.27.39.65a.54.54,0,0,1-.69.35h0l-.06,0a4.51,4.51,0,0,1-2.55-1.74.56.56,0,0,0-.75-.25h0c-1.42.55-2.85,1.07-4.27,1.64-.52.21-.51.31-.12.64a4.22,4.22,0,0,0,2.45.94H138c.34,0,.58.15.54.54a.57.57,0,0,1-.67.48,5,5,0,0,1-3.61-1.5c-.24-.26-.41-.27-.73-.07s-.91.58-1.35.89h0s0,0-.12.09a23,23,0,0,0-3.61,3.14l-.62.66c-.22.25-.49.33-.73.14s-.22-.5,0-.76c.42-.47.85-.93,1.3-1.37a23.87,23.87,0,0,1,2.87-2.44h0c.05,0,.07,0,.3-.24h0c.55-.39,1.11-.75,1.69-1.1a.63.63,0,0,0,.32-.54,6.88,6.88,0,0,1,2-4.3l.43-.37a.47.47,0,0,1,.64,0h0l0,.06c.18.21.12.45-.1.7a16.35,16.35,0,0,0-1.2,1.44,4.46,4.46,0,0,0-.78,2.19c.81-.34,1.59-.71,2.37-1s1.71-.59,2.56-.85a.61.61,0,0,0,.48-.49,4.16,4.16,0,0,1,1.87-2.6c.4-.26.76-.27.9,0s0,.59-.4.84a3.28,3.28,0,0,0-1.38,1.86l.49,0"/><path id="Path_1608" data-name="Path 1608" class="cls-10" d="M141.39,58.31a13.5,13.5,0,0,1,5.93,2.61,21.1,21.1,0,0,1,4.41,4.39l.12.16c.48.68.49,1-.12,1.6-1,.94-2,1.87-3.13,2.7A25.79,25.79,0,0,1,143,73a11.23,11.23,0,0,1-6.59.91,6.91,6.91,0,0,1-4-2.38l-.17-.26c-.5-.7-.67-.87-.61-1s.05,0,.38-.31h0l.13-.1c.22,0,.49.46.81.87a5.24,5.24,0,0,0,1,1,6.24,6.24,0,0,0,4.18,1.44,11.92,11.92,0,0,0,5.36-1.38,28,28,0,0,0,7.3-5.1c.42-.41.41-.41.06-.88-.15-.2-.28-.41-.44-.6l-.88-1a16,16,0,0,0-6.13-4.37,9.75,9.75,0,0,0-5.75-.49,7.87,7.87,0,0,0-5.93,7.85c0,.16,0,.31,0,.47.09.7.25,1,.06,1.22,0,0,0,0-.2.16l0,0s0,0,0,0l-.33.23c-.15,0-.36-.59-.45-1.55a9.2,9.2,0,0,1,.37-3.5,8.94,8.94,0,0,1,10.21-6"/><path id="Path_1609" data-name="Path 1609" class="cls-10" d="M132.17,69.87,132,70c.1-.08.1-.09.12-.09h0"/><path id="Path_1610" data-name="Path 1610" class="cls-11" d="M133.28,68c-.58.35-1.14.71-1.69,1.1l0,0a1.56,1.56,0,0,0,.2-.16c.18-.2,0-.53-.06-1.23a3.42,3.42,0,0,1,0-.46,7.87,7.87,0,0,1,5.93-7.84,9.64,9.64,0,0,1,5.74.48,16.05,16.05,0,0,1,6.14,4.37l.88,1c.16.19.29.4.44.6.35.47.35.47-.06.88a28,28,0,0,1-7.3,5.1,12.09,12.09,0,0,1-5.36,1.38A6.25,6.25,0,0,1,134,71.69a5.13,5.13,0,0,1-1-1c-.32-.41-.59-.91-.81-.88.44-.31.9-.61,1.36-.89.31-.2.48-.19.72.07a5,5,0,0,0,3.61,1.5c.38,0,.65-.17.68-.48s-.2-.52-.54-.53h-.25a4.32,4.32,0,0,1-2.45-.94c-.4-.34-.4-.44.13-.65,1.41-.56,2.84-1.1,4.26-1.64a.56.56,0,0,1,.76.22v0A4.54,4.54,0,0,0,143,68.27a.55.55,0,0,0,.73-.27.14.14,0,0,0,0-.06c.13-.37-.06-.56-.39-.65a3.63,3.63,0,0,1-.52-.19,3.74,3.74,0,0,1-1.5-1.14,2.19,2.19,0,0,1,.33-.12,19.06,19.06,0,0,1,2-.23c.89,0,1.77,0,2.66.07a.57.57,0,0,0,.67-.43c.08-.33-.12-.5-.41-.56l-.28,0a15.89,15.89,0,0,0-4.72.2l-.49.05A3.28,3.28,0,0,1,142.47,63c.42-.25.56-.57.4-.84s-.5-.26-.91,0a4.18,4.18,0,0,0-1.86,2.6.61.61,0,0,1-.48.49c-.86.26-1.72.53-2.56.85s-1.56.66-2.37,1a4.43,4.43,0,0,1,.78-2.19,15.13,15.13,0,0,1,1.2-1.45c.21-.24.27-.48.1-.7a.47.47,0,0,0-.64-.07l-.06,0c-.14.11-.28.24-.42.37a6.83,6.83,0,0,0-2,4.3.6.6,0,0,1-.33.53"/><path id="Path_1611" data-name="Path 1611" class="cls-10" d="M131.58,69.1c-.23.19-.25.24-.3.24h0l.32-.23"/></g></g></g><g id="Group_305" data-name="Group 305"><g class="cls-14"><g id="Group_304" data-name="Group 304"><path id="Path_1612" data-name="Path 1612" class="cls-10" d="M146,128.26c0,.31-.3.5-.68.48a5,5,0,0,1-3.61-1.5c-.23-.26-.41-.26-.72-.07s-.91.58-1.36.89h0s0,0-.12.1a22.9,22.9,0,0,0-3.6,3.14l-.62.66c-.22.25-.49.33-.73.14s-.22-.5,0-.76c.42-.47.85-.94,1.3-1.38a25.85,25.85,0,0,1,2.87-2.44h0c.05,0,.07,0,.3-.23h0c.55-.38,1.11-.75,1.69-1.1a.61.61,0,0,0,.32-.53,6.81,6.81,0,0,1,2-4.3,4.64,4.64,0,0,1,.42-.37.46.46,0,0,1,.65,0h0s0,0,.05,0c.18.22.12.46-.1.7a16.35,16.35,0,0,0-1.2,1.44,4.5,4.5,0,0,0-.78,2.2c.81-.35,1.58-.71,2.37-1s1.71-.59,2.56-.86a.61.61,0,0,0,.48-.48,4.16,4.16,0,0,1,1.86-2.6c.41-.26.76-.27.92,0s0,.58-.41.83a3.33,3.33,0,0,0-1.38,1.87l.49,0a15.89,15.89,0,0,1,4.72-.2l.28,0c.3.06.49.23.41.56a.57.57,0,0,1-.67.43c-.89,0-1.77-.1-2.66-.07a18.56,18.56,0,0,0-2,.23,2,2,0,0,0-.34.12,3.9,3.9,0,0,0,1.5,1.14,3.35,3.35,0,0,0,.53.19c.32.09.51.28.39.65a.57.57,0,0,1-.7.36h0l0,0a4.51,4.51,0,0,1-2.55-1.74.56.56,0,0,0-.75-.25h0c-1.42.55-2.85,1.08-4.27,1.64-.52.21-.52.31-.12.65a4.27,4.27,0,0,0,2.45.94h.24c.34,0,.58.15.54.53"/><path id="Path_1613" data-name="Path 1613" class="cls-10" d="M148.84,116.51a13.39,13.39,0,0,1,5.93,2.61,20.63,20.63,0,0,1,4.41,4.39l.12.15c.48.68.49,1-.12,1.61-1,.93-2,1.86-3.13,2.7a26.2,26.2,0,0,1-5.58,3.26,11.23,11.23,0,0,1-6.59.91,6.89,6.89,0,0,1-4-2.4,2.48,2.48,0,0,1-.18-.25c-.5-.7-.67-.87-.61-1s0,0,.38-.31l0,0,.14-.1c.21,0,.49.47.8.88a5.57,5.57,0,0,0,1,1,6.25,6.25,0,0,0,4.19,1.44A11.91,11.91,0,0,0,151,130a27.88,27.88,0,0,0,7.3-5.1c.42-.41.41-.41.06-.88-.15-.2-.28-.41-.44-.6s-.58-.63-.87-1a16.05,16.05,0,0,0-6.14-4.37,9.75,9.75,0,0,0-5.75-.49,7.87,7.87,0,0,0-5.92,7.84,3.42,3.42,0,0,0,0,.46c.09.7.24,1,.06,1.23l-.2.16,0,0s0,0,0,0l-.32.24c-.16,0-.37-.59-.45-1.55a9.2,9.2,0,0,1,.36-3.5,9,9,0,0,1,10.22-6"/><path id="Path_1614" data-name="Path 1614" class="cls-10" d="M139.63,128.06l-.14.1c.1-.08.1-.09.13-.09h0"/><path id="Path_1615" data-name="Path 1615" class="cls-11" d="M139.28,127.1c.18-.2,0-.53-.06-1.22,0-.16,0-.31,0-.47a7.85,7.85,0,0,1,5.93-7.83,9.64,9.64,0,0,1,5.74.48,16.05,16.05,0,0,1,6.14,4.37c.29.32.59.62.87.95s.3.4.44.59c.35.48.36.48-.06.89a28.11,28.11,0,0,1-7.3,5.1,12.05,12.05,0,0,1-5.36,1.38,6.25,6.25,0,0,1-4.18-1.45,5,5,0,0,1-1-1c-.31-.4-.59-.9-.8-.87.44-.31.89-.61,1.35-.89.31-.19.49-.19.72.07a5,5,0,0,0,3.61,1.5c.39,0,.65-.17.68-.48s-.2-.51-.54-.53h-.24a4.27,4.27,0,0,1-2.45-.94c-.4-.34-.41-.44.12-.65,1.41-.56,2.84-1.1,4.26-1.64a.56.56,0,0,1,.76.22h0l0,0a4.57,4.57,0,0,0,2.54,1.74.55.55,0,0,0,.73-.28h0a.14.14,0,0,1,0-.06c.12-.37-.07-.55-.39-.65a3.35,3.35,0,0,1-.53-.19,3.8,3.8,0,0,1-1.5-1.14,2,2,0,0,1,.34-.12,18.56,18.56,0,0,1,2-.23c.89,0,1.77,0,2.66.08a.58.58,0,0,0,.67-.44c.08-.33-.12-.5-.41-.56l-.28,0a15.89,15.89,0,0,0-4.72.2l-.49,0a3.28,3.28,0,0,1,1.38-1.86c.42-.25.57-.56.41-.84s-.5-.26-.91,0a4.16,4.16,0,0,0-1.87,2.6.6.6,0,0,1-.48.49c-.86.26-1.72.53-2.56.85s-1.56.66-2.37,1a4.43,4.43,0,0,1,.78-2.19,15.13,15.13,0,0,1,1.2-1.45c.22-.24.28-.48.1-.7a.47.47,0,0,0-.64-.07s0,0,0,0a3.7,3.7,0,0,0-.42.37,6.85,6.85,0,0,0-2,4.3.59.59,0,0,1-.32.53c-.58.35-1.14.72-1.69,1.1l0,0,.2-.15"/><path id="Path_1616" data-name="Path 1616" class="cls-10" d="M139,127.3c-.23.18-.25.23-.3.23h0l.32-.23"/></g></g></g><g id="Group_313" data-name="Group 313"><g class="cls-15"><g id="Group_312" data-name="Group 312"><path id="Path_1632" data-name="Path 1632" class="cls-10" d="M84.37,61.44c-.67.49-.8.83-.4,1.56.67,1.21,1.34,2.42,2.11,3.56a26.3,26.3,0,0,0,4.25,4.87,11.24,11.24,0,0,0,6,3,6.89,6.89,0,0,0,4.56-1l.25-.19c.7-.5.92-.61.9-.76s0,0-.26-.42h0l-.1-.14c-.2-.1-.61.29-1.05.58a5.09,5.09,0,0,1-1.22.59,6.21,6.21,0,0,1-4.43,0,11.8,11.8,0,0,1-4.63-3A27.8,27.8,0,0,1,85,62.9c-.27-.51-.26-.52.22-.85.2-.14.4-.3.61-.42.37-.22.76-.42,1.13-.63a16,16,0,0,1,7.21-2.18,9.58,9.58,0,0,1,5.6,1.37,7.86,7.86,0,0,1,3.11,9.32,3.3,3.3,0,0,1-.19.43c-.3.63-.55.89-.45,1.15,0,0,0,0,.15.21,0,0,0,0,0,0h0l.23.32c.16,0,.54-.44.93-1.32a9.51,9.51,0,0,0,.77-3.44A9,9,0,0,0,96.58,58a13.67,13.67,0,0,0-6.47.58,21.14,21.14,0,0,0-5.57,2.76l-.17.11"/><path id="Path_1633" data-name="Path 1633" class="cls-11" d="M85,62.9a28.16,28.16,0,0,0,5.29,7.16,11.86,11.86,0,0,0,4.64,3,6.23,6.23,0,0,0,4.42,0,5.4,5.4,0,0,0,1.23-.6c.43-.29.85-.67,1-.57-.32-.44-.65-.86-1-1.28s-.4-.33-.7-.16a5,5,0,0,1-3.9.27.58.58,0,0,1-.49-.67c.09-.38.35-.43.69-.34l.23.07a4.26,4.26,0,0,0,2.62-.11c.49-.19.53-.28.1-.65-1.16-1-2.34-1.94-3.51-2.92a.58.58,0,0,0-.8,0h0a4.56,4.56,0,0,1-3,.84.56.56,0,0,1-.61-.49h0v-.06c0-.4.24-.5.58-.49a3.37,3.37,0,0,0,.55,0,3.93,3.93,0,0,0,1.79-.6,1.93,1.93,0,0,0-.28-.22,17.37,17.37,0,0,0-1.8-.85c-.84-.3-1.69-.54-2.54-.78a.57.57,0,0,1-.5-.63c0-.33.27-.43.57-.4l.28,0a16.19,16.19,0,0,1,4.41,1.7c.12.07.26.12.44.2a3.24,3.24,0,0,0-.71-2.2c-.32-.37-.37-.71-.12-.92s.56-.09.86.3a4.17,4.17,0,0,1,.94,3.06.58.58,0,0,0,.3.61c.73.53,1.46,1.06,2.16,1.63s1.26,1.12,1.92,1.71a4.49,4.49,0,0,0,0-2.33c-.2-.6-.43-1.18-.68-1.76-.12-.3-.11-.54.13-.69a.45.45,0,0,1,.63.13l0,.07a5.5,5.5,0,0,1,.28.48,6.86,6.86,0,0,1,.57,4.73.6.6,0,0,0,.13.61c.43.51.85,1,1.25,1.58l0,0c-.13-.2-.13-.17-.14-.21-.1-.26.14-.52.45-1.15.07-.14.13-.28.19-.43a7.86,7.86,0,0,0-3.12-9.31,9.67,9.67,0,0,0-5.6-1.38A16.13,16.13,0,0,0,87,61c-.37.2-.76.4-1.13.62-.21.12-.4.28-.61.42-.48.34-.48.34-.22.85"/><path id="Path_1634" data-name="Path 1634" class="cls-10" d="M89.05,62.79a.57.57,0,0,0,.5.62c.85.25,1.71.47,2.54.78.61.25,1.21.54,1.8.85l.28.22a3.82,3.82,0,0,1-1.79.6,3.37,3.37,0,0,1-.55,0c-.34,0-.58.1-.58.49a.56.56,0,0,0,.55.56h.06a4.59,4.59,0,0,0,3-.84.56.56,0,0,1,.79,0h0l0,0C96.81,67.07,98,68,99.15,69c.43.36.4.45-.1.65a4.26,4.26,0,0,1-2.62.11l-.23-.07c-.33-.09-.6,0-.68.33s.12.57.48.67a5,5,0,0,0,3.9-.27c.3-.17.47-.12.7.16s.68.85,1,1.28h0s0,0,.08.12h0a22.78,22.78,0,0,1,2.42,4.13l.36.82c.14.3.37.47.66.37s.36-.41.24-.72c-.24-.58-.51-1.16-.79-1.72a26.19,26.19,0,0,0-1.94-3.22h0s0-.08-.21-.32a0,0,0,0,0,0,0c-.4-.54-.81-1.07-1.25-1.59a.6.6,0,0,1-.13-.61,6.87,6.87,0,0,0-.57-4.73c-.09-.16-.18-.32-.28-.48a.47.47,0,0,0-.6-.23l-.07,0c-.24.15-.25.4-.13.69a16.22,16.22,0,0,1,.68,1.75,4.53,4.53,0,0,1,0,2.34c-.66-.59-1.27-1.18-1.93-1.71s-1.43-1.1-2.16-1.63a.63.63,0,0,1-.3-.62,4.19,4.19,0,0,0-.93-3.06c-.3-.37-.64-.49-.87-.3s-.2.56.12.93a3.19,3.19,0,0,1,.71,2.2l-.44-.2a15.73,15.73,0,0,0-4.39-1.69l-.28-.05c-.3,0-.55.07-.57.4"/><path id="Path_1635" data-name="Path 1635" class="cls-10" d="M101.62,71.89h0l.1.13c-.06-.1-.06-.11-.08-.12"/><path id="Path_1636" data-name="Path 1636" class="cls-10" d="M102.42,71.35c.16.25.17.3.21.31h0l-.24-.32"/></g></g></g><g id="Group_315" data-name="Group 315"><g class="cls-16"><g id="Group_314" data-name="Group 314"><path id="Path_1637" data-name="Path 1637" class="cls-10" d="M64.4,100.19c-.27.79-.18,1.14.56,1.51,1.24.61,2.49,1.21,3.77,1.71A26.12,26.12,0,0,0,75,105a11.19,11.19,0,0,0,6.57-1,6.83,6.83,0,0,0,3.17-3.43c0-.07,0-.09.1-.3.29-.81.4-1,.3-1.14s-.06,0-.45-.19h0l-.16-.05c-.21,0-.33.59-.52,1.07a5.55,5.55,0,0,1-.66,1.19,6.19,6.19,0,0,1-3.61,2.56,11.88,11.88,0,0,1-5.53.19A28.09,28.09,0,0,1,65.75,101c-.51-.27-.5-.28-.3-.83a6.61,6.61,0,0,1,.26-.7c.17-.39.37-.77.56-1.16a16.13,16.13,0,0,1,4.65-5.93,9.77,9.77,0,0,1,5.37-2.09,7.87,7.87,0,0,1,7.9,5.85,3.4,3.4,0,0,1,.09.46c.12.69.06,1,.29,1.19,0,0,0,0,.25.09l0,0h0l.38.14c.13-.09.18-.68,0-1.62a8.8,8.8,0,0,0-12.83-6.09,13.55,13.55,0,0,0-5,4.18,21,21,0,0,0-3,5.46c0,.06,0,.12-.07.19"/><path id="Path_1638" data-name="Path 1638" class="cls-11" d="M65.74,101a28,28,0,0,0,8.44,2.82,11.89,11.89,0,0,0,5.53-.19,6.22,6.22,0,0,0,3.61-2.56A5.55,5.55,0,0,0,84,99.92c.18-.48.3-1,.52-1.07-.51-.17-1-.33-1.55-.47-.35-.1-.52,0-.67.27a5,5,0,0,1-3,2.46.57.57,0,0,1-.77-.24h0s0,0,0,0c-.14-.36,0-.55.37-.66l.23-.09a4.26,4.26,0,0,0,2.08-1.59c.29-.43.26-.53-.3-.59-1.52-.14-3-.24-4.56-.36a.54.54,0,0,0-.66.43h0v0a4.64,4.64,0,0,1-2,2.39.55.55,0,0,1-.78-.06h0l0,0c-.22-.32-.1-.55.19-.73a3.72,3.72,0,0,0,.45-.33,3.79,3.79,0,0,0,1.11-1.51,1.37,1.37,0,0,0-.35,0,16,16,0,0,0-2,.33c-.86.23-1.69.53-2.53.82a.57.57,0,0,1-.77-.22c-.17-.29,0-.51.24-.66l.25-.12a15.85,15.85,0,0,1,4.59-1.14l.47-.09a3.19,3.19,0,0,0-1.84-1.4c-.47-.13-.7-.38-.63-.69s.41-.39.88-.26a4.22,4.22,0,0,1,2.53,2,.6.6,0,0,0,.6.33c.9,0,1.8,0,2.7.09s1.68.2,2.56.3A4.44,4.44,0,0,0,80,95.07a18.38,18.38,0,0,0-1.56-1c-.27-.17-.4-.38-.29-.64a.46.46,0,0,1,.6-.26l.06,0a3.22,3.22,0,0,1,.5.23,6.88,6.88,0,0,1,3.18,3.54.6.6,0,0,0,.46.42c.65.17,1.29.36,1.93.58l0,0-.24-.09c-.23-.15-.18-.5-.29-1.2,0-.15,0-.31-.09-.46a7.88,7.88,0,0,0-7.9-5.84,9.65,9.65,0,0,0-5.38,2.09,16,16,0,0,0-4.64,5.93c-.19.38-.39.77-.57,1.15s-.17.47-.26.7c-.2.56-.2.56.3.83"/><path id="Path_1639" data-name="Path 1639" class="cls-10" d="M69,98.61a.59.59,0,0,0,.77.23c.83-.29,1.67-.6,2.53-.83.65-.14,1.3-.25,2-.33a2.06,2.06,0,0,1,.35,0,3.79,3.79,0,0,1-1.11,1.51,2.36,2.36,0,0,1-.45.33c-.29.19-.41.41-.19.74a.56.56,0,0,0,.77.14l.05,0A4.51,4.51,0,0,0,75.63,98a.56.56,0,0,1,.64-.46h0c1.51.13,3,.23,4.55.37.56,0,.59.15.3.58a4.23,4.23,0,0,1-2.08,1.6l-.23.08c-.32.11-.5.31-.36.66a.56.56,0,0,0,.75.29h0l0,0a5,5,0,0,0,3-2.46c.15-.31.32-.36.67-.27.52.15,1,.31,1.55.48h0s0,0,.14,0h0a23,23,0,0,1,4.34,2l.78.46c.29.17.56.17.74-.08s.07-.54-.21-.73c-.54-.34-1.08-.65-1.64-1a25.69,25.69,0,0,0-3.44-1.52h0s-.08,0-.36-.15h0c-.63-.21-1.28-.41-1.93-.58a.57.57,0,0,1-.45-.42,6.92,6.92,0,0,0-3.18-3.54,3.71,3.71,0,0,0-.5-.23.46.46,0,0,0-.63.15l0,.07c-.11.26,0,.47.29.64a16.36,16.36,0,0,1,1.56,1,4.5,4.5,0,0,1,1.37,1.88c-.88-.09-1.72-.23-2.56-.3s-1.8-.08-2.7-.09a.6.6,0,0,1-.6-.33,4.2,4.2,0,0,0-2.53-2c-.46-.13-.8,0-.87.25s.15.57.63.69a3.27,3.27,0,0,1,1.84,1.4l-.48.09a16.12,16.12,0,0,0-4.58,1.14l-.26.13c-.26.14-.4.36-.23.65"/><path id="Path_1640" data-name="Path 1640" class="cls-10" d="M84.52,98.84h0l.15,0c-.11,0-.12,0-.14,0"/><path id="Path_1641" data-name="Path 1641" class="cls-10" d="M84.86,97.94c.28.12.31.16.36.15h0l-.38-.14"/></g></g></g><g id="Group_317" data-name="Group 317"><g class="cls-17"><g id="Group_316" data-name="Group 316"><path id="Path_1642" data-name="Path 1642" class="cls-10" d="M117.53,136.74c-.67.44-.82.75-.48,1.47.56,1.2,1.13,2.4,1.8,3.54a25,25,0,0,0,3.76,4.93,10.9,10.9,0,0,0,5.52,3.2,6.6,6.6,0,0,0,4.42-.67c.07,0,.07-.05.25-.16.7-.44.91-.52.91-.68s0-.05-.23-.41c0,0,0,0,0,0l-.08-.13c-.18-.11-.61.23-1,.49a5.29,5.29,0,0,1-1.21.49,6,6,0,0,1-4.24-.24,11.39,11.39,0,0,1-4.25-3.17A26.71,26.71,0,0,1,118,138.2c-.22-.52-.22-.52.27-.8a4.72,4.72,0,0,1,.61-.37c.36-.18.74-.35,1.11-.52a15.35,15.35,0,0,1,7-1.66,9.37,9.37,0,0,1,5.27,1.66,7.54,7.54,0,0,1,2.41,9.12l-.2.4c-.34.58-.59.81-.5,1.06,0,0,0,0,.12.22l0,0v0l.2.32c.15,0,.54-.4,1-1.22a8.78,8.78,0,0,0,.95-3.24,8.58,8.58,0,0,0-6.89-9,13,13,0,0,0-6.22.15,20.36,20.36,0,0,0-5.51,2.3l-.16.1"/><path id="Path_1643" data-name="Path 1643" class="cls-11" d="M118,138.19a27,27,0,0,0,4.62,7.18,11.45,11.45,0,0,0,4.25,3.17,6,6,0,0,0,4.24.24,5.12,5.12,0,0,0,1.21-.49c.43-.25.86-.59,1-.49-.28-.44-.57-.86-.87-1.28s-.37-.35-.67-.2a4.76,4.76,0,0,1-3.74,0c-.35-.12-.52-.39-.43-.67s.37-.39.67-.28l.22.08a4.1,4.1,0,0,0,2.52.05c.48-.15.52-.24.13-.61-1.05-1-2.13-2-3.19-3a.53.53,0,0,0-.75-.08l0,0a4.38,4.38,0,0,1-2.89.61.53.53,0,0,1-.55-.51v-.06c0-.38.25-.47.58-.43a3.09,3.09,0,0,0,.53,0,3.66,3.66,0,0,0,1.74-.47,1.71,1.71,0,0,0-.25-.22,18.19,18.19,0,0,0-1.67-.93c-.78-.34-1.58-.62-2.38-.9a.55.55,0,0,1-.43-.63c0-.32.28-.4.56-.35l.27.07a14.91,14.91,0,0,1,4.11,1.9l.41.21a3.1,3.1,0,0,0-.54-2.15c-.28-.37-.3-.7-.06-.89s.54,0,.81.33a4,4,0,0,1,.71,3,.56.56,0,0,0,.24.61c.67.55,1.33,1.1,2,1.69s1.15,1.16,1.74,1.76a4.33,4.33,0,0,0,.11-2.23,15.11,15.11,0,0,0-.55-1.73.48.48,0,0,1,.18-.65.43.43,0,0,1,.59.17l0,.06a3.58,3.58,0,0,1,.24.48,6.55,6.55,0,0,1,.26,4.55.57.57,0,0,0,.09.59c.38.52.75,1.05,1.1,1.59,0,0,0,0,0,0a1.83,1.83,0,0,0-.13-.21c-.08-.24.17-.49.5-1.07a3,3,0,0,0,.21-.4,7.53,7.53,0,0,0-2.41-9.11,9.22,9.22,0,0,0-5.27-1.66,15.34,15.34,0,0,0-7,1.65l-1.12.52c-.21.11-.4.25-.61.37-.48.29-.48.29-.26.8"/><path id="Path_1644" data-name="Path 1644" class="cls-10" d="M121.92,138.33a.56.56,0,0,0,.44.63c.8.29,1.6.56,2.38.9a18.19,18.19,0,0,1,1.67.93l.25.22a3.44,3.44,0,0,1-1.74.47,3.25,3.25,0,0,1-.54,0c-.32,0-.55.06-.57.43a.53.53,0,0,0,.48.57h.06a4.39,4.39,0,0,0,2.9-.61.53.53,0,0,1,.75,0l0,0c1.06,1,2.14,2,3.19,3,.38.37.35.46-.13.61a4.09,4.09,0,0,1-2.52-.05l-.22-.08c-.31-.11-.56-.08-.67.27s.08.55.42.68a4.79,4.79,0,0,0,3.75,0c.3-.14.46-.08.67.2s.59.85.87,1.29h0s0,0,.07.12a21.56,21.56,0,0,1,2.06,4.1l.3.81c.11.3.31.46.6.39s.37-.37.27-.67c-.2-.58-.42-1.14-.65-1.7a24.89,24.89,0,0,0-1.66-3.2s0,0,0,0-.05-.07-.19-.32h0c-.35-.54-.72-1.07-1.1-1.59a.58.58,0,0,1-.1-.59,6.52,6.52,0,0,0-.25-4.56,4.16,4.16,0,0,0-.24-.47.43.43,0,0,0-.56-.26h0l-.07,0c-.24.13-.27.37-.17.66a15,15,0,0,1,.55,1.72,4.33,4.33,0,0,1-.11,2.23c-.59-.6-1.15-1.2-1.74-1.75s-1.3-1.14-2-1.69a.57.57,0,0,1-.24-.61,4,4,0,0,0-.71-3c-.27-.38-.58-.51-.81-.33s-.22.51.06.89a3.09,3.09,0,0,1,.54,2.15c-.17-.09-.29-.14-.41-.22a14.91,14.91,0,0,0-4.11-1.9l-.27-.07c-.28,0-.52,0-.56.35"/><path id="Path_1645" data-name="Path 1645" class="cls-10" d="M133.4,147.81h0l.08.13c-.05-.1-.05-.11-.07-.12"/><path id="Path_1646" data-name="Path 1646" class="cls-10" d="M134.19,147.34c.14.25.15.3.19.32h0l-.2-.32"/></g></g></g><g id="Group_319" data-name="Group 319"><g class="cls-5"><g id="Group_318" data-name="Group 318"><path id="Path_1647" data-name="Path 1647" class="cls-18" d="M114,244.45H10.5a14,14,0,0,1-3.1-.16c-2.83-.66-4.53-2.8-4.28-5.32s2.17-4.35,5.21-4.62c.75,0,1.51-.06,2.27,0q32.17,0,64.34,0c2,0,3.85-.65,4.61-1.76,2.38-2.5,6.38-4.31,11-5a49.09,49.09,0,0,1,8.73-.75c10.06,0,20.13-.07,30.19,0a36.57,36.57,0,0,1,14.29,2.59,13.25,13.25,0,0,1,4.93,3.39,4.34,4.34,0,0,0,3.76,1.49q32.38,0,64.77,0c.76,0,1.51,0,2.27,0,3.25.25,5.43,2.35,5.35,5.15s-2.3,4.81-5.59,4.94c-.75,0-1.51,0-2.27,0H114"/></g></g></g><g id="Group_323" data-name="Group 323"><g id="Group_322" data-name="Group 322"><g class="cls-19"><g id="Group_321" data-name="Group 321"><path id="Path_1648" data-name="Path 1648" class="cls-20" d="M88.11,211.47v6.6c0,1.43-.43,1.81-2,1.81-2.76,0-5.53,0-8.29,0-.73,0-1,.1-1,.83,0,4.24,0,8.48,0,12.72,0,1.29-.47,1.72-1.88,1.72-1.56,0-3.12,0-4.67,0s-1.91-.42-1.91-1.7c0-4.26,0-8.53,0-12.79,0-.6-.13-.79-.84-.79-8.2,0-16.4,0-24.61,0s-16.35,0-24.52,0c-.65,0-.87.11-.87.75,0,4.27,0,8.54,0,12.8,0,1.29-.47,1.72-1.89,1.72H10.9c-1.31,0-1.82-.45-1.82-1.62,0-4.29,0-8.59,0-12.88,0-.61-.15-.79-.85-.78-2.88,0-5.76,0-8.65,0-1.3,0-1.81-.45-1.81-1.63v-6.91c0-1.18.5-1.63,1.81-1.63,2.91,0,5.82,0,8.73,0,.62,0,.78-.14.77-.7,0-1.86,0-1.86-2.1-1.86H2.32c-1.19,0-1.71-.48-1.71-1.56V173.09c0-1.07.53-1.53,1.73-1.54,2,0,4,0,6,0,.64,0,.76-.17.76-.7,0-1.86,0-1.86-2-1.86H-.33c-1.4,0-1.88-.43-1.88-1.72v-6.76c0-1.27.49-1.69,1.92-1.69,2.76,0,5.53,0,8.29,0,.83,0,1.2-.11,1.11-1a19.08,19.08,0,0,1,0-2.62c0-1,.54-1.52,1.66-1.53h5.12c1.14,0,1.68.48,1.69,1.5s0,2.07,0,3.1c0,.36.08.55.52.49h49.3c.77,0,1.08-.12,1-.88a25.6,25.6,0,0,1,0-2.77c0-.94.55-1.44,1.58-1.45h5.29c1,0,1.57.5,1.59,1.43s0,2,0,3c0,.51.13.66.72.65,2.91,0,5.82,0,8.73,0,1.36,0,1.85.44,1.85,1.67,0,2.3,0,4.61,0,6.91,0,1.13-.52,1.59-1.77,1.59-2.94,0-5.87,0-8.81,0-.59,0-.73.14-.72.65,0,1.9,0,1.9,2.14,1.9,1.56,0,3.12,0,4.67,0,1.13,0,1.67.49,1.67,1.52v32.58c0,1-.55,1.5-1.69,1.5-2,0-4,0-6.08,0-.6,0-.71.17-.71.66,0,1.9,0,1.9,2.06,1.9h7.32c1.46,0,1.92.42,1.92,1.77m-2.8,1.69c.06-.77-.19-.94-1-.94q-41.31,0-82.64,0H1.19c-.46-.06-.6.1-.59.52,0,1.24.07,2.49,0,3.73,0,.7.18.86,1,.86q20.69,0,41.37,0H62.4c7.38,0,14.76,0,22.14,0,.61,0,.79-.12.76-.69a31.44,31.44,0,0,1,0-3.5m0-50.9c0-.73-.19-.9-1-.9q-40.66,0-81.31,0c-.59,0-1.18,0-1.77,0s-.65.11-.63.57c0,1.22.06,2.44,0,3.65,0,.73.19.9,1,.9q20.64,0,41.27,0l41.63,0c.65,0,.85-.12.82-.73a29,29,0,0,1,0-3.49m-3.73,42.39c.73,0,.9-.15.9-.82q0-14.46,0-28.93c0-.66-.16-.81-.9-.81q-19.26,0-38.54,0l-38.72,0c-.73,0-.9.15-.9.81q0,14.46,0,28.93c0,.66.17.82.9.82q38.64,0,77.26,0m-8.2,28c.5,0,.64-.12.63-.57,0-1.91,0-3.82,0-5.72v-4.53c0-1.93,0-1.91-2.12-1.92-.57,0-.72.13-.71.65,0,3.39,0,6.78,0,10.17,0,2,0,1.94,2.2,1.92M74,170.22C74,169,74,169,72.69,169c-1.51,0-1.51,0-1.51,1.34s0,1.21,1.3,1.21c1.52,0,1.52,0,1.52-1.34m-1.39-11.38c1.39,0,1.39,0,1.39-1.22s0-1.33-1.44-1.33-1.38,0-1.38,1.22,0,1.32,1.44,1.32m0,50.88c1.36,0,1.36,0,1.36-1.24s0-1.31-1.46-1.31-1.36,0-1.36,1.24,0,1.31,1.46,1.31m-4.26-39.82c0-.72-.19-.9-1-.89q-23.94,0-47.88,0c-1.95,0-1.92,0-2,1.75,0,.66.17.82.9.81q12.21,0,24.43,0H66.5c1.86,0,1.81,0,1.88-1.67m0,38.07c0-.66-.17-.82-.9-.81q-12.23,0-24.43,0H19.41c-1.86,0-1.82,0-1.88,1.67,0,.72.19.9,1,.89q24,0,47.89,0c2,0,1.91,0,2-1.75M14.11,232.61c.5,0,.64-.12.63-.57,0-1.93,0-3.87,0-5.8v-4.45c0-1.93,0-1.91-2.12-1.92-.58,0-.72.13-.72.65,0,3.39,0,6.78,0,10.17,0,2,0,1.94,2.21,1.92m.62-75.1c0-1.21,0-1.21-1.3-1.21-1.53,0-1.53,0-1.53,1.4,0,1.14,0,1.14,1.3,1.14,1.52,0,1.52,0,1.52-1.33m-1.3,14.05c1.31,0,1.31,0,1.31-1.2s0-1.34-1.51-1.34c-1.32,0-1.32,0-1.32,1.2s0,1.34,1.52,1.34m-.06,38.15c1.37,0,1.37,0,1.37-1.24s0-1.31-1.46-1.31-1.37,0-1.37,1.24,0,1.31,1.46,1.31"/><path id="Path_1649" data-name="Path 1649" class="cls-8" d="M84.27,212.23c.85,0,1.1.16,1,.94a31.43,31.43,0,0,0,0,3.5c0,.56-.15.69-.76.68-7.38,0-14.76,0-22.14,0H42.91l-41.37,0c-.77,0-1-.15-.95-.86.08-1.24.05-2.49,0-3.73,0-.42.13-.58.59-.52h.43q41.33,0,82.64,0M74,214.79c0-1.27,0-1.27-1.41-1.27s-1.41,0-1.41,1.27,0,1.27,1.4,1.27,1.42,0,1.42-1.27m-59.28,0c0-1.23,0-1.23-1.36-1.23s-1.46,0-1.46,1.31,0,1.23,1.37,1.23,1.45,0,1.45-1.31"/><path id="Path_1650" data-name="Path 1650" class="cls-8" d="M84.32,161.37c.8,0,1,.16,1,.9a29,29,0,0,0,0,3.49c0,.6-.17.73-.82.73q-20.82,0-41.63,0-20.64,0-41.27,0c-.8,0-1-.18-1-.9.08-1.22.05-2.44,0-3.66,0-.45.14-.59.64-.56s1.17,0,1.76,0l81.32,0M72.64,165.2c1.36,0,1.36,0,1.36-1.24s0-1.31-1.46-1.31-1.36,0-1.36,1.24,0,1.31,1.46,1.31m-57.91-1.33c0-1.22,0-1.22-1.38-1.22s-1.45,0-1.45,1.33,0,1.22,1.39,1.22,1.44,0,1.44-1.33"/><path id="Path_1651" data-name="Path 1651" class="cls-21" d="M82.48,203.82c0,.67-.17.82-.9.82q-38.62,0-77.26,0c-.73,0-.9-.16-.9-.82q0-14.46,0-28.93c0-.66.17-.81.9-.81q19.37,0,38.72,0l38.54,0c.73,0,.9.15.9.81q0,14.48,0,28.93m-2.84-25.95c0-1.23,0-1.23-1.37-1.23s-1.45,0-1.45,1.32,0,1.23,1.38,1.23,1.44,0,1.44-1.32m0,22.9c0-1.23,0-1.23-1.36-1.23s-1.46,0-1.46,1.31,0,1.23,1.37,1.23,1.45,0,1.45-1.31m-70.56,0c0-1.29,0-1.29-1.4-1.29s-1.42,0-1.42,1.26,0,1.29,1.4,1.29,1.42,0,1.42-1.26m0-22.9c0-1.28,0-1.28-1.41-1.28s-1.41,0-1.41,1.27,0,1.28,1.41,1.28,1.41,0,1.41-1.27"/><path id="Path_1652" data-name="Path 1652" class="cls-20" d="M78.27,176.64c1.37,0,1.37,0,1.37,1.23s0,1.32-1.44,1.32-1.38,0-1.38-1.23,0-1.32,1.45-1.32"/><path id="Path_1653" data-name="Path 1653" class="cls-20" d="M78.28,199.53c1.36,0,1.36,0,1.36,1.23s0,1.32-1.45,1.32-1.37,0-1.37-1.24,0-1.31,1.46-1.31"/><path id="Path_1654" data-name="Path 1654" class="cls-8" d="M74,232c0,.45-.13.56-.63.57-2.2,0-2.2,0-2.2-1.92,0-3.4,0-6.78,0-10.17,0-.52.15-.66.73-.65,2.11,0,2.11,0,2.11,1.92v4.53c0,1.91,0,3.81,0,5.72"/><path id="Path_1655" data-name="Path 1655" class="cls-8" d="M72.69,169C74,169,74,169,74,170.22s0,1.34-1.52,1.34c-1.3,0-1.3,0-1.3-1.21s0-1.34,1.52-1.34"/><path id="Path_1656" data-name="Path 1656" class="cls-8" d="M74,157.62c0,1.22,0,1.22-1.39,1.22s-1.43,0-1.43-1.33,0-1.21,1.38-1.21,1.44,0,1.44,1.32"/><path id="Path_1657" data-name="Path 1657" class="cls-20" d="M74,164c0,1.24,0,1.24-1.36,1.24s-1.46,0-1.46-1.31,0-1.24,1.36-1.24S74,162.65,74,164"/><path id="Path_1658" data-name="Path 1658" class="cls-8" d="M74,208.47c0,1.24,0,1.24-1.36,1.24s-1.46,0-1.46-1.31,0-1.24,1.36-1.24,1.46,0,1.46,1.31"/><path id="Path_1659" data-name="Path 1659" class="cls-20" d="M72.59,213.52c1.41,0,1.41,0,1.41,1.28s0,1.26-1.41,1.26-1.41,0-1.41-1.27,0-1.27,1.41-1.27"/><path id="Path_1660" data-name="Path 1660" class="cls-8" d="M14.74,232c0,.45-.13.56-.63.57-2.21,0-2.21,0-2.21-1.92,0-3.39,0-6.78,0-10.17,0-.52.14-.66.72-.65,2.12,0,2.12,0,2.12,1.92v4.45c0,1.93,0,3.87,0,5.8"/><path id="Path_1661" data-name="Path 1661" class="cls-8" d="M13.43,156.3c1.3,0,1.3,0,1.3,1.21s0,1.33-1.52,1.33c-1.3,0-1.3,0-1.3-1.13,0-1.41,0-1.41,1.53-1.41"/><path id="Path_1662" data-name="Path 1662" class="cls-8" d="M14.73,170.35c0,1.2,0,1.2-1.31,1.2-1.52,0-1.52,0-1.52-1.34s0-1.2,1.32-1.2c1.51,0,1.51,0,1.51,1.34"/><path id="Path_1663" data-name="Path 1663" class="cls-20" d="M13.35,162.65c1.38,0,1.38,0,1.38,1.22s0,1.33-1.44,1.33-1.39,0-1.39-1.22,0-1.33,1.45-1.33"/><path id="Path_1664" data-name="Path 1664" class="cls-8" d="M14.73,208.47c0,1.24,0,1.24-1.37,1.24s-1.45,0-1.45-1.32,0-1.23,1.36-1.23,1.46,0,1.46,1.31"/><path id="Path_1665" data-name="Path 1665" class="cls-20" d="M13.36,213.52c1.37,0,1.37,0,1.37,1.23s0,1.31-1.46,1.31-1.37,0-1.37-1.23,0-1.31,1.46-1.31"/><path id="Path_1666" data-name="Path 1666" class="cls-20" d="M7.68,199.53c1.4,0,1.4,0,1.4,1.29s0,1.26-1.42,1.26-1.4,0-1.4-1.29,0-1.26,1.42-1.26"/><path id="Path_1667" data-name="Path 1667" class="cls-20" d="M7.67,176.64c1.41,0,1.41,0,1.41,1.28s0,1.27-1.41,1.27-1.41,0-1.41-1.28,0-1.27,1.41-1.27"/></g></g></g><g id="One_piece_of_leaf_will_emerge_when_one_record_is_uploaded._" data-name="One piece of leaf will emerge when one record is uploaded. " class="cls-22"><path class="cls-23" d="M11.79,181v-1.33h0l-.88,2.16L10,179.66H9.93v3.43H9.47V178.9h.65l.73,1.85h0l.74-1.85h.62v4.19h-.46Z"/><path class="cls-23" d="M14.46,183.16a1.59,1.59,0,0,1-.59-.11,1.31,1.31,0,0,1-.44-.33,1.56,1.56,0,0,1-.28-.51,2.26,2.26,0,0,1,0-1.33,1.73,1.73,0,0,1,.28-.52,1.16,1.16,0,0,1,.44-.32,1.41,1.41,0,0,1,.59-.12A1.34,1.34,0,0,1,15,180a1.12,1.12,0,0,1,.45.32,1.73,1.73,0,0,1,.28.52,2.5,2.5,0,0,1,0,1.33,1.56,1.56,0,0,1-.28.51,1.25,1.25,0,0,1-.45.33A1.5,1.5,0,0,1,14.46,183.16Zm0-.41a.9.9,0,0,0,.65-.24,1,1,0,0,0,.24-.75v-.44a1,1,0,0,0-.24-.74.9.9,0,0,0-.65-.24.88.88,0,0,0-.65.24,1,1,0,0,0-.25.74v.44a1,1,0,0,0,.25.75A.88.88,0,0,0,14.46,182.75Z"/><path class="cls-23" d="M16.72,182.68h.91v-2.27h-.91V180h1.39v.78h0a1,1,0,0,1,.36-.57,1.08,1.08,0,0,1,.68-.21h.43v.48H19a1,1,0,0,0-.67.24.82.82,0,0,0-.25.63v1.34h1.2v.41H16.72Z"/><path class="cls-23" d="M21.71,183.16a1.64,1.64,0,0,1-.6-.11,1.39,1.39,0,0,1-.46-.33,1.58,1.58,0,0,1-.29-.51,2.28,2.28,0,0,1-.1-.66,2,2,0,0,1,.11-.67,1.55,1.55,0,0,1,.29-.52,1.16,1.16,0,0,1,.44-.32,1.4,1.4,0,0,1,.58-.12,1.32,1.32,0,0,1,.57.12,1.25,1.25,0,0,1,.44.31,1.5,1.5,0,0,1,.27.48,1.64,1.64,0,0,1,.1.6v.23h-2.3v.15a1.11,1.11,0,0,0,.07.37.91.91,0,0,0,.19.3.79.79,0,0,0,.3.2,1.23,1.23,0,0,0,.39.07,1,1,0,0,0,.54-.15.83.83,0,0,0,.35-.39l.36.24a1.19,1.19,0,0,1-.46.51A1.43,1.43,0,0,1,21.71,183.16Zm0-2.84a.86.86,0,0,0-.36.07.84.84,0,0,0-.29.2.79.79,0,0,0-.2.3,1.06,1.06,0,0,0-.07.37v0h1.78v-.06a1.16,1.16,0,0,0-.06-.38.88.88,0,0,0-.18-.29.77.77,0,0,0-.27-.19A1,1,0,0,0,21.68,180.32Z"/><path class="cls-23" d="M29.61,182.59h0a1,1,0,0,1-1,.57,1.05,1.05,0,0,1-.89-.42,2,2,0,0,1-.32-1.2,2,2,0,0,1,.32-1.19,1,1,0,0,1,.89-.43,1,1,0,0,1,1,.58h0v-1.85h.48v4.44h-.48Zm-.79.15a.94.94,0,0,0,.3-.05.62.62,0,0,0,.26-.12.67.67,0,0,0,.17-.2.57.57,0,0,0,.06-.27V181a.6.6,0,0,0-.06-.27.82.82,0,0,0-.17-.2,1,1,0,0,0-.26-.12,1,1,0,0,0-.3,0,.82.82,0,0,0-.65.25,1,1,0,0,0-.23.68v.53a.93.93,0,0,0,.23.67A.83.83,0,0,0,28.82,182.74Z"/><path class="cls-23" d="M33.63,183.09a.51.51,0,0,1-.4-.14.73.73,0,0,1-.15-.36h0a.87.87,0,0,1-.33.42,1.07,1.07,0,0,1-.6.15,1.14,1.14,0,0,1-.78-.25.88.88,0,0,1-.28-.69.79.79,0,0,1,.31-.67,1.79,1.79,0,0,1,1-.23h.66V181a.66.66,0,0,0-.19-.51.77.77,0,0,0-.55-.17,1,1,0,0,0-.51.12.92.92,0,0,0-.32.33l-.32-.24a.87.87,0,0,1,.16-.23,1,1,0,0,1,.25-.21,1.73,1.73,0,0,1,.34-.14,1.88,1.88,0,0,1,.43-.05,1.28,1.28,0,0,1,.87.28,1,1,0,0,1,.32.77v1.71H34v.41Zm-1.43-.33a1.18,1.18,0,0,0,.34,0l.27-.12a.58.58,0,0,0,.17-.18.39.39,0,0,0,.07-.23v-.51h-.66a1.25,1.25,0,0,0-.63.12.39.39,0,0,0-.2.35v.12a.45.45,0,0,0,.17.37A.8.8,0,0,0,32.2,182.76Z"/><path class="cls-23" d="M36.21,183.09a.64.64,0,0,1-.52-.2.76.76,0,0,1-.16-.51v-2h-1V180h.77a.23.23,0,0,0,.28-.28v-.81H36V180h1.41v.42H36v2.27h1.41v.41Z"/><path class="cls-23" d="M40.83,183.09a.51.51,0,0,1-.4-.14.73.73,0,0,1-.15-.36h0a.87.87,0,0,1-.33.42,1.07,1.07,0,0,1-.6.15,1.14,1.14,0,0,1-.78-.25.88.88,0,0,1-.28-.69.79.79,0,0,1,.31-.67,1.79,1.79,0,0,1,1-.23h.66V181a.66.66,0,0,0-.19-.51.77.77,0,0,0-.55-.17,1,1,0,0,0-.51.12.92.92,0,0,0-.32.33l-.32-.24a.87.87,0,0,1,.16-.23,1,1,0,0,1,.25-.21,1.73,1.73,0,0,1,.34-.14,1.88,1.88,0,0,1,.43-.05,1.28,1.28,0,0,1,.87.28,1,1,0,0,1,.32.77v1.71h.43v.41Zm-1.43-.33a1.18,1.18,0,0,0,.34,0l.27-.12a.58.58,0,0,0,.17-.18.39.39,0,0,0,.07-.23v-.51h-.66a1.25,1.25,0,0,0-.63.12.39.39,0,0,0-.2.35v.12a.45.45,0,0,0,.17.37A.82.82,0,0,0,39.4,182.76Z"/><path class="cls-23" d="M46.91,183.16a1.64,1.64,0,0,1-.6-.11,1.39,1.39,0,0,1-.46-.33,1.58,1.58,0,0,1-.29-.51,2.28,2.28,0,0,1-.1-.66,2,2,0,0,1,.11-.67,1.55,1.55,0,0,1,.29-.52,1.16,1.16,0,0,1,.44-.32,1.4,1.4,0,0,1,.58-.12,1.32,1.32,0,0,1,.57.12,1.25,1.25,0,0,1,.44.31,1.33,1.33,0,0,1,.27.48,1.64,1.64,0,0,1,.1.6v.23H46v.15a1.1,1.1,0,0,0,.06.37.91.91,0,0,0,.19.3.79.79,0,0,0,.3.2,1.23,1.23,0,0,0,.39.07,1,1,0,0,0,.54-.15.83.83,0,0,0,.35-.39l.36.24a1.19,1.19,0,0,1-.46.51A1.43,1.43,0,0,1,46.91,183.16Zm0-2.84a.86.86,0,0,0-.36.07.84.84,0,0,0-.29.2.67.67,0,0,0-.19.3.87.87,0,0,0-.07.37v0h1.77v-.06a1.16,1.16,0,0,0-.06-.38,1.05,1.05,0,0,0-.17-.29.92.92,0,0,0-.28-.19A1,1,0,0,0,46.88,180.32Z"/><path class="cls-23" d="M49.25,183.09V180h.48v.51h0a.94.94,0,0,1,.12-.22.77.77,0,0,1,.18-.18.66.66,0,0,1,.25-.13,1.09,1.09,0,0,1,.33-.05,1,1,0,0,1,.78.31,1.21,1.21,0,0,1,.3.87v2h-.48v-1.9a.91.91,0,0,0-.19-.64.7.7,0,0,0-.54-.2,1.43,1.43,0,0,0-.29,0,.88.88,0,0,0-.24.11.66.66,0,0,0-.18.19.53.53,0,0,0-.06.26v2.15Z"/><path class="cls-23" d="M54.21,183.09a.64.64,0,0,1-.52-.2.76.76,0,0,1-.16-.51v-2h-1V180h.77a.23.23,0,0,0,.28-.28v-.81H54V180h1.41v.42H54v2.27h1.41v.41Z"/><path class="cls-23" d="M56.32,182.68h.91v-2.27h-.91V180h1.39v.78h0a1,1,0,0,1,.36-.57,1.08,1.08,0,0,1,.68-.21h.43v.48h-.58a1,1,0,0,0-.67.24.82.82,0,0,0-.25.63v1.34h1.2v.41H56.32Z"/><path class="cls-23" d="M62.26,180h.48l-1.53,3.78a2.42,2.42,0,0,1-.12.23.81.81,0,0,1-.16.16.9.9,0,0,1-.22.1,1.26,1.26,0,0,1-.3,0H60v-.41h.72L61,183l-1.25-3h.49l.52,1.3.46,1.18h0l.46-1.18Z"/><path class="cls-23" d="M66.84,180h.43l.35,2.68h.06L68.2,180h.53l.53,2.68h0l.36-2.68h.41l-.47,3.1H69l-.49-2.59h0l-.5,2.59h-.63Z"/><path class="cls-23" d="M70.9,182.68H72v-2.27H70.9V180h1.59v2.69h1.05v.41H70.9Zm1.35-3.37a.37.37,0,0,1-.29-.09.28.28,0,0,1-.09-.22v-.09a.29.29,0,0,1,.09-.22.37.37,0,0,1,.29-.09.41.41,0,0,1,.3.09.33.33,0,0,1,.08.22V179a.31.31,0,0,1-.08.22A.41.41,0,0,1,72.25,179.31Z"/><path class="cls-23" d="M74.34,182.68h1.08v-3.62H74.34v-.41H75.9v4H77v.41H74.34Z"/><path class="cls-23" d="M77.94,182.68H79v-3.62H77.94v-.41H79.5v4h1.08v.41H77.94Z"/><path class="cls-23" d="M12,190.29a.51.51,0,0,1-.4-.14.73.73,0,0,1-.15-.36h0a.87.87,0,0,1-.33.42,1.07,1.07,0,0,1-.6.15,1.13,1.13,0,0,1-.78-.25.88.88,0,0,1-.28-.69.79.79,0,0,1,.31-.67,1.79,1.79,0,0,1,1-.23h.66v-.3a.66.66,0,0,0-.19-.51.79.79,0,0,0-.55-.17,1,1,0,0,0-.51.12.92.92,0,0,0-.32.33l-.32-.24a.87.87,0,0,1,.16-.23,1,1,0,0,1,.25-.21,2.18,2.18,0,0,1,.34-.14,1.88,1.88,0,0,1,.43,0,1.28,1.28,0,0,1,.87.28,1,1,0,0,1,.32.77v1.71h.43v.41ZM10.6,190a1.22,1.22,0,0,0,.34,0,1.11,1.11,0,0,0,.27-.12.58.58,0,0,0,.17-.18.39.39,0,0,0,.07-.23v-.51h-.66a1.25,1.25,0,0,0-.63.12.38.38,0,0,0-.2.35v.12a.44.44,0,0,0,.17.37A.8.8,0,0,0,10.6,190Z"/><path class="cls-23" d="M15.21,189.79h0a1,1,0,0,1-.95.57,1.05,1.05,0,0,1-.89-.42,2,2,0,0,1-.32-1.2,2,2,0,0,1,.32-1.19,1,1,0,0,1,.89-.43,1,1,0,0,1,.95.58h0v-1.85h.48v4.44h-.48Zm-.79.15a.94.94,0,0,0,.3-.05.53.53,0,0,0,.25-.12.58.58,0,0,0,.18-.2.57.57,0,0,0,.06-.27v-1.12a.6.6,0,0,0-.06-.27.68.68,0,0,0-.18-.2.83.83,0,0,0-.25-.12,1,1,0,0,0-.3,0,.82.82,0,0,0-.65.25,1,1,0,0,0-.23.68V189a.93.93,0,0,0,.23.67A.83.83,0,0,0,14.42,189.94Z"/><path class="cls-23" d="M18.81,189.79h0a1,1,0,0,1-1,.57,1.05,1.05,0,0,1-.89-.42,2,2,0,0,1-.32-1.2,2,2,0,0,1,.32-1.19,1,1,0,0,1,.89-.43,1,1,0,0,1,1,.58h0v-1.85h.48v4.44h-.48Zm-.79.15a.94.94,0,0,0,.3-.05.62.62,0,0,0,.26-.12.67.67,0,0,0,.17-.2.57.57,0,0,0,.06-.27v-1.12a.6.6,0,0,0-.06-.27.82.82,0,0,0-.17-.2,1,1,0,0,0-.26-.12,1,1,0,0,0-.3,0,.82.82,0,0,0-.65.25,1,1,0,0,0-.23.68V189a.93.93,0,0,0,.23.67A.83.83,0,0,0,18,189.94Z"/><path class="cls-23" d="M23.78,190.29v-3.1h.45v.36h0a.81.81,0,0,1,.21-.3.5.5,0,0,1,.39-.13.54.54,0,0,1,.4.14.57.57,0,0,1,.16.35h0a.79.79,0,0,1,.24-.35.63.63,0,0,1,.43-.14.52.52,0,0,1,.51.27,1.8,1.8,0,0,1,.13.75v2.15h-.45v-2.07a1.38,1.38,0,0,0-.08-.55.3.3,0,0,0-.3-.15.43.43,0,0,0-.31.12.52.52,0,0,0-.12.38v2.27H25v-2.07a1.38,1.38,0,0,0-.08-.55.31.31,0,0,0-.29-.15.44.44,0,0,0-.32.12.52.52,0,0,0-.12.38v2.27Z"/><path class="cls-23" d="M28.86,190.36a1.59,1.59,0,0,1-.59-.11,1.31,1.31,0,0,1-.44-.33,1.56,1.56,0,0,1-.28-.51,2.5,2.5,0,0,1,0-1.33,1.73,1.73,0,0,1,.28-.52,1.16,1.16,0,0,1,.44-.32,1.41,1.41,0,0,1,.59-.12,1.34,1.34,0,0,1,.58.12,1.12,1.12,0,0,1,.45.32,1.73,1.73,0,0,1,.28.52,2.5,2.5,0,0,1,0,1.33,1.56,1.56,0,0,1-.28.51,1.25,1.25,0,0,1-.45.33A1.5,1.5,0,0,1,28.86,190.36Zm0-.41a.9.9,0,0,0,.65-.24,1,1,0,0,0,.24-.75v-.44a1,1,0,0,0-.24-.74,1,1,0,0,0-1.3,0,1,1,0,0,0-.24.74V189a1,1,0,0,0,.24.75A.9.9,0,0,0,28.86,190Z"/><path class="cls-23" d="M31.12,189.88H32v-2.27h-.91v-.42h1.39V188h0a1,1,0,0,1,.36-.57,1.08,1.08,0,0,1,.68-.21H34v.48h-.58a1,1,0,0,0-.67.24.82.82,0,0,0-.25.63v1.34h1.2v.41H31.12Z"/><path class="cls-23" d="M36.11,190.36a1.64,1.64,0,0,1-.6-.11,1.39,1.39,0,0,1-.46-.33,1.58,1.58,0,0,1-.29-.51,2.28,2.28,0,0,1-.1-.66,2,2,0,0,1,.11-.67,1.55,1.55,0,0,1,.29-.52,1.12,1.12,0,0,1,.45-.32,1.41,1.41,0,0,1,1.14,0,1.25,1.25,0,0,1,.44.31,1.33,1.33,0,0,1,.27.48,1.64,1.64,0,0,1,.1.6v.23H35.17V189a1.1,1.1,0,0,0,.06.37.91.91,0,0,0,.19.3.79.79,0,0,0,.3.2,1,1,0,0,0,.39.07,1,1,0,0,0,.54-.15.83.83,0,0,0,.35-.39l.36.24a1.19,1.19,0,0,1-.46.51A1.43,1.43,0,0,1,36.11,190.36Zm0-2.84a.86.86,0,0,0-.36.07.84.84,0,0,0-.29.2.79.79,0,0,0-.2.3,1.06,1.06,0,0,0-.06.37v0h1.77v-.06a1.16,1.16,0,0,0-.06-.38.88.88,0,0,0-.18-.29.77.77,0,0,0-.27-.19A1,1,0,0,0,36.08,187.52Z"/><path class="cls-23" d="M41.94,189.88H43v-3.62H41.94v-.41H43.5v4h1.08v.41H41.94Z"/><path class="cls-23" d="M46.91,190.36a1.64,1.64,0,0,1-.6-.11,1.39,1.39,0,0,1-.46-.33,1.58,1.58,0,0,1-.29-.51,2.28,2.28,0,0,1-.1-.66,2,2,0,0,1,.11-.67,1.55,1.55,0,0,1,.29-.52,1.16,1.16,0,0,1,.44-.32,1.4,1.4,0,0,1,.58-.12,1.32,1.32,0,0,1,.57.12,1.25,1.25,0,0,1,.44.31,1.33,1.33,0,0,1,.27.48,1.64,1.64,0,0,1,.1.6v.23H46V189a1.1,1.1,0,0,0,.06.37.91.91,0,0,0,.19.3.79.79,0,0,0,.3.2,1,1,0,0,0,.39.07,1,1,0,0,0,.54-.15.83.83,0,0,0,.35-.39l.36.24a1.19,1.19,0,0,1-.46.51A1.43,1.43,0,0,1,46.91,190.36Zm0-2.84a.86.86,0,0,0-.36.07.84.84,0,0,0-.29.2.67.67,0,0,0-.19.3.87.87,0,0,0-.07.37v0h1.77v-.06a1.16,1.16,0,0,0-.06-.38,1.05,1.05,0,0,0-.17-.29.92.92,0,0,0-.28-.19A1,1,0,0,0,46.88,187.52Z"/><path class="cls-23" d="M51.63,190.29a.51.51,0,0,1-.4-.14.73.73,0,0,1-.15-.36h0a.87.87,0,0,1-.33.42,1.07,1.07,0,0,1-.6.15,1.14,1.14,0,0,1-.78-.25.88.88,0,0,1-.28-.69.79.79,0,0,1,.31-.67,1.79,1.79,0,0,1,1-.23h.66v-.3a.66.66,0,0,0-.19-.51.77.77,0,0,0-.55-.17,1,1,0,0,0-.51.12.92.92,0,0,0-.32.33l-.32-.24a.87.87,0,0,1,.16-.23,1,1,0,0,1,.25-.21l.34-.14a1.88,1.88,0,0,1,.43,0,1.28,1.28,0,0,1,.87.28,1,1,0,0,1,.32.77v1.71H52v.41ZM50.2,190a1.18,1.18,0,0,0,.34,0,1.11,1.11,0,0,0,.27-.12.77.77,0,0,0,.18-.18.46.46,0,0,0,.06-.23v-.51h-.66a1.25,1.25,0,0,0-.63.12.39.39,0,0,0-.2.35v.12a.44.44,0,0,0,.17.37A.8.8,0,0,0,50.2,190Z"/><path class="cls-23" d="M53.75,190.29l-1.11-3.1h.49l.44,1.3.48,1.4h0l.48-1.4.44-1.3h.48l-1.11,3.1Z"/><path class="cls-23" d="M57.71,190.36a1.64,1.64,0,0,1-.6-.11,1.25,1.25,0,0,1-.45-.33,1.44,1.44,0,0,1-.3-.51,2.28,2.28,0,0,1-.1-.66,2,2,0,0,1,.11-.67,1.55,1.55,0,0,1,.29-.52,1.12,1.12,0,0,1,.45-.32,1.41,1.41,0,0,1,1.14,0,1.25,1.25,0,0,1,.44.31A1.33,1.33,0,0,1,59,188a1.64,1.64,0,0,1,.1.6v.23H56.77V189a1.1,1.1,0,0,0,.06.37.91.91,0,0,0,.19.3.79.79,0,0,0,.3.2,1,1,0,0,0,.39.07,1,1,0,0,0,.54-.15.83.83,0,0,0,.35-.39l.36.24a1.19,1.19,0,0,1-.46.51A1.43,1.43,0,0,1,57.71,190.36Zm0-2.84a.86.86,0,0,0-.36.07.84.84,0,0,0-.29.2.77.77,0,0,0-.19.3.87.87,0,0,0-.07.37v0h1.77v-.06a1.16,1.16,0,0,0-.06-.38.88.88,0,0,0-.18-.29.83.83,0,0,0-.26-.19A1,1,0,0,0,57.68,187.52Z"/><path class="cls-23" d="M61.3,190.36a1.94,1.94,0,0,1-.84-.16,2,2,0,0,1-.6-.44l.33-.29a1.48,1.48,0,0,0,.48.36,1.41,1.41,0,0,0,.64.13,1.15,1.15,0,0,0,.59-.13.43.43,0,0,0,.23-.4.46.46,0,0,0,0-.21.37.37,0,0,0-.13-.12.53.53,0,0,0-.17-.08l-.21,0-.48-.08-.35-.06a1.35,1.35,0,0,1-.35-.14.77.77,0,0,1-.26-.25.7.7,0,0,1-.1-.4.79.79,0,0,1,.35-.7,1.34,1.34,0,0,1,.4-.17,1.88,1.88,0,0,1,.49-.06,2,2,0,0,1,.73.13,1.45,1.45,0,0,1,.53.37l-.31.29-.13-.13a1,1,0,0,0-.2-.13,1.71,1.71,0,0,0-.27-.09,2,2,0,0,0-.36,0,1.05,1.05,0,0,0-.56.13.42.42,0,0,0-.2.37.42.42,0,0,0,.05.2.49.49,0,0,0,.12.13.75.75,0,0,0,.18.07l.2.05.48.07.36.06a1.43,1.43,0,0,1,.34.14.77.77,0,0,1,.26.25.71.71,0,0,1,.1.41.82.82,0,0,1-.35.71A1.62,1.62,0,0,1,61.3,190.36Z"/><path class="cls-23" d="M67.3,189.88h1.11v-2.27H67.3v-.42h1.59v2.69h1v.41H67.3Zm1.35-3.37a.37.37,0,0,1-.29-.09.28.28,0,0,1-.09-.22v-.09a.29.29,0,0,1,.09-.22.37.37,0,0,1,.29-.09.41.41,0,0,1,.3.09.33.33,0,0,1,.08.22v.09a.31.31,0,0,1-.08.22A.41.41,0,0,1,68.65,186.51Z"/><path class="cls-23" d="M70.85,190.29v-3.1h.48v.51h0l.12-.22a.77.77,0,0,1,.18-.18.66.66,0,0,1,.25-.13,1.09,1.09,0,0,1,.33,0,1,1,0,0,1,.78.31,1.21,1.21,0,0,1,.3.87v2h-.48v-1.9a.86.86,0,0,0-.19-.63.67.67,0,0,0-.54-.21,1.43,1.43,0,0,0-.29,0,.88.88,0,0,0-.24.11.66.66,0,0,0-.18.19.53.53,0,0,0-.06.26v2.15Z"/><path class="cls-23" d="M11,197.49a.61.61,0,0,1-.52-.2.76.76,0,0,1-.16-.51v-2h-1v-.42h.77a.23.23,0,0,0,.28-.28v-.81h.46v1.09h1.42v.42H10.8v2.27h1.42v.41Z"/><path class="cls-23" d="M13.25,193.05h.48v1.85h0a.94.94,0,0,1,.12-.22.77.77,0,0,1,.18-.18.66.66,0,0,1,.25-.13,1.09,1.09,0,0,1,.33-.05,1,1,0,0,1,.78.31,1.21,1.21,0,0,1,.3.87v2h-.48v-1.9A.86.86,0,0,0,15,195a.67.67,0,0,0-.54-.21,1.36,1.36,0,0,0-.29,0,.88.88,0,0,0-.24.11.55.55,0,0,0-.18.19.53.53,0,0,0-.06.26v2.15h-.48Z"/><path class="cls-23" d="M18.11,197.56a1.64,1.64,0,0,1-.6-.11,1.39,1.39,0,0,1-.46-.33,1.58,1.58,0,0,1-.29-.51,2.28,2.28,0,0,1-.1-.66,2,2,0,0,1,.11-.67,1.55,1.55,0,0,1,.29-.52,1.16,1.16,0,0,1,.44-.32,1.4,1.4,0,0,1,.58-.12,1.32,1.32,0,0,1,.57.12,1.25,1.25,0,0,1,.44.31,1.33,1.33,0,0,1,.27.48,1.64,1.64,0,0,1,.1.6v.23H17.17v.15a1.1,1.1,0,0,0,.06.37.91.91,0,0,0,.19.3.79.79,0,0,0,.3.2,1,1,0,0,0,.39.07,1,1,0,0,0,.54-.15.89.89,0,0,0,.35-.39l.36.24a1.19,1.19,0,0,1-.46.51A1.43,1.43,0,0,1,18.11,197.56Zm0-2.84a.86.86,0,0,0-.36.07.84.84,0,0,0-.29.2.79.79,0,0,0-.2.3,1.06,1.06,0,0,0-.06.37v0h1.77v-.06a1.16,1.16,0,0,0-.06-.38.88.88,0,0,0-.18-.29.77.77,0,0,0-.27-.19A1,1,0,0,0,18.08,194.72Z"/><path class="cls-23" d="M25.41,197.49a.61.61,0,0,1-.52-.2.76.76,0,0,1-.16-.51v-2h-1v-.42h.77a.23.23,0,0,0,.28-.28v-.81h.47v1.09h1.41v.42H25.21v2.27h1.41v.41Z"/><path class="cls-23" d="M27.52,197.08h.91v-2.27h-.91v-.42h1.39v.78h0a1,1,0,0,1,.36-.57,1.08,1.08,0,0,1,.68-.21h.43v.48h-.58a1,1,0,0,0-.67.24.82.82,0,0,0-.25.63v1.34h1.2v.41H27.52Z"/><path class="cls-23" d="M32.51,197.56a1.64,1.64,0,0,1-.6-.11,1.39,1.39,0,0,1-.46-.33,1.58,1.58,0,0,1-.29-.51,2.28,2.28,0,0,1-.1-.66,2,2,0,0,1,.11-.67,1.55,1.55,0,0,1,.29-.52,1.16,1.16,0,0,1,.44-.32,1.4,1.4,0,0,1,.58-.12,1.32,1.32,0,0,1,.57.12,1.25,1.25,0,0,1,.44.31,1.33,1.33,0,0,1,.27.48,1.64,1.64,0,0,1,.1.6v.23H31.57v.15a1.1,1.1,0,0,0,.06.37.91.91,0,0,0,.19.3.79.79,0,0,0,.3.2,1,1,0,0,0,.39.07,1,1,0,0,0,.54-.15.83.83,0,0,0,.35-.39l.36.24a1.19,1.19,0,0,1-.46.51A1.43,1.43,0,0,1,32.51,197.56Zm0-2.84a.86.86,0,0,0-.36.07.84.84,0,0,0-.29.2.67.67,0,0,0-.19.3.87.87,0,0,0-.07.37v0h1.77v-.06a1.16,1.16,0,0,0-.06-.38.88.88,0,0,0-.18-.29.77.77,0,0,0-.27-.19A1,1,0,0,0,32.48,194.72Z"/><path class="cls-23" d="M36.11,197.56a1.64,1.64,0,0,1-.6-.11,1.39,1.39,0,0,1-.46-.33,1.58,1.58,0,0,1-.29-.51,2.28,2.28,0,0,1-.1-.66,2,2,0,0,1,.11-.67,1.55,1.55,0,0,1,.29-.52,1.12,1.12,0,0,1,.45-.32,1.41,1.41,0,0,1,1.14,0,1.25,1.25,0,0,1,.44.31,1.33,1.33,0,0,1,.27.48,1.64,1.64,0,0,1,.1.6v.23H35.17v.15a1.1,1.1,0,0,0,.06.37.91.91,0,0,0,.19.3.79.79,0,0,0,.3.2,1,1,0,0,0,.39.07,1,1,0,0,0,.54-.15.83.83,0,0,0,.35-.39l.36.24a1.19,1.19,0,0,1-.46.51A1.43,1.43,0,0,1,36.11,197.56Zm0-2.84a.86.86,0,0,0-.36.07.84.84,0,0,0-.29.2.79.79,0,0,0-.2.3,1.06,1.06,0,0,0-.06.37v0h1.77v-.06a1.16,1.16,0,0,0-.06-.38.88.88,0,0,0-.18-.29.77.77,0,0,0-.27-.19A1,1,0,0,0,36.08,194.72Z"/><path class="cls-23" d="M39.66,197.54a.49.49,0,0,1-.35-.1.37.37,0,0,1-.09-.26v-.1a.37.37,0,0,1,.09-.26.66.66,0,0,1,.7,0,.37.37,0,0,1,.09.26v.1a.37.37,0,0,1-.09.26A.49.49,0,0,1,39.66,197.54Z"/></g></g></svg>