<svg xmlns="http://www.w3.org/2000/svg" xmlns:xlink="http://www.w3.org/1999/xlink" viewBox="0 0 605.84 383.57"><defs><style>.cls-1,.cls-4{fill:none;}.cls-2{clip-path:url(#clip-path);}.cls-3{fill:#f4f2f2;}.cls-3,.cls-4{stroke:#19181c;stroke-miterlimit:10;stroke-width:0.25px;}.cls-5{clip-path:url(#clip-path-2);}.cls-6{fill:#b93132;}.cls-7{isolation:isolate;}.cls-8{fill:#707071;}</style><clipPath id="clip-path" transform="translate(0 -1.25)"><rect class="cls-1" y="19.58" width="569.04" height="328.08"/></clipPath><clipPath id="clip-path-2" transform="translate(0 -1.25)"><rect class="cls-1" x="0.85" y="195.4" width="569.04" height="42.01"/></clipPath></defs><g id="Layer_2" data-name="Layer 2"><g id="Layer_1-2" data-name="Layer 1"><g id="Group_29" data-name="Group 29"><g class="cls-2"><g id="Group_28" data-name="Group 28"><rect id="Rectangle_30" data-name="Rectangle 30" class="cls-3" x="0.68" y="18.93" width="568.06" height="326.59" rx="19.1"/><line id="Line_1" data-name="Line 1" class="cls-4" x1="0.68" y1="61.59" x2="568.45" y2="61.59"/><line id="Line_2" data-name="Line 2" class="cls-4" x1="0.44" y1="101.95" x2="568.2" y2="101.95"/><line id="Line_3" data-name="Line 3" class="cls-4" y1="142.67" x2="567.77" y2="142.67"/><line id="Line_4" data-name="Line 4" class="cls-4" x1="0.49" y1="183.02" x2="568.26" y2="183.02"/><line id="Line_5" data-name="Line 5" class="cls-4" x1="0.05" y1="223.75" x2="567.82" y2="223.75"/><line id="Line_6" data-name="Line 6" class="cls-4" x1="0.78" y1="264.6" x2="568.55" y2="264.6"/><line id="Line_7" data-name="Line 7" class="cls-4" x1="1.27" y1="304.95" x2="569.04" y2="304.95"/><line id="Line_8" data-name="Line 8" class="cls-4" x1="41.21" y1="18.93" x2="41.21" y2="345.52"/><line id="Line_9" data-name="Line 9" class="cls-4" x1="81.87" y1="18.8" x2="81.87" y2="345.39"/><line id="Line_10" data-name="Line 10" class="cls-4" x1="122.24" y1="18.77" x2="122.24" y2="345.36"/><line id="Line_11" data-name="Line 11" class="cls-4" x1="162.93" y1="18.65" x2="162.93" y2="345.23"/><line id="Line_12" data-name="Line 12" class="cls-4" x1="203.46" y1="18.85" x2="203.46" y2="345.44"/><line id="Line_13" data-name="Line 13" class="cls-4" x1="244.13" y1="18.72" x2="244.13" y2="345.31"/><line id="Line_14" data-name="Line 14" class="cls-4" x1="284.5" y1="18.7" x2="284.5" y2="345.29"/><line id="Line_15" data-name="Line 15" class="cls-4" x1="325.19" y1="19.82" x2="325.19" y2="346.41"/><line id="Line_16" data-name="Line 16" class="cls-4" x1="365.56" y1="19.8" x2="365.56" y2="346.39"/><line id="Line_17" data-name="Line 17" class="cls-4" x1="406.25" y1="18.49" x2="406.25" y2="345.07"/><line id="Line_18" data-name="Line 18" class="cls-4" x1="446.62" y1="18.46" x2="446.62" y2="345.05"/><line id="Line_19" data-name="Line 19" class="cls-4" x1="487.31" y1="18.33" x2="487.31" y2="344.92"/><line id="Line_20" data-name="Line 20" class="cls-4" x1="527.84" y1="18.54" x2="527.84" y2="345.13"/></g></g></g><g id="Group_74" data-name="Group 74"><g class="cls-5"><g id="Group_73" data-name="Group 73"><path id="Path_1145" data-name="Path 1145" class="cls-6" d="M8.13,235.87C24,213.17,58.44,203.51,88.4,210.34c18.35,4.19,34.53,14.46,54.5,11.76,5.25-.71,10.33-2.1,15.58-2.78a132.49,132.49,0,0,1,14.08-.7c9.66-.22,19.4-1.06,27.64-5.63,3.87-2.15,7.28-4.79,12.08-5.27,5.29-.54,10.84,0,16.14.14,11,.32,22,.74,33,1.69a253.77,253.77,0,0,1,32.21,4.68c5.32,1.16,10.58,2.54,16.09,2.92a77.73,77.73,0,0,0,15.47-.82,255.66,255.66,0,0,1,33.62-2.59c9.68,0,20.71,2.12,29.84-1.4,4.2-1.61,7-4.44,10.32-7A32.16,32.16,0,0,1,410,200c8.57-2.34,17.3-.93,25.34,2.08,6.94,2.6,13.35,6,20.4,8.5A161.11,161.11,0,0,0,480.83,217c5.46,1,10.95,1.49,16.5,2s10.8,1.23,16.25,1.11l34.4-.74,16.64-.36c1.57,0,4.16-.43,5-1.67s-.73-1.7-2-1.67l-34.41.75c-5.92.13-11.83.3-17.75.38-5.74.08-11.61-.85-17.31-1.38a155.66,155.66,0,0,1-50.25-13.5c-7.84-3.56-16.13-6.41-25.2-6.5a51.76,51.76,0,0,0-25.46,6.3c-3.92,2.21-6.75,5.34-10.5,7.68s-9.09,1.52-13.49,1.31a233,233,0,0,0-33.63.78c-5.53.52-11,1.4-16.49,2a52.5,52.5,0,0,1-16.59-.67c-11-2.2-21.73-4.54-33-5.77-10.94-1.2-22-1.82-33-2.23-5.56-.21-11.12-.36-16.68-.52-5.17-.14-10.41-.2-15.43,1s-8.73,3.65-12.88,6a31,31,0,0,1-13,3.64c-10,.86-19.71.32-29.55,2.23-5.09,1-10.12,2.2-15.4,2.06a57.54,57.54,0,0,1-14.5-2.56c-9.3-2.71-18-6.65-27.51-9-30.34-7.51-66.95,0-87.76,20.21a56,56,0,0,0-6.77,8c-1.68,2.41,5.87,1.67,7,0" transform="translate(0 -1.25)"/></g></g></g><g id="Date"><g id="Apr_25th" data-name="Apr 25th" class="cls-7"><g class="cls-7"><path class="cls-8" d="M9,380.88l-.82-2.78H4.75l-.83,2.78H2.7l3-9.77H7.25l3,9.77Zm-2.48-8.52H6.4L5,377.08H7.9Z" transform="translate(0 -1.25)"/><path class="cls-8" d="M12,373.66h1.12v1.18h.05a2.35,2.35,0,0,1,2.23-1.35,2.44,2.44,0,0,1,2.08,1,5.55,5.55,0,0,1,0,5.57,2.46,2.46,0,0,1-2.08,1,2.35,2.35,0,0,1-2.23-1.34h-.05v4H12Zm3,6.4a1.92,1.92,0,0,0,1.51-.6,2.23,2.23,0,0,0,.54-1.57v-1.23a2.26,2.26,0,0,0-.54-1.58,2,2,0,0,0-1.51-.59,2.78,2.78,0,0,0-.72.09,2.16,2.16,0,0,0-.59.29,1.6,1.6,0,0,0-.4.46,1.47,1.47,0,0,0-.14.64v2.61a1.39,1.39,0,0,0,.14.63,1.48,1.48,0,0,0,.4.46,1.71,1.71,0,0,0,.59.29A2.41,2.41,0,0,0,15,380.06Z" transform="translate(0 -1.25)"/><path class="cls-8" d="M20.15,379.92h2.11v-5.29H20.15v-1h3.23v1.82h.07a2.42,2.42,0,0,1,.85-1.34,2.51,2.51,0,0,1,1.59-.48h1v1.12H25.53a2.21,2.21,0,0,0-1.56.56,1.94,1.94,0,0,0-.59,1.47v3.11h2.8v1h-6Z" transform="translate(0 -1.25)"/><path class="cls-8" d="M43.39,380.88H36.86v-1.2l3.26-2.94a7.47,7.47,0,0,0,1.18-1.32,2.51,2.51,0,0,0,.46-1.44v-.17a1.88,1.88,0,0,0-.46-1.36,1.83,1.83,0,0,0-1.37-.48,1.94,1.94,0,0,0-1.38.45,2.86,2.86,0,0,0-.72,1.21l-1-.39a4.26,4.26,0,0,1,.38-.85,2.87,2.87,0,0,1,.62-.73,2.94,2.94,0,0,1,.92-.52,3.68,3.68,0,0,1,1.25-.2,3.73,3.73,0,0,1,1.3.21,2.54,2.54,0,0,1,1.54,1.49,3,3,0,0,1,.2,1.13,3.21,3.21,0,0,1-.16,1.05,4.27,4.27,0,0,1-.45.94,6.71,6.71,0,0,1-.68.88,12.12,12.12,0,0,1-.89.84l-2.73,2.38h5.31Z" transform="translate(0 -1.25)"/><path class="cls-8" d="M51.28,372.13H46.91l-.28,3.74h.1a3.09,3.09,0,0,1,.81-.77,2.21,2.21,0,0,1,1.24-.29A3.48,3.48,0,0,1,50,375a2.66,2.66,0,0,1,1.54,1.54,3.34,3.34,0,0,1,.23,1.27,3.72,3.72,0,0,1-.23,1.31,2.66,2.66,0,0,1-.65,1,3,3,0,0,1-1.05.66,3.84,3.84,0,0,1-1.4.24,3.72,3.72,0,0,1-1.1-.14,3.54,3.54,0,0,1-.86-.37,3.81,3.81,0,0,1-.65-.54,5.79,5.79,0,0,1-.5-.61l.88-.68a4.73,4.73,0,0,0,.4.54,2.07,2.07,0,0,0,.47.41,2,2,0,0,0,.6.27,2.66,2.66,0,0,0,.79.1A1.89,1.89,0,0,0,50.51,378v-.11a2.05,2.05,0,0,0-.54-1.51,2.12,2.12,0,0,0-1.57-.55,2.07,2.07,0,0,0-1.09.24,3.54,3.54,0,0,0-.7.59l-1-.14.35-5.38h5.32Z" transform="translate(0 -1.25)"/><path class="cls-8" d="M57.22,380.88a1.47,1.47,0,0,1-1.21-.46,1.75,1.75,0,0,1-.39-1.18v-4.61H53.21v-1H55a.55.55,0,0,0,.66-.66v-1.89h1.08v2.55H60v1H56.74v5.29H60v1Z" transform="translate(0 -1.25)"/><path class="cls-8" d="M62.44,370.52h1.12v4.32h0a2.58,2.58,0,0,1,.29-.51,1.52,1.52,0,0,1,.41-.43,2.11,2.11,0,0,1,.58-.3,2.57,2.57,0,0,1,.78-.11,2.38,2.38,0,0,1,1.82.72,2.83,2.83,0,0,1,.69,2v4.63H67.06v-4.43a2.15,2.15,0,0,0-.44-1.48,1.61,1.61,0,0,0-1.27-.48,2.48,2.48,0,0,0-.66.08,2.1,2.1,0,0,0-.57.25,1.33,1.33,0,0,0-.41.44,1.2,1.2,0,0,0-.15.61v5H62.44Z" transform="translate(0 -1.25)"/></g></g><g id="May_1st" data-name="May 1st" class="cls-7"><g class="cls-7"><path class="cls-8" d="M516.05,377.12V374h-.11l-2.06,5-2.06-5h-.11v8h-1.08v-9.77h1.51l1.73,4.31H514l1.72-4.31h1.46V382h-1.08Z" transform="translate(0 -1.25)"/><path class="cls-8" d="M525,382a1.15,1.15,0,0,1-.94-.34,1.6,1.6,0,0,1-.35-.84h-.07a2,2,0,0,1-.76,1,2.45,2.45,0,0,1-1.41.36,2.64,2.64,0,0,1-1.8-.59A2,2,0,0,1,519,380a1.81,1.81,0,0,1,.74-1.55,4,4,0,0,1,2.37-.55h1.54v-.71a1.5,1.5,0,0,0-.45-1.19,1.88,1.88,0,0,0-1.27-.4,2.23,2.23,0,0,0-1.19.29,2.06,2.06,0,0,0-.74.78l-.76-.56a2.36,2.36,0,0,1,.38-.55,2.15,2.15,0,0,1,.59-.47,3,3,0,0,1,.8-.33,3.78,3.78,0,0,1,1-.12,3,3,0,0,1,2,.64,2.25,2.25,0,0,1,.75,1.8v4h1v1Zm-3.33-.77a2.79,2.79,0,0,0,.79-.11,2.21,2.21,0,0,0,.62-.28,1.1,1.1,0,0,0,.41-.42,1,1,0,0,0,.15-.52v-1.19h-1.54a2.91,2.91,0,0,0-1.47.28.9.9,0,0,0-.46.81v.3a1,1,0,0,0,.4.84A1.84,1.84,0,0,0,521.68,381.25Z" transform="translate(0 -1.25)"/><path class="cls-8" d="M533,374.8h1.12l-3.59,8.8a2.28,2.28,0,0,1-.28.54,1.45,1.45,0,0,1-.36.38,1.49,1.49,0,0,1-.51.22,2.73,2.73,0,0,1-.69.08h-1.07v-1h1.68l.81-2-2.91-7.08h1.15l1.22,3,1.08,2.74h.05l1.08-2.74Z" transform="translate(0 -1.25)"/><path class="cls-8" d="M544.47,382v-1h2.8v-7.88h-.1l-2.46,2.29-.69-.74,2.59-2.42h1.84V381H551v1Z" transform="translate(0 -1.25)"/><path class="cls-8" d="M556,382.19a4.52,4.52,0,0,1-2-.39,4.1,4.1,0,0,1-1.39-1l.75-.65a4.09,4.09,0,0,0,1.14.84,3.49,3.49,0,0,0,1.48.29,2.82,2.82,0,0,0,1.38-.3,1,1,0,0,0,.54-.95,1,1,0,0,0-.11-.47.89.89,0,0,0-.28-.3,1.68,1.68,0,0,0-.41-.17l-.47-.11-1.14-.16c-.25,0-.52-.09-.82-.16a2.66,2.66,0,0,1-.8-.31,1.88,1.88,0,0,1-.61-.58,1.73,1.73,0,0,1-.25-1,2,2,0,0,1,.22-.94,1.86,1.86,0,0,1,.61-.67,2.66,2.66,0,0,1,.92-.41,4.82,4.82,0,0,1,1.17-.13,4.26,4.26,0,0,1,1.7.31,3.57,3.57,0,0,1,1.23.85l-.72.69a2.41,2.41,0,0,0-.32-.32,2,2,0,0,0-.46-.29,3,3,0,0,0-.64-.22,3.52,3.52,0,0,0-.84-.08,2.4,2.4,0,0,0-1.31.29,1,1,0,0,0-.45.85.94.94,0,0,0,.1.47.76.76,0,0,0,.29.3,1.38,1.38,0,0,0,.41.18,3.94,3.94,0,0,0,.47.1l1.14.17c.26,0,.53.09.82.16a2.66,2.66,0,0,1,.8.31,1.87,1.87,0,0,1,.61.58,1.69,1.69,0,0,1,.25.95,1.92,1.92,0,0,1-.84,1.67A3.77,3.77,0,0,1,556,382.19Z" transform="translate(0 -1.25)"/><path class="cls-8" d="M564.63,382a1.47,1.47,0,0,1-1.21-.46,1.78,1.78,0,0,1-.39-1.19v-4.61h-2.41v-1h1.8a.54.54,0,0,0,.65-.66v-1.89h1.08v2.55h3.29v1h-3.29v5.29h3.29v1Z" transform="translate(0 -1.25)"/></g></g></g><g class="cls-7"><path class="cls-8" d="M588.5,228.2a3.26,3.26,0,0,1-1.26-.23,2.6,2.6,0,0,1-.94-.65,3,3,0,0,1-.59-1,4.37,4.37,0,0,1-.2-1.36,5.33,5.33,0,0,1,.27-1.71,7,7,0,0,1,.72-1.48,7.27,7.27,0,0,1,1-1.19,6.81,6.81,0,0,1,1.07-.87h1.8c-.48.34-.92.67-1.3,1a7.81,7.81,0,0,0-1,1,5.66,5.66,0,0,0-.72,1.06,5.19,5.19,0,0,0-.44,1.24l.08,0a3.08,3.08,0,0,1,.32-.48,2,2,0,0,1,.42-.39,1.86,1.86,0,0,1,.55-.26,2.21,2.21,0,0,1,.71-.1,2.64,2.64,0,0,1,1,.18,2.27,2.27,0,0,1,.79.52,2.46,2.46,0,0,1,.53.83,3.26,3.26,0,0,1,0,2.22,2.54,2.54,0,0,1-.6.9,2.87,2.87,0,0,1-.94.58A3.43,3.43,0,0,1,588.5,228.2Zm0-1.07a1.6,1.6,0,0,0,1.19-.42,1.55,1.55,0,0,0,.42-1.17v-.12a1.55,1.55,0,0,0-.42-1.17,1.6,1.6,0,0,0-1.19-.42,1.58,1.58,0,0,0-1.17.42,1.55,1.55,0,0,0-.42,1.17v.12a1.55,1.55,0,0,0,.42,1.17A1.58,1.58,0,0,0,588.48,227.13Z" transform="translate(0 -1.25)"/><path class="cls-8" d="M595.55,228.17a1.12,1.12,0,0,1-.81-.24.82.82,0,0,1-.23-.58V227a.82.82,0,0,1,.23-.58,1.12,1.12,0,0,1,.81-.24,1.09,1.09,0,0,1,.81.24.78.78,0,0,1,.24.58v.32a.78.78,0,0,1-.24.58A1.09,1.09,0,0,1,595.55,228.17Z" transform="translate(0 -1.25)"/><path class="cls-8" d="M603.38,228.05v-1.63h-4v-1.15l3.51-5.59h1.76v5.67h1.18v1.07h-1.18v1.63Zm-2.85-2.7h2.85v-4.44h-.08Z" transform="translate(0 -1.25)"/></g><g class="cls-7"><path class="cls-8" d="M588.5,146.36a3.26,3.26,0,0,1-1.26-.23,2.51,2.51,0,0,1-.94-.66,2.85,2.85,0,0,1-.59-1,4.37,4.37,0,0,1-.2-1.36,5.28,5.28,0,0,1,.27-1.71,7,7,0,0,1,.72-1.48,7.55,7.55,0,0,1,2.06-2.06h1.8c-.48.34-.92.67-1.3,1a7.81,7.81,0,0,0-1,1,5.66,5.66,0,0,0-.72,1.06,5,5,0,0,0-.44,1.24l.08,0a3.55,3.55,0,0,1,.32-.47,2,2,0,0,1,.42-.39,1.86,1.86,0,0,1,.55-.26,2.21,2.21,0,0,1,.71-.1,2.64,2.64,0,0,1,1,.18,2.14,2.14,0,0,1,.79.52,2.42,2.42,0,0,1,.53.82,3.29,3.29,0,0,1,0,2.23,2.41,2.41,0,0,1-.6.89,2.73,2.73,0,0,1-.94.59A3.43,3.43,0,0,1,588.5,146.36Zm0-1.07a1.6,1.6,0,0,0,1.19-.42,1.57,1.57,0,0,0,.42-1.17v-.12a1.59,1.59,0,0,0-.42-1.18,1.64,1.64,0,0,0-1.19-.41,1.62,1.62,0,0,0-1.17.41,1.59,1.59,0,0,0-.42,1.18v.12a1.46,1.46,0,0,0,1.59,1.59Z" transform="translate(0 -1.25)"/><path class="cls-8" d="M595.55,146.33a1.12,1.12,0,0,1-.81-.24.82.82,0,0,1-.23-.59v-.31a.84.84,0,0,1,.23-.59,1.12,1.12,0,0,1,.81-.24,1.09,1.09,0,0,1,.81.24.81.81,0,0,1,.24.59v.31a.79.79,0,0,1-.24.59A1.09,1.09,0,0,1,595.55,146.33Z" transform="translate(0 -1.25)"/><path class="cls-8" d="M602.63,146.36a4.35,4.35,0,0,1-1.31-.19,2.65,2.65,0,0,1-.94-.51,2.21,2.21,0,0,1-.59-.77,2.37,2.37,0,0,1-.19-1,1.88,1.88,0,0,1,.46-1.34,2.48,2.48,0,0,1,1.23-.71v-.1a2.31,2.31,0,0,1-1-.72,1.89,1.89,0,0,1-.39-1.21,1.91,1.91,0,0,1,.72-1.56,3.89,3.89,0,0,1,4.12,0,1.92,1.92,0,0,1,.73,1.56,1.89,1.89,0,0,1-.4,1.21,2.22,2.22,0,0,1-1,.72v.1a2.45,2.45,0,0,1,1.22.71,1.89,1.89,0,0,1,.47,1.34,2.37,2.37,0,0,1-.2,1,2.18,2.18,0,0,1-.58.77,2.7,2.7,0,0,1-.95.51A4.31,4.31,0,0,1,602.63,146.36Zm0-1.07a1.89,1.89,0,0,0,1.22-.35,1.21,1.21,0,0,0,.43-1v-.26a1.21,1.21,0,0,0-.43-1,1.89,1.89,0,0,0-1.22-.35,1.91,1.91,0,0,0-1.22.35,1.2,1.2,0,0,0-.42,1V144a1.2,1.2,0,0,0,.42,1A1.91,1.91,0,0,0,602.63,145.29Zm0-3.95a1.68,1.68,0,0,0,1.1-.32,1.11,1.11,0,0,0,.38-.89V140a1.11,1.11,0,0,0-.38-.89,1.68,1.68,0,0,0-1.1-.32,1.7,1.7,0,0,0-1.1.32,1.1,1.1,0,0,0-.37.89v.16a1.1,1.1,0,0,0,.37.89A1.7,1.7,0,0,0,602.63,141.34Z" transform="translate(0 -1.25)"/></g><g class="cls-7"><path class="cls-8" d="M588.57,309.43a3.34,3.34,0,0,1-1.27-.23,2.56,2.56,0,0,1-.93-.65,3,3,0,0,1-.59-1,4.35,4.35,0,0,1-.2-1.35,5.39,5.39,0,0,1,.27-1.72,7,7,0,0,1,.72-1.48,7.72,7.72,0,0,1,1-1.19,7.25,7.25,0,0,1,1.06-.87h1.8c-.47.34-.91.68-1.29,1a7.17,7.17,0,0,0-1,1,6,6,0,0,0-.72,1.06,5.19,5.19,0,0,0-.44,1.24l.08,0a3,3,0,0,1,.31-.48,3.13,3.13,0,0,1,.42-.39,2.05,2.05,0,0,1,.56-.26,2.46,2.46,0,0,1,.7-.1,2.7,2.7,0,0,1,1,.18,2.24,2.24,0,0,1,.79.53,2.32,2.32,0,0,1,.53.82,3.06,3.06,0,0,1,.18,1.08,3,3,0,0,1-.21,1.14,2.54,2.54,0,0,1-.6.9,2.71,2.71,0,0,1-.94.58A3.43,3.43,0,0,1,588.57,309.43Zm0-1.07a1.64,1.64,0,0,0,1.19-.41,1.59,1.59,0,0,0,.42-1.18v-.12a1.57,1.57,0,0,0-.42-1.17,1.6,1.6,0,0,0-1.19-.42,1.46,1.46,0,0,0-1.59,1.59v.12a1.59,1.59,0,0,0,.42,1.18A1.62,1.62,0,0,0,588.55,308.36Z" transform="translate(0 -1.25)"/><path class="cls-8" d="M595.62,309.41a1.12,1.12,0,0,1-.81-.24.8.8,0,0,1-.23-.59v-.31a.78.78,0,0,1,.23-.59,1.12,1.12,0,0,1,.81-.24,1.1,1.1,0,0,1,.81.24.78.78,0,0,1,.23.59v.31a.8.8,0,0,1-.23.59A1.1,1.1,0,0,1,595.62,309.41Z" transform="translate(0 -1.25)"/><path class="cls-8" d="M602.7,309.43a3,3,0,0,1-1.37-.29,2.53,2.53,0,0,1-1-.85,3.74,3.74,0,0,1-.56-1.36,8.34,8.34,0,0,1-.18-1.83,8.47,8.47,0,0,1,.18-1.83,3.67,3.67,0,0,1,.56-1.36,2.53,2.53,0,0,1,1-.85,3.38,3.38,0,0,1,2.74,0,2.53,2.53,0,0,1,1,.85,3.67,3.67,0,0,1,.56,1.36,8.47,8.47,0,0,1,.18,1.83,8.34,8.34,0,0,1-.18,1.83,3.74,3.74,0,0,1-.56,1.36,2.53,2.53,0,0,1-1,.85A3,3,0,0,1,602.7,309.43Zm0-1.1a1.38,1.38,0,0,0,1.3-.68,3.66,3.66,0,0,0,.39-1.83v-1.44a3.66,3.66,0,0,0-.39-1.83,1.38,1.38,0,0,0-1.3-.68,1.73,1.73,0,0,0-.78.17,1.44,1.44,0,0,0-.53.51,2.45,2.45,0,0,0-.29.79,5.44,5.44,0,0,0-.09,1v1.44a5.52,5.52,0,0,0,.09,1,2.54,2.54,0,0,0,.29.79,1.34,1.34,0,0,0,.53.5A1.61,1.61,0,0,0,602.7,308.33Zm0-2.52a.8.8,0,0,1-.58-.17.56.56,0,0,1-.16-.41V305a.56.56,0,0,1,.16-.41,1.07,1.07,0,0,1,1.16,0,.57.57,0,0,1,.17.41v.26a.57.57,0,0,1-.17.41A.8.8,0,0,1,602.7,305.81Z" transform="translate(0 -1.25)"/></g><g class="cls-7"><path class="cls-8" d="M587,64.6l3.11-7.27h-3.27v1.55h-1.16V56.23h5.77V57.4l-3,7.2Z" transform="translate(0 -1.25)"/><path class="cls-8" d="M595.62,64.72a1.12,1.12,0,0,1-.81-.24.78.78,0,0,1-.23-.59v-.31a.8.8,0,0,1,.23-.59,1.49,1.49,0,0,1,1.62,0,.8.8,0,0,1,.23.59v.31a.78.78,0,0,1-.23.59A1.12,1.12,0,0,1,595.62,64.72Z" transform="translate(0 -1.25)"/><path class="cls-8" d="M605.64,64.6h-5.78V63.32l2.73-2.39a6,6,0,0,0,1-1.09,1.89,1.89,0,0,0,.36-1.09v-.14a1.36,1.36,0,0,0-.36-1,1.42,1.42,0,0,0-1.05-.35,1.45,1.45,0,0,0-1.07.37,2.23,2.23,0,0,0-.55,1l-1.17-.45a2.89,2.89,0,0,1,.35-.76,2.54,2.54,0,0,1,.58-.65,2.43,2.43,0,0,1,.84-.46,3.47,3.47,0,0,1,1.12-.17,3.25,3.25,0,0,1,1.16.19,2.46,2.46,0,0,1,.86.51,2.06,2.06,0,0,1,.52.77,2.64,2.64,0,0,1,.18,1,2.75,2.75,0,0,1-.15.93,3.35,3.35,0,0,1-.42.82,4.9,4.9,0,0,1-.64.75q-.37.36-.81.72l-2,1.7h4.33Z" transform="translate(0 -1.25)"/></g><g class="cls-7"><path class="cls-8" d="M586.83,106.26l3.1-7.27h-3.26v1.55h-1.16V97.89h5.77v1.17l-3,7.2Z" transform="translate(0 -1.25)"/><path class="cls-8" d="M595.48,106.38a1.09,1.09,0,0,1-.81-.24.78.78,0,0,1-.24-.58v-.31a.79.79,0,0,1,.24-.59,1.09,1.09,0,0,1,.81-.24,1.12,1.12,0,0,1,.81.24.82.82,0,0,1,.23.59v.31a.82.82,0,0,1-.23.58A1.12,1.12,0,0,1,595.48,106.38Z" transform="translate(0 -1.25)"/><path class="cls-8" d="M602.56,106.41a3,3,0,0,1-1.38-.3,2.57,2.57,0,0,1-1-.84,3.92,3.92,0,0,1-.55-1.36,9.39,9.39,0,0,1,0-3.66,4,4,0,0,1,.55-1.37,2.66,2.66,0,0,1,1-.84,3,3,0,0,1,1.38-.29,2.94,2.94,0,0,1,1.37.29,2.51,2.51,0,0,1,1,.84,4,4,0,0,1,.56,1.37,9.39,9.39,0,0,1,0,3.66,3.92,3.92,0,0,1-.56,1.36,2.43,2.43,0,0,1-1,.84A2.94,2.94,0,0,1,602.56,106.41Zm0-1.11a1.37,1.37,0,0,0,1.3-.67,3.71,3.71,0,0,0,.39-1.83v-1.44a3.66,3.66,0,0,0-.39-1.83,1.38,1.38,0,0,0-1.3-.68,1.67,1.67,0,0,0-.78.17,1.44,1.44,0,0,0-.53.51,2.24,2.24,0,0,0-.29.79,5.44,5.44,0,0,0-.09,1v1.44a5.34,5.34,0,0,0,.09,1,2.29,2.29,0,0,0,.29.8,1.41,1.41,0,0,0,.53.5A1.55,1.55,0,0,0,602.56,105.3Zm0-2.52a.79.79,0,0,1-.58-.16.58.58,0,0,1-.17-.41v-.27a.56.56,0,0,1,.17-.4.75.75,0,0,1,.58-.17.76.76,0,0,1,.58.17.55.55,0,0,1,.16.4v.27a.57.57,0,0,1-.16.41A.81.81,0,0,1,602.56,102.78Z" transform="translate(0 -1.25)"/></g><g class="cls-7"><path class="cls-8" d="M588.57,187.62a3.35,3.35,0,0,1-1.27-.22,2.59,2.59,0,0,1-.93-.66,2.85,2.85,0,0,1-.59-1,4.42,4.42,0,0,1-.2-1.36,5.39,5.39,0,0,1,.27-1.72,7.17,7.17,0,0,1,.72-1.47,7.36,7.36,0,0,1,1-1.2,8.83,8.83,0,0,1,1.06-.87h1.8c-.47.35-.91.68-1.29,1a7.77,7.77,0,0,0-1,1,5.73,5.73,0,0,0-.72,1.07,5,5,0,0,0-.44,1.24l.08,0a2.94,2.94,0,0,1,.31-.47,2.21,2.21,0,0,1,.42-.39,2.42,2.42,0,0,1,.56-.27,2.48,2.48,0,0,1,.7-.09,2.7,2.7,0,0,1,1,.18,2.22,2.22,0,0,1,.79.52,2.42,2.42,0,0,1,.53.82,3.29,3.29,0,0,1,0,2.23,2.5,2.5,0,0,1-.6.89,2.71,2.71,0,0,1-.94.58A3.43,3.43,0,0,1,588.57,187.62Zm0-1.06a1.6,1.6,0,0,0,1.19-.42,1.58,1.58,0,0,0,.42-1.17v-.12a1.59,1.59,0,0,0-.42-1.18,1.64,1.64,0,0,0-1.19-.41,1.62,1.62,0,0,0-1.17.41,1.59,1.59,0,0,0-.42,1.18V185a1.46,1.46,0,0,0,1.59,1.59Z" transform="translate(0 -1.25)"/><path class="cls-8" d="M595.62,187.6a1.12,1.12,0,0,1-.81-.24.8.8,0,0,1-.23-.59v-.31a.8.8,0,0,1,.23-.59,1.12,1.12,0,0,1,.81-.24,1.1,1.1,0,0,1,.81.24.8.8,0,0,1,.23.59v.31a.8.8,0,0,1-.23.59A1.1,1.1,0,0,1,595.62,187.6Z" transform="translate(0 -1.25)"/><path class="cls-8" d="M602.72,187.62a3.33,3.33,0,0,1-1.26-.22,2.59,2.59,0,0,1-.93-.66,2.85,2.85,0,0,1-.59-1,4.14,4.14,0,0,1-.2-1.36,5.39,5.39,0,0,1,.27-1.72,7.17,7.17,0,0,1,.72-1.47,7.36,7.36,0,0,1,1-1.2,8.83,8.83,0,0,1,1.06-.87h1.8c-.48.35-.91.68-1.29,1a7.77,7.77,0,0,0-1,1,5.28,5.28,0,0,0-.72,1.07,5,5,0,0,0-.44,1.24l.08,0a2.94,2.94,0,0,1,.31-.47,1.79,1.79,0,0,1,.43-.39,2,2,0,0,1,.55-.27,2.48,2.48,0,0,1,.7-.09,2.7,2.7,0,0,1,1,.18,2.22,2.22,0,0,1,.79.52,2.25,2.25,0,0,1,.52.82,2.85,2.85,0,0,1,.19,1.08,3.06,3.06,0,0,1-.21,1.15,2.5,2.5,0,0,1-.6.89,2.71,2.71,0,0,1-.94.58A3.45,3.45,0,0,1,602.72,187.62Zm0-1.06a1.61,1.61,0,0,0,1.19-.42,1.58,1.58,0,0,0,.42-1.17v-.12a1.59,1.59,0,0,0-.42-1.18,1.65,1.65,0,0,0-1.19-.41,1.62,1.62,0,0,0-1.17.41,1.59,1.59,0,0,0-.42,1.18V185a1.46,1.46,0,0,0,1.59,1.59Z" transform="translate(0 -1.25)"/></g><g class="cls-7"><path class="cls-8" d="M588.56,269.15a3.15,3.15,0,0,1-1.26-.23,2.56,2.56,0,0,1-.93-.65,2.9,2.9,0,0,1-.59-1,4.08,4.08,0,0,1-.2-1.35,5.39,5.39,0,0,1,.27-1.72,6.7,6.7,0,0,1,.72-1.47,7.36,7.36,0,0,1,1-1.2,7.25,7.25,0,0,1,1.06-.87h1.8c-.48.34-.91.68-1.29,1a7.17,7.17,0,0,0-1,1,5.51,5.51,0,0,0-.72,1.06,5.12,5.12,0,0,0-.44,1.25l.08,0a3,3,0,0,1,.31-.48,2.19,2.19,0,0,1,.42-.38,1.94,1.94,0,0,1,.56-.27,2.46,2.46,0,0,1,.7-.1,2.7,2.7,0,0,1,1,.18,2.24,2.24,0,0,1,.79.53,2.17,2.17,0,0,1,.52.82,2.85,2.85,0,0,1,.19,1.08,3,3,0,0,1-.21,1.14,2.54,2.54,0,0,1-.6.9,2.71,2.71,0,0,1-.94.58A3.45,3.45,0,0,1,588.56,269.15Zm0-1.07a1.65,1.65,0,0,0,1.19-.41,1.59,1.59,0,0,0,.42-1.18v-.12a1.58,1.58,0,0,0-.42-1.17,1.61,1.61,0,0,0-1.19-.42,1.46,1.46,0,0,0-1.59,1.59v.12a1.59,1.59,0,0,0,.42,1.18A1.62,1.62,0,0,0,588.55,268.08Z" transform="translate(0 -1.25)"/><path class="cls-8" d="M595.62,269.13a1.12,1.12,0,0,1-.81-.24.8.8,0,0,1-.23-.59V268a.78.78,0,0,1,.23-.59,1.49,1.49,0,0,1,1.62,0,.78.78,0,0,1,.23.59v.31a.8.8,0,0,1-.23.59A1.12,1.12,0,0,1,595.62,269.13Z" transform="translate(0 -1.25)"/><path class="cls-8" d="M605.64,269h-5.78v-1.29l2.73-2.39a5.73,5.73,0,0,0,1-1.09,1.85,1.85,0,0,0,.36-1.09V263a1.38,1.38,0,0,0-.36-1,1.46,1.46,0,0,0-1.05-.35,1.49,1.49,0,0,0-1.07.37,2.29,2.29,0,0,0-.55,1l-1.17-.44a3,3,0,0,1,.35-.77,2.54,2.54,0,0,1,.58-.65,2.59,2.59,0,0,1,.84-.45,3.22,3.22,0,0,1,1.12-.17,3.49,3.49,0,0,1,1.16.18,2.8,2.8,0,0,1,.86.51,2.18,2.18,0,0,1,.52.78,2.64,2.64,0,0,1,.18,1,2.83,2.83,0,0,1-.15.93,3.47,3.47,0,0,1-.42.81,4.9,4.9,0,0,1-.64.75q-.37.36-.81.72l-2,1.71h4.33Z" transform="translate(0 -1.25)"/></g><g class="cls-7"><path class="cls-8" d="M556.54,11.89V4.66h1.3V5.6h.07a2.06,2.06,0,0,1,.48-.78,1.39,1.39,0,0,1,1.79,0,1.47,1.47,0,0,1,.4.86h.06a2.28,2.28,0,0,1,.55-.83,1.35,1.35,0,0,1,1-.35,1.23,1.23,0,0,1,1.17.59,3.59,3.59,0,0,1,.33,1.72v5.09h-1.3V7a2.12,2.12,0,0,0-.18-1,.65.65,0,0,0-.59-.29.81.81,0,0,0-.61.25,1,1,0,0,0-.24.73v5.24h-1.31V7a2.27,2.27,0,0,0-.17-1,.63.63,0,0,0-.58-.29.84.84,0,0,0-.63.25,1,1,0,0,0-.24.73v5.24Z" transform="translate(0 -1.25)"/><path class="cls-8" d="M564.8,11.89V4.66h1.3V5.6h.07a2.06,2.06,0,0,1,.48-.78,1.39,1.39,0,0,1,1.79,0,1.47,1.47,0,0,1,.4.86h.06a2.28,2.28,0,0,1,.55-.83,1.35,1.35,0,0,1,1-.35,1.23,1.23,0,0,1,1.17.59A3.59,3.59,0,0,1,572,6.8v5.09h-1.3V7a2.12,2.12,0,0,0-.18-1,.65.65,0,0,0-.59-.29.81.81,0,0,0-.61.25,1,1,0,0,0-.24.73v5.24h-1.31V7a2.27,2.27,0,0,0-.17-1,.63.63,0,0,0-.58-.29.84.84,0,0,0-.63.25,1,1,0,0,0-.24.73v5.24Z" transform="translate(0 -1.25)"/><path class="cls-8" d="M576.64,12.05a3.8,3.8,0,0,1-1.43-.26,2.9,2.9,0,0,1-1.08-.76,3.23,3.23,0,0,1-.68-1.19,4.79,4.79,0,0,1-.24-1.57,4.77,4.77,0,0,1,.24-1.56,3.23,3.23,0,0,1,.68-1.19,2.9,2.9,0,0,1,1.08-.76,3.92,3.92,0,0,1,2.86,0,2.9,2.9,0,0,1,1.08.76,3.23,3.23,0,0,1,.68,1.19,4.77,4.77,0,0,1,.24,1.56,4.79,4.79,0,0,1-.24,1.57,3.23,3.23,0,0,1-.68,1.19,2.9,2.9,0,0,1-1.08.76A3.8,3.8,0,0,1,576.64,12.05Zm0-1.2a1.79,1.79,0,0,0,1.34-.51,2.11,2.11,0,0,0,.49-1.52V7.73A2.11,2.11,0,0,0,578,6.21a2,2,0,0,0-2.68,0,2.11,2.11,0,0,0-.49,1.52V8.82a2.11,2.11,0,0,0,.49,1.52A1.79,1.79,0,0,0,576.64,10.85Z" transform="translate(0 -1.25)"/><path class="cls-8" d="M581.75,10.64h2.39V2.77h-2.39V1.53h3.92v9.11h2.39v1.25h-6.31Z" transform="translate(0 -1.25)"/><path class="cls-8" d="M590.12,13.82l4.72-12.57h1.36l-4.72,12.57Z" transform="translate(0 -1.25)"/><path class="cls-8" d="M598.73,11.89V2.11h1.57v8.46h4.45v1.32Z" transform="translate(0 -1.25)"/></g></g></g></svg>