<svg xmlns="http://www.w3.org/2000/svg" xmlns:xlink="http://www.w3.org/1999/xlink" viewBox="0 0 71.75 71.76"><defs><style>.cls-1,.cls-4{fill:none;}.cls-2{clip-path:url(#clip-path);}.cls-3{fill:#7ca369;}.cls-4{stroke:#161414;stroke-miterlimit:10;stroke-width:2px;}.cls-5{fill:#5db470;}.cls-6{fill:#c4e2cc;}</style><clipPath id="clip-path" transform="translate(0 0)"><rect class="cls-1" width="71.75" height="71.76"/></clipPath></defs><g id="Layer_2" data-name="Layer 2"><g id="Layer_1-2" data-name="Layer 1"><g id="Icon"><g class="cls-2"><g id="Group_198" data-name="Group 198"><path id="Path_1398" data-name="Path 1398" class="cls-3" d="M62,9.73H58.49a26.16,26.16,0,1,1-45.23,0H9.72A8.72,8.72,0,0,0,1,18.45V62a8.73,8.73,0,0,0,8.72,8.72H62A8.73,8.73,0,0,0,70.75,62V18.44A8.73,8.73,0,0,0,62,9.72" transform="translate(0 0)"/><path id="Path_1399" data-name="Path 1399" class="cls-4" d="M62,9.73H58.49a26.16,26.16,0,1,1-45.23,0H9.72A8.72,8.72,0,0,0,1,18.45V62a8.73,8.73,0,0,0,8.72,8.72H62A8.73,8.73,0,0,0,70.75,62V18.44A8.72,8.72,0,0,0,62,9.73Z" transform="translate(0 0)"/><path id="Path_1400" data-name="Path 1400" class="cls-3" d="M35.88,44.6a21.8,21.8,0,1,0-21.8-21.8h0A21.79,21.79,0,0,0,35.87,44.6Z" transform="translate(0 0)"/><path id="Path_1401" data-name="Path 1401" class="cls-4" d="M35.88,44.6a21.8,21.8,0,1,0-21.8-21.8h0A21.79,21.79,0,0,0,35.87,44.6Z" transform="translate(0 0)"/><path id="Path_1402" data-name="Path 1402" class="cls-5" d="M35.83,23.91l4.58-10.67a2.18,2.18,0,0,1,4,1.71l-4.59,10.7a5.42,5.42,0,1,1-4-1.74" transform="translate(0 0)"/><path id="Path_1403" data-name="Path 1403" class="cls-6" d="M35.83,23.91l4.58-10.67a2.18,2.18,0,0,1,4,1.71l-4.59,10.7a5.42,5.42,0,1,1-4-1.74Z" transform="translate(0 0)"/><path id="Path_1404" data-name="Path 1404" class="cls-4" d="M35.83,23.91l4.58-10.67a2.18,2.18,0,0,1,4,1.71l-4.59,10.7a5.42,5.42,0,1,1-4-1.74Z" transform="translate(0 0)"/></g></g></g></g></g></svg>