<svg id="Layer_1" data-name="Layer 1" xmlns="http://www.w3.org/2000/svg" xmlns:xlink="http://www.w3.org/1999/xlink" viewBox="0 0 286.36 37.46"><defs><style>.cls-1,.cls-3{fill:none;}.cls-2{fill:#fff;}.cls-3{stroke:#707071;}.cls-4{fill:#faf1d7;}.cls-5{fill:#707071;}.cls-6{clip-path:url(#clip-path);}.cls-7{fill:#191414;}.cls-8{fill:#c6dad3;}.cls-9{fill:#c3d8bf;}.cls-10{fill:#eff3f0;}.cls-11{fill:#f48f23;}.cls-12{isolation:isolate;}.cls-13{fill:#0b0a0a;}</style><clipPath id="clip-path"><rect class="cls-1" x="175.81" width="41.53" height="37.46"/></clipPath></defs><g id="Group_150" data-name="Group 150"><g id="Rectangle_128" data-name="Rectangle 128"><path class="cls-2" d="M14.54,7.9H272.86a13.5,13.5,0,0,1,13.5,13.5h0a13.49,13.49,0,0,1-13.5,13.5H14.54A13.5,13.5,0,0,1,1,21.4H1A13.51,13.51,0,0,1,14.54,7.9Z"/><path class="cls-3" d="M14.54,8.4H272.86a13,13,0,0,1,13,13h0a13,13,0,0,1-13,13H14.54a13,13,0,0,1-13-13h0A13,13,0,0,1,14.54,8.4Z"/></g><g id="进度"><path class="cls-4" d="M209.66,34.4H15.5A16.13,16.13,0,0,1,4.87,30.57,12.09,12.09,0,0,1,.5,21.4a12.11,12.11,0,0,1,4.37-9.17A16.13,16.13,0,0,1,15.5,8.4H209.66a16.11,16.11,0,0,1,10.63,3.83,12.11,12.11,0,0,1,4.37,9.17,12.09,12.09,0,0,1-4.37,9.17A16.11,16.11,0,0,1,209.66,34.4Z"/><path class="cls-5" d="M15.5,8.9C7.51,8.9,1,14.51,1,21.4S7.51,33.9,15.5,33.9H209.66c8,0,14.5-5.6,14.5-12.5s-6.5-12.5-14.5-12.5H15.5m0-1H209.66c8.56,0,15.5,6,15.5,13.5s-6.94,13.5-15.5,13.5H15.5C6.94,34.9,0,28.86,0,21.4S6.94,7.9,15.5,7.9Z"/></g><g class="cls-6"><g id="奖章"><g id="Group_108" data-name="Group 108"><g class="cls-6"><g id="Group_107" data-name="Group 107"><path id="Path_1203" data-name="Path 1203" class="cls-7" d="M217.33,20v1a12.7,12.7,0,0,1-3.84.22c-.5,0-1-.14-1-.77s.52-.76,1.05-.71c1.26.11,2.58-.32,3.8.3"/><path id="Path_1204" data-name="Path 1204" class="cls-7" d="M214.24,12.4c.59,0,1,.3.87.73-.32,1.11-1.5,1-2.34,1.4-.43.19-1-.09-.9-.59.27-1.23,1.64-1,2.37-1.54"/><path id="Path_1205" data-name="Path 1205" class="cls-7" d="M211.2,5.85a.77.77,0,0,1,.24.81,17.08,17.08,0,0,1-2.91,2.79.61.61,0,0,1-.74-.14.59.59,0,0,1-.1-.82l0,0q1.35-1.36,2.76-2.67c.22-.21.48-.1.72.08"/><path id="Path_1206" data-name="Path 1206" class="cls-8" d="M203.38,10.31c7.26,4.26,7.44,15.8.31,20,.11-1,1-1.58,1.52-2.37,2.16-3.37,3.26-6.9,1.75-10.84l-.44-.6c.69-1-.19-1.62-.51-2.38-.63-1.44-2.16-2.3-2.63-3.85"/><path id="Path_1207" data-name="Path 1207" class="cls-9" d="M208.75,27.92c1.81.26,3.62.5,5.53.76-1.31,2-3,2-4.8,1.4-.51-.16-1.16-.33-1.41.33s.45,1,.91,1c3.06,0,3.73,2.09,4.24,4.43a21,21,0,0,1-5.32-1,29.18,29.18,0,0,1-5.37-1.94A16.15,16.15,0,0,0,208,28.13a.65.65,0,0,1,.72-.2"/><path id="Path_1208" data-name="Path 1208" class="cls-10" d="M206,14.16c.33.76,1.2,1.4.52,2.38-1.87-.25-3.75-.52-5.63-.73a1.7,1.7,0,0,1-1.4-1.14c-.71-1.49-1.43-3-2.18-4.45-.5-1-1.09-1-1.59,0A29.82,29.82,0,0,0,194,13.82a2.86,2.86,0,0,1-3,2.12,35.65,35.65,0,0,0-3.85.54c-.4.05-.79.12-1,.48s.12.8.43,1.1c1.16,1.13,2.3,2.27,3.48,3.37a1.65,1.65,0,0,1,.64,1.8c-.37,1.61-.56,3.25-.81,4.89-.19,1.18.24,1.5,1.33.93,1.29-.67,2.62-1.27,3.85-2a2.33,2.33,0,0,1,2.81,0c1.2.72,2.43,1.38,3.7,2,.41.21.86.59,1.34.2s.22-.77.14-1.2c-.26-1.52-.41-3.07-.76-4.57a2,2,0,0,1,.7-2.09c1.33-1.37,3-2.43,3.93-4.18,1.51,3.94.4,7.47-1.75,10.84-.5.79-1.41,1.33-1.52,2.37l-.35.25-.33.24a.31.31,0,0,1-.26.11l-.39.25A12.3,12.3,0,1,1,202,9.51l.37.23a.33.33,0,0,1,.28.11l.32.23.37.23c.47,1.56,2,2.41,2.63,3.85"/><path id="Path_1209" data-name="Path 1209" class="cls-7" d="M204,2.07c.46.05.62.35.65.87-.53.71-.27,2-1.49,2.34-.4.11-.69-.24-.73-.67C202.36,3.9,203.53,2,204,2.07"/><path id="Path_1210" data-name="Path 1210" class="cls-8" d="M203,30.84l.33-.24c0,.17-.12.29-.33.24"/><path id="Path_1211" data-name="Path 1211" class="cls-8" d="M202.69,9.86c.2,0,.28.06.32.22l-.32-.22"/><path id="Path_1212" data-name="Path 1212" class="cls-8" d="M202.36,31.2l.39-.25a.31.31,0,0,1-.36.25h0"/><path id="Path_1213" data-name="Path 1213" class="cls-8" d="M202,9.51a.28.28,0,0,1,.36.18.09.09,0,0,0,0,.05L202,9.51"/><path id="Path_1214" data-name="Path 1214" class="cls-7" d="M196.56,0c1.2,0,.38,1.49.71,2.28-.39.76.62,2.29-.81,2.29-1.22,0-.61-1.47-.6-2.24s-.67-2.33.7-2.33"/><path id="Path_1215" data-name="Path 1215" class="cls-11" d="M204.57,17.89c-1,1-2,2-3,2.87a2.22,2.22,0,0,0-.76,2.42c.26,1.24.45,2.5.7,3.92a13.54,13.54,0,0,1-3.73-1.75,2.16,2.16,0,0,0-2.52,0c-1.08.69-2.27,1.19-3.41,1.78l-.59,0c1.94-4,.81-7-3-9.13a13.83,13.83,0,0,1,4.26-.83,2.26,2.26,0,0,0,2.09-1.46c.52-1.22,1.17-2.38,1.9-3.85.7,1.37,1.36,2.5,1.85,3.7a2.43,2.43,0,0,0,2.32,1.63,12.68,12.68,0,0,1,3.9.72"/><path id="Path_1216" data-name="Path 1216" class="cls-7" d="M201.58,20.76c1-.87,1.94-1.85,3-2.87a12.67,12.67,0,0,0-3.9-.71,2.44,2.44,0,0,1-2.32-1.64c-.49-1.2-1.15-2.32-1.85-3.7-.73,1.48-1.38,2.64-1.9,3.86a2.26,2.26,0,0,1-2.08,1.46,13.83,13.83,0,0,0-4.27.83c3.83,2.16,5,5.14,3,9.12l.59,0c1.14-.58,2.33-1.09,3.41-1.77a2.15,2.15,0,0,1,2.52,0,13.67,13.67,0,0,0,3.73,1.75c-.25-1.43-.44-2.68-.7-3.93a2.23,2.23,0,0,1,.77-2.42m4.93-4.22.44.6c-.92,1.75-2.6,2.82-3.93,4.19a2,2,0,0,0-.7,2.09c.34,1.5.5,3.05.76,4.57.07.43.23.88-.15,1.2s-.92,0-1.34-.2c-1.27-.6-2.5-1.26-3.7-2a2.33,2.33,0,0,0-2.8,0c-1.24.76-2.57,1.36-3.86,2-1.08.57-1.52.25-1.33-.94.26-1.63.44-3.28.81-4.89a1.66,1.66,0,0,0-.63-1.8c-1.19-1.09-2.33-2.24-3.48-3.36-.32-.3-.67-.64-.44-1.1s.57-.43,1-.48a35.3,35.3,0,0,1,3.85-.54,2.84,2.84,0,0,0,3-2.12,29.89,29.89,0,0,1,1.77-3.59c.5-1,1.08-1,1.59,0,.75,1.47,1.47,3,2.18,4.45a1.69,1.69,0,0,0,1.4,1.14c1.88.21,3.76.48,5.63.72"/><path id="Path_1217" data-name="Path 1217" class="cls-7" d="M190.58,4.75c0,.27-.3.56-.69.54-.71,0-.8-.61-1-1.09s-.86-1.19-.34-1.91a.57.57,0,0,1,.78-.17l.08.06a4.93,4.93,0,0,1,1.14,2.57"/><path id="Path_1218" data-name="Path 1218" class="cls-7" d="M182.21,5.68c.56,0,3.24,2.72,3.22,3.15a.61.61,0,0,1-.44.6.81.81,0,0,1-.88-.2L181.82,7a.63.63,0,0,1-.15-.86,1.93,1.93,0,0,1,.54-.41"/><path id="Path_1219" data-name="Path 1219" class="cls-7" d="M182.65,30.33c.71-.24,2-1,2.25.13s-1.25.88-2,1.22-1.69-.17-2,.94-.8,2.14-1.27,3.37a41.26,41.26,0,0,0,8-2c.89-.3,1.76-.69,2.87-1.14a13.85,13.85,0,0,1-4.79-3.84,2.27,2.27,0,0,0-2.46-1c-1.49.21-3,.4-4.7.62,1.26,1.38,2.34,2.24,4.11,1.65m20-20.47a.32.32,0,0,0-.28-.12.3.3,0,0,0-.33-.24h0a12.3,12.3,0,1,0,.32,21.69.31.31,0,0,0,.38-.22v0a.29.29,0,0,0,.26-.11c.2.05.29-.07.33-.24l.35-.25c7.13-4.23,6.95-15.78-.31-20l-.38-.23c0-.16-.11-.27-.31-.22m5.21,25a22.05,22.05,0,0,0,5.33,1c-.51-2.35-1.18-4.48-4.24-4.43-.46,0-1.19-.26-.91-1s.9-.5,1.4-.33c1.83.58,3.49.64,4.8-1.41-1.9-.25-3.72-.5-5.53-.76a.67.67,0,0,0-.72.21,16.06,16.06,0,0,1-5.49,4.74,29.93,29.93,0,0,0,5.37,1.94M216.69,28c.2.67-.22,1.07-.69,1.48-2.57,2.28-2.56,2.29-1.34,5.51.84,2.23.48,2.7-1.89,2.36a41.68,41.68,0,0,1-11-3.16,3.77,3.77,0,0,0-2.66-.27,9,9,0,0,1-4.35.14,7.39,7.39,0,0,0-4.65.61,41,41,0,0,1-10.43,2.77c-1.55.2-2-.33-1.53-1.78a.61.61,0,0,1,.07-.14c1.38-2.47,1.76-4.71-1.39-6.21a1.06,1.06,0,0,1-.51-1.25c.14-.65.68-.8,1.23-.85,1.72-.17,3.44-.3,5.17-.46.92-.08,1.24-.32.84-1.39A13.82,13.82,0,1,1,210.35,20a13.49,13.49,0,0,1-.77,4.92c-.49,1.36-.23,1.76,1.15,1.82s3,.24,4.52.39c.6,0,1.23.12,1.44.82"/><path id="Path_1220" data-name="Path 1220" class="cls-9" d="M185.71,29.06a13.73,13.73,0,0,0,4.78,3.84c-1.11.45-2,.84-2.87,1.14a41.08,41.08,0,0,1-8,2c.47-1.23.93-2.28,1.27-3.37s1.36-.64,2-.94,2.27-.05,2-1.22-1.53-.37-2.24-.13c-1.77.59-2.85-.27-4.11-1.65l4.7-.63a2.27,2.27,0,0,1,2.46,1"/><path id="Path_1221" data-name="Path 1221" class="cls-7" d="M181.17,13.85c.16.45-.36.86-.81.69-.89-.35-2.13-.26-2.44-1.47-.09-.37.27-.66.79-.69.78.5,2,.36,2.46,1.47"/><path id="Path_1222" data-name="Path 1222" class="cls-7" d="M180.46,20.4c0,1.41-1.53.74-2.36.77s-2.29.56-2.29-.68c0-1.45,1.56-.45,2.35-.84.79.34,2.29-.51,2.3.75"/></g></g></g></g></g><g id="_80" data-name=" 80" class="cls-12"><g class="cls-12"><path class="cls-13" d="M162.4,26.05a4,4,0,0,1-1.3-.19,2.61,2.61,0,0,1-.95-.51,2,2,0,0,1-.58-.77,2.22,2.22,0,0,1-.2-1,1.84,1.84,0,0,1,.47-1.34,2.52,2.52,0,0,1,1.22-.71v-.1a2.22,2.22,0,0,1-1-.72,1.82,1.82,0,0,1-.4-1.21,1.89,1.89,0,0,1,.73-1.56,3.87,3.87,0,0,1,4.11,0,1.89,1.89,0,0,1,.73,1.56,1.82,1.82,0,0,1-.4,1.21,2.22,2.22,0,0,1-1,.72v.1a2.52,2.52,0,0,1,1.22.71,1.89,1.89,0,0,1,.47,1.34,2.37,2.37,0,0,1-.2,1,2,2,0,0,1-.58.77,2.7,2.7,0,0,1-.95.51A4,4,0,0,1,162.4,26.05Zm0-1.07a1.89,1.89,0,0,0,1.22-.35,1.18,1.18,0,0,0,.43-1V23.4a1.19,1.19,0,0,0-.43-1,2.28,2.28,0,0,0-2.43,0,1.19,1.19,0,0,0-.43,1v.25a1.18,1.18,0,0,0,.43,1A1.88,1.88,0,0,0,162.4,25Zm0-3.95a1.61,1.61,0,0,0,1.1-.32,1.08,1.08,0,0,0,.38-.89v-.16a1.08,1.08,0,0,0-.38-.89,2,2,0,0,0-2.19,0,1.11,1.11,0,0,0-.38.89v.16a1.11,1.11,0,0,0,.38.89A1.61,1.61,0,0,0,162.4,21Z"/><path class="cls-13" d="M169.6,26.05a3,3,0,0,1-1.37-.3,2.43,2.43,0,0,1-1-.84,3.92,3.92,0,0,1-.56-1.36,9.39,9.39,0,0,1,0-3.66,4,4,0,0,1,.56-1.37,2.51,2.51,0,0,1,1-.84,3.3,3.3,0,0,1,2.75,0,2.51,2.51,0,0,1,1,.84,4,4,0,0,1,.56,1.37,9.39,9.39,0,0,1,0,3.66,3.92,3.92,0,0,1-.56,1.36,2.43,2.43,0,0,1-1,.84A3,3,0,0,1,169.6,26.05Zm0-1.11a1.39,1.39,0,0,0,1.31-.67,3.71,3.71,0,0,0,.39-1.83V21a3.66,3.66,0,0,0-.39-1.83,1.38,1.38,0,0,0-1.31-.68,1.73,1.73,0,0,0-.78.17,1.41,1.41,0,0,0-.52.51,2.24,2.24,0,0,0-.3.79,5.44,5.44,0,0,0-.09,1v1.44a5.34,5.34,0,0,0,.09,1,2.3,2.3,0,0,0,.3.8,1.38,1.38,0,0,0,.52.5A1.6,1.6,0,0,0,169.6,24.94Zm0-2.52a.76.76,0,0,1-.58-.17.54.54,0,0,1-.16-.4v-.27a.54.54,0,0,1,.16-.4.76.76,0,0,1,.58-.17.79.79,0,0,1,.59.17.58.58,0,0,1,.16.4v.27a.58.58,0,0,1-.16.4A.79.79,0,0,1,169.6,22.42Z"/></g></g><g id="Engagement_Rate" data-name="Engagement Rate" class="cls-12"><g class="cls-12"><path class="cls-5" d="M32.74,25.9V17.53h5.12v.89H33.75v2.8h3.87v.89H33.75V25h4.11v.88Z"/><path class="cls-5" d="M40,25.9V19.71h1v1h0a2,2,0,0,1,.64-.83,1.8,1.8,0,0,1,1.11-.31,1.92,1.92,0,0,1,1.52.62,2.51,2.51,0,0,1,.56,1.74v4h-1V22.09c0-1.11-.47-1.67-1.41-1.67a2,2,0,0,0-.55.07,1.56,1.56,0,0,0-.49.22,1,1,0,0,0-.34.37,1,1,0,0,0-.13.52v4.3Z"/><path class="cls-5" d="M52.38,26.59A1.53,1.53,0,0,1,51.63,28a4.46,4.46,0,0,1-2.25.45,4,4,0,0,1-2.09-.4,1.24,1.24,0,0,1-.64-1.13,1.09,1.09,0,0,1,.27-.78,1.41,1.41,0,0,1,.72-.41v-.14a.89.89,0,0,1-.56-.86.87.87,0,0,1,.3-.71,2,2,0,0,1,.77-.36v-.05a2.05,2.05,0,0,1-.86-.76,2.16,2.16,0,0,1-.3-1.14,2.11,2.11,0,0,1,.17-.87,2,2,0,0,1,.47-.68,2.22,2.22,0,0,1,.73-.44,2.89,2.89,0,0,1,1-.15,2.72,2.72,0,0,1,1.17.24V19.7a1,1,0,0,1,.17-.6.63.63,0,0,1,.55-.24h.93v.85H51v.4a2,2,0,0,1,.52.69,2.06,2.06,0,0,1,.19.91,2.29,2.29,0,0,1-.17.87,2,2,0,0,1-.47.68,2.46,2.46,0,0,1-.74.44,2.93,2.93,0,0,1-1,.15,3.05,3.05,0,0,1-.6-.06,2.1,2.1,0,0,0-.57.25.53.53,0,0,0-.25.45.36.36,0,0,0,.27.37,2.08,2.08,0,0,0,.68.1h1.32a2.57,2.57,0,0,1,1.67.43A1.48,1.48,0,0,1,52.38,26.59Zm-.9.07a.7.7,0,0,0-.29-.59,1.63,1.63,0,0,0-1-.23H48.13a.88.88,0,0,0-.58.84.9.9,0,0,0,.31.7,1.5,1.5,0,0,0,1,.29h.88A2.63,2.63,0,0,0,51,27.42.82.82,0,0,0,51.48,26.66Zm-2.15-3.58a1.46,1.46,0,0,0,1-.29,1.11,1.11,0,0,0,.36-.91v-.34a1.11,1.11,0,0,0-.36-.91,1.77,1.77,0,0,0-1.94,0,1.11,1.11,0,0,0-.36.91v.34a1.11,1.11,0,0,0,.36.91A1.46,1.46,0,0,0,49.33,23.08Z"/><path class="cls-5" d="M58.3,25.9a.94.94,0,0,1-.77-.28,1.45,1.45,0,0,1-.29-.72h-.06a1.59,1.59,0,0,1-.68.86,2.08,2.08,0,0,1-1.11.29,2.14,2.14,0,0,1-1.53-.51,1.74,1.74,0,0,1-.55-1.36A1.58,1.58,0,0,1,54,22.83a3.45,3.45,0,0,1,2-.47h1.23v-.61a1.36,1.36,0,0,0-.36-1,1.55,1.55,0,0,0-1.11-.34,1.65,1.65,0,0,0-.94.25,2.13,2.13,0,0,0-.63.67l-.58-.54a2.21,2.21,0,0,1,.81-.86,2.58,2.58,0,0,1,1.39-.35,2.53,2.53,0,0,1,1.75.55,1.93,1.93,0,0,1,.63,1.53v3.4h.7v.85Zm-2.76-.67a2.71,2.71,0,0,0,.66-.08,1.79,1.79,0,0,0,.52-.24,1.43,1.43,0,0,0,.34-.36.89.89,0,0,0,.12-.45v-1H55.9a2.3,2.3,0,0,0-1.2.24.79.79,0,0,0-.38.7v.25a.84.84,0,0,0,.33.71A1.42,1.42,0,0,0,55.54,25.23Z"/><path class="cls-5" d="M65.78,26.59A1.53,1.53,0,0,1,65,28a4.46,4.46,0,0,1-2.25.45,4.07,4.07,0,0,1-2.09-.4,1.25,1.25,0,0,1-.63-1.13,1.08,1.08,0,0,1,.26-.78,1.5,1.5,0,0,1,.72-.41v-.14A1,1,0,0,1,60.79,24a2,2,0,0,1,.77-.36v-.05a2,2,0,0,1-.86-.76,2.07,2.07,0,0,1-.31-1.14,2.29,2.29,0,0,1,.17-.87,2,2,0,0,1,.47-.68,2.27,2.27,0,0,1,.74-.44,2.83,2.83,0,0,1,.95-.15,2.8,2.8,0,0,1,1.18.24V19.7a1,1,0,0,1,.16-.6.65.65,0,0,1,.56-.24h.92v.85H64.36v.4a2,2,0,0,1,.53.69,2.21,2.21,0,0,1,.18.91,2.11,2.11,0,0,1-.17.87,2,2,0,0,1-.47.68,2.34,2.34,0,0,1-.74.44,2.93,2.93,0,0,1-1,.15,3.05,3.05,0,0,1-.6-.06,2,2,0,0,0-.56.25.51.51,0,0,0-.25.45.36.36,0,0,0,.26.37,2.12,2.12,0,0,0,.68.1h1.32a2.62,2.62,0,0,1,1.68.43A1.47,1.47,0,0,1,65.78,26.59Zm-.9.07a.69.69,0,0,0-.28-.59,1.65,1.65,0,0,0-1-.23H61.53a.88.88,0,0,0-.57.84.92.92,0,0,0,.3.7,1.52,1.52,0,0,0,1,.29h.89a2.69,2.69,0,0,0,1.25-.25A.83.83,0,0,0,64.88,26.66Zm-2.15-3.58a1.46,1.46,0,0,0,1-.29,1.11,1.11,0,0,0,.36-.91v-.34a1.11,1.11,0,0,0-.36-.91,1.77,1.77,0,0,0-1.94,0,1.11,1.11,0,0,0-.36.91v.34a1.11,1.11,0,0,0,.36.91A1.46,1.46,0,0,0,62.73,23.08Z"/><path class="cls-5" d="M69.5,26.05a2.84,2.84,0,0,1-1.15-.23,2.43,2.43,0,0,1-.87-.65,3.17,3.17,0,0,1-.57-1,4.34,4.34,0,0,1-.19-1.34,4.27,4.27,0,0,1,.19-1.33,3,3,0,0,1,.57-1,2.43,2.43,0,0,1,.87-.65,2.69,2.69,0,0,1,1.15-.23,2.52,2.52,0,0,1,1.12.23,2.7,2.7,0,0,1,.84.62,2.84,2.84,0,0,1,.53.95,3.88,3.88,0,0,1,.19,1.21V23H67.72v.28a2.21,2.21,0,0,0,.13.74,1.66,1.66,0,0,0,.36.6,1.69,1.69,0,0,0,.58.39,1.86,1.86,0,0,0,.77.15,2,2,0,0,0,1-.28,1.8,1.8,0,0,0,.67-.79l.69.49a2.41,2.41,0,0,1-.94,1A2.83,2.83,0,0,1,69.5,26.05Zm0-5.68a1.89,1.89,0,0,0-.72.14,1.57,1.57,0,0,0-.56.39,1.67,1.67,0,0,0-.36.59,2,2,0,0,0-.14.74v.09h3.42v-.14a1.88,1.88,0,0,0-.45-1.31A1.53,1.53,0,0,0,69.5,20.37Z"/><path class="cls-5" d="M74.11,25.9V19.71h1v1h.05a3.21,3.21,0,0,1,.24-.45,1.46,1.46,0,0,1,.34-.36,1.54,1.54,0,0,1,.46-.24,1.93,1.93,0,0,1,.62-.09,2.19,2.19,0,0,1,1.13.29,1.72,1.72,0,0,1,.77,1h0a2,2,0,0,1,.63-.88,2,2,0,0,1,1.26-.37,1.84,1.84,0,0,1,1.48.62,2.55,2.55,0,0,1,.53,1.74v4h-1V22.09a2,2,0,0,0-.32-1.25,1.22,1.22,0,0,0-1-.42,2,2,0,0,0-.55.07,1.5,1.5,0,0,0-.46.22,1,1,0,0,0-.32.37,1.05,1.05,0,0,0-.12.52v4.3h-1V22.09a2,2,0,0,0-.33-1.25,1.18,1.18,0,0,0-1-.42,2,2,0,0,0-.55.07,1.56,1.56,0,0,0-.47.22,1.19,1.19,0,0,0-.33.37,1.05,1.05,0,0,0-.12.52v4.3Z"/><path class="cls-5" d="M87.26,26.05a2.84,2.84,0,0,1-1.15-.23,2.43,2.43,0,0,1-.87-.65,3.17,3.17,0,0,1-.57-1,4.34,4.34,0,0,1-.19-1.34,4.27,4.27,0,0,1,.19-1.33,3,3,0,0,1,.57-1,2.43,2.43,0,0,1,.87-.65,2.69,2.69,0,0,1,1.15-.23,2.52,2.52,0,0,1,1.12.23,2.7,2.7,0,0,1,.84.62,2.84,2.84,0,0,1,.53.95,3.88,3.88,0,0,1,.19,1.21V23H85.48v.28a2.21,2.21,0,0,0,.13.74,1.66,1.66,0,0,0,.36.6,1.69,1.69,0,0,0,.58.39,1.86,1.86,0,0,0,.77.15,2,2,0,0,0,1-.28,1.8,1.8,0,0,0,.67-.79l.69.49a2.41,2.41,0,0,1-.94,1A2.83,2.83,0,0,1,87.26,26.05Zm0-5.68a1.89,1.89,0,0,0-.72.14,1.57,1.57,0,0,0-.56.39,1.67,1.67,0,0,0-.36.59,2,2,0,0,0-.14.74v.09H88.9v-.14a1.88,1.88,0,0,0-.45-1.31A1.53,1.53,0,0,0,87.26,20.37Z"/><path class="cls-5" d="M91.87,25.9V19.71h1v1h0a1.92,1.92,0,0,1,.64-.83,1.76,1.76,0,0,1,1.11-.31,1.93,1.93,0,0,1,1.52.62,2.51,2.51,0,0,1,.55,1.74v4h-1V22.09c0-1.11-.46-1.67-1.4-1.67a2.1,2.1,0,0,0-.56.07,1.51,1.51,0,0,0-.48.22,1,1,0,0,0-.35.37,1.05,1.05,0,0,0-.12.52v4.3Z"/><path class="cls-5" d="M100.4,25.9a1,1,0,0,1-.76-.28,1.05,1.05,0,0,1-.26-.73V20.56h-1v-.85h.58a.57.57,0,0,0,.42-.12.64.64,0,0,0,.12-.44V18h.86v1.71h1.36v.85h-1.36v4.49h1.26v.85Z"/><path class="cls-5" d="M107.88,25.9h-1V17.53h3.33a2.36,2.36,0,0,1,1.73.61,2.38,2.38,0,0,1,.61,1.76,2.55,2.55,0,0,1-.42,1.52,2,2,0,0,1-1.26.79l1.92,3.69h-1.14l-1.81-3.6h-2Zm2.32-4.46a1.29,1.29,0,0,0,.93-.31,1.18,1.18,0,0,0,.33-.89v-.62a1.16,1.16,0,0,0-.33-.89,1.29,1.29,0,0,0-.93-.31h-2.32v3Z"/><path class="cls-5" d="M119.18,25.9a.93.93,0,0,1-.77-.28,1.46,1.46,0,0,1-.3-.72h-.06a1.58,1.58,0,0,1-.67.86,2.1,2.1,0,0,1-1.12.29,2.18,2.18,0,0,1-1.53-.51,1.76,1.76,0,0,1-.54-1.36,1.56,1.56,0,0,1,.64-1.35,3.43,3.43,0,0,1,2-.47h1.22v-.61a1.36,1.36,0,0,0-.36-1,1.54,1.54,0,0,0-1.1-.34,1.63,1.63,0,0,0-.94.25,1.93,1.93,0,0,0-.63.67l-.58-.54a2.26,2.26,0,0,1,.8-.86,2.62,2.62,0,0,1,1.4-.35,2.55,2.55,0,0,1,1.75.55,2,2,0,0,1,.62,1.53v3.4h.71v.85Zm-2.76-.67a2.71,2.71,0,0,0,.66-.08,1.92,1.92,0,0,0,.52-.24,1.39,1.39,0,0,0,.33-.36.89.89,0,0,0,.12-.45v-1h-1.27a2.36,2.36,0,0,0-1.21.24.78.78,0,0,0-.37.7v.25a.84.84,0,0,0,.33.71A1.41,1.41,0,0,0,116.42,25.23Z"/><path class="cls-5" d="M122.8,25.9a1,1,0,0,1-.76-.28,1.05,1.05,0,0,1-.26-.73V20.56h-1v-.85h.58a.55.55,0,0,0,.42-.12.64.64,0,0,0,.12-.44V18h.86v1.71h1.36v.85h-1.36v4.49H124v.85Z"/><path class="cls-5" d="M128.28,26.05a2.81,2.81,0,0,1-1.15-.23,2.55,2.55,0,0,1-.88-.65,3.15,3.15,0,0,1-.56-1,4.33,4.33,0,0,1-.2-1.34,4.27,4.27,0,0,1,.2-1.33,3,3,0,0,1,.56-1,2.55,2.55,0,0,1,.88-.65,2.66,2.66,0,0,1,1.15-.23,2.54,2.54,0,0,1,1.95.85,3.05,3.05,0,0,1,.54.95,3.89,3.89,0,0,1,.18,1.21V23H126.5v.28a2,2,0,0,0,.13.74,1.66,1.66,0,0,0,.36.6,1.56,1.56,0,0,0,.57.39,1.94,1.94,0,0,0,.78.15,1.9,1.9,0,0,0,1-.28,1.82,1.82,0,0,0,.68-.79l.68.49a2.45,2.45,0,0,1-.93,1A2.85,2.85,0,0,1,128.28,26.05Zm0-5.68a1.81,1.81,0,0,0-.72.14,1.49,1.49,0,0,0-.56.39,1.69,1.69,0,0,0-.37.59,2,2,0,0,0-.13.74v.09h3.42v-.14a1.88,1.88,0,0,0-.45-1.31A1.54,1.54,0,0,0,128.28,20.37Z"/></g></g></g></svg>