<svg xmlns="http://www.w3.org/2000/svg" xmlns:xlink="http://www.w3.org/1999/xlink" viewBox="0 0 73.1 75.2"><defs><style>.cls-1{fill:none;}.cls-2{clip-path:url(#clip-path);}.cls-3{clip-path:url(#clip-path-2);}.cls-4{fill:#ea826d;}.cls-5{fill:#161414;}.cls-6{fill:#df6e63;}.cls-7{fill:#f5f0f2;}</style><clipPath id="clip-path" transform="translate(-0.25 -0.25)"><rect class="cls-1" width="73.6" height="75.7"/></clipPath><clipPath id="clip-path-2" transform="translate(-0.25 -0.25)"><rect class="cls-1" x="0.25" y="0.25" width="73.1" height="75.2"/></clipPath></defs><g id="Layer_2" data-name="Layer 2"><g id="Layer_1-2" data-name="Layer 1"><g id="Group_200" data-name="Group 200"><g class="cls-2"><g id="Group_194" data-name="Group 194"><g id="Group_193" data-name="Group 193"><g class="cls-3"><g id="Group_192" data-name="Group 192"><g id="Group_191" data-name="Group 191"><g class="cls-3"><g id="Group_190" data-name="Group 190"><path id="Path_1385" data-name="Path 1385" class="cls-4" d="M65.7,3.41c.83-1,1.31-.74,1.79.2L61.2,10.83l-1.1-1c1.93-2.21,3.8-4.3,5.6-6.45" transform="translate(-0.25 -0.25)"/><path id="Path_1386" data-name="Path 1386" class="cls-4" d="M60.09,13.93l-2.91,3.33-3.1-2.7c.84-1,1.55-1.86,2.37-2.66a1.18,1.18,0,0,1,1.12-.12c.88.64,1.67,1.4,2.52,2.15" transform="translate(-0.25 -0.25)"/><path id="Path_1387" data-name="Path 1387" class="cls-5" d="M57.18,17.26l2.91-3.33c-.85-.75-1.64-1.51-2.52-2.15a1.18,1.18,0,0,0-1.12.12c-.82.8-1.53,1.7-2.37,2.66ZM67.49,3.61c-.48-.94-1-1.19-1.79-.2C63.9,5.56,62,7.65,60.1,9.86l1.1,1,6.29-7.22M39.89,69.85c-7.07,5.48-14.83,7.33-23.35,3.78-4.35-1.81-7.74-5-10.89-8.45A20.08,20.08,0,0,1,.28,50.38,25.22,25.22,0,0,1,6.75,34.47C16.41,23.28,26.16,12.19,35.85,1c.86-1,1.53-1,2.5-.11,4.3,3.82,8.66,7.57,13,11.34l1.32,1.16c1.35-1.56,2.56-3,3.81-4.35.31-.35.9-.88,1.15-.78C59,8.8,59.41,7.81,60,7.09,61.38,5.57,62.68,4,64,2.53c2.55-2.87,1.88-3.1,5.14-.28.89.78.88,1.4.1,2.26-2,2.17-3.87,4.39-5.75,6.62a4,4,0,0,0-.58,1.4c-.18.52-.17,1.17-.49,1.57C61.27,15.59,60,17,58.59,18.58c4.62,4,9,7.88,13.44,11.72,1.71,1.5,1.72,1.53.24,3.22L44.62,65.2a34.08,34.08,0,0,1-4.73,4.65M7.76,64.66c3.1,2.93,6.1,6.06,10.25,7.56,7.81,2.83,14.75.92,21-4.08a28.16,28.16,0,0,0,3.42-3.4Q56.21,49,69.91,33.28h0L71,32,37.27,2.56c-.35.33-.65.58-.91.87C26.72,14.49,17,25.48,7.49,36.65A21.55,21.55,0,0,0,2.3,53.49,17.71,17.71,0,0,0,7.76,64.66" transform="translate(-0.25 -0.25)"/></g></g></g></g></g></g><path id="Path_1388" data-name="Path 1388" class="cls-4" d="M71,32l-1.12,1.28Q56.2,49,42.47,64.73a27.46,27.46,0,0,1-3.42,3.4c-6.29,5-13.23,6.91-21,4.09-4.15-1.5-7.15-4.64-10.25-7.57A17.66,17.66,0,0,1,2.3,53.49,21.5,21.5,0,0,1,7.49,36.64C17,25.47,26.72,14.48,36.36,3.42c.26-.29.56-.54.9-.87L71,32M60.94,37.36c2-2.3,1.78-4.74-.51-6.75-3.52-3.1-7.06-6.17-10.6-9.25,0,0,0,0,0,0-3.57-3.12-7.13-6.24-10.72-9.34-2.24-1.94-4.69-1.83-6.64.41q-9,10.3-17.93,20.68c-1.77,2.06-1.49,4.62.72,6.54Q23.61,47,32.05,54.22c1.6,1.38,3.18,2.79,4.83,4.12a4.28,4.28,0,0,0,6-.25h0l.25-.3q8.91-10.2,17.76-20.43M25,62.14a7.61,7.61,0,0,0-11-10.47c-.13.13-.25.27-.37.41A7.62,7.62,0,0,0,24.61,62.53l.06-.07c.1-.1.2-.21.29-.32" transform="translate(-0.25 -0.25)"/><path id="Path_1389" data-name="Path 1389" class="cls-5" d="M60.43,30.61c2.29,2,2.5,4.45.51,6.75Q52.09,47.61,43.18,57.79a4.28,4.28,0,0,1-6,.81l-.3-.26c-1.64-1.33-3.22-2.74-4.82-4.12Q23.63,47,15.24,39.68c-2.2-1.92-2.49-4.48-.72-6.54q8.94-10.37,17.93-20.68c1.95-2.24,4.4-2.35,6.64-.41,3.59,3.1,7.15,6.22,10.72,9.34,0,0,0,0,0,0,3.54,3.08,7.08,6.15,10.6,9.25m-.94,5.51c1.3-1.5,1.19-2.88-.32-4.2q-10.48-9.15-21-18.27c-1.78-1.53-3.08-1.4-4.65.4L16.36,33.81c-1.53,1.76-1.45,3,.3,4.49l10.49,9.15s0,0,0,0l10.49,9.14c1.65,1.43,3,1.37,4.43-.29q8.73-10.07,17.4-20.15" transform="translate(-0.25 -0.25)"/><path id="Path_1390" data-name="Path 1390" class="cls-6" d="M41.51,31.91c-.3,2.26-.61,4.7-.95,7.14-.2,1.49-.63,2.91-2.05,3.68a5,5,0,0,1-5.44-.14,4.88,4.88,0,0,1-2.38-5c.3-2.13,1.81-3.14,3.73-3.68l7.08-2" transform="translate(-0.25 -0.25)"/><path id="Path_1391" data-name="Path 1391" class="cls-5" d="M33.06,42.59a5,5,0,0,0,5.45.14c1.42-.78,1.85-2.19,2.05-3.68.34-2.44.65-4.88.95-7.15l-7.08,2c-1.93.54-3.43,1.55-3.74,3.68a4.89,4.89,0,0,0,2.37,5M44.63,27.07l1.18,1.4c-2.06,1.74-2.34,4.16-2.83,6.43-.39,1.82-.39,3.71-.79,5.52a5.81,5.81,0,0,1-4.88,4.75,6.77,6.77,0,0,1-6.89-2.41,6.46,6.46,0,0,1-1.06-7.19c1.17-2.61,3.59-3.39,6.1-3.88a18.18,18.18,0,0,0,7.77-3.48c.46-.35.9-.74,1.4-1.14" transform="translate(-0.25 -0.25)"/><path id="Path_1392" data-name="Path 1392" class="cls-5" d="M24.49,51.26A7.72,7.72,0,0,1,25,62.14a7.61,7.61,0,1,1-.46-10.88m-.88,9.61a5.87,5.87,0,0,0-.49-8.28,5.79,5.79,0,0,0-8.16.7l-.07.09a5.91,5.91,0,0,0,.54,8.28,6,6,0,0,0,8.18-.79" transform="translate(-0.25 -0.25)"/><path id="Path_1393" data-name="Path 1393" class="cls-7" d="M23.12,52.59a5.88,5.88,0,0,1,.5,8.28,6,6,0,0,1-8.18.79,5.9,5.9,0,0,1-.55-8.28A5.79,5.79,0,0,1,23,52.52l.08.07" transform="translate(-0.25 -0.25)"/></g></g></g></g></g></svg>