<svg xmlns="http://www.w3.org/2000/svg" xmlns:xlink="http://www.w3.org/1999/xlink" viewBox="0 0 46.74 69.69"><defs><style>.cls-1,.cls-4{fill:none;}.cls-2{clip-path:url(#clip-path);}.cls-3{fill:#e5a65f;}.cls-4{stroke:#060706;stroke-miterlimit:10;}</style><clipPath id="clip-path" transform="translate(0 0)"><rect class="cls-1" width="46.74" height="69.69"/></clipPath></defs><g id="Layer_2" data-name="Layer 2"><g id="Layer_1-2" data-name="Layer 1"><g id="Group_197" data-name="Group 197"><g class="cls-2"><g id="Group_196" data-name="Group 196"><path id="Path_1394" data-name="Path 1394" class="cls-3" d="M33.24,46.26l3.64,3.13c.78.67,1.55,1.34,2.34,2a3.47,3.47,0,0,1,1.3,2.81c0,3.93,0,7.87-.05,11.8a3.19,3.19,0,0,1-3.19,3.19H37.2A3.23,3.23,0,0,1,34,66q0-4.9,0-9.8A1.27,1.27,0,0,0,33.53,55c-2.63-2.22-5.22-4.49-7.85-6.71A8.69,8.69,0,0,0,24,47.22c-1.07-.55-2.17-1-3.3-1.55l-.47.67L6.63,67.44a3.35,3.35,0,0,1-2.7,1.75,3.23,3.23,0,0,1-3.42-3,3.18,3.18,0,0,1,.51-2C2.47,61.92,4,59.65,5.41,57.38c3.1-4.8,6.31-9.54,9.28-14.41,2.68-4.38,5.13-8.89,7.68-13.35.73-1.28,1.48-2.55,2.17-3.84a1.57,1.57,0,0,0,.14-1q-1.16-5.05-2.36-10.09a2.62,2.62,0,0,1,.25-1.94Q25.42,7.37,28.28,2A2.66,2.66,0,0,1,31.83.77h0L32,.83a2.69,2.69,0,0,1,1.13,3.63h0l0,.06c-1.63,3.12-3.31,6.22-4.93,9.35A2,2,0,0,0,28,15.06q.84,3.81,1.79,7.61a1.48,1.48,0,0,0,.63.84c2.4,1.46,4.84,2.86,7.24,4.33a5.52,5.52,0,0,1,1.52,1.37c2.14,2.86,4.24,5.75,6.35,8.64,1.37,1.88.79,3.75-1.42,4.55L33.63,46.12l-.39.14m3-12-3.61,6.46,6.62-2.35-3-4.11Z" transform="translate(0 0)"/><path id="Path_1395" data-name="Path 1395" class="cls-4" d="M33.24,46.26l3.64,3.13c.78.67,1.55,1.34,2.34,2a3.47,3.47,0,0,1,1.3,2.81c0,3.93,0,7.87-.05,11.8a3.19,3.19,0,0,1-3.19,3.19H37.2A3.23,3.23,0,0,1,34,66q0-4.9,0-9.8A1.27,1.27,0,0,0,33.53,55c-2.63-2.22-5.22-4.49-7.85-6.71A8.69,8.69,0,0,0,24,47.22c-1.07-.55-2.17-1-3.3-1.55l-.47.67L6.63,67.44a3.35,3.35,0,0,1-2.7,1.75,3.23,3.23,0,0,1-3.42-3,3.18,3.18,0,0,1,.51-2C2.47,61.92,4,59.65,5.41,57.38c3.1-4.8,6.31-9.54,9.28-14.41,2.68-4.38,5.13-8.89,7.68-13.35.73-1.28,1.48-2.55,2.17-3.84a1.57,1.57,0,0,0,.14-1q-1.16-5.05-2.36-10.09a2.62,2.62,0,0,1,.25-1.94Q25.42,7.37,28.28,2A2.66,2.66,0,0,1,31.83.77h0L32,.83a2.69,2.69,0,0,1,1.13,3.63h0l0,.06c-1.63,3.12-3.31,6.22-4.93,9.35A2,2,0,0,0,28,15.06q.84,3.81,1.79,7.61a1.48,1.48,0,0,0,.63.84c2.4,1.46,4.84,2.86,7.24,4.33a5.52,5.52,0,0,1,1.52,1.37c2.14,2.86,4.24,5.75,6.35,8.64,1.37,1.88.79,3.75-1.42,4.55L33.63,46.12l-.39.14m3-12-3.61,6.46,6.62-2.35-3-4.11Z" transform="translate(0 0)"/><path id="Path_1396" data-name="Path 1396" class="cls-3" d="M36.76,24.41a5.58,5.58,0,1,1,5.55-5.6h0a5.58,5.58,0,0,1-5.55,5.6" transform="translate(0 0)"/><path id="Path_1397" data-name="Path 1397" class="cls-4" d="M36.76,24.41a5.58,5.58,0,1,1,5.55-5.6h0a5.58,5.58,0,0,1-5.55,5.6" transform="translate(0 0)"/></g></g></g></g></g></svg>