<svg xmlns="http://www.w3.org/2000/svg" xmlns:xlink="http://www.w3.org/1999/xlink" viewBox="0 0 76.92 80.32"><defs><style>.cls-1,.cls-6{fill:none;}.cls-2{clip-path:url(#clip-path);}.cls-3{fill:#72b5e4;}.cls-4{fill:#caeaf5;}.cls-5{fill:#fafcfd;}.cls-6{stroke:#151313;stroke-miterlimit:10;}</style><clipPath id="clip-path"><rect class="cls-1" x="0.5" y="1.22" width="75.91" height="78.6"/></clipPath></defs><g id="Layer_2" data-name="Layer 2"><g id="Layer_1-2" data-name="Layer 1"><g id="Group_70" data-name="Group 70"><g class="cls-2"><g id="Group_67" data-name="Group 67"><g id="Group_66" data-name="Group 66"><g class="cls-2"><g id="Group_65" data-name="Group 65"><path id="Path_1132" data-name="Path 1132" class="cls-3" d="M76.41,1.22l0,4L62.68,19l1,1a2.86,2.86,0,0,1,0,4l-2,2,1.92,2a5.72,5.72,0,0,1-.08,7.93L34.18,65.27h0a5.38,5.38,0,0,1-7.61,0h0l-.13-.14-1.92-2-7.83,7.87,3.84,4a2.85,2.85,0,0,1,0,4h0a2.68,2.68,0,0,1-3.79,0L16.61,79,1.28,63a2.87,2.87,0,0,1,0-4h0a2.68,2.68,0,0,1,3.79,0l.08.08L9,63l7.82-7.86-1.93-2A5.7,5.7,0,0,1,15,45.25L44.32,15.79a5.37,5.37,0,0,1,7.6-.07l.15.14,1.92,2,2-2h0a2.67,2.67,0,0,1,3.79,0h0l.06.07,1,1ZM61.58,33.8a2.83,2.83,0,0,0,0-4l-11.5-12a2.69,2.69,0,0,0-3.8-.11h0l-.08.07-1.94,2h0l-2,2-2,2,3.84,4-2,2-3.84-4-3.9,3.92-2,2,3.83,4-2,2-3.84-4-2,2,7.67,8-2,2-7.67-8-5.85,5.89,7.67,8-2,2-7.67-8-2,2a2.85,2.85,0,0,0,0,4l11.5,12a2.67,2.67,0,0,0,3.78.12h0l.08-.08Z"/><path id="Path_1133" data-name="Path 1133" class="cls-4" d="M61.62,29.84a2.83,2.83,0,0,1,0,4L32.24,63.26l-.08.08h0a2.68,2.68,0,0,1-3.78-.12l-11.5-12a2.85,2.85,0,0,1,0-4l2-2,7.67,8,2-2-7.67-8,5.85-5.89,7.67,8,2-2-7.67-8,2-2,3.84,4,2-2-3.83-4,2-2,3.9-3.93,3.84,4,2-2-3.84-4,2-2,7.66,8,2-2-7.66-8h0l1.94-2,.08-.07h0a2.67,2.67,0,0,1,3.79.11h0ZM44.15,35.62l-7.67-8-2,2,7.67,8ZM28.58,43.4l-3.84-4-2,2,3.84,4Z"/><path id="Path_1134" data-name="Path 1134" class="cls-5" d="M44.3,19.75l7.66,8-2,2-7.67-8Z"/><path id="Path_1135" data-name="Path 1135" class="cls-5" d="M36.47,27.62l7.67,8-2,2-7.68-8Z"/><path id="Path_1136" data-name="Path 1136" class="cls-5" d="M24.74,39.4l3.84,4-2,2-3.84-4Z"/></g></g></g></g></g><path id="Path_1137" data-name="Path 1137" class="cls-6" d="M63.65,19.94l-1-1L76.37,5.2l0-4L60.78,16.93l-1-1-.06-.06a2.69,2.69,0,0,0-3.8,0h0l-2,2-1.92-2-.15-.14a5.37,5.37,0,0,0-7.6.07L15,45.26a5.7,5.7,0,0,0-.07,7.93l1.93,2L9,63,5.19,59,5.12,59a2.67,2.67,0,0,0-3.79,0h0a2.85,2.85,0,0,0,0,4L16.61,79l.08.07a2.67,2.67,0,0,0,3.78,0v0a2.83,2.83,0,0,0,0-4l-3.83-4,7.82-7.86,1.92,2,.13.14a5.4,5.4,0,0,0,7.62-.06h0L63.5,35.8a5.7,5.7,0,0,0,.08-7.92l-1.92-2,2-2A2.86,2.86,0,0,0,63.65,19.94Z"/><path id="Path_1138" data-name="Path 1138" class="cls-6" d="M42.34,21.73l-2,2,3.83,4-2,2-3.83-4-3.9,3.93-2,2,3.84,4-2,2-3.84-4-2,2,7.67,8-2,2-7.68-8-5.84,5.89,7.67,8-2,2-7.67-8-2,2a2.87,2.87,0,0,0,0,4l11.5,12a2.68,2.68,0,0,0,3.79.13v0l.07-.07L61.58,33.8a2.86,2.86,0,0,0,0-4l-11.5-12a2.7,2.7,0,0,0-3.8-.12h0l-.08.07L44.3,19.74"/><path id="Path_1139" data-name="Path 1139" class="cls-6" d="M42.34,21.73l2-2,7.66,8-2,2Z"/><path id="Path_1140" data-name="Path 1140" class="cls-6" d="M42.19,37.58l-7.67-8,2-2,7.67,8Z"/><path id="Path_1141" data-name="Path 1141" class="cls-6" d="M22.78,41.37l2-2,3.84,4-2,2Z"/></g></g></g></svg>