<svg id="Layer_1" data-name="Layer 1" xmlns="http://www.w3.org/2000/svg" viewBox="0 0 107 44"><defs><style>.cls-1{fill:none;}.cls-2{isolation:isolate;}.cls-3{fill:#b93132;}</style></defs><g id="Left_-_Back_Button" data-name="Left - Back Button"><g id="Back_Button" data-name="Back Button"><rect id="Frame" class="cls-1" width="107" height="44"/><g id="Parent_Title" data-name="Parent Title" class="cls-2"><g class="cls-2"><path class="cls-3" d="M21.39,17.53H25.7a2.84,2.84,0,0,1,2.05.73,2.67,2.67,0,0,1,.74,2,2.63,2.63,0,0,1-.16,1,2.15,2.15,0,0,1-.43.67,1.85,1.85,0,0,1-.55.39,2.84,2.84,0,0,1-.55.17v.09a2.11,2.11,0,0,1,.63.15,2,2,0,0,1,.67.43,2.24,2.24,0,0,1,.53.75,2.45,2.45,0,0,1,.22,1.1,3.6,3.6,0,0,1-.2,1.2,3,3,0,0,1-.56,1,2.72,2.72,0,0,1-.86.64,2.58,2.58,0,0,1-1.08.23H21.39Zm1.26,4.53h2.9a1.65,1.65,0,0,0,1.17-.38,1.35,1.35,0,0,0,.42-1.07v-.52A1.37,1.37,0,0,0,26.72,19a1.74,1.74,0,0,0-1.17-.37h-2.9Zm0,4.83h3.11A1.89,1.89,0,0,0,27,26.48a1.54,1.54,0,0,0,.46-1.21v-.51A1.54,1.54,0,0,0,27,23.55a1.89,1.89,0,0,0-1.28-.41H22.65Z"/><path class="cls-3" d="M37.88,28l-1.05-3.09H32.6L31.55,28H30.28l3.66-10.47h1.6L39.2,28Zm-3.13-9.3h-.08L32.9,23.8h3.62Z"/><path class="cls-3" d="M44.69,28.18a3.75,3.75,0,0,1-3.1-1.36,6.19,6.19,0,0,1-1.11-4,6.44,6.44,0,0,1,1.11-4.05,3.69,3.69,0,0,1,3.1-1.42,3.93,3.93,0,0,1,2.21.59,3.89,3.89,0,0,1,1.39,1.69l-1,.61a2.86,2.86,0,0,0-1-1.29,2.58,2.58,0,0,0-1.62-.49,2.65,2.65,0,0,0-1.21.26,2.53,2.53,0,0,0-.9.73A3.46,3.46,0,0,0,42,20.57,5.18,5.18,0,0,0,41.83,22v1.57a3.85,3.85,0,0,0,.75,2.54,2.56,2.56,0,0,0,2.11.92,2.65,2.65,0,0,0,1.68-.52,3,3,0,0,0,1-1.37l1,.63a3.8,3.8,0,0,1-3.67,2.37Z"/><path class="cls-3" d="M53.35,22.86,51.86,24.5V28H50.6V17.53h1.26v5.56h0l1.5-1.81,3.17-3.75h1.54L54.21,22l4.18,6H56.82Z"/></g></g><path id="Path_1778" data-name="Path 1778" class="cls-3" d="M15.66,12.23a1.3,1.3,0,0,1,1.31,1,1.21,1.21,0,0,1-.32,1.13c-.39.4-.8.78-1.2,1.17l-.78.77L12.92,18l-1.24,1.2L10,20.85,8.89,22s0,.05,0,.08l1.85,1.8L12,25.05l1.73,1.7L15,28l1.58,1.54a1.5,1.5,0,0,1,.38.64,1.27,1.27,0,0,1-.55,1.39,1.3,1.3,0,0,1-.84.2,1.25,1.25,0,0,1-.77-.37l-1.31-1.28L12,28.69,10.7,27.38,8.78,25.49,7.36,24.11,6.25,23a1.55,1.55,0,0,1-.4-.58A1.12,1.12,0,0,1,5.78,22a1.36,1.36,0,0,1,.47-1l1-1,1.48-1.45,1.47-1.43,1.44-1.42,1.46-1.43L14.6,12.8a2.42,2.42,0,0,1,.33-.31,1.27,1.27,0,0,1,.73-.26"/></g></g></svg>