<svg id="Layer_1" data-name="Layer 1" xmlns="http://www.w3.org/2000/svg" viewBox="0 0 107 44"><defs><style>.cls-1{fill:none;}.cls-2{isolation:isolate;}.cls-3{fill:#b93132;}</style></defs><g id="Left_-_Back_Button" data-name="Left - Back Button"><g id="Back_Button" data-name="Back Button"><rect id="Frame" class="cls-1" width="107" height="44"/><g id="Parent_Title" data-name="Parent Title" class="cls-2"><g class="cls-2"><path class="cls-3" d="M21.39,17.53H24.9a4.66,4.66,0,0,1,1.78.33,3.56,3.56,0,0,1,1.35,1,4.41,4.41,0,0,1,.86,1.64,7.46,7.46,0,0,1,.3,2.28,7.52,7.52,0,0,1-.3,2.29A4.41,4.41,0,0,1,28,26.69a3.56,3.56,0,0,1-1.35,1A4.66,4.66,0,0,1,24.9,28H21.39Zm3.51,9.36a3,3,0,0,0,1.19-.22A2.48,2.48,0,0,0,27,26a3.2,3.2,0,0,0,.61-1,4.27,4.27,0,0,0,.22-1.39V21.91a4.27,4.27,0,0,0-.22-1.39,3,3,0,0,0-.61-1,2.39,2.39,0,0,0-.93-.64,3,3,0,0,0-1.19-.22H22.65v8.25Z"/><path class="cls-3" d="M37.25,28a1.19,1.19,0,0,1-1-.36,1.83,1.83,0,0,1-.37-.9h-.07A2,2,0,0,1,35,27.82a2.63,2.63,0,0,1-1.4.36,2.72,2.72,0,0,1-1.91-.63A2.23,2.23,0,0,1,31,25.84a2,2,0,0,1,.8-1.68,4.29,4.29,0,0,1,2.5-.58h1.53v-.77a1.67,1.67,0,0,0-.45-1.26A1.92,1.92,0,0,0,34,21.12a2.1,2.1,0,0,0-1.18.31,2.66,2.66,0,0,0-.79.84l-.72-.68a2.78,2.78,0,0,1,1-1.07,3.75,3.75,0,0,1,3.93.25A2.42,2.42,0,0,1,37,22.68v4.25h.89V28Zm-3.45-.84a2.67,2.67,0,0,0,.82-.11,1.85,1.85,0,0,0,.65-.3,1.29,1.29,0,0,0,.42-.45,1.06,1.06,0,0,0,.15-.55V24.47H34.25a2.91,2.91,0,0,0-1.51.31,1,1,0,0,0-.47.86V26a1.05,1.05,0,0,0,.41.88A1.82,1.82,0,0,0,33.8,27.16Z"/><path class="cls-3" d="M42.25,28.18a3.64,3.64,0,0,1-1.81-.41,4.26,4.26,0,0,1-1.26-1.1L40,26a3.19,3.19,0,0,0,1,.88,2.57,2.57,0,0,0,1.29.31,1.91,1.91,0,0,0,1.19-.33A1.12,1.12,0,0,0,44,25.9a1.08,1.08,0,0,0-.3-.77,1.78,1.78,0,0,0-1.06-.45L42,24.59a4.79,4.79,0,0,1-1-.23,2.6,2.6,0,0,1-.79-.42,1.74,1.74,0,0,1-.52-.65,2.06,2.06,0,0,1-.19-.93,2.26,2.26,0,0,1,.21-1,2,2,0,0,1,.58-.71,2.5,2.5,0,0,1,.88-.43,4.22,4.22,0,0,1,1.09-.14A3.21,3.21,0,0,1,45,21.33l-.79.71a2.57,2.57,0,0,0-.75-.65,2.49,2.49,0,0,0-1.25-.29,1.73,1.73,0,0,0-1.13.32,1.09,1.09,0,0,0-.39.88.92.92,0,0,0,.39.83,3,3,0,0,0,1.1.37l.6.09a3.25,3.25,0,0,1,1.83.74,2,2,0,0,1,.54,1.43,2.24,2.24,0,0,1-.76,1.78A3.21,3.21,0,0,1,42.25,28.18Z"/><path class="cls-3" d="M47.51,16.9h1.2v4.61h.06a2.49,2.49,0,0,1,.8-1A2.27,2.27,0,0,1,51,20.08a2.46,2.46,0,0,1,1.9.77A3.18,3.18,0,0,1,53.55,23v5h-1.2V23.23c0-1.39-.58-2.09-1.75-2.09a2.37,2.37,0,0,0-.7.1,1.93,1.93,0,0,0-.6.27,1.23,1.23,0,0,0-.43.45,1.29,1.29,0,0,0-.16.66V28h-1.2Z"/><path class="cls-3" d="M56.31,16.9h1.2v4.61h.06a2.18,2.18,0,0,1,.88-1.08,2.68,2.68,0,0,1,1.39-.35,2.89,2.89,0,0,1,2.3,1.09,3.65,3.65,0,0,1,.63,1.28,6.52,6.52,0,0,1,0,3.36,3.44,3.44,0,0,1-.63,1.27,2.6,2.6,0,0,1-1,.81,2.92,2.92,0,0,1-1.3.29,2.34,2.34,0,0,1-2.27-1.43h-.06V28h-1.2Zm3.2,10.22a2.05,2.05,0,0,0,1.6-.65,2.37,2.37,0,0,0,.59-1.68V23.47a2.37,2.37,0,0,0-.59-1.68,2.05,2.05,0,0,0-1.6-.65,2.43,2.43,0,0,0-.77.12,2,2,0,0,0-.64.31,1.6,1.6,0,0,0-.43.47,1.28,1.28,0,0,0-.16.6v2.89a1.44,1.44,0,0,0,.16.67,1.59,1.59,0,0,0,.43.5,1.82,1.82,0,0,0,.64.31A2.76,2.76,0,0,0,59.51,27.12Z"/><path class="cls-3" d="M68.22,28.18a3.47,3.47,0,0,1-1.42-.29,3,3,0,0,1-1.1-.81A3.8,3.8,0,0,1,65,25.8a5.1,5.1,0,0,1-.25-1.67A5.18,5.18,0,0,1,65,22.46a3.8,3.8,0,0,1,.72-1.28,3,3,0,0,1,1.1-.81,3.62,3.62,0,0,1,2.84,0,3,3,0,0,1,1.1.81,3.8,3.8,0,0,1,.72,1.28,5.18,5.18,0,0,1,.26,1.67,5.09,5.09,0,0,1-.26,1.67,3.8,3.8,0,0,1-.72,1.28,3,3,0,0,1-1.1.81A3.43,3.43,0,0,1,68.22,28.18Zm0-1.06a2.15,2.15,0,0,0,1.59-.61,2.44,2.44,0,0,0,.62-1.83v-1.1a2.44,2.44,0,0,0-.62-1.83,2.38,2.38,0,0,0-3.18,0A2.44,2.44,0,0,0,66,23.58v1.1a2.44,2.44,0,0,0,.61,1.83A2.15,2.15,0,0,0,68.22,27.12Z"/><path class="cls-3" d="M79.61,28a1.19,1.19,0,0,1-1-.36,1.74,1.74,0,0,1-.36-.9H78.2a2,2,0,0,1-.84,1.08,2.62,2.62,0,0,1-1.39.36,2.73,2.73,0,0,1-1.92-.63,2.23,2.23,0,0,1-.68-1.71,2,2,0,0,1,.8-1.68,4.29,4.29,0,0,1,2.5-.58H78.2v-.77a1.67,1.67,0,0,0-.45-1.26,1.92,1.92,0,0,0-1.38-.43,2.1,2.1,0,0,0-1.18.31,2.66,2.66,0,0,0-.79.84l-.72-.68a2.78,2.78,0,0,1,1-1.07,3.75,3.75,0,0,1,3.93.25,2.42,2.42,0,0,1,.78,1.91v4.25h.89V28Zm-3.45-.84a2.67,2.67,0,0,0,.82-.11,1.85,1.85,0,0,0,.65-.3,1.29,1.29,0,0,0,.42-.45,1.06,1.06,0,0,0,.15-.55V24.47H76.61a2.91,2.91,0,0,0-1.51.31,1,1,0,0,0-.47.86V26a1.05,1.05,0,0,0,.41.88A1.82,1.82,0,0,0,76.16,27.16Z"/><path class="cls-3" d="M82.28,28V20.26h1.2v1.42h.07a2.46,2.46,0,0,1,.75-1,2.34,2.34,0,0,1,1.49-.44h.47v1.2h-.71a2.65,2.65,0,0,0-1.52.37,1.07,1.07,0,0,0-.55.92V28Z"/><path class="cls-3" d="M92.93,26.75h-.06a2.36,2.36,0,0,1-2.27,1.43,2.92,2.92,0,0,1-1.3-.29,2.68,2.68,0,0,1-1-.81,3.78,3.78,0,0,1-.63-1.27,6.52,6.52,0,0,1,0-3.36,4,4,0,0,1,.63-1.28,2.86,2.86,0,0,1,1-.8,2.79,2.79,0,0,1,1.3-.29,2.66,2.66,0,0,1,1.39.35,2.13,2.13,0,0,1,.88,1.08h.06V16.9h1.2V28h-1.2Zm-2,.37a2.88,2.88,0,0,0,.78-.11,1.86,1.86,0,0,0,.63-.31,1.47,1.47,0,0,0,.43-.5,1.33,1.33,0,0,0,.16-.67V22.64a1.17,1.17,0,0,0-.16-.6,1.47,1.47,0,0,0-.43-.47,2.06,2.06,0,0,0-.63-.31,2.54,2.54,0,0,0-.78-.12,2.05,2.05,0,0,0-1.6.65,2.37,2.37,0,0,0-.59,1.68v1.32a2.37,2.37,0,0,0,.59,1.68A2.05,2.05,0,0,0,90.93,27.12Z"/></g></g><path id="Path_1778" data-name="Path 1778" class="cls-3" d="M15.66,12.23a1.3,1.3,0,0,1,1.31,1,1.21,1.21,0,0,1-.32,1.13c-.39.4-.8.78-1.2,1.17l-.78.77L12.92,18l-1.24,1.2L10,20.85,8.89,22s0,.05,0,.08l1.85,1.8L12,25.05l1.73,1.7L15,28l1.58,1.54a1.5,1.5,0,0,1,.38.64,1.27,1.27,0,0,1-.55,1.39,1.3,1.3,0,0,1-.84.2,1.25,1.25,0,0,1-.77-.37l-1.31-1.28L12,28.69,10.7,27.38,8.78,25.49,7.36,24.11,6.25,23a1.55,1.55,0,0,1-.4-.58A1.12,1.12,0,0,1,5.78,22a1.36,1.36,0,0,1,.47-1l1-1,1.48-1.45,1.47-1.43,1.44-1.42,1.46-1.43L14.6,12.8a2.42,2.42,0,0,1,.33-.31,1.27,1.27,0,0,1,.73-.26"/></g></g></svg>