<svg xmlns="http://www.w3.org/2000/svg" xmlns:xlink="http://www.w3.org/1999/xlink" viewBox="0 0 610.9 361.7"><defs><style>.cls-1,.cls-4{fill:none;}.cls-2{clip-path:url(#clip-path);}.cls-3{fill:#f4f2f2;}.cls-3,.cls-4{stroke:#19181c;stroke-miterlimit:10;stroke-width:0.25px;}.cls-5{clip-path:url(#clip-path-2);}.cls-6{fill:#b93132;}.cls-7{isolation:isolate;}.cls-8{fill:#707071;}</style><clipPath id="clip-path" transform="translate(0 -1.07)"><rect class="cls-1" y="12.81" width="569.04" height="328.08"/></clipPath><clipPath id="clip-path-2" transform="translate(0 -1.07)"><rect class="cls-1" y="188.63" width="569.04" height="42.01"/></clipPath></defs><g id="Layer_2" data-name="Layer 2"><g id="Layer_1-2" data-name="Layer 1"><g id="Graph"><g id="Group_29" data-name="Group 29"><g class="cls-2"><g id="Group_28" data-name="Group 28"><rect id="Rectangle_30" data-name="Rectangle 30" class="cls-3" x="0.68" y="12.34" width="568.06" height="326.59" rx="19.1"/><line id="Line_1" data-name="Line 1" class="cls-4" x1="0.68" y1="55" x2="568.45" y2="55"/><line id="Line_2" data-name="Line 2" class="cls-4" x1="0.44" y1="95.36" x2="568.2" y2="95.36"/><line id="Line_3" data-name="Line 3" class="cls-4" y1="136.08" x2="567.77" y2="136.08"/><line id="Line_4" data-name="Line 4" class="cls-4" x1="0.49" y1="176.44" x2="568.26" y2="176.44"/><line id="Line_5" data-name="Line 5" class="cls-4" x1="0.05" y1="217.16" x2="567.82" y2="217.16"/><line id="Line_6" data-name="Line 6" class="cls-4" x1="0.78" y1="258.01" x2="568.55" y2="258.01"/><line id="Line_7" data-name="Line 7" class="cls-4" x1="1.27" y1="298.37" x2="569.04" y2="298.37"/><line id="Line_8" data-name="Line 8" class="cls-4" x1="41.21" y1="12.34" x2="41.21" y2="338.93"/><line id="Line_9" data-name="Line 9" class="cls-4" x1="81.87" y1="12.21" x2="81.87" y2="338.8"/><line id="Line_10" data-name="Line 10" class="cls-4" x1="122.24" y1="12.19" x2="122.24" y2="338.78"/><line id="Line_11" data-name="Line 11" class="cls-4" x1="162.93" y1="12.06" x2="162.93" y2="338.65"/><line id="Line_12" data-name="Line 12" class="cls-4" x1="203.46" y1="12.27" x2="203.46" y2="338.85"/><line id="Line_13" data-name="Line 13" class="cls-4" x1="244.13" y1="12.14" x2="244.13" y2="338.72"/><line id="Line_14" data-name="Line 14" class="cls-4" x1="284.5" y1="12.11" x2="284.5" y2="338.7"/><line id="Line_15" data-name="Line 15" class="cls-4" x1="325.19" y1="13.24" x2="325.19" y2="339.82"/><line id="Line_16" data-name="Line 16" class="cls-4" x1="365.56" y1="13.21" x2="365.56" y2="339.8"/><line id="Line_17" data-name="Line 17" class="cls-4" x1="406.25" y1="11.9" x2="406.25" y2="338.49"/><line id="Line_18" data-name="Line 18" class="cls-4" x1="446.62" y1="11.88" x2="446.62" y2="338.46"/><line id="Line_19" data-name="Line 19" class="cls-4" x1="487.31" y1="11.75" x2="487.31" y2="338.33"/><line id="Line_20" data-name="Line 20" class="cls-4" x1="527.84" y1="11.95" x2="527.84" y2="338.54"/></g></g></g><g id="Group_74" data-name="Group 74"><g class="cls-5"><g id="Group_73" data-name="Group 73"><path id="Path_1145" data-name="Path 1145" class="cls-6" d="M7.28,229.1c15.86-22.7,50.31-32.36,80.27-25.52,18.35,4.19,34.53,14.46,54.5,11.76,5.25-.71,10.33-2.11,15.58-2.79a135.18,135.18,0,0,1,14.08-.7c9.66-.21,19.4-1.06,27.64-5.63,3.87-2.15,7.28-4.78,12.08-5.27,5.29-.54,10.84,0,16.14.14,11,.33,22,.75,33,1.69a253.77,253.77,0,0,1,32.21,4.68c5.32,1.16,10.58,2.54,16.09,2.92a77,77,0,0,0,15.47-.82A255.65,255.65,0,0,1,358,207c9.68,0,20.71,2.11,29.84-1.4,4.2-1.62,7-4.45,10.32-7a32.13,32.13,0,0,1,11-5.4c8.57-2.35,17.3-.94,25.34,2.08,6.94,2.6,13.35,6,20.4,8.49A161.15,161.15,0,0,0,480,210.21c5.46,1,10.95,1.49,16.5,2,5.4.5,10.8,1.23,16.25,1.11l34.4-.75,16.64-.36c1.57,0,4.16-.43,5-1.67s-.73-1.69-2-1.67l-34.41.75c-5.92.13-11.83.3-17.75.39-5.74.08-11.61-.86-17.31-1.39a155.64,155.64,0,0,1-50.25-13.49c-7.84-3.56-16.13-6.42-25.2-6.51a51.76,51.76,0,0,0-25.46,6.3c-3.92,2.22-6.75,5.34-10.5,7.68s-9.09,1.53-13.49,1.31a235.94,235.94,0,0,0-33.63.78c-5.53.53-11,1.4-16.49,2a52.8,52.8,0,0,1-16.59-.68c-11-2.2-21.73-4.53-33-5.77-10.94-1.2-22-1.81-33-2.23-5.56-.2-11.12-.36-16.68-.51-5.17-.14-10.41-.2-15.43,1s-8.73,3.65-12.88,6a31,31,0,0,1-13,3.65c-9.95.85-19.71.31-29.55,2.22-5.09,1-10.12,2.2-15.4,2.06a57.53,57.53,0,0,1-14.5-2.55c-9.3-2.71-18-6.66-27.51-9-30.34-7.52-66.95,0-87.76,20.2a56,56,0,0,0-6.77,8c-1.68,2.41,5.87,1.67,7,0" transform="translate(0 -1.07)"/></g></g></g><g id="Date"><g id="Apr_25th" data-name="Apr 25th" class="cls-7"><g class="cls-7"><path class="cls-8" d="M4.81,360.76l-.59-2H1.77l-.59,2H.31l2.14-7H3.56l2.14,7ZM3,354.67H3L2,358H4Z" transform="translate(0 -1.07)"/><path class="cls-8" d="M7,355.6h.8v.84h0a1.67,1.67,0,0,1,1.59-1,1.78,1.78,0,0,1,1.49.71,3.31,3.31,0,0,1,.53,2,3.27,3.27,0,0,1-.53,2,1.76,1.76,0,0,1-1.49.71,1.67,1.67,0,0,1-1.59-1h0v2.84H7Zm2.12,4.57a1.41,1.41,0,0,0,1.09-.42,1.64,1.64,0,0,0,.38-1.13v-.87a1.64,1.64,0,0,0-.38-1.13,1.41,1.41,0,0,0-1.09-.43,2.09,2.09,0,0,0-.51.07,1.38,1.38,0,0,0-.42.21.88.88,0,0,0-.28.33.94.94,0,0,0-.11.45v1.86a1,1,0,0,0,.11.46.88.88,0,0,0,.28.33,1.17,1.17,0,0,0,.42.2A1.7,1.7,0,0,0,9.07,360.17Z" transform="translate(0 -1.07)"/><path class="cls-8" d="M12.77,360.07h1.51v-3.78H12.77v-.69h2.31v1.3h.05a1.73,1.73,0,0,1,.61-.95,1.77,1.77,0,0,1,1.13-.35h.72v.8h-1a1.61,1.61,0,0,0-1.12.4,1.39,1.39,0,0,0-.42,1.05v2.22h2v.69H12.77Z" transform="translate(0 -1.07)"/><path class="cls-8" d="M29.37,360.76H24.71v-.86L27,357.8a5.16,5.16,0,0,0,.84-.94,1.8,1.8,0,0,0,.33-1v-.12a1.34,1.34,0,0,0-.33-1,1.3,1.3,0,0,0-1-.35,1.33,1.33,0,0,0-1,.33,1.86,1.86,0,0,0-.52.86l-.75-.28a4,4,0,0,1,.27-.6,2.26,2.26,0,0,1,.45-.53,2.4,2.4,0,0,1,.65-.37,2.75,2.75,0,0,1,.9-.13,2.58,2.58,0,0,1,.92.14,1.92,1.92,0,0,1,.68.42,1.73,1.73,0,0,1,.42.65,2.07,2.07,0,0,1,.15.8,2.27,2.27,0,0,1-.12.75,2.43,2.43,0,0,1-.32.67,4,4,0,0,1-.48.63c-.2.2-.41.4-.64.6l-2,1.7h3.79Z" transform="translate(0 -1.07)"/><path class="cls-8" d="M35,354.51H31.89l-.2,2.67h.07a2.31,2.31,0,0,1,.58-.55,1.59,1.59,0,0,1,.88-.21,2.24,2.24,0,0,1,.84.15,1.88,1.88,0,0,1,.67.43,2,2,0,0,1,.44.67,2.29,2.29,0,0,1,.16.9,2.54,2.54,0,0,1-.16.94,2,2,0,0,1-.47.73,2.22,2.22,0,0,1-.75.47,3.05,3.05,0,0,1-1.78.07,1.94,1.94,0,0,1-.62-.27,2.45,2.45,0,0,1-.46-.38,3.13,3.13,0,0,1-.36-.44l.63-.48a4.17,4.17,0,0,0,.28.38,1.38,1.38,0,0,0,.34.3,1.52,1.52,0,0,0,.43.19,1.91,1.91,0,0,0,.56.07,1.34,1.34,0,0,0,1.49-1.47v-.08a1.46,1.46,0,0,0-.39-1.08,1.51,1.51,0,0,0-1.12-.39,1.56,1.56,0,0,0-.78.17,2.86,2.86,0,0,0-.5.42l-.71-.1.25-3.84H35Z" transform="translate(0 -1.07)"/><path class="cls-8" d="M39.25,360.76a1.08,1.08,0,0,1-.87-.32,1.31,1.31,0,0,1-.27-.85v-3.3H36.39v-.69h1.28a.55.55,0,0,0,.37-.1.56.56,0,0,0,.1-.37v-1.35h.77v1.82h2.35v.69H38.91v3.78h2.35v.69Z" transform="translate(0 -1.07)"/><path class="cls-8" d="M43,353.36h.8v3.08h0a2.16,2.16,0,0,1,.2-.36,1.42,1.42,0,0,1,.29-.31,2.06,2.06,0,0,1,.42-.21,1.89,1.89,0,0,1,.56-.08,1.73,1.73,0,0,1,1.3.52,2,2,0,0,1,.49,1.46v3.3h-.8v-3.17a1.51,1.51,0,0,0-.31-1,1.17,1.17,0,0,0-.91-.35,1.84,1.84,0,0,0-.47.06,1.38,1.38,0,0,0-.41.18.89.89,0,0,0-.29.32.86.86,0,0,0-.11.43v3.58H43Z" transform="translate(0 -1.07)"/></g></g><g id="May_1st" data-name="May 1st" class="cls-7"><g class="cls-7"><path class="cls-8" d="M529.27,357.26v-2.21h-.08l-1.47,3.59-1.47-3.59h-.08v5.71h-.77v-7h1.08l1.23,3.08h.06l1.23-3.08h1v7h-.77Z" transform="translate(0 -1.07)"/><path class="cls-8" d="M535.67,360.76a.81.81,0,0,1-.67-.24,1.06,1.06,0,0,1-.25-.6h0a1.51,1.51,0,0,1-.55.71,1.74,1.74,0,0,1-1,.25,1.84,1.84,0,0,1-1.29-.42,1.44,1.44,0,0,1-.48-1.15,1.27,1.27,0,0,1,.52-1.1,2.82,2.82,0,0,1,1.7-.4h1.1v-.5a1.09,1.09,0,0,0-.32-.85,1.34,1.34,0,0,0-.91-.29,1.48,1.48,0,0,0-1.38.76l-.54-.4a1.53,1.53,0,0,1,.27-.39,1.83,1.83,0,0,1,.42-.34,2.51,2.51,0,0,1,.57-.23,2.6,2.6,0,0,1,.71-.09A2.13,2.13,0,0,1,535,356a1.58,1.58,0,0,1,.54,1.28v2.84h.72v.69Zm-2.38-.55a2,2,0,0,0,.56-.07,1.86,1.86,0,0,0,.45-.2.92.92,0,0,0,.29-.3.73.73,0,0,0,.11-.38v-.84h-1.1a2.15,2.15,0,0,0-1.05.19.65.65,0,0,0-.33.58v.21a.7.7,0,0,0,.28.61A1.3,1.3,0,0,0,533.29,360.21Z" transform="translate(0 -1.07)"/><path class="cls-8" d="M541.39,355.6h.8l-2.56,6.29a2.36,2.36,0,0,1-.2.39,1.12,1.12,0,0,1-.26.27,1.19,1.19,0,0,1-.36.16,1.88,1.88,0,0,1-.5.05h-.76v-.69h1.2l.58-1.4-2.08-5.07h.82l.87,2.16.77,2h0l.77-2Z" transform="translate(0 -1.07)"/><path class="cls-8" d="M549.57,360.76V360h2V354.4h-.07L549.74,356l-.49-.53,1.84-1.73h1.32V360h1.84v.73Z" transform="translate(0 -1.07)"/><path class="cls-8" d="M557.78,360.88a3.33,3.33,0,0,1-1.4-.27,3,3,0,0,1-1-.73l.53-.48a2.58,2.58,0,0,0,.82.6,2.41,2.41,0,0,0,1.06.21,2,2,0,0,0,1-.21.72.72,0,0,0,.39-.68.67.67,0,0,0-.08-.33.7.7,0,0,0-.2-.22,1.34,1.34,0,0,0-.3-.12,2.44,2.44,0,0,0-.34-.08l-.8-.11-.59-.12a1.78,1.78,0,0,1-.57-.22,1.33,1.33,0,0,1-.44-.41,1.22,1.22,0,0,1-.18-.69,1.36,1.36,0,0,1,.59-1.15,2,2,0,0,1,.66-.29,3.7,3.7,0,0,1,.83-.1,3,3,0,0,1,1.22.23,2.59,2.59,0,0,1,.89.6l-.53.49a1.51,1.51,0,0,0-.22-.22,1.33,1.33,0,0,0-.33-.21,2.36,2.36,0,0,0-.45-.16,2.77,2.77,0,0,0-.6-.06,1.75,1.75,0,0,0-.94.21.68.68,0,0,0-.32.61.69.69,0,0,0,.07.34.53.53,0,0,0,.21.21.86.86,0,0,0,.29.13,1.86,1.86,0,0,0,.34.07l.81.12.59.12a1.82,1.82,0,0,1,.56.22,1.33,1.33,0,0,1,.44.41,1.21,1.21,0,0,1,.18.68,1.36,1.36,0,0,1-.6,1.19A2.62,2.62,0,0,1,557.78,360.88Z" transform="translate(0 -1.07)"/><path class="cls-8" d="M564,360.76a1.06,1.06,0,0,1-.87-.32,1.31,1.31,0,0,1-.27-.85v-3.3h-1.72v-.69h1.28a.5.5,0,0,0,.36-.1.51.51,0,0,0,.11-.37v-1.35h.77v1.82H566v.69h-2.35v3.78H566v.69Z" transform="translate(0 -1.07)"/></g></g></g></g><g class="cls-7"><path class="cls-8" d="M587.43,261.68a3.33,3.33,0,0,1-1.26-.23,2.48,2.48,0,0,1-.93-.65,2.83,2.83,0,0,1-.59-1,4.07,4.07,0,0,1-.21-1.35,5.39,5.39,0,0,1,.28-1.72,6.16,6.16,0,0,1,.72-1.48,7.67,7.67,0,0,1,1-1.19,7.3,7.3,0,0,1,1.07-.87h1.8c-.48.34-.91.68-1.29,1a7.87,7.87,0,0,0-1,1,6,6,0,0,0-.71,1.06,5.67,5.67,0,0,0-.45,1.24l.09,0a3,3,0,0,1,.31-.48,2.62,2.62,0,0,1,.42-.39,2,2,0,0,1,.55-.26,2.59,2.59,0,0,1,.71-.1,2.73,2.73,0,0,1,1,.18,2.24,2.24,0,0,1,.79.53,2.3,2.3,0,0,1,.52.82,3.06,3.06,0,0,1,.19,1.08,3,3,0,0,1-.21,1.14,2.54,2.54,0,0,1-.6.9,2.81,2.81,0,0,1-.94.58A3.45,3.45,0,0,1,587.43,261.68Zm0-1.07a1.65,1.65,0,0,0,1.19-.41A1.59,1.59,0,0,0,589,259v-.12a1.57,1.57,0,0,0-.42-1.17,1.88,1.88,0,0,0-2.37,0,1.57,1.57,0,0,0-.42,1.17V259a1.59,1.59,0,0,0,.42,1.18A1.64,1.64,0,0,0,587.42,260.61Z" transform="translate(0 -1.07)"/><path class="cls-8" d="M594.49,261.66a1.09,1.09,0,0,1-.81-.24.81.81,0,0,1-.24-.59v-.31a.79.79,0,0,1,.24-.59,1.09,1.09,0,0,1,.81-.24,1.12,1.12,0,0,1,.81.24.82.82,0,0,1,.23.59v.31a.84.84,0,0,1-.23.59A1.12,1.12,0,0,1,594.49,261.66Z" transform="translate(0 -1.07)"/><path class="cls-8" d="M602.31,261.54V259.9h-4v-1.15l3.5-5.59h1.76v5.68h1.18v1.06h-1.18v1.64Zm-2.84-2.7h2.84V254.4h-.07Z" transform="translate(0 -1.07)"/></g><g class="cls-7"><path class="cls-8" d="M586.79,180.34a3.33,3.33,0,0,1-1.26-.22,2.62,2.62,0,0,1-.94-.66,2.83,2.83,0,0,1-.58-1,4.13,4.13,0,0,1-.21-1.36,5,5,0,0,1,.28-1.71,6.16,6.16,0,0,1,.72-1.48,6.41,6.41,0,0,1,1-1.19,7.3,7.3,0,0,1,1.07-.87h1.8c-.48.34-.91.67-1.3,1a9.32,9.32,0,0,0-1,1,6,6,0,0,0-.71,1.07,5.49,5.49,0,0,0-.45,1.24l.09,0a2.94,2.94,0,0,1,.31-.47,2,2,0,0,1,.42-.39,2.17,2.17,0,0,1,.55-.27,2.6,2.6,0,0,1,.71-.09,2.73,2.73,0,0,1,1,.18,2.31,2.31,0,0,1,.79.52,2.39,2.39,0,0,1,.52.82,3.21,3.21,0,0,1,0,2.23,2.41,2.41,0,0,1-.6.89,2.61,2.61,0,0,1-1,.58A3.16,3.16,0,0,1,586.79,180.34Zm0-1.06a1.61,1.61,0,0,0,1.19-.42,1.58,1.58,0,0,0,.42-1.17v-.12a1.59,1.59,0,0,0-.42-1.18,1.65,1.65,0,0,0-1.19-.41,1.63,1.63,0,0,0-1.18.41,1.59,1.59,0,0,0-.42,1.18v.12a1.46,1.46,0,0,0,1.6,1.59Z" transform="translate(0 -1.07)"/><path class="cls-8" d="M593.85,180.32a1.09,1.09,0,0,1-.81-.24.79.79,0,0,1-.24-.59v-.31a.81.81,0,0,1,.24-.59,1.09,1.09,0,0,1,.81-.24,1.12,1.12,0,0,1,.81.24.84.84,0,0,1,.23.59v.31a.82.82,0,0,1-.23.59A1.12,1.12,0,0,1,593.85,180.32Z" transform="translate(0 -1.07)"/><path class="cls-8" d="M600.93,180.34a4.28,4.28,0,0,1-1.31-.18,2.7,2.7,0,0,1-1-.51,2.07,2.07,0,0,1-.58-.77,2.4,2.4,0,0,1-.2-1,1.89,1.89,0,0,1,.47-1.34,2.45,2.45,0,0,1,1.22-.71v-.1a2.22,2.22,0,0,1-1-.72,1.84,1.84,0,0,1-.4-1.21,1.89,1.89,0,0,1,.73-1.56,3.87,3.87,0,0,1,4.11,0,1.89,1.89,0,0,1,.73,1.56,1.84,1.84,0,0,1-.4,1.21,2.22,2.22,0,0,1-1,.72v.1a2.45,2.45,0,0,1,1.22.71,1.84,1.84,0,0,1,.47,1.34,2.25,2.25,0,0,1-.2,1,2.07,2.07,0,0,1-.58.77,2.61,2.61,0,0,1-.95.51A4.25,4.25,0,0,1,600.93,180.34Zm0-1.06a1.88,1.88,0,0,0,1.21-.35,1.18,1.18,0,0,0,.43-1v-.26a1.18,1.18,0,0,0-.43-1,2.28,2.28,0,0,0-2.43,0,1.18,1.18,0,0,0-.43,1V178a1.18,1.18,0,0,0,.43,1A1.89,1.89,0,0,0,600.93,179.28Zm0-3.95A1.65,1.65,0,0,0,602,175a1.08,1.08,0,0,0,.38-.89V174a1.08,1.08,0,0,0-.38-.89,1.65,1.65,0,0,0-1.09-.32,1.68,1.68,0,0,0-1.1.32,1.11,1.11,0,0,0-.38.89v.16a1.11,1.11,0,0,0,.38.89A1.68,1.68,0,0,0,600.93,175.33Z" transform="translate(0 -1.07)"/></g><g class="cls-7"><path class="cls-8" d="M587.43,341a3.33,3.33,0,0,1-1.26-.22,2.5,2.5,0,0,1-.93-.66,2.71,2.71,0,0,1-.59-1,4.13,4.13,0,0,1-.21-1.36,5.39,5.39,0,0,1,.28-1.72,6.27,6.27,0,0,1,.72-1.47,7.31,7.31,0,0,1,1-1.2,8.89,8.89,0,0,1,1.07-.87h1.8c-.48.35-.91.68-1.29,1a8.6,8.6,0,0,0-1,1,5.68,5.68,0,0,0-.71,1.07,5.49,5.49,0,0,0-.45,1.24l.09,0a2.94,2.94,0,0,1,.31-.47,2,2,0,0,1,.42-.39,2.35,2.35,0,0,1,.55-.27,2.6,2.6,0,0,1,.71-.09,2.73,2.73,0,0,1,1,.18,2.22,2.22,0,0,1,.79.52,2.39,2.39,0,0,1,.52.82,3.21,3.21,0,0,1,0,2.23,2.41,2.41,0,0,1-.6.89,2.81,2.81,0,0,1-.94.58A3.45,3.45,0,0,1,587.43,341Zm0-1.06a1.61,1.61,0,0,0,1.19-.42,1.58,1.58,0,0,0,.42-1.17v-.12a1.59,1.59,0,0,0-.42-1.18,1.92,1.92,0,0,0-2.37,0,1.59,1.59,0,0,0-.42,1.18v.12a1.58,1.58,0,0,0,.42,1.17A1.61,1.61,0,0,0,587.42,340Z" transform="translate(0 -1.07)"/><path class="cls-8" d="M594.49,341a1.09,1.09,0,0,1-.81-.24.79.79,0,0,1-.24-.59v-.31a.81.81,0,0,1,.24-.59,1.09,1.09,0,0,1,.81-.24,1.12,1.12,0,0,1,.81.24.84.84,0,0,1,.23.59v.31a.82.82,0,0,1-.23.59A1.12,1.12,0,0,1,594.49,341Z" transform="translate(0 -1.07)"/><path class="cls-8" d="M601.57,341a3,3,0,0,1-1.38-.29,2.61,2.61,0,0,1-1-.85,3.87,3.87,0,0,1-.56-1.35,10,10,0,0,1,0-3.67,3.92,3.92,0,0,1,.56-1.36,2.49,2.49,0,0,1,1-.84,3.3,3.3,0,0,1,2.75,0,2.43,2.43,0,0,1,1,.84,3.92,3.92,0,0,1,.56,1.36,9.44,9.44,0,0,1,0,3.67,3.87,3.87,0,0,1-.56,1.35,2.53,2.53,0,0,1-1,.85A3,3,0,0,1,601.57,341Zm0-1.1a1.37,1.37,0,0,0,1.3-.68,3.66,3.66,0,0,0,.39-1.83V336a3.66,3.66,0,0,0-.39-1.83,1.39,1.39,0,0,0-1.3-.68,1.55,1.55,0,0,0-.78.18,1.27,1.27,0,0,0-.53.5,2.32,2.32,0,0,0-.3.79,6.56,6.56,0,0,0-.08,1v1.44a6.47,6.47,0,0,0,.08,1,2.24,2.24,0,0,0,.3.79,1.37,1.37,0,0,0,.53.51A1.67,1.67,0,0,0,601.57,339.93Zm0-2.52a.79.79,0,0,1-.58-.17.55.55,0,0,1-.17-.41v-.26a.57.57,0,0,1,.17-.41.79.79,0,0,1,.58-.17.8.8,0,0,1,.58.17.56.56,0,0,1,.16.41v.26a.54.54,0,0,1-.16.41A.8.8,0,0,1,601.57,337.41Z" transform="translate(0 -1.07)"/></g><g class="cls-7"><path class="cls-8" d="M585.19,98.71l3.11-7.27H585V93h-1.17V90.33h5.78v1.18l-3,7.2Z" transform="translate(0 -1.07)"/><path class="cls-8" d="M593.85,98.83a1.09,1.09,0,0,1-.81-.24.81.81,0,0,1-.24-.59v-.31a.81.81,0,0,1,.24-.59,1.09,1.09,0,0,1,.81-.24,1.12,1.12,0,0,1,.81.24.84.84,0,0,1,.23.59V98a.84.84,0,0,1-.23.59A1.12,1.12,0,0,1,593.85,98.83Z" transform="translate(0 -1.07)"/><path class="cls-8" d="M603.87,98.71h-5.79V97.43L600.82,95a6.84,6.84,0,0,0,1-1.09,1.89,1.89,0,0,0,.35-1.1v-.13a1.34,1.34,0,0,0-.36-1,1.4,1.4,0,0,0-1-.36,1.46,1.46,0,0,0-1.07.38,2,2,0,0,0-.55.94L598,92.23a3.26,3.26,0,0,1,.35-.76,2.78,2.78,0,0,1,.58-.66,2.81,2.81,0,0,1,.84-.45,3.53,3.53,0,0,1,1.13-.17,3.19,3.19,0,0,1,1.15.19,2.37,2.37,0,0,1,.86.51,2.08,2.08,0,0,1,.53.77,2.64,2.64,0,0,1,.18,1,2.75,2.75,0,0,1-.15.93,3.54,3.54,0,0,1-.42.82,4.9,4.9,0,0,1-.64.75c-.25.24-.52.48-.82.72l-2,1.7h4.34Z" transform="translate(0 -1.07)"/></g><g class="cls-7"><path class="cls-8" d="M584.49,140l3.1-7.27h-3.26v1.55h-1.16v-2.65h5.77v1.17l-3,7.2Z" transform="translate(0 -1.07)"/><path class="cls-8" d="M593.14,140.1a1.09,1.09,0,0,1-.81-.24.78.78,0,0,1-.24-.58V139a.78.78,0,0,1,.24-.58,1.09,1.09,0,0,1,.81-.24,1.12,1.12,0,0,1,.81.24.82.82,0,0,1,.23.58v.32a.82.82,0,0,1-.23.58A1.12,1.12,0,0,1,593.14,140.1Z" transform="translate(0 -1.07)"/><path class="cls-8" d="M600.22,140.13a3,3,0,0,1-1.38-.3,2.57,2.57,0,0,1-1-.84,3.92,3.92,0,0,1-.55-1.36,9.39,9.39,0,0,1,0-3.66,4,4,0,0,1,.55-1.37,2.66,2.66,0,0,1,1-.84,3,3,0,0,1,1.38-.3,2.94,2.94,0,0,1,1.37.3,2.51,2.51,0,0,1,1,.84,4,4,0,0,1,.56,1.37,9.39,9.39,0,0,1,0,3.66,3.92,3.92,0,0,1-.56,1.36,2.43,2.43,0,0,1-1,.84A2.94,2.94,0,0,1,600.22,140.13Zm0-1.11a1.37,1.37,0,0,0,1.3-.67,3.71,3.71,0,0,0,.39-1.83v-1.44a3.66,3.66,0,0,0-.39-1.83,1.36,1.36,0,0,0-1.3-.68,1.67,1.67,0,0,0-.78.17,1.44,1.44,0,0,0-.53.51,2.24,2.24,0,0,0-.29.79,5.44,5.44,0,0,0-.09,1v1.44a5.34,5.34,0,0,0,.09,1,2.37,2.37,0,0,0,.29.8,1.41,1.41,0,0,0,.53.5A1.55,1.55,0,0,0,600.22,139Zm0-2.52a.75.75,0,0,1-.58-.17.54.54,0,0,1-.17-.4v-.27a.54.54,0,0,1,.17-.4.75.75,0,0,1,.58-.17.76.76,0,0,1,.58.17.54.54,0,0,1,.16.4v.27a.54.54,0,0,1-.16.4A.76.76,0,0,1,600.22,136.5Z" transform="translate(0 -1.07)"/></g><g class="cls-7"><path class="cls-8" d="M586.93,221.08a3.33,3.33,0,0,1-1.26-.23,2.6,2.6,0,0,1-.94-.65,3,3,0,0,1-.59-1,4.37,4.37,0,0,1-.2-1.36,5.33,5.33,0,0,1,.27-1.71,7,7,0,0,1,.72-1.48,7.27,7.27,0,0,1,1-1.19,6.81,6.81,0,0,1,1.07-.87h1.8c-.48.34-.91.67-1.3,1a8.53,8.53,0,0,0-1,1,6,6,0,0,0-.71,1.06,4.8,4.8,0,0,0-.45,1.24l.09,0a2.46,2.46,0,0,1,.31-.48,2.23,2.23,0,0,1,.42-.39,1.86,1.86,0,0,1,.55-.26,2.21,2.21,0,0,1,.71-.1,2.64,2.64,0,0,1,1,.18,2.4,2.4,0,0,1,.8.52,2.6,2.6,0,0,1,.52.83,3.26,3.26,0,0,1,0,2.22,2.54,2.54,0,0,1-.6.9,2.87,2.87,0,0,1-.94.58A3.4,3.4,0,0,1,586.93,221.08Zm0-1.07a1.59,1.59,0,0,0,1.18-.42,1.55,1.55,0,0,0,.42-1.17v-.12a1.55,1.55,0,0,0-.42-1.17,1.87,1.87,0,0,0-2.36,0,1.55,1.55,0,0,0-.42,1.17v.12a1.55,1.55,0,0,0,.42,1.17A1.59,1.59,0,0,0,586.92,220Z" transform="translate(0 -1.07)"/><path class="cls-8" d="M594,221.05a1.12,1.12,0,0,1-.81-.24.82.82,0,0,1-.23-.58v-.31a.82.82,0,0,1,.23-.59,1.12,1.12,0,0,1,.81-.24,1.09,1.09,0,0,1,.81.24.79.79,0,0,1,.24.59v.31a.78.78,0,0,1-.24.58A1.09,1.09,0,0,1,594,221.05Z" transform="translate(0 -1.07)"/><path class="cls-8" d="M601.09,221.08a3.26,3.26,0,0,1-1.26-.23,2.6,2.6,0,0,1-.94-.65,3,3,0,0,1-.59-1,4.37,4.37,0,0,1-.2-1.36,5.07,5.07,0,0,1,.28-1.71,6.53,6.53,0,0,1,.71-1.48,7.27,7.27,0,0,1,1-1.19,6.81,6.81,0,0,1,1.07-.87H603c-.48.34-.92.67-1.3,1a8.53,8.53,0,0,0-1,1,6,6,0,0,0-.72,1.06,5.19,5.19,0,0,0-.44,1.24l.08,0a3.08,3.08,0,0,1,.32-.48,2.23,2.23,0,0,1,.42-.39,1.86,1.86,0,0,1,.55-.26,2.21,2.21,0,0,1,.71-.1,2.64,2.64,0,0,1,1,.18,2.27,2.27,0,0,1,.79.52,2.46,2.46,0,0,1,.53.83,3.26,3.26,0,0,1,0,2.22,2.54,2.54,0,0,1-.6.9,2.87,2.87,0,0,1-.94.58A3.43,3.43,0,0,1,601.09,221.08Zm0-1.07a1.6,1.6,0,0,0,1.19-.42,1.55,1.55,0,0,0,.42-1.17v-.12a1.55,1.55,0,0,0-.42-1.17,1.6,1.6,0,0,0-1.19-.42,1.58,1.58,0,0,0-1.17.42,1.55,1.55,0,0,0-.42,1.17v.12a1.55,1.55,0,0,0,.42,1.17A1.58,1.58,0,0,0,601.07,220Z" transform="translate(0 -1.07)"/></g><g class="cls-7"><path class="cls-8" d="M587.43,301.73a3.33,3.33,0,0,1-1.26-.22,2.5,2.5,0,0,1-.93-.66,2.71,2.71,0,0,1-.59-1,4.13,4.13,0,0,1-.21-1.36,5.39,5.39,0,0,1,.28-1.72,6.27,6.27,0,0,1,.72-1.47,7.31,7.31,0,0,1,1-1.2,8.89,8.89,0,0,1,1.07-.87h1.8c-.48.35-.91.68-1.29,1a8.6,8.6,0,0,0-1,1,5.68,5.68,0,0,0-.71,1.07,5.49,5.49,0,0,0-.45,1.24l.09,0a2.94,2.94,0,0,1,.31-.47,2,2,0,0,1,.42-.39,2.35,2.35,0,0,1,.55-.27,2.6,2.6,0,0,1,.71-.09,2.73,2.73,0,0,1,1,.18,2.22,2.22,0,0,1,.79.52,2.39,2.39,0,0,1,.52.82,3.21,3.21,0,0,1,0,2.23,2.41,2.41,0,0,1-.6.89,2.81,2.81,0,0,1-.94.58A3.24,3.24,0,0,1,587.43,301.73Zm0-1.06a1.61,1.61,0,0,0,1.19-.42,1.58,1.58,0,0,0,.42-1.17V299a1.59,1.59,0,0,0-.42-1.18,1.92,1.92,0,0,0-2.37,0,1.59,1.59,0,0,0-.42,1.18v.12a1.58,1.58,0,0,0,.42,1.17A1.61,1.61,0,0,0,587.42,300.67Z" transform="translate(0 -1.07)"/><path class="cls-8" d="M594.49,301.71a1.09,1.09,0,0,1-.81-.24.79.79,0,0,1-.24-.59v-.31a.81.81,0,0,1,.24-.59,1.09,1.09,0,0,1,.81-.24,1.12,1.12,0,0,1,.81.24.84.84,0,0,1,.23.59v.31a.82.82,0,0,1-.23.59A1.12,1.12,0,0,1,594.49,301.71Z" transform="translate(0 -1.07)"/><path class="cls-8" d="M604.51,301.59h-5.79v-1.28l2.74-2.39a6.44,6.44,0,0,0,1-1.09,1.9,1.9,0,0,0,.36-1.1v-.13a1.36,1.36,0,0,0-.37-1,1.4,1.4,0,0,0-1-.36,1.46,1.46,0,0,0-1.07.38,2,2,0,0,0-.55.94l-1.18-.44a3.26,3.26,0,0,1,.35-.76,2.78,2.78,0,0,1,.58-.66,2.81,2.81,0,0,1,.84-.45,3.53,3.53,0,0,1,1.13-.17,3.25,3.25,0,0,1,1.16.19,2.41,2.41,0,0,1,.85.51,2.08,2.08,0,0,1,.53.77,2.64,2.64,0,0,1,.18,1,2.75,2.75,0,0,1-.15.93,3.35,3.35,0,0,1-.42.82,4.9,4.9,0,0,1-.64.75c-.25.24-.52.48-.82.72l-2,1.7h4.34Z" transform="translate(0 -1.07)"/></g><g class="cls-7"><path class="cls-8" d="M570.05,10.19V4h1.31v1h.06a2.25,2.25,0,0,1,.24-.46,1.34,1.34,0,0,1,.37-.38,1.58,1.58,0,0,1,.5-.26,2,2,0,0,1,.67-.1,2,2,0,0,1,1.52.61,2.47,2.47,0,0,1,.57,1.74v4H574V6.4c0-1-.42-1.48-1.28-1.48a1.61,1.61,0,0,0-.49.07,1.4,1.4,0,0,0-.43.19,1,1,0,0,0-.31.34.91.91,0,0,0-.11.47v4.2Z" transform="translate(0 -1.07)"/><path class="cls-8" d="M576.65,10.19V4h1.11v.8h.06a1.91,1.91,0,0,1,.42-.67,1.2,1.2,0,0,1,1.53,0,1.32,1.32,0,0,1,.35.74h0a2.1,2.1,0,0,1,.47-.71,1.18,1.18,0,0,1,.87-.3,1,1,0,0,1,1,.51,3,3,0,0,1,.28,1.47v4.36h-1.12V6a1.84,1.84,0,0,0-.15-.89.55.55,0,0,0-.51-.25.72.72,0,0,0-.52.21.86.86,0,0,0-.21.63v4.49h-1.11V6a1.84,1.84,0,0,0-.15-.89.53.53,0,0,0-.5-.25.73.73,0,0,0-.54.21.86.86,0,0,0-.21.63v4.49Z" transform="translate(0 -1.07)"/><path class="cls-8" d="M586.8,10.33a3,3,0,0,1-1.23-.23,2.5,2.5,0,0,1-.92-.64,2.85,2.85,0,0,1-.59-1,4.35,4.35,0,0,1-.2-1.35,4.33,4.33,0,0,1,.2-1.34,2.85,2.85,0,0,1,.59-1,2.52,2.52,0,0,1,.92-.65,3.4,3.4,0,0,1,2.46,0,2.52,2.52,0,0,1,.92.65,2.85,2.85,0,0,1,.59,1,4.33,4.33,0,0,1,.2,1.34,4.35,4.35,0,0,1-.2,1.35,2.85,2.85,0,0,1-.59,1,2.5,2.5,0,0,1-.92.64A3,3,0,0,1,586.8,10.33Zm0-1A1.55,1.55,0,0,0,588,8.86a1.8,1.8,0,0,0,.42-1.3V6.62a1.81,1.81,0,0,0-.42-1.3,1.72,1.72,0,0,0-2.3,0,1.81,1.81,0,0,0-.42,1.3v.94a1.8,1.8,0,0,0,.42,1.3A1.55,1.55,0,0,0,586.8,9.3Z" transform="translate(0 -1.07)"/><path class="cls-8" d="M591.18,9.12h2.05V2.38h-2.05V1.31h3.36V9.12h2.05v1.07h-5.41Z" transform="translate(0 -1.07)"/><path class="cls-8" d="M598.36,11.84l4-10.77h1.16l-4,10.77Z" transform="translate(0 -1.07)"/><path class="cls-8" d="M605.74,10.19V1.81h1.34V9.06h3.82v1.13Z" transform="translate(0 -1.07)"/></g><g class="cls-7"><path class="cls-8" d="M584.49,58.5l3.1-7.27h-3.26v1.54h-1.16V50.12h5.77V51.3l-3,7.2Z" transform="translate(0 -1.07)"/><path class="cls-8" d="M593.14,58.62a1.09,1.09,0,0,1-.81-.24.81.81,0,0,1-.24-.59v-.31a.81.81,0,0,1,.24-.59,1.09,1.09,0,0,1,.81-.24,1.12,1.12,0,0,1,.81.24.84.84,0,0,1,.23.59v.31a.84.84,0,0,1-.23.59A1.12,1.12,0,0,1,593.14,58.62Z" transform="translate(0 -1.07)"/><path class="cls-8" d="M601,58.5V56.87h-4V55.71l3.5-5.59h1.77V55.8h1.17v1.07h-1.17V58.5Zm-2.84-2.7H601V51.36h-.07Z" transform="translate(0 -1.07)"/></g></g></g></svg>