<svg id="Layer_1" data-name="Layer 1" xmlns="http://www.w3.org/2000/svg" xmlns:xlink="http://www.w3.org/1999/xlink" viewBox="0 0 22.87 22.87"><defs><style>.cls-1{fill:none;}.cls-2{clip-path:url(#clip-path);}.cls-3{fill:#618A60;}.cls-4{fill:#e2dbce;}</style><clipPath id="clip-path"><rect class="cls-1" width="22.87" height="22.87"/></clipPath></defs><g class="cls-2"><g id="Group_445" data-name="Group 445"><path id="Path_1780" data-name="Path 1780" class="cls-3" d="M22.87,11.43A11.44,11.44,0,1,1,11.43,0,11.44,11.44,0,0,1,22.87,11.43h0"/><path id="Path_1781" data-name="Path 1781" class="cls-4" d="M18.85,8.63a5.86,5.86,0,0,1-.52.71l-6.71,6.75a1.75,1.75,0,0,1-1.35.61,4.94,4.94,0,0,1-1.54-1.26c-1-1-2-2-3-3a1.34,1.34,0,0,1-.3-1.86,1.22,1.22,0,0,1,.3-.3q.3-.33.63-.63A1.25,1.25,0,0,1,8.11,9.5l.11.11c.63.59,1.25,1.19,1.82,1.84.37.42.57.33.92,0,1.43-1.46,2.89-2.89,4.33-4.34.54-.53,1-1.16,1.93-.85a3.09,3.09,0,0,1,1.63,2.38"/></g></g></svg>